<svg width="1294" height="610" viewBox="0 0 1294 610" fill="none" xmlns="http://www.w3.org/2000/svg">
<path d="M655.5 594.364L658.284 598.915H658.375L661.159 594.364H663.193L659.568 600.182L663.216 606H661.17L658.375 601.511H658.284L655.489 606H653.443L657.153 600.182L653.466 594.364H655.5ZM668.925 599.443V600.92H663.766V599.443H668.925ZM672.308 606H670.445L674.632 594.364H676.661L680.848 606H678.984L675.695 596.477H675.604L672.308 606ZM672.621 601.443H678.666V602.92H672.621V601.443ZM683.733 597.273L685.659 600.67L687.602 597.273H689.46L686.739 601.636L689.483 606H687.625L685.659 602.739L683.699 606H681.835L684.551 601.636L681.869 597.273H683.733ZM691.205 606V597.273H692.903V606H691.205ZM692.062 595.926C691.767 595.926 691.513 595.828 691.301 595.631C691.093 595.43 690.989 595.191 690.989 594.915C690.989 594.634 691.093 594.396 691.301 594.199C691.513 593.998 691.767 593.898 692.062 593.898C692.358 593.898 692.61 593.998 692.818 594.199C693.03 594.396 693.136 594.634 693.136 594.915C693.136 595.191 693.03 595.43 692.818 595.631C692.61 595.828 692.358 595.926 692.062 595.926ZM701.729 599.403L700.189 599.676C700.125 599.479 700.022 599.292 699.882 599.114C699.746 598.936 699.56 598.79 699.325 598.676C699.09 598.562 698.797 598.506 698.445 598.506C697.964 598.506 697.562 598.614 697.24 598.83C696.918 599.042 696.757 599.316 696.757 599.653C696.757 599.945 696.865 600.18 697.081 600.358C697.297 600.536 697.645 600.682 698.126 600.795L699.513 601.114C700.316 601.299 700.914 601.585 701.308 601.972C701.702 602.358 701.899 602.86 701.899 603.477C701.899 604 701.748 604.466 701.445 604.875C701.145 605.28 700.727 605.598 700.189 605.83C699.655 606.061 699.036 606.176 698.331 606.176C697.354 606.176 696.556 605.968 695.939 605.551C695.321 605.131 694.943 604.534 694.803 603.761L696.445 603.511C696.547 603.939 696.757 604.263 697.075 604.483C697.393 604.699 697.808 604.807 698.32 604.807C698.876 604.807 699.321 604.691 699.655 604.46C699.988 604.225 700.155 603.939 700.155 603.602C700.155 603.33 700.053 603.1 699.848 602.915C699.647 602.729 699.339 602.589 698.922 602.494L697.445 602.17C696.63 601.985 696.028 601.689 695.638 601.284C695.251 600.879 695.058 600.366 695.058 599.744C695.058 599.229 695.202 598.778 695.49 598.392C695.778 598.006 696.176 597.705 696.683 597.489C697.191 597.269 697.772 597.159 698.428 597.159C699.371 597.159 700.113 597.364 700.655 597.773C701.196 598.178 701.554 598.722 701.729 599.403ZM709.155 594.364L712.393 603.841H712.524L715.763 594.364H717.661L713.473 606H711.445L707.257 594.364H709.155ZM720.885 606.193C720.332 606.193 719.832 606.091 719.385 605.886C718.938 605.678 718.584 605.377 718.322 604.983C718.065 604.589 717.936 604.106 717.936 603.534C717.936 603.042 718.031 602.636 718.22 602.318C718.41 602 718.665 601.748 718.987 601.562C719.309 601.377 719.669 601.237 720.067 601.142C720.464 601.047 720.87 600.975 721.283 600.926C721.805 600.866 722.23 600.816 722.555 600.778C722.881 600.737 723.118 600.67 723.266 600.58C723.413 600.489 723.487 600.341 723.487 600.136V600.097C723.487 599.6 723.347 599.216 723.067 598.943C722.79 598.67 722.377 598.534 721.828 598.534C721.256 598.534 720.805 598.661 720.476 598.915C720.15 599.165 719.925 599.443 719.8 599.75L718.203 599.386C718.393 598.856 718.669 598.428 719.033 598.102C719.4 597.773 719.822 597.534 720.3 597.386C720.777 597.235 721.279 597.159 721.805 597.159C722.154 597.159 722.523 597.201 722.913 597.284C723.307 597.364 723.675 597.511 724.016 597.727C724.36 597.943 724.643 598.252 724.862 598.653C725.082 599.051 725.192 599.568 725.192 600.205V606H723.533V604.807H723.464C723.355 605.027 723.19 605.242 722.97 605.455C722.75 605.667 722.468 605.843 722.124 605.983C721.779 606.123 721.366 606.193 720.885 606.193ZM721.254 604.83C721.724 604.83 722.125 604.737 722.459 604.551C722.796 604.366 723.052 604.123 723.226 603.824C723.404 603.521 723.493 603.197 723.493 602.852V601.727C723.432 601.788 723.315 601.845 723.141 601.898C722.97 601.947 722.775 601.991 722.555 602.028C722.336 602.062 722.122 602.095 721.913 602.125C721.705 602.152 721.531 602.174 721.391 602.193C721.061 602.235 720.76 602.305 720.487 602.403C720.218 602.502 720.002 602.644 719.839 602.83C719.68 603.011 719.601 603.254 719.601 603.557C719.601 603.977 719.756 604.295 720.067 604.511C720.377 604.723 720.773 604.83 721.254 604.83ZM729.153 594.364V606H727.455V594.364H729.153ZM736.967 602.381V597.273H738.672V606H737.001V604.489H736.911C736.71 604.955 736.388 605.343 735.945 605.653C735.505 605.96 734.958 606.114 734.303 606.114C733.742 606.114 733.246 605.991 732.814 605.744C732.386 605.494 732.049 605.125 731.803 604.636C731.56 604.148 731.439 603.544 731.439 602.824V597.273H733.138V602.619C733.138 603.214 733.303 603.687 733.632 604.04C733.962 604.392 734.39 604.568 734.916 604.568C735.234 604.568 735.551 604.489 735.865 604.33C736.183 604.17 736.446 603.93 736.655 603.608C736.867 603.286 736.971 602.877 736.967 602.381ZM744.716 606.176C743.856 606.176 743.116 605.992 742.494 605.625C741.877 605.254 741.4 604.733 741.062 604.062C740.729 603.388 740.562 602.598 740.562 601.693C740.562 600.799 740.729 600.011 741.062 599.33C741.4 598.648 741.869 598.116 742.472 597.733C743.078 597.35 743.786 597.159 744.597 597.159C745.089 597.159 745.566 597.241 746.028 597.403C746.491 597.566 746.905 597.822 747.273 598.17C747.64 598.519 747.93 598.972 748.142 599.528C748.354 600.081 748.46 600.754 748.46 601.545V602.148H741.523V600.875H746.795C746.795 600.428 746.705 600.032 746.523 599.688C746.341 599.339 746.085 599.064 745.756 598.864C745.43 598.663 745.047 598.562 744.608 598.562C744.131 598.562 743.714 598.68 743.358 598.915C743.006 599.146 742.733 599.449 742.54 599.824C742.35 600.195 742.256 600.598 742.256 601.034V602.028C742.256 602.612 742.358 603.108 742.562 603.517C742.771 603.926 743.061 604.239 743.432 604.455C743.803 604.667 744.237 604.773 744.733 604.773C745.055 604.773 745.348 604.727 745.614 604.636C745.879 604.542 746.108 604.402 746.301 604.216C746.494 604.03 746.642 603.801 746.744 603.528L748.352 603.818C748.223 604.292 747.992 604.706 747.659 605.062C747.33 605.415 746.915 605.689 746.415 605.886C745.919 606.08 745.352 606.176 744.716 606.176Z" fill="#89939E"/>
<path d="M3.36364 333.619L3.36364 331.625L8.65341 328.585V328.46L3.36364 325.42L3.36364 323.426L10.4318 327.648H15V329.398H10.4318L3.36364 333.619ZM8.44318 317.778H9.92045V322.938H8.44318V317.778ZM15 314.395V316.259L3.36364 312.071L3.36364 310.043L15 305.855V307.719L5.47727 311.009V311.099L15 314.395ZM10.4432 314.082L10.4432 308.037H11.9205L11.9205 314.082H10.4432ZM6.27273 302.97L9.67045 301.044L6.27273 299.101V297.243L10.6364 299.964L15 297.22L15 299.078L11.7386 301.044L15 303.004V304.868L10.6364 302.152L6.27273 304.834V302.97ZM15 295.499H6.27273L6.27273 293.8H15V295.499ZM4.92614 294.641C4.92614 294.936 4.82765 295.19 4.63068 295.402C4.42992 295.61 4.19129 295.714 3.91477 295.714C3.63447 295.714 3.39583 295.61 3.19886 295.402C2.99811 295.19 2.89773 294.936 2.89773 294.641C2.89773 294.345 2.99811 294.093 3.19886 293.885C3.39583 293.673 3.63447 293.567 3.91477 293.567C4.19129 293.567 4.42992 293.673 4.63068 293.885C4.82765 294.093 4.92614 294.345 4.92614 294.641ZM8.40341 284.974L8.67614 286.514C8.47917 286.579 8.29167 286.681 8.11364 286.821C7.93561 286.957 7.78977 287.143 7.67614 287.378C7.5625 287.613 7.50568 287.906 7.50568 288.259C7.50568 288.74 7.61364 289.141 7.82955 289.463C8.04167 289.785 8.31629 289.946 8.65341 289.946C8.94508 289.946 9.17992 289.838 9.35795 289.622C9.53598 289.406 9.68182 289.058 9.79545 288.577L10.1136 287.19C10.2992 286.387 10.5852 285.789 10.9716 285.395C11.358 285.001 11.8598 284.804 12.4773 284.804C13 284.804 13.4659 284.955 13.875 285.259C14.2803 285.558 14.5985 285.976 14.8295 286.514C15.0606 287.048 15.1761 287.668 15.1761 288.372C15.1761 289.349 14.9678 290.147 14.5511 290.764C14.1307 291.382 13.5341 291.76 12.7614 291.901L12.5114 290.259C12.9394 290.156 13.2633 289.946 13.483 289.628C13.6989 289.31 13.8068 288.895 13.8068 288.384C13.8068 287.827 13.6913 287.382 13.4602 287.048C13.2254 286.715 12.9394 286.548 12.6023 286.548C12.3295 286.548 12.1004 286.651 11.9148 286.855C11.7292 287.056 11.589 287.365 11.4943 287.781L11.1705 289.259C10.9848 290.073 10.6894 290.675 10.2841 291.065C9.87879 291.452 9.36553 291.645 8.74432 291.645C8.22917 291.645 7.77841 291.501 7.39205 291.213C7.00568 290.925 6.70455 290.527 6.48864 290.02C6.26894 289.512 6.15909 288.931 6.15909 288.276C6.15909 287.332 6.36364 286.59 6.77273 286.048C7.17803 285.507 7.72159 285.149 8.40341 284.974ZM3.36364 277.548L12.8409 274.31V274.179L3.36364 270.94V269.043L15 273.23V275.259L3.36364 279.446L3.36364 277.548ZM15.1932 265.818C15.1932 266.371 15.0909 266.871 14.8864 267.318C14.678 267.765 14.3769 268.119 13.983 268.381C13.589 268.638 13.1061 268.767 12.5341 268.767C12.0417 268.767 11.6364 268.672 11.3182 268.483C11 268.294 10.7481 268.038 10.5625 267.716C10.3769 267.394 10.2367 267.034 10.142 266.636C10.0473 266.239 9.97538 265.833 9.92614 265.42C9.86553 264.898 9.81629 264.473 9.77841 264.148C9.73674 263.822 9.67045 263.585 9.57955 263.438C9.48864 263.29 9.34091 263.216 9.13636 263.216H9.09659C8.60038 263.216 8.21591 263.356 7.94318 263.636C7.67045 263.913 7.53409 264.326 7.53409 264.875C7.53409 265.447 7.66098 265.898 7.91477 266.227C8.16477 266.553 8.44318 266.778 8.75 266.903L8.38636 268.5C7.85606 268.311 7.42803 268.034 7.10227 267.67C6.77273 267.303 6.53409 266.881 6.38636 266.403C6.23485 265.926 6.15909 265.424 6.15909 264.898C6.15909 264.549 6.20076 264.18 6.28409 263.79C6.36364 263.396 6.51136 263.028 6.72727 262.688C6.94318 262.343 7.25189 262.061 7.65341 261.841C8.05114 261.621 8.56818 261.511 9.20455 261.511H15V263.17H13.8068V263.239C14.0265 263.348 14.2424 263.513 14.4545 263.733C14.6667 263.953 14.8428 264.235 14.983 264.58C15.1231 264.924 15.1932 265.337 15.1932 265.818ZM13.8295 265.449C13.8295 264.979 13.7367 264.578 13.5511 264.244C13.3655 263.907 13.1231 263.652 12.8239 263.477C12.5208 263.299 12.197 263.21 11.8523 263.21H10.7273C10.7879 263.271 10.8447 263.388 10.8977 263.562C10.947 263.733 10.9905 263.928 11.0284 264.148C11.0625 264.367 11.0947 264.581 11.125 264.79C11.1515 264.998 11.1742 265.172 11.1932 265.312C11.2348 265.642 11.3049 265.943 11.4034 266.216C11.5019 266.485 11.6439 266.701 11.8295 266.864C12.0114 267.023 12.2538 267.102 12.5568 267.102C12.9773 267.102 13.2955 266.947 13.5114 266.636C13.7235 266.326 13.8295 265.93 13.8295 265.449ZM3.36364 257.55H15V259.249H3.36364L3.36364 257.55ZM11.3807 249.736H6.27273V248.031H15V249.702H13.4886V249.793C13.9545 249.993 14.3428 250.315 14.6534 250.759C14.9602 251.198 15.1136 251.745 15.1136 252.401C15.1136 252.961 14.9905 253.457 14.7443 253.889C14.4943 254.317 14.125 254.654 13.6364 254.901C13.1477 255.143 12.5436 255.264 11.8239 255.264H6.27273V253.565H11.6193C12.214 253.565 12.6875 253.401 13.0398 253.071C13.392 252.741 13.5682 252.313 13.5682 251.787C13.5682 251.469 13.4886 251.152 13.3295 250.838C13.1705 250.52 12.9299 250.257 12.608 250.048C12.286 249.836 11.8769 249.732 11.3807 249.736ZM15.1761 241.987C15.1761 242.847 14.9924 243.588 14.625 244.209C14.2538 244.826 13.733 245.304 13.0625 245.641C12.3883 245.974 11.5985 246.141 10.6932 246.141C9.79924 246.141 9.01136 245.974 8.32955 245.641C7.64773 245.304 7.11553 244.834 6.73295 244.232C6.35038 243.625 6.15909 242.917 6.15909 242.107C6.15909 241.614 6.24053 241.137 6.40341 240.675C6.56629 240.213 6.82197 239.798 7.17045 239.43C7.51894 239.063 7.97159 238.773 8.52841 238.561C9.08144 238.349 9.75379 238.243 10.5455 238.243H11.1477L11.1477 245.18H9.875L9.875 239.908C9.42803 239.908 9.0322 239.999 8.6875 240.18C8.33902 240.362 8.06439 240.618 7.86364 240.947C7.66288 241.273 7.5625 241.656 7.5625 242.095C7.5625 242.572 7.67992 242.989 7.91477 243.345C8.14583 243.697 8.44886 243.97 8.82386 244.163C9.19508 244.353 9.59848 244.447 10.0341 244.447H11.0284C11.6117 244.447 12.108 244.345 12.517 244.141C12.9261 243.932 13.2386 243.643 13.4545 243.271C13.6667 242.9 13.7727 242.466 13.7727 241.97C13.7727 241.648 13.7273 241.355 13.6364 241.089C13.5417 240.824 13.4015 240.595 13.2159 240.402C13.0303 240.209 12.8011 240.061 12.5284 239.959L12.8182 238.351C13.2917 238.48 13.7064 238.711 14.0625 239.044C14.4148 239.374 14.6894 239.788 14.8864 240.288C15.0795 240.785 15.1761 241.351 15.1761 241.987Z" fill="#89939E"/>
<g clip-path="url(#clip0_2067_15824)">
<rect width="1215" height="531" transform="translate(79)" fill="white"/>
<path d="M141.695 471.5H1266" stroke="#F0F0F0" stroke-dasharray="4 2"/>
<path d="M141.695 385.5H1266" stroke="#F0F0F0" stroke-dasharray="4 2"/>
<path d="M141.695 298.5H1266" stroke="#F0F0F0" stroke-dasharray="4 2"/>
<path d="M141.695 212.5H1266" stroke="#F0F0F0" stroke-dasharray="4 2"/>
<path d="M141.695 126.5H1266" stroke="#F0F0F0" stroke-dasharray="4 2"/>
<path d="M141.695 40.5H1266" stroke="#F0F0F0" stroke-dasharray="4 2"/>
<path d="M141.695 471.5H1266" stroke="#F0F0F0" stroke-linecap="round"/>
<path d="M282.5 471V476" stroke="#D9D9D9"/>
<path d="M563.5 471V476" stroke="#D9D9D9"/>
<path d="M844.5 471V476" stroke="#D9D9D9"/>
<path d="M1125.5 471V476" stroke="#D9D9D9"/>
<path d="M232.234 471H332.234V60.6875H232.234V471Z" fill="#F5F7FA"/>
<path d="M513.309 471H613.309V326.184H513.309V471Z" fill="#F5F7FA"/>
<path d="M794.387 471H894.387V189.988H794.387V471Z" fill="#F5F7FA"/>
<path d="M1075.46 471H1175.46V195.16H1075.46V471Z" fill="#F5F7FA"/>
</g>
<defs>
<clipPath id="clip0_2067_15824">
<rect width="1215" height="531" fill="white" transform="translate(79)"/>
</clipPath>
</defs>
</svg>
