<svg width="1296" height="549" viewBox="0 0 1296 549" fill="none" xmlns="http://www.w3.org/2000/svg">
<path d="M655.5 533.364L658.284 537.915H658.375L661.159 533.364H663.193L659.568 539.182L663.216 545H661.17L658.375 540.511H658.284L655.489 545H653.443L657.153 539.182L653.466 533.364H655.5ZM668.925 538.443V539.92H663.766V538.443H668.925ZM672.308 545H670.445L674.632 533.364H676.661L680.848 545H678.984L675.695 535.477H675.604L672.308 545ZM672.621 540.443H678.666V541.92H672.621V540.443ZM683.733 536.273L685.659 539.67L687.602 536.273H689.46L686.739 540.636L689.483 545H687.625L685.659 541.739L683.699 545H681.835L684.551 540.636L681.869 536.273H683.733ZM691.205 545V536.273H692.903V545H691.205ZM692.062 534.926C691.767 534.926 691.513 534.828 691.301 534.631C691.093 534.43 690.989 534.191 690.989 533.915C690.989 533.634 691.093 533.396 691.301 533.199C691.513 532.998 691.767 532.898 692.062 532.898C692.358 532.898 692.61 532.998 692.818 533.199C693.03 533.396 693.136 533.634 693.136 533.915C693.136 534.191 693.03 534.43 692.818 534.631C692.61 534.828 692.358 534.926 692.062 534.926ZM701.729 538.403L700.189 538.676C700.125 538.479 700.022 538.292 699.882 538.114C699.746 537.936 699.56 537.79 699.325 537.676C699.09 537.562 698.797 537.506 698.445 537.506C697.964 537.506 697.562 537.614 697.24 537.83C696.918 538.042 696.757 538.316 696.757 538.653C696.757 538.945 696.865 539.18 697.081 539.358C697.297 539.536 697.645 539.682 698.126 539.795L699.513 540.114C700.316 540.299 700.914 540.585 701.308 540.972C701.702 541.358 701.899 541.86 701.899 542.477C701.899 543 701.748 543.466 701.445 543.875C701.145 544.28 700.727 544.598 700.189 544.83C699.655 545.061 699.036 545.176 698.331 545.176C697.354 545.176 696.556 544.968 695.939 544.551C695.321 544.131 694.943 543.534 694.803 542.761L696.445 542.511C696.547 542.939 696.757 543.263 697.075 543.483C697.393 543.699 697.808 543.807 698.32 543.807C698.876 543.807 699.321 543.691 699.655 543.46C699.988 543.225 700.155 542.939 700.155 542.602C700.155 542.33 700.053 542.1 699.848 541.915C699.647 541.729 699.339 541.589 698.922 541.494L697.445 541.17C696.63 540.985 696.028 540.689 695.638 540.284C695.251 539.879 695.058 539.366 695.058 538.744C695.058 538.229 695.202 537.778 695.49 537.392C695.778 537.006 696.176 536.705 696.683 536.489C697.191 536.269 697.772 536.159 698.428 536.159C699.371 536.159 700.113 536.364 700.655 536.773C701.196 537.178 701.554 537.722 701.729 538.403ZM709.155 533.364L712.393 542.841H712.524L715.763 533.364H717.661L713.473 545H711.445L707.257 533.364H709.155ZM720.885 545.193C720.332 545.193 719.832 545.091 719.385 544.886C718.938 544.678 718.584 544.377 718.322 543.983C718.065 543.589 717.936 543.106 717.936 542.534C717.936 542.042 718.031 541.636 718.22 541.318C718.41 541 718.665 540.748 718.987 540.562C719.309 540.377 719.669 540.237 720.067 540.142C720.464 540.047 720.87 539.975 721.283 539.926C721.805 539.866 722.23 539.816 722.555 539.778C722.881 539.737 723.118 539.67 723.266 539.58C723.413 539.489 723.487 539.341 723.487 539.136V539.097C723.487 538.6 723.347 538.216 723.067 537.943C722.79 537.67 722.377 537.534 721.828 537.534C721.256 537.534 720.805 537.661 720.476 537.915C720.15 538.165 719.925 538.443 719.8 538.75L718.203 538.386C718.393 537.856 718.669 537.428 719.033 537.102C719.4 536.773 719.822 536.534 720.3 536.386C720.777 536.235 721.279 536.159 721.805 536.159C722.154 536.159 722.523 536.201 722.913 536.284C723.307 536.364 723.675 536.511 724.016 536.727C724.36 536.943 724.643 537.252 724.862 537.653C725.082 538.051 725.192 538.568 725.192 539.205V545H723.533V543.807H723.464C723.355 544.027 723.19 544.242 722.97 544.455C722.75 544.667 722.468 544.843 722.124 544.983C721.779 545.123 721.366 545.193 720.885 545.193ZM721.254 543.83C721.724 543.83 722.125 543.737 722.459 543.551C722.796 543.366 723.052 543.123 723.226 542.824C723.404 542.521 723.493 542.197 723.493 541.852V540.727C723.432 540.788 723.315 540.845 723.141 540.898C722.97 540.947 722.775 540.991 722.555 541.028C722.336 541.062 722.122 541.095 721.913 541.125C721.705 541.152 721.531 541.174 721.391 541.193C721.061 541.235 720.76 541.305 720.487 541.403C720.218 541.502 720.002 541.644 719.839 541.83C719.68 542.011 719.601 542.254 719.601 542.557C719.601 542.977 719.756 543.295 720.067 543.511C720.377 543.723 720.773 543.83 721.254 543.83ZM729.153 533.364V545H727.455V533.364H729.153ZM736.967 541.381V536.273H738.672V545H737.001V543.489H736.911C736.71 543.955 736.388 544.343 735.945 544.653C735.505 544.96 734.958 545.114 734.303 545.114C733.742 545.114 733.246 544.991 732.814 544.744C732.386 544.494 732.049 544.125 731.803 543.636C731.56 543.148 731.439 542.544 731.439 541.824V536.273H733.138V541.619C733.138 542.214 733.303 542.687 733.632 543.04C733.962 543.392 734.39 543.568 734.916 543.568C735.234 543.568 735.551 543.489 735.865 543.33C736.183 543.17 736.446 542.93 736.655 542.608C736.867 542.286 736.971 541.877 736.967 541.381ZM744.716 545.176C743.856 545.176 743.116 544.992 742.494 544.625C741.877 544.254 741.4 543.733 741.062 543.062C740.729 542.388 740.562 541.598 740.562 540.693C740.562 539.799 740.729 539.011 741.062 538.33C741.4 537.648 741.869 537.116 742.472 536.733C743.078 536.35 743.786 536.159 744.597 536.159C745.089 536.159 745.566 536.241 746.028 536.403C746.491 536.566 746.905 536.822 747.273 537.17C747.64 537.519 747.93 537.972 748.142 538.528C748.354 539.081 748.46 539.754 748.46 540.545V541.148H741.523V539.875H746.795C746.795 539.428 746.705 539.032 746.523 538.688C746.341 538.339 746.085 538.064 745.756 537.864C745.43 537.663 745.047 537.562 744.608 537.562C744.131 537.562 743.714 537.68 743.358 537.915C743.006 538.146 742.733 538.449 742.54 538.824C742.35 539.195 742.256 539.598 742.256 540.034V541.028C742.256 541.612 742.358 542.108 742.562 542.517C742.771 542.926 743.061 543.239 743.432 543.455C743.803 543.667 744.237 543.773 744.733 543.773C745.055 543.773 745.348 543.727 745.614 543.636C745.879 543.542 746.108 543.402 746.301 543.216C746.494 543.03 746.642 542.801 746.744 542.528L748.352 542.818C748.223 543.292 747.992 543.706 747.659 544.062C747.33 544.415 746.915 544.689 746.415 544.886C745.919 545.08 745.352 545.176 744.716 545.176Z" fill="#89939E"/>
<path d="M3.36364 272.619L3.36364 270.625L8.65341 267.585V267.46L3.36364 264.42L3.36364 262.426L10.4318 266.648H15V268.398H10.4318L3.36364 272.619ZM8.44318 256.778H9.92045V261.938H8.44318V256.778ZM15 253.395V255.259L3.36364 251.071L3.36364 249.043L15 244.855V246.719L5.47727 250.009V250.099L15 253.395ZM10.4432 253.082L10.4432 247.037H11.9205L11.9205 253.082H10.4432ZM6.27273 241.97L9.67045 240.044L6.27273 238.101V236.243L10.6364 238.964L15 236.22L15 238.078L11.7386 240.044L15 242.004V243.868L10.6364 241.152L6.27273 243.834V241.97ZM15 234.499H6.27273L6.27273 232.8H15V234.499ZM4.92614 233.641C4.92614 233.936 4.82765 234.19 4.63068 234.402C4.42992 234.61 4.19129 234.714 3.91477 234.714C3.63447 234.714 3.39583 234.61 3.19886 234.402C2.99811 234.19 2.89773 233.936 2.89773 233.641C2.89773 233.345 2.99811 233.093 3.19886 232.885C3.39583 232.673 3.63447 232.567 3.91477 232.567C4.19129 232.567 4.42992 232.673 4.63068 232.885C4.82765 233.093 4.92614 233.345 4.92614 233.641ZM8.40341 223.974L8.67614 225.514C8.47917 225.579 8.29167 225.681 8.11364 225.821C7.93561 225.957 7.78977 226.143 7.67614 226.378C7.5625 226.613 7.50568 226.906 7.50568 227.259C7.50568 227.74 7.61364 228.141 7.82955 228.463C8.04167 228.785 8.31629 228.946 8.65341 228.946C8.94508 228.946 9.17992 228.838 9.35795 228.622C9.53598 228.406 9.68182 228.058 9.79545 227.577L10.1136 226.19C10.2992 225.387 10.5852 224.789 10.9716 224.395C11.358 224.001 11.8598 223.804 12.4773 223.804C13 223.804 13.4659 223.955 13.875 224.259C14.2803 224.558 14.5985 224.976 14.8295 225.514C15.0606 226.048 15.1761 226.668 15.1761 227.372C15.1761 228.349 14.9678 229.147 14.5511 229.764C14.1307 230.382 13.5341 230.76 12.7614 230.901L12.5114 229.259C12.9394 229.156 13.2633 228.946 13.483 228.628C13.6989 228.31 13.8068 227.895 13.8068 227.384C13.8068 226.827 13.6913 226.382 13.4602 226.048C13.2254 225.715 12.9394 225.548 12.6023 225.548C12.3295 225.548 12.1004 225.651 11.9148 225.855C11.7292 226.056 11.589 226.365 11.4943 226.781L11.1705 228.259C10.9848 229.073 10.6894 229.675 10.2841 230.065C9.87879 230.452 9.36553 230.645 8.74432 230.645C8.22917 230.645 7.77841 230.501 7.39205 230.213C7.00568 229.925 6.70455 229.527 6.48864 229.02C6.26894 228.512 6.15909 227.931 6.15909 227.276C6.15909 226.332 6.36364 225.59 6.77273 225.048C7.17803 224.507 7.72159 224.149 8.40341 223.974ZM3.36364 216.548L12.8409 213.31V213.179L3.36364 209.94V208.043L15 212.23V214.259L3.36364 218.446L3.36364 216.548ZM15.1932 204.818C15.1932 205.371 15.0909 205.871 14.8864 206.318C14.678 206.765 14.3769 207.119 13.983 207.381C13.589 207.638 13.1061 207.767 12.5341 207.767C12.0417 207.767 11.6364 207.672 11.3182 207.483C11 207.294 10.7481 207.038 10.5625 206.716C10.3769 206.394 10.2367 206.034 10.142 205.636C10.0473 205.239 9.97538 204.833 9.92614 204.42C9.86553 203.898 9.81629 203.473 9.77841 203.148C9.73674 202.822 9.67045 202.585 9.57955 202.438C9.48864 202.29 9.34091 202.216 9.13636 202.216H9.09659C8.60038 202.216 8.21591 202.356 7.94318 202.636C7.67045 202.913 7.53409 203.326 7.53409 203.875C7.53409 204.447 7.66098 204.898 7.91477 205.227C8.16477 205.553 8.44318 205.778 8.75 205.903L8.38636 207.5C7.85606 207.311 7.42803 207.034 7.10227 206.67C6.77273 206.303 6.53409 205.881 6.38636 205.403C6.23485 204.926 6.15909 204.424 6.15909 203.898C6.15909 203.549 6.20076 203.18 6.28409 202.79C6.36364 202.396 6.51136 202.028 6.72727 201.688C6.94318 201.343 7.25189 201.061 7.65341 200.841C8.05114 200.621 8.56818 200.511 9.20455 200.511H15V202.17H13.8068V202.239C14.0265 202.348 14.2424 202.513 14.4545 202.733C14.6667 202.953 14.8428 203.235 14.983 203.58C15.1231 203.924 15.1932 204.337 15.1932 204.818ZM13.8295 204.449C13.8295 203.979 13.7367 203.578 13.5511 203.244C13.3655 202.907 13.1231 202.652 12.8239 202.477C12.5208 202.299 12.197 202.21 11.8523 202.21H10.7273C10.7879 202.271 10.8447 202.388 10.8977 202.562C10.947 202.733 10.9905 202.928 11.0284 203.148C11.0625 203.367 11.0947 203.581 11.125 203.79C11.1515 203.998 11.1742 204.172 11.1932 204.312C11.2348 204.642 11.3049 204.943 11.4034 205.216C11.5019 205.485 11.6439 205.701 11.8295 205.864C12.0114 206.023 12.2538 206.102 12.5568 206.102C12.9773 206.102 13.2955 205.947 13.5114 205.636C13.7235 205.326 13.8295 204.93 13.8295 204.449ZM3.36364 196.55H15V198.249H3.36364L3.36364 196.55ZM11.3807 188.736H6.27273V187.031H15V188.702H13.4886V188.793C13.9545 188.993 14.3428 189.315 14.6534 189.759C14.9602 190.198 15.1136 190.745 15.1136 191.401C15.1136 191.961 14.9905 192.457 14.7443 192.889C14.4943 193.317 14.125 193.654 13.6364 193.901C13.1477 194.143 12.5436 194.264 11.8239 194.264H6.27273V192.565H11.6193C12.214 192.565 12.6875 192.401 13.0398 192.071C13.392 191.741 13.5682 191.313 13.5682 190.787C13.5682 190.469 13.4886 190.152 13.3295 189.838C13.1705 189.52 12.9299 189.257 12.608 189.048C12.286 188.836 11.8769 188.732 11.3807 188.736ZM15.1761 180.987C15.1761 181.847 14.9924 182.588 14.625 183.209C14.2538 183.826 13.733 184.304 13.0625 184.641C12.3883 184.974 11.5985 185.141 10.6932 185.141C9.79924 185.141 9.01136 184.974 8.32955 184.641C7.64773 184.304 7.11553 183.834 6.73295 183.232C6.35038 182.625 6.15909 181.917 6.15909 181.107C6.15909 180.614 6.24053 180.137 6.40341 179.675C6.56629 179.213 6.82197 178.798 7.17045 178.43C7.51894 178.063 7.97159 177.773 8.52841 177.561C9.08144 177.349 9.75379 177.243 10.5455 177.243H11.1477L11.1477 184.18H9.875L9.875 178.908C9.42803 178.908 9.0322 178.999 8.6875 179.18C8.33902 179.362 8.06439 179.618 7.86364 179.947C7.66288 180.273 7.5625 180.656 7.5625 181.095C7.5625 181.572 7.67992 181.989 7.91477 182.345C8.14583 182.697 8.44886 182.97 8.82386 183.163C9.19508 183.353 9.59848 183.447 10.0341 183.447H11.0284C11.6117 183.447 12.108 183.345 12.517 183.141C12.9261 182.932 13.2386 182.643 13.4545 182.271C13.6667 181.9 13.7727 181.466 13.7727 180.97C13.7727 180.648 13.7273 180.355 13.6364 180.089C13.5417 179.824 13.4015 179.595 13.2159 179.402C13.0303 179.209 12.8011 179.061 12.5284 178.959L12.8182 177.351C13.2917 177.48 13.7064 177.711 14.0625 178.044C14.4148 178.374 14.6894 178.788 14.8864 179.288C15.0795 179.785 15.1761 180.351 15.1761 180.987Z" fill="#89939E"/>
<g clip-path="url(#clip0_3632_24938)">
<rect width="1215" height="531" transform="translate(81)" fill="white"/>
<path d="M408 388.801H969L688.5 471.001L408 388.801Z" fill="#F5F7FA" stroke="white" stroke-linejoin="round"/>
<path d="M192.801 142.199H1184.2L1056.6 224.399H320.401L192.801 142.199Z" fill="#F5F7FA" stroke="white" stroke-linejoin="round"/>
<path d="M328.602 306.602H1048.4L969.002 388.802H408.002L328.602 306.602Z" fill="#F5F7FA" stroke="white" stroke-linejoin="round"/>
<path d="M161 60H1216L1184.2 142.2H192.8L161 60Z" fill="#F5F7FA" stroke="white" stroke-linejoin="round"/>
<path d="M320.398 224.398H1056.6L1048.4 306.598H328.598L320.398 224.398Z" fill="#F5F7FA" stroke="white" stroke-linejoin="round"/>
</g>
<defs>
<clipPath id="clip0_3632_24938">
<rect width="1215" height="531" fill="white" transform="translate(81)"/>
</clipPath>
</defs>
</svg>
