<svg width="1215" height="531" viewBox="0 0 1215 531" fill="none" xmlns="http://www.w3.org/2000/svg">
<g clip-path="url(#clip0_1548_12364)">
<rect width="1215" height="531" fill="white"/>
<path d="M607.5 29.2031C645.904 29.2031 683.728 38.5633 717.7 56.4734L607.5 265.498V29.2031Z" fill="#F5F7FA" stroke="white" stroke-linejoin="round"/>
<path d="M717.7 56.4766C773.04 85.6522 814.551 135.583 833.132 195.319C851.713 255.056 845.846 319.723 816.819 375.14L607.5 265.501L717.7 56.4766Z" fill="#F5F7FA" stroke="white" stroke-linejoin="round"/>
<path d="M816.82 375.139C797.707 411.629 769.387 442.488 734.669 464.657C699.951 486.825 660.041 499.533 618.897 501.52C577.753 503.507 536.804 494.703 500.112 475.983C463.42 457.262 432.258 429.275 409.719 394.797L607.501 265.5L816.82 375.139Z" fill="#F5F7FA" stroke="white" stroke-linejoin="round"/>
<path d="M409.716 394.795C386.413 359.148 373.176 317.865 371.407 275.313C369.638 232.761 379.402 190.522 399.667 153.063C419.932 115.605 449.944 84.3196 486.528 62.5165C523.112 40.7134 564.909 29.2031 607.498 29.2031V265.498L409.716 394.795Z" fill="#F5F7FA" stroke="white" stroke-linejoin="round"/>
</g>
<defs>
<clipPath id="clip0_1548_12364">
<rect width="1215" height="531" fill="white"/>
</clipPath>
</defs>
</svg>
