<svg width="25" height="25" viewBox="0 0 25 25" fill="none" xmlns="http://www.w3.org/2000/svg">
<g id="settings" clip-path="url(#clip0_1_5801)">
<path id="Vector" d="M12.7871 15.5C14.444 15.5 15.7871 14.1569 15.7871 12.5C15.7871 10.8431 14.444 9.5 12.7871 9.5C11.1303 9.5 9.78711 10.8431 9.78711 12.5C9.78711 14.1569 11.1303 15.5 12.7871 15.5Z" stroke="#89939E" stroke-width="2" stroke-linecap="round" stroke-linejoin="round"/>
<path id="Vector_2" d="M20.1871 15.5C20.054 15.8016 20.0143 16.1362 20.0731 16.4606C20.1319 16.785 20.2866 17.0843 20.5171 17.32L20.5771 17.38C20.7631 17.5657 20.9106 17.7863 21.0112 18.0291C21.1119 18.2719 21.1637 18.5322 21.1637 18.795C21.1637 19.0578 21.1119 19.3181 21.0112 19.5609C20.9106 19.8037 20.7631 20.0243 20.5771 20.21C20.3914 20.396 20.1708 20.5435 19.928 20.6441C19.6852 20.7448 19.4249 20.7966 19.1621 20.7966C18.8993 20.7966 18.639 20.7448 18.3962 20.6441C18.1534 20.5435 17.9329 20.396 17.7471 20.21L17.6871 20.15C17.4514 19.9195 17.1521 19.7648 16.8277 19.706C16.5033 19.6472 16.1687 19.6869 15.8671 19.82C15.5713 19.9468 15.3191 20.1572 15.1414 20.4255C14.9637 20.6938 14.8684 21.0082 14.8671 21.33V21.5C14.8671 22.0304 14.6564 22.5391 14.2813 22.9142C13.9063 23.2893 13.3975 23.5 12.8671 23.5C12.3367 23.5 11.828 23.2893 11.4529 22.9142C11.0778 22.5391 10.8671 22.0304 10.8671 21.5V21.41C10.8594 21.079 10.7522 20.758 10.5596 20.4887C10.367 20.2194 10.0978 20.0143 9.78711 19.9C9.48549 19.7669 9.15092 19.7272 8.82652 19.786C8.50213 19.8448 8.20279 19.9995 7.96711 20.23L7.90711 20.29C7.72136 20.476 7.50079 20.6235 7.25799 20.7241C7.01519 20.8248 6.75494 20.8766 6.49211 20.8766C6.22928 20.8766 5.96903 20.8248 5.72623 20.7241C5.48343 20.6235 5.26286 20.476 5.07711 20.29C4.89116 20.1043 4.74364 19.8837 4.64299 19.6409C4.54234 19.3981 4.49054 19.1378 4.49054 18.875C4.49054 18.6122 4.54234 18.3519 4.64299 18.1091C4.74364 17.8663 4.89116 17.6457 5.07711 17.46L5.13711 17.4C5.36765 17.1643 5.5223 16.865 5.58111 16.5406C5.63993 16.2162 5.60022 15.8816 5.46711 15.58C5.34035 15.2842 5.12987 15.032 4.86158 14.8543C4.59328 14.6766 4.2789 14.5813 3.95711 14.58H3.78711C3.25668 14.58 2.74797 14.3693 2.3729 13.9942C1.99782 13.6191 1.78711 13.1104 1.78711 12.58C1.78711 12.0496 1.99782 11.5409 2.3729 11.1658C2.74797 10.7907 3.25668 10.58 3.78711 10.58H3.87711C4.2081 10.5723 4.52911 10.4651 4.79841 10.2725C5.0677 10.0799 5.27283 9.81074 5.38711 9.5C5.52022 9.19838 5.55993 8.86381 5.50111 8.53941C5.4423 8.21502 5.28765 7.91568 5.05711 7.68L4.99711 7.62C4.81116 7.43425 4.66364 7.21368 4.56299 6.97088C4.46234 6.72808 4.41054 6.46783 4.41054 6.205C4.41054 5.94217 4.46234 5.68192 4.56299 5.43912C4.66364 5.19632 4.81116 4.97575 4.99711 4.79C5.18286 4.60405 5.40343 4.45653 5.64623 4.35588C5.88903 4.25523 6.14928 4.20343 6.41211 4.20343C6.67494 4.20343 6.93519 4.25523 7.17799 4.35588C7.42079 4.45653 7.64136 4.60405 7.82711 4.79L7.88711 4.85C8.12279 5.08054 8.42213 5.23519 8.74652 5.294C9.07092 5.35282 9.40549 5.31312 9.70711 5.18H9.78711C10.0829 5.05324 10.3351 4.84276 10.5128 4.57447C10.6905 4.30618 10.7858 3.99179 10.7871 3.67V3.5C10.7871 2.96957 10.9978 2.46086 11.3729 2.08579C11.748 1.71071 12.2567 1.5 12.7871 1.5C13.3175 1.5 13.8263 1.71071 14.2013 2.08579C14.5764 2.46086 14.7871 2.96957 14.7871 3.5V3.59C14.7884 3.91179 14.8837 4.22618 15.0614 4.49447C15.2391 4.76276 15.4913 4.97324 15.7871 5.1C16.0887 5.23312 16.4233 5.27282 16.7477 5.214C17.0721 5.15519 17.3714 5.00054 17.6071 4.77L17.6671 4.71C17.8529 4.52405 18.0734 4.37653 18.3162 4.27588C18.559 4.17523 18.8193 4.12343 19.0821 4.12343C19.3449 4.12343 19.6052 4.17523 19.848 4.27588C20.0908 4.37653 20.3114 4.52405 20.4971 4.71C20.6831 4.89575 20.8306 5.11632 20.9312 5.35912C21.0319 5.60192 21.0837 5.86217 21.0837 6.125C21.0837 6.38783 21.0319 6.64809 20.9312 6.89088C20.8306 7.13368 20.6831 7.35425 20.4971 7.54L20.4371 7.6C20.2066 7.83568 20.0519 8.13502 19.9931 8.45941C19.9343 8.78381 19.974 9.11838 20.1071 9.42V9.5C20.2339 9.79577 20.4444 10.048 20.7126 10.2257C20.9809 10.4034 21.2953 10.4987 21.6171 10.5H21.7871C22.3175 10.5 22.8263 10.7107 23.2013 11.0858C23.5764 11.4609 23.7871 11.9696 23.7871 12.5C23.7871 13.0304 23.5764 13.5391 23.2013 13.9142C22.8263 14.2893 22.3175 14.5 21.7871 14.5H21.6971C21.3753 14.5013 21.0609 14.5966 20.7926 14.7743C20.5244 14.952 20.3139 15.2042 20.1871 15.5Z" stroke="#89939E" stroke-width="2" stroke-linecap="round" stroke-linejoin="round"/>
</g>
<defs>
<clipPath id="clip0_1_5801">
<rect width="24" height="24" fill="white" transform="translate(0.787109 0.5)"/>
</clipPath>
</defs>
</svg>
