<svg width="1279" height="581" viewBox="0 0 1279 581" fill="none" xmlns="http://www.w3.org/2000/svg">
<path d="M655.5 565.364L658.284 569.915H658.375L661.159 565.364H663.193L659.568 571.182L663.216 577H661.17L658.375 572.511H658.284L655.489 577H653.443L657.153 571.182L653.466 565.364H655.5ZM668.925 570.443V571.92H663.766V570.443H668.925ZM672.308 577H670.445L674.632 565.364H676.661L680.848 577H678.984L675.695 567.477H675.604L672.308 577ZM672.621 572.443H678.666V573.92H672.621V572.443ZM683.733 568.273L685.659 571.67L687.602 568.273H689.46L686.739 572.636L689.483 577H687.625L685.659 573.739L683.699 577H681.835L684.551 572.636L681.869 568.273H683.733ZM691.205 577V568.273H692.903V577H691.205ZM692.062 566.926C691.767 566.926 691.513 566.828 691.301 566.631C691.093 566.43 690.989 566.191 690.989 565.915C690.989 565.634 691.093 565.396 691.301 565.199C691.513 564.998 691.767 564.898 692.062 564.898C692.358 564.898 692.61 564.998 692.818 565.199C693.03 565.396 693.136 565.634 693.136 565.915C693.136 566.191 693.03 566.43 692.818 566.631C692.61 566.828 692.358 566.926 692.062 566.926ZM701.729 570.403L700.189 570.676C700.125 570.479 700.022 570.292 699.882 570.114C699.746 569.936 699.56 569.79 699.325 569.676C699.09 569.562 698.797 569.506 698.445 569.506C697.964 569.506 697.562 569.614 697.24 569.83C696.918 570.042 696.757 570.316 696.757 570.653C696.757 570.945 696.865 571.18 697.081 571.358C697.297 571.536 697.645 571.682 698.126 571.795L699.513 572.114C700.316 572.299 700.914 572.585 701.308 572.972C701.702 573.358 701.899 573.86 701.899 574.477C701.899 575 701.748 575.466 701.445 575.875C701.145 576.28 700.727 576.598 700.189 576.83C699.655 577.061 699.036 577.176 698.331 577.176C697.354 577.176 696.556 576.968 695.939 576.551C695.321 576.131 694.943 575.534 694.803 574.761L696.445 574.511C696.547 574.939 696.757 575.263 697.075 575.483C697.393 575.699 697.808 575.807 698.32 575.807C698.876 575.807 699.321 575.691 699.655 575.46C699.988 575.225 700.155 574.939 700.155 574.602C700.155 574.33 700.053 574.1 699.848 573.915C699.647 573.729 699.339 573.589 698.922 573.494L697.445 573.17C696.63 572.985 696.028 572.689 695.638 572.284C695.251 571.879 695.058 571.366 695.058 570.744C695.058 570.229 695.202 569.778 695.49 569.392C695.778 569.006 696.176 568.705 696.683 568.489C697.191 568.269 697.772 568.159 698.428 568.159C699.371 568.159 700.113 568.364 700.655 568.773C701.196 569.178 701.554 569.722 701.729 570.403ZM709.155 565.364L712.393 574.841H712.524L715.763 565.364H717.661L713.473 577H711.445L707.257 565.364H709.155ZM720.885 577.193C720.332 577.193 719.832 577.091 719.385 576.886C718.938 576.678 718.584 576.377 718.322 575.983C718.065 575.589 717.936 575.106 717.936 574.534C717.936 574.042 718.031 573.636 718.22 573.318C718.41 573 718.665 572.748 718.987 572.562C719.309 572.377 719.669 572.237 720.067 572.142C720.464 572.047 720.87 571.975 721.283 571.926C721.805 571.866 722.23 571.816 722.555 571.778C722.881 571.737 723.118 571.67 723.266 571.58C723.413 571.489 723.487 571.341 723.487 571.136V571.097C723.487 570.6 723.347 570.216 723.067 569.943C722.79 569.67 722.377 569.534 721.828 569.534C721.256 569.534 720.805 569.661 720.476 569.915C720.15 570.165 719.925 570.443 719.8 570.75L718.203 570.386C718.393 569.856 718.669 569.428 719.033 569.102C719.4 568.773 719.822 568.534 720.3 568.386C720.777 568.235 721.279 568.159 721.805 568.159C722.154 568.159 722.523 568.201 722.913 568.284C723.307 568.364 723.675 568.511 724.016 568.727C724.36 568.943 724.643 569.252 724.862 569.653C725.082 570.051 725.192 570.568 725.192 571.205V577H723.533V575.807H723.464C723.355 576.027 723.19 576.242 722.97 576.455C722.75 576.667 722.468 576.843 722.124 576.983C721.779 577.123 721.366 577.193 720.885 577.193ZM721.254 575.83C721.724 575.83 722.125 575.737 722.459 575.551C722.796 575.366 723.052 575.123 723.226 574.824C723.404 574.521 723.493 574.197 723.493 573.852V572.727C723.432 572.788 723.315 572.845 723.141 572.898C722.97 572.947 722.775 572.991 722.555 573.028C722.336 573.062 722.122 573.095 721.913 573.125C721.705 573.152 721.531 573.174 721.391 573.193C721.061 573.235 720.76 573.305 720.487 573.403C720.218 573.502 720.002 573.644 719.839 573.83C719.68 574.011 719.601 574.254 719.601 574.557C719.601 574.977 719.756 575.295 720.067 575.511C720.377 575.723 720.773 575.83 721.254 575.83ZM729.153 565.364V577H727.455V565.364H729.153ZM736.967 573.381V568.273H738.672V577H737.001V575.489H736.911C736.71 575.955 736.388 576.343 735.945 576.653C735.505 576.96 734.958 577.114 734.303 577.114C733.742 577.114 733.246 576.991 732.814 576.744C732.386 576.494 732.049 576.125 731.803 575.636C731.56 575.148 731.439 574.544 731.439 573.824V568.273H733.138V573.619C733.138 574.214 733.303 574.687 733.632 575.04C733.962 575.392 734.39 575.568 734.916 575.568C735.234 575.568 735.551 575.489 735.865 575.33C736.183 575.17 736.446 574.93 736.655 574.608C736.867 574.286 736.971 573.877 736.967 573.381ZM744.716 577.176C743.856 577.176 743.116 576.992 742.494 576.625C741.877 576.254 741.4 575.733 741.062 575.062C740.729 574.388 740.562 573.598 740.562 572.693C740.562 571.799 740.729 571.011 741.062 570.33C741.4 569.648 741.869 569.116 742.472 568.733C743.078 568.35 743.786 568.159 744.597 568.159C745.089 568.159 745.566 568.241 746.028 568.403C746.491 568.566 746.905 568.822 747.273 569.17C747.64 569.519 747.93 569.972 748.142 570.528C748.354 571.081 748.46 571.754 748.46 572.545V573.148H741.523V571.875H746.795C746.795 571.428 746.705 571.032 746.523 570.688C746.341 570.339 746.085 570.064 745.756 569.864C745.43 569.663 745.047 569.562 744.608 569.562C744.131 569.562 743.714 569.68 743.358 569.915C743.006 570.146 742.733 570.449 742.54 570.824C742.35 571.195 742.256 571.598 742.256 572.034V573.028C742.256 573.612 742.358 574.108 742.562 574.517C742.771 574.926 743.061 575.239 743.432 575.455C743.803 575.667 744.237 575.773 744.733 575.773C745.055 575.773 745.348 575.727 745.614 575.636C745.879 575.542 746.108 575.402 746.301 575.216C746.494 575.03 746.642 574.801 746.744 574.528L748.352 574.818C748.223 575.292 747.992 575.706 747.659 576.062C747.33 576.415 746.915 576.689 746.415 576.886C745.919 577.08 745.352 577.176 744.716 577.176Z" fill="#89939E"/>
<path d="M3.36364 304.619L3.36364 302.625L8.65341 299.585V299.46L3.36364 296.42L3.36364 294.426L10.4318 298.648H15V300.398H10.4318L3.36364 304.619ZM8.44318 288.778H9.92045V293.938H8.44318V288.778ZM15 285.395V287.259L3.36364 283.071L3.36364 281.043L15 276.855V278.719L5.47727 282.009V282.099L15 285.395ZM10.4432 285.082L10.4432 279.037H11.9205L11.9205 285.082H10.4432ZM6.27273 273.97L9.67045 272.044L6.27273 270.101V268.243L10.6364 270.964L15 268.22L15 270.078L11.7386 272.044L15 274.004V275.868L10.6364 273.152L6.27273 275.834V273.97ZM15 266.499H6.27273L6.27273 264.8H15V266.499ZM4.92614 265.641C4.92614 265.936 4.82765 266.19 4.63068 266.402C4.42992 266.61 4.19129 266.714 3.91477 266.714C3.63447 266.714 3.39583 266.61 3.19886 266.402C2.99811 266.19 2.89773 265.936 2.89773 265.641C2.89773 265.345 2.99811 265.093 3.19886 264.885C3.39583 264.673 3.63447 264.567 3.91477 264.567C4.19129 264.567 4.42992 264.673 4.63068 264.885C4.82765 265.093 4.92614 265.345 4.92614 265.641ZM8.40341 255.974L8.67614 257.514C8.47917 257.579 8.29167 257.681 8.11364 257.821C7.93561 257.957 7.78977 258.143 7.67614 258.378C7.5625 258.613 7.50568 258.906 7.50568 259.259C7.50568 259.74 7.61364 260.141 7.82955 260.463C8.04167 260.785 8.31629 260.946 8.65341 260.946C8.94508 260.946 9.17992 260.838 9.35795 260.622C9.53598 260.406 9.68182 260.058 9.79545 259.577L10.1136 258.19C10.2992 257.387 10.5852 256.789 10.9716 256.395C11.358 256.001 11.8598 255.804 12.4773 255.804C13 255.804 13.4659 255.955 13.875 256.259C14.2803 256.558 14.5985 256.976 14.8295 257.514C15.0606 258.048 15.1761 258.668 15.1761 259.372C15.1761 260.349 14.9678 261.147 14.5511 261.764C14.1307 262.382 13.5341 262.76 12.7614 262.901L12.5114 261.259C12.9394 261.156 13.2633 260.946 13.483 260.628C13.6989 260.31 13.8068 259.895 13.8068 259.384C13.8068 258.827 13.6913 258.382 13.4602 258.048C13.2254 257.715 12.9394 257.548 12.6023 257.548C12.3295 257.548 12.1004 257.651 11.9148 257.855C11.7292 258.056 11.589 258.365 11.4943 258.781L11.1705 260.259C10.9848 261.073 10.6894 261.675 10.2841 262.065C9.87879 262.452 9.36553 262.645 8.74432 262.645C8.22917 262.645 7.77841 262.501 7.39205 262.213C7.00568 261.925 6.70455 261.527 6.48864 261.02C6.26894 260.512 6.15909 259.931 6.15909 259.276C6.15909 258.332 6.36364 257.59 6.77273 257.048C7.17803 256.507 7.72159 256.149 8.40341 255.974ZM3.36364 248.548L12.8409 245.31V245.179L3.36364 241.94V240.043L15 244.23V246.259L3.36364 250.446L3.36364 248.548ZM15.1932 236.818C15.1932 237.371 15.0909 237.871 14.8864 238.318C14.678 238.765 14.3769 239.119 13.983 239.381C13.589 239.638 13.1061 239.767 12.5341 239.767C12.0417 239.767 11.6364 239.672 11.3182 239.483C11 239.294 10.7481 239.038 10.5625 238.716C10.3769 238.394 10.2367 238.034 10.142 237.636C10.0473 237.239 9.97538 236.833 9.92614 236.42C9.86553 235.898 9.81629 235.473 9.77841 235.148C9.73674 234.822 9.67045 234.585 9.57955 234.438C9.48864 234.29 9.34091 234.216 9.13636 234.216H9.09659C8.60038 234.216 8.21591 234.356 7.94318 234.636C7.67045 234.913 7.53409 235.326 7.53409 235.875C7.53409 236.447 7.66098 236.898 7.91477 237.227C8.16477 237.553 8.44318 237.778 8.75 237.903L8.38636 239.5C7.85606 239.311 7.42803 239.034 7.10227 238.67C6.77273 238.303 6.53409 237.881 6.38636 237.403C6.23485 236.926 6.15909 236.424 6.15909 235.898C6.15909 235.549 6.20076 235.18 6.28409 234.79C6.36364 234.396 6.51136 234.028 6.72727 233.688C6.94318 233.343 7.25189 233.061 7.65341 232.841C8.05114 232.621 8.56818 232.511 9.20455 232.511H15V234.17H13.8068V234.239C14.0265 234.348 14.2424 234.513 14.4545 234.733C14.6667 234.953 14.8428 235.235 14.983 235.58C15.1231 235.924 15.1932 236.337 15.1932 236.818ZM13.8295 236.449C13.8295 235.979 13.7367 235.578 13.5511 235.244C13.3655 234.907 13.1231 234.652 12.8239 234.477C12.5208 234.299 12.197 234.21 11.8523 234.21H10.7273C10.7879 234.271 10.8447 234.388 10.8977 234.562C10.947 234.733 10.9905 234.928 11.0284 235.148C11.0625 235.367 11.0947 235.581 11.125 235.79C11.1515 235.998 11.1742 236.172 11.1932 236.312C11.2348 236.642 11.3049 236.943 11.4034 237.216C11.5019 237.485 11.6439 237.701 11.8295 237.864C12.0114 238.023 12.2538 238.102 12.5568 238.102C12.9773 238.102 13.2955 237.947 13.5114 237.636C13.7235 237.326 13.8295 236.93 13.8295 236.449ZM3.36364 228.55H15V230.249H3.36364L3.36364 228.55ZM11.3807 220.736H6.27273V219.031H15V220.702H13.4886V220.793C13.9545 220.993 14.3428 221.315 14.6534 221.759C14.9602 222.198 15.1136 222.745 15.1136 223.401C15.1136 223.961 14.9905 224.457 14.7443 224.889C14.4943 225.317 14.125 225.654 13.6364 225.901C13.1477 226.143 12.5436 226.264 11.8239 226.264H6.27273V224.565H11.6193C12.214 224.565 12.6875 224.401 13.0398 224.071C13.392 223.741 13.5682 223.313 13.5682 222.787C13.5682 222.469 13.4886 222.152 13.3295 221.838C13.1705 221.52 12.9299 221.257 12.608 221.048C12.286 220.836 11.8769 220.732 11.3807 220.736ZM15.1761 212.987C15.1761 213.847 14.9924 214.588 14.625 215.209C14.2538 215.826 13.733 216.304 13.0625 216.641C12.3883 216.974 11.5985 217.141 10.6932 217.141C9.79924 217.141 9.01136 216.974 8.32955 216.641C7.64773 216.304 7.11553 215.834 6.73295 215.232C6.35038 214.625 6.15909 213.917 6.15909 213.107C6.15909 212.614 6.24053 212.137 6.40341 211.675C6.56629 211.213 6.82197 210.798 7.17045 210.43C7.51894 210.063 7.97159 209.773 8.52841 209.561C9.08144 209.349 9.75379 209.243 10.5455 209.243H11.1477L11.1477 216.18H9.875L9.875 210.908C9.42803 210.908 9.0322 210.999 8.6875 211.18C8.33902 211.362 8.06439 211.618 7.86364 211.947C7.66288 212.273 7.5625 212.656 7.5625 213.095C7.5625 213.572 7.67992 213.989 7.91477 214.345C8.14583 214.697 8.44886 214.97 8.82386 215.163C9.19508 215.353 9.59848 215.447 10.0341 215.447H11.0284C11.6117 215.447 12.108 215.345 12.517 215.141C12.9261 214.932 13.2386 214.643 13.4545 214.271C13.6667 213.9 13.7727 213.466 13.7727 212.97C13.7727 212.648 13.7273 212.355 13.6364 212.089C13.5417 211.824 13.4015 211.595 13.2159 211.402C13.0303 211.209 12.8011 211.061 12.5284 210.959L12.8182 209.351C13.2917 209.48 13.7064 209.711 14.0625 210.044C14.4148 210.374 14.6894 210.788 14.8864 211.288C15.0795 211.785 15.1761 212.351 15.1761 212.987Z" fill="#89939E"/>
<rect x="64" width="1215" height="513" rx="40.9551" fill="white"/>
<path d="M142.5 79.125L1200.51 79.125" stroke="#E0E0E0" stroke-width="2.04775" stroke-linecap="round" stroke-dasharray="6.83 6.83"/>
<path d="M142.5 256.594L1200.51 256.594" stroke="#E0E0E0" stroke-width="2.04775" stroke-linecap="round" stroke-dasharray="6.83 6.83"/>
<path d="M142.5 167.859L1200.51 167.859" stroke="#E0E0E0" stroke-width="2.04775" stroke-linecap="round" stroke-dasharray="6.83 6.83"/>
<path d="M142.5 345.336L1200.51 345.336" stroke="#E0E0E0" stroke-width="2.04775" stroke-linecap="round" stroke-dasharray="6.83 6.83"/>
<line x1="142.5" y1="433.217" x2="1200.51" y2="433.217" stroke="#E9E9E9" stroke-width="1.70646"/>
<rect x="193.695" y="382.875" width="102.388" height="44.368" rx="20.4775" fill="#F5F7FA"/>
<rect x="314.852" y="300.969" width="102.388" height="81.9101" rx="20.4775" fill="#F5F7FA"/>
<rect x="437.719" y="256.594" width="102.388" height="44.368" rx="20.4775" fill="#F5F7FA"/>
<rect x="560.582" y="212.227" width="102.388" height="44.368" rx="20.4775" fill="#F5F7FA"/>
<rect x="683.449" y="167.859" width="102.388" height="44.368" rx="20.4775" fill="#F5F7FA"/>
<rect x="808.02" y="123.492" width="102.388" height="44.368" rx="20.4775" fill="#F5F7FA"/>
<rect x="930.887" y="79.125" width="102.388" height="44.368" rx="20.4775" fill="#F5F7FA"/>
<rect x="1053.75" y="79.125" width="102.388" height="348.118" rx="20.4775" fill="#F5F7FA"/>
</svg>
