<svg width="24" height="24" viewBox="0 0 24 24" fill="none" xmlns="http://www.w3.org/2000/svg">
<g id="line - candles 6">
<path id="Vector" d="M6.52461 6.44802H5.10711C5.08226 6.44802 5.06211 6.46817 5.06211 6.49302V9.30038V12.1527V14.9601C5.06211 14.985 5.08226 15.0051 5.10711 15.0051H6.52461M6.52461 6.44802H7.94211C7.96696 6.44802 7.98711 6.46817 7.98711 6.49302V9.30038V12.1527V14.9601C7.98711 14.985 7.96696 15.0051 7.94211 15.0051H6.52461M6.52461 6.44802V2.85156M9.44961 2.85156H6.52461M6.52461 18.6016V15.0051M6.52461 18.6016H9.44961M6.52461 18.6016H3.59961M6.52461 2.85156H3.59961" stroke="#D4AF37" stroke-width="1.5" stroke-linecap="round"/>
<path id="Vector_2" d="M16.5754 8.99489H15.1579C15.133 8.99489 15.1129 9.01504 15.1129 9.03989V11.8473V14.6996V17.507C15.1129 17.5318 15.133 17.552 15.1579 17.552H16.5754M16.5754 8.99489H17.9929C18.0177 8.99489 18.0379 9.01504 18.0379 9.03989V11.8473V14.6996V17.507C18.0379 17.5318 18.0177 17.552 17.9929 17.552H16.5754M16.5754 8.99489V5.39844M19.5004 5.39844H16.5754M16.5754 21.1484V17.552M16.5754 21.1484H19.5004M16.5754 21.1484H13.6504M16.5754 5.39844H13.6504" stroke="#D4AF37" stroke-width="1.5" stroke-linecap="round"/>
</g>
</svg>
