<svg width="20" height="20" viewBox="0 0 20 20" fill="none" xmlns="http://www.w3.org/2000/svg">
<g id="Frame" clip-path="url(#clip0_973_4018)">
<path id="Vector" d="M9.99967 13.542C12.709 13.5483 15.3584 14.3406 17.6263 15.8228C17.7156 15.8831 17.8248 15.9064 17.9309 15.8879C18.037 15.8694 18.1318 15.8105 18.1955 15.7236C19.392 14.0185 20.023 11.9807 19.9997 9.89781C19.9513 7.34151 18.9346 4.89882 17.1548 3.06322C15.375 1.22761 12.9649 0.135906 10.4113 0.00864117C8.54958 -0.0688131 6.70324 0.375668 5.08071 1.29192C3.45818 2.20816 2.12405 3.5597 1.22892 5.19398C0.333786 6.82825 -0.0867182 8.6802 0.0148689 10.5408C0.116456 12.4014 0.73609 14.1965 1.80383 15.7236C1.86749 15.8105 1.96232 15.8694 2.06844 15.8879C2.17455 15.9064 2.28371 15.8831 2.373 15.8228C4.64096 14.3406 7.2903 13.5483 9.99967 13.542ZM9.37467 2.91697C9.37467 2.75121 9.44051 2.59224 9.55772 2.47503C9.67493 2.35782 9.83391 2.29197 9.99967 2.29197C10.1654 2.29197 10.3244 2.35782 10.4416 2.47503C10.5588 2.59224 10.6247 2.75121 10.6247 2.91697V4.16697C10.6247 4.33274 10.5588 4.49171 10.4416 4.60892C10.3244 4.72613 10.1654 4.79197 9.99967 4.79197C9.83391 4.79197 9.67493 4.72613 9.55772 4.60892C9.44051 4.49171 9.37467 4.33274 9.37467 4.16697V2.91697ZM4.16633 10.6253H2.91633C2.75057 10.6253 2.5916 10.5595 2.47439 10.4422C2.35718 10.325 2.29133 10.1661 2.29133 10.0003C2.29133 9.83455 2.35718 9.67558 2.47439 9.55837C2.5916 9.44116 2.75057 9.37531 2.91633 9.37531H4.16633C4.33209 9.37531 4.49106 9.44116 4.60827 9.55837C4.72548 9.67558 4.79133 9.83455 4.79133 10.0003C4.79133 10.1661 4.72548 10.325 4.60827 10.4422C4.49106 10.5595 4.33209 10.6253 4.16633 10.6253ZM6.31633 6.31697C6.25829 6.37505 6.18937 6.42113 6.11352 6.45256C6.03766 6.48399 5.95636 6.50017 5.87425 6.50017C5.79214 6.50017 5.71083 6.48399 5.63498 6.45256C5.55912 6.42113 5.49021 6.37505 5.43217 6.31697L4.54883 5.43447C4.43158 5.31723 4.36572 5.1582 4.36572 4.99239C4.36572 4.82658 4.43158 4.66756 4.54883 4.55031C4.66608 4.43306 4.8251 4.36719 4.99092 4.36719C5.15673 4.36719 5.31575 4.43306 5.433 4.55031L6.31633 5.43364C6.37439 5.49161 6.42044 5.56046 6.45186 5.63624C6.48329 5.71203 6.49946 5.79327 6.49946 5.87531C6.49946 5.95735 6.48329 6.03859 6.45186 6.11437C6.42044 6.19016 6.37439 6.259 6.31633 6.31697ZM9.93217 12.0386C9.53983 12.0425 9.15526 11.9293 8.8277 11.7133C8.50014 11.4973 8.24449 11.1885 8.0935 10.8264C7.9425 10.4642 7.90303 10.0653 7.98015 9.68057C8.05726 9.29587 8.24744 8.94294 8.52633 8.66697C9.15633 8.03697 14.3947 4.80781 14.9897 4.44114C15.0695 4.39193 15.1636 4.37109 15.2567 4.38199C15.3499 4.39289 15.4366 4.4349 15.5029 4.50121C15.5692 4.56752 15.6112 4.65426 15.6221 4.7474C15.633 4.84055 15.6122 4.93464 15.563 5.01447C15.1963 5.61031 11.9672 10.8478 11.3372 11.4778C10.9614 11.8431 10.4562 12.0448 9.93217 12.0386ZM15.833 10.6253C15.6672 10.6253 15.5083 10.5595 15.3911 10.4422C15.2738 10.325 15.208 10.1661 15.208 10.0003C15.208 9.83455 15.2738 9.67558 15.3911 9.55837C15.5083 9.44116 15.6672 9.37531 15.833 9.37531H17.083C17.2488 9.37531 17.4077 9.44116 17.5249 9.55837C17.6422 9.67558 17.708 9.83455 17.708 10.0003C17.708 10.1661 17.6422 10.325 17.5249 10.4422C17.4077 10.5595 17.2488 10.6253 17.083 10.6253H15.833Z" fill="#D4AF37"/>
<path id="Vector_2" d="M9.99974 14.793C7.63274 14.7876 5.31251 15.452 3.30724 16.7097C3.25349 16.7442 3.20828 16.7906 3.17502 16.8451C3.14176 16.8997 3.12131 16.9611 3.11521 17.0247C3.10911 17.0883 3.11753 17.1525 3.13982 17.2124C3.16211 17.2723 3.1977 17.3264 3.24391 17.3705C5.08591 19.0646 7.49716 20.0048 9.99974 20.0048C12.5023 20.0048 14.9136 19.0646 16.7556 17.3705C16.8018 17.3264 16.8374 17.2723 16.8597 17.2124C16.882 17.1525 16.8904 17.0883 16.8843 17.0247C16.8782 16.9611 16.8577 16.8997 16.8245 16.8451C16.7912 16.7906 16.746 16.7442 16.6922 16.7097C14.6871 15.4518 12.3668 14.7873 9.99974 14.793Z" fill="#D4AF37"/>
</g>
<defs>
<clipPath id="clip0_973_4018">
<rect width="20" height="20" fill="white"/>
</clipPath>
</defs>
</svg>
