<svg width="24" height="24" viewBox="0 0 24 24" fill="none" xmlns="http://www.w3.org/2000/svg">
<path d="M4.19922 4.49922C4.19922 4.33353 4.33353 4.19922 4.49922 4.19922H11.9992H19.4992C19.6649 4.19922 19.7992 4.33353 19.7992 4.49922V11.9992V19.4992C19.7992 19.6649 19.6649 19.7992 19.4992 19.7992H11.9992H4.49922C4.33353 19.7992 4.19922 19.6649 4.19922 19.4992V11.9992V4.49922Z" stroke="#D4AF37" stroke-width="1.5"/>
<path d="M6.375 9.52344L9.525 9.52344" stroke="#D4AF37" stroke-width="1.5"/>
<path d="M14.3242 17.1758L17.4742 17.1758" stroke="#D4AF37" stroke-width="1.5"/>
<path d="M6.375 6.82422L9.525 6.82422" stroke="#D4AF37" stroke-width="1.5"/>
<path d="M14.3242 14.4766L17.4742 14.4766" stroke="#D4AF37" stroke-width="1.5"/>
<circle cx="8.09922" cy="14.4" r="0.9" fill="#D4AF37"/>
<circle cx="15.9" cy="6.59922" r="0.9" fill="#D4AF37"/>
<circle cx="8.09922" cy="17.4" r="0.9" fill="#D4AF37"/>
<circle cx="15.9" cy="9.59922" r="0.9" fill="#D4AF37"/>
</svg>
