<svg width="24" height="24" viewBox="0 0 24 24" fill="none" xmlns="http://www.w3.org/2000/svg">
<g clip-path="url(#clip0_836_3147)">
<path d="M9.145 7.3674L7.75 5.04233V3H6.25V5.04233L4.855 7.36732C4.29548 8.29979 3.99994 9.3668 4 10.4543V10.5457C3.99986 11.6332 4.29541 12.7002 4.855 13.6326L6.25 15.9576V21H7.75V15.9577L9.145 13.6327C9.70452 12.7002 10.0001 11.6332 10 10.5457V10.4543C10.0001 9.36681 9.70459 8.2998 9.145 7.3674ZM7 6.70755L7.85875 8.13908C8.1534 8.634 8.35033 9.18086 8.43888 9.75H5.56113C5.64973 9.18076 5.84666 8.63378 6.14125 8.1387L7 6.70755ZM7 14.2924L6.14125 12.8609C5.8466 12.366 5.64967 11.8191 5.56113 11.25H8.43888C8.35027 11.8192 8.15334 12.3662 7.85875 12.8613L7 14.2924Z" fill="#D4AF37"/>
<path d="M18.895 10.3674L17.5 8.04233V3H16V8.04233L14.605 10.3673C14.0455 11.2998 13.7499 12.3668 13.75 13.4543V13.5458C13.7499 14.6332 14.0454 15.7002 14.605 16.6326L16 18.9576V21H17.5V18.9577L18.895 16.6327C19.4545 15.7002 19.7501 14.6332 19.75 13.5458V13.4543C19.7501 12.3668 19.4546 11.2998 18.895 10.3674ZM16.75 9.7074L17.6088 11.1389C17.9034 11.6339 18.1004 12.1808 18.1889 12.75H15.3111C15.3997 12.1808 15.5967 11.6338 15.8912 11.1387L16.75 9.7074ZM16.75 17.2923L15.8912 15.8608C15.5966 15.3659 15.3997 14.8191 15.3111 14.25H18.1889C18.1003 14.8192 17.9033 15.3662 17.6088 15.8613L16.75 17.2923Z" fill="#D4AF37"/>
</g>
<defs>
<clipPath id="clip0_836_3147">
<rect width="24" height="24" fill="white"/>
</clipPath>
</defs>
</svg>
