<svg width="24" height="24" viewBox="0 0 24 24" fill="none" xmlns="http://www.w3.org/2000/svg">
<g id="Frame" clip-path="url(#clip0_1396_2966)">
<path id="Vector" d="M22.5 14.9992V17.2492C22.5 17.647 22.342 18.0286 22.0607 18.3099C21.7794 18.5912 21.3978 18.7492 21 18.7492H10.8281C10.7585 18.7492 10.6902 18.7298 10.631 18.6932C10.5717 18.6566 10.5239 18.6042 10.4927 18.5419C10.4616 18.4796 10.4484 18.4099 10.4546 18.3405C10.4609 18.2712 10.4863 18.2049 10.5281 18.1492L16.6875 10.1242C16.8103 9.96844 16.8681 9.77123 16.8489 9.5738C16.8297 9.37637 16.7349 9.19401 16.5844 9.06484C16.5073 9.00005 16.4179 8.95164 16.3215 8.92258C16.2251 8.89352 16.1238 8.88441 16.0238 8.89582C15.9238 8.90722 15.8271 8.9389 15.7397 8.98892C15.6524 9.03894 15.5761 9.10624 15.5156 9.18672L8.2875 18.5992C8.25456 18.6456 8.21098 18.6834 8.16042 18.7095C8.10985 18.7356 8.05378 18.7492 7.99688 18.7492H3C2.60218 18.7492 2.22064 18.5912 1.93934 18.3099C1.65804 18.0286 1.5 17.647 1.5 17.2492V15.1023C1.50178 14.4036 1.57085 13.7066 1.70625 13.0211L3.83438 13.593L4.03125 13.6117C4.20091 13.6118 4.3656 13.5544 4.49841 13.4488C4.63123 13.3433 4.72433 13.1958 4.7625 13.0305C4.80484 12.8367 4.7697 12.6341 4.66458 12.4659C4.55946 12.2977 4.39272 12.1773 4.2 12.1305L2.1 11.568C3.46875 7.68672 7.02188 4.82734 11.25 4.52734V6.72109C11.2469 6.91571 11.3178 7.10425 11.4483 7.24867C11.5788 7.39309 11.7592 7.48263 11.9531 7.49922C12.0555 7.50563 12.1581 7.49098 12.2546 7.45617C12.351 7.42136 12.4393 7.36713 12.514 7.29683C12.5887 7.22654 12.6482 7.14168 12.6888 7.04749C12.7294 6.9533 12.7502 6.85178 12.75 6.74922V4.52734C15.2655 4.70272 17.6329 5.78151 19.4156 7.56484C20.5435 8.68968 21.4024 10.055 21.9281 11.5586L19.8 12.1305C19.6073 12.1773 19.4405 12.2977 19.3354 12.4659C19.2303 12.6341 19.1952 12.8367 19.2375 13.0305C19.2757 13.1958 19.3688 13.3433 19.5016 13.4488C19.6344 13.5544 19.7991 13.6118 19.9688 13.6117L20.1656 13.593L22.3125 13.0117C22.4366 13.667 22.4994 14.3323 22.5 14.9992Z" fill="#D4AF37"/>
</g>
<defs>
<clipPath id="clip0_1396_2966">
<rect width="24" height="24" fill="white"/>
</clipPath>
</defs>
</svg>
