<svg width="18" height="18" viewBox="0 0 18 18" fill="none" xmlns="http://www.w3.org/2000/svg">
<g id="Icon/Solid/calendar">
<path id="Icon" fill-rule="evenodd" clip-rule="evenodd" d="M5.40078 1.80078C4.90373 1.80078 4.50078 2.20372 4.50078 2.70078V3.60078H3.60078C2.60667 3.60078 1.80078 4.40667 1.80078 5.40078V14.4008C1.80078 15.3949 2.60667 16.2008 3.60078 16.2008H14.4008C15.3949 16.2008 16.2008 15.3949 16.2008 14.4008V5.40078C16.2008 4.40667 15.3949 3.60078 14.4008 3.60078H13.5008V2.70078C13.5008 2.20373 13.0978 1.80078 12.6008 1.80078C12.1037 1.80078 11.7008 2.20372 11.7008 2.70078V3.60078H6.30078V2.70078C6.30078 2.20373 5.89784 1.80078 5.40078 1.80078ZM5.40078 6.30078C4.90373 6.30078 4.50078 6.70373 4.50078 7.20078C4.50078 7.69784 4.90373 8.10078 5.40078 8.10078H12.6008C13.0978 8.10078 13.5008 7.69784 13.5008 7.20078C13.5008 6.70373 13.0978 6.30078 12.6008 6.30078H5.40078Z" fill="#808080"/>
</g>
</svg>
