<svg width="48" height="48" viewBox="0 0 48 48" fill="none" xmlns="http://www.w3.org/2000/svg">
<g id="309041_users_group_people_icon (1) 1">
<g id="Group">
<path id="Vector" d="M18 18C18 14.6 20.6 12 24 12C27.4 12 30 14.6 30 18C30 21.4 27.4 24 24 24C20.6 24 18 21.4 18 18ZM24 28C14.8 28 12 34.6 12 34.6V38H36V34.6C36 34.6 33.2 28 24 28Z" fill="#212121"/>
</g>
<g id="Group_2">
<g id="Group_3">
<path id="Vector_2" d="M37 22C39.7614 22 42 19.7614 42 17C42 14.2386 39.7614 12 37 12C34.2386 12 32 14.2386 32 17C32 19.7614 34.2386 22 37 22Z" fill="#212121"/>
</g>
<g id="Group_4">
<path id="Vector_3" d="M37.0004 26C34.6004 26 32.8004 26.6 31.4004 27.6C36.0004 29.8 37.8004 33.6 37.8004 34V34.2H46.0004V31.6C46.0004 31.4 43.8004 26 37.0004 26Z" fill="#212121"/>
</g>
</g>
<g id="Group_5">
<g id="Group_6">
<path id="Vector_4" d="M37 22C39.7614 22 42 19.7614 42 17C42 14.2386 39.7614 12 37 12C34.2386 12 32 14.2386 32 17C32 19.7614 34.2386 22 37 22Z" fill="#212121"/>
</g>
<g id="Group_7">
<path id="Vector_5" d="M37.0004 26C34.6004 26 32.8004 26.6 31.4004 27.6C36.0004 29.8 37.8004 33.6 37.8004 34V34.2H46.0004V31.6C46.0004 31.4 43.8004 26 37.0004 26Z" fill="#212121"/>
</g>
</g>
<g id="Group_8">
<g id="Group_9">
<path id="Vector_6" d="M11 22C13.7614 22 16 19.7614 16 17C16 14.2386 13.7614 12 11 12C8.23858 12 6 14.2386 6 17C6 19.7614 8.23858 22 11 22Z" fill="#212121"/>
</g>
<g id="Group_10">
<path id="Vector_7" d="M11 26C13.4 26 15.2 26.6 16.6 27.6C12 29.8 10.2 33.6 10.2 34V34.2H2V31.6C2 31.4 4.2 26 11 26Z" fill="#212121"/>
</g>
</g>
</g>
</svg>
