<svg width="24" height="24" viewBox="0 0 24 24" fill="none" xmlns="http://www.w3.org/2000/svg">
<g id="line - chart 34">
<path id="Vector" d="M4.05079 16.8691C4.05079 14.8869 6.71938 12.0794 9.89661 12.5073C12.1023 12.8043 11.7492 15.2384 13.955 15.5354C17.1322 15.9632 19.8008 11.1736 19.8008 11.1736M9.89661 6.04547C6.71938 5.61761 4.05078 8.42514 4.05078 10.4073L4.05078 19.0883C4.05078 19.1502 4.11808 19.1986 4.20109 19.1986L19.6505 19.1986C19.7335 19.1986 19.8008 19.1484 19.8008 19.0864V5.2737C19.8008 5.15106 19.5603 5.11016 19.4887 5.22055C18.6959 6.44197 16.4869 9.41454 13.955 9.07358C11.7492 8.77655 12.1023 6.34249 9.89661 6.04547Z" stroke="#D4AF37" stroke-width="1.5" stroke-linecap="round"/>
</g>
</svg>
