<svg width="16" height="16" viewBox="0 0 16 16" fill="none" xmlns="http://www.w3.org/2000/svg">
<g id="Frame">
<g id="Layer_2">
<path id="Vector" d="M11.3995 8.46693L8.79948 12.4003C8.46615 12.9336 7.93281 13.2003 7.33281 13.2669C7.26615 13.2669 7.19948 13.2669 7.13281 13.2669C6.59948 13.2669 6.06615 13.0669 5.73281 12.6669L4.99948 11.9336L3.59948 13.3336C3.46614 13.4669 3.26615 13.5336 3.13281 13.5336C2.99948 13.5336 2.79948 13.4669 2.66615 13.3336C2.39948 13.0669 2.39948 12.6669 2.66615 12.4003L4.06614 11.0003L3.33281 10.2669C2.93281 9.86693 2.66615 9.26693 2.73281 8.66693C2.79948 8.06693 3.13281 7.53359 3.59948 7.20026L7.53281 4.60026C7.13281 3.40026 7.33281 2.06693 8.33281 1.13359C8.59948 0.866927 8.99948 0.866927 9.26615 1.13359L14.9328 6.80026C15.1995 7.06693 15.1995 7.46693 14.9328 7.73359C14.2661 8.40026 13.3995 8.73359 12.5995 8.73359C12.1328 8.66693 11.7328 8.60026 11.3995 8.46693ZM8.19948 5.73359L4.33281 8.26693C4.13281 8.40026 4.06614 8.53359 4.06614 8.73359C4.06614 8.93359 4.13281 9.13359 4.26614 9.26693L6.66615 11.7336C6.79948 11.8669 6.99948 11.9336 7.19948 11.9336C7.39948 11.9336 7.59948 11.8003 7.66615 11.6669L10.1995 7.80026L10.1328 7.73359L8.26615 5.86693L8.19948 5.73359ZM8.79948 2.60026C8.46615 3.33359 8.59948 4.26693 9.19948 4.86693L11.0661 6.73359C11.6661 7.33359 12.5995 7.46693 13.3328 7.13359L8.79948 2.60026Z" fill="black"/>
</g>
</g>
</svg>
