<svg width="16" height="16" viewBox="0 0 16 16" fill="none" xmlns="http://www.w3.org/2000/svg">
<path d="M11.2493 9.58268L7.99935 14.4993C7.58268 15.166 6.91602 15.4993 6.16602 15.5827C6.08268 15.5827 5.99935 15.5827 5.91602 15.5827C5.24935 15.5827 4.58268 15.3327 4.16602 14.8327L3.24935 13.916L1.49935 15.666C1.33268 15.8327 1.08268 15.916 0.916016 15.916C0.749349 15.916 0.499349 15.8327 0.332682 15.666C-0.00065136 15.3327 -0.00065136 14.8327 0.332682 14.4993L2.08268 12.7493L1.16602 11.8327C0.666016 11.3327 0.332683 10.5827 0.416016 9.83268C0.499349 9.08268 0.916016 8.41602 1.49935 7.99935L6.41602 4.74935C5.91602 3.24935 6.16602 1.58268 7.41602 0.416016C7.74935 0.0826823 8.24935 0.0826823 8.58268 0.416016L15.666 7.49935C15.9993 7.83268 15.9993 8.33268 15.666 8.66602C14.8327 9.49935 13.7493 9.91602 12.7493 9.91602C12.166 9.83268 11.666 9.74935 11.2493 9.58268ZM7.24935 6.16602L2.41602 9.33268C2.16602 9.49935 2.08268 9.66602 2.08268 9.91602C2.08268 10.166 2.16601 10.416 2.33268 10.5827L5.33268 13.666C5.49935 13.8327 5.74935 13.916 5.99935 13.916C6.24935 13.916 6.49935 13.7493 6.58268 13.5827L9.74935 8.74935L9.66602 8.66602L7.33268 6.33268L7.24935 6.16602ZM7.99935 2.24935C7.58268 3.16602 7.74935 4.33268 8.49935 5.08268L10.8327 7.41602C11.5827 8.16602 12.7493 8.33268 13.666 7.91602L7.99935 2.24935Z" fill="#D4AF37"/>
</svg>
