<svg width="20" height="20" viewBox="0 0 20 20" fill="none" xmlns="http://www.w3.org/2000/svg">
<g id="Frame">
<g id="Layer_2">
<path id="Vector" d="M14.2493 10.5827L10.9993 15.4993C10.5827 16.166 9.91602 16.4993 9.16602 16.5827C9.08268 16.5827 8.99935 16.5827 8.91602 16.5827C8.24935 16.5827 7.58268 16.3327 7.16602 15.8327L6.24935 14.916L4.49935 16.666C4.33268 16.8327 4.08268 16.916 3.91601 16.916C3.74935 16.916 3.49935 16.8327 3.33268 16.666C2.99935 16.3327 2.99935 15.8327 3.33268 15.4993L5.08268 13.7493L4.16601 12.8327C3.66601 12.3327 3.33268 11.5827 3.41601 10.8327C3.49935 10.0827 3.91601 9.41602 4.49935 8.99935L9.41602 5.74935C8.91602 4.24935 9.16602 2.58268 10.416 1.41602C10.7493 1.08268 11.2493 1.08268 11.5827 1.41602L18.666 8.49935C18.9993 8.83268 18.9993 9.33268 18.666 9.66602C17.8327 10.4993 16.7493 10.916 15.7493 10.916C15.166 10.8327 14.666 10.7493 14.2493 10.5827ZM10.2493 7.16602L5.41601 10.3327C5.16601 10.4993 5.08268 10.666 5.08268 10.916C5.08268 11.166 5.16601 11.416 5.33268 11.5827L8.33268 14.666C8.49935 14.8327 8.74935 14.916 8.99935 14.916C9.24935 14.916 9.49935 14.7493 9.58268 14.5827L12.7493 9.74935L12.666 9.66602L10.3327 7.33268L10.2493 7.16602ZM10.9993 3.24935C10.5827 4.16602 10.7493 5.33268 11.4993 6.08268L13.8327 8.41602C14.5827 9.16602 15.7493 9.33268 16.666 8.91602L10.9993 3.24935Z" fill="white"/>
</g>
</g>
</svg>
