<svg width="18" height="18" viewBox="0 0 18 18" fill="none" xmlns="http://www.w3.org/2000/svg">
<path d="M17.1243 7.38334L12.554 11.9537C12.9055 12.9458 13.054 14.6021 11.5227 16.6412C11.4142 16.7842 11.2767 16.9027 11.1191 16.9889C10.9616 17.0751 10.7876 17.127 10.6086 17.1412H10.5227C10.1916 17.1397 9.87435 17.0078 9.63989 16.774L5.87426 13.0083L3.19458 15.6958C3.07511 15.8114 2.91544 15.8759 2.74926 15.8759C2.58309 15.8759 2.42341 15.8114 2.30395 15.6958C2.18659 15.5773 2.12075 15.4173 2.12075 15.2505C2.12075 15.0837 2.18659 14.9237 2.30395 14.8052L4.99145 12.1255L1.2102 8.34428C1.08477 8.22069 0.987043 8.07184 0.92351 7.90761C0.859978 7.74338 0.832089 7.56752 0.841693 7.39169C0.851297 7.21586 0.898175 7.04408 0.979217 6.88775C1.06026 6.73141 1.17361 6.5941 1.31176 6.48491C3.29614 4.88334 5.19458 5.20365 6.03051 5.46147L10.6165 0.87553C10.8518 0.643653 11.1689 0.513672 11.4993 0.513672C11.8296 0.513672 12.1467 0.643653 12.3821 0.87553L17.1243 5.61772C17.241 5.73322 17.3336 5.87072 17.3968 6.02225C17.46 6.17378 17.4926 6.33634 17.4926 6.50053C17.4926 6.66472 17.46 6.82728 17.3968 6.97881C17.3336 7.13034 17.241 7.26784 17.1243 7.38334Z" fill="#D4AF37"/>
</svg>
