<svg width="18" height="18" viewBox="0 0 18 18" fill="none" xmlns="http://www.w3.org/2000/svg">
<path d="M1.80078 4.05078C1.80078 2.80814 2.80814 1.80078 4.05078 1.80078H13.9508C15.1934 1.80078 16.2008 2.80814 16.2008 4.05078C16.2008 5.29342 15.1934 6.30078 13.9508 6.30078H4.05078C2.80814 6.30078 1.80078 5.29342 1.80078 4.05078Z" fill="#808080"/>
<path d="M2.47578 8.17582C2.10299 8.17582 1.80078 8.47803 1.80078 8.85082C1.80078 9.22361 2.10299 9.52582 2.47578 9.52582H15.5258C15.8986 9.52582 16.2008 9.22361 16.2008 8.85082C16.2008 8.47803 15.8986 8.17582 15.5258 8.17582H2.47578Z" fill="#808080"/>
<path d="M2.47578 11.3978C2.10299 11.3978 1.80078 11.7 1.80078 12.0728C1.80078 12.4456 2.10299 12.7478 2.47578 12.7478H15.5258C15.8986 12.7478 16.2008 12.4456 16.2008 12.0728C16.2008 11.7 15.8986 11.3978 15.5258 11.3978H2.47578Z" fill="#808080"/>
<path d="M2.47578 14.6258C2.10299 14.6258 1.80078 14.928 1.80078 15.3008C1.80078 15.6736 2.10299 15.9758 2.47578 15.9758H15.5258C15.8986 15.9758 16.2008 15.6736 16.2008 15.3008C16.2008 14.928 15.8986 14.6258 15.5258 14.6258H2.47578Z" fill="#808080"/>
</svg>
