<svg width="18" height="18" viewBox="0 0 18 18" fill="none" xmlns="http://www.w3.org/2000/svg">
<path fill-rule="evenodd" clip-rule="evenodd" d="M0.890625 4.71521C0.890625 3.59683 1.80626 2.69922 2.92463 2.69922H15.0746C16.193 2.69922 17.0996 3.60584 17.0996 4.72422L17.1086 13.2742C17.1086 14.3926 16.202 15.2992 15.0836 15.2992C11.6336 15.2992 6.38364 15.2992 2.93364 15.2992C1.81527 15.2992 0.899634 14.3836 0.899634 13.2652L0.890625 4.71521ZM8.32463 13.2832V12.7207C8.32463 12.3479 8.02243 12.0457 7.64963 12.0457H2.92463C2.55184 12.0457 2.24963 12.3479 2.24963 12.7207V13.2742C2.24963 13.647 2.55184 13.9492 2.92463 13.9492H7.76018C8.08039 13.8965 8.32463 13.6184 8.32463 13.2832ZM9.67463 13.2832C9.67463 13.6184 9.91888 13.8965 10.2391 13.9492H15.0746C15.4474 13.9492 15.7496 13.647 15.7496 13.2742V12.7207C15.7496 12.3479 15.4474 12.0457 15.0746 12.0457H10.3496C9.97684 12.0457 9.67463 12.3479 9.67463 12.7207V13.2832ZM15.7496 10.0162V9.45372C15.7496 9.08093 15.4474 8.77872 15.0746 8.77872H10.3496C9.97684 8.77872 9.67463 9.08093 9.67463 9.45372V10.0162C9.67463 10.389 9.97684 10.6912 10.3496 10.6912H15.0746C15.4474 10.6912 15.7496 10.389 15.7496 10.0162ZM8.32463 10.0162V9.45372C8.32463 9.08093 8.02243 8.77872 7.64963 8.77872H2.92463C2.55184 8.77872 2.24963 9.08093 2.24963 9.45372V10.0162C2.24963 10.389 2.55184 10.6912 2.92463 10.6912H7.64963C8.02243 10.6912 8.32463 10.389 8.32463 10.0162ZM15.7496 6.74922V6.18672C15.7496 5.81393 15.4474 5.51172 15.0746 5.51172H10.3496C9.97684 5.51172 9.67463 5.81393 9.67463 6.18672V6.74922C9.67463 7.12201 9.97684 7.42422 10.3496 7.42422H15.0746C15.4474 7.42422 15.7496 7.12201 15.7496 6.74922ZM8.32463 6.74922V6.18672C8.32463 5.81393 8.02243 5.51172 7.64963 5.51172H2.92463C2.55184 5.51172 2.24963 5.81393 2.24963 6.18672V6.74922C2.24963 7.12201 2.55184 7.42422 2.92463 7.42422H7.64963C8.02243 7.42422 8.32463 7.12201 8.32463 6.74922Z" fill="#212121"/>
</svg>
