<svg width="21" height="21" viewBox="0 0 21 21" fill="none" xmlns="http://www.w3.org/2000/svg">
<g id="trash">
<path id="Vector" d="M3.05078 5.5H4.71745H18.0508" stroke="#212121" stroke-width="1.5" stroke-linecap="round" stroke-linejoin="round"/>
<path id="Vector_2" d="M16.3835 5.49935V17.166C16.3835 17.608 16.2079 18.032 15.8953 18.3445C15.5827 18.6571 15.1588 18.8327 14.7168 18.8327H6.38346C5.94144 18.8327 5.51751 18.6571 5.20495 18.3445C4.89239 18.032 4.7168 17.608 4.7168 17.166V5.49935M7.2168 5.49935V3.83268C7.2168 3.39065 7.39239 2.96673 7.70495 2.65417C8.01751 2.34161 8.44144 2.16602 8.88346 2.16602H12.2168C12.6588 2.16602 13.0827 2.34161 13.3953 2.65417C13.7079 2.96673 13.8835 3.39065 13.8835 3.83268V5.49935" stroke="#212121" stroke-width="1.5" stroke-linecap="round" stroke-linejoin="round"/>
</g>
</svg>
