<svg width="41" height="40" viewBox="0 0 41 40" fill="none" xmlns="http://www.w3.org/2000/svg">
<path d="M13.502 23.252V19.327C13.502 19.2855 13.4684 19.252 13.427 19.252H11.502H9.57695C9.53553 19.252 9.50195 19.2855 9.50195 19.327V23.252V27.252V31.177C9.50195 31.2184 9.53553 31.252 9.57695 31.252H11.502H13.427C13.4684 31.252 13.502 31.2184 13.502 31.177V27.252V23.252Z" stroke="#D4AF37" stroke-width="2.5" stroke-linecap="round"/>
<path d="M22.502 19.4147V13.573C22.502 13.5316 22.4684 13.498 22.427 13.498H20.502H18.577C18.5355 13.498 18.502 13.5316 18.502 13.573V19.4147V25.3314V31.173C18.502 31.2145 18.5355 31.248 18.577 31.248H20.502H22.427C22.4684 31.248 22.502 31.2145 22.502 31.173V25.3314V19.4147Z" stroke="#D4AF37" stroke-width="2.5" stroke-linecap="round"/>
<path d="M31.498 16.25V8.825C31.498 8.78358 31.4645 8.75 31.423 8.75H29.498H27.573C27.5316 8.75 27.498 8.78358 27.498 8.825V16.25V23.75V31.175C27.498 31.2164 27.5316 31.25 27.573 31.25H29.498H31.423C31.4645 31.25 31.498 31.2164 31.498 31.175V23.75V16.25Z" stroke="#D4AF37" stroke-width="2.5" stroke-linecap="round"/>
</svg>
