<svg width="24" height="24" viewBox="0 0 24 24" fill="none" xmlns="http://www.w3.org/2000/svg">
<g id="line - candles 6">
<path id="Vector" d="M6.52266 6.44802H5.10516C5.0803 6.44802 5.06016 6.46817 5.06016 6.49302V9.30038V12.1527V14.9601C5.06016 14.985 5.0803 15.0051 5.10516 15.0051H6.52266M6.52266 6.44802H7.94016C7.96501 6.44802 7.98516 6.46817 7.98516 6.49302V9.30038V12.1527V14.9601C7.98516 14.985 7.96501 15.0051 7.94016 15.0051H6.52266M6.52266 6.44802V2.85156M9.44766 2.85156H6.52266M6.52266 18.6016V15.0051M6.52266 18.6016H9.44766M6.52266 18.6016H3.59766M6.52266 2.85156H3.59766" stroke="#D4AF37" stroke-width="1.5" stroke-linecap="round"/>
<path id="Vector_2" d="M16.5734 8.9949H15.1559C15.1311 8.9949 15.1109 9.01504 15.1109 9.0399V11.8473V14.6996V17.507C15.1109 17.5318 15.1311 17.552 15.1559 17.552H16.5734M16.5734 8.9949H17.9909C18.0158 8.9949 18.0359 9.01504 18.0359 9.0399V11.8473V14.6996V17.507C18.0359 17.5318 18.0158 17.552 17.9909 17.552H16.5734M16.5734 8.9949V5.39844M19.4984 5.39844H16.5734M16.5734 21.1484V17.552M16.5734 21.1484H19.4984M16.5734 21.1484H13.6484M16.5734 5.39844H13.6484" stroke="#D4AF37" stroke-width="1.5" stroke-linecap="round"/>
</g>
</svg>
