<svg width="24" height="24" viewBox="0 0 24 24" fill="none" xmlns="http://www.w3.org/2000/svg">
<g id="duotone - chart 7">
<path id="Vector" d="M7.4 12.4504V9.69539C7.4 9.67054 7.37985 9.65039 7.355 9.65039H6.2H5.045C5.02015 9.65039 5 9.67054 5 9.69539V12.4504V15.2504V18.0054C5 18.0302 5.02015 18.0504 5.045 18.0504H6.2H7.355C7.37985 18.0504 7.4 18.0302 7.4 18.0054V15.2504V12.4504Z" stroke="#D4AF37" stroke-width="1.5" stroke-linecap="round"/>
<path id="Vector_2" d="M12.7945 14.35V12.545C12.7945 12.5201 12.7744 12.5 12.7495 12.5H11.5945H10.4395C10.4147 12.5 10.3945 12.5201 10.3945 12.545V14.35V16.2V18.005C10.3945 18.0299 10.4147 18.05 10.4395 18.05H11.5945H12.7495C12.7744 18.05 12.7945 18.0299 12.7945 18.005V16.2V14.35Z" stroke="#D4AF37" stroke-width="1.5" stroke-linecap="round"/>
<path id="Vector_3" d="M18.2008 9.35V5.045C18.2008 5.02015 18.1806 5 18.1558 5H17.0008H15.8458C15.8209 5 15.8008 5.02015 15.8008 5.045V9.35V13.7V18.005C15.8008 18.0299 15.8209 18.05 15.8458 18.05H17.0008H18.1558C18.1806 18.05 18.2008 18.0299 18.2008 18.005V13.7V9.35Z" stroke="#D4AF37" stroke-width="1.5" stroke-linecap="round"/>
</g>
</svg>
