<svg width="24" height="24" viewBox="0 0 24 24" fill="none" xmlns="http://www.w3.org/2000/svg">
<g id="line - chart 7">
<path id="Vector" d="M7.80039 13.1496V10.3946C7.80039 10.3698 7.78024 10.3496 7.75539 10.3496H6.60039H5.44539C5.42054 10.3496 5.40039 10.3698 5.40039 10.3946V13.1496V15.9496V18.7046C5.40039 18.7295 5.42054 18.7496 5.44539 18.7496H6.60039H7.75539C7.78024 18.7496 7.80039 18.7295 7.80039 18.7046V15.9496V13.1496Z" stroke="#D4AF37" stroke-width="1.5" stroke-linecap="round"/>
<path id="Vector_2" d="M13.2008 5.85V4.045C13.2008 4.02015 13.1806 4 13.1558 4H12.0008H10.8458C10.8209 4 10.8008 4.02015 10.8008 4.045V5.85V7.7V9.505C10.8008 9.52985 10.8209 9.55 10.8458 9.55H12.0008H13.1558C13.1806 9.55 13.2008 9.52985 13.2008 9.505V7.7V5.85Z" stroke="#D4AF37" stroke-width="1.5" stroke-linecap="round"/>
<path id="Vector_3" d="M18.5992 10.0492V5.74422C18.5992 5.71937 18.5791 5.69922 18.5542 5.69922H17.3992H16.2442C16.2194 5.69922 16.1992 5.71937 16.1992 5.74422V10.0492V14.3992V18.7042C16.1992 18.7291 16.2194 18.7492 16.2442 18.7492H17.3992H18.5542C18.5791 18.7492 18.5992 18.7291 18.5992 18.7042V14.3992V10.0492Z" stroke="#D4AF37" stroke-width="1.5" stroke-linecap="round"/>
</g>
</svg>
