<svg width="41" height="40" viewBox="0 0 41 40" fill="none" xmlns="http://www.w3.org/2000/svg">
<path d="M20.498 36.25L20.498 31.75" stroke="#D4AF37" stroke-width="2.5" stroke-linecap="round"/>
<path d="M20.498 26.7461L20.498 22.7461" stroke="#D4AF37" stroke-width="2.5" stroke-linecap="round"/>
<path d="M20.498 17.5L20.498 13" stroke="#D4AF37" stroke-width="2.5" stroke-linecap="round"/>
<path d="M20.498 8.00391L20.498 3.50391" stroke="#D4AF37" stroke-width="2.5" stroke-linecap="round"/>
<path d="M9.07305 17.5C9.03163 17.5 8.99805 17.5336 8.99805 17.575L8.99805 22.175C8.99805 22.2164 9.03163 22.25 9.07305 22.25H20.498H31.923C31.9645 22.25 31.998 22.2164 31.998 22.175V17.575C31.998 17.5336 31.9645 17.5 31.923 17.5H20.498H9.07305Z" stroke="#D4AF37" stroke-width="2.5" stroke-linecap="round"/>
<path d="M11.6817 8C11.6493 8 11.623 8.03358 11.623 8.075V12.675C11.623 12.7164 11.6493 12.75 11.6817 12.75H20.498H29.5643C29.5968 12.75 29.623 12.7164 29.623 12.675V8.075C29.623 8.03358 29.5968 8 29.5644 8L20.498 8H11.6817Z" stroke="#D4AF37" stroke-width="2.5" stroke-linecap="round"/>
<path d="M11.5567 27C11.5243 27 11.498 27.0336 11.498 27.075V31.675C11.498 31.7164 11.5243 31.75 11.5567 31.75H20.498H29.4393C29.4718 31.75 29.498 31.7164 29.498 31.675V27.075C29.498 27.0336 29.4718 27 29.4394 27H20.498H11.5567Z" stroke="#D4AF37" stroke-width="2.5" stroke-linecap="round"/>
</svg>
