<svg width="41" height="40" viewBox="0 0 41 40" fill="none" xmlns="http://www.w3.org/2000/svg">
<g clip-path="url(#clip0_976_4302)">
<path d="M26.4091 8.33349L26.6755 8.63367L27.0669 8.72265L33.8954 10.2753C33.9873 10.2962 34.0715 10.3427 34.1382 10.4095L38.031 14.3052C38.188 14.4623 38.2225 14.7041 38.1159 14.8988L31.9003 26.2468L25.6888 37.5877C25.5816 37.7834 25.3576 37.8844 25.1399 37.8352L18.8334 36.409C18.7296 36.3855 18.636 36.3296 18.5662 36.2492L17.6226 37.069L18.5662 36.2492L14.5968 31.6802L14.2722 31.3066L13.7799 31.2564L6.40668 30.5046C6.26468 30.4901 6.13564 30.4156 6.05207 30.2999L2.81547 25.8186C2.70253 25.6622 2.68961 25.4548 2.78228 25.2857L9.0968 13.7569L15.3629 2.31658C15.4625 2.13462 15.6642 2.0331 15.8698 2.06147L21.3539 2.81834C21.472 2.83464 21.5803 2.89259 21.6595 2.98175L26.4091 8.33349Z" stroke="#D4AF37" stroke-width="2.5"/>
</g>
<defs>
<clipPath id="clip0_976_4302">
<rect width="40" height="40" fill="white" transform="translate(0.5)"/>
</clipPath>
</defs>
</svg>
