<svg width="41" height="40" viewBox="0 0 41 40" fill="none" xmlns="http://www.w3.org/2000/svg">
<g id="Frame" clip-path="url(#clip0_848_7541)">
<path id="Vector" d="M38 25V28.75C38 29.413 37.7366 30.0489 37.2678 30.5178C36.7989 30.9866 36.163 31.25 35.5 31.25H18.5469C18.4308 31.25 18.317 31.2177 18.2183 31.1567C18.1196 31.0956 18.0398 31.0083 17.9879 30.9045C17.936 30.8007 17.914 30.6845 17.9244 30.5689C17.9348 30.4533 17.9772 30.3429 18.0469 30.25L28.3125 16.875C28.5172 16.6154 28.6136 16.2867 28.5815 15.9576C28.5495 15.6286 28.3915 15.3247 28.1406 15.1094C28.0122 15.0014 27.8631 14.9207 27.7025 14.8723C27.5418 14.8238 27.373 14.8087 27.2063 14.8277C27.0396 14.8467 26.8785 14.8995 26.7329 14.9828C26.5873 15.0662 26.4602 15.1784 26.3594 15.3125L14.3125 31C14.2576 31.0773 14.185 31.1404 14.1007 31.1839C14.0164 31.2274 13.923 31.25 13.8281 31.25H5.5C4.83696 31.25 4.20107 30.9866 3.73223 30.5178C3.26339 30.0489 3 29.413 3 28.75V25.1719C3.00297 24.0073 3.11809 22.8457 3.34375 21.7031L6.89063 22.6562L7.21875 22.6875C7.50152 22.6877 7.776 22.592 7.99736 22.416C8.21872 22.2401 8.37388 21.9943 8.4375 21.7188C8.50807 21.3958 8.44949 21.0581 8.2743 20.7778C8.09911 20.4975 7.8212 20.2968 7.5 20.2187L4 19.2813C6.28125 12.8125 12.2031 8.04688 19.25 7.54688V11.2031C19.2449 11.5275 19.363 11.8417 19.5805 12.0824C19.7979 12.3231 20.0987 12.4723 20.4219 12.5C20.5925 12.5107 20.7635 12.4863 20.9243 12.4282C21.085 12.3702 21.2322 12.2798 21.3567 12.1627C21.4812 12.0455 21.5803 11.9041 21.648 11.7471C21.7156 11.5901 21.7503 11.4209 21.75 11.25V7.54688C25.9425 7.83917 29.8881 9.63715 32.8594 12.6094C34.7391 14.4841 36.1706 16.7596 37.0469 19.2656L33.5 20.2187C33.1788 20.2968 32.9009 20.4975 32.7257 20.7778C32.5505 21.0581 32.4919 21.3958 32.5625 21.7188C32.6261 21.9943 32.7813 22.2401 33.0026 22.416C33.224 22.592 33.4985 22.6877 33.7812 22.6875L34.1094 22.6562L37.6875 21.6875C37.8943 22.7796 37.999 23.8885 38 25Z" fill="#D4AF37"/>
</g>
<defs>
<clipPath id="clip0_848_7541">
<rect width="40" height="40" fill="white" transform="translate(0.5)"/>
</clipPath>
</defs>
</svg>
