<svg width="41" height="40" viewBox="0 0 41 40" fill="none" xmlns="http://www.w3.org/2000/svg">
<g id="line - chart 38">
<circle id="Ellipse 24" cx="20.625" cy="19.8789" r="5.125" stroke="#D4AF37" stroke-width="2.5"/>
<circle id="Ellipse 25" cx="20.625" cy="5.62109" r="2.875" stroke="#D4AF37" stroke-width="2.5"/>
<circle id="Ellipse 27" cx="4.125" cy="4.125" r="2.875" transform="matrix(1 0 0 -1 16.5 38.5039)" stroke="#D4AF37" stroke-width="2.5"/>
<circle id="Ellipse 26" cx="34.875" cy="19.875" r="2.875" transform="rotate(90 34.875 19.875)" stroke="#D4AF37" stroke-width="2.5"/>
<circle id="Ellipse 28" cx="6.12695" cy="19.8711" r="2.875" transform="rotate(-90 6.12695 19.8711)" stroke="#D4AF37" stroke-width="2.5"/>
<path id="Vector 7" d="M20.625 8.125V15" stroke="#D4AF37" stroke-width="2.5"/>
<path id="Vector 9" d="M20.625 31.875V25" stroke="#D4AF37" stroke-width="2.5"/>
<path id="Vector 8" d="M32.252 19.875L25.377 19.875" stroke="#D4AF37" stroke-width="2.5"/>
<path id="Vector 10" d="M8.75 19.875L15.625 19.875" stroke="#D4AF37" stroke-width="2.5"/>
<circle id="Ellipse 29" cx="10.4235" cy="9.74609" r="2.875" transform="rotate(-45 10.4235 9.74609)" stroke="#D4AF37" stroke-width="2.5"/>
<circle id="Ellipse 30" cx="4.125" cy="4.125" r="2.875" transform="matrix(0.707107 -0.707107 -0.707107 -0.707107 30.7539 35.9102)" stroke="#D4AF37" stroke-width="2.5"/>
<circle id="Ellipse 31" cx="30.5762" cy="9.74769" r="2.875" transform="rotate(45 30.5762 9.74769)" stroke="#D4AF37" stroke-width="2.5"/>
<circle id="Ellipse 32" cx="10.2461" cy="30.0765" r="2.875" transform="rotate(-135 10.2461 30.0765)" stroke="#D4AF37" stroke-width="2.5"/>
<path id="Vector 11" d="M12.1934 11.5156L17.0547 16.377" stroke="#D4AF37" stroke-width="2.5"/>
<path id="Vector 12" d="M28.9863 28.3086L24.125 23.4472" stroke="#D4AF37" stroke-width="2.5"/>
<path id="Vector 13" d="M28.7207 11.6016L23.8593 16.4629" stroke="#D4AF37" stroke-width="2.5"/>
<path id="Vector 14" d="M12.1016 28.2227L16.9629 23.3613" stroke="#D4AF37" stroke-width="2.5"/>
</g>
</svg>
