<svg width="41" height="40" viewBox="0 0 41 40" fill="none" xmlns="http://www.w3.org/2000/svg">
<path d="M7.49609 7.5C7.49609 7.22386 7.71995 7 7.99609 7H20.4961H32.9961C33.2722 7 33.4961 7.22386 33.4961 7.5V20V32.5C33.4961 32.7761 33.2722 33 32.9961 33H20.4961H7.99609C7.71995 33 7.49609 32.7761 7.49609 32.5V20V7.5Z" stroke="#D4AF37" stroke-width="2.5"/>
<path d="M11.498 5.75V20" stroke="#D4AF37" stroke-width="2.5"/>
<path d="M24.9961 20V34.25" stroke="#D4AF37" stroke-width="2.5"/>
<path d="M34.75 11.25L20.5 11.25" stroke="#D4AF37" stroke-width="2.5"/>
<path d="M20.498 24.5L6.24805 24.5" stroke="#D4AF37" stroke-width="2.5"/>
<path d="M16 5.75V20" stroke="#D4AF37" stroke-width="2.5"/>
<path d="M29.498 20V34.25" stroke="#D4AF37" stroke-width="2.5"/>
<path d="M34.75 15.75L20.5 15.75" stroke="#D4AF37" stroke-width="2.5"/>
<path d="M20.498 28.9961L6.24805 28.9961" stroke="#D4AF37" stroke-width="2.5"/>
</svg>
