<svg width="41" height="40" viewBox="0 0 41 40" fill="none" xmlns="http://www.w3.org/2000/svg">
<path d="M9.625 19.6988H7.325C7.28358 19.6988 7.25 19.7324 7.25 19.7739V23.2303V26.7618V30.2183C7.25 30.2598 7.28358 30.2933 7.325 30.2933H9.625M9.625 19.6988H11.925C11.9664 19.6988 12 19.7324 12 19.7738V23.2303V26.7618V30.2183C12 30.2598 11.9664 30.2933 11.925 30.2933H9.625M9.625 19.6988V15.2461M9.625 34.7461V30.2933" stroke="#D4AF37" stroke-width="2.5" stroke-linecap="round"/>
<path d="M31.123 19.6988H28.823C28.7816 19.6988 28.748 19.7324 28.748 19.7739V23.2303V26.7618V30.2183C28.748 30.2598 28.7816 30.2933 28.823 30.2933H31.123M31.123 19.6988H33.423C33.4645 19.6988 33.498 19.7324 33.498 19.7738V23.2303V26.7618V30.2183C33.498 30.2598 33.4645 30.2933 33.423 30.2933H31.123M31.123 19.6988V15.2461M31.123 34.7461V30.2933" stroke="#D4AF37" stroke-width="2.5" stroke-linecap="round"/>
<path d="M20.375 9.75594H18.075C18.0336 9.75594 18 9.78952 18 9.83094V13.3327V16.9095V20.4113C18 20.4527 18.0336 20.4863 18.075 20.4863H20.375M20.375 9.75594H22.675C22.7164 9.75594 22.75 9.78952 22.75 9.83094V13.3327V16.9095V20.4113C22.75 20.4527 22.7164 20.4863 22.675 20.4863H20.375M20.375 9.75594V5.24609M20.375 24.9961V20.4863" stroke="#D4AF37" stroke-width="2.5" stroke-linecap="round"/>
</svg>
