<svg width="41" height="40" viewBox="0 0 41 40" fill="none" xmlns="http://www.w3.org/2000/svg">
<g id="Frame">
<g id="Layer 23">
<path id="Vector" d="M2.99779 35.0013C2.73644 35.005 2.48132 34.9214 2.27279 34.7638C2.11124 34.6488 1.97937 34.497 1.88809 34.321C1.7968 34.1449 1.74871 33.9497 1.74779 33.7513V10.0013C1.73357 9.72876 1.80895 9.45902 1.96244 9.2333C2.11592 9.00759 2.33907 8.83832 2.59779 8.75135L13.8478 5.00135C14.0965 4.92663 14.3616 4.92663 14.6103 5.00135L26.7478 8.75135L37.6228 5.12635C37.8108 5.06436 38.0108 5.0479 38.2064 5.07833C38.402 5.10875 38.5875 5.18519 38.7478 5.30135C38.8965 5.41261 39.0185 5.55561 39.105 5.71994C39.1915 5.88427 39.2402 6.0658 39.2478 6.25135V30.0013C39.2485 30.2634 39.1668 30.519 39.0142 30.7321C38.8617 30.9452 38.6461 31.105 38.3978 31.1888L27.1478 34.9388C26.8991 35.0136 26.634 35.0136 26.3853 34.9388L14.2478 31.3138L3.39779 35.0013C3.26507 35.0194 3.13052 35.0194 2.99779 35.0013ZM14.2478 28.7513C14.368 28.7337 14.4901 28.7337 14.6103 28.7513L26.7478 32.5013L36.7478 29.1638V7.98885L27.1478 11.2513C26.8991 11.3261 26.634 11.3261 26.3853 11.2513L14.2478 7.56385L4.24779 10.9013V32.0138L13.8478 28.8138C13.9777 28.7749 14.1122 28.7539 14.2478 28.7513Z" fill="#D4AF37"/>
<path id="Vector_2" d="M26.748 33.75C26.4165 33.75 26.0986 33.6183 25.8642 33.3839C25.6297 33.1495 25.498 32.8315 25.498 32.5V10C25.498 9.66848 25.6297 9.35054 25.8642 9.11612C26.0986 8.8817 26.4165 8.75 26.748 8.75C27.0796 8.75 27.3975 8.8817 27.6319 9.11612C27.8664 9.35054 27.998 9.66848 27.998 10V32.5C27.998 32.8315 27.8664 33.1495 27.6319 33.3839C27.3975 33.6183 27.0796 33.75 26.748 33.75Z" fill="#D4AF37"/>
<path id="Vector_3" d="M14.248 30C13.9165 30 13.5986 29.8683 13.3642 29.6339C13.1297 29.3995 12.998 29.0815 12.998 28.75V6.25C12.998 5.91848 13.1297 5.60054 13.3642 5.36612C13.5986 5.1317 13.9165 5 14.248 5C14.5796 5 14.8975 5.1317 15.1319 5.36612C15.3664 5.60054 15.498 5.91848 15.498 6.25V28.75C15.498 29.0815 15.3664 29.3995 15.1319 29.6339C14.8975 29.8683 14.5796 30 14.248 30Z" fill="#D4AF37"/>
</g>
</g>
</svg>
