<svg width="41" height="40" viewBox="0 0 41 40" fill="none" xmlns="http://www.w3.org/2000/svg">
<g clip-path="url(#clip0_964_3923)">
<path d="M34.543 8.09765L25.5883 17.0523C25.1478 17.4928 24.4502 17.5417 23.9525 17.167L17.626 12.403C17.1132 12.0169 16.3912 12.0819 15.9557 12.5536L8.34773 20.7933" stroke="#D4AF37" stroke-width="2.5" stroke-linecap="round"/>
<path d="M34.543 15.0977L25.5883 24.0523C25.1478 24.4928 24.4502 24.5417 23.9525 24.167L17.626 19.403C17.1132 19.0169 16.3912 19.0819 15.9557 19.5536L8.34773 27.7933" stroke="#D4AF37" stroke-width="2.5" stroke-linecap="round"/>
<path d="M16.8477 23.0938L16.8477 39.5938" stroke="#D4AF37" stroke-width="2.5" stroke-linecap="round"/>
<path d="M33.3438 24.5977L33.3438 39.5977" stroke="#D4AF37" stroke-width="2.5" stroke-linecap="round"/>
<path d="M25.0957 28.8438L25.0957 39.5938" stroke="#D4AF37" stroke-width="2.5" stroke-linecap="round"/>
<path d="M8.5957 31.3438L8.5957 39.5938" stroke="#D4AF37" stroke-width="2.5" stroke-linecap="round"/>
</g>
<defs>
<clipPath id="clip0_964_3923">
<rect width="40" height="40" fill="white" transform="translate(0.5)"/>
</clipPath>
</defs>
</svg>
