<svg width="41" height="40" viewBox="0 0 41 40" fill="none" xmlns="http://www.w3.org/2000/svg">
<g clip-path="url(#clip0_822_2463)">
<path d="M10.4989 18.0915C9.83009 20.7031 10.5601 23.5897 12.6566 25.5745C14.205 27.0404 16.2039 27.735 18.179 27.6714C19.7367 27.6212 21.2797 27.0994 22.5752 26.1123C23.1244 25.6939 23.9103 25.6622 24.4117 26.1368L26.5554 28.1662C27.0567 28.6408 27.082 29.4372 26.5624 29.8918C24.2711 31.8961 21.4377 32.9741 18.5628 33.1121C15.117 33.2775 11.6115 32.0926 8.9085 29.5337C5.23655 26.0575 4.01529 20.964 5.30389 16.4143M10.4989 18.0915C10.8118 16.8697 11.4309 15.7081 12.3595 14.7272C14.9815 11.9576 19.1773 11.5728 22.2337 13.6472C22.8049 14.0349 23.5916 14.0237 24.0662 13.5224L26.0956 11.3787C26.5702 10.8773 26.5516 10.0804 26.0078 9.65503C20.7368 5.53096 13.0942 6.02088 8.40035 10.9791C6.89315 12.5711 5.8626 14.4416 5.30389 16.4143M10.4989 18.0915L5.30389 16.4143" stroke="#D4AF37" stroke-width="2.5"/>
<path d="M31.853 26.8238C32.3792 27.2707 33.1752 27.2096 33.5603 26.6367C36.4111 22.3955 35.949 16.7141 32.4504 12.9893C31.9777 12.4861 31.1823 12.5544 30.7353 13.0805L29.3956 14.6575C28.9486 15.1836 29.0251 15.9663 29.4556 16.5061C31.0788 18.5415 31.3096 21.3791 30.0366 23.65C29.699 24.2522 29.75 25.037 30.2761 25.484L31.853 26.8238Z" stroke="#D4AF37" stroke-width="2.5"/>
</g>
<defs>
<clipPath id="clip0_822_2463">
<rect width="40" height="40" fill="white" transform="translate(0.5)"/>
</clipPath>
</defs>
</svg>
