<svg width="41" height="40" viewBox="0 0 41 40" fill="none" xmlns="http://www.w3.org/2000/svg">
<path d="M17.248 26.998L21.173 26.998C21.2145 26.998 21.248 27.0316 21.248 27.073L21.248 28.998L21.248 30.923C21.248 30.9645 21.2145 30.998 21.173 30.998L17.248 30.998L13.248 30.998L9.32304 30.998C9.28162 30.998 9.24804 30.9645 9.24804 30.923L9.24804 28.998L9.24804 27.073C9.24804 27.0316 9.28162 26.998 9.32304 26.998L13.248 26.998L17.248 26.998Z" stroke="#D4AF37" stroke-width="2.5" stroke-linecap="round"/>
<path d="M21.0833 17.9961L26.925 17.9961C26.9664 17.9961 27 18.0297 27 18.0711L27 19.9961L27 21.9211C27 21.9625 26.9664 21.9961 26.925 21.9961L21.0833 21.9961L15.1667 21.9961L9.325 21.9961C9.28358 21.9961 9.25 21.9625 9.25 21.9211L9.25 19.9961L9.25 18.0711C9.25 18.0297 9.28357 17.9961 9.325 17.9961L15.1667 17.9961L21.0833 17.9961Z" stroke="#D4AF37" stroke-width="2.5" stroke-linecap="round"/>
<path d="M24.25 9L31.675 9C31.7164 9 31.75 9.03358 31.75 9.075L31.75 11L31.75 12.925C31.75 12.9664 31.7164 13 31.675 13L24.25 13L16.75 13L9.325 13C9.28358 13 9.25 12.9664 9.25 12.925L9.25 11L9.25 9.075C9.25 9.03358 9.28358 9 9.325 9L16.75 9L24.25 9Z" stroke="#D4AF37" stroke-width="2.5" stroke-linecap="round"/>
</svg>
