<svg width="41" height="17" viewBox="0 0 41 17" fill="none" xmlns="http://www.w3.org/2000/svg">
<g id="Group 5">
<rect id="Rectangle 34624112" x="16.9551" width="1.70732" height="16.4557" transform="rotate(90 16.9551 0)" fill="#D4AF37"/>
<rect id="Rectangle 34624122" x="21.9629" width="1.70732" height="4.99999" transform="rotate(90 21.9629 0)" fill="#D4AF37" fill-opacity="0.6"/>
<rect id="Rectangle 34624124" x="34.4238" y="3.6582" width="1.70732" height="10.3797" transform="rotate(90 34.4238 3.6582)" fill="#D4AF37" fill-opacity="0.6"/>
<rect id="Rectangle 34624126" x="26.5762" y="7.31641" width="1.70732" height="10.3797" transform="rotate(90 26.5762 7.31641)" fill="#D4AF37" fill-opacity="0.6"/>
<rect id="Rectangle 34624128" x="28.6016" y="10.9766" width="1.70732" height="21.2658" transform="rotate(90 28.6016 10.9766)" fill="#D4AF37" fill-opacity="0.6"/>
<rect id="Rectangle 34624130" x="32.1465" y="14.6348" width="1.70732" height="21.2658" transform="rotate(90 32.1465 14.6348)" fill="#D4AF37" fill-opacity="0.6"/>
<rect id="Rectangle 34624123" x="31.3535" width="1.70732" height="9.39022" transform="rotate(90 31.3535 0)" fill="#D4AF37" fill-opacity="0.4"/>
<rect id="Rectangle 34624125" x="35.1348" y="3.6582" width="1.70732" height="4.51218" transform="rotate(90 35.1348 3.6582)" fill="#D4AF37" fill-opacity="0.4"/>
<rect id="Rectangle 34624127" x="31.8418" y="7.31641" width="1.70732" height="5.24389" transform="rotate(90 31.8418 7.31641)" fill="#D4AF37" fill-opacity="0.4"/>
<rect id="Rectangle 34624129" x="39.9941" y="10.9766" width="1.70732" height="11.3924" transform="rotate(90 39.9941 10.9766)" fill="#D4AF37" fill-opacity="0.4"/>
<rect id="Rectangle 34624131" x="40.5" y="14.6348" width="1.70732" height="8.35441" transform="rotate(90 40.5 14.6348)" fill="#D4AF37" fill-opacity="0.4"/>
<rect id="Rectangle 34624113" x="24.0449" y="3.6582" width="1.70732" height="23.5442" transform="rotate(90 24.0449 3.6582)" fill="#D4AF37"/>
<rect id="Rectangle 34624114" x="16.1953" y="7.31641" width="1.70732" height="15.6962" transform="rotate(90 16.1953 7.31641)" fill="#D4AF37"/>
<rect id="Rectangle 34624115" x="7.33594" y="10.9766" width="1.70732" height="6.83543" transform="rotate(90 7.33594 10.9766)" fill="#D4AF37"/>
<rect id="Rectangle 34624116" x="10.8789" y="14.6348" width="1.70732" height="10.3797" transform="rotate(90 10.8789 14.6348)" fill="#D4AF37"/>
</g>
</svg>
