<svg width="41" height="40" viewBox="0 0 41 40" fill="none" xmlns="http://www.w3.org/2000/svg">
<path d="M20.5 36.25V29.5M20.5 3.5V9.25M14.8012 26.5V29.425C14.8012 29.4664 14.8348 29.5 14.8762 29.5H20.5M14.8012 26.5V23.575C14.8012 23.5336 14.8348 23.5 14.8762 23.5H20.5M14.8012 26.5H8.75M35.25 26.5H29.1988M29.1988 26.5V23.575C29.1988 23.5336 29.1652 23.5 29.1238 23.5H20.5M29.1988 26.5V29.425C29.1988 29.4664 29.1652 29.5 29.1238 29.5H20.5M10.0512 12.25V15.175C10.0512 15.2164 10.0848 15.25 10.1262 15.25H20.5M10.0512 12.25V9.325C10.0512 9.28358 10.0848 9.25 10.1262 9.25L20.5 9.25M10.0512 12.25H4M30.5 12.25H24.4488M24.4488 12.25V9.325C24.4488 9.28358 24.4152 9.25 24.3738 9.25H20.5M24.4488 12.25V15.175C24.4488 15.2164 24.4152 15.25 24.3738 15.25H20.5M20.5 23.5V15.25" stroke="#D4AF37" stroke-width="2.5" stroke-linecap="round"/>
</svg>
