<svg width="61" height="28" viewBox="0 0 61 28" fill="none" xmlns="http://www.w3.org/2000/svg">
<rect x="0.5" y="8.37109" width="1.79211" height="6.96296" fill="#D4AF37"/>
<rect x="0.5" y="15.3359" width="1.79211" height="6.81482" fill="#D4AF37"/>
<rect x="0.5" y="22.1484" width="1.79211" height="5.18519" fill="#D4AF37"/>
<rect x="2.43945" y="6.14844" width="1.79211" height="9.18519" fill="#D4AF37"/>
<rect x="2.43945" y="15.332" width="1.79211" height="4.59259" fill="#D4AF37"/>
<rect x="2.43945" y="19.9258" width="1.79211" height="7.40741" fill="#D4AF37"/>
<rect x="4.38086" y="4.07422" width="1.79211" height="12.5926" fill="#D4AF37"/>
<rect x="4.38086" y="16.668" width="1.79211" height="5.92593" fill="#D4AF37"/>
<rect x="4.38086" y="22.5938" width="1.79211" height="4.74074" fill="#D4AF37"/>
<rect x="6.32031" y="2.74219" width="1.79211" height="5.48148" fill="#D4AF37"/>
<rect x="6.32031" y="8.22266" width="1.79211" height="11.1111" fill="#D4AF37"/>
<rect x="6.32031" y="19.3359" width="1.79211" height="8" fill="#D4AF37"/>
<rect x="8.26172" y="1.55859" width="1.79211" height="8.59259" fill="#D4AF37"/>
<rect x="8.26172" y="10.1523" width="1.79211" height="6.66667" fill="#D4AF37"/>
<rect x="8.26172" y="16.8164" width="1.79211" height="10.5185" fill="#D4AF37"/>
<rect x="10.2012" y="0.667969" width="1.79211" height="8.59259" fill="#D4AF37"/>
<rect x="10.2012" y="9.26172" width="1.79211" height="6.66667" fill="#D4AF37"/>
<rect x="10.2012" y="15.9258" width="1.79211" height="11.4074" fill="#D4AF37"/>
<rect x="12.1406" y="2.74219" width="1.79211" height="8.59259" fill="#D4AF37"/>
<rect x="12.1406" y="11.3359" width="1.79211" height="3.85185" fill="#D4AF37"/>
<rect x="12.1406" y="15.1875" width="1.79211" height="12.1481" fill="#D4AF37"/>
<rect x="14.082" y="4.07422" width="1.79211" height="8.59259" fill="#D4AF37"/>
<rect x="14.082" y="12.668" width="1.79211" height="3.85185" fill="#D4AF37"/>
<rect x="14.082" y="16.5195" width="1.79211" height="10.8148" fill="#D4AF37"/>
<rect x="16.0215" y="6.14844" width="1.79211" height="6.66667" fill="#D4AF37"/>
<rect x="16.0215" y="12.8164" width="1.79211" height="7.55556" fill="#D4AF37"/>
<rect x="16.0215" y="20.3711" width="1.79211" height="6.96296" fill="#D4AF37"/>
<rect x="17.9629" y="7.33594" width="1.79211" height="6.66667" fill="#D4AF37"/>
<rect x="17.9629" y="14.0039" width="1.79211" height="7.11111" fill="#D4AF37"/>
<rect x="17.9629" y="21.1133" width="1.79211" height="6.22222" fill="#D4AF37"/>
<rect x="19.9023" y="4.51953" width="1.79211" height="6.66667" fill="#D4AF37"/>
<rect x="19.9023" y="11.1875" width="1.79211" height="3.25926" fill="#D4AF37"/>
<rect x="19.9023" y="14.4453" width="1.79211" height="12.8889" fill="#D4AF37"/>
<rect x="21.8438" y="3.63281" width="1.79211" height="6.66667" fill="#D4AF37"/>
<rect x="21.8438" y="10.3008" width="1.79211" height="9.33333" fill="#D4AF37"/>
<rect x="21.8438" y="19.6328" width="1.79211" height="7.7037" fill="#D4AF37"/>
<rect x="23.7832" y="3.03906" width="1.79211" height="10.963" fill="#D4AF37"/>
<rect x="23.7832" y="14.0039" width="1.79211" height="6.37037" fill="#D4AF37"/>
<rect x="23.7832" y="20.3711" width="1.79211" height="6.96296" fill="#D4AF37"/>
<rect x="25.7227" y="4.96484" width="1.79211" height="10.963" fill="#D4AF37"/>
<rect x="25.7227" y="15.9297" width="1.79211" height="5.33333" fill="#D4AF37"/>
<rect x="25.7227" y="21.2617" width="1.79211" height="6.07407" fill="#D4AF37"/>
<rect x="27.6641" y="6" width="1.79212" height="10.963" fill="#D4AF37"/>
<rect x="27.6641" y="16.9648" width="1.79212" height="5.62963" fill="#D4AF37"/>
<rect x="27.6641" y="22.5938" width="1.79212" height="4.74074" fill="#D4AF37"/>
<rect x="29.6035" y="7.63281" width="1.79212" height="10.963" fill="#D4AF37"/>
<rect x="29.6035" y="18.5977" width="1.79212" height="5.03704" fill="#D4AF37"/>
<rect x="29.6035" y="23.6328" width="1.79212" height="3.7037" fill="#D4AF37"/>
<rect x="31.5449" y="8.81641" width="1.79212" height="8.14815" fill="#D4AF37"/>
<rect x="31.5449" y="16.9648" width="1.79212" height="7.55556" fill="#D4AF37"/>
<rect x="31.5449" y="24.5195" width="1.79212" height="2.81481" fill="#D4AF37"/>
<rect x="33.4844" y="11.1875" width="1.79212" height="8.14815" fill="#D4AF37"/>
<rect x="33.4844" y="19.3359" width="1.79212" height="5.48148" fill="#D4AF37"/>
<rect x="33.4844" y="24.8164" width="1.79212" height="2.51852" fill="#D4AF37"/>
<rect x="35.4238" y="12.668" width="1.79212" height="8.14815" fill="#D4AF37"/>
<rect x="35.4238" y="20.8164" width="1.79212" height="2.07407" fill="#D4AF37"/>
<rect x="35.4238" y="22.8906" width="1.79212" height="4.44444" fill="#D4AF37"/>
<rect x="37.3652" y="13.2617" width="1.79212" height="8.14815" fill="#D4AF37"/>
<rect x="37.3652" y="21.4102" width="1.79212" height="2.07407" fill="#D4AF37"/>
<rect x="37.3652" y="23.4844" width="1.79212" height="3.85185" fill="#D4AF37"/>
<rect x="39.3047" y="12.3711" width="1.79212" height="6.66667" fill="#D4AF37"/>
<rect x="39.3047" y="19.0391" width="1.79212" height="4" fill="#D4AF37"/>
<rect x="39.3047" y="23.0391" width="1.79212" height="4.2963" fill="#D4AF37"/>
<rect x="41.2461" y="10.2969" width="1.79212" height="8.14815" fill="#D4AF37"/>
<rect x="41.2461" y="18.4453" width="1.79212" height="1.62963" fill="#D4AF37"/>
<rect x="41.2461" y="20.0742" width="1.79212" height="7.25926" fill="#D4AF37"/>
<rect x="43.1855" y="7.63281" width="1.79212" height="8.14815" fill="#D4AF37"/>
<rect x="43.1855" y="15.7812" width="1.79212" height="2.66667" fill="#D4AF37"/>
<rect x="43.1855" y="18.4492" width="1.79212" height="8.88889" fill="#D4AF37"/>
<rect x="45.127" y="6.59375" width="1.79212" height="8.14815" fill="#D4AF37"/>
<rect x="45.127" y="14.7422" width="1.79212" height="2.51852" fill="#D4AF37"/>
<rect x="45.127" y="17.2617" width="1.79212" height="10.0741" fill="#D4AF37"/>
<rect x="47.0664" y="4.96484" width="1.79212" height="8.14815" fill="#D4AF37"/>
<rect x="47.0664" y="13.1133" width="1.79212" height="1.48148" fill="#D4AF37"/>
<rect x="47.0664" y="14.5938" width="1.79212" height="12.7407" fill="#D4AF37"/>
<rect x="49.0059" y="4.07422" width="1.79212" height="5.33333" fill="#D4AF37"/>
<rect x="49.0059" y="9.40625" width="1.79212" height="4.74074" fill="#D4AF37"/>
<rect x="49.0059" y="14.1484" width="1.79212" height="13.1852" fill="#D4AF37"/>
<rect x="50.9473" y="3.03906" width="1.79212" height="5.33333" fill="#D4AF37"/>
<rect x="50.9473" y="8.37109" width="1.79212" height="4.88889" fill="#D4AF37"/>
<rect x="50.9473" y="13.2617" width="1.79212" height="14.0741" fill="#D4AF37"/>
<rect x="52.8867" y="2" width="1.79212" height="5.33333" fill="#D4AF37"/>
<rect x="52.8867" y="7.33203" width="1.79212" height="4.88889" fill="#D4AF37"/>
<rect x="52.8867" y="12.2227" width="1.79212" height="15.1111" fill="#D4AF37"/>
<rect x="54.8281" y="0.667969" width="1.79212" height="5.33333" fill="#D4AF37"/>
<rect x="54.8281" y="6" width="1.79212" height="7.55556" fill="#D4AF37"/>
<rect x="54.8281" y="13.5586" width="1.79212" height="13.7778" fill="#D4AF37"/>
<rect x="56.7676" y="2" width="1.79212" height="2.96296" fill="#D4AF37"/>
<rect x="56.7676" y="4.96484" width="1.79212" height="9.92593" fill="#D4AF37"/>
<rect x="56.7676" y="14.8906" width="1.79212" height="12.4444" fill="#D4AF37"/>
<rect x="58.707" y="3.63281" width="1.79212" height="4.74074" fill="#D4AF37"/>
<rect x="58.707" y="8.375" width="1.79212" height="7.7037" fill="#D4AF37"/>
<rect x="58.707" y="16.0781" width="1.79212" height="11.2593" fill="#D4AF37"/>
</svg>
