<svg width="41" height="40" viewBox="0 0 41 40" fill="none" xmlns="http://www.w3.org/2000/svg">
<g id="icon" clip-path="url(#clip0_958_19900)">
<path id="Vector" d="M20.499 2.5C20.1675 2.5 19.8496 2.6317 19.6151 2.86612C19.3807 3.10054 19.249 3.41848 19.249 3.75V12.6125C18.1386 12.8088 17.0872 13.2546 16.174 13.9163L10.297 8.03887C10.1255 7.86646 9.92105 7.7302 9.6959 7.63816C9.47075 7.54611 9.22943 7.50016 8.98621 7.503C8.74299 7.50584 8.50281 7.55743 8.27987 7.65471C8.05694 7.752 7.85578 7.893 7.68828 8.06938C5.83024 10.0719 4.46494 12.4802 3.70091 15.1029C2.93688 17.7256 2.79518 20.4903 3.28708 23.1774C3.77898 25.8644 4.89091 28.3997 6.53449 30.5817C8.17807 32.7636 10.308 34.5321 12.7549 35.7465C13.5141 36.1405 14.3088 36.4617 15.1285 36.706C18.1016 37.6422 21.2697 37.773 24.3098 37.0853C27.35 36.3975 30.1533 34.9158 32.4339 32.7911C32.6095 32.6263 32.7501 32.4278 32.8473 32.2074C32.9444 31.9871 32.9962 31.7494 32.9994 31.5086C33.0027 31.2678 32.9573 31.0288 32.8662 30.8059C32.775 30.583 32.6398 30.3807 32.4687 30.2113L26.5953 24.3375C27.2542 23.4195 27.6957 22.3637 27.8865 21.25H36.749C37.0806 21.25 37.3985 21.1183 37.6329 20.8839C37.8673 20.6495 37.999 20.3315 37.999 20C37.9938 15.3603 36.1484 10.9122 32.8676 7.6314C29.5869 4.35065 25.1387 2.50523 20.499 2.5ZM20.499 15C21.4879 15 22.4546 15.2932 23.2769 15.8427C24.0991 16.3921 24.74 17.173 25.1184 18.0866C25.4969 19.0002 25.5959 20.0055 25.403 20.9755C25.21 21.9454 24.7338 22.8363 24.0346 23.5355C23.3353 24.2348 22.4444 24.711 21.4745 24.9039C20.5046 25.0969 19.4992 24.9978 18.5856 24.6194C17.672 24.241 16.8911 23.6001 16.3417 22.7779C15.7923 21.9556 15.499 20.9889 15.499 20C15.5005 18.6744 16.0278 17.4035 16.9651 16.4661C17.9025 15.5288 19.1734 15.0015 20.499 15ZM9.03653 10.3138L14.4064 15.6836C13.494 16.9415 13.0016 18.4551 12.999 20.009C12.9965 21.563 13.484 23.0781 14.3923 24.339L9.04666 29.6851C6.75931 26.9766 5.50364 23.5464 5.50179 20.0013C5.49994 16.4562 6.75202 13.0246 9.03653 10.3138ZM10.815 31.4512L16.1599 26.1064C17.0792 26.762 18.1355 27.2001 19.249 27.3875V34.94C16.1412 34.6915 13.1903 33.4707 10.815 31.4512ZM21.749 34.9451V27.3865C22.8582 27.1962 23.9099 26.7571 24.8252 26.1024L30.1774 31.4545C27.8033 33.4728 24.8549 34.6939 21.749 34.9451ZM27.8865 18.75C27.6249 17.2174 26.894 15.8038 25.7946 14.7045C24.6952 13.6051 23.2816 12.8741 21.749 12.6125V5.05125C25.2814 5.35179 28.5937 6.89159 31.1004 9.39841C33.6071 11.9052 35.1468 15.2176 35.4472 18.75H27.8865Z" fill="#D4AF37"/>
</g>
<defs>
<clipPath id="clip0_958_19900">
<rect width="40" height="40" fill="white" transform="translate(0.5)"/>
</clipPath>
</defs>
</svg>
