<svg width="41" height="40" viewBox="0 0 41 40" fill="none" xmlns="http://www.w3.org/2000/svg">
<path d="M21.9162 16.7608H20.7926C20.1242 16.7608 19.5824 17.3606 19.5824 18.1005V33.4104C19.5824 34.1502 20.1242 34.75 20.7926 34.75H23.0399C23.7082 34.75 24.25 34.1502 24.25 33.4104V18.1005C24.25 17.3606 23.7082 16.7608 23.0399 16.7608H21.9162ZM21.9162 16.7608V12.3645C21.9162 11.5161 21.1327 10.8282 20.1662 10.8282H12.0838C11.1173 10.8282 10.3338 11.5161 10.3338 12.3645V22.3107M10.3338 22.3107H9.21011C8.54178 22.3107 8 22.9105 8 23.6503V33.4104C8 34.1502 8.54178 34.75 9.21011 34.75H11.4574C12.1258 34.75 12.6676 34.1502 12.6676 33.4104V23.6503C12.6676 22.9105 12.1258 22.3107 11.4574 22.3107H10.3338ZM32.125 13.13H30.9815C30.3014 13.13 29.75 13.8508 29.75 14.74V33.14C29.75 34.0292 30.3014 34.75 30.9815 34.75H33.2685C33.9487 34.75 34.5 34.0292 34.5 33.14V14.74C34.5 13.8508 33.9487 13.13 33.2685 13.13H32.125ZM32.125 13.13V7.53626C32.125 6.68781 31.3415 6 30.375 6H17.875C16.9085 6 16.125 6.68781 16.125 7.53626V10.938" stroke="#D4AF37" stroke-width="2.5"/>
</svg>
