<svg width="41" height="40" viewBox="0 0 41 40" fill="none" xmlns="http://www.w3.org/2000/svg">
<path d="M28.5559 12.758H27.1383C26.2952 12.758 25.6117 13.4412 25.6117 14.284V31.724C25.6117 32.5668 26.2952 33.25 27.1383 33.25H29.9734C30.8165 33.25 31.5 32.5668 31.5 31.724V14.284C31.5 13.4412 30.8165 12.758 29.9734 12.758H28.5559ZM28.5559 12.758V7.75C28.5559 6.7835 27.7724 6 26.8059 6H15.6942C14.7277 6 13.9441 6.7835 13.9441 7.75V19.08M13.9441 19.08H12.5266C11.6835 19.08 11 19.7632 11 20.606V31.724C11 32.5668 11.6835 33.25 12.5266 33.25H15.3617C16.2048 33.25 16.8883 32.5668 16.8883 31.724V20.606C16.8883 19.7632 16.2048 19.08 15.3617 19.08H13.9441Z" stroke="#D4AF37" stroke-width="2.5"/>
</svg>
