<svg width="41" height="40" viewBox="0 0 41 40" fill="none" xmlns="http://www.w3.org/2000/svg">
<g id="line - chart 34">
<path id="Vector" d="M7.25196 28.1152C7.25196 24.8116 11.6996 20.1324 16.995 20.8455C20.6712 21.3405 20.0827 25.3973 23.7589 25.8923C29.0543 26.6054 33.502 18.6226 33.502 18.6226M16.995 10.0758C11.6996 9.36269 7.25195 14.0419 7.25195 17.3455L7.25195 31.8138C7.25195 31.917 7.36412 31.9976 7.50248 31.9976L33.2514 31.9976C33.3898 31.9976 33.5019 31.9139 33.5019 31.8107V8.78951C33.5019 8.5851 33.1012 8.51694 32.9818 8.70091C31.6605 10.7366 27.9789 15.6909 23.7589 15.1226C20.0827 14.6276 20.6712 10.5708 16.995 10.0758Z" stroke="#D4AF37" stroke-width="2.5" stroke-linecap="round"/>
</g>
</svg>
