<svg width="41" height="24" viewBox="0 0 41 24" fill="none" xmlns="http://www.w3.org/2000/svg">
<g id="Group 6">
<g id="Group 5">
<rect id="Rectangle 34624112" x="0.5" y="13.9434" width="1.97183" height="9.15493" fill="#D4AF37"/>
<rect id="Rectangle 34624122" x="0.5" y="8.16992" width="1.97183" height="5.77465" fill="#D4AF37" fill-opacity="0.6"/>
<rect id="Rectangle 34624124" x="4.72461" y="4.22461" width="1.97183" height="5.77465" fill="#D4AF37" fill-opacity="0.6"/>
<rect id="Rectangle 34624126" x="8.95117" y="8.5918" width="1.97183" height="5.77465" fill="#D4AF37" fill-opacity="0.6"/>
<rect id="Rectangle 34624128" x="13.1758" y="7.46484" width="1.97183" height="11.831" fill="#D4AF37" fill-opacity="0.6"/>
<rect id="Rectangle 34624130" x="17.4023" y="5.49219" width="1.97183" height="11.831" fill="#D4AF37" fill-opacity="0.6"/>
<rect id="Rectangle 34624132" x="21.627" y="10.8457" width="1.97183" height="4.50704" fill="#D4AF37" fill-opacity="0.6"/>
<rect id="Rectangle 34624134" x="25.8516" y="5.49219" width="1.97183" height="2.39437" fill="#D4AF37" fill-opacity="0.6"/>
<rect id="Rectangle 34624136" x="30.0781" y="12.2539" width="1.97183" height="2.39437" fill="#D4AF37" fill-opacity="0.6"/>
<rect id="Rectangle 34624138" x="34.3027" y="4.22461" width="1.97183" height="2.39437" fill="#D4AF37" fill-opacity="0.6"/>
<rect id="Rectangle 34624140" x="38.5273" y="2.25391" width="1.97183" height="1.69014" fill="#D4AF37" fill-opacity="0.6"/>
<rect id="Rectangle 34624123" x="0.5" y="2.39453" width="1.97183" height="5.77465" fill="#D4AF37" fill-opacity="0.34"/>
<rect id="Rectangle 34624125" x="4.72461" y="1.12695" width="1.97183" height="5.21127" fill="#D4AF37" fill-opacity="0.34"/>
<rect id="Rectangle 34624127" x="8.95117" y="2.25391" width="1.97183" height="6.33803" fill="#D4AF37" fill-opacity="0.34"/>
<rect id="Rectangle 34624129" x="13.1758" y="1.12695" width="1.97183" height="6.33803" fill="#D4AF37" fill-opacity="0.34"/>
<rect id="Rectangle 34624131" x="17.4023" y="0.845703" width="1.97183" height="4.64789" fill="#D4AF37" fill-opacity="0.34"/>
<rect id="Rectangle 34624133" x="21.627" width="1.97183" height="10.8451" fill="#D4AF37" fill-opacity="0.34"/>
<rect id="Rectangle 34624135" x="25.8516" y="1.4082" width="1.97183" height="4.08451" fill="#D4AF37" fill-opacity="0.34"/>
<rect id="Rectangle 34624137" x="30.0781" y="8.16992" width="1.97183" height="4.08451" fill="#D4AF37" fill-opacity="0.34"/>
<rect id="Rectangle 34624139" x="34.3027" y="0.140625" width="1.97183" height="4.08451" fill="#D4AF37" fill-opacity="0.34"/>
<rect id="Rectangle 34624141" x="38.5273" y="1.12695" width="1.97183" height="1.12676" fill="#D4AF37" fill-opacity="0.34"/>
<rect id="Rectangle 34624113" x="4.72461" y="10" width="1.97183" height="13.0986" fill="#D4AF37"/>
<rect id="Rectangle 34624114" x="8.95117" y="14.3652" width="1.97183" height="8.73239" fill="#D4AF37"/>
<rect id="Rectangle 34624115" x="13.1758" y="19.2949" width="1.97183" height="3.80282" fill="#D4AF37"/>
<rect id="Rectangle 34624116" x="17.4023" y="17.3242" width="1.97183" height="5.77465" fill="#D4AF37"/>
<rect id="Rectangle 34624117" x="21.627" y="15.3516" width="1.97183" height="7.74648" fill="#D4AF37"/>
<rect id="Rectangle 34624118" x="25.8516" y="7.88672" width="1.97183" height="15.2113" fill="#D4AF37"/>
<rect id="Rectangle 34624119" x="30.0781" y="14.6484" width="1.97183" height="8.4507" fill="#D4AF37"/>
<rect id="Rectangle 34624120" x="34.3027" y="6.61914" width="1.97183" height="16.4789" fill="#D4AF37"/>
<rect id="Rectangle 34624121" x="38.5273" y="3.94336" width="1.97183" height="19.1549" fill="#D4AF37"/>
</g>
</g>
</svg>
