<svg width="41" height="40" viewBox="0 0 41 40" fill="none" xmlns="http://www.w3.org/2000/svg">
<path d="M11.373 10.748H9.01055C8.96913 10.748 8.93555 10.7816 8.93555 10.823V15.5019V20.2559V24.9348C8.93555 24.9762 8.96913 25.0098 9.01055 25.0098H11.373M11.373 10.748H13.7355C13.777 10.748 13.8105 10.7816 13.8105 10.823V15.5019V20.2559V24.9348C13.8105 24.9762 13.777 25.0098 13.7355 25.0098H11.373M11.373 10.748V4.75391M16.248 4.75391H11.373M11.373 31.0039V25.0098M11.373 31.0039H16.248M11.373 31.0039H6.49805M11.373 4.75391H6.49805" stroke="#D4AF37" stroke-width="2.5" stroke-linecap="round"/>
<path d="M28.123 14.9902H25.7605C25.7191 14.9902 25.6855 15.0238 25.6855 15.0652V19.7441V24.4981V29.177C25.6855 29.2184 25.7191 29.252 25.7605 29.252H28.123M28.123 14.9902H30.4855C30.527 14.9902 30.5605 15.0238 30.5605 15.0652V19.7441V24.4981V29.177C30.5605 29.2184 30.527 29.252 30.4855 29.252H28.123M28.123 14.9902V8.99609M32.998 8.99609H28.123M28.123 35.2461V29.252M28.123 35.2461H32.998M28.123 35.2461H23.248M28.123 8.99609H23.248" stroke="#D4AF37" stroke-width="2.5" stroke-linecap="round"/>
</svg>
