<svg width="61" height="28" viewBox="0 0 61 28" fill="none" xmlns="http://www.w3.org/2000/svg">
<rect x="0.5" y="23.0391" width="1.52263" height="4.2963" rx="0.222222" fill="#D4AF37"/>
<rect x="2.16992" y="20.3711" width="1.52263" height="6.96296" rx="0.222222" fill="#D4AF37"/>
<rect x="3.8418" y="18.7422" width="1.52263" height="8.59259" rx="0.222222" fill="#D4AF37"/>
<rect x="5.51172" y="16.3711" width="1.52263" height="10.963" rx="0.222222" fill="#D4AF37"/>
<rect x="7.18359" y="13.7031" width="1.52263" height="13.6296" rx="0.222222" fill="#D4AF37"/>
<rect x="8.85352" y="10.8906" width="1.52263" height="16.4444" rx="0.222222" fill="#D4AF37"/>
<rect x="10.5254" y="8.22266" width="1.52263" height="19.1111" rx="0.222222" fill="#D4AF37"/>
<rect x="12.1953" y="6" width="1.52263" height="21.3333" rx="0.222222" fill="#D4AF37"/>
<rect x="13.8672" y="2" width="1.52263" height="25.3333" rx="0.222222" fill="#D4AF37"/>
<rect x="15.5371" y="0.667969" width="1.52263" height="26.6667" rx="0.222222" fill="#D4AF37"/>
<rect x="17.207" y="4.22266" width="1.52263" height="23.1111" rx="0.222222" fill="#D4AF37"/>
<rect x="18.8789" y="7.03906" width="1.52263" height="20.2963" rx="0.222222" fill="#D4AF37"/>
<rect x="20.5488" y="8.66797" width="1.52263" height="18.6667" rx="0.222222" fill="#D4AF37"/>
<rect x="22.2207" y="11.3359" width="1.52263" height="16" rx="0.222222" fill="#D4AF37"/>
<rect x="23.8906" y="13.7031" width="1.52263" height="13.6296" rx="0.222222" fill="#D4AF37"/>
<rect x="25.5625" y="15.3359" width="1.52263" height="12" rx="0.222222" fill="#D4AF37"/>
<rect x="27.2324" y="17.1133" width="1.52263" height="10.2222" rx="0.222222" fill="#D4AF37"/>
<rect x="28.9023" y="18.7422" width="1.52263" height="8.59259" rx="0.222222" fill="#D4AF37"/>
<rect x="30.5742" y="19.7773" width="1.52263" height="7.55556" rx="0.222222" fill="#D4AF37"/>
<rect x="32.2441" y="20.5195" width="1.52263" height="6.81482" rx="0.222222" fill="#D4AF37"/>
<rect x="33.916" y="22.7422" width="1.52263" height="4.59259" rx="0.222222" fill="#D4AF37"/>
<rect x="35.5859" y="23.6328" width="1.52263" height="3.7037" rx="0.222222" fill="#D4AF37"/>
<rect x="37.2578" y="22.4453" width="1.52263" height="4.88889" rx="0.222222" fill="#D4AF37"/>
<rect x="38.9277" y="20.5195" width="1.52263" height="6.81482" rx="0.222222" fill="#D4AF37"/>
<rect x="40.5996" y="18.7422" width="1.52263" height="8.59259" rx="0.222222" fill="#D4AF37"/>
<rect x="42.2695" y="16.3711" width="1.52263" height="10.963" rx="0.222222" fill="#D4AF37"/>
<rect x="43.9395" y="15.3359" width="1.52263" height="12" rx="0.222222" fill="#D4AF37"/>
<rect x="45.6113" y="13.7031" width="1.52263" height="13.6296" rx="0.222222" fill="#D4AF37"/>
<rect x="47.2812" y="13.1133" width="1.52263" height="14.2222" rx="0.222222" fill="#D4AF37"/>
<rect x="48.9531" y="11.9258" width="1.52263" height="15.4074" rx="0.222222" fill="#D4AF37"/>
<rect x="50.623" y="10" width="1.52263" height="17.3333" rx="0.222222" fill="#D4AF37"/>
<rect x="52.2949" y="7.92578" width="1.52263" height="19.4074" rx="0.222222" fill="#D4AF37"/>
<rect x="53.9648" y="6.74219" width="1.52263" height="20.5926" rx="0.222222" fill="#D4AF37"/>
<rect x="55.6367" y="8.66797" width="1.52263" height="18.6667" rx="0.222222" fill="#D4AF37"/>
<rect x="57.3066" y="13.1133" width="1.52263" height="14.2222" rx="0.222222" fill="#D4AF37"/>
<rect x="58.9766" y="17.1133" width="1.52263" height="10.2222" rx="0.222222" fill="#D4AF37"/>
</svg>
