<svg width="41" height="40" viewBox="0 0 41 40" fill="none" xmlns="http://www.w3.org/2000/svg">
<path d="M22.4167 27.0039H17.825C17.7836 27.0039 17.75 27.0375 17.75 27.0789V29.0039V30.9289C17.75 30.9703 17.7836 31.0039 17.825 31.0039H22.4167H27.0833H31.675C31.7164 31.0039 31.75 30.9703 31.75 30.9289V29.0039V27.0789C31.75 27.0375 31.7164 27.0039 31.675 27.0039H27.0833H22.4167Z" stroke="#D4AF37" stroke-width="2.5" stroke-linecap="round"/>
<path d="M10.2474 18H7.23906C7.19764 18 7.16406 18.0336 7.16406 18.075V20V21.925C7.16406 21.9664 7.19764 22 7.23906 22H10.2474H13.3307H16.3391C16.3805 22 16.4141 21.9664 16.4141 21.925V20V18.075C16.4141 18.0336 16.3805 18 16.3391 18H13.3307H10.2474Z" stroke="#D4AF37" stroke-width="2.5" stroke-linecap="round"/>
<path d="M17.2461 9.00391H10.0711C10.0297 9.00391 9.99609 9.03748 9.99609 9.07891V11.0039V12.9289C9.99609 12.9703 10.0297 13.0039 10.0711 13.0039H17.2461H24.4961H31.6711C31.7125 13.0039 31.7461 12.9703 31.7461 12.9289V11.0039V9.07891C31.7461 9.03748 31.7125 9.00391 31.6711 9.00391H24.4961H17.2461Z" stroke="#D4AF37" stroke-width="2.5" stroke-linecap="round"/>
</svg>
