<svg width="500" height="348" viewBox="0 0 500 348" fill="none" xmlns="http://www.w3.org/2000/svg">
<rect width="500" height="347.573" transform="translate(0 0.078125)" fill="white"/>
<path d="M89.75 36.1974C89.108 36.1974 88.5611 36.0227 88.1094 35.6733C87.6577 35.321 87.3125 34.8111 87.0739 34.1435C86.8352 33.473 86.7159 32.6634 86.7159 31.7145C86.7159 30.7713 86.8352 29.9659 87.0739 29.2983C87.3153 28.6278 87.6619 28.1165 88.1136 27.7642C88.5682 27.4091 89.1136 27.2315 89.75 27.2315C90.3864 27.2315 90.9304 27.4091 91.3821 27.7642C91.8366 28.1165 92.1832 28.6278 92.4219 29.2983C92.6634 29.9659 92.7841 30.7713 92.7841 31.7145C92.7841 32.6634 92.6648 33.473 92.4261 34.1435C92.1875 34.8111 91.8423 35.321 91.3906 35.6733C90.9389 36.0227 90.392 36.1974 89.75 36.1974ZM89.75 35.2599C90.3864 35.2599 90.8807 34.9531 91.233 34.3395C91.5852 33.7259 91.7614 32.8509 91.7614 31.7145C91.7614 30.9588 91.6804 30.3153 91.5185 29.7841C91.3594 29.2528 91.1293 28.848 90.8281 28.5696C90.5298 28.2912 90.1705 28.152 89.75 28.152C89.1193 28.152 88.6264 28.4631 88.2713 29.0852C87.9162 29.7045 87.7386 30.581 87.7386 31.7145C87.7386 32.4702 87.8182 33.1122 87.9773 33.6406C88.1364 34.169 88.3651 34.571 88.6634 34.8466C88.9645 35.1222 89.3267 35.2599 89.75 35.2599Z" fill="black" fill-opacity="0.7"/>
<path d="M115.103 36.0781V35.3111L117.983 32.1577C118.321 31.7884 118.6 31.4673 118.819 31.1946C119.037 30.919 119.199 30.6605 119.304 30.419C119.412 30.1747 119.466 29.919 119.466 29.652C119.466 29.3452 119.392 29.0795 119.245 28.8551C119.1 28.6307 118.901 28.4574 118.648 28.3352C118.395 28.2131 118.111 28.152 117.796 28.152C117.461 28.152 117.168 28.2216 116.918 28.3608C116.671 28.4972 116.479 28.6889 116.343 28.9361C116.209 29.1832 116.142 29.473 116.142 29.8054H115.137C115.137 29.294 115.255 28.8452 115.49 28.4588C115.726 28.0724 116.047 27.7713 116.453 27.5554C116.863 27.3395 117.321 27.2315 117.83 27.2315C118.341 27.2315 118.794 27.3395 119.189 27.5554C119.584 27.7713 119.894 28.0625 120.118 28.429C120.343 28.7955 120.455 29.2031 120.455 29.652C120.455 29.973 120.397 30.2869 120.28 30.5938C120.167 30.8977 119.968 31.2372 119.684 31.6122C119.402 31.9844 119.012 32.4389 118.512 32.9759L116.551 35.0724V35.1406H120.608V36.0781H115.103ZM125.096 36.1974C124.596 36.1974 124.145 36.098 123.745 35.8991C123.344 35.7003 123.023 35.4276 122.782 35.081C122.54 34.7344 122.408 34.3395 122.385 33.8963H123.408C123.448 34.2912 123.627 34.6179 123.945 34.8764C124.266 35.1321 124.65 35.2599 125.096 35.2599C125.453 35.2599 125.772 35.1761 126.05 35.0085C126.331 34.8409 126.551 34.6108 126.711 34.3182C126.873 34.0227 126.953 33.6889 126.953 33.3168C126.953 32.9361 126.87 32.5966 126.702 32.2983C126.537 31.9972 126.31 31.7599 126.02 31.5866C125.73 31.4134 125.4 31.3253 125.027 31.3224C124.76 31.3196 124.486 31.3608 124.205 31.446C123.924 31.5284 123.692 31.6349 123.51 31.7656L122.522 31.6463L123.05 27.3509H127.584V28.2884H123.936L123.63 30.8622H123.681C123.86 30.7202 124.084 30.6023 124.354 30.5085C124.624 30.4148 124.905 30.3679 125.198 30.3679C125.732 30.3679 126.208 30.4957 126.625 30.7514C127.046 31.0043 127.375 31.3509 127.614 31.7912C127.855 32.2315 127.976 32.7344 127.976 33.2997C127.976 33.8565 127.851 34.3537 127.601 34.7912C127.354 35.2259 127.013 35.5696 126.578 35.8224C126.144 36.0724 125.65 36.1974 125.096 36.1974Z" fill="black" fill-opacity="0.7"/>
<path d="M153.031 36.1974C152.531 36.1974 152.081 36.098 151.68 35.8991C151.28 35.7003 150.959 35.4276 150.717 35.081C150.476 34.7344 150.344 34.3395 150.321 33.8963H151.344C151.383 34.2912 151.562 34.6179 151.881 34.8764C152.202 35.1321 152.585 35.2599 153.031 35.2599C153.389 35.2599 153.707 35.1761 153.986 35.0085C154.267 34.8409 154.487 34.6108 154.646 34.3182C154.808 34.0227 154.889 33.6889 154.889 33.3168C154.889 32.9361 154.805 32.5966 154.638 32.2983C154.473 31.9972 154.246 31.7599 153.956 31.5866C153.666 31.4134 153.335 31.3253 152.963 31.3224C152.696 31.3196 152.422 31.3608 152.14 31.446C151.859 31.5284 151.628 31.6349 151.446 31.7656L150.457 31.6463L150.986 27.3509H155.52V28.2884H151.872L151.565 30.8622H151.616C151.795 30.7202 152.02 30.6023 152.29 30.5085C152.559 30.4148 152.841 30.3679 153.133 30.3679C153.667 30.3679 154.143 30.4957 154.561 30.7514C154.981 31.0043 155.311 31.3509 155.55 31.7912C155.791 32.2315 155.912 32.7344 155.912 33.2997C155.912 33.8565 155.787 34.3537 155.537 34.7912C155.29 35.2259 154.949 35.5696 154.514 35.8224C154.079 36.0724 153.585 36.1974 153.031 36.1974ZM160.451 36.1974C159.809 36.1974 159.262 36.0227 158.811 35.6733C158.359 35.321 158.014 34.8111 157.775 34.1435C157.536 33.473 157.417 32.6634 157.417 31.7145C157.417 30.7713 157.536 29.9659 157.775 29.2983C158.017 28.6278 158.363 28.1165 158.815 27.7642C159.269 27.4091 159.815 27.2315 160.451 27.2315C161.088 27.2315 161.632 27.4091 162.083 27.7642C162.538 28.1165 162.884 28.6278 163.123 29.2983C163.365 29.9659 163.485 30.7713 163.485 31.7145C163.485 32.6634 163.366 33.473 163.127 34.1435C162.889 34.8111 162.544 35.321 162.092 35.6733C161.64 36.0227 161.093 36.1974 160.451 36.1974ZM160.451 35.2599C161.088 35.2599 161.582 34.9531 161.934 34.3395C162.286 33.7259 162.463 32.8509 162.463 31.7145C162.463 30.9588 162.382 30.3153 162.22 29.7841C162.061 29.2528 161.83 28.848 161.529 28.5696C161.231 28.2912 160.872 28.152 160.451 28.152C159.82 28.152 159.328 28.4631 158.972 29.0852C158.617 29.7045 158.44 30.581 158.44 31.7145C158.44 32.4702 158.519 33.1122 158.678 33.6406C158.838 34.169 159.066 34.571 159.365 34.8466C159.666 35.1222 160.028 35.2599 160.451 35.2599Z" fill="black" fill-opacity="0.7"/>
<path d="M185.776 36.0781L189.679 28.3565V28.2884H185.179V27.3509H190.77V28.3395L186.884 36.0781H185.776ZM194.969 36.1974C194.469 36.1974 194.018 36.098 193.618 35.8991C193.217 35.7003 192.896 35.4276 192.655 35.081C192.413 34.7344 192.281 34.3395 192.258 33.8963H193.281C193.321 34.2912 193.5 34.6179 193.818 34.8764C194.139 35.1321 194.523 35.2599 194.969 35.2599C195.327 35.2599 195.645 35.1761 195.923 35.0085C196.204 34.8409 196.425 34.6108 196.584 34.3182C196.746 34.0227 196.827 33.6889 196.827 33.3168C196.827 32.9361 196.743 32.5966 196.575 32.2983C196.41 31.9972 196.183 31.7599 195.893 31.5866C195.604 31.4134 195.273 31.3253 194.9 31.3224C194.633 31.3196 194.359 31.3608 194.078 31.446C193.797 31.5284 193.565 31.6349 193.383 31.7656L192.395 31.6463L192.923 27.3509H197.457V28.2884H193.809L193.503 30.8622H193.554C193.733 30.7202 193.957 30.6023 194.227 30.5085C194.497 30.4148 194.778 30.3679 195.071 30.3679C195.605 30.3679 196.081 30.4957 196.498 30.7514C196.919 31.0043 197.248 31.3509 197.487 31.7912C197.729 32.2315 197.849 32.7344 197.849 33.2997C197.849 33.8565 197.724 34.3537 197.474 34.7912C197.227 35.2259 196.886 35.5696 196.452 35.8224C196.017 36.0724 195.523 36.1974 194.969 36.1974Z" fill="black" fill-opacity="0.7"/>
<path d="M223.772 27.3509V36.0781H222.716V28.4588H222.664L220.534 29.8736V28.7997L222.716 27.3509H223.772ZM229.129 36.1974C228.487 36.1974 227.94 36.0227 227.488 35.6733C227.037 35.321 226.691 34.8111 226.453 34.1435C226.214 33.473 226.095 32.6634 226.095 31.7145C226.095 30.7713 226.214 29.9659 226.453 29.2983C226.694 28.6278 227.041 28.1165 227.493 27.7642C227.947 27.4091 228.493 27.2315 229.129 27.2315C229.765 27.2315 230.309 27.4091 230.761 27.7642C231.216 28.1165 231.562 28.6278 231.801 29.2983C232.042 29.9659 232.163 30.7713 232.163 31.7145C232.163 32.6634 232.044 33.473 231.805 34.1435C231.566 34.8111 231.221 35.321 230.77 35.6733C230.318 36.0227 229.771 36.1974 229.129 36.1974ZM229.129 35.2599C229.765 35.2599 230.26 34.9531 230.612 34.3395C230.964 33.7259 231.14 32.8509 231.14 31.7145C231.14 30.9588 231.059 30.3153 230.897 29.7841C230.738 29.2528 230.508 28.848 230.207 28.5696C229.909 28.2912 229.549 28.152 229.129 28.152C228.498 28.152 228.005 28.4631 227.65 29.0852C227.295 29.7045 227.118 30.581 227.118 31.7145C227.118 32.4702 227.197 33.1122 227.356 33.6406C227.515 34.169 227.744 34.571 228.042 34.8466C228.343 35.1222 228.706 35.2599 229.129 35.2599ZM236.629 36.1974C235.987 36.1974 235.44 36.0227 234.988 35.6733C234.537 35.321 234.191 34.8111 233.953 34.1435C233.714 33.473 233.595 32.6634 233.595 31.7145C233.595 30.7713 233.714 29.9659 233.953 29.2983C234.194 28.6278 234.541 28.1165 234.993 27.7642C235.447 27.4091 235.993 27.2315 236.629 27.2315C237.265 27.2315 237.809 27.4091 238.261 27.7642C238.716 28.1165 239.062 28.6278 239.301 29.2983C239.542 29.9659 239.663 30.7713 239.663 31.7145C239.663 32.6634 239.544 33.473 239.305 34.1435C239.066 34.8111 238.721 35.321 238.27 35.6733C237.818 36.0227 237.271 36.1974 236.629 36.1974ZM236.629 35.2599C237.265 35.2599 237.76 34.9531 238.112 34.3395C238.464 33.7259 238.64 32.8509 238.64 31.7145C238.64 30.9588 238.559 30.3153 238.397 29.7841C238.238 29.2528 238.008 28.848 237.707 28.5696C237.409 28.2912 237.049 28.152 236.629 28.152C235.998 28.152 235.505 28.4631 235.15 29.0852C234.795 29.7045 234.618 30.581 234.618 31.7145C234.618 32.4702 234.697 33.1122 234.856 33.6406C235.015 34.169 235.244 34.571 235.542 34.8466C235.843 35.1222 236.206 35.2599 236.629 35.2599Z" fill="black" fill-opacity="0.7"/>
<path d="M264.972 27.3509V36.0781H263.915V28.4588H263.864L261.733 29.8736V28.7997L263.915 27.3509H264.972ZM267.482 36.0781V35.3111L270.362 32.1577C270.7 31.7884 270.979 31.4673 271.197 31.1946C271.416 30.919 271.578 30.6605 271.683 30.419C271.791 30.1747 271.845 29.919 271.845 29.652C271.845 29.3452 271.771 29.0795 271.624 28.8551C271.479 28.6307 271.28 28.4574 271.027 28.3352C270.774 28.2131 270.49 28.152 270.175 28.152C269.839 28.152 269.547 28.2216 269.297 28.3608C269.05 28.4972 268.858 28.6889 268.722 28.9361C268.588 29.1832 268.521 29.473 268.521 29.8054H267.516C267.516 29.294 267.634 28.8452 267.869 28.4588C268.105 28.0724 268.426 27.7713 268.832 27.5554C269.241 27.3395 269.7 27.2315 270.209 27.2315C270.72 27.2315 271.173 27.3395 271.568 27.5554C271.963 27.7713 272.273 28.0625 272.497 28.429C272.722 28.7955 272.834 29.2031 272.834 29.652C272.834 29.973 272.776 30.2869 272.659 30.5938C272.545 30.8977 272.347 31.2372 272.062 31.6122C271.781 31.9844 271.391 32.4389 270.891 32.9759L268.93 35.0724V35.1406H272.987V36.0781H267.482ZM277.474 36.1974C276.974 36.1974 276.524 36.098 276.124 35.8991C275.723 35.7003 275.402 35.4276 275.161 35.081C274.919 34.7344 274.787 34.3395 274.764 33.8963H275.787C275.827 34.2912 276.006 34.6179 276.324 34.8764C276.645 35.1321 277.028 35.2599 277.474 35.2599C277.832 35.2599 278.151 35.1761 278.429 35.0085C278.71 34.8409 278.93 34.6108 279.089 34.3182C279.251 34.0227 279.332 33.6889 279.332 33.3168C279.332 32.9361 279.249 32.5966 279.081 32.2983C278.916 31.9972 278.689 31.7599 278.399 31.5866C278.109 31.4134 277.778 31.3253 277.406 31.3224C277.139 31.3196 276.865 31.3608 276.584 31.446C276.303 31.5284 276.071 31.6349 275.889 31.7656L274.901 31.6463L275.429 27.3509H279.963V28.2884H276.315L276.009 30.8622H276.06C276.239 30.7202 276.463 30.6023 276.733 30.5085C277.003 30.4148 277.284 30.3679 277.577 30.3679C278.111 30.3679 278.587 30.4957 279.004 30.7514C279.425 31.0043 279.754 31.3509 279.993 31.7912C280.234 32.2315 280.355 32.7344 280.355 33.2997C280.355 33.8565 280.23 34.3537 279.98 34.7912C279.733 35.2259 279.392 35.5696 278.957 35.8224C278.523 36.0724 278.028 36.1974 277.474 36.1974Z" fill="black" fill-opacity="0.7"/>
<path d="M306.171 27.3509V36.0781H305.114V28.4588H305.063L302.932 29.8736V28.7997L305.114 27.3509H306.171ZM311.408 36.1974C310.908 36.1974 310.458 36.098 310.057 35.8991C309.657 35.7003 309.336 35.4276 309.094 35.081C308.853 34.7344 308.721 34.3395 308.698 33.8963H309.721C309.76 34.2912 309.939 34.6179 310.257 34.8764C310.578 35.1321 310.962 35.2599 311.408 35.2599C311.766 35.2599 312.084 35.1761 312.363 35.0085C312.644 34.8409 312.864 34.6108 313.023 34.3182C313.185 34.0227 313.266 33.6889 313.266 33.3168C313.266 32.9361 313.182 32.5966 313.015 32.2983C312.85 31.9972 312.623 31.7599 312.333 31.5866C312.043 31.4134 311.712 31.3253 311.34 31.3224C311.073 31.3196 310.799 31.3608 310.517 31.446C310.236 31.5284 310.005 31.6349 309.823 31.7656L308.834 31.6463L309.363 27.3509H313.897V28.2884H310.249L309.942 30.8622H309.993C310.172 30.7202 310.397 30.6023 310.667 30.5085C310.936 30.4148 311.218 30.3679 311.51 30.3679C312.044 30.3679 312.52 30.4957 312.938 30.7514C313.358 31.0043 313.688 31.3509 313.926 31.7912C314.168 32.2315 314.289 32.7344 314.289 33.2997C314.289 33.8565 314.164 34.3537 313.914 34.7912C313.667 35.2259 313.326 35.5696 312.891 35.8224C312.456 36.0724 311.962 36.1974 311.408 36.1974ZM318.828 36.1974C318.186 36.1974 317.639 36.0227 317.188 35.6733C316.736 35.321 316.391 34.8111 316.152 34.1435C315.913 33.473 315.794 32.6634 315.794 31.7145C315.794 30.7713 315.913 29.9659 316.152 29.2983C316.393 28.6278 316.74 28.1165 317.192 27.7642C317.646 27.4091 318.192 27.2315 318.828 27.2315C319.464 27.2315 320.009 27.4091 320.46 27.7642C320.915 28.1165 321.261 28.6278 321.5 29.2983C321.741 29.9659 321.862 30.7713 321.862 31.7145C321.862 32.6634 321.743 33.473 321.504 34.1435C321.266 34.8111 320.92 35.321 320.469 35.6733C320.017 36.0227 319.47 36.1974 318.828 36.1974ZM318.828 35.2599C319.464 35.2599 319.959 34.9531 320.311 34.3395C320.663 33.7259 320.839 32.8509 320.839 31.7145C320.839 30.9588 320.759 30.3153 320.597 29.7841C320.438 29.2528 320.207 28.848 319.906 28.5696C319.608 28.2912 319.249 28.152 318.828 28.152C318.197 28.152 317.705 28.4631 317.349 29.0852C316.994 29.7045 316.817 30.581 316.817 31.7145C316.817 32.4702 316.896 33.1122 317.055 33.6406C317.214 34.169 317.443 34.571 317.741 34.8466C318.043 35.1222 318.405 35.2599 318.828 35.2599Z" fill="black" fill-opacity="0.7"/>
<path d="M347.372 27.3509V36.0781H346.315V28.4588H346.264L344.133 29.8736V28.7997L346.315 27.3509H347.372ZM350.155 36.0781L354.058 28.3565V28.2884H349.558V27.3509H355.149V28.3395L351.263 36.0781H350.155ZM359.347 36.1974C358.847 36.1974 358.397 36.098 357.997 35.8991C357.596 35.7003 357.275 35.4276 357.034 35.081C356.792 34.7344 356.66 34.3395 356.637 33.8963H357.66C357.7 34.2912 357.879 34.6179 358.197 34.8764C358.518 35.1321 358.901 35.2599 359.347 35.2599C359.705 35.2599 360.024 35.1761 360.302 35.0085C360.583 34.8409 360.803 34.6108 360.963 34.3182C361.124 34.0227 361.205 33.6889 361.205 33.3168C361.205 32.9361 361.122 32.5966 360.954 32.2983C360.789 31.9972 360.562 31.7599 360.272 31.5866C359.982 31.4134 359.651 31.3253 359.279 31.3224C359.012 31.3196 358.738 31.3608 358.457 31.446C358.176 31.5284 357.944 31.6349 357.762 31.7656L356.774 31.6463L357.302 27.3509H361.836V28.2884H358.188L357.882 30.8622H357.933C358.112 30.7202 358.336 30.6023 358.606 30.5085C358.876 30.4148 359.157 30.3679 359.45 30.3679C359.984 30.3679 360.46 30.4957 360.877 30.7514C361.298 31.0043 361.627 31.3509 361.866 31.7912C362.107 32.2315 362.228 32.7344 362.228 33.2997C362.228 33.8565 362.103 34.3537 361.853 34.7912C361.606 35.2259 361.265 35.5696 360.83 35.8224C360.396 36.0724 359.901 36.1974 359.347 36.1974Z" fill="black" fill-opacity="0.7"/>
<path d="M384.503 36.0781V35.3111L387.384 32.1577C387.722 31.7884 388 31.4673 388.219 31.1946C388.438 30.919 388.6 30.6605 388.705 30.419C388.813 30.1747 388.867 29.919 388.867 29.652C388.867 29.3452 388.793 29.0795 388.645 28.8551C388.5 28.6307 388.301 28.4574 388.048 28.3352C387.796 28.2131 387.512 28.152 387.196 28.152C386.861 28.152 386.568 28.2216 386.318 28.3608C386.071 28.4972 385.879 28.6889 385.743 28.9361C385.61 29.1832 385.543 29.473 385.543 29.8054H384.537C384.537 29.294 384.655 28.8452 384.891 28.4588C385.127 28.0724 385.448 27.7713 385.854 27.5554C386.263 27.3395 386.722 27.2315 387.23 27.2315C387.742 27.2315 388.195 27.3395 388.59 27.5554C388.985 27.7713 389.294 28.0625 389.519 28.429C389.743 28.7955 389.855 29.2031 389.855 29.652C389.855 29.973 389.797 30.2869 389.681 30.5938C389.567 30.8977 389.368 31.2372 389.084 31.6122C388.803 31.9844 388.412 32.4389 387.912 32.9759L385.952 35.0724V35.1406H390.009V36.0781H384.503ZM394.615 36.1974C393.973 36.1974 393.426 36.0227 392.975 35.6733C392.523 35.321 392.178 34.8111 391.939 34.1435C391.7 33.473 391.581 32.6634 391.581 31.7145C391.581 30.7713 391.7 29.9659 391.939 29.2983C392.181 28.6278 392.527 28.1165 392.979 27.7642C393.433 27.4091 393.979 27.2315 394.615 27.2315C395.252 27.2315 395.796 27.4091 396.247 27.7642C396.702 28.1165 397.048 28.6278 397.287 29.2983C397.529 29.9659 397.649 30.7713 397.649 31.7145C397.649 32.6634 397.53 33.473 397.291 34.1435C397.053 34.8111 396.708 35.321 396.256 35.6733C395.804 36.0227 395.257 36.1974 394.615 36.1974ZM394.615 35.2599C395.252 35.2599 395.746 34.9531 396.098 34.3395C396.45 33.7259 396.627 32.8509 396.627 31.7145C396.627 30.9588 396.546 30.3153 396.384 29.7841C396.225 29.2528 395.994 28.848 395.693 28.5696C395.395 28.2912 395.036 28.152 394.615 28.152C393.985 28.152 393.492 28.4631 393.137 29.0852C392.781 29.7045 392.604 30.581 392.604 31.7145C392.604 32.4702 392.683 33.1122 392.843 33.6406C393.002 34.169 393.23 34.571 393.529 34.8466C393.83 35.1222 394.192 35.2599 394.615 35.2599ZM402.115 36.1974C401.473 36.1974 400.926 36.0227 400.475 35.6733C400.023 35.321 399.678 34.8111 399.439 34.1435C399.2 33.473 399.081 32.6634 399.081 31.7145C399.081 30.7713 399.2 29.9659 399.439 29.2983C399.681 28.6278 400.027 28.1165 400.479 27.7642C400.933 27.4091 401.479 27.2315 402.115 27.2315C402.752 27.2315 403.296 27.4091 403.747 27.7642C404.202 28.1165 404.548 28.6278 404.787 29.2983C405.029 29.9659 405.149 30.7713 405.149 31.7145C405.149 32.6634 405.03 33.473 404.791 34.1435C404.553 34.8111 404.208 35.321 403.756 35.6733C403.304 36.0227 402.757 36.1974 402.115 36.1974ZM402.115 35.2599C402.752 35.2599 403.246 34.9531 403.598 34.3395C403.95 33.7259 404.127 32.8509 404.127 31.7145C404.127 30.9588 404.046 30.3153 403.884 29.7841C403.725 29.2528 403.494 28.848 403.193 28.5696C402.895 28.2912 402.536 28.152 402.115 28.152C401.485 28.152 400.992 28.4631 400.637 29.0852C400.281 29.7045 400.104 30.581 400.104 31.7145C400.104 32.4702 400.183 33.1122 400.343 33.6406C400.502 34.169 400.73 34.571 401.029 34.8466C401.33 35.1222 401.692 35.2599 402.115 35.2599Z" fill="black" fill-opacity="0.7"/>
<path d="M427.704 36.0781V35.3111L430.585 32.1577C430.923 31.7884 431.201 31.4673 431.42 31.1946C431.639 30.919 431.801 30.6605 431.906 30.419C432.014 30.1747 432.068 29.919 432.068 29.652C432.068 29.3452 431.994 29.0795 431.846 28.8551C431.701 28.6307 431.502 28.4574 431.25 28.3352C430.997 28.2131 430.713 28.152 430.397 28.152C430.062 28.152 429.77 28.2216 429.52 28.3608C429.272 28.4972 429.081 28.6889 428.944 28.9361C428.811 29.1832 428.744 29.473 428.744 29.8054H427.738C427.738 29.294 427.856 28.8452 428.092 28.4588C428.328 28.0724 428.649 27.7713 429.055 27.5554C429.464 27.3395 429.923 27.2315 430.431 27.2315C430.943 27.2315 431.396 27.3395 431.791 27.5554C432.186 27.7713 432.495 28.0625 432.72 28.429C432.944 28.7955 433.056 29.2031 433.056 29.652C433.056 29.973 432.998 30.2869 432.882 30.5938C432.768 30.8977 432.569 31.2372 432.285 31.6122C432.004 31.9844 431.613 32.4389 431.113 32.9759L429.153 35.0724V35.1406H433.21V36.0781H427.704ZM434.97 36.0781V35.3111L437.85 32.1577C438.189 31.7884 438.467 31.4673 438.686 31.1946C438.904 30.919 439.066 30.6605 439.172 30.419C439.279 30.1747 439.333 29.919 439.333 29.652C439.333 29.3452 439.26 29.0795 439.112 28.8551C438.967 28.6307 438.768 28.4574 438.515 28.3352C438.262 28.2131 437.978 28.152 437.663 28.152C437.328 28.152 437.035 28.2216 436.785 28.3608C436.538 28.4972 436.346 28.6889 436.21 28.9361C436.076 29.1832 436.01 29.473 436.01 29.8054H435.004C435.004 29.294 435.122 28.8452 435.358 28.4588C435.593 28.0724 435.914 27.7713 436.321 27.5554C436.73 27.3395 437.189 27.2315 437.697 27.2315C438.208 27.2315 438.662 27.3395 439.056 27.5554C439.451 27.7713 439.761 28.0625 439.985 28.429C440.21 28.7955 440.322 29.2031 440.322 29.652C440.322 29.973 440.264 30.2869 440.147 30.5938C440.034 30.8977 439.835 31.2372 439.551 31.6122C439.27 31.9844 438.879 32.4389 438.379 32.9759L436.419 35.0724V35.1406H440.475V36.0781H434.97ZM444.963 36.1974C444.463 36.1974 444.012 36.098 443.612 35.8991C443.211 35.7003 442.89 35.4276 442.649 35.081C442.407 34.7344 442.275 34.3395 442.252 33.8963H443.275C443.315 34.2912 443.494 34.6179 443.812 34.8764C444.133 35.1321 444.517 35.2599 444.963 35.2599C445.321 35.2599 445.639 35.1761 445.917 35.0085C446.199 34.8409 446.419 34.6108 446.578 34.3182C446.74 34.0227 446.821 33.6889 446.821 33.3168C446.821 32.9361 446.737 32.5966 446.569 32.2983C446.404 31.9972 446.177 31.7599 445.887 31.5866C445.598 31.4134 445.267 31.3253 444.895 31.3224C444.627 31.3196 444.353 31.3608 444.072 31.446C443.791 31.5284 443.559 31.6349 443.377 31.7656L442.389 31.6463L442.917 27.3509H447.451V28.2884H443.804L443.497 30.8622H443.548C443.727 30.7202 443.951 30.6023 444.221 30.5085C444.491 30.4148 444.772 30.3679 445.065 30.3679C445.599 30.3679 446.075 30.4957 446.493 30.7514C446.913 31.0043 447.243 31.3509 447.481 31.7912C447.723 32.2315 447.843 32.7344 447.843 33.2997C447.843 33.8565 447.718 34.3537 447.468 34.7912C447.221 35.2259 446.88 35.5696 446.446 35.8224C446.011 36.0724 445.517 36.1974 444.963 36.1974Z" fill="black" fill-opacity="0.7"/>
<path d="M469.903 36.0781V35.3111L472.784 32.1577C473.122 31.7884 473.401 31.4673 473.619 31.1946C473.838 30.919 474 30.6605 474.105 30.419C474.213 30.1747 474.267 29.919 474.267 29.652C474.267 29.3452 474.193 29.0795 474.045 28.8551C473.901 28.6307 473.702 28.4574 473.449 28.3352C473.196 28.2131 472.912 28.152 472.597 28.152C472.261 28.152 471.969 28.2216 471.719 28.3608C471.472 28.4972 471.28 28.6889 471.143 28.9361C471.01 29.1832 470.943 29.473 470.943 29.8054H469.938C469.938 29.294 470.055 28.8452 470.291 28.4588C470.527 28.0724 470.848 27.7713 471.254 27.5554C471.663 27.3395 472.122 27.2315 472.631 27.2315C473.142 27.2315 473.595 27.3395 473.99 27.5554C474.385 27.7713 474.695 28.0625 474.919 28.429C475.143 28.7955 475.256 29.2031 475.256 29.652C475.256 29.973 475.197 30.2869 475.081 30.5938C474.967 30.8977 474.768 31.2372 474.484 31.6122C474.203 31.9844 473.812 32.4389 473.312 32.9759L471.352 35.0724V35.1406H475.409V36.0781H469.903ZM479.896 36.1974C479.396 36.1974 478.946 36.098 478.545 35.8991C478.145 35.7003 477.824 35.4276 477.582 35.081C477.341 34.7344 477.209 34.3395 477.186 33.8963H478.209C478.249 34.2912 478.428 34.6179 478.746 34.8764C479.067 35.1321 479.45 35.2599 479.896 35.2599C480.254 35.2599 480.572 35.1761 480.851 35.0085C481.132 34.8409 481.352 34.6108 481.511 34.3182C481.673 34.0227 481.754 33.6889 481.754 33.3168C481.754 32.9361 481.67 32.5966 481.503 32.2983C481.338 31.9972 481.111 31.7599 480.821 31.5866C480.531 31.4134 480.2 31.3253 479.828 31.3224C479.561 31.3196 479.287 31.3608 479.006 31.446C478.724 31.5284 478.493 31.6349 478.311 31.7656L477.322 31.6463L477.851 27.3509H482.385V28.2884H478.737L478.43 30.8622H478.482C478.661 30.7202 478.885 30.6023 479.155 30.5085C479.425 30.4148 479.706 30.3679 479.999 30.3679C480.533 30.3679 481.009 30.4957 481.426 30.7514C481.847 31.0043 482.176 31.3509 482.415 31.7912C482.656 32.2315 482.777 32.7344 482.777 33.2997C482.777 33.8565 482.652 34.3537 482.402 34.7912C482.155 35.2259 481.814 35.5696 481.379 35.8224C480.945 36.0724 480.45 36.1974 479.896 36.1974ZM487.316 36.1974C486.674 36.1974 486.127 36.0227 485.676 35.6733C485.224 35.321 484.879 34.8111 484.64 34.1435C484.402 33.473 484.282 32.6634 484.282 31.7145C484.282 30.7713 484.402 29.9659 484.64 29.2983C484.882 28.6278 485.228 28.1165 485.68 27.7642C486.135 27.4091 486.68 27.2315 487.316 27.2315C487.953 27.2315 488.497 27.4091 488.949 27.7642C489.403 28.1165 489.75 28.6278 489.988 29.2983C490.23 29.9659 490.35 30.7713 490.35 31.7145C490.35 32.6634 490.231 33.473 489.993 34.1435C489.754 34.8111 489.409 35.321 488.957 35.6733C488.505 36.0227 487.958 36.1974 487.316 36.1974ZM487.316 35.2599C487.953 35.2599 488.447 34.9531 488.799 34.3395C489.152 33.7259 489.328 32.8509 489.328 31.7145C489.328 30.9588 489.247 30.3153 489.085 29.7841C488.926 29.2528 488.696 28.848 488.395 28.5696C488.096 28.2912 487.737 28.152 487.316 28.152C486.686 28.152 486.193 28.4631 485.838 29.0852C485.483 29.7045 485.305 30.581 485.305 31.7145C485.305 32.4702 485.385 33.1122 485.544 33.6406C485.703 34.169 485.931 34.571 486.23 34.8466C486.531 35.1222 486.893 35.2599 487.316 35.2599Z" fill="black" fill-opacity="0.7"/>
<path d="M18.5795 58.1692V57.2317H25.125V58.1692H22.3807V65.959H21.3239V58.1692H18.5795ZM28.4148 66.0953C27.7841 66.0953 27.2401 65.9561 26.7827 65.6777C26.3281 65.3965 25.9773 65.0044 25.7301 64.5016C25.4858 63.9959 25.3636 63.4078 25.3636 62.7374C25.3636 62.0669 25.4858 61.476 25.7301 60.9647C25.9773 60.4505 26.321 60.0499 26.7614 59.763C27.2045 59.4732 27.7216 59.3283 28.3125 59.3283C28.6534 59.3283 28.9901 59.3851 29.3224 59.4988C29.6548 59.6124 29.9574 59.7971 30.2301 60.0527C30.5028 60.3056 30.7202 60.6408 30.8821 61.0584C31.044 61.476 31.125 61.9902 31.125 62.601V63.0272H26.0795V62.1578H30.1023C30.1023 61.7885 30.0284 61.459 29.8807 61.1692C29.7358 60.8794 29.5284 60.6507 29.2585 60.4831C28.9915 60.3155 28.6761 60.2317 28.3125 60.2317C27.9119 60.2317 27.5653 60.3311 27.2727 60.53C26.983 60.726 26.7599 60.9817 26.6037 61.2971C26.4474 61.6124 26.3693 61.9505 26.3693 62.3113V62.8908C26.3693 63.3851 26.4545 63.8042 26.625 64.1479C26.7983 64.4888 27.0384 64.7488 27.3452 64.9277C27.652 65.1039 28.0085 65.1919 28.4148 65.1919C28.679 65.1919 28.9176 65.155 29.1307 65.0811C29.3466 65.0044 29.5327 64.8908 29.6889 64.7402C29.8452 64.5868 29.9659 64.3965 30.0511 64.1692L31.0227 64.4419C30.9205 64.7715 30.7486 65.0613 30.5071 65.3113C30.2656 65.5584 29.9673 65.7516 29.6122 65.8908C29.2571 66.0272 28.858 66.0953 28.4148 66.0953ZM35.3139 66.0953C34.7003 66.0953 34.1719 65.9505 33.7287 65.6607C33.2855 65.3709 32.9446 64.9718 32.706 64.4632C32.4673 63.9547 32.348 63.3738 32.348 62.7203C32.348 62.0556 32.4702 61.4689 32.7145 60.9604C32.9616 60.449 33.3054 60.0499 33.7457 59.763C34.1889 59.4732 34.706 59.3283 35.2969 59.3283C35.7571 59.3283 36.1719 59.4135 36.5412 59.584C36.9105 59.7544 37.2131 59.9931 37.4489 60.2999C37.6847 60.6067 37.831 60.9647 37.8878 61.3738H36.8821C36.8054 61.0755 36.6349 60.8113 36.3707 60.5811C36.1094 60.3482 35.7571 60.2317 35.3139 60.2317C34.9219 60.2317 34.5781 60.334 34.2827 60.5385C33.9901 60.7402 33.7614 61.0257 33.5966 61.3951C33.4347 61.7615 33.3537 62.1919 33.3537 62.6863C33.3537 63.1919 33.4332 63.6323 33.5923 64.0073C33.7543 64.3823 33.9815 64.6735 34.2741 64.8809C34.5696 65.0882 34.9162 65.1919 35.3139 65.1919C35.5753 65.1919 35.8125 65.1465 36.0256 65.0556C36.2386 64.9647 36.419 64.834 36.5668 64.6635C36.7145 64.4931 36.8196 64.2885 36.8821 64.0499H37.8878C37.831 64.4363 37.6903 64.7843 37.4659 65.0939C37.2443 65.4007 36.9503 65.6451 36.5838 65.8269C36.2202 66.0059 35.7969 66.0953 35.3139 66.0953ZM40.3636 62.0215V65.959H39.358V57.2317H40.3636V60.4363H40.4489C40.6023 60.0982 40.8324 59.8297 41.1392 59.6309C41.4489 59.4292 41.8608 59.3283 42.375 59.3283C42.821 59.3283 43.2116 59.4178 43.5469 59.5968C43.8821 59.7729 44.142 60.0442 44.3267 60.4107C44.5142 60.7743 44.608 61.2374 44.608 61.7999V65.959H43.6023V61.8681C43.6023 61.3482 43.4673 60.9462 43.1974 60.6621C42.9304 60.3752 42.5597 60.2317 42.0852 60.2317C41.7557 60.2317 41.4602 60.3013 41.1989 60.4405C40.9403 60.5797 40.7358 60.7828 40.5852 61.0499C40.4375 61.3169 40.3636 61.6408 40.3636 62.0215ZM47.4535 62.0215V65.959H46.4478V59.4135H47.4194V60.4363H47.5046C47.658 60.1039 47.891 59.8368 48.2035 59.6351C48.516 59.4306 48.9194 59.3283 49.4137 59.3283C49.8569 59.3283 50.2447 59.4192 50.5771 59.601C50.9094 59.78 51.168 60.0527 51.3526 60.4192C51.5373 60.7828 51.6296 61.2431 51.6296 61.7999V65.959H50.6239V61.8681C50.6239 61.3539 50.4904 60.9533 50.2234 60.6664C49.9563 60.3766 49.5898 60.2317 49.1239 60.2317C48.8029 60.2317 48.516 60.3013 48.2631 60.4405C48.0131 60.5797 47.8157 60.7828 47.6708 61.0499C47.5259 61.3169 47.4535 61.6408 47.4535 62.0215ZM56.1264 66.0953C55.5355 66.0953 55.017 65.9547 54.571 65.6735C54.1278 65.3922 53.7812 64.9988 53.5312 64.4931C53.2841 63.9874 53.1605 63.3965 53.1605 62.7203C53.1605 62.0385 53.2841 61.4434 53.5312 60.9348C53.7812 60.4263 54.1278 60.0314 54.571 59.7502C55.017 59.4689 55.5355 59.3283 56.1264 59.3283C56.7173 59.3283 57.2344 59.4689 57.6776 59.7502C58.1236 60.0314 58.4702 60.4263 58.7173 60.9348C58.9673 61.4434 59.0923 62.0385 59.0923 62.7203C59.0923 63.3965 58.9673 63.9874 58.7173 64.4931C58.4702 64.9988 58.1236 65.3922 57.6776 65.6735C57.2344 65.9547 56.7173 66.0953 56.1264 66.0953ZM56.1264 65.1919C56.5753 65.1919 56.9446 65.0769 57.2344 64.8468C57.5241 64.6167 57.7386 64.3141 57.8778 63.9391C58.017 63.5641 58.0866 63.1578 58.0866 62.7203C58.0866 62.2828 58.017 61.8752 57.8778 61.4973C57.7386 61.1195 57.5241 60.8141 57.2344 60.5811C56.9446 60.3482 56.5753 60.2317 56.1264 60.2317C55.6776 60.2317 55.3082 60.3482 55.0185 60.5811C54.7287 60.8141 54.5142 61.1195 54.375 61.4973C54.2358 61.8752 54.1662 62.2828 54.1662 62.7203C54.1662 63.1578 54.2358 63.5641 54.375 63.9391C54.5142 64.3141 54.7287 64.6167 55.0185 64.8468C55.3082 65.0769 55.6776 65.1919 56.1264 65.1919ZM61.6332 57.2317V65.959H60.6275V57.2317H61.6332ZM66.1342 66.0953C65.5433 66.0953 65.0249 65.9547 64.5788 65.6735C64.1357 65.3922 63.7891 64.9988 63.5391 64.4931C63.2919 63.9874 63.1683 63.3965 63.1683 62.7203C63.1683 62.0385 63.2919 61.4434 63.5391 60.9348C63.7891 60.4263 64.1357 60.0314 64.5788 59.7502C65.0249 59.4689 65.5433 59.3283 66.1342 59.3283C66.7251 59.3283 67.2422 59.4689 67.6854 59.7502C68.1314 60.0314 68.478 60.4263 68.7251 60.9348C68.9751 61.4434 69.1001 62.0385 69.1001 62.7203C69.1001 63.3965 68.9751 63.9874 68.7251 64.4931C68.478 64.9988 68.1314 65.3922 67.6854 65.6735C67.2422 65.9547 66.7251 66.0953 66.1342 66.0953ZM66.1342 65.1919C66.5831 65.1919 66.9524 65.0769 67.2422 64.8468C67.532 64.6167 67.7464 64.3141 67.8857 63.9391C68.0249 63.5641 68.0945 63.1578 68.0945 62.7203C68.0945 62.2828 68.0249 61.8752 67.8857 61.4973C67.7464 61.1195 67.532 60.8141 67.2422 60.5811C66.9524 60.3482 66.5831 60.2317 66.1342 60.2317C65.6854 60.2317 65.3161 60.3482 65.0263 60.5811C64.7365 60.8141 64.522 61.1195 64.3828 61.4973C64.2436 61.8752 64.174 62.2828 64.174 62.7203C64.174 63.1578 64.2436 63.5641 64.3828 63.9391C64.522 64.3141 64.7365 64.6167 65.0263 64.8468C65.3161 65.0769 65.6854 65.1919 66.1342 65.1919ZM73.2773 68.5499C72.7915 68.5499 72.3739 68.4874 72.0245 68.3624C71.6751 68.2402 71.3839 68.0783 71.1509 67.8766C70.9208 67.6777 70.7376 67.4647 70.6012 67.2374L71.4023 66.6749C71.4933 66.7942 71.6083 66.9306 71.7475 67.084C71.8867 67.2402 72.0771 67.3752 72.3185 67.4888C72.5629 67.6053 72.8825 67.6635 73.2773 67.6635C73.8058 67.6635 74.2418 67.5357 74.5856 67.28C74.9293 67.0243 75.1012 66.6238 75.1012 66.0783V64.7488H75.016C74.9421 64.8681 74.837 65.0158 74.7006 65.1919C74.5671 65.3652 74.3739 65.5201 74.1211 65.6564C73.8711 65.79 73.533 65.8567 73.1069 65.8567C72.5785 65.8567 72.104 65.7317 71.6836 65.4817C71.266 65.2317 70.935 64.8681 70.6907 64.3908C70.4492 63.9135 70.3285 63.334 70.3285 62.6522C70.3285 61.9817 70.4464 61.3979 70.6822 60.9007C70.918 60.4007 71.2461 60.0144 71.6665 59.7417C72.087 59.4661 72.5728 59.3283 73.1239 59.3283C73.5501 59.3283 73.8881 59.3993 74.1381 59.5414C74.391 59.6806 74.5842 59.8397 74.7177 60.0186C74.854 60.1948 74.9592 60.3397 75.033 60.4533H75.1353V59.4135H76.1069V66.1465C76.1069 66.709 75.979 67.1664 75.7234 67.5186C75.4705 67.8738 75.1296 68.1337 74.7006 68.2985C74.2745 68.4661 73.8001 68.5499 73.2773 68.5499ZM73.2433 64.9533C73.6467 64.9533 73.9876 64.861 74.266 64.6763C74.5444 64.4917 74.756 64.226 74.9009 63.8794C75.0458 63.5328 75.1183 63.1181 75.1183 62.6351C75.1183 62.1635 75.0472 61.7473 74.9052 61.3865C74.7631 61.0257 74.5529 60.7431 74.2745 60.5385C73.9961 60.334 73.6523 60.2317 73.2433 60.2317C72.8171 60.2317 72.462 60.3397 72.1779 60.5556C71.8967 60.7715 71.685 61.0613 71.543 61.4249C71.4038 61.7885 71.3342 62.1919 71.3342 62.6351C71.3342 63.0897 71.4052 63.4917 71.5472 63.8411C71.6921 64.1877 71.9052 64.4604 72.1864 64.6593C72.4705 64.8553 72.8228 64.9533 73.2433 64.9533ZM78.5955 68.4135C78.4251 68.4135 78.2731 68.3993 78.1396 68.3709C78.006 68.3453 77.9137 68.3198 77.8626 68.2942L78.1183 67.4078C78.3626 67.4703 78.5785 67.4931 78.766 67.476C78.9535 67.459 79.1197 67.3752 79.2646 67.2246C79.4123 67.0769 79.5472 66.8368 79.6694 66.5044L79.8569 65.9931L77.4364 59.4135H78.5273L80.3342 64.6294H80.4023L82.2092 59.4135H83.3001L80.5217 66.9135C80.3967 67.2516 80.2418 67.5314 80.0572 67.753C79.8725 67.9775 79.658 68.1436 79.4137 68.2516C79.1722 68.3596 78.8995 68.4135 78.5955 68.4135Z" fill="black" fill-opacity="0.7"/>
<path d="M28.0795 104.721H27.0227C26.9602 104.417 26.8509 104.15 26.6946 103.92C26.5412 103.689 26.3537 103.496 26.1321 103.34C25.9134 103.181 25.6705 103.062 25.4034 102.982C25.1364 102.903 24.858 102.863 24.5682 102.863C24.0398 102.863 23.5611 102.996 23.1321 103.263C22.706 103.53 22.3665 103.924 22.1136 104.444C21.8636 104.964 21.7386 105.601 21.7386 106.357C21.7386 107.113 21.8636 107.751 22.1136 108.27C22.3665 108.79 22.706 109.184 23.1321 109.451C23.5611 109.718 24.0398 109.851 24.5682 109.851C24.858 109.851 25.1364 109.812 25.4034 109.732C25.6705 109.653 25.9134 109.535 26.1321 109.378C26.3537 109.219 26.5412 109.025 26.6946 108.795C26.8509 108.562 26.9602 108.295 27.0227 107.993H28.0795C28 108.439 27.8551 108.839 27.6449 109.191C27.4347 109.543 27.1733 109.843 26.8608 110.09C26.5483 110.334 26.1974 110.52 25.8082 110.648C25.4219 110.776 25.0085 110.84 24.5682 110.84C23.8239 110.84 23.1619 110.658 22.5824 110.295C22.0028 109.931 21.5469 109.414 21.2145 108.743C20.8821 108.073 20.7159 107.278 20.7159 106.357C20.7159 105.437 20.8821 104.641 21.2145 103.971C21.5469 103.3 22.0028 102.783 22.5824 102.42C23.1619 102.056 23.8239 101.874 24.5682 101.874C25.0085 101.874 25.4219 101.938 25.8082 102.066C26.1974 102.194 26.5483 102.381 26.8608 102.628C27.1733 102.873 27.4347 103.171 27.6449 103.523C27.8551 103.873 28 104.272 28.0795 104.721ZM31.5771 110.874C31.1623 110.874 30.7859 110.796 30.4478 110.64C30.1097 110.481 29.8413 110.252 29.6424 109.954C29.4435 109.653 29.3441 109.289 29.3441 108.863C29.3441 108.488 29.418 108.184 29.5657 107.951C29.7134 107.715 29.9109 107.53 30.158 107.397C30.4052 107.263 30.6779 107.164 30.9762 107.099C31.2773 107.03 31.5799 106.976 31.8839 106.937C32.2816 106.885 32.604 106.847 32.8512 106.822C33.1012 106.793 33.283 106.746 33.3967 106.681C33.5131 106.616 33.5714 106.502 33.5714 106.34V106.306C33.5714 105.885 33.4563 105.559 33.2262 105.326C32.9989 105.093 32.6538 104.976 32.1907 104.976C31.7106 104.976 31.3342 105.081 31.0614 105.292C30.7887 105.502 30.5969 105.726 30.4862 105.965L29.5316 105.624C29.7021 105.226 29.9293 104.917 30.2134 104.695C30.5004 104.471 30.8129 104.314 31.1509 104.226C31.4918 104.135 31.8271 104.09 32.1566 104.09C32.3668 104.09 32.6083 104.116 32.881 104.167C33.1566 104.215 33.4222 104.316 33.6779 104.469C33.9364 104.623 34.1509 104.854 34.3214 105.164C34.4918 105.474 34.5771 105.888 34.5771 106.408V110.721H33.5714V109.834H33.5202C33.4521 109.976 33.3384 110.128 33.1793 110.29C33.0202 110.452 32.8086 110.59 32.5444 110.704C32.2802 110.817 31.9577 110.874 31.5771 110.874ZM31.7305 109.971C32.1282 109.971 32.4634 109.893 32.7362 109.736C33.0117 109.58 33.2191 109.378 33.3583 109.131C33.5004 108.884 33.5714 108.624 33.5714 108.351V107.431C33.5288 107.482 33.435 107.529 33.2901 107.572C33.1481 107.611 32.9833 107.647 32.7958 107.678C32.6112 107.706 32.4308 107.732 32.2546 107.755C32.0813 107.775 31.9407 107.792 31.8327 107.806C31.5714 107.84 31.3271 107.895 31.0998 107.972C30.8754 108.046 30.6935 108.158 30.5543 108.309C30.418 108.456 30.3498 108.658 30.3498 108.914C30.3498 109.263 30.479 109.528 30.7376 109.706C30.9989 109.883 31.3299 109.971 31.7305 109.971ZM36.4126 110.721V104.175H37.3842V105.164H37.4524C37.5717 104.84 37.7876 104.577 38.1001 104.376C38.4126 104.174 38.7649 104.073 39.157 104.073C39.2308 104.073 39.3232 104.074 39.4339 104.077C39.5447 104.08 39.6286 104.084 39.6854 104.09V105.113C39.6513 105.104 39.5732 105.091 39.451 105.074C39.3317 105.055 39.2053 105.045 39.0717 105.045C38.7536 105.045 38.4695 105.111 38.2195 105.245C37.9723 105.376 37.7763 105.557 37.6314 105.79C37.4893 106.02 37.4183 106.283 37.4183 106.579V110.721H36.4126ZM44.3888 110.721V101.993H47.44C48.0479 101.993 48.5494 102.099 48.9442 102.309C49.3391 102.516 49.6332 102.796 49.8263 103.148C50.0195 103.498 50.1161 103.885 50.1161 104.312C50.1161 104.687 50.0494 104.996 49.9158 105.241C49.7852 105.485 49.6119 105.678 49.396 105.82C49.1829 105.962 48.9513 106.067 48.7013 106.135V106.221C48.9684 106.238 49.2369 106.331 49.5067 106.502C49.7766 106.672 50.0025 106.917 50.1843 107.235C50.3661 107.553 50.457 107.942 50.457 108.403C50.457 108.84 50.3576 109.233 50.1587 109.583C49.9599 109.932 49.646 110.209 49.217 110.414C48.788 110.618 48.2298 110.721 47.5423 110.721H44.3888ZM45.4457 109.783H47.5423C48.2326 109.783 48.7227 109.65 49.0124 109.383C49.305 109.113 49.4513 108.786 49.4513 108.403C49.4513 108.107 49.3761 107.834 49.2255 107.584C49.0749 107.331 48.8604 107.13 48.582 106.979C48.3036 106.826 47.9741 106.749 47.5934 106.749H45.4457V109.783ZM45.4457 105.829H47.4059C47.7241 105.829 48.011 105.766 48.2667 105.641C48.5252 105.516 48.7298 105.34 48.8803 105.113C49.0337 104.885 49.1104 104.618 49.1104 104.312C49.1104 103.928 48.9769 103.603 48.7099 103.336C48.4428 103.066 48.0195 102.931 47.44 102.931H45.4457V105.829ZM52.0572 110.721V104.175H53.0288V105.164H53.0969C53.2163 104.84 53.4322 104.577 53.7447 104.376C54.0572 104.174 54.4094 104.073 54.8015 104.073C54.8754 104.073 54.9677 104.074 55.0785 104.077C55.1893 104.08 55.2731 104.084 55.3299 104.09V105.113C55.2958 105.104 55.2177 105.091 55.0955 105.074C54.9762 105.055 54.8498 105.045 54.7163 105.045C54.3981 105.045 54.114 105.111 53.864 105.245C53.6168 105.376 53.4208 105.557 53.2759 105.79C53.1339 106.02 53.0629 106.283 53.0629 106.579V110.721H52.0572ZM58.4482 110.874C58.0334 110.874 57.657 110.796 57.3189 110.64C56.9808 110.481 56.7124 110.252 56.5135 109.954C56.3146 109.653 56.2152 109.289 56.2152 108.863C56.2152 108.488 56.2891 108.184 56.4368 107.951C56.5845 107.715 56.782 107.53 57.0291 107.397C57.2763 107.263 57.549 107.164 57.8473 107.099C58.1484 107.03 58.451 106.976 58.755 106.937C59.1527 106.885 59.4751 106.847 59.7223 106.822C59.9723 106.793 60.1541 106.746 60.2678 106.681C60.3842 106.616 60.4425 106.502 60.4425 106.34V106.306C60.4425 105.885 60.3274 105.559 60.0973 105.326C59.87 105.093 59.5249 104.976 59.0618 104.976C58.5817 104.976 58.2053 105.081 57.9325 105.292C57.6598 105.502 57.468 105.726 57.3572 105.965L56.4027 105.624C56.5732 105.226 56.8004 104.917 57.0845 104.695C57.3714 104.471 57.6839 104.314 58.022 104.226C58.3629 104.135 58.6982 104.09 59.0277 104.09C59.2379 104.09 59.4794 104.116 59.7521 104.167C60.0277 104.215 60.2933 104.316 60.549 104.469C60.8075 104.623 61.022 104.854 61.1925 105.164C61.3629 105.474 61.4482 105.888 61.4482 106.408V110.721H60.4425V109.834H60.3913C60.3232 109.976 60.2095 110.128 60.0504 110.29C59.8913 110.452 59.6797 110.59 59.4155 110.704C59.1513 110.817 58.8288 110.874 58.4482 110.874ZM58.6016 109.971C58.9993 109.971 59.3345 109.893 59.6072 109.736C59.8828 109.58 60.0902 109.378 60.2294 109.131C60.3714 108.884 60.4425 108.624 60.4425 108.351V107.431C60.3999 107.482 60.3061 107.529 60.1612 107.572C60.0192 107.611 59.8544 107.647 59.6669 107.678C59.4822 107.706 59.3018 107.732 59.1257 107.755C58.9524 107.775 58.8118 107.792 58.7038 107.806C58.4425 107.84 58.1982 107.895 57.9709 107.972C57.7464 108.046 57.5646 108.158 57.4254 108.309C57.2891 108.456 57.2209 108.658 57.2209 108.914C57.2209 109.263 57.3501 109.528 57.6087 109.706C57.87 109.883 58.201 109.971 58.6016 109.971ZM64.2894 106.783V110.721H63.2837V104.175H64.2553V105.198H64.3406C64.494 104.866 64.7269 104.599 65.0394 104.397C65.3519 104.192 65.7553 104.09 66.2496 104.09C66.6928 104.09 67.0806 104.181 67.413 104.363C67.7454 104.542 68.0039 104.814 68.1886 105.181C68.3732 105.545 68.4656 106.005 68.4656 106.562V110.721H67.4599V106.63C67.4599 106.116 67.3263 105.715 67.0593 105.428C66.7923 105.138 66.4258 104.993 65.9599 104.993C65.6388 104.993 65.3519 105.063 65.0991 105.202C64.8491 105.341 64.6516 105.545 64.5067 105.812C64.3619 106.079 64.2894 106.403 64.2894 106.783ZM72.7749 110.857C72.2294 110.857 71.7479 110.719 71.3303 110.444C70.9126 110.165 70.5859 109.773 70.3501 109.268C70.1143 108.759 69.9964 108.158 69.9964 107.465C69.9964 106.778 70.1143 106.181 70.3501 105.675C70.5859 105.17 70.9141 104.779 71.3345 104.503C71.755 104.228 72.2408 104.09 72.7919 104.09C73.218 104.09 73.5547 104.161 73.8018 104.303C74.0518 104.442 74.2422 104.601 74.3729 104.78C74.5064 104.956 74.6101 105.101 74.6839 105.215H74.7692V101.993H75.7749V110.721H74.8033V109.715H74.6839C74.6101 109.834 74.505 109.985 74.3686 110.167C74.2322 110.346 74.0376 110.506 73.7848 110.648C73.532 110.787 73.1953 110.857 72.7749 110.857ZM72.9112 109.954C73.3146 109.954 73.6555 109.849 73.9339 109.638C74.2124 109.425 74.424 109.131 74.5689 108.756C74.7138 108.378 74.7862 107.942 74.7862 107.448C74.7862 106.959 74.7152 106.532 74.5732 106.165C74.4311 105.796 74.2209 105.509 73.9425 105.305C73.6641 105.097 73.3203 104.993 72.9112 104.993C72.4851 104.993 72.13 105.103 71.8459 105.322C71.5646 105.537 71.353 105.831 71.2109 106.204C71.0717 106.573 71.0021 106.988 71.0021 107.448C71.0021 107.914 71.0732 108.337 71.2152 108.718C71.3601 109.096 71.5732 109.397 71.8544 109.621C72.1385 109.843 72.4908 109.954 72.9112 109.954ZM82.3928 105.641L81.4893 105.897C81.4325 105.746 81.3487 105.6 81.2379 105.458C81.13 105.313 80.9822 105.194 80.7947 105.1C80.6072 105.006 80.3672 104.959 80.0746 104.959C79.674 104.959 79.3402 105.052 79.0732 105.236C78.8089 105.418 78.6768 105.65 78.6768 105.931C78.6768 106.181 78.7678 106.378 78.9496 106.523C79.1314 106.668 79.4155 106.789 79.8018 106.885L80.7734 107.124C81.3587 107.266 81.7947 107.483 82.0817 107.776C82.3686 108.066 82.5121 108.439 82.5121 108.897C82.5121 109.272 82.4041 109.607 82.1882 109.903C81.9751 110.198 81.6768 110.431 81.2933 110.601C80.9098 110.772 80.4638 110.857 79.9553 110.857C79.2876 110.857 78.7351 110.712 78.2976 110.422C77.8601 110.133 77.5831 109.709 77.4666 109.153L78.4212 108.914C78.5121 109.266 78.6839 109.53 78.9368 109.706C79.1925 109.883 79.5263 109.971 79.9382 109.971C80.407 109.971 80.7791 109.871 81.0547 109.672C81.3331 109.471 81.4723 109.229 81.4723 108.948C81.4723 108.721 81.3928 108.53 81.2337 108.377C81.0746 108.221 80.8303 108.104 80.5007 108.028L79.4098 107.772C78.8104 107.63 78.37 107.41 78.0888 107.111C77.8104 106.81 77.6712 106.434 77.6712 105.982C77.6712 105.613 77.7749 105.286 77.9822 105.002C78.1925 104.718 78.478 104.495 78.8388 104.333C79.2024 104.171 79.6143 104.09 80.0746 104.09C80.7223 104.09 81.2308 104.232 81.6001 104.516C81.9723 104.8 82.2365 105.175 82.3928 105.641Z" fill="black" fill-opacity="0.7"/>
<path d="M43.4148 155.482H42.3068L45.5114 146.755H46.6023L49.8068 155.482H48.6989L46.0909 148.136H46.0227L43.4148 155.482ZM43.8239 152.073H48.2898V153.011H43.8239V152.073ZM51.1001 155.482V148.937H52.1058V155.482H51.1001ZM51.6115 147.846C51.4155 147.846 51.2464 147.779 51.1044 147.646C50.9652 147.512 50.8956 147.352 50.8956 147.164C50.8956 146.977 50.9652 146.816 51.1044 146.683C51.2464 146.549 51.4155 146.482 51.6115 146.482C51.8075 146.482 51.9751 146.549 52.1143 146.683C52.2564 146.816 52.3274 146.977 52.3274 147.164C52.3274 147.352 52.2564 147.512 52.1143 147.646C51.9751 147.779 51.8075 147.846 51.6115 147.846ZM53.9478 155.482V148.937H54.9194V149.926H54.9876C55.1069 149.602 55.3228 149.339 55.6353 149.137C55.9478 148.936 56.3001 148.835 56.6921 148.835C56.766 148.835 56.8583 148.836 56.9691 148.839C57.0799 148.842 57.1637 148.846 57.2205 148.852V149.874C57.1864 149.866 57.1083 149.853 56.9862 149.836C56.8668 149.816 56.7404 149.806 56.6069 149.806C56.2887 149.806 56.0046 149.873 55.7546 150.007C55.5075 150.137 55.3114 150.319 55.1665 150.552C55.0245 150.782 54.9535 151.045 54.9535 151.34V155.482H53.9478ZM59.4183 146.755V155.482H58.4126V146.755H59.4183ZM61.2603 155.482V148.937H62.266V155.482H61.2603ZM61.7717 147.846C61.5756 147.846 61.4066 147.779 61.2646 147.646C61.1254 147.512 61.0558 147.352 61.0558 147.164C61.0558 146.977 61.1254 146.816 61.2646 146.683C61.4066 146.549 61.5756 146.482 61.7717 146.482C61.9677 146.482 62.1353 146.549 62.2745 146.683C62.4165 146.816 62.4876 146.977 62.4876 147.164C62.4876 147.352 62.4165 147.512 62.2745 147.646C62.1353 147.779 61.9677 147.846 61.7717 147.846ZM65.1136 151.545V155.482H64.108V148.937H65.0795V149.96H65.1648C65.3182 149.627 65.5511 149.36 65.8636 149.159C66.1761 148.954 66.5795 148.852 67.0739 148.852C67.517 148.852 67.9048 148.943 68.2372 149.124C68.5696 149.303 68.8281 149.576 69.0128 149.943C69.1974 150.306 69.2898 150.767 69.2898 151.323V155.482H68.2841V151.392C68.2841 150.877 68.1506 150.477 67.8835 150.19C67.6165 149.9 67.25 149.755 66.7841 149.755C66.4631 149.755 66.1761 149.825 65.9233 149.964C65.6733 150.103 65.4759 150.306 65.331 150.573C65.1861 150.84 65.1136 151.164 65.1136 151.545ZM73.8718 155.619C73.2411 155.619 72.6971 155.48 72.2397 155.201C71.7852 154.92 71.4343 154.528 71.1871 154.025C70.9428 153.519 70.8207 152.931 70.8207 152.261C70.8207 151.59 70.9428 150.999 71.1871 150.488C71.4343 149.974 71.7781 149.573 72.2184 149.286C72.6616 148.997 73.1786 148.852 73.7695 148.852C74.1104 148.852 74.4471 148.909 74.7795 149.022C75.1119 149.136 75.4144 149.32 75.6871 149.576C75.9599 149.829 76.1772 150.164 76.3391 150.582C76.5011 150.999 76.582 151.514 76.582 152.124V152.551H71.5366V151.681H75.5593C75.5593 151.312 75.4854 150.982 75.3377 150.693C75.1928 150.403 74.9854 150.174 74.7156 150.007C74.4485 149.839 74.1332 149.755 73.7695 149.755C73.369 149.755 73.0224 149.855 72.7298 150.053C72.44 150.249 72.217 150.505 72.0607 150.82C71.9045 151.136 71.8263 151.474 71.8263 151.835V152.414C71.8263 152.909 71.9116 153.328 72.082 153.671C72.2553 154.012 72.4954 154.272 72.8022 154.451C73.109 154.627 73.4656 154.715 73.8718 154.715C74.136 154.715 74.3746 154.678 74.5877 154.605C74.8036 154.528 74.9897 154.414 75.146 154.264C75.3022 154.11 75.4229 153.92 75.5082 153.693L76.4798 153.965C76.3775 154.295 76.2056 154.585 75.9641 154.835C75.7227 155.082 75.4244 155.275 75.0692 155.414C74.7141 155.551 74.315 155.619 73.8718 155.619ZM82.7482 150.403L81.8448 150.659C81.788 150.508 81.7042 150.362 81.5934 150.22C81.4854 150.075 81.3377 149.955 81.1502 149.862C80.9627 149.768 80.7227 149.721 80.43 149.721C80.0295 149.721 79.6957 149.813 79.4286 149.998C79.1644 150.18 79.0323 150.411 79.0323 150.693C79.0323 150.943 79.1232 151.14 79.305 151.285C79.4869 151.43 79.771 151.551 80.1573 151.647L81.1289 151.886C81.7141 152.028 82.1502 152.245 82.4371 152.538C82.7241 152.828 82.8675 153.201 82.8675 153.659C82.8675 154.034 82.7596 154.369 82.5437 154.664C82.3306 154.96 82.0323 155.193 81.6488 155.363C81.2653 155.534 80.8192 155.619 80.3107 155.619C79.6431 155.619 79.0906 155.474 78.6531 155.184C78.2156 154.894 77.9386 154.471 77.8221 153.914L78.7766 153.676C78.8675 154.028 79.0394 154.292 79.2923 154.468C79.5479 154.644 79.8817 154.732 80.2937 154.732C80.7624 154.732 81.1346 154.633 81.4102 154.434C81.6886 154.232 81.8278 153.991 81.8278 153.71C81.8278 153.482 81.7482 153.292 81.5891 153.139C81.43 152.982 81.1857 152.866 80.8562 152.789L79.7653 152.534C79.1658 152.392 78.7255 152.171 78.4442 151.873C78.1658 151.572 78.0266 151.195 78.0266 150.744C78.0266 150.374 78.1303 150.048 78.3377 149.764C78.5479 149.48 78.8335 149.257 79.1942 149.095C79.5579 148.933 79.9698 148.852 80.43 148.852C81.0778 148.852 81.5863 148.994 81.9556 149.278C82.3278 149.562 82.592 149.937 82.7482 150.403Z" fill="black" fill-opacity="0.7"/>
<path d="M45.0568 200.246V191.519H50.3239V192.456H46.1136V195.405H50.0511V196.343H46.1136V199.309H50.392V200.246H45.0568ZM53.098 196.309V200.246H52.0923V193.701H53.0639V194.723H53.1491C53.3026 194.391 53.5355 194.124 53.848 193.922C54.1605 193.718 54.5639 193.615 55.0582 193.615C55.5014 193.615 55.8892 193.706 56.2216 193.888C56.554 194.067 56.8125 194.34 56.9972 194.706C57.1818 195.07 57.2741 195.53 57.2741 196.087V200.246H56.2685V196.155C56.2685 195.641 56.1349 195.24 55.8679 194.953C55.6009 194.664 55.2344 194.519 54.7685 194.519C54.4474 194.519 54.1605 194.588 53.9077 194.728C53.6577 194.867 53.4602 195.07 53.3153 195.337C53.1705 195.604 53.098 195.928 53.098 196.309ZM61.8562 200.382C61.2255 200.382 60.6815 200.243 60.2241 199.965C59.7695 199.684 59.4187 199.292 59.1715 198.789C58.9272 198.283 58.805 197.695 58.805 197.025C58.805 196.354 58.9272 195.763 59.1715 195.252C59.4187 194.738 59.7624 194.337 60.2028 194.05C60.646 193.76 61.163 193.615 61.7539 193.615C62.0948 193.615 62.4315 193.672 62.7638 193.786C63.0962 193.9 63.3988 194.084 63.6715 194.34C63.9442 194.593 64.1616 194.928 64.3235 195.346C64.4854 195.763 64.5664 196.277 64.5664 196.888V197.314H59.521V196.445H63.5437C63.5437 196.076 63.4698 195.746 63.3221 195.456C63.1772 195.167 62.9698 194.938 62.6999 194.77C62.4329 194.603 62.1175 194.519 61.7539 194.519C61.3533 194.519 61.0067 194.618 60.7141 194.817C60.4244 195.013 60.2013 195.269 60.0451 195.584C59.8888 195.9 59.8107 196.238 59.8107 196.598V197.178C59.8107 197.672 59.896 198.091 60.0664 198.435C60.2397 198.776 60.4798 199.036 60.7866 199.215C61.0934 199.391 61.4499 199.479 61.8562 199.479C62.1204 199.479 62.359 199.442 62.5721 199.368C62.788 199.292 62.9741 199.178 63.1303 199.027C63.2866 198.874 63.4073 198.684 63.4925 198.456L64.4641 198.729C64.3619 199.059 64.19 199.348 63.9485 199.598C63.707 199.846 63.4087 200.039 63.0536 200.178C62.6985 200.314 62.2994 200.382 61.8562 200.382ZM66.0962 200.246V193.701H67.0678V194.689H67.136C67.2553 194.365 67.4712 194.103 67.7837 193.901C68.0962 193.699 68.4485 193.598 68.8406 193.598C68.9144 193.598 69.0067 193.6 69.1175 193.603C69.2283 193.605 69.3121 193.61 69.369 193.615V194.638C69.3349 194.63 69.2567 194.617 69.1346 194.6C69.0153 194.58 68.8888 194.57 68.7553 194.57C68.4371 194.57 68.1531 194.637 67.9031 194.77C67.6559 194.901 67.4599 195.083 67.315 195.316C67.1729 195.546 67.1019 195.809 67.1019 196.104V200.246H66.0962ZM73.0039 202.837C72.5181 202.837 72.1005 202.775 71.7511 202.65C71.4016 202.527 71.1104 202.365 70.8775 202.164C70.6474 201.965 70.4641 201.752 70.3278 201.525L71.1289 200.962C71.2198 201.081 71.3349 201.218 71.4741 201.371C71.6133 201.527 71.8036 201.662 72.0451 201.776C72.2894 201.892 72.609 201.951 73.0039 201.951C73.5323 201.951 73.9684 201.823 74.3121 201.567C74.6559 201.311 74.8278 200.911 74.8278 200.365V199.036H74.7425C74.6687 199.155 74.5636 199.303 74.4272 199.479C74.2937 199.652 74.1005 199.807 73.8477 199.944C73.5977 200.077 73.2596 200.144 72.8335 200.144C72.305 200.144 71.8306 200.019 71.4102 199.769C70.9925 199.519 70.6616 199.155 70.4173 198.678C70.1758 198.201 70.055 197.621 70.055 196.939C70.055 196.269 70.1729 195.685 70.4087 195.188C70.6445 194.688 70.9727 194.301 71.3931 194.029C71.8136 193.753 72.2994 193.615 72.8505 193.615C73.2766 193.615 73.6147 193.686 73.8647 193.828C74.1175 193.968 74.3107 194.127 74.4442 194.306C74.5806 194.482 74.6857 194.627 74.7596 194.74H74.8619V193.701H75.8335V200.434C75.8335 200.996 75.7056 201.453 75.4499 201.806C75.1971 202.161 74.8562 202.421 74.4272 202.586C74.0011 202.753 73.5266 202.837 73.0039 202.837ZM72.9698 199.24C73.3732 199.24 73.7141 199.148 73.9925 198.963C74.271 198.779 74.4826 198.513 74.6275 198.167C74.7724 197.82 74.8448 197.405 74.8448 196.922C74.8448 196.451 74.7738 196.034 74.6317 195.674C74.4897 195.313 74.2795 195.03 74.0011 194.826C73.7227 194.621 73.3789 194.519 72.9698 194.519C72.5437 194.519 72.1886 194.627 71.9045 194.843C71.6232 195.059 71.4116 195.348 71.2695 195.712C71.1303 196.076 71.0607 196.479 71.0607 196.922C71.0607 197.377 71.1317 197.779 71.2738 198.128C71.4187 198.475 71.6317 198.748 71.913 198.946C72.1971 199.142 72.5494 199.24 72.9698 199.24ZM78.3221 202.701C78.1516 202.701 77.9996 202.686 77.8661 202.658C77.7326 202.632 77.6403 202.607 77.5891 202.581L77.8448 201.695C78.0891 201.757 78.305 201.78 78.4925 201.763C78.68 201.746 78.8462 201.662 78.9911 201.512C79.1388 201.364 79.2738 201.124 79.396 200.792L79.5835 200.28L77.163 193.701H78.2539L80.0607 198.917H80.1289L81.9357 193.701H83.0266L80.2482 201.201C80.1232 201.539 79.9684 201.819 79.7837 202.04C79.5991 202.265 79.3846 202.431 79.1403 202.539C78.8988 202.647 78.6261 202.701 78.3221 202.701Z" fill="black" fill-opacity="0.7"/>
<path d="M18.5795 237.218V236.281H25.125V237.218H22.3807V245.008H21.3239V237.218H18.5795ZM28.4148 245.144C27.7841 245.144 27.2401 245.005 26.7827 244.727C26.3281 244.445 25.9773 244.053 25.7301 243.55C25.4858 243.045 25.3636 242.457 25.3636 241.786C25.3636 241.116 25.4858 240.525 25.7301 240.013C25.9773 239.499 26.321 239.099 26.7614 238.812C27.2045 238.522 27.7216 238.377 28.3125 238.377C28.6534 238.377 28.9901 238.434 29.3224 238.548C29.6548 238.661 29.9574 238.846 30.2301 239.102C30.5028 239.354 30.7202 239.69 30.8821 240.107C31.044 240.525 31.125 241.039 31.125 241.65V242.076H26.0795V241.207H30.1023C30.1023 240.837 30.0284 240.508 29.8807 240.218C29.7358 239.928 29.5284 239.7 29.2585 239.532C28.9915 239.364 28.6761 239.281 28.3125 239.281C27.9119 239.281 27.5653 239.38 27.2727 239.579C26.983 239.775 26.7599 240.031 26.6037 240.346C26.4474 240.661 26.3693 240.999 26.3693 241.36V241.94C26.3693 242.434 26.4545 242.853 26.625 243.197C26.7983 243.538 27.0384 243.798 27.3452 243.977C27.652 244.153 28.0085 244.241 28.4148 244.241C28.679 244.241 28.9176 244.204 29.1307 244.13C29.3466 244.053 29.5327 243.94 29.6889 243.789C29.8452 243.636 29.9659 243.445 30.0511 243.218L31.0227 243.491C30.9205 243.82 30.7486 244.11 30.5071 244.36C30.2656 244.607 29.9673 244.8 29.6122 244.94C29.2571 245.076 28.858 245.144 28.4148 245.144ZM35.3139 245.144C34.7003 245.144 34.1719 244.999 33.7287 244.71C33.2855 244.42 32.9446 244.021 32.706 243.512C32.4673 243.004 32.348 242.423 32.348 241.769C32.348 241.104 32.4702 240.518 32.7145 240.009C32.9616 239.498 33.3054 239.099 33.7457 238.812C34.1889 238.522 34.706 238.377 35.2969 238.377C35.7571 238.377 36.1719 238.462 36.5412 238.633C36.9105 238.803 37.2131 239.042 37.4489 239.349C37.6847 239.656 37.831 240.013 37.8878 240.423H36.8821C36.8054 240.124 36.6349 239.86 36.3707 239.63C36.1094 239.397 35.7571 239.281 35.3139 239.281C34.9219 239.281 34.5781 239.383 34.2827 239.587C33.9901 239.789 33.7614 240.075 33.5966 240.444C33.4347 240.81 33.3537 241.241 33.3537 241.735C33.3537 242.241 33.4332 242.681 33.5923 243.056C33.7543 243.431 33.9815 243.722 34.2741 243.93C34.5696 244.137 34.9162 244.241 35.3139 244.241C35.5753 244.241 35.8125 244.195 36.0256 244.104C36.2386 244.013 36.419 243.883 36.5668 243.712C36.7145 243.542 36.8196 243.337 36.8821 243.099H37.8878C37.831 243.485 37.6903 243.833 37.4659 244.143C37.2443 244.45 36.9503 244.694 36.5838 244.876C36.2202 245.055 35.7969 245.144 35.3139 245.144ZM40.3636 241.07V245.008H39.358V236.281H40.3636V239.485H40.4489C40.6023 239.147 40.8324 238.879 41.1392 238.68C41.4489 238.478 41.8608 238.377 42.375 238.377C42.821 238.377 43.2116 238.467 43.5469 238.646C43.8821 238.822 44.142 239.093 44.3267 239.46C44.5142 239.823 44.608 240.286 44.608 240.849V245.008H43.6023V240.917C43.6023 240.397 43.4673 239.995 43.1974 239.711C42.9304 239.424 42.5597 239.281 42.0852 239.281C41.7557 239.281 41.4602 239.35 41.1989 239.489C40.9403 239.629 40.7358 239.832 40.5852 240.099C40.4375 240.366 40.3636 240.69 40.3636 241.07ZM47.4535 241.07V245.008H46.4478V238.462H47.4194V239.485H47.5046C47.658 239.153 47.891 238.886 48.2035 238.684C48.516 238.479 48.9194 238.377 49.4137 238.377C49.8569 238.377 50.2447 238.468 50.5771 238.65C50.9094 238.829 51.168 239.102 51.3526 239.468C51.5373 239.832 51.6296 240.292 51.6296 240.849V245.008H50.6239V240.917C50.6239 240.403 50.4904 240.002 50.2234 239.715C49.9563 239.425 49.5898 239.281 49.1239 239.281C48.8029 239.281 48.516 239.35 48.2631 239.489C48.0131 239.629 47.8157 239.832 47.6708 240.099C47.5259 240.366 47.4535 240.69 47.4535 241.07ZM56.1264 245.144C55.5355 245.144 55.017 245.004 54.571 244.722C54.1278 244.441 53.7812 244.048 53.5312 243.542C53.2841 243.036 53.1605 242.445 53.1605 241.769C53.1605 241.087 53.2841 240.492 53.5312 239.984C53.7812 239.475 54.1278 239.08 54.571 238.799C55.017 238.518 55.5355 238.377 56.1264 238.377C56.7173 238.377 57.2344 238.518 57.6776 238.799C58.1236 239.08 58.4702 239.475 58.7173 239.984C58.9673 240.492 59.0923 241.087 59.0923 241.769C59.0923 242.445 58.9673 243.036 58.7173 243.542C58.4702 244.048 58.1236 244.441 57.6776 244.722C57.2344 245.004 56.7173 245.144 56.1264 245.144ZM56.1264 244.241C56.5753 244.241 56.9446 244.126 57.2344 243.896C57.5241 243.665 57.7386 243.363 57.8778 242.988C58.017 242.613 58.0866 242.207 58.0866 241.769C58.0866 241.332 58.017 240.924 57.8778 240.546C57.7386 240.168 57.5241 239.863 57.2344 239.63C56.9446 239.397 56.5753 239.281 56.1264 239.281C55.6776 239.281 55.3082 239.397 55.0185 239.63C54.7287 239.863 54.5142 240.168 54.375 240.546C54.2358 240.924 54.1662 241.332 54.1662 241.769C54.1662 242.207 54.2358 242.613 54.375 242.988C54.5142 243.363 54.7287 243.665 55.0185 243.896C55.3082 244.126 55.6776 244.241 56.1264 244.241ZM61.6332 236.281V245.008H60.6275V236.281H61.6332ZM66.1342 245.144C65.5433 245.144 65.0249 245.004 64.5788 244.722C64.1357 244.441 63.7891 244.048 63.5391 243.542C63.2919 243.036 63.1683 242.445 63.1683 241.769C63.1683 241.087 63.2919 240.492 63.5391 239.984C63.7891 239.475 64.1357 239.08 64.5788 238.799C65.0249 238.518 65.5433 238.377 66.1342 238.377C66.7251 238.377 67.2422 238.518 67.6854 238.799C68.1314 239.08 68.478 239.475 68.7251 239.984C68.9751 240.492 69.1001 241.087 69.1001 241.769C69.1001 242.445 68.9751 243.036 68.7251 243.542C68.478 244.048 68.1314 244.441 67.6854 244.722C67.2422 245.004 66.7251 245.144 66.1342 245.144ZM66.1342 244.241C66.5831 244.241 66.9524 244.126 67.2422 243.896C67.532 243.665 67.7464 243.363 67.8857 242.988C68.0249 242.613 68.0945 242.207 68.0945 241.769C68.0945 241.332 68.0249 240.924 67.8857 240.546C67.7464 240.168 67.532 239.863 67.2422 239.63C66.9524 239.397 66.5831 239.281 66.1342 239.281C65.6854 239.281 65.3161 239.397 65.0263 239.63C64.7365 239.863 64.522 240.168 64.3828 240.546C64.2436 240.924 64.174 241.332 64.174 241.769C64.174 242.207 64.2436 242.613 64.3828 242.988C64.522 243.363 64.7365 243.665 65.0263 243.896C65.3161 244.126 65.6854 244.241 66.1342 244.241ZM73.2773 247.599C72.7915 247.599 72.3739 247.536 72.0245 247.411C71.6751 247.289 71.3839 247.127 71.1509 246.925C70.9208 246.727 70.7376 246.513 70.6012 246.286L71.4023 245.724C71.4933 245.843 71.6083 245.979 71.7475 246.133C71.8867 246.289 72.0771 246.424 72.3185 246.538C72.5629 246.654 72.8825 246.712 73.2773 246.712C73.8058 246.712 74.2418 246.585 74.5856 246.329C74.9293 246.073 75.1012 245.673 75.1012 245.127V243.798H75.016C74.9421 243.917 74.837 244.065 74.7006 244.241C74.5671 244.414 74.3739 244.569 74.1211 244.705C73.8711 244.839 73.533 244.906 73.1069 244.906C72.5785 244.906 72.104 244.781 71.6836 244.531C71.266 244.281 70.935 243.917 70.6907 243.44C70.4492 242.962 70.3285 242.383 70.3285 241.701C70.3285 241.031 70.4464 240.447 70.6822 239.95C70.918 239.45 71.2461 239.063 71.6665 238.79C72.087 238.515 72.5728 238.377 73.1239 238.377C73.5501 238.377 73.8881 238.448 74.1381 238.59C74.391 238.729 74.5842 238.888 74.7177 239.067C74.854 239.244 74.9592 239.388 75.033 239.502H75.1353V238.462H76.1069V245.195C76.1069 245.758 75.979 246.215 75.7234 246.567C75.4705 246.923 75.1296 247.183 74.7006 247.347C74.2745 247.515 73.8001 247.599 73.2773 247.599ZM73.2433 244.002C73.6467 244.002 73.9876 243.91 74.266 243.725C74.5444 243.54 74.756 243.275 74.9009 242.928C75.0458 242.582 75.1183 242.167 75.1183 241.684C75.1183 241.212 75.0472 240.796 74.9052 240.435C74.7631 240.075 74.5529 239.792 74.2745 239.587C73.9961 239.383 73.6523 239.281 73.2433 239.281C72.8171 239.281 72.462 239.388 72.1779 239.604C71.8967 239.82 71.685 240.11 71.543 240.474C71.4038 240.837 71.3342 241.241 71.3342 241.684C71.3342 242.138 71.4052 242.54 71.5472 242.89C71.6921 243.237 71.9052 243.509 72.1864 243.708C72.4705 243.904 72.8228 244.002 73.2433 244.002ZM78.5955 247.462C78.4251 247.462 78.2731 247.448 78.1396 247.42C78.006 247.394 77.9137 247.369 77.8626 247.343L78.1183 246.457C78.3626 246.519 78.5785 246.542 78.766 246.525C78.9535 246.508 79.1197 246.424 79.2646 246.273C79.4123 246.126 79.5472 245.886 79.6694 245.553L79.8569 245.042L77.4364 238.462H78.5273L80.3342 243.678H80.4023L82.2092 238.462H83.3001L80.5217 245.962C80.3967 246.3 80.2418 246.58 80.0572 246.802C79.8725 247.026 79.658 247.192 79.4137 247.3C79.1722 247.408 78.8995 247.462 78.5955 247.462Z" fill="black" fill-opacity="0.7"/>
<path d="M28.0795 283.77H27.0227C26.9602 283.466 26.8509 283.199 26.6946 282.968C26.5412 282.738 26.3537 282.545 26.1321 282.389C25.9134 282.23 25.6705 282.11 25.4034 282.031C25.1364 281.951 24.858 281.912 24.5682 281.912C24.0398 281.912 23.5611 282.045 23.1321 282.312C22.706 282.579 22.3665 282.973 22.1136 283.493C21.8636 284.012 21.7386 284.65 21.7386 285.406C21.7386 286.162 21.8636 286.799 22.1136 287.319C22.3665 287.839 22.706 288.233 23.1321 288.5C23.5611 288.767 24.0398 288.9 24.5682 288.9C24.858 288.9 25.1364 288.86 25.4034 288.781C25.6705 288.701 25.9134 288.583 26.1321 288.427C26.3537 288.268 26.5412 288.074 26.6946 287.843C26.8509 287.61 26.9602 287.343 27.0227 287.042H28.0795C28 287.488 27.8551 287.887 27.6449 288.24C27.4347 288.592 27.1733 288.892 26.8608 289.139C26.5483 289.383 26.1974 289.569 25.8082 289.697C25.4219 289.825 25.0085 289.889 24.5682 289.889C23.8239 289.889 23.1619 289.707 22.5824 289.343C22.0028 288.98 21.5469 288.463 21.2145 287.792C20.8821 287.122 20.7159 286.326 20.7159 285.406C20.7159 284.485 20.8821 283.69 21.2145 283.02C21.5469 282.349 22.0028 281.832 22.5824 281.468C23.1619 281.105 23.8239 280.923 24.5682 280.923C25.0085 280.923 25.4219 280.987 25.8082 281.115C26.1974 281.243 26.5483 281.43 26.8608 281.677C27.1733 281.922 27.4347 282.22 27.6449 282.572C27.8551 282.922 28 283.321 28.0795 283.77ZM31.5771 289.923C31.1623 289.923 30.7859 289.845 30.4478 289.689C30.1097 289.529 29.8413 289.301 29.6424 289.002C29.4435 288.701 29.3441 288.338 29.3441 287.912C29.3441 287.537 29.418 287.233 29.5657 287C29.7134 286.764 29.9109 286.579 30.158 286.446C30.4052 286.312 30.6779 286.213 30.9762 286.147C31.2773 286.079 31.5799 286.025 31.8839 285.985C32.2816 285.934 32.604 285.896 32.8512 285.87C33.1012 285.842 33.283 285.795 33.3967 285.73C33.5131 285.664 33.5714 285.551 33.5714 285.389V285.355C33.5714 284.934 33.4563 284.608 33.2262 284.375C32.9989 284.142 32.6538 284.025 32.1907 284.025C31.7106 284.025 31.3342 284.13 31.0614 284.341C30.7887 284.551 30.5969 284.775 30.4862 285.014L29.5316 284.673C29.7021 284.275 29.9293 283.966 30.2134 283.744C30.5004 283.52 30.8129 283.363 31.1509 283.275C31.4918 283.184 31.8271 283.139 32.1566 283.139C32.3668 283.139 32.6083 283.164 32.881 283.216C33.1566 283.264 33.4222 283.365 33.6779 283.518C33.9364 283.672 34.1509 283.903 34.3214 284.213C34.4918 284.522 34.5771 284.937 34.5771 285.457V289.77H33.5714V288.883H33.5202C33.4521 289.025 33.3384 289.177 33.1793 289.339C33.0202 289.501 32.8086 289.639 32.5444 289.752C32.2802 289.866 31.9577 289.923 31.5771 289.923ZM31.7305 289.02C32.1282 289.02 32.4634 288.941 32.7362 288.785C33.0117 288.629 33.2191 288.427 33.3583 288.18C33.5004 287.933 33.5714 287.673 33.5714 287.4V286.48C33.5288 286.531 33.435 286.578 33.2901 286.62C33.1481 286.66 32.9833 286.696 32.7958 286.727C32.6112 286.755 32.4308 286.781 32.2546 286.804C32.0813 286.824 31.9407 286.841 31.8327 286.855C31.5714 286.889 31.3271 286.944 31.0998 287.021C30.8754 287.095 30.6935 287.207 30.5543 287.358C30.418 287.505 30.3498 287.707 30.3498 287.963C30.3498 288.312 30.479 288.576 30.7376 288.755C30.9989 288.931 31.3299 289.02 31.7305 289.02ZM36.4126 289.77V283.224H37.3842V284.213H37.4524C37.5717 283.889 37.7876 283.626 38.1001 283.424C38.4126 283.223 38.7649 283.122 39.157 283.122C39.2308 283.122 39.3232 283.123 39.4339 283.126C39.5447 283.129 39.6286 283.133 39.6854 283.139V284.162C39.6513 284.153 39.5732 284.14 39.451 284.123C39.3317 284.103 39.2053 284.093 39.0717 284.093C38.7536 284.093 38.4695 284.16 38.2195 284.294C37.9723 284.424 37.7763 284.606 37.6314 284.839C37.4893 285.069 37.4183 285.332 37.4183 285.627V289.77H36.4126ZM44.3888 289.77V281.042H47.44C48.0479 281.042 48.5494 281.147 48.9442 281.358C49.3391 281.565 49.6332 281.845 49.8263 282.197C50.0195 282.547 50.1161 282.934 50.1161 283.36C50.1161 283.735 50.0494 284.045 49.9158 284.289C49.7852 284.534 49.6119 284.727 49.396 284.869C49.1829 285.011 48.9513 285.116 48.7013 285.184V285.27C48.9684 285.287 49.2369 285.38 49.5067 285.551C49.7766 285.721 50.0025 285.966 50.1843 286.284C50.3661 286.602 50.457 286.991 50.457 287.451C50.457 287.889 50.3576 288.282 50.1587 288.632C49.9599 288.981 49.646 289.258 49.217 289.463C48.788 289.667 48.2298 289.77 47.5423 289.77H44.3888ZM45.4457 288.832H47.5423C48.2326 288.832 48.7227 288.699 49.0124 288.431C49.305 288.162 49.4513 287.835 49.4513 287.451C49.4513 287.156 49.3761 286.883 49.2255 286.633C49.0749 286.38 48.8604 286.179 48.582 286.028C48.3036 285.875 47.9741 285.798 47.5934 285.798H45.4457V288.832ZM45.4457 284.877H47.4059C47.7241 284.877 48.011 284.815 48.2667 284.69C48.5252 284.565 48.7298 284.389 48.8803 284.162C49.0337 283.934 49.1104 283.667 49.1104 283.36C49.1104 282.977 48.9769 282.652 48.7099 282.385C48.4428 282.115 48.0195 281.98 47.44 281.98H45.4457V284.877ZM52.0572 289.77V283.224H53.0288V284.213H53.0969C53.2163 283.889 53.4322 283.626 53.7447 283.424C54.0572 283.223 54.4094 283.122 54.8015 283.122C54.8754 283.122 54.9677 283.123 55.0785 283.126C55.1893 283.129 55.2731 283.133 55.3299 283.139V284.162C55.2958 284.153 55.2177 284.14 55.0955 284.123C54.9762 284.103 54.8498 284.093 54.7163 284.093C54.3981 284.093 54.114 284.16 53.864 284.294C53.6168 284.424 53.4208 284.606 53.2759 284.839C53.1339 285.069 53.0629 285.332 53.0629 285.627V289.77H52.0572ZM58.4482 289.923C58.0334 289.923 57.657 289.845 57.3189 289.689C56.9808 289.529 56.7124 289.301 56.5135 289.002C56.3146 288.701 56.2152 288.338 56.2152 287.912C56.2152 287.537 56.2891 287.233 56.4368 287C56.5845 286.764 56.782 286.579 57.0291 286.446C57.2763 286.312 57.549 286.213 57.8473 286.147C58.1484 286.079 58.451 286.025 58.755 285.985C59.1527 285.934 59.4751 285.896 59.7223 285.87C59.9723 285.842 60.1541 285.795 60.2678 285.73C60.3842 285.664 60.4425 285.551 60.4425 285.389V285.355C60.4425 284.934 60.3274 284.608 60.0973 284.375C59.87 284.142 59.5249 284.025 59.0618 284.025C58.5817 284.025 58.2053 284.13 57.9325 284.341C57.6598 284.551 57.468 284.775 57.3572 285.014L56.4027 284.673C56.5732 284.275 56.8004 283.966 57.0845 283.744C57.3714 283.52 57.6839 283.363 58.022 283.275C58.3629 283.184 58.6982 283.139 59.0277 283.139C59.2379 283.139 59.4794 283.164 59.7521 283.216C60.0277 283.264 60.2933 283.365 60.549 283.518C60.8075 283.672 61.022 283.903 61.1925 284.213C61.3629 284.522 61.4482 284.937 61.4482 285.457V289.77H60.4425V288.883H60.3913C60.3232 289.025 60.2095 289.177 60.0504 289.339C59.8913 289.501 59.6797 289.639 59.4155 289.752C59.1513 289.866 58.8288 289.923 58.4482 289.923ZM58.6016 289.02C58.9993 289.02 59.3345 288.941 59.6072 288.785C59.8828 288.629 60.0902 288.427 60.2294 288.18C60.3714 287.933 60.4425 287.673 60.4425 287.4V286.48C60.3999 286.531 60.3061 286.578 60.1612 286.62C60.0192 286.66 59.8544 286.696 59.6669 286.727C59.4822 286.755 59.3018 286.781 59.1257 286.804C58.9524 286.824 58.8118 286.841 58.7038 286.855C58.4425 286.889 58.1982 286.944 57.9709 287.021C57.7464 287.095 57.5646 287.207 57.4254 287.358C57.2891 287.505 57.2209 287.707 57.2209 287.963C57.2209 288.312 57.3501 288.576 57.6087 288.755C57.87 288.931 58.201 289.02 58.6016 289.02ZM64.2894 285.832V289.77H63.2837V283.224H64.2553V284.247H64.3406C64.494 283.914 64.7269 283.647 65.0394 283.446C65.3519 283.241 65.7553 283.139 66.2496 283.139C66.6928 283.139 67.0806 283.23 67.413 283.412C67.7454 283.591 68.0039 283.863 68.1886 284.23C68.3732 284.593 68.4656 285.054 68.4656 285.61V289.77H67.4599V285.679C67.4599 285.164 67.3263 284.764 67.0593 284.477C66.7923 284.187 66.4258 284.042 65.9599 284.042C65.6388 284.042 65.3519 284.112 65.0991 284.251C64.8491 284.39 64.6516 284.593 64.5067 284.86C64.3619 285.127 64.2894 285.451 64.2894 285.832ZM72.7749 289.906C72.2294 289.906 71.7479 289.768 71.3303 289.493C70.9126 289.214 70.5859 288.822 70.3501 288.316C70.1143 287.808 69.9964 287.207 69.9964 286.514C69.9964 285.826 70.1143 285.23 70.3501 284.724C70.5859 284.218 70.9141 283.828 71.3345 283.552C71.755 283.277 72.2408 283.139 72.7919 283.139C73.218 283.139 73.5547 283.21 73.8018 283.352C74.0518 283.491 74.2422 283.65 74.3729 283.829C74.5064 284.005 74.6101 284.15 74.6839 284.264H74.7692V281.042H75.7749V289.77H74.8033V288.764H74.6839C74.6101 288.883 74.505 289.034 74.3686 289.216C74.2322 289.395 74.0376 289.555 73.7848 289.697C73.532 289.836 73.1953 289.906 72.7749 289.906ZM72.9112 289.002C73.3146 289.002 73.6555 288.897 73.9339 288.687C74.2124 288.474 74.424 288.18 74.5689 287.805C74.7138 287.427 74.7862 286.991 74.7862 286.497C74.7862 286.008 74.7152 285.581 74.5732 285.214C74.4311 284.845 74.2209 284.558 73.9425 284.353C73.6641 284.146 73.3203 284.042 72.9112 284.042C72.4851 284.042 72.13 284.152 71.8459 284.37C71.5646 284.586 71.353 284.88 71.2109 285.252C71.0717 285.622 71.0021 286.037 71.0021 286.497C71.0021 286.963 71.0732 287.386 71.2152 287.767C71.3601 288.145 71.5732 288.446 71.8544 288.67C72.1385 288.892 72.4908 289.002 72.9112 289.002ZM82.3928 284.69L81.4893 284.946C81.4325 284.795 81.3487 284.649 81.2379 284.507C81.13 284.362 80.9822 284.243 80.7947 284.149C80.6072 284.055 80.3672 284.008 80.0746 284.008C79.674 284.008 79.3402 284.1 79.0732 284.285C78.8089 284.467 78.6768 284.699 78.6768 284.98C78.6768 285.23 78.7678 285.427 78.9496 285.572C79.1314 285.717 79.4155 285.838 79.8018 285.934L80.7734 286.173C81.3587 286.315 81.7947 286.532 82.0817 286.825C82.3686 287.115 82.5121 287.488 82.5121 287.946C82.5121 288.321 82.4041 288.656 82.1882 288.951C81.9751 289.247 81.6768 289.48 81.2933 289.65C80.9098 289.821 80.4638 289.906 79.9553 289.906C79.2876 289.906 78.7351 289.761 78.2976 289.471C77.8601 289.181 77.5831 288.758 77.4666 288.201L78.4212 287.963C78.5121 288.315 78.6839 288.579 78.9368 288.755C79.1925 288.931 79.5263 289.02 79.9382 289.02C80.407 289.02 80.7791 288.92 81.0547 288.721C81.3331 288.52 81.4723 288.278 81.4723 287.997C81.4723 287.77 81.3928 287.579 81.2337 287.426C81.0746 287.27 80.8303 287.153 80.5007 287.076L79.4098 286.821C78.8104 286.679 78.37 286.458 78.0888 286.16C77.8104 285.859 77.6712 285.483 77.6712 285.031C77.6712 284.662 77.7749 284.335 77.9822 284.051C78.1925 283.767 78.478 283.544 78.8388 283.382C79.2024 283.22 79.6143 283.139 80.0746 283.139C80.7223 283.139 81.2308 283.281 81.6001 283.565C81.9723 283.849 82.2365 284.224 82.3928 284.69Z" fill="black" fill-opacity="0.7"/>
<line x1="483.5" y1="40.0781" x2="483.5" y2="307.078" stroke="black" stroke-opacity="0.15" stroke-dasharray="2"/>
<line x1="444.1" y1="40.0781" x2="444.1" y2="307.078" stroke="black" stroke-opacity="0.15" stroke-dasharray="2"/>
<line x1="404.699" y1="40.0781" x2="404.699" y2="307.078" stroke="black" stroke-opacity="0.15" stroke-dasharray="2"/>
<line x1="365.301" y1="40.0781" x2="365.301" y2="307.078" stroke="black" stroke-opacity="0.15" stroke-dasharray="2"/>
<line x1="325.9" y1="40.0781" x2="325.9" y2="307.078" stroke="black" stroke-opacity="0.15" stroke-dasharray="2"/>
<line x1="286.5" y1="40.0781" x2="286.5" y2="307.078" stroke="black" stroke-opacity="0.15" stroke-dasharray="2"/>
<line x1="247.1" y1="40.0781" x2="247.1" y2="307.078" stroke="black" stroke-opacity="0.15" stroke-dasharray="2"/>
<line x1="207.699" y1="40.0781" x2="207.699" y2="307.078" stroke="black" stroke-opacity="0.15" stroke-dasharray="2"/>
<line x1="168.301" y1="40.0781" x2="168.301" y2="307.078" stroke="black" stroke-opacity="0.15" stroke-dasharray="2"/>
<line x1="128.9" y1="40.0781" x2="128.9" y2="307.078" stroke="black" stroke-opacity="0.15" stroke-dasharray="2"/>
<line x1="89.5" y1="40.0781" x2="89.5" y2="307.078" stroke="black" stroke-opacity="0.3"/>
<line x1="89" y1="39.5781" x2="483" y2="39.5781" stroke="black" stroke-opacity="0.15" stroke-dasharray="2"/>
<line x1="89" y1="84.0781" x2="483" y2="84.0781" stroke="black" stroke-opacity="0.15" stroke-dasharray="2"/>
<line x1="89" y1="128.578" x2="483" y2="128.578" stroke="black" stroke-opacity="0.15" stroke-dasharray="2"/>
<line x1="89" y1="173.078" x2="483" y2="173.078" stroke="black" stroke-opacity="0.15" stroke-dasharray="2"/>
<line x1="89" y1="217.578" x2="483" y2="217.578" stroke="black" stroke-opacity="0.15" stroke-dasharray="2"/>
<line x1="89" y1="262.078" x2="483" y2="262.078" stroke="black" stroke-opacity="0.15" stroke-dasharray="2"/>
<line x1="89" y1="306.578" x2="483" y2="306.578" stroke="black" stroke-opacity="0.15" stroke-dasharray="2"/>
<rect opacity="0.8" x="243.447" y="43.0781" width="37" height="154.448" transform="rotate(90 243.447 43.0781)" fill="#55B1A5"/>
<rect opacity="0.8" x="263.936" y="43.0781" width="37" height="20.488" transform="rotate(90 263.936 43.0781)" fill="#516B75"/>
<rect opacity="0.8" x="319.096" y="43.0781" width="37" height="55.16" transform="rotate(90 319.096 43.0781)" fill="#EDD088"/>
<rect opacity="0.8" x="229.264" y="87.9121" width="37" height="140.264" transform="rotate(90 229.264 87.9121)" fill="#55B1A5"/>
<rect opacity="0.8" x="293.881" y="87.9121" width="37" height="64.616" transform="rotate(90 293.881 87.9121)" fill="#516B75"/>
<rect opacity="0.8" x="412.08" y="87.9121" width="37" height="118.2" transform="rotate(90 412.08 87.9121)" fill="#EDD088"/>
<rect opacity="0.8" x="167.801" y="132.744" width="37" height="78.8" transform="rotate(90 167.801 132.744)" fill="#55B1A5"/>
<rect opacity="0.8" x="306.488" y="132.744" width="37" height="138.688" transform="rotate(90 306.488 132.744)" fill="#516B75"/>
<rect opacity="0.8" x="378.984" y="132.744" width="37" height="72.496" transform="rotate(90 378.984 132.744)" fill="#EDD088"/>
<rect opacity="0.8" x="240.297" y="177.578" width="37" height="151.296" transform="rotate(90 240.297 177.578)" fill="#55B1A5"/>
<rect opacity="0.8" x="278.119" y="177.578" width="37" height="37.824" transform="rotate(90 278.119 177.578)" fill="#516B75"/>
<rect opacity="0.8" x="295.455" y="177.578" width="37" height="17.336" transform="rotate(90 295.455 177.578)" fill="#EDD088"/>
<rect opacity="0.8" x="175.68" y="222.412" width="37" height="86.68" transform="rotate(90 175.68 222.412)" fill="#55B1A5"/>
<rect opacity="0.8" x="256.057" y="222.412" width="37" height="80.376" transform="rotate(90 256.057 222.412)" fill="#516B75"/>
<rect opacity="0.8" x="333.279" y="222.412" width="37" height="77.224" transform="rotate(90 333.279 222.412)" fill="#EDD088"/>
<rect opacity="0.8" x="141.008" y="267.244" width="37" height="52.008" transform="rotate(90 141.008 267.244)" fill="#55B1A5"/>
<rect opacity="0.8" x="156.768" y="267.244" width="37" height="15.76" transform="rotate(90 156.768 267.244)" fill="#516B75"/>
<rect opacity="0.8" x="178.832" y="267.244" width="37" height="22.064" transform="rotate(90 178.832 267.244)" fill="#EDD088"/>
<g clip-path="url(#clip0_792_7210)">
<g clip-path="url(#clip1_792_7210)">
<rect x="163.5" y="324.15" width="7" height="7" fill="#55B1A5" stroke="white"/>
<path d="M179.903 332.15V331.383L182.784 328.23C183.122 327.861 183.401 327.54 183.619 327.267C183.838 326.991 184 326.733 184.105 326.491C184.213 326.247 184.267 325.991 184.267 325.724C184.267 325.417 184.193 325.152 184.045 324.927C183.901 324.703 183.702 324.53 183.449 324.407C183.196 324.285 182.912 324.224 182.597 324.224C182.261 324.224 181.969 324.294 181.719 324.433C181.472 324.569 181.28 324.761 181.143 325.008C181.01 325.256 180.943 325.545 180.943 325.878H179.938C179.938 325.366 180.055 324.917 180.291 324.531C180.527 324.145 180.848 323.844 181.254 323.628C181.663 323.412 182.122 323.304 182.631 323.304C183.142 323.304 183.595 323.412 183.99 323.628C184.385 323.844 184.695 324.135 184.919 324.501C185.143 324.868 185.256 325.275 185.256 325.724C185.256 326.045 185.197 326.359 185.081 326.666C184.967 326.97 184.768 327.309 184.484 327.684C184.203 328.057 183.812 328.511 183.312 329.048L181.352 331.145V331.213H185.409V332.15H179.903ZM190.016 332.27C189.374 332.27 188.827 332.095 188.375 331.746C187.923 331.393 187.578 330.883 187.339 330.216C187.101 329.545 186.982 328.736 186.982 327.787C186.982 326.844 187.101 326.038 187.339 325.371C187.581 324.7 187.928 324.189 188.379 323.836C188.834 323.481 189.379 323.304 190.016 323.304C190.652 323.304 191.196 323.481 191.648 323.836C192.102 324.189 192.449 324.7 192.688 325.371C192.929 326.038 193.05 326.844 193.05 327.787C193.05 328.736 192.93 329.545 192.692 330.216C192.453 330.883 192.108 331.393 191.656 331.746C191.205 332.095 190.658 332.27 190.016 332.27ZM190.016 331.332C190.652 331.332 191.146 331.025 191.499 330.412C191.851 329.798 192.027 328.923 192.027 327.787C192.027 327.031 191.946 326.388 191.784 325.856C191.625 325.325 191.395 324.92 191.094 324.642C190.795 324.363 190.436 324.224 190.016 324.224C189.385 324.224 188.892 324.535 188.537 325.157C188.182 325.777 188.004 326.653 188.004 327.787C188.004 328.542 188.084 329.184 188.243 329.713C188.402 330.241 188.631 330.643 188.929 330.919C189.23 331.194 189.592 331.332 190.016 331.332ZM194.669 332.15V331.383L197.55 328.23C197.888 327.861 198.166 327.54 198.385 327.267C198.604 326.991 198.766 326.733 198.871 326.491C198.979 326.247 199.033 325.991 199.033 325.724C199.033 325.417 198.959 325.152 198.811 324.927C198.666 324.703 198.467 324.53 198.214 324.407C197.962 324.285 197.678 324.224 197.362 324.224C197.027 324.224 196.734 324.294 196.484 324.433C196.237 324.569 196.045 324.761 195.909 325.008C195.776 325.256 195.709 325.545 195.709 325.878H194.703C194.703 325.366 194.821 324.917 195.057 324.531C195.293 324.145 195.614 323.844 196.02 323.628C196.429 323.412 196.888 323.304 197.396 323.304C197.908 323.304 198.361 323.412 198.756 323.628C199.151 323.844 199.46 324.135 199.685 324.501C199.909 324.868 200.021 325.275 200.021 325.724C200.021 326.045 199.963 326.359 199.847 326.666C199.733 326.97 199.534 327.309 199.25 327.684C198.969 328.057 198.578 328.511 198.078 329.048L196.118 331.145V331.213H200.175V332.15H194.669ZM201.935 332.15V331.383L204.815 328.23C205.153 327.861 205.432 327.54 205.651 327.267C205.869 326.991 206.031 326.733 206.136 326.491C206.244 326.247 206.298 325.991 206.298 325.724C206.298 325.417 206.224 325.152 206.077 324.927C205.932 324.703 205.733 324.53 205.48 324.407C205.227 324.285 204.943 324.224 204.628 324.224C204.293 324.224 204 324.294 203.75 324.433C203.503 324.569 203.311 324.761 203.175 325.008C203.041 325.256 202.974 325.545 202.974 325.878H201.969C201.969 325.366 202.087 324.917 202.322 324.531C202.558 324.145 202.879 323.844 203.286 323.628C203.695 323.412 204.153 323.304 204.662 323.304C205.173 323.304 205.626 323.412 206.021 323.628C206.416 323.844 206.726 324.135 206.95 324.501C207.175 324.868 207.287 325.275 207.287 325.724C207.287 326.045 207.229 326.359 207.112 326.666C206.999 326.97 206.8 327.309 206.516 327.684C206.234 328.057 205.844 328.511 205.344 329.048L203.384 331.145V331.213H207.44V332.15H201.935Z" fill="black" fill-opacity="0.7"/>
<rect x="229.5" y="324.15" width="7" height="7" fill="#516B75" stroke="white"/>
<path d="M245.903 332.15V331.383L248.784 328.23C249.122 327.861 249.401 327.54 249.619 327.267C249.838 326.991 250 326.733 250.105 326.491C250.213 326.247 250.267 325.991 250.267 325.724C250.267 325.417 250.193 325.152 250.045 324.927C249.901 324.703 249.702 324.53 249.449 324.407C249.196 324.285 248.912 324.224 248.597 324.224C248.261 324.224 247.969 324.294 247.719 324.433C247.472 324.569 247.28 324.761 247.143 325.008C247.01 325.256 246.943 325.545 246.943 325.878H245.938C245.938 325.366 246.055 324.917 246.291 324.531C246.527 324.145 246.848 323.844 247.254 323.628C247.663 323.412 248.122 323.304 248.631 323.304C249.142 323.304 249.595 323.412 249.99 323.628C250.385 323.844 250.695 324.135 250.919 324.501C251.143 324.868 251.256 325.275 251.256 325.724C251.256 326.045 251.197 326.359 251.081 326.666C250.967 326.97 250.768 327.309 250.484 327.684C250.203 328.057 249.812 328.511 249.312 329.048L247.352 331.145V331.213H251.409V332.15H245.903ZM256.016 332.27C255.374 332.27 254.827 332.095 254.375 331.746C253.923 331.393 253.578 330.883 253.339 330.216C253.101 329.545 252.982 328.736 252.982 327.787C252.982 326.844 253.101 326.038 253.339 325.371C253.581 324.7 253.928 324.189 254.379 323.836C254.834 323.481 255.379 323.304 256.016 323.304C256.652 323.304 257.196 323.481 257.648 323.836C258.102 324.189 258.449 324.7 258.688 325.371C258.929 326.038 259.05 326.844 259.05 327.787C259.05 328.736 258.93 329.545 258.692 330.216C258.453 330.883 258.108 331.393 257.656 331.746C257.205 332.095 256.658 332.27 256.016 332.27ZM256.016 331.332C256.652 331.332 257.146 331.025 257.499 330.412C257.851 329.798 258.027 328.923 258.027 327.787C258.027 327.031 257.946 326.388 257.784 325.856C257.625 325.325 257.395 324.92 257.094 324.642C256.795 324.363 256.436 324.224 256.016 324.224C255.385 324.224 254.892 324.535 254.537 325.157C254.182 325.777 254.004 326.653 254.004 327.787C254.004 328.542 254.084 329.184 254.243 329.713C254.402 330.241 254.631 330.643 254.929 330.919C255.23 331.194 255.592 331.332 256.016 331.332ZM260.669 332.15V331.383L263.55 328.23C263.888 327.861 264.166 327.54 264.385 327.267C264.604 326.991 264.766 326.733 264.871 326.491C264.979 326.247 265.033 325.991 265.033 325.724C265.033 325.417 264.959 325.152 264.811 324.927C264.666 324.703 264.467 324.53 264.214 324.407C263.962 324.285 263.678 324.224 263.362 324.224C263.027 324.224 262.734 324.294 262.484 324.433C262.237 324.569 262.045 324.761 261.909 325.008C261.776 325.256 261.709 325.545 261.709 325.878H260.703C260.703 325.366 260.821 324.917 261.057 324.531C261.293 324.145 261.614 323.844 262.02 323.628C262.429 323.412 262.888 323.304 263.396 323.304C263.908 323.304 264.361 323.412 264.756 323.628C265.151 323.844 265.46 324.135 265.685 324.501C265.909 324.868 266.021 325.275 266.021 325.724C266.021 326.045 265.963 326.359 265.847 326.666C265.733 326.97 265.534 327.309 265.25 327.684C264.969 328.057 264.578 328.511 264.078 329.048L262.118 331.145V331.213H266.175V332.15H260.669ZM270.884 332.27C270.321 332.27 269.82 332.173 269.379 331.98C268.942 331.787 268.594 331.518 268.335 331.175C268.08 330.828 267.94 330.426 267.918 329.969H268.991C269.014 330.25 269.111 330.493 269.281 330.697C269.452 330.899 269.675 331.055 269.95 331.166C270.226 331.277 270.531 331.332 270.866 331.332C271.241 331.332 271.574 331.267 271.864 331.136C272.153 331.006 272.381 330.824 272.545 330.591C272.71 330.358 272.793 330.088 272.793 329.781C272.793 329.46 272.713 329.177 272.554 328.933C272.395 328.686 272.162 328.493 271.855 328.354C271.548 328.214 271.173 328.145 270.73 328.145H270.031V327.207H270.73C271.077 327.207 271.381 327.145 271.642 327.02C271.906 326.895 272.112 326.719 272.26 326.491C272.411 326.264 272.486 325.997 272.486 325.69C272.486 325.395 272.42 325.138 272.29 324.919C272.159 324.7 271.974 324.53 271.736 324.407C271.5 324.285 271.222 324.224 270.901 324.224C270.599 324.224 270.315 324.28 270.048 324.39C269.784 324.498 269.568 324.656 269.401 324.863C269.233 325.068 269.142 325.315 269.128 325.605H268.105C268.122 325.148 268.26 324.747 268.518 324.403C268.777 324.057 269.115 323.787 269.533 323.594C269.953 323.4 270.415 323.304 270.918 323.304C271.457 323.304 271.92 323.413 272.307 323.632C272.693 323.848 272.99 324.133 273.197 324.488C273.405 324.844 273.509 325.227 273.509 325.639C273.509 326.131 273.379 326.55 273.121 326.896C272.865 327.243 272.517 327.483 272.077 327.616V327.684C272.628 327.775 273.058 328.01 273.368 328.388C273.678 328.763 273.832 329.227 273.832 329.781C273.832 330.256 273.703 330.682 273.445 331.059C273.189 331.434 272.839 331.73 272.396 331.946C271.953 332.162 271.449 332.27 270.884 332.27Z" fill="black" fill-opacity="0.7"/>
<rect x="295.5" y="324.15" width="7" height="7" fill="#EDD088" stroke="white"/>
<path d="M311.903 332.15V331.383L314.784 328.23C315.122 327.861 315.401 327.54 315.619 327.267C315.838 326.991 316 326.733 316.105 326.491C316.213 326.247 316.267 325.991 316.267 325.724C316.267 325.417 316.193 325.152 316.045 324.927C315.901 324.703 315.702 324.53 315.449 324.407C315.196 324.285 314.912 324.224 314.597 324.224C314.261 324.224 313.969 324.294 313.719 324.433C313.472 324.569 313.28 324.761 313.143 325.008C313.01 325.256 312.943 325.545 312.943 325.878H311.938C311.938 325.366 312.055 324.917 312.291 324.531C312.527 324.145 312.848 323.844 313.254 323.628C313.663 323.412 314.122 323.304 314.631 323.304C315.142 323.304 315.595 323.412 315.99 323.628C316.385 323.844 316.695 324.135 316.919 324.501C317.143 324.868 317.256 325.275 317.256 325.724C317.256 326.045 317.197 326.359 317.081 326.666C316.967 326.97 316.768 327.309 316.484 327.684C316.203 328.057 315.812 328.511 315.312 329.048L313.352 331.145V331.213H317.409V332.15H311.903ZM322.016 332.27C321.374 332.27 320.827 332.095 320.375 331.746C319.923 331.393 319.578 330.883 319.339 330.216C319.101 329.545 318.982 328.736 318.982 327.787C318.982 326.844 319.101 326.038 319.339 325.371C319.581 324.7 319.928 324.189 320.379 323.836C320.834 323.481 321.379 323.304 322.016 323.304C322.652 323.304 323.196 323.481 323.648 323.836C324.102 324.189 324.449 324.7 324.688 325.371C324.929 326.038 325.05 326.844 325.05 327.787C325.05 328.736 324.93 329.545 324.692 330.216C324.453 330.883 324.108 331.393 323.656 331.746C323.205 332.095 322.658 332.27 322.016 332.27ZM322.016 331.332C322.652 331.332 323.146 331.025 323.499 330.412C323.851 329.798 324.027 328.923 324.027 327.787C324.027 327.031 323.946 326.388 323.784 325.856C323.625 325.325 323.395 324.92 323.094 324.642C322.795 324.363 322.436 324.224 322.016 324.224C321.385 324.224 320.892 324.535 320.537 325.157C320.182 325.777 320.004 326.653 320.004 327.787C320.004 328.542 320.084 329.184 320.243 329.713C320.402 330.241 320.631 330.643 320.929 330.919C321.23 331.194 321.592 331.332 322.016 331.332ZM326.669 332.15V331.383L329.55 328.23C329.888 327.861 330.166 327.54 330.385 327.267C330.604 326.991 330.766 326.733 330.871 326.491C330.979 326.247 331.033 325.991 331.033 325.724C331.033 325.417 330.959 325.152 330.811 324.927C330.666 324.703 330.467 324.53 330.214 324.407C329.962 324.285 329.678 324.224 329.362 324.224C329.027 324.224 328.734 324.294 328.484 324.433C328.237 324.569 328.045 324.761 327.909 325.008C327.776 325.256 327.709 325.545 327.709 325.878H326.703C326.703 325.366 326.821 324.917 327.057 324.531C327.293 324.145 327.614 323.844 328.02 323.628C328.429 323.412 328.888 323.304 329.396 323.304C329.908 323.304 330.361 323.412 330.756 323.628C331.151 323.844 331.46 324.135 331.685 324.501C331.909 324.868 332.021 325.275 332.021 325.724C332.021 326.045 331.963 326.359 331.847 326.666C331.733 326.97 331.534 327.309 331.25 327.684C330.969 328.057 330.578 328.511 330.078 329.048L328.118 331.145V331.213H332.175V332.15H326.669ZM333.543 330.361V329.491L337.378 323.423H338.009V324.77H337.582L334.685 329.355V329.423H339.849V330.361H333.543ZM337.651 332.15V330.096V329.692V323.423H338.656V332.15H337.651Z" fill="black" fill-opacity="0.7"/>
</g>
</g>
<defs>
<clipPath id="clip0_792_7210">
<rect width="484" height="24" fill="white" transform="translate(8 315.65)"/>
</clipPath>
<clipPath id="clip1_792_7210">
<rect width="206" height="24" fill="white" transform="translate(147 315.65)"/>
</clipPath>
</defs>
</svg>
