<svg width="500" height="348" viewBox="0 0 500 348" fill="none" xmlns="http://www.w3.org/2000/svg">
<rect width="500" height="347.573" transform="translate(0 0.078125)" fill="white"/>
<path d="M15.8523 36.1974C15.2898 36.1974 14.7884 36.1009 14.348 35.9077C13.9105 35.7145 13.5625 35.446 13.304 35.1023C13.0483 34.7557 12.9091 34.3537 12.8864 33.8963H13.9602C13.983 34.1776 14.0795 34.4205 14.25 34.625C14.4205 34.8267 14.6435 34.983 14.919 35.0938C15.1946 35.2045 15.5 35.2599 15.8352 35.2599C16.2102 35.2599 16.5426 35.1946 16.8324 35.0639C17.1222 34.9332 17.3494 34.7514 17.5142 34.5185C17.679 34.2855 17.7614 34.0156 17.7614 33.7088C17.7614 33.3878 17.6818 33.1051 17.5227 32.8608C17.3636 32.6136 17.1307 32.4205 16.8239 32.2812C16.517 32.142 16.142 32.0724 15.6989 32.0724H15V31.1349H15.6989C16.0455 31.1349 16.3494 31.0724 16.6108 30.9474C16.875 30.8224 17.081 30.6463 17.2287 30.419C17.3793 30.1918 17.4545 29.9247 17.4545 29.6179C17.4545 29.3224 17.3892 29.0653 17.2585 28.8466C17.1278 28.6278 16.9432 28.4574 16.7045 28.3352C16.4688 28.2131 16.1903 28.152 15.8693 28.152C15.5682 28.152 15.2841 28.2074 15.017 28.3182C14.7528 28.4261 14.5369 28.5838 14.3693 28.7912C14.2017 28.9957 14.1108 29.2429 14.0966 29.5327H13.0739C13.0909 29.0753 13.2287 28.6747 13.4872 28.331C13.7457 27.9844 14.0838 27.7145 14.5014 27.5213C14.9219 27.3281 15.3835 27.2315 15.8864 27.2315C16.4261 27.2315 16.8892 27.3409 17.2756 27.5597C17.6619 27.7756 17.9588 28.0611 18.1662 28.4162C18.3736 28.7713 18.4773 29.1548 18.4773 29.5668C18.4773 30.0582 18.348 30.4773 18.0895 30.8239C17.8338 31.1705 17.4858 31.4105 17.0455 31.544V31.6122C17.5966 31.7031 18.027 31.9375 18.3366 32.3153C18.6463 32.6903 18.8011 33.1548 18.8011 33.7088C18.8011 34.1832 18.6719 34.6094 18.4134 34.9872C18.1577 35.3622 17.8082 35.6577 17.3651 35.8736C16.9219 36.0895 16.4176 36.1974 15.8523 36.1974ZM23.3906 36.1974C22.7486 36.1974 22.2017 36.0227 21.75 35.6733C21.2983 35.321 20.9531 34.8111 20.7145 34.1435C20.4759 33.473 20.3565 32.6634 20.3565 31.7145C20.3565 30.7713 20.4759 29.9659 20.7145 29.2983C20.956 28.6278 21.3026 28.1165 21.7543 27.7642C22.2088 27.4091 22.7543 27.2315 23.3906 27.2315C24.027 27.2315 24.571 27.4091 25.0227 27.7642C25.4773 28.1165 25.8239 28.6278 26.0625 29.2983C26.304 29.9659 26.4247 30.7713 26.4247 31.7145C26.4247 32.6634 26.3054 33.473 26.0668 34.1435C25.8281 34.8111 25.483 35.321 25.0312 35.6733C24.5795 36.0227 24.0327 36.1974 23.3906 36.1974ZM23.3906 35.2599C24.027 35.2599 24.5213 34.9531 24.8736 34.3395C25.2259 33.7259 25.402 32.8509 25.402 31.7145C25.402 30.9588 25.321 30.3153 25.1591 29.7841C25 29.2528 24.7699 28.848 24.4688 28.5696C24.1705 28.2912 23.8111 28.152 23.3906 28.152C22.7599 28.152 22.267 28.4631 21.9119 29.0852C21.5568 29.7045 21.3793 30.581 21.3793 31.7145C21.3793 32.4702 21.4588 33.1122 21.6179 33.6406C21.777 34.169 22.0057 34.571 22.304 34.8466C22.6051 35.1222 22.9673 35.2599 23.3906 35.2599ZM30.8906 36.1974C30.2486 36.1974 29.7017 36.0227 29.25 35.6733C28.7983 35.321 28.4531 34.8111 28.2145 34.1435C27.9759 33.473 27.8565 32.6634 27.8565 31.7145C27.8565 30.7713 27.9759 29.9659 28.2145 29.2983C28.456 28.6278 28.8026 28.1165 29.2543 27.7642C29.7088 27.4091 30.2543 27.2315 30.8906 27.2315C31.527 27.2315 32.071 27.4091 32.5227 27.7642C32.9773 28.1165 33.3239 28.6278 33.5625 29.2983C33.804 29.9659 33.9247 30.7713 33.9247 31.7145C33.9247 32.6634 33.8054 33.473 33.5668 34.1435C33.3281 34.8111 32.983 35.321 32.5312 35.6733C32.0795 36.0227 31.5327 36.1974 30.8906 36.1974ZM30.8906 35.2599C31.527 35.2599 32.0213 34.9531 32.3736 34.3395C32.7259 33.7259 32.902 32.8509 32.902 31.7145C32.902 30.9588 32.821 30.3153 32.6591 29.7841C32.5 29.2528 32.2699 28.848 31.9688 28.5696C31.6705 28.2912 31.3111 28.152 30.8906 28.152C30.2599 28.152 29.767 28.4631 29.4119 29.0852C29.0568 29.7045 28.8793 30.581 28.8793 31.7145C28.8793 32.4702 28.9588 33.1122 29.1179 33.6406C29.277 34.169 29.5057 34.571 29.804 34.8466C30.1051 35.1222 30.4673 35.2599 30.8906 35.2599Z" fill="black" fill-opacity="0.7"/>
<path d="M12.9034 87.1934V86.4263L15.7841 83.2729C16.1222 82.9036 16.4006 82.5826 16.6193 82.3098C16.8381 82.0343 17 81.7757 17.1051 81.5343C17.2131 81.29 17.267 81.0343 17.267 80.7672C17.267 80.4604 17.1932 80.1948 17.0455 79.9703C16.9006 79.7459 16.7017 79.5726 16.4489 79.4505C16.196 79.3283 15.9119 79.2672 15.5966 79.2672C15.2614 79.2672 14.9688 79.3368 14.7188 79.476C14.4716 79.6124 14.2798 79.8042 14.1435 80.0513C14.0099 80.2985 13.9432 80.5882 13.9432 80.9206H12.9375C12.9375 80.4093 13.0554 79.9604 13.2912 79.574C13.527 79.1877 13.848 78.8865 14.2543 78.6706C14.6634 78.4547 15.1222 78.3468 15.6307 78.3468C16.142 78.3468 16.5952 78.4547 16.9901 78.6706C17.3849 78.8865 17.6946 79.1777 17.919 79.5442C18.1435 79.9107 18.2557 80.3184 18.2557 80.7672C18.2557 81.0882 18.1974 81.4022 18.081 81.709C17.9673 82.013 17.7685 82.3525 17.4844 82.7275C17.2031 83.0996 16.8125 83.5542 16.3125 84.0911L14.3523 86.1877V86.2559H18.4091V87.1934H12.9034ZM19.777 85.4036V84.5343L23.6122 78.4661H24.2429V79.8127H23.8168L20.919 84.3979V84.4661H26.0838V85.4036H19.777ZM23.8849 87.1934V85.1394V84.7346V78.4661H24.8906V87.1934H23.8849ZM30.5273 87.3127C29.8853 87.3127 29.3384 87.138 28.8867 86.7885C28.435 86.4363 28.0898 85.9263 27.8512 85.2587C27.6126 84.5882 27.4933 83.7786 27.4933 82.8297C27.4933 81.8865 27.6126 81.0811 27.8512 80.4135C28.0927 79.7431 28.4393 79.2317 28.891 78.8794C29.3455 78.5243 29.891 78.3468 30.5273 78.3468C31.1637 78.3468 31.7077 78.5243 32.1594 78.8794C32.614 79.2317 32.9606 79.7431 33.1992 80.4135C33.4407 81.0811 33.5614 81.8865 33.5614 82.8297C33.5614 83.7786 33.4421 84.5882 33.2035 85.2587C32.9648 85.9263 32.6197 86.4363 32.168 86.7885C31.7163 87.138 31.1694 87.3127 30.5273 87.3127ZM30.5273 86.3752C31.1637 86.3752 31.658 86.0684 32.0103 85.4547C32.3626 84.8411 32.5387 83.9661 32.5387 82.8297C32.5387 82.074 32.4577 81.4306 32.2958 80.8993C32.1367 80.3681 31.9066 79.9632 31.6055 79.6848C31.3072 79.4064 30.9478 79.2672 30.5273 79.2672C29.8967 79.2672 29.4038 79.5783 29.0487 80.2005C28.6935 80.8198 28.516 81.6962 28.516 82.8297C28.516 83.5854 28.5955 84.2275 28.7546 84.7559C28.9137 85.2843 29.1424 85.6863 29.4407 85.9618C29.7418 86.2374 30.104 86.3752 30.5273 86.3752Z" fill="black" fill-opacity="0.7"/>
<path d="M17.9716 129.579V138.307H16.9148V130.687H16.8636L14.733 132.102V131.028L16.9148 129.579H17.9716ZM23.277 138.426C22.6918 138.426 22.1747 138.322 21.7259 138.115C21.2798 137.905 20.9318 137.616 20.6818 137.25C20.4318 136.881 20.3082 136.46 20.3111 135.988C20.3082 135.619 20.3807 135.278 20.5284 134.966C20.6761 134.65 20.8778 134.388 21.1335 134.177C21.392 133.964 21.6804 133.829 21.9986 133.773V133.721C21.581 133.613 21.2486 133.379 21.0014 133.018C20.7543 132.655 20.6321 132.241 20.6349 131.778C20.6321 131.335 20.7443 130.939 20.9716 130.589C21.1989 130.24 21.5114 129.964 21.9091 129.763C22.3097 129.561 22.7656 129.46 23.277 129.46C23.7827 129.46 24.2344 129.561 24.6321 129.763C25.0298 129.964 25.3423 130.24 25.5696 130.589C25.7997 130.939 25.9162 131.335 25.919 131.778C25.9162 132.241 25.7898 132.655 25.5398 133.018C25.2926 133.379 24.9645 133.613 24.5554 133.721V133.773C24.8707 133.829 25.1548 133.964 25.4077 134.177C25.6605 134.388 25.8622 134.65 26.0128 134.966C26.1634 135.278 26.2401 135.619 26.2429 135.988C26.2401 136.46 26.1122 136.881 25.8594 137.25C25.6094 137.616 25.2614 137.905 24.8153 138.115C24.3722 138.322 23.8594 138.426 23.277 138.426ZM23.277 137.488C23.6719 137.488 24.0128 137.425 24.2997 137.297C24.5866 137.169 24.8082 136.988 24.9645 136.756C25.1207 136.523 25.2003 136.25 25.2031 135.937C25.2003 135.608 25.1151 135.317 24.9474 135.064C24.7798 134.811 24.5511 134.612 24.2614 134.467C23.9744 134.322 23.6463 134.25 23.277 134.25C22.9048 134.25 22.5724 134.322 22.2798 134.467C21.9901 134.612 21.7614 134.811 21.5938 135.064C21.429 135.317 21.348 135.608 21.3509 135.937C21.348 136.25 21.4233 136.523 21.5767 136.756C21.733 136.988 21.956 137.169 22.2457 137.297C22.5355 137.425 22.8793 137.488 23.277 137.488ZM23.277 133.346C23.5895 133.346 23.8665 133.284 24.108 133.159C24.3523 133.034 24.544 132.859 24.6832 132.635C24.8224 132.41 24.8935 132.148 24.8963 131.846C24.8935 131.551 24.8239 131.294 24.6875 131.075C24.5511 130.854 24.3622 130.683 24.1207 130.564C23.8793 130.442 23.598 130.381 23.277 130.381C22.9503 130.381 22.6648 130.442 22.4205 130.564C22.1761 130.683 21.9872 130.854 21.8537 131.075C21.7202 131.294 21.6548 131.551 21.6577 131.846C21.6548 132.148 21.7216 132.41 21.858 132.635C21.9972 132.859 22.1889 133.034 22.4332 133.159C22.6776 133.284 22.9588 133.346 23.277 133.346ZM30.7227 138.426C30.0806 138.426 29.5337 138.251 29.082 137.902C28.6303 137.55 28.2852 137.04 28.0465 136.372C27.8079 135.702 27.6886 134.892 27.6886 133.943C27.6886 133 27.8079 132.194 28.0465 131.527C28.288 130.856 28.6346 130.345 29.0863 129.993C29.5408 129.638 30.0863 129.46 30.7227 129.46C31.359 129.46 31.9031 129.638 32.3548 129.993C32.8093 130.345 33.1559 130.856 33.3945 131.527C33.636 132.194 33.7567 133 33.7567 133.943C33.7567 134.892 33.6374 135.702 33.3988 136.372C33.1602 137.04 32.815 137.55 32.3633 137.902C31.9116 138.251 31.3647 138.426 30.7227 138.426ZM30.7227 137.488C31.359 137.488 31.8533 137.182 32.2056 136.568C32.5579 135.954 32.734 135.079 32.734 133.943C32.734 133.187 32.6531 132.544 32.4911 132.013C32.332 131.481 32.1019 131.077 31.8008 130.798C31.5025 130.52 31.1431 130.381 30.7227 130.381C30.092 130.381 29.5991 130.692 29.244 131.314C28.8888 131.933 28.7113 132.809 28.7113 133.943C28.7113 134.699 28.7908 135.341 28.9499 135.869C29.109 136.398 29.3377 136.8 29.636 137.075C29.9371 137.351 30.2994 137.488 30.7227 137.488Z" fill="black" fill-opacity="0.7"/>
<path d="M17.9716 180.695V189.422H16.9148V181.803H16.8636L14.733 183.217V182.143L16.9148 180.695H17.9716ZM20.4815 189.422V188.655L23.3622 185.501C23.7003 185.132 23.9787 184.811 24.1974 184.538C24.4162 184.263 24.5781 184.004 24.6832 183.763C24.7912 183.518 24.8452 183.263 24.8452 182.996C24.8452 182.689 24.7713 182.423 24.6236 182.199C24.4787 181.974 24.2798 181.801 24.027 181.679C23.7741 181.557 23.4901 181.496 23.1747 181.496C22.8395 181.496 22.5469 181.565 22.2969 181.705C22.0497 181.841 21.858 182.033 21.7216 182.28C21.5881 182.527 21.5213 182.817 21.5213 183.149H20.5156C20.5156 182.638 20.6335 182.189 20.8693 181.803C21.1051 181.416 21.4261 181.115 21.8324 180.899C22.2415 180.683 22.7003 180.575 23.2088 180.575C23.7202 180.575 24.1733 180.683 24.5682 180.899C24.9631 181.115 25.2727 181.406 25.4972 181.773C25.7216 182.139 25.8338 182.547 25.8338 182.996C25.8338 183.317 25.7756 183.631 25.6591 183.938C25.5455 184.241 25.3466 184.581 25.0625 184.956C24.7812 185.328 24.3906 185.783 23.8906 186.32L21.9304 188.416V188.484H25.9872V189.422H20.4815ZM30.5938 189.541C29.9517 189.541 29.4048 189.366 28.9531 189.017C28.5014 188.665 28.1563 188.155 27.9176 187.487C27.679 186.817 27.5597 186.007 27.5597 185.058C27.5597 184.115 27.679 183.31 27.9176 182.642C28.1591 181.972 28.5057 181.46 28.9574 181.108C29.4119 180.753 29.9574 180.575 30.5938 180.575C31.2301 180.575 31.7741 180.753 32.2259 181.108C32.6804 181.46 33.027 181.972 33.2656 182.642C33.5071 183.31 33.6278 184.115 33.6278 185.058C33.6278 186.007 33.5085 186.817 33.2699 187.487C33.0312 188.155 32.6861 188.665 32.2344 189.017C31.7827 189.366 31.2358 189.541 30.5938 189.541ZM30.5938 188.604C31.2301 188.604 31.7244 188.297 32.0767 187.683C32.429 187.07 32.6051 186.195 32.6051 185.058C32.6051 184.303 32.5241 183.659 32.3622 183.128C32.2031 182.597 31.973 182.192 31.6719 181.913C31.3736 181.635 31.0142 181.496 30.5938 181.496C29.9631 181.496 29.4702 181.807 29.1151 182.429C28.7599 183.048 28.5824 183.925 28.5824 185.058C28.5824 185.814 28.6619 186.456 28.821 186.984C28.9801 187.513 29.2088 187.915 29.5071 188.19C29.8082 188.466 30.1705 188.604 30.5938 188.604Z" fill="black" fill-opacity="0.7"/>
<path d="M23.8011 240.656C23.4432 240.651 23.0852 240.583 22.7273 240.452C22.3693 240.321 22.0426 240.101 21.7472 239.791C21.4517 239.479 21.2145 239.057 21.0355 238.526C20.8565 237.992 20.767 237.321 20.767 236.514C20.767 235.742 20.8395 235.057 20.9844 234.46C21.1293 233.861 21.3395 233.357 21.6151 232.948C21.8906 232.536 22.223 232.223 22.6122 232.01C23.0043 231.797 23.446 231.691 23.9375 231.691C24.4261 231.691 24.8608 231.789 25.2415 231.985C25.625 232.178 25.9375 232.448 26.179 232.794C26.4205 233.141 26.5767 233.54 26.6477 233.992H25.608C25.5114 233.6 25.3239 233.274 25.0455 233.016C24.767 232.757 24.3977 232.628 23.9375 232.628C23.2614 232.628 22.7287 232.922 22.3395 233.51C21.9531 234.098 21.7585 234.923 21.7557 235.986H21.8239C21.983 235.744 22.1719 235.539 22.3906 235.368C22.6122 235.195 22.8565 235.061 23.1236 234.968C23.3906 234.874 23.6733 234.827 23.9716 234.827C24.4716 234.827 24.929 234.952 25.3438 235.202C25.7585 235.449 26.0909 235.791 26.3409 236.229C26.5909 236.664 26.7159 237.162 26.7159 237.725C26.7159 238.264 26.5952 238.759 26.3537 239.208C26.1122 239.654 25.7727 240.009 25.3352 240.273C24.9006 240.534 24.3892 240.662 23.8011 240.656ZM23.8011 239.719C24.1591 239.719 24.4801 239.629 24.7642 239.45C25.0511 239.271 25.277 239.031 25.4418 238.73C25.6094 238.429 25.6932 238.094 25.6932 237.725C25.6932 237.364 25.6122 237.036 25.4503 236.74C25.2912 236.442 25.071 236.205 24.7898 236.029C24.5114 235.852 24.1932 235.764 23.8352 235.764C23.5653 235.764 23.3139 235.818 23.081 235.926C22.848 236.031 22.6435 236.176 22.4673 236.361C22.294 236.546 22.1577 236.757 22.0582 236.996C21.9588 237.232 21.9091 237.48 21.9091 237.742C21.9091 238.088 21.9901 238.412 22.152 238.713C22.3168 239.014 22.5412 239.257 22.8253 239.442C23.1122 239.627 23.4375 239.719 23.8011 239.719ZM31.2383 240.656C30.5962 240.656 30.0494 240.482 29.5977 240.132C29.146 239.78 28.8008 239.27 28.5621 238.602C28.3235 237.932 28.2042 237.122 28.2042 236.173C28.2042 235.23 28.3235 234.425 28.5621 233.757C28.8036 233.087 29.1502 232.575 29.6019 232.223C30.0565 231.868 30.6019 231.691 31.2383 231.691C31.8746 231.691 32.4187 231.868 32.8704 232.223C33.3249 232.575 33.6715 233.087 33.9102 233.757C34.1516 234.425 34.2724 235.23 34.2724 236.173C34.2724 237.122 34.1531 237.932 33.9144 238.602C33.6758 239.27 33.3306 239.78 32.8789 240.132C32.4272 240.482 31.8803 240.656 31.2383 240.656ZM31.2383 239.719C31.8746 239.719 32.369 239.412 32.7212 238.798C33.0735 238.185 33.2496 237.31 33.2496 236.173C33.2496 235.418 33.1687 234.774 33.0067 234.243C32.8477 233.712 32.6175 233.307 32.3164 233.029C32.0181 232.75 31.6587 232.611 31.2383 232.611C30.6076 232.611 30.1147 232.922 29.7596 233.544C29.4045 234.164 29.2269 235.04 29.2269 236.173C29.2269 236.929 29.3065 237.571 29.4656 238.1C29.6246 238.628 29.8533 239.03 30.1516 239.306C30.4528 239.581 30.815 239.719 31.2383 239.719Z" fill="black" fill-opacity="0.7"/>
<path d="M30.75 291.77C30.108 291.77 29.5611 291.595 29.1094 291.246C28.6577 290.893 28.3125 290.383 28.0739 289.716C27.8352 289.045 27.7159 288.236 27.7159 287.287C27.7159 286.344 27.8352 285.538 28.0739 284.871C28.3153 284.2 28.6619 283.689 29.1136 283.336C29.5682 282.981 30.1136 282.804 30.75 282.804C31.3864 282.804 31.9304 282.981 32.3821 283.336C32.8366 283.689 33.1832 284.2 33.4219 284.871C33.6634 285.538 33.7841 286.344 33.7841 287.287C33.7841 288.236 33.6648 289.045 33.4261 289.716C33.1875 290.383 32.8423 290.893 32.3906 291.246C31.9389 291.595 31.392 291.77 30.75 291.77ZM30.75 290.832C31.3864 290.832 31.8807 290.525 32.233 289.912C32.5852 289.298 32.7614 288.423 32.7614 287.287C32.7614 286.531 32.6804 285.888 32.5185 285.356C32.3594 284.825 32.1293 284.42 31.8281 284.142C31.5298 283.863 31.1705 283.724 30.75 283.724C30.1193 283.724 29.6264 284.035 29.2713 284.657C28.9162 285.277 28.7386 286.153 28.7386 287.287C28.7386 288.042 28.8182 288.684 28.9773 289.213C29.1364 289.741 29.3651 290.143 29.6634 290.419C29.9645 290.694 30.3267 290.832 30.75 290.832Z" fill="black" fill-opacity="0.7"/>
<line x1="40" y1="29.5781" x2="491" y2="29.5781" stroke="#00001A" stroke-opacity="0.15" stroke-dasharray="2"/>
<line x1="40" y1="81.293" x2="491" y2="81.293" stroke="#00001A" stroke-opacity="0.15" stroke-dasharray="2"/>
<line x1="40" y1="133.008" x2="491" y2="133.008" stroke="#00001A" stroke-opacity="0.15" stroke-dasharray="2"/>
<line x1="40" y1="184.723" x2="491" y2="184.723" stroke="#00001A" stroke-opacity="0.15" stroke-dasharray="2"/>
<line x1="40" y1="236.436" x2="491" y2="236.436" stroke="#00001A" stroke-opacity="0.15" stroke-dasharray="2"/>
<line x1="40" y1="288.15" x2="491" y2="288.15" stroke="#00001A" stroke-opacity="0.3"/>
<line x1="39.5" y1="288.65" x2="39.5" y2="30.0776" stroke="#00001A" stroke-opacity="0.15" stroke-dasharray="2"/>
<line x1="114.666" y1="288.65" x2="114.666" y2="30.0776" stroke="#00001A" stroke-opacity="0.15" stroke-dasharray="2"/>
<line x1="189.834" y1="288.65" x2="189.834" y2="30.0776" stroke="#00001A" stroke-opacity="0.15" stroke-dasharray="2"/>
<line x1="265" y1="288.65" x2="265" y2="30.0776" stroke="#00001A" stroke-opacity="0.15" stroke-dasharray="2"/>
<line x1="340.166" y1="288.65" x2="340.166" y2="30.0776" stroke="#00001A" stroke-opacity="0.15" stroke-dasharray="2"/>
<line x1="415.334" y1="288.65" x2="415.334" y2="30.0776" stroke="#00001A" stroke-opacity="0.15" stroke-dasharray="2"/>
<line x1="490.5" y1="288.65" x2="490.5" y2="30.0776" stroke="#00001A" stroke-opacity="0.15" stroke-dasharray="2"/>
<rect opacity="0.8" x="54" y="278.207" width="46" height="9.44434" fill="#E9C46A"/>
<rect opacity="0.8" x="54" y="262.752" width="46" height="15.4544" fill="#264653"/>
<rect opacity="0.8" x="54" y="232.701" width="46" height="30.0502" fill="#2A9D8F"/>
<rect opacity="0.8" x="129.5" y="267.904" width="46" height="19.7472" fill="#E9C46A"/>
<rect opacity="0.8" x="129.5" y="249.016" width="46" height="18.8887" fill="#264653"/>
<rect opacity="0.8" x="129.5" y="231.844" width="46" height="17.1715" fill="#2A9D8F"/>
<rect opacity="0.8" x="205" y="261.895" width="46" height="25.7573" fill="#E9C46A"/>
<rect opacity="0.8" x="205" y="231.844" width="46" height="30.0502" fill="#264653"/>
<rect opacity="0.8" x="205" y="171.744" width="46" height="60.1003" fill="#2A9D8F"/>
<rect opacity="0.8" x="280.5" y="256.742" width="46" height="30.9087" fill="#E9C46A"/>
<rect opacity="0.8" x="280.5" y="195.783" width="46" height="60.9589" fill="#264653"/>
<rect opacity="0.8" x="280.5" y="119.369" width="46" height="76.4133" fill="#2A9D8F"/>
<rect opacity="0.8" x="356" y="214.672" width="46" height="72.979" fill="#E9C46A"/>
<rect opacity="0.8" x="356" y="131.391" width="46" height="83.2819" fill="#264653"/>
<rect opacity="0.8" x="356" y="69.5723" width="46" height="61.8175" fill="#2A9D8F"/>
<rect opacity="0.8" x="431.5" y="230.127" width="46" height="57.5246" fill="#E9C46A"/>
<rect opacity="0.8" x="431.5" y="181.188" width="46" height="48.9388" fill="#264653"/>
<rect opacity="0.8" x="431.5" y="130.531" width="46" height="50.656" fill="#2A9D8F"/>
<path d="M44.476 296.861V295.923H51.0215V296.861H48.2772V304.65H47.2203V296.861H44.476ZM54.3113 304.787C53.6806 304.787 53.1365 304.648 52.6792 304.369C52.2246 304.088 51.8738 303.696 51.6266 303.193C51.3823 302.687 51.2601 302.099 51.2601 301.429C51.2601 300.758 51.3823 300.167 51.6266 299.656C51.8738 299.142 52.2175 298.741 52.6578 298.454C53.101 298.165 53.6181 298.02 54.209 298.02C54.5499 298.02 54.8865 298.077 55.2189 298.19C55.5513 298.304 55.8539 298.488 56.1266 298.744C56.3993 298.997 56.6167 299.332 56.7786 299.75C56.9405 300.167 57.0215 300.682 57.0215 301.292V301.719H51.976V300.849H55.9988C55.9988 300.48 55.9249 300.15 55.7772 299.861C55.6323 299.571 55.4249 299.342 55.155 299.175C54.888 299.007 54.5726 298.923 54.209 298.923C53.8084 298.923 53.4618 299.023 53.1692 299.221C52.8794 299.417 52.6564 299.673 52.5002 299.988C52.3439 300.304 52.2658 300.642 52.2658 301.003V301.582C52.2658 302.077 52.351 302.496 52.5215 302.839C52.6948 303.18 52.9348 303.44 53.2417 303.619C53.5485 303.795 53.905 303.883 54.3113 303.883C54.5755 303.883 54.8141 303.846 55.0272 303.773C55.2431 303.696 55.4292 303.582 55.5854 303.432C55.7417 303.278 55.8624 303.088 55.9476 302.861L56.9192 303.133C56.8169 303.463 56.6451 303.753 56.4036 304.003C56.1621 304.25 55.8638 304.443 55.5087 304.582C55.1536 304.719 54.7544 304.787 54.3113 304.787ZM61.2104 304.787C60.5968 304.787 60.0684 304.642 59.6252 304.352C59.182 304.062 58.8411 303.663 58.6025 303.155C58.3638 302.646 58.2445 302.065 58.2445 301.412C58.2445 300.747 58.3667 300.16 58.611 299.652C58.8581 299.14 59.2019 298.741 59.6422 298.454C60.0854 298.165 60.6025 298.02 61.1934 298.02C61.6536 298.02 62.0684 298.105 62.4377 298.275C62.807 298.446 63.1096 298.684 63.3453 298.991C63.5811 299.298 63.7275 299.656 63.7843 300.065H62.7786C62.7019 299.767 62.5314 299.503 62.2672 299.273C62.0059 299.04 61.6536 298.923 61.2104 298.923C60.8184 298.923 60.4746 299.025 60.1792 299.23C59.8865 299.432 59.6578 299.717 59.4931 300.086C59.3311 300.453 59.2502 300.883 59.2502 301.378C59.2502 301.883 59.3297 302.324 59.4888 302.699C59.6507 303.074 59.878 303.365 60.1706 303.572C60.4661 303.78 60.8127 303.883 61.2104 303.883C61.4718 303.883 61.709 303.838 61.9221 303.747C62.1351 303.656 62.3155 303.525 62.4632 303.355C62.611 303.184 62.7161 302.98 62.7786 302.741H63.7843C63.7275 303.128 63.5868 303.476 63.3624 303.785C63.1408 304.092 62.8468 304.336 62.4803 304.518C62.1167 304.697 61.6934 304.787 61.2104 304.787ZM66.2601 300.713V304.65H65.2544V295.923H66.2601V299.128H66.3453C66.4988 298.79 66.7289 298.521 67.0357 298.322C67.3453 298.121 67.7573 298.02 68.2715 298.02C68.7175 298.02 69.1081 298.109 69.4434 298.288C69.7786 298.464 70.0385 298.736 70.2232 299.102C70.4107 299.466 70.5044 299.929 70.5044 300.491V304.65H69.4988V300.559C69.4988 300.04 69.3638 299.638 69.0939 299.354C68.8269 299.067 68.4561 298.923 67.9817 298.923C67.6522 298.923 67.3567 298.993 67.0953 299.132C66.8368 299.271 66.6323 299.474 66.4817 299.741C66.334 300.008 66.2601 300.332 66.2601 300.713ZM73.35 300.713V304.65H72.3443V298.105H73.3159V299.128H73.4011C73.5545 298.795 73.7875 298.528 74.1 298.327C74.4125 298.122 74.8159 298.02 75.3102 298.02C75.7534 298.02 76.1412 298.111 76.4735 298.292C76.8059 298.471 77.0645 298.744 77.2491 299.111C77.4338 299.474 77.5261 299.934 77.5261 300.491V304.65H76.5204V300.559C76.5204 300.045 76.3869 299.645 76.1199 299.358C75.8528 299.068 75.4863 298.923 75.0204 298.923C74.6994 298.923 74.4125 298.993 74.1596 299.132C73.9096 299.271 73.7122 299.474 73.5673 299.741C73.4224 300.008 73.35 300.332 73.35 300.713ZM82.0229 304.787C81.432 304.787 80.9135 304.646 80.4675 304.365C80.0243 304.084 79.6777 303.69 79.4277 303.184C79.1806 302.679 79.057 302.088 79.057 301.412C79.057 300.73 79.1806 300.135 79.4277 299.626C79.6777 299.118 80.0243 298.723 80.4675 298.442C80.9135 298.16 81.432 298.02 82.0229 298.02C82.6138 298.02 83.1309 298.16 83.574 298.442C84.0201 298.723 84.3667 299.118 84.6138 299.626C84.8638 300.135 84.9888 300.73 84.9888 301.412C84.9888 302.088 84.8638 302.679 84.6138 303.184C84.3667 303.69 84.0201 304.084 83.574 304.365C83.1309 304.646 82.6138 304.787 82.0229 304.787ZM82.0229 303.883C82.4718 303.883 82.8411 303.768 83.1309 303.538C83.4206 303.308 83.6351 303.006 83.7743 302.631C83.9135 302.256 83.9831 301.849 83.9831 301.412C83.9831 300.974 83.9135 300.567 83.7743 300.189C83.6351 299.811 83.4206 299.506 83.1309 299.273C82.8411 299.04 82.4718 298.923 82.0229 298.923C81.574 298.923 81.2047 299.04 80.915 299.273C80.6252 299.506 80.4107 299.811 80.2715 300.189C80.1323 300.567 80.0627 300.974 80.0627 301.412C80.0627 301.849 80.1323 302.256 80.2715 302.631C80.4107 303.006 80.6252 303.308 80.915 303.538C81.2047 303.768 81.574 303.883 82.0229 303.883ZM87.5297 295.923V304.65H86.524V295.923H87.5297ZM92.0307 304.787C91.4398 304.787 90.9213 304.646 90.4753 304.365C90.0321 304.084 89.6855 303.69 89.4355 303.184C89.1884 302.679 89.0648 302.088 89.0648 301.412C89.0648 300.73 89.1884 300.135 89.4355 299.626C89.6855 299.118 90.0321 298.723 90.4753 298.442C90.9213 298.16 91.4398 298.02 92.0307 298.02C92.6216 298.02 93.1387 298.16 93.5819 298.442C94.0279 298.723 94.3745 299.118 94.6216 299.626C94.8716 300.135 94.9966 300.73 94.9966 301.412C94.9966 302.088 94.8716 302.679 94.6216 303.184C94.3745 303.69 94.0279 304.084 93.5819 304.365C93.1387 304.646 92.6216 304.787 92.0307 304.787ZM92.0307 303.883C92.4796 303.883 92.8489 303.768 93.1387 303.538C93.4284 303.308 93.6429 303.006 93.7821 302.631C93.9213 302.256 93.9909 301.849 93.9909 301.412C93.9909 300.974 93.9213 300.567 93.7821 300.189C93.6429 299.811 93.4284 299.506 93.1387 299.273C92.8489 299.04 92.4796 298.923 92.0307 298.923C91.5819 298.923 91.2125 299.04 90.9228 299.273C90.633 299.506 90.4185 299.811 90.2793 300.189C90.1401 300.567 90.0705 300.974 90.0705 301.412C90.0705 301.849 90.1401 302.256 90.2793 302.631C90.4185 303.006 90.633 303.308 90.9228 303.538C91.2125 303.768 91.5819 303.883 92.0307 303.883ZM99.1738 307.241C98.688 307.241 98.2704 307.179 97.921 307.054C97.5716 306.932 97.2804 306.77 97.0474 306.568C96.8173 306.369 96.6341 306.156 96.4977 305.929L97.2988 305.366C97.3897 305.486 97.5048 305.622 97.644 305.775C97.7832 305.932 97.9735 306.067 98.215 306.18C98.4593 306.297 98.7789 306.355 99.1738 306.355C99.7022 306.355 100.138 306.227 100.482 305.971C100.826 305.716 100.998 305.315 100.998 304.77V303.44H100.912C100.839 303.559 100.733 303.707 100.597 303.883C100.464 304.057 100.27 304.211 100.018 304.348C99.7676 304.481 99.4295 304.548 99.0034 304.548C98.475 304.548 98.0005 304.423 97.5801 304.173C97.1625 303.923 96.8315 303.559 96.5872 303.082C96.3457 302.605 96.225 302.025 96.225 301.344C96.225 300.673 96.3429 300.089 96.5787 299.592C96.8145 299.092 97.1426 298.706 97.563 298.433C97.9835 298.157 98.4693 298.02 99.0204 298.02C99.4466 298.02 99.7846 298.091 100.035 298.233C100.287 298.372 100.481 298.531 100.614 298.71C100.751 298.886 100.856 299.031 100.93 299.145H101.032V298.105H102.003V304.838C102.003 305.4 101.876 305.858 101.62 306.21C101.367 306.565 101.026 306.825 100.597 306.99C100.171 307.157 99.6966 307.241 99.1738 307.241ZM99.1397 303.645C99.5431 303.645 99.8841 303.552 100.162 303.368C100.441 303.183 100.653 302.917 100.797 302.571C100.942 302.224 101.015 301.809 101.015 301.327C101.015 300.855 100.944 300.439 100.802 300.078C100.66 299.717 100.449 299.434 100.171 299.23C99.8926 299.025 99.5488 298.923 99.1397 298.923C98.7136 298.923 98.3585 299.031 98.0744 299.247C97.7931 299.463 97.5815 299.753 97.4395 300.116C97.3002 300.48 97.2306 300.883 97.2306 301.327C97.2306 301.781 97.3017 302.183 97.4437 302.532C97.5886 302.879 97.8017 303.152 98.0829 303.351C98.367 303.547 98.7193 303.645 99.1397 303.645ZM104.492 307.105C104.322 307.105 104.17 307.091 104.036 307.062C103.903 307.037 103.81 307.011 103.759 306.986L104.015 306.099C104.259 306.162 104.475 306.184 104.662 306.167C104.85 306.15 105.016 306.067 105.161 305.916C105.309 305.768 105.444 305.528 105.566 305.196L105.753 304.684L103.333 298.105H104.424L106.231 303.321H106.299L108.106 298.105H109.197L106.418 305.605C106.293 305.943 106.138 306.223 105.954 306.444C105.769 306.669 105.555 306.835 105.31 306.943C105.069 307.051 104.796 307.105 104.492 307.105Z" fill="black" fill-opacity="0.7"/>
<path d="M128.777 298.65H127.72C127.657 298.346 127.548 298.079 127.392 297.849C127.238 297.619 127.051 297.426 126.829 297.27C126.611 297.111 126.368 296.991 126.101 296.912C125.834 296.832 125.555 296.792 125.265 296.792C124.737 296.792 124.258 296.926 123.829 297.193C123.403 297.46 123.064 297.854 122.811 298.373C122.561 298.893 122.436 299.531 122.436 300.287C122.436 301.042 122.561 301.68 122.811 302.2C123.064 302.72 123.403 303.113 123.829 303.381C124.258 303.648 124.737 303.781 125.265 303.781C125.555 303.781 125.834 303.741 126.101 303.662C126.368 303.582 126.611 303.464 126.829 303.308C127.051 303.149 127.238 302.954 127.392 302.724C127.548 302.491 127.657 302.224 127.72 301.923H128.777C128.697 302.369 128.552 302.768 128.342 303.121C128.132 303.473 127.871 303.773 127.558 304.02C127.246 304.264 126.895 304.45 126.506 304.578C126.119 304.706 125.706 304.77 125.265 304.77C124.521 304.77 123.859 304.588 123.28 304.224C122.7 303.861 122.244 303.344 121.912 302.673C121.579 302.003 121.413 301.207 121.413 300.287C121.413 299.366 121.579 298.571 121.912 297.9C122.244 297.23 122.7 296.713 123.28 296.349C123.859 295.986 124.521 295.804 125.265 295.804C125.706 295.804 126.119 295.868 126.506 295.996C126.895 296.123 127.246 296.311 127.558 296.558C127.871 296.802 128.132 297.101 128.342 297.453C128.552 297.802 128.697 298.202 128.777 298.65ZM132.274 304.804C131.86 304.804 131.483 304.726 131.145 304.569C130.807 304.41 130.539 304.182 130.34 303.883C130.141 303.582 130.041 303.219 130.041 302.792C130.041 302.417 130.115 302.113 130.263 301.881C130.411 301.645 130.608 301.46 130.855 301.327C131.102 301.193 131.375 301.094 131.673 301.028C131.975 300.96 132.277 300.906 132.581 300.866C132.979 300.815 133.301 300.777 133.548 300.751C133.798 300.723 133.98 300.676 134.094 300.611C134.21 300.545 134.269 300.432 134.269 300.27V300.236C134.269 299.815 134.154 299.488 133.923 299.256C133.696 299.023 133.351 298.906 132.888 298.906C132.408 298.906 132.031 299.011 131.759 299.221C131.486 299.432 131.294 299.656 131.183 299.895L130.229 299.554C130.399 299.156 130.627 298.846 130.911 298.625C131.198 298.4 131.51 298.244 131.848 298.156C132.189 298.065 132.524 298.02 132.854 298.02C133.064 298.02 133.306 298.045 133.578 298.096C133.854 298.145 134.119 298.246 134.375 298.399C134.634 298.552 134.848 298.784 135.019 299.094C135.189 299.403 135.274 299.818 135.274 300.338V304.65H134.269V303.764H134.218C134.149 303.906 134.036 304.058 133.877 304.22C133.718 304.382 133.506 304.52 133.242 304.633C132.977 304.747 132.655 304.804 132.274 304.804ZM132.428 303.9C132.825 303.9 133.161 303.822 133.433 303.666C133.709 303.51 133.916 303.308 134.056 303.061C134.198 302.814 134.269 302.554 134.269 302.281V301.361C134.226 301.412 134.132 301.459 133.987 301.501C133.845 301.541 133.681 301.577 133.493 301.608C133.308 301.636 133.128 301.662 132.952 301.684C132.779 301.704 132.638 301.721 132.53 301.736C132.269 301.77 132.024 301.825 131.797 301.902C131.573 301.976 131.391 302.088 131.252 302.238C131.115 302.386 131.047 302.588 131.047 302.844C131.047 303.193 131.176 303.457 131.435 303.636C131.696 303.812 132.027 303.9 132.428 303.9ZM137.11 304.65V298.105H138.081V299.094H138.15C138.269 298.77 138.485 298.507 138.797 298.305C139.11 298.104 139.462 298.003 139.854 298.003C139.928 298.003 140.02 298.004 140.131 298.007C140.242 298.01 140.326 298.014 140.383 298.02V299.042C140.349 299.034 140.27 299.021 140.148 299.004C140.029 298.984 139.903 298.974 139.769 298.974C139.451 298.974 139.167 299.041 138.917 299.175C138.67 299.305 138.474 299.487 138.329 299.72C138.187 299.95 138.116 300.213 138.116 300.508V304.65H137.11ZM145.086 304.65V295.923H148.137C148.745 295.923 149.247 296.028 149.642 296.238C150.036 296.446 150.33 296.726 150.524 297.078C150.717 297.427 150.813 297.815 150.813 298.241C150.813 298.616 150.747 298.926 150.613 299.17C150.482 299.415 150.309 299.608 150.093 299.75C149.88 299.892 149.649 299.997 149.399 300.065V300.15C149.666 300.167 149.934 300.261 150.204 300.432C150.474 300.602 150.7 300.846 150.882 301.165C151.063 301.483 151.154 301.872 151.154 302.332C151.154 302.77 151.055 303.163 150.856 303.513C150.657 303.862 150.343 304.139 149.914 304.344C149.485 304.548 148.927 304.65 148.24 304.65H145.086ZM146.143 303.713H148.24C148.93 303.713 149.42 303.579 149.71 303.312C150.002 303.042 150.149 302.716 150.149 302.332C150.149 302.037 150.073 301.764 149.923 301.514C149.772 301.261 149.558 301.059 149.279 300.909C149.001 300.756 148.671 300.679 148.291 300.679H146.143V303.713ZM146.143 299.758H148.103C148.421 299.758 148.708 299.696 148.964 299.571C149.222 299.446 149.427 299.27 149.578 299.042C149.731 298.815 149.808 298.548 149.808 298.241C149.808 297.858 149.674 297.532 149.407 297.265C149.14 296.996 148.717 296.861 148.137 296.861H146.143V299.758ZM152.754 304.65V298.105H153.726V299.094H153.794C153.914 298.77 154.129 298.507 154.442 298.305C154.754 298.104 155.107 298.003 155.499 298.003C155.573 298.003 155.665 298.004 155.776 298.007C155.887 298.01 155.97 298.014 156.027 298.02V299.042C155.993 299.034 155.915 299.021 155.793 299.004C155.673 298.984 155.547 298.974 155.414 298.974C155.095 298.974 154.811 299.041 154.561 299.175C154.314 299.305 154.118 299.487 153.973 299.72C153.831 299.95 153.76 300.213 153.76 300.508V304.65H152.754ZM159.145 304.804C158.731 304.804 158.354 304.726 158.016 304.569C157.678 304.41 157.41 304.182 157.211 303.883C157.012 303.582 156.912 303.219 156.912 302.792C156.912 302.417 156.986 302.113 157.134 301.881C157.282 301.645 157.479 301.46 157.726 301.327C157.974 301.193 158.246 301.094 158.545 301.028C158.846 300.96 159.148 300.906 159.452 300.866C159.85 300.815 160.172 300.777 160.42 300.751C160.67 300.723 160.851 300.676 160.965 300.611C161.081 300.545 161.14 300.432 161.14 300.27V300.236C161.14 299.815 161.025 299.488 160.795 299.256C160.567 299.023 160.222 298.906 159.759 298.906C159.279 298.906 158.903 299.011 158.63 299.221C158.357 299.432 158.165 299.656 158.055 299.895L157.1 299.554C157.27 299.156 157.498 298.846 157.782 298.625C158.069 298.4 158.381 298.244 158.719 298.156C159.06 298.065 159.395 298.02 159.725 298.02C159.935 298.02 160.177 298.045 160.449 298.096C160.725 298.145 160.991 298.246 161.246 298.399C161.505 298.552 161.719 298.784 161.89 299.094C162.06 299.403 162.145 299.818 162.145 300.338V304.65H161.14V303.764H161.089C161.02 303.906 160.907 304.058 160.748 304.22C160.589 304.382 160.377 304.52 160.113 304.633C159.849 304.747 159.526 304.804 159.145 304.804ZM159.299 303.9C159.697 303.9 160.032 303.822 160.305 303.666C160.58 303.51 160.787 303.308 160.927 303.061C161.069 302.814 161.14 302.554 161.14 302.281V301.361C161.097 301.412 161.003 301.459 160.858 301.501C160.716 301.541 160.552 301.577 160.364 301.608C160.18 301.636 159.999 301.662 159.823 301.684C159.65 301.704 159.509 301.721 159.401 301.736C159.14 301.77 158.895 301.825 158.668 301.902C158.444 301.976 158.262 302.088 158.123 302.238C157.986 302.386 157.918 302.588 157.918 302.844C157.918 303.193 158.047 303.457 158.306 303.636C158.567 303.812 158.898 303.9 159.299 303.9ZM164.987 300.713V304.65H163.981V298.105H164.953V299.128H165.038C165.191 298.795 165.424 298.528 165.737 298.327C166.049 298.122 166.453 298.02 166.947 298.02C167.39 298.02 167.778 298.111 168.11 298.292C168.443 298.471 168.701 298.744 168.886 299.111C169.07 299.474 169.163 299.934 169.163 300.491V304.65H168.157V300.559C168.157 300.045 168.024 299.645 167.757 299.358C167.49 299.068 167.123 298.923 166.657 298.923C166.336 298.923 166.049 298.993 165.796 299.132C165.546 299.271 165.349 299.474 165.204 299.741C165.059 300.008 164.987 300.332 164.987 300.713ZM173.472 304.787C172.927 304.787 172.445 304.649 172.028 304.373C171.61 304.095 171.283 303.703 171.047 303.197C170.812 302.689 170.694 302.088 170.694 301.395C170.694 300.707 170.812 300.111 171.047 299.605C171.283 299.099 171.611 298.709 172.032 298.433C172.452 298.157 172.938 298.02 173.489 298.02C173.915 298.02 174.252 298.091 174.499 298.233C174.749 298.372 174.939 298.531 175.07 298.71C175.204 298.886 175.307 299.031 175.381 299.145H175.466V295.923H176.472V304.65H175.501V303.645H175.381C175.307 303.764 175.202 303.915 175.066 304.096C174.93 304.275 174.735 304.436 174.482 304.578C174.229 304.717 173.893 304.787 173.472 304.787ZM173.608 303.883C174.012 303.883 174.353 303.778 174.631 303.568C174.91 303.355 175.121 303.061 175.266 302.686C175.411 302.308 175.483 301.872 175.483 301.378C175.483 300.889 175.412 300.461 175.27 300.095C175.128 299.726 174.918 299.439 174.64 299.234C174.361 299.027 174.018 298.923 173.608 298.923C173.182 298.923 172.827 299.032 172.543 299.251C172.262 299.467 172.05 299.761 171.908 300.133C171.769 300.503 171.699 300.917 171.699 301.378C171.699 301.844 171.77 302.267 171.912 302.648C172.057 303.025 172.27 303.327 172.552 303.551C172.836 303.773 173.188 303.883 173.608 303.883ZM183.09 299.571L182.187 299.827C182.13 299.676 182.046 299.53 181.935 299.388C181.827 299.243 181.68 299.123 181.492 299.03C181.305 298.936 181.064 298.889 180.772 298.889C180.371 298.889 180.037 298.981 179.77 299.166C179.506 299.348 179.374 299.579 179.374 299.861C179.374 300.111 179.465 300.308 179.647 300.453C179.829 300.598 180.113 300.719 180.499 300.815L181.471 301.054C182.056 301.196 182.492 301.413 182.779 301.706C183.066 301.996 183.209 302.369 183.209 302.827C183.209 303.202 183.101 303.537 182.885 303.832C182.672 304.128 182.374 304.361 181.991 304.531C181.607 304.702 181.161 304.787 180.653 304.787C179.985 304.787 179.432 304.642 178.995 304.352C178.557 304.062 178.28 303.639 178.164 303.082L179.118 302.844C179.209 303.196 179.381 303.46 179.634 303.636C179.89 303.812 180.224 303.9 180.635 303.9C181.104 303.9 181.476 303.801 181.752 303.602C182.03 303.4 182.17 303.159 182.17 302.878C182.17 302.65 182.09 302.46 181.931 302.307C181.772 302.15 181.528 302.034 181.198 301.957L180.107 301.702C179.508 301.559 179.067 301.339 178.786 301.041C178.508 300.74 178.368 300.363 178.368 299.912C178.368 299.542 178.472 299.216 178.68 298.932C178.89 298.648 179.175 298.425 179.536 298.263C179.9 298.101 180.312 298.02 180.772 298.02C181.42 298.02 181.928 298.162 182.297 298.446C182.67 298.73 182.934 299.105 183.09 299.571Z" fill="black" fill-opacity="0.7"/>
<path d="M208.434 304.65H207.326L210.531 295.923H211.622L214.826 304.65H213.718L211.11 297.304H211.042L208.434 304.65ZM208.843 301.241H213.309V302.179H208.843V301.241ZM216.12 304.65V298.105H217.125V304.65H216.12ZM216.631 297.014C216.435 297.014 216.266 296.947 216.124 296.814C215.985 296.68 215.915 296.52 215.915 296.332C215.915 296.145 215.985 295.984 216.124 295.851C216.266 295.717 216.435 295.65 216.631 295.65C216.827 295.65 216.995 295.717 217.134 295.851C217.276 295.984 217.347 296.145 217.347 296.332C217.347 296.52 217.276 296.68 217.134 296.814C216.995 296.947 216.827 297.014 216.631 297.014ZM218.967 304.65V298.105H219.939V299.094H220.007C220.126 298.77 220.342 298.507 220.655 298.305C220.967 298.104 221.32 298.003 221.712 298.003C221.786 298.003 221.878 298.004 221.989 298.007C222.099 298.01 222.183 298.014 222.24 298.02V299.042C222.206 299.034 222.128 299.021 222.006 299.004C221.886 298.984 221.76 298.974 221.626 298.974C221.308 298.974 221.024 299.041 220.774 299.175C220.527 299.305 220.331 299.487 220.186 299.72C220.044 299.95 219.973 300.213 219.973 300.508V304.65H218.967ZM224.438 295.923V304.65H223.432V295.923H224.438ZM226.28 304.65V298.105H227.286V304.65H226.28ZM226.791 297.014C226.595 297.014 226.426 296.947 226.284 296.814C226.145 296.68 226.075 296.52 226.075 296.332C226.075 296.145 226.145 295.984 226.284 295.851C226.426 295.717 226.595 295.65 226.791 295.65C226.987 295.65 227.155 295.717 227.294 295.851C227.436 295.984 227.507 296.145 227.507 296.332C227.507 296.52 227.436 296.68 227.294 296.814C227.155 296.947 226.987 297.014 226.791 297.014ZM230.133 300.713V304.65H229.127V298.105H230.099V299.128H230.184C230.338 298.795 230.571 298.528 230.883 298.327C231.196 298.122 231.599 298.02 232.093 298.02C232.537 298.02 232.924 298.111 233.257 298.292C233.589 298.471 233.848 298.744 234.032 299.111C234.217 299.474 234.309 299.934 234.309 300.491V304.65H233.304V300.559C233.304 300.045 233.17 299.645 232.903 299.358C232.636 299.068 232.27 298.923 231.804 298.923C231.483 298.923 231.196 298.993 230.943 299.132C230.693 299.271 230.495 299.474 230.35 299.741C230.206 300.008 230.133 300.332 230.133 300.713ZM238.891 304.787C238.261 304.787 237.717 304.648 237.259 304.369C236.805 304.088 236.454 303.696 236.207 303.193C235.962 302.687 235.84 302.099 235.84 301.429C235.84 300.758 235.962 300.167 236.207 299.656C236.454 299.142 236.798 298.741 237.238 298.454C237.681 298.165 238.198 298.02 238.789 298.02C239.13 298.02 239.467 298.077 239.799 298.19C240.131 298.304 240.434 298.488 240.707 298.744C240.979 298.997 241.197 299.332 241.359 299.75C241.521 300.167 241.602 300.682 241.602 301.292V301.719H236.556V300.849H240.579C240.579 300.48 240.505 300.15 240.357 299.861C240.212 299.571 240.005 299.342 239.735 299.175C239.468 299.007 239.153 298.923 238.789 298.923C238.388 298.923 238.042 299.023 237.749 299.221C237.46 299.417 237.237 299.673 237.08 299.988C236.924 300.304 236.846 300.642 236.846 301.003V301.582C236.846 302.077 236.931 302.496 237.102 302.839C237.275 303.18 237.515 303.44 237.822 303.619C238.129 303.795 238.485 303.883 238.891 303.883C239.156 303.883 239.394 303.846 239.607 303.773C239.823 303.696 240.009 303.582 240.165 303.432C240.322 303.278 240.442 303.088 240.528 302.861L241.499 303.133C241.397 303.463 241.225 303.753 240.984 304.003C240.742 304.25 240.444 304.443 240.089 304.582C239.734 304.719 239.335 304.787 238.891 304.787ZM247.768 299.571L246.864 299.827C246.808 299.676 246.724 299.53 246.613 299.388C246.505 299.243 246.357 299.123 246.17 299.03C245.982 298.936 245.742 298.889 245.45 298.889C245.049 298.889 244.715 298.981 244.448 299.166C244.184 299.348 244.052 299.579 244.052 299.861C244.052 300.111 244.143 300.308 244.325 300.453C244.506 300.598 244.79 300.719 245.177 300.815L246.148 301.054C246.734 301.196 247.17 301.413 247.457 301.706C247.744 301.996 247.887 302.369 247.887 302.827C247.887 303.202 247.779 303.537 247.563 303.832C247.35 304.128 247.052 304.361 246.668 304.531C246.285 304.702 245.839 304.787 245.33 304.787C244.663 304.787 244.11 304.642 243.673 304.352C243.235 304.062 242.958 303.639 242.842 303.082L243.796 302.844C243.887 303.196 244.059 303.46 244.312 303.636C244.567 303.812 244.901 303.9 245.313 303.9C245.782 303.9 246.154 303.801 246.43 303.602C246.708 303.4 246.847 303.159 246.847 302.878C246.847 302.65 246.768 302.46 246.609 302.307C246.45 302.15 246.205 302.034 245.876 301.957L244.785 301.702C244.185 301.559 243.745 301.339 243.464 301.041C243.185 300.74 243.046 300.363 243.046 299.912C243.046 299.542 243.15 299.216 243.357 298.932C243.567 298.648 243.853 298.425 244.214 298.263C244.577 298.101 244.989 298.02 245.45 298.02C246.097 298.02 246.606 298.162 246.975 298.446C247.347 298.73 247.612 299.105 247.768 299.571Z" fill="black" fill-opacity="0.7"/>
<path d="M284.59 304.65V295.923H289.857V296.861H285.647V299.809H289.584V300.747H285.647V303.713H289.925V304.65H284.59ZM292.631 300.713V304.65H291.626V298.105H292.597V299.128H292.682C292.836 298.795 293.069 298.528 293.381 298.327C293.694 298.122 294.097 298.02 294.591 298.02C295.035 298.02 295.422 298.111 295.755 298.292C296.087 298.471 296.346 298.744 296.53 299.111C296.715 299.474 296.807 299.934 296.807 300.491V304.65H295.802V300.559C295.802 300.045 295.668 299.645 295.401 299.358C295.134 299.068 294.768 298.923 294.302 298.923C293.981 298.923 293.694 298.993 293.441 299.132C293.191 299.271 292.993 299.474 292.849 299.741C292.704 300.008 292.631 300.332 292.631 300.713ZM301.389 304.787C300.759 304.787 300.215 304.648 299.757 304.369C299.303 304.088 298.952 303.696 298.705 303.193C298.46 302.687 298.338 302.099 298.338 301.429C298.338 300.758 298.46 300.167 298.705 299.656C298.952 299.142 299.296 298.741 299.736 298.454C300.179 298.165 300.696 298.02 301.287 298.02C301.628 298.02 301.965 298.077 302.297 298.19C302.629 298.304 302.932 298.488 303.205 298.744C303.477 298.997 303.695 299.332 303.857 299.75C304.019 300.167 304.1 300.682 304.1 301.292V301.719H299.054V300.849H303.077C303.077 300.48 303.003 300.15 302.855 299.861C302.71 299.571 302.503 299.342 302.233 299.175C301.966 299.007 301.651 298.923 301.287 298.923C300.887 298.923 300.54 299.023 300.247 299.221C299.958 299.417 299.735 299.673 299.578 299.988C299.422 300.304 299.344 300.642 299.344 301.003V301.582C299.344 302.077 299.429 302.496 299.6 302.839C299.773 303.18 300.013 303.44 300.32 303.619C300.627 303.795 300.983 303.883 301.389 303.883C301.654 303.883 301.892 303.846 302.105 303.773C302.321 303.696 302.507 303.582 302.664 303.432C302.82 303.278 302.941 303.088 303.026 302.861L303.997 303.133C303.895 303.463 303.723 303.753 303.482 304.003C303.24 304.25 302.942 304.443 302.587 304.582C302.232 304.719 301.833 304.787 301.389 304.787ZM305.629 304.65V298.105H306.601V299.094H306.669C306.789 298.77 307.004 298.507 307.317 298.305C307.629 298.104 307.982 298.003 308.374 298.003C308.448 298.003 308.54 298.004 308.651 298.007C308.762 298.01 308.845 298.014 308.902 298.02V299.042C308.868 299.034 308.79 299.021 308.668 299.004C308.548 298.984 308.422 298.974 308.289 298.974C307.97 298.974 307.686 299.041 307.436 299.175C307.189 299.305 306.993 299.487 306.848 299.72C306.706 299.95 306.635 300.213 306.635 300.508V304.65H305.629ZM312.537 307.241C312.051 307.241 311.634 307.179 311.284 307.054C310.935 306.932 310.644 306.77 310.411 306.568C310.181 306.369 309.997 306.156 309.861 305.929L310.662 305.366C310.753 305.486 310.868 305.622 311.007 305.775C311.146 305.932 311.337 306.067 311.578 306.18C311.823 306.297 312.142 306.355 312.537 306.355C313.066 306.355 313.502 306.227 313.845 305.971C314.189 305.716 314.361 305.315 314.361 304.77V303.44H314.276C314.202 303.559 314.097 303.707 313.96 303.883C313.827 304.057 313.634 304.211 313.381 304.348C313.131 304.481 312.793 304.548 312.367 304.548C311.838 304.548 311.364 304.423 310.943 304.173C310.526 303.923 310.195 303.559 309.95 303.082C309.709 302.605 309.588 302.025 309.588 301.344C309.588 300.673 309.706 300.089 309.942 299.592C310.178 299.092 310.506 298.706 310.926 298.433C311.347 298.157 311.833 298.02 312.384 298.02C312.81 298.02 313.148 298.091 313.398 298.233C313.651 298.372 313.844 298.531 313.977 298.71C314.114 298.886 314.219 299.031 314.293 299.145H314.395V298.105H315.367V304.838C315.367 305.4 315.239 305.858 314.983 306.21C314.73 306.565 314.389 306.825 313.96 306.99C313.534 307.157 313.06 307.241 312.537 307.241ZM312.503 303.645C312.906 303.645 313.247 303.552 313.526 303.368C313.804 303.183 314.016 302.917 314.161 302.571C314.306 302.224 314.378 301.809 314.378 301.327C314.378 300.855 314.307 300.439 314.165 300.078C314.023 299.717 313.813 299.434 313.534 299.23C313.256 299.025 312.912 298.923 312.503 298.923C312.077 298.923 311.722 299.031 311.438 299.247C311.156 299.463 310.945 299.753 310.803 300.116C310.664 300.48 310.594 300.883 310.594 301.327C310.594 301.781 310.665 302.183 310.807 302.532C310.952 302.879 311.165 303.152 311.446 303.351C311.73 303.547 312.083 303.645 312.503 303.645ZM317.855 307.105C317.685 307.105 317.533 307.091 317.399 307.062C317.266 307.037 317.173 307.011 317.122 306.986L317.378 306.099C317.622 306.162 317.838 306.184 318.026 306.167C318.213 306.15 318.379 306.067 318.524 305.916C318.672 305.768 318.807 305.528 318.929 305.196L319.117 304.684L316.696 298.105H317.787L319.594 303.321H319.662L321.469 298.105H322.56L319.781 305.605C319.656 305.943 319.502 306.223 319.317 306.444C319.132 306.669 318.918 306.835 318.673 306.943C318.432 307.051 318.159 307.105 317.855 307.105Z" fill="black" fill-opacity="0.7"/>
<path d="M346.476 296.861V295.923H353.021V296.861H350.277V304.65H349.22V296.861H346.476ZM356.311 304.787C355.681 304.787 355.137 304.648 354.679 304.369C354.225 304.088 353.874 303.696 353.627 303.193C353.382 302.687 353.26 302.099 353.26 301.429C353.26 300.758 353.382 300.167 353.627 299.656C353.874 299.142 354.218 298.741 354.658 298.454C355.101 298.165 355.618 298.02 356.209 298.02C356.55 298.02 356.887 298.077 357.219 298.19C357.551 298.304 357.854 298.488 358.127 298.744C358.399 298.997 358.617 299.332 358.779 299.75C358.941 300.167 359.021 300.682 359.021 301.292V301.719H353.976V300.849H357.999C357.999 300.48 357.925 300.15 357.777 299.861C357.632 299.571 357.425 299.342 357.155 299.175C356.888 299.007 356.573 298.923 356.209 298.923C355.808 298.923 355.462 299.023 355.169 299.221C354.879 299.417 354.656 299.673 354.5 299.988C354.344 300.304 354.266 300.642 354.266 301.003V301.582C354.266 302.077 354.351 302.496 354.521 302.839C354.695 303.18 354.935 303.44 355.242 303.619C355.548 303.795 355.905 303.883 356.311 303.883C356.575 303.883 356.814 303.846 357.027 303.773C357.243 303.696 357.429 303.582 357.585 303.432C357.742 303.278 357.862 303.088 357.948 302.861L358.919 303.133C358.817 303.463 358.645 303.753 358.404 304.003C358.162 304.25 357.864 304.443 357.509 304.582C357.154 304.719 356.754 304.787 356.311 304.787ZM363.21 304.787C362.597 304.787 362.068 304.642 361.625 304.352C361.182 304.062 360.841 303.663 360.602 303.155C360.364 302.646 360.244 302.065 360.244 301.412C360.244 300.747 360.367 300.16 360.611 299.652C360.858 299.14 361.202 298.741 361.642 298.454C362.085 298.165 362.602 298.02 363.193 298.02C363.654 298.02 364.068 298.105 364.438 298.275C364.807 298.446 365.11 298.684 365.345 298.991C365.581 299.298 365.727 299.656 365.784 300.065H364.779C364.702 299.767 364.531 299.503 364.267 299.273C364.006 299.04 363.654 298.923 363.21 298.923C362.818 298.923 362.475 299.025 362.179 299.23C361.887 299.432 361.658 299.717 361.493 300.086C361.331 300.453 361.25 300.883 361.25 301.378C361.25 301.883 361.33 302.324 361.489 302.699C361.651 303.074 361.878 303.365 362.171 303.572C362.466 303.78 362.813 303.883 363.21 303.883C363.472 303.883 363.709 303.838 363.922 303.747C364.135 303.656 364.316 303.525 364.463 303.355C364.611 303.184 364.716 302.98 364.779 302.741H365.784C365.727 303.128 365.587 303.476 365.362 303.785C365.141 304.092 364.847 304.336 364.48 304.518C364.117 304.697 363.693 304.787 363.21 304.787ZM368.26 300.713V304.65H367.254V295.923H368.26V299.128H368.345C368.499 298.79 368.729 298.521 369.036 298.322C369.345 298.121 369.757 298.02 370.271 298.02C370.718 298.02 371.108 298.109 371.443 298.288C371.779 298.464 372.039 298.736 372.223 299.102C372.411 299.466 372.504 299.929 372.504 300.491V304.65H371.499V300.559C371.499 300.04 371.364 299.638 371.094 299.354C370.827 299.067 370.456 298.923 369.982 298.923C369.652 298.923 369.357 298.993 369.095 299.132C368.837 299.271 368.632 299.474 368.482 299.741C368.334 300.008 368.26 300.332 368.26 300.713ZM375.35 300.713V304.65H374.344V298.105H375.316V299.128H375.401C375.555 298.795 375.787 298.528 376.1 298.327C376.412 298.122 376.816 298.02 377.31 298.02C377.753 298.02 378.141 298.111 378.474 298.292C378.806 298.471 379.064 298.744 379.249 299.111C379.434 299.474 379.526 299.934 379.526 300.491V304.65H378.52V300.559C378.52 300.045 378.387 299.645 378.12 299.358C377.853 299.068 377.486 298.923 377.02 298.923C376.699 298.923 376.412 298.993 376.16 299.132C375.91 299.271 375.712 299.474 375.567 299.741C375.422 300.008 375.35 300.332 375.35 300.713ZM384.023 304.787C383.432 304.787 382.914 304.646 382.468 304.365C382.024 304.084 381.678 303.69 381.428 303.184C381.181 302.679 381.057 302.088 381.057 301.412C381.057 300.73 381.181 300.135 381.428 299.626C381.678 299.118 382.024 298.723 382.468 298.442C382.914 298.16 383.432 298.02 384.023 298.02C384.614 298.02 385.131 298.16 385.574 298.442C386.02 298.723 386.367 299.118 386.614 299.626C386.864 300.135 386.989 300.73 386.989 301.412C386.989 302.088 386.864 302.679 386.614 303.184C386.367 303.69 386.02 304.084 385.574 304.365C385.131 304.646 384.614 304.787 384.023 304.787ZM384.023 303.883C384.472 303.883 384.841 303.768 385.131 303.538C385.421 303.308 385.635 303.006 385.774 302.631C385.914 302.256 385.983 301.849 385.983 301.412C385.983 300.974 385.914 300.567 385.774 300.189C385.635 299.811 385.421 299.506 385.131 299.273C384.841 299.04 384.472 298.923 384.023 298.923C383.574 298.923 383.205 299.04 382.915 299.273C382.625 299.506 382.411 299.811 382.271 300.189C382.132 300.567 382.063 300.974 382.063 301.412C382.063 301.849 382.132 302.256 382.271 302.631C382.411 303.006 382.625 303.308 382.915 303.538C383.205 303.768 383.574 303.883 384.023 303.883ZM389.53 295.923V304.65H388.524V295.923H389.53ZM394.031 304.787C393.44 304.787 392.921 304.646 392.475 304.365C392.032 304.084 391.686 303.69 391.436 303.184C391.188 302.679 391.065 302.088 391.065 301.412C391.065 300.73 391.188 300.135 391.436 299.626C391.686 299.118 392.032 298.723 392.475 298.442C392.921 298.16 393.44 298.02 394.031 298.02C394.622 298.02 395.139 298.16 395.582 298.442C396.028 298.723 396.374 299.118 396.622 299.626C396.872 300.135 396.997 300.73 396.997 301.412C396.997 302.088 396.872 302.679 396.622 303.184C396.374 303.69 396.028 304.084 395.582 304.365C395.139 304.646 394.622 304.787 394.031 304.787ZM394.031 303.883C394.48 303.883 394.849 303.768 395.139 303.538C395.428 303.308 395.643 303.006 395.782 302.631C395.921 302.256 395.991 301.849 395.991 301.412C395.991 300.974 395.921 300.567 395.782 300.189C395.643 299.811 395.428 299.506 395.139 299.273C394.849 299.04 394.48 298.923 394.031 298.923C393.582 298.923 393.213 299.04 392.923 299.273C392.633 299.506 392.419 299.811 392.279 300.189C392.14 300.567 392.07 300.974 392.07 301.412C392.07 301.849 392.14 302.256 392.279 302.631C392.419 303.006 392.633 303.308 392.923 303.538C393.213 303.768 393.582 303.883 394.031 303.883ZM401.174 307.241C400.688 307.241 400.27 307.179 399.921 307.054C399.572 306.932 399.28 306.77 399.047 306.568C398.817 306.369 398.634 306.156 398.498 305.929L399.299 305.366C399.39 305.486 399.505 305.622 399.644 305.775C399.783 305.932 399.974 306.067 400.215 306.18C400.459 306.297 400.779 306.355 401.174 306.355C401.702 306.355 402.138 306.227 402.482 305.971C402.826 305.716 402.998 305.315 402.998 304.77V303.44H402.912C402.839 303.559 402.733 303.707 402.597 303.883C402.464 304.057 402.27 304.211 402.018 304.348C401.768 304.481 401.43 304.548 401.003 304.548C400.475 304.548 400.001 304.423 399.58 304.173C399.162 303.923 398.831 303.559 398.587 303.082C398.346 302.605 398.225 302.025 398.225 301.344C398.225 300.673 398.343 300.089 398.579 299.592C398.814 299.092 399.143 298.706 399.563 298.433C399.983 298.157 400.469 298.02 401.02 298.02C401.447 298.02 401.785 298.091 402.035 298.233C402.287 298.372 402.481 298.531 402.614 298.71C402.751 298.886 402.856 299.031 402.93 299.145H403.032V298.105H404.003V304.838C404.003 305.4 403.876 305.858 403.62 306.21C403.367 306.565 403.026 306.825 402.597 306.99C402.171 307.157 401.697 307.241 401.174 307.241ZM401.14 303.645C401.543 303.645 401.884 303.552 402.162 303.368C402.441 303.183 402.653 302.917 402.797 302.571C402.942 302.224 403.015 301.809 403.015 301.327C403.015 300.855 402.944 300.439 402.802 300.078C402.66 299.717 402.449 299.434 402.171 299.23C401.893 299.025 401.549 298.923 401.14 298.923C400.714 298.923 400.358 299.031 400.074 299.247C399.793 299.463 399.581 299.753 399.439 300.116C399.3 300.48 399.231 300.883 399.231 301.327C399.231 301.781 399.302 302.183 399.444 302.532C399.589 302.879 399.802 303.152 400.083 303.351C400.367 303.547 400.719 303.645 401.14 303.645ZM406.492 307.105C406.322 307.105 406.17 307.091 406.036 307.062C405.903 307.037 405.81 307.011 405.759 306.986L406.015 306.099C406.259 306.162 406.475 306.184 406.662 306.167C406.85 306.15 407.016 306.067 407.161 305.916C407.309 305.768 407.444 305.528 407.566 305.196L407.753 304.684L405.333 298.105H406.424L408.231 303.321H408.299L410.106 298.105H411.197L408.418 305.605C408.293 305.943 408.138 306.223 407.954 306.444C407.769 306.669 407.555 306.835 407.31 306.943C407.069 307.051 406.796 307.105 406.492 307.105Z" fill="black" fill-opacity="0.7"/>
<path d="M430.777 298.65H429.72C429.657 298.346 429.548 298.079 429.392 297.849C429.238 297.619 429.051 297.426 428.829 297.27C428.611 297.111 428.368 296.991 428.101 296.912C427.834 296.832 427.555 296.792 427.265 296.792C426.737 296.792 426.258 296.926 425.829 297.193C425.403 297.46 425.064 297.854 424.811 298.373C424.561 298.893 424.436 299.531 424.436 300.287C424.436 301.042 424.561 301.68 424.811 302.2C425.064 302.72 425.403 303.113 425.829 303.381C426.258 303.648 426.737 303.781 427.265 303.781C427.555 303.781 427.834 303.741 428.101 303.662C428.368 303.582 428.611 303.464 428.829 303.308C429.051 303.149 429.238 302.954 429.392 302.724C429.548 302.491 429.657 302.224 429.72 301.923H430.777C430.697 302.369 430.552 302.768 430.342 303.121C430.132 303.473 429.871 303.773 429.558 304.02C429.246 304.264 428.895 304.45 428.506 304.578C428.119 304.706 427.706 304.77 427.265 304.77C426.521 304.77 425.859 304.588 425.28 304.224C424.7 303.861 424.244 303.344 423.912 302.673C423.579 302.003 423.413 301.207 423.413 300.287C423.413 299.366 423.579 298.571 423.912 297.9C424.244 297.23 424.7 296.713 425.28 296.349C425.859 295.986 426.521 295.804 427.265 295.804C427.706 295.804 428.119 295.868 428.506 295.996C428.895 296.123 429.246 296.311 429.558 296.558C429.871 296.802 430.132 297.101 430.342 297.453C430.552 297.802 430.697 298.202 430.777 298.65ZM434.274 304.804C433.86 304.804 433.483 304.726 433.145 304.569C432.807 304.41 432.539 304.182 432.34 303.883C432.141 303.582 432.041 303.219 432.041 302.792C432.041 302.417 432.115 302.113 432.263 301.881C432.411 301.645 432.608 301.46 432.855 301.327C433.102 301.193 433.375 301.094 433.673 301.028C433.975 300.96 434.277 300.906 434.581 300.866C434.979 300.815 435.301 300.777 435.548 300.751C435.798 300.723 435.98 300.676 436.094 300.611C436.21 300.545 436.269 300.432 436.269 300.27V300.236C436.269 299.815 436.154 299.488 435.923 299.256C435.696 299.023 435.351 298.906 434.888 298.906C434.408 298.906 434.031 299.011 433.759 299.221C433.486 299.432 433.294 299.656 433.183 299.895L432.229 299.554C432.399 299.156 432.627 298.846 432.911 298.625C433.198 298.4 433.51 298.244 433.848 298.156C434.189 298.065 434.524 298.02 434.854 298.02C435.064 298.02 435.306 298.045 435.578 298.096C435.854 298.145 436.119 298.246 436.375 298.399C436.634 298.552 436.848 298.784 437.019 299.094C437.189 299.403 437.274 299.818 437.274 300.338V304.65H436.269V303.764H436.218C436.149 303.906 436.036 304.058 435.877 304.22C435.718 304.382 435.506 304.52 435.242 304.633C434.977 304.747 434.655 304.804 434.274 304.804ZM434.428 303.9C434.825 303.9 435.161 303.822 435.433 303.666C435.709 303.51 435.916 303.308 436.056 303.061C436.198 302.814 436.269 302.554 436.269 302.281V301.361C436.226 301.412 436.132 301.459 435.987 301.501C435.845 301.541 435.681 301.577 435.493 301.608C435.308 301.636 435.128 301.662 434.952 301.684C434.779 301.704 434.638 301.721 434.53 301.736C434.269 301.77 434.024 301.825 433.797 301.902C433.573 301.976 433.391 302.088 433.252 302.238C433.115 302.386 433.047 302.588 433.047 302.844C433.047 303.193 433.176 303.457 433.435 303.636C433.696 303.812 434.027 303.9 434.428 303.9ZM439.11 304.65V298.105H440.081V299.094H440.15C440.269 298.77 440.485 298.507 440.797 298.305C441.11 298.104 441.462 298.003 441.854 298.003C441.928 298.003 442.02 298.004 442.131 298.007C442.242 298.01 442.326 298.014 442.383 298.02V299.042C442.349 299.034 442.27 299.021 442.148 299.004C442.029 298.984 441.903 298.974 441.769 298.974C441.451 298.974 441.167 299.041 440.917 299.175C440.67 299.305 440.474 299.487 440.329 299.72C440.187 299.95 440.116 300.213 440.116 300.508V304.65H439.11ZM447.086 304.65V295.923H450.137C450.745 295.923 451.247 296.028 451.642 296.238C452.036 296.446 452.33 296.726 452.524 297.078C452.717 297.427 452.813 297.815 452.813 298.241C452.813 298.616 452.747 298.926 452.613 299.17C452.482 299.415 452.309 299.608 452.093 299.75C451.88 299.892 451.649 299.997 451.399 300.065V300.15C451.666 300.167 451.934 300.261 452.204 300.432C452.474 300.602 452.7 300.846 452.882 301.165C453.063 301.483 453.154 301.872 453.154 302.332C453.154 302.77 453.055 303.163 452.856 303.513C452.657 303.862 452.343 304.139 451.914 304.344C451.485 304.548 450.927 304.65 450.24 304.65H447.086ZM448.143 303.713H450.24C450.93 303.713 451.42 303.579 451.71 303.312C452.002 303.042 452.149 302.716 452.149 302.332C452.149 302.037 452.073 301.764 451.923 301.514C451.772 301.261 451.558 301.059 451.279 300.909C451.001 300.756 450.671 300.679 450.291 300.679H448.143V303.713ZM448.143 299.758H450.103C450.421 299.758 450.708 299.696 450.964 299.571C451.222 299.446 451.427 299.27 451.578 299.042C451.731 298.815 451.808 298.548 451.808 298.241C451.808 297.858 451.674 297.532 451.407 297.265C451.14 296.996 450.717 296.861 450.137 296.861H448.143V299.758ZM454.754 304.65V298.105H455.726V299.094H455.794C455.914 298.77 456.129 298.507 456.442 298.305C456.754 298.104 457.107 298.003 457.499 298.003C457.573 298.003 457.665 298.004 457.776 298.007C457.887 298.01 457.97 298.014 458.027 298.02V299.042C457.993 299.034 457.915 299.021 457.793 299.004C457.673 298.984 457.547 298.974 457.414 298.974C457.095 298.974 456.811 299.041 456.561 299.175C456.314 299.305 456.118 299.487 455.973 299.72C455.831 299.95 455.76 300.213 455.76 300.508V304.65H454.754ZM461.145 304.804C460.731 304.804 460.354 304.726 460.016 304.569C459.678 304.41 459.41 304.182 459.211 303.883C459.012 303.582 458.912 303.219 458.912 302.792C458.912 302.417 458.986 302.113 459.134 301.881C459.282 301.645 459.479 301.46 459.726 301.327C459.974 301.193 460.246 301.094 460.545 301.028C460.846 300.96 461.148 300.906 461.452 300.866C461.85 300.815 462.172 300.777 462.42 300.751C462.67 300.723 462.851 300.676 462.965 300.611C463.081 300.545 463.14 300.432 463.14 300.27V300.236C463.14 299.815 463.025 299.488 462.795 299.256C462.567 299.023 462.222 298.906 461.759 298.906C461.279 298.906 460.903 299.011 460.63 299.221C460.357 299.432 460.165 299.656 460.055 299.895L459.1 299.554C459.27 299.156 459.498 298.846 459.782 298.625C460.069 298.4 460.381 298.244 460.719 298.156C461.06 298.065 461.395 298.02 461.725 298.02C461.935 298.02 462.177 298.045 462.449 298.096C462.725 298.145 462.991 298.246 463.246 298.399C463.505 298.552 463.719 298.784 463.89 299.094C464.06 299.403 464.145 299.818 464.145 300.338V304.65H463.14V303.764H463.089C463.02 303.906 462.907 304.058 462.748 304.22C462.589 304.382 462.377 304.52 462.113 304.633C461.849 304.747 461.526 304.804 461.145 304.804ZM461.299 303.9C461.697 303.9 462.032 303.822 462.305 303.666C462.58 303.51 462.787 303.308 462.927 303.061C463.069 302.814 463.14 302.554 463.14 302.281V301.361C463.097 301.412 463.003 301.459 462.858 301.501C462.716 301.541 462.552 301.577 462.364 301.608C462.18 301.636 461.999 301.662 461.823 301.684C461.65 301.704 461.509 301.721 461.401 301.736C461.14 301.77 460.895 301.825 460.668 301.902C460.444 301.976 460.262 302.088 460.123 302.238C459.986 302.386 459.918 302.588 459.918 302.844C459.918 303.193 460.047 303.457 460.306 303.636C460.567 303.812 460.898 303.9 461.299 303.9ZM466.987 300.713V304.65H465.981V298.105H466.953V299.128H467.038C467.191 298.795 467.424 298.528 467.737 298.327C468.049 298.122 468.453 298.02 468.947 298.02C469.39 298.02 469.778 298.111 470.11 298.292C470.443 298.471 470.701 298.744 470.886 299.111C471.07 299.474 471.163 299.934 471.163 300.491V304.65H470.157V300.559C470.157 300.045 470.024 299.645 469.757 299.358C469.49 299.068 469.123 298.923 468.657 298.923C468.336 298.923 468.049 298.993 467.796 299.132C467.546 299.271 467.349 299.474 467.204 299.741C467.059 300.008 466.987 300.332 466.987 300.713ZM475.472 304.787C474.927 304.787 474.445 304.649 474.028 304.373C473.61 304.095 473.283 303.703 473.047 303.197C472.812 302.689 472.694 302.088 472.694 301.395C472.694 300.707 472.812 300.111 473.047 299.605C473.283 299.099 473.611 298.709 474.032 298.433C474.452 298.157 474.938 298.02 475.489 298.02C475.915 298.02 476.252 298.091 476.499 298.233C476.749 298.372 476.939 298.531 477.07 298.71C477.204 298.886 477.307 299.031 477.381 299.145H477.466V295.923H478.472V304.65H477.501V303.645H477.381C477.307 303.764 477.202 303.915 477.066 304.096C476.93 304.275 476.735 304.436 476.482 304.578C476.229 304.717 475.893 304.787 475.472 304.787ZM475.608 303.883C476.012 303.883 476.353 303.778 476.631 303.568C476.91 303.355 477.121 303.061 477.266 302.686C477.411 302.308 477.483 301.872 477.483 301.378C477.483 300.889 477.412 300.461 477.27 300.095C477.128 299.726 476.918 299.439 476.64 299.234C476.361 299.027 476.018 298.923 475.608 298.923C475.182 298.923 474.827 299.032 474.543 299.251C474.262 299.467 474.05 299.761 473.908 300.133C473.769 300.503 473.699 300.917 473.699 301.378C473.699 301.844 473.77 302.267 473.912 302.648C474.057 303.025 474.27 303.327 474.552 303.551C474.836 303.773 475.188 303.883 475.608 303.883ZM485.09 299.571L484.187 299.827C484.13 299.676 484.046 299.53 483.935 299.388C483.827 299.243 483.68 299.123 483.492 299.03C483.305 298.936 483.064 298.889 482.772 298.889C482.371 298.889 482.037 298.981 481.77 299.166C481.506 299.348 481.374 299.579 481.374 299.861C481.374 300.111 481.465 300.308 481.647 300.453C481.829 300.598 482.113 300.719 482.499 300.815L483.471 301.054C484.056 301.196 484.492 301.413 484.779 301.706C485.066 301.996 485.209 302.369 485.209 302.827C485.209 303.202 485.101 303.537 484.885 303.832C484.672 304.128 484.374 304.361 483.991 304.531C483.607 304.702 483.161 304.787 482.653 304.787C481.985 304.787 481.432 304.642 480.995 304.352C480.557 304.062 480.28 303.639 480.164 303.082L481.118 302.844C481.209 303.196 481.381 303.46 481.634 303.636C481.89 303.812 482.224 303.9 482.635 303.9C483.104 303.9 483.476 303.801 483.752 303.602C484.03 303.4 484.17 303.159 484.17 302.878C484.17 302.65 484.09 302.46 483.931 302.307C483.772 302.15 483.528 302.034 483.198 301.957L482.107 301.702C481.508 301.559 481.067 301.339 480.786 301.041C480.508 300.74 480.368 300.363 480.368 299.912C480.368 299.542 480.472 299.216 480.68 298.932C480.89 298.648 481.175 298.425 481.536 298.263C481.9 298.101 482.312 298.02 482.772 298.02C483.42 298.02 483.928 298.162 484.297 298.446C484.67 298.73 484.934 299.105 485.09 299.571Z" fill="black" fill-opacity="0.7"/>
<g clip-path="url(#clip0_1284_7426)">
<g clip-path="url(#clip1_1284_7426)">
<rect x="163.5" y="324.15" width="7" height="7" fill="#E9C46A" stroke="white"/>
<path d="M179.903 332.15V331.383L182.784 328.23C183.122 327.861 183.401 327.54 183.619 327.267C183.838 326.991 184 326.733 184.105 326.491C184.213 326.247 184.267 325.991 184.267 325.724C184.267 325.417 184.193 325.152 184.045 324.927C183.901 324.703 183.702 324.53 183.449 324.407C183.196 324.285 182.912 324.224 182.597 324.224C182.261 324.224 181.969 324.294 181.719 324.433C181.472 324.569 181.28 324.761 181.143 325.008C181.01 325.256 180.943 325.545 180.943 325.878H179.938C179.938 325.366 180.055 324.917 180.291 324.531C180.527 324.145 180.848 323.844 181.254 323.628C181.663 323.412 182.122 323.304 182.631 323.304C183.142 323.304 183.595 323.412 183.99 323.628C184.385 323.844 184.695 324.135 184.919 324.501C185.143 324.868 185.256 325.275 185.256 325.724C185.256 326.045 185.197 326.359 185.081 326.666C184.967 326.97 184.768 327.309 184.484 327.684C184.203 328.057 183.812 328.511 183.312 329.048L181.352 331.145V331.213H185.409V332.15H179.903ZM190.016 332.27C189.374 332.27 188.827 332.095 188.375 331.746C187.923 331.393 187.578 330.883 187.339 330.216C187.101 329.545 186.982 328.736 186.982 327.787C186.982 326.844 187.101 326.038 187.339 325.371C187.581 324.7 187.928 324.189 188.379 323.836C188.834 323.481 189.379 323.304 190.016 323.304C190.652 323.304 191.196 323.481 191.648 323.836C192.102 324.189 192.449 324.7 192.688 325.371C192.929 326.038 193.05 326.844 193.05 327.787C193.05 328.736 192.93 329.545 192.692 330.216C192.453 330.883 192.108 331.393 191.656 331.746C191.205 332.095 190.658 332.27 190.016 332.27ZM190.016 331.332C190.652 331.332 191.146 331.025 191.499 330.412C191.851 329.798 192.027 328.923 192.027 327.787C192.027 327.031 191.946 326.388 191.784 325.856C191.625 325.325 191.395 324.92 191.094 324.642C190.795 324.363 190.436 324.224 190.016 324.224C189.385 324.224 188.892 324.535 188.537 325.157C188.182 325.777 188.004 326.653 188.004 327.787C188.004 328.542 188.084 329.184 188.243 329.713C188.402 330.241 188.631 330.643 188.929 330.919C189.23 331.194 189.592 331.332 190.016 331.332ZM194.669 332.15V331.383L197.55 328.23C197.888 327.861 198.166 327.54 198.385 327.267C198.604 326.991 198.766 326.733 198.871 326.491C198.979 326.247 199.033 325.991 199.033 325.724C199.033 325.417 198.959 325.152 198.811 324.927C198.666 324.703 198.467 324.53 198.214 324.407C197.962 324.285 197.678 324.224 197.362 324.224C197.027 324.224 196.734 324.294 196.484 324.433C196.237 324.569 196.045 324.761 195.909 325.008C195.776 325.256 195.709 325.545 195.709 325.878H194.703C194.703 325.366 194.821 324.917 195.057 324.531C195.293 324.145 195.614 323.844 196.02 323.628C196.429 323.412 196.888 323.304 197.396 323.304C197.908 323.304 198.361 323.412 198.756 323.628C199.151 323.844 199.46 324.135 199.685 324.501C199.909 324.868 200.021 325.275 200.021 325.724C200.021 326.045 199.963 326.359 199.847 326.666C199.733 326.97 199.534 327.309 199.25 327.684C198.969 328.057 198.578 328.511 198.078 329.048L196.118 331.145V331.213H200.175V332.15H194.669ZM201.935 332.15V331.383L204.815 328.23C205.153 327.861 205.432 327.54 205.651 327.267C205.869 326.991 206.031 326.733 206.136 326.491C206.244 326.247 206.298 325.991 206.298 325.724C206.298 325.417 206.224 325.152 206.077 324.927C205.932 324.703 205.733 324.53 205.48 324.407C205.227 324.285 204.943 324.224 204.628 324.224C204.293 324.224 204 324.294 203.75 324.433C203.503 324.569 203.311 324.761 203.175 325.008C203.041 325.256 202.974 325.545 202.974 325.878H201.969C201.969 325.366 202.087 324.917 202.322 324.531C202.558 324.145 202.879 323.844 203.286 323.628C203.695 323.412 204.153 323.304 204.662 323.304C205.173 323.304 205.626 323.412 206.021 323.628C206.416 323.844 206.726 324.135 206.95 324.501C207.175 324.868 207.287 325.275 207.287 325.724C207.287 326.045 207.229 326.359 207.112 326.666C206.999 326.97 206.8 327.309 206.516 327.684C206.234 328.057 205.844 328.511 205.344 329.048L203.384 331.145V331.213H207.44V332.15H201.935Z" fill="black" fill-opacity="0.7"/>
<rect x="229.5" y="324.15" width="7" height="7" fill="#264653" stroke="white"/>
<path d="M245.903 332.15V331.383L248.784 328.23C249.122 327.861 249.401 327.54 249.619 327.267C249.838 326.991 250 326.733 250.105 326.491C250.213 326.247 250.267 325.991 250.267 325.724C250.267 325.417 250.193 325.152 250.045 324.927C249.901 324.703 249.702 324.53 249.449 324.407C249.196 324.285 248.912 324.224 248.597 324.224C248.261 324.224 247.969 324.294 247.719 324.433C247.472 324.569 247.28 324.761 247.143 325.008C247.01 325.256 246.943 325.545 246.943 325.878H245.938C245.938 325.366 246.055 324.917 246.291 324.531C246.527 324.145 246.848 323.844 247.254 323.628C247.663 323.412 248.122 323.304 248.631 323.304C249.142 323.304 249.595 323.412 249.99 323.628C250.385 323.844 250.695 324.135 250.919 324.501C251.143 324.868 251.256 325.275 251.256 325.724C251.256 326.045 251.197 326.359 251.081 326.666C250.967 326.97 250.768 327.309 250.484 327.684C250.203 328.057 249.812 328.511 249.312 329.048L247.352 331.145V331.213H251.409V332.15H245.903ZM256.016 332.27C255.374 332.27 254.827 332.095 254.375 331.746C253.923 331.393 253.578 330.883 253.339 330.216C253.101 329.545 252.982 328.736 252.982 327.787C252.982 326.844 253.101 326.038 253.339 325.371C253.581 324.7 253.928 324.189 254.379 323.836C254.834 323.481 255.379 323.304 256.016 323.304C256.652 323.304 257.196 323.481 257.648 323.836C258.102 324.189 258.449 324.7 258.688 325.371C258.929 326.038 259.05 326.844 259.05 327.787C259.05 328.736 258.93 329.545 258.692 330.216C258.453 330.883 258.108 331.393 257.656 331.746C257.205 332.095 256.658 332.27 256.016 332.27ZM256.016 331.332C256.652 331.332 257.146 331.025 257.499 330.412C257.851 329.798 258.027 328.923 258.027 327.787C258.027 327.031 257.946 326.388 257.784 325.856C257.625 325.325 257.395 324.92 257.094 324.642C256.795 324.363 256.436 324.224 256.016 324.224C255.385 324.224 254.892 324.535 254.537 325.157C254.182 325.777 254.004 326.653 254.004 327.787C254.004 328.542 254.084 329.184 254.243 329.713C254.402 330.241 254.631 330.643 254.929 330.919C255.23 331.194 255.592 331.332 256.016 331.332ZM260.669 332.15V331.383L263.55 328.23C263.888 327.861 264.166 327.54 264.385 327.267C264.604 326.991 264.766 326.733 264.871 326.491C264.979 326.247 265.033 325.991 265.033 325.724C265.033 325.417 264.959 325.152 264.811 324.927C264.666 324.703 264.467 324.53 264.214 324.407C263.962 324.285 263.678 324.224 263.362 324.224C263.027 324.224 262.734 324.294 262.484 324.433C262.237 324.569 262.045 324.761 261.909 325.008C261.776 325.256 261.709 325.545 261.709 325.878H260.703C260.703 325.366 260.821 324.917 261.057 324.531C261.293 324.145 261.614 323.844 262.02 323.628C262.429 323.412 262.888 323.304 263.396 323.304C263.908 323.304 264.361 323.412 264.756 323.628C265.151 323.844 265.46 324.135 265.685 324.501C265.909 324.868 266.021 325.275 266.021 325.724C266.021 326.045 265.963 326.359 265.847 326.666C265.733 326.97 265.534 327.309 265.25 327.684C264.969 328.057 264.578 328.511 264.078 329.048L262.118 331.145V331.213H266.175V332.15H260.669ZM270.884 332.27C270.321 332.27 269.82 332.173 269.379 331.98C268.942 331.787 268.594 331.518 268.335 331.175C268.08 330.828 267.94 330.426 267.918 329.969H268.991C269.014 330.25 269.111 330.493 269.281 330.697C269.452 330.899 269.675 331.055 269.95 331.166C270.226 331.277 270.531 331.332 270.866 331.332C271.241 331.332 271.574 331.267 271.864 331.136C272.153 331.006 272.381 330.824 272.545 330.591C272.71 330.358 272.793 330.088 272.793 329.781C272.793 329.46 272.713 329.177 272.554 328.933C272.395 328.686 272.162 328.493 271.855 328.354C271.548 328.214 271.173 328.145 270.73 328.145H270.031V327.207H270.73C271.077 327.207 271.381 327.145 271.642 327.02C271.906 326.895 272.112 326.719 272.26 326.491C272.411 326.264 272.486 325.997 272.486 325.69C272.486 325.395 272.42 325.138 272.29 324.919C272.159 324.7 271.974 324.53 271.736 324.407C271.5 324.285 271.222 324.224 270.901 324.224C270.599 324.224 270.315 324.28 270.048 324.39C269.784 324.498 269.568 324.656 269.401 324.863C269.233 325.068 269.142 325.315 269.128 325.605H268.105C268.122 325.148 268.26 324.747 268.518 324.403C268.777 324.057 269.115 323.787 269.533 323.594C269.953 323.4 270.415 323.304 270.918 323.304C271.457 323.304 271.92 323.413 272.307 323.632C272.693 323.848 272.99 324.133 273.197 324.488C273.405 324.844 273.509 325.227 273.509 325.639C273.509 326.131 273.379 326.55 273.121 326.896C272.865 327.243 272.517 327.483 272.077 327.616V327.684C272.628 327.775 273.058 328.01 273.368 328.388C273.678 328.763 273.832 329.227 273.832 329.781C273.832 330.256 273.703 330.682 273.445 331.059C273.189 331.434 272.839 331.73 272.396 331.946C271.953 332.162 271.449 332.27 270.884 332.27Z" fill="black" fill-opacity="0.7"/>
<rect x="295.5" y="324.15" width="7" height="7" fill="#2A9D8F" stroke="white"/>
<path d="M311.903 332.15V331.383L314.784 328.23C315.122 327.861 315.401 327.54 315.619 327.267C315.838 326.991 316 326.733 316.105 326.491C316.213 326.247 316.267 325.991 316.267 325.724C316.267 325.417 316.193 325.152 316.045 324.927C315.901 324.703 315.702 324.53 315.449 324.407C315.196 324.285 314.912 324.224 314.597 324.224C314.261 324.224 313.969 324.294 313.719 324.433C313.472 324.569 313.28 324.761 313.143 325.008C313.01 325.256 312.943 325.545 312.943 325.878H311.938C311.938 325.366 312.055 324.917 312.291 324.531C312.527 324.145 312.848 323.844 313.254 323.628C313.663 323.412 314.122 323.304 314.631 323.304C315.142 323.304 315.595 323.412 315.99 323.628C316.385 323.844 316.695 324.135 316.919 324.501C317.143 324.868 317.256 325.275 317.256 325.724C317.256 326.045 317.197 326.359 317.081 326.666C316.967 326.97 316.768 327.309 316.484 327.684C316.203 328.057 315.812 328.511 315.312 329.048L313.352 331.145V331.213H317.409V332.15H311.903ZM322.016 332.27C321.374 332.27 320.827 332.095 320.375 331.746C319.923 331.393 319.578 330.883 319.339 330.216C319.101 329.545 318.982 328.736 318.982 327.787C318.982 326.844 319.101 326.038 319.339 325.371C319.581 324.7 319.928 324.189 320.379 323.836C320.834 323.481 321.379 323.304 322.016 323.304C322.652 323.304 323.196 323.481 323.648 323.836C324.102 324.189 324.449 324.7 324.688 325.371C324.929 326.038 325.05 326.844 325.05 327.787C325.05 328.736 324.93 329.545 324.692 330.216C324.453 330.883 324.108 331.393 323.656 331.746C323.205 332.095 322.658 332.27 322.016 332.27ZM322.016 331.332C322.652 331.332 323.146 331.025 323.499 330.412C323.851 329.798 324.027 328.923 324.027 327.787C324.027 327.031 323.946 326.388 323.784 325.856C323.625 325.325 323.395 324.92 323.094 324.642C322.795 324.363 322.436 324.224 322.016 324.224C321.385 324.224 320.892 324.535 320.537 325.157C320.182 325.777 320.004 326.653 320.004 327.787C320.004 328.542 320.084 329.184 320.243 329.713C320.402 330.241 320.631 330.643 320.929 330.919C321.23 331.194 321.592 331.332 322.016 331.332ZM326.669 332.15V331.383L329.55 328.23C329.888 327.861 330.166 327.54 330.385 327.267C330.604 326.991 330.766 326.733 330.871 326.491C330.979 326.247 331.033 325.991 331.033 325.724C331.033 325.417 330.959 325.152 330.811 324.927C330.666 324.703 330.467 324.53 330.214 324.407C329.962 324.285 329.678 324.224 329.362 324.224C329.027 324.224 328.734 324.294 328.484 324.433C328.237 324.569 328.045 324.761 327.909 325.008C327.776 325.256 327.709 325.545 327.709 325.878H326.703C326.703 325.366 326.821 324.917 327.057 324.531C327.293 324.145 327.614 323.844 328.02 323.628C328.429 323.412 328.888 323.304 329.396 323.304C329.908 323.304 330.361 323.412 330.756 323.628C331.151 323.844 331.46 324.135 331.685 324.501C331.909 324.868 332.021 325.275 332.021 325.724C332.021 326.045 331.963 326.359 331.847 326.666C331.733 326.97 331.534 327.309 331.25 327.684C330.969 328.057 330.578 328.511 330.078 329.048L328.118 331.145V331.213H332.175V332.15H326.669ZM333.543 330.361V329.491L337.378 323.423H338.009V324.77H337.582L334.685 329.355V329.423H339.849V330.361H333.543ZM337.651 332.15V330.096V329.692V323.423H338.656V332.15H337.651Z" fill="black" fill-opacity="0.7"/>
</g>
</g>
<defs>
<clipPath id="clip0_1284_7426">
<rect width="484" height="24" fill="white" transform="translate(8 315.65)"/>
</clipPath>
<clipPath id="clip1_1284_7426">
<rect width="206" height="24" fill="white" transform="translate(147 315.65)"/>
</clipPath>
</defs>
</svg>
