<svg width="516" height="379" viewBox="0 0 516 379" fill="none" xmlns="http://www.w3.org/2000/svg">
<g filter="url(#filter0_d_1004_39161)">
<g clip-path="url(#clip0_1004_39161)">
<rect x="8" y="7" width="500" height="362.805" rx="6.09756" fill="white"/>
<rect x="8" y="7" width="500" height="362.805" rx="6.09756" fill="white"/>
</g>
</g>
<rect x="406.629" y="87.9336" width="12.1951" height="12.1951" fill="#FDE725"/>
<path d="M427.227 98.0312L425.068 92.1166H425.983L427.154 95.5678C427.251 95.8524 427.345 96.141 427.434 96.4337C427.532 96.7264 427.625 97.015 427.715 97.2995H427.763C427.853 97.015 427.946 96.7264 428.044 96.4337C428.141 96.141 428.235 95.8524 428.324 95.5678L429.495 92.1166H430.373L428.251 98.0312H427.227ZM432.897 98.1776C432.572 98.1776 432.279 98.1126 432.019 97.9825C431.759 97.8524 431.552 97.6654 431.397 97.4215C431.243 97.1695 431.166 96.8646 431.166 96.5069C431.166 95.8646 431.458 95.3727 432.044 95.0312C432.637 94.6817 433.572 94.4378 434.849 94.2995C434.849 94.0312 434.812 93.7752 434.739 93.5312C434.674 93.2873 434.548 93.0922 434.361 92.9459C434.182 92.7914 433.922 92.7142 433.58 92.7142C433.222 92.7142 432.889 92.7833 432.58 92.9215C432.279 93.0597 432.015 93.206 431.788 93.3605L431.434 92.7508C431.605 92.6369 431.808 92.5191 432.044 92.3971C432.279 92.2752 432.54 92.1735 432.824 92.0922C433.109 92.0109 433.409 91.9703 433.727 91.9703C434.206 91.9703 434.592 92.0719 434.885 92.2752C435.178 92.4784 435.389 92.7589 435.519 93.1166C435.657 93.4743 435.727 93.893 435.727 94.3727V98.0312H434.995L434.922 97.3117H434.885C434.601 97.5475 434.292 97.7508 433.958 97.9215C433.625 98.0922 433.271 98.1776 432.897 98.1776ZM433.129 97.4581C433.438 97.4581 433.722 97.389 433.983 97.2508C434.251 97.1044 434.54 96.8971 434.849 96.6288V94.8971C434.149 94.9784 433.596 95.0922 433.19 95.2386C432.783 95.3768 432.491 95.5475 432.312 95.7508C432.133 95.954 432.044 96.1898 432.044 96.4581C432.044 96.8077 432.149 97.0638 432.361 97.2264C432.58 97.3808 432.836 97.4581 433.129 97.4581ZM438.629 98.1776C438.409 98.1776 438.226 98.1288 438.08 98.0312C437.934 97.9418 437.828 97.8077 437.763 97.6288C437.698 97.4418 437.665 97.2142 437.665 96.9459V89.3239H438.543V97.0191C438.543 97.1654 438.572 97.2711 438.629 97.3361C438.686 97.4012 438.751 97.4337 438.824 97.4337C438.848 97.4337 438.877 97.4337 438.909 97.4337C438.942 97.4256 438.986 97.4174 439.043 97.4093L439.165 98.0922C439.1 98.1085 439.023 98.1247 438.934 98.141C438.852 98.1654 438.751 98.1776 438.629 98.1776ZM442.421 98.1776C441.812 98.1776 441.36 97.9825 441.068 97.5922C440.775 97.202 440.629 96.6288 440.629 95.8727V92.1166H441.507V95.763C441.507 96.3321 441.6 96.7508 441.787 97.0191C441.974 97.2792 442.275 97.4093 442.69 97.4093C442.999 97.4093 443.279 97.328 443.531 97.1654C443.783 96.9947 444.056 96.7264 444.348 96.3605V92.1166H445.238V98.0312H444.495L444.421 97.0922H444.385C444.108 97.4174 443.816 97.6817 443.507 97.8849C443.198 98.08 442.836 98.1776 442.421 98.1776ZM449.641 98.1776C449.129 98.1776 448.658 98.0556 448.227 97.8117C447.804 97.5597 447.467 97.206 447.215 96.7508C446.963 96.2873 446.837 95.7304 446.837 95.08C446.837 94.4378 446.963 93.8849 447.215 93.4215C447.467 92.9581 447.792 92.6004 448.19 92.3483C448.597 92.0963 449.028 91.9703 449.483 91.9703C449.971 91.9703 450.389 92.0841 450.739 92.3117C451.089 92.5394 451.353 92.8605 451.532 93.2752C451.719 93.6817 451.812 94.1695 451.812 94.7386C451.812 94.8361 451.808 94.9337 451.8 95.0312C451.8 95.1207 451.792 95.202 451.776 95.2752H447.532L447.519 94.6288H451.019C451.019 93.9947 450.885 93.515 450.617 93.1898C450.349 92.8565 449.975 92.6898 449.495 92.6898C449.202 92.6898 448.918 92.7752 448.641 92.9459C448.365 93.1166 448.137 93.3768 447.958 93.7264C447.78 94.076 447.69 94.5272 447.69 95.08C447.69 95.6085 447.784 96.0475 447.971 96.3971C448.158 96.7467 448.406 97.0109 448.715 97.1898C449.032 97.3686 449.377 97.4581 449.751 97.4581C450.052 97.4581 450.32 97.4134 450.556 97.3239C450.8 97.2345 451.032 97.1207 451.251 96.9825L451.58 97.5678C451.328 97.7304 451.044 97.8727 450.727 97.9947C450.418 98.1166 450.056 98.1776 449.641 98.1776ZM455.305 98.0312V97.2873H457.097V91.3727H455.683V90.7995C456.032 90.7426 456.337 90.6695 456.597 90.58C456.857 90.4825 457.093 90.3727 457.305 90.2508H457.988V97.2873H459.609V98.0312H455.305Z" fill="black"/>
<rect x="406.629" y="111.078" width="12.1951" height="12.1951" fill="#A0DA39"/>
<path d="M427.227 121.176L425.068 115.261H425.983L427.154 118.712C427.251 118.997 427.345 119.286 427.434 119.578C427.532 119.871 427.625 120.16 427.715 120.444H427.763C427.853 120.16 427.946 119.871 428.044 119.578C428.141 119.286 428.235 118.997 428.324 118.712L429.495 115.261H430.373L428.251 121.176H427.227ZM432.897 121.322C432.572 121.322 432.279 121.257 432.019 121.127C431.759 120.997 431.552 120.81 431.397 120.566C431.243 120.314 431.166 120.009 431.166 119.651C431.166 119.009 431.458 118.517 432.044 118.176C432.637 117.826 433.572 117.582 434.849 117.444C434.849 117.176 434.812 116.92 434.739 116.676C434.674 116.432 434.548 116.237 434.361 116.09C434.182 115.936 433.922 115.859 433.58 115.859C433.222 115.859 432.889 115.928 432.58 116.066C432.279 116.204 432.015 116.351 431.788 116.505L431.434 115.895C431.605 115.781 431.808 115.664 432.044 115.542C432.279 115.42 432.54 115.318 432.824 115.237C433.109 115.155 433.409 115.115 433.727 115.115C434.206 115.115 434.592 115.216 434.885 115.42C435.178 115.623 435.389 115.903 435.519 116.261C435.657 116.619 435.727 117.038 435.727 117.517V121.176H434.995L434.922 120.456H434.885C434.601 120.692 434.292 120.895 433.958 121.066C433.625 121.237 433.271 121.322 432.897 121.322ZM433.129 120.603C433.438 120.603 433.722 120.534 433.983 120.395C434.251 120.249 434.54 120.042 434.849 119.773V118.042C434.149 118.123 433.596 118.237 433.19 118.383C432.783 118.521 432.491 118.692 432.312 118.895C432.133 119.099 432.044 119.334 432.044 119.603C432.044 119.952 432.149 120.208 432.361 120.371C432.58 120.525 432.836 120.603 433.129 120.603ZM438.629 121.322C438.409 121.322 438.226 121.273 438.08 121.176C437.934 121.086 437.828 120.952 437.763 120.773C437.698 120.586 437.665 120.359 437.665 120.09V112.468H438.543V120.164C438.543 120.31 438.572 120.416 438.629 120.481C438.686 120.546 438.751 120.578 438.824 120.578C438.848 120.578 438.877 120.578 438.909 120.578C438.942 120.57 438.986 120.562 439.043 120.554L439.165 121.237C439.1 121.253 439.023 121.269 438.934 121.286C438.852 121.31 438.751 121.322 438.629 121.322ZM442.421 121.322C441.812 121.322 441.36 121.127 441.068 120.737C440.775 120.347 440.629 119.773 440.629 119.017V115.261H441.507V118.907C441.507 119.477 441.6 119.895 441.787 120.164C441.974 120.424 442.275 120.554 442.69 120.554C442.999 120.554 443.279 120.473 443.531 120.31C443.783 120.139 444.056 119.871 444.348 119.505V115.261H445.238V121.176H444.495L444.421 120.237H444.385C444.108 120.562 443.816 120.826 443.507 121.029C443.198 121.225 442.836 121.322 442.421 121.322ZM449.641 121.322C449.129 121.322 448.658 121.2 448.227 120.956C447.804 120.704 447.467 120.351 447.215 119.895C446.963 119.432 446.837 118.875 446.837 118.225C446.837 117.582 446.963 117.029 447.215 116.566C447.467 116.103 447.792 115.745 448.19 115.493C448.597 115.241 449.028 115.115 449.483 115.115C449.971 115.115 450.389 115.229 450.739 115.456C451.089 115.684 451.353 116.005 451.532 116.42C451.719 116.826 451.812 117.314 451.812 117.883C451.812 117.981 451.808 118.078 451.8 118.176C451.8 118.265 451.792 118.347 451.776 118.42H447.532L447.519 117.773H451.019C451.019 117.139 450.885 116.66 450.617 116.334C450.349 116.001 449.975 115.834 449.495 115.834C449.202 115.834 448.918 115.92 448.641 116.09C448.365 116.261 448.137 116.521 447.958 116.871C447.78 117.22 447.69 117.672 447.69 118.225C447.69 118.753 447.784 119.192 447.971 119.542C448.158 119.891 448.406 120.155 448.715 120.334C449.032 120.513 449.377 120.603 449.751 120.603C450.052 120.603 450.32 120.558 450.556 120.468C450.8 120.379 451.032 120.265 451.251 120.127L451.58 120.712C451.328 120.875 451.044 121.017 450.727 121.139C450.418 121.261 450.056 121.322 449.641 121.322ZM455.195 121.176V120.651C455.992 119.847 456.666 119.143 457.219 118.542C457.772 117.932 458.191 117.387 458.475 116.907C458.76 116.428 458.902 115.973 458.902 115.542C458.902 115.086 458.776 114.712 458.524 114.42C458.28 114.127 457.894 113.981 457.366 113.981C457.04 113.981 456.731 114.07 456.439 114.249C456.154 114.428 455.898 114.655 455.67 114.932L455.146 114.42C455.471 114.07 455.817 113.79 456.183 113.578C456.548 113.359 456.979 113.249 457.475 113.249C457.947 113.249 458.353 113.342 458.695 113.529C459.044 113.716 459.313 113.981 459.5 114.322C459.687 114.655 459.78 115.05 459.78 115.505C459.78 116.001 459.638 116.501 459.353 117.005C459.077 117.509 458.691 118.046 458.195 118.615C457.707 119.176 457.142 119.794 456.5 120.468C456.711 120.452 456.931 120.44 457.158 120.432C457.386 120.416 457.601 120.407 457.805 120.407H460.158V121.176H455.195Z" fill="black"/>
<rect x="406.629" y="134.227" width="12.1951" height="12.1951" fill="#1FA187"/>
<path d="M427.227 144.324L425.068 138.41H425.983L427.154 141.861C427.251 142.145 427.345 142.434 427.434 142.727C427.532 143.019 427.625 143.308 427.715 143.593H427.763C427.853 143.308 427.946 143.019 428.044 142.727C428.141 142.434 428.235 142.145 428.324 141.861L429.495 138.41H430.373L428.251 144.324H427.227ZM432.897 144.471C432.572 144.471 432.279 144.406 432.019 144.275C431.759 144.145 431.552 143.958 431.397 143.714C431.243 143.462 431.166 143.158 431.166 142.8C431.166 142.158 431.458 141.666 432.044 141.324C432.637 140.975 433.572 140.731 434.849 140.593C434.849 140.324 434.812 140.068 434.739 139.824C434.674 139.58 434.548 139.385 434.361 139.239C434.182 139.084 433.922 139.007 433.58 139.007C433.222 139.007 432.889 139.076 432.58 139.214C432.279 139.353 432.015 139.499 431.788 139.653L431.434 139.044C431.605 138.93 431.808 138.812 432.044 138.69C432.279 138.568 432.54 138.466 432.824 138.385C433.109 138.304 433.409 138.263 433.727 138.263C434.206 138.263 434.592 138.365 434.885 138.568C435.178 138.771 435.389 139.052 435.519 139.41C435.657 139.767 435.727 140.186 435.727 140.666V144.324H434.995L434.922 143.605H434.885C434.601 143.84 434.292 144.044 433.958 144.214C433.625 144.385 433.271 144.471 432.897 144.471ZM433.129 143.751C433.438 143.751 433.722 143.682 433.983 143.544C434.251 143.397 434.54 143.19 434.849 142.922V141.19C434.149 141.271 433.596 141.385 433.19 141.532C432.783 141.67 432.491 141.84 432.312 142.044C432.133 142.247 432.044 142.483 432.044 142.751C432.044 143.101 432.149 143.357 432.361 143.519C432.58 143.674 432.836 143.751 433.129 143.751ZM438.629 144.471C438.409 144.471 438.226 144.422 438.08 144.324C437.934 144.235 437.828 144.101 437.763 143.922C437.698 143.735 437.665 143.507 437.665 143.239V135.617H438.543V143.312C438.543 143.458 438.572 143.564 438.629 143.629C438.686 143.694 438.751 143.727 438.824 143.727C438.848 143.727 438.877 143.727 438.909 143.727C438.942 143.719 438.986 143.71 439.043 143.702L439.165 144.385C439.1 144.401 439.023 144.418 438.934 144.434C438.852 144.458 438.751 144.471 438.629 144.471ZM442.421 144.471C441.812 144.471 441.36 144.275 441.068 143.885C440.775 143.495 440.629 142.922 440.629 142.166V138.41H441.507V142.056C441.507 142.625 441.6 143.044 441.787 143.312C441.974 143.572 442.275 143.702 442.69 143.702C442.999 143.702 443.279 143.621 443.531 143.458C443.783 143.288 444.056 143.019 444.348 142.653V138.41H445.238V144.324H444.495L444.421 143.385H444.385C444.108 143.71 443.816 143.975 443.507 144.178C443.198 144.373 442.836 144.471 442.421 144.471ZM449.641 144.471C449.129 144.471 448.658 144.349 448.227 144.105C447.804 143.853 447.467 143.499 447.215 143.044C446.963 142.58 446.837 142.023 446.837 141.373C446.837 140.731 446.963 140.178 447.215 139.714C447.467 139.251 447.792 138.893 448.19 138.641C448.597 138.389 449.028 138.263 449.483 138.263C449.971 138.263 450.389 138.377 450.739 138.605C451.089 138.832 451.353 139.153 451.532 139.568C451.719 139.975 451.812 140.462 451.812 141.032C451.812 141.129 451.808 141.227 451.8 141.324C451.8 141.414 451.792 141.495 451.776 141.568H447.532L447.519 140.922H451.019C451.019 140.288 450.885 139.808 450.617 139.483C450.349 139.149 449.975 138.983 449.495 138.983C449.202 138.983 448.918 139.068 448.641 139.239C448.365 139.41 448.137 139.67 447.958 140.019C447.78 140.369 447.69 140.82 447.69 141.373C447.69 141.901 447.784 142.34 447.971 142.69C448.158 143.04 448.406 143.304 448.715 143.483C449.032 143.662 449.377 143.751 449.751 143.751C450.052 143.751 450.32 143.706 450.556 143.617C450.8 143.527 451.032 143.414 451.251 143.275L451.58 143.861C451.328 144.023 451.044 144.166 450.727 144.288C450.418 144.41 450.056 144.471 449.641 144.471ZM457.573 144.471C457.158 144.471 456.792 144.418 456.475 144.312C456.158 144.206 455.882 144.072 455.646 143.91C455.41 143.739 455.207 143.56 455.036 143.373L455.488 142.788C455.723 143.032 456 143.251 456.317 143.446C456.642 143.633 457.044 143.727 457.524 143.727C458.012 143.727 458.41 143.593 458.719 143.324C459.036 143.048 459.195 142.682 459.195 142.227C459.195 141.91 459.109 141.629 458.939 141.385C458.776 141.141 458.508 140.954 458.134 140.824C457.768 140.686 457.272 140.617 456.646 140.617V139.922C457.207 139.922 457.65 139.857 457.975 139.727C458.309 139.588 458.548 139.406 458.695 139.178C458.841 138.95 458.914 138.694 458.914 138.41C458.914 138.019 458.788 137.71 458.536 137.483C458.284 137.247 457.943 137.129 457.512 137.129C457.179 137.129 456.87 137.206 456.585 137.361C456.301 137.507 456.044 137.698 455.817 137.934L455.329 137.361C455.63 137.084 455.959 136.857 456.317 136.678C456.675 136.491 457.081 136.397 457.536 136.397C457.975 136.397 458.366 136.475 458.707 136.629C459.048 136.784 459.317 137.007 459.512 137.3C459.715 137.584 459.817 137.934 459.817 138.349C459.817 138.828 459.683 139.223 459.414 139.532C459.154 139.832 458.809 140.06 458.378 140.214V140.263C458.695 140.336 458.983 140.462 459.244 140.641C459.504 140.812 459.711 141.036 459.866 141.312C460.02 141.58 460.097 141.893 460.097 142.251C460.097 142.714 459.983 143.113 459.756 143.446C459.528 143.771 459.223 144.023 458.841 144.202C458.459 144.381 458.036 144.471 457.573 144.471Z" fill="black"/>
<rect x="406.629" y="157.371" width="12.1951" height="12.1951" fill="#277F8E"/>
<path d="M427.227 167.469L425.068 161.554H425.983L427.154 165.005C427.251 165.29 427.345 165.579 427.434 165.871C427.532 166.164 427.625 166.452 427.715 166.737H427.763C427.853 166.452 427.946 166.164 428.044 165.871C428.141 165.579 428.235 165.29 428.324 165.005L429.495 161.554H430.373L428.251 167.469H427.227ZM432.897 167.615C432.572 167.615 432.279 167.55 432.019 167.42C431.759 167.29 431.552 167.103 431.397 166.859C431.243 166.607 431.166 166.302 431.166 165.944C431.166 165.302 431.458 164.81 432.044 164.469C432.637 164.119 433.572 163.875 434.849 163.737C434.849 163.469 434.812 163.213 434.739 162.969C434.674 162.725 434.548 162.53 434.361 162.383C434.182 162.229 433.922 162.152 433.58 162.152C433.222 162.152 432.889 162.221 432.58 162.359C432.279 162.497 432.015 162.644 431.788 162.798L431.434 162.188C431.605 162.074 431.808 161.957 432.044 161.835C432.279 161.713 432.54 161.611 432.824 161.53C433.109 161.448 433.409 161.408 433.727 161.408C434.206 161.408 434.592 161.509 434.885 161.713C435.178 161.916 435.389 162.196 435.519 162.554C435.657 162.912 435.727 163.331 435.727 163.81V167.469H434.995L434.922 166.749H434.885C434.601 166.985 434.292 167.188 433.958 167.359C433.625 167.53 433.271 167.615 432.897 167.615ZM433.129 166.896C433.438 166.896 433.722 166.826 433.983 166.688C434.251 166.542 434.54 166.335 434.849 166.066V164.335C434.149 164.416 433.596 164.53 433.19 164.676C432.783 164.814 432.491 164.985 432.312 165.188C432.133 165.392 432.044 165.627 432.044 165.896C432.044 166.245 432.149 166.501 432.361 166.664C432.58 166.818 432.836 166.896 433.129 166.896ZM438.629 167.615C438.409 167.615 438.226 167.566 438.08 167.469C437.934 167.379 437.828 167.245 437.763 167.066C437.698 166.879 437.665 166.652 437.665 166.383V158.761H438.543V166.457C438.543 166.603 438.572 166.709 438.629 166.774C438.686 166.839 438.751 166.871 438.824 166.871C438.848 166.871 438.877 166.871 438.909 166.871C438.942 166.863 438.986 166.855 439.043 166.847L439.165 167.53C439.1 167.546 439.023 167.562 438.934 167.579C438.852 167.603 438.751 167.615 438.629 167.615ZM442.421 167.615C441.812 167.615 441.36 167.42 441.068 167.03C440.775 166.639 440.629 166.066 440.629 165.31V161.554H441.507V165.2C441.507 165.77 441.6 166.188 441.787 166.457C441.974 166.717 442.275 166.847 442.69 166.847C442.999 166.847 443.279 166.765 443.531 166.603C443.783 166.432 444.056 166.164 444.348 165.798V161.554H445.238V167.469H444.495L444.421 166.53H444.385C444.108 166.855 443.816 167.119 443.507 167.322C443.198 167.518 442.836 167.615 442.421 167.615ZM449.641 167.615C449.129 167.615 448.658 167.493 448.227 167.249C447.804 166.997 447.467 166.644 447.215 166.188C446.963 165.725 446.837 165.168 446.837 164.518C446.837 163.875 446.963 163.322 447.215 162.859C447.467 162.396 447.792 162.038 448.19 161.786C448.597 161.534 449.028 161.408 449.483 161.408C449.971 161.408 450.389 161.522 450.739 161.749C451.089 161.977 451.353 162.298 451.532 162.713C451.719 163.119 451.812 163.607 451.812 164.176C451.812 164.274 451.808 164.371 451.8 164.469C451.8 164.558 451.792 164.639 451.776 164.713H447.532L447.519 164.066H451.019C451.019 163.432 450.885 162.952 450.617 162.627C450.349 162.294 449.975 162.127 449.495 162.127C449.202 162.127 448.918 162.213 448.641 162.383C448.365 162.554 448.137 162.814 447.958 163.164C447.78 163.513 447.69 163.965 447.69 164.518C447.69 165.046 447.784 165.485 447.971 165.835C448.158 166.184 448.406 166.448 448.715 166.627C449.032 166.806 449.377 166.896 449.751 166.896C450.052 166.896 450.32 166.851 450.556 166.761C450.8 166.672 451.032 166.558 451.251 166.42L451.58 167.005C451.328 167.168 451.044 167.31 450.727 167.432C450.418 167.554 450.056 167.615 449.641 167.615ZM458.427 167.469V162.152C458.427 161.948 458.435 161.705 458.451 161.42C458.467 161.135 458.479 160.892 458.488 160.688H458.439C458.341 160.867 458.24 161.042 458.134 161.213C458.028 161.383 457.918 161.566 457.805 161.761L455.866 164.566H460.353V165.274H454.914V164.7L458.317 159.688H459.268V167.469H458.427Z" fill="black"/>
<rect x="406.629" y="180.52" width="12.1951" height="12.1951" fill="#365C8D"/>
<path d="M427.227 190.617L425.068 184.703H425.983L427.154 188.154C427.251 188.438 427.345 188.727 427.434 189.02C427.532 189.312 427.625 189.601 427.715 189.885H427.763C427.853 189.601 427.946 189.312 428.044 189.02C428.141 188.727 428.235 188.438 428.324 188.154L429.495 184.703H430.373L428.251 190.617H427.227ZM432.897 190.764C432.572 190.764 432.279 190.698 432.019 190.568C431.759 190.438 431.552 190.251 431.397 190.007C431.243 189.755 431.166 189.451 431.166 189.093C431.166 188.451 431.458 187.959 432.044 187.617C432.637 187.268 433.572 187.024 434.849 186.885C434.849 186.617 434.812 186.361 434.739 186.117C434.674 185.873 434.548 185.678 434.361 185.532C434.182 185.377 433.922 185.3 433.58 185.3C433.222 185.3 432.889 185.369 432.58 185.507C432.279 185.646 432.015 185.792 431.788 185.946L431.434 185.337C431.605 185.223 431.808 185.105 432.044 184.983C432.279 184.861 432.54 184.759 432.824 184.678C433.109 184.597 433.409 184.556 433.727 184.556C434.206 184.556 434.592 184.658 434.885 184.861C435.178 185.064 435.389 185.345 435.519 185.703C435.657 186.06 435.727 186.479 435.727 186.959V190.617H434.995L434.922 189.898H434.885C434.601 190.133 434.292 190.337 433.958 190.507C433.625 190.678 433.271 190.764 432.897 190.764ZM433.129 190.044C433.438 190.044 433.722 189.975 433.983 189.837C434.251 189.69 434.54 189.483 434.849 189.215V187.483C434.149 187.564 433.596 187.678 433.19 187.825C432.783 187.963 432.491 188.133 432.312 188.337C432.133 188.54 432.044 188.776 432.044 189.044C432.044 189.394 432.149 189.65 432.361 189.812C432.58 189.967 432.836 190.044 433.129 190.044ZM438.629 190.764C438.409 190.764 438.226 190.715 438.08 190.617C437.934 190.528 437.828 190.394 437.763 190.215C437.698 190.028 437.665 189.8 437.665 189.532V181.91H438.543V189.605C438.543 189.751 438.572 189.857 438.629 189.922C438.686 189.987 438.751 190.02 438.824 190.02C438.848 190.02 438.877 190.02 438.909 190.02C438.942 190.011 438.986 190.003 439.043 189.995L439.165 190.678C439.1 190.694 439.023 190.711 438.934 190.727C438.852 190.751 438.751 190.764 438.629 190.764ZM442.421 190.764C441.812 190.764 441.36 190.568 441.068 190.178C440.775 189.788 440.629 189.215 440.629 188.459V184.703H441.507V188.349C441.507 188.918 441.6 189.337 441.787 189.605C441.974 189.865 442.275 189.995 442.69 189.995C442.999 189.995 443.279 189.914 443.531 189.751C443.783 189.581 444.056 189.312 444.348 188.946V184.703H445.238V190.617H444.495L444.421 189.678H444.385C444.108 190.003 443.816 190.268 443.507 190.471C443.198 190.666 442.836 190.764 442.421 190.764ZM449.641 190.764C449.129 190.764 448.658 190.642 448.227 190.398C447.804 190.146 447.467 189.792 447.215 189.337C446.963 188.873 446.837 188.316 446.837 187.666C446.837 187.024 446.963 186.471 447.215 186.007C447.467 185.544 447.792 185.186 448.19 184.934C448.597 184.682 449.028 184.556 449.483 184.556C449.971 184.556 450.389 184.67 450.739 184.898C451.089 185.125 451.353 185.446 451.532 185.861C451.719 186.268 451.812 186.755 451.812 187.325C451.812 187.422 451.808 187.52 451.8 187.617C451.8 187.707 451.792 187.788 451.776 187.861H447.532L447.519 187.215H451.019C451.019 186.581 450.885 186.101 450.617 185.776C450.349 185.442 449.975 185.276 449.495 185.276C449.202 185.276 448.918 185.361 448.641 185.532C448.365 185.703 448.137 185.963 447.958 186.312C447.78 186.662 447.69 187.113 447.69 187.666C447.69 188.194 447.784 188.633 447.971 188.983C448.158 189.333 448.406 189.597 448.715 189.776C449.032 189.955 449.377 190.044 449.751 190.044C450.052 190.044 450.32 189.999 450.556 189.91C450.8 189.82 451.032 189.707 451.251 189.568L451.58 190.154C451.328 190.316 451.044 190.459 450.727 190.581C450.418 190.703 450.056 190.764 449.641 190.764ZM457.536 190.764C457.122 190.764 456.756 190.715 456.439 190.617C456.13 190.511 455.857 190.377 455.622 190.215C455.394 190.052 455.191 189.881 455.012 189.703L455.463 189.117C455.699 189.345 455.971 189.552 456.28 189.739C456.597 189.926 456.992 190.02 457.463 190.02C457.788 190.02 458.085 189.942 458.353 189.788C458.622 189.633 458.833 189.418 458.988 189.142C459.142 188.865 459.219 188.54 459.219 188.166C459.219 187.605 459.065 187.17 458.756 186.861C458.447 186.544 458.032 186.385 457.512 186.385C457.235 186.385 456.996 186.426 456.792 186.507C456.597 186.589 456.382 186.707 456.146 186.861L455.658 186.556L455.914 182.837H459.731V183.605H456.695L456.475 186.032C456.67 185.926 456.866 185.845 457.061 185.788C457.256 185.723 457.475 185.69 457.719 185.69C458.166 185.69 458.569 185.78 458.927 185.959C459.292 186.129 459.581 186.394 459.792 186.751C460.012 187.109 460.122 187.568 460.122 188.129C460.122 188.69 460 189.17 459.756 189.568C459.512 189.959 459.191 190.255 458.792 190.459C458.402 190.662 457.983 190.764 457.536 190.764Z" fill="black"/>
<rect x="406.629" y="203.664" width="12.1951" height="12.1951" fill="#46327E"/>
<path d="M427.227 213.762L425.068 207.847H425.983L427.154 211.298C427.251 211.583 427.345 211.871 427.434 212.164C427.532 212.457 427.625 212.745 427.715 213.03H427.763C427.853 212.745 427.946 212.457 428.044 212.164C428.141 211.871 428.235 211.583 428.324 211.298L429.495 207.847H430.373L428.251 213.762H427.227ZM432.897 213.908C432.572 213.908 432.279 213.843 432.019 213.713C431.759 213.583 431.552 213.396 431.397 213.152C431.243 212.9 431.166 212.595 431.166 212.237C431.166 211.595 431.458 211.103 432.044 210.762C432.637 210.412 433.572 210.168 434.849 210.03C434.849 209.762 434.812 209.506 434.739 209.262C434.674 209.018 434.548 208.823 434.361 208.676C434.182 208.522 433.922 208.445 433.58 208.445C433.222 208.445 432.889 208.514 432.58 208.652C432.279 208.79 432.015 208.937 431.788 209.091L431.434 208.481C431.605 208.367 431.808 208.25 432.044 208.128C432.279 208.006 432.54 207.904 432.824 207.823C433.109 207.741 433.409 207.701 433.727 207.701C434.206 207.701 434.592 207.802 434.885 208.006C435.178 208.209 435.389 208.489 435.519 208.847C435.657 209.205 435.727 209.624 435.727 210.103V213.762H434.995L434.922 213.042H434.885C434.601 213.278 434.292 213.481 433.958 213.652C433.625 213.823 433.271 213.908 432.897 213.908ZM433.129 213.189C433.438 213.189 433.722 213.119 433.983 212.981C434.251 212.835 434.54 212.628 434.849 212.359V210.628C434.149 210.709 433.596 210.823 433.19 210.969C432.783 211.107 432.491 211.278 432.312 211.481C432.133 211.684 432.044 211.92 432.044 212.189C432.044 212.538 432.149 212.794 432.361 212.957C432.58 213.111 432.836 213.189 433.129 213.189ZM438.629 213.908C438.409 213.908 438.226 213.859 438.08 213.762C437.934 213.672 437.828 213.538 437.763 213.359C437.698 213.172 437.665 212.945 437.665 212.676V205.054H438.543V212.75C438.543 212.896 438.572 213.002 438.629 213.067C438.686 213.132 438.751 213.164 438.824 213.164C438.848 213.164 438.877 213.164 438.909 213.164C438.942 213.156 438.986 213.148 439.043 213.14L439.165 213.823C439.1 213.839 439.023 213.855 438.934 213.871C438.852 213.896 438.751 213.908 438.629 213.908ZM442.421 213.908C441.812 213.908 441.36 213.713 441.068 213.323C440.775 212.932 440.629 212.359 440.629 211.603V207.847H441.507V211.493C441.507 212.063 441.6 212.481 441.787 212.75C441.974 213.01 442.275 213.14 442.69 213.14C442.999 213.14 443.279 213.058 443.531 212.896C443.783 212.725 444.056 212.457 444.348 212.091V207.847H445.238V213.762H444.495L444.421 212.823H444.385C444.108 213.148 443.816 213.412 443.507 213.615C443.198 213.81 442.836 213.908 442.421 213.908ZM449.641 213.908C449.129 213.908 448.658 213.786 448.227 213.542C447.804 213.29 447.467 212.937 447.215 212.481C446.963 212.018 446.837 211.461 446.837 210.81C446.837 210.168 446.963 209.615 447.215 209.152C447.467 208.689 447.792 208.331 448.19 208.079C448.597 207.827 449.028 207.701 449.483 207.701C449.971 207.701 450.389 207.815 450.739 208.042C451.089 208.27 451.353 208.591 451.532 209.006C451.719 209.412 451.812 209.9 451.812 210.469C451.812 210.567 451.808 210.664 451.8 210.762C451.8 210.851 451.792 210.932 451.776 211.006H447.532L447.519 210.359H451.019C451.019 209.725 450.885 209.245 450.617 208.92C450.349 208.587 449.975 208.42 449.495 208.42C449.202 208.42 448.918 208.506 448.641 208.676C448.365 208.847 448.137 209.107 447.958 209.457C447.78 209.806 447.69 210.258 447.69 210.81C447.69 211.339 447.784 211.778 447.971 212.128C448.158 212.477 448.406 212.741 448.715 212.92C449.032 213.099 449.377 213.189 449.751 213.189C450.052 213.189 450.32 213.144 450.556 213.054C450.8 212.965 451.032 212.851 451.251 212.713L451.58 213.298C451.328 213.461 451.044 213.603 450.727 213.725C450.418 213.847 450.056 213.908 449.641 213.908ZM457.951 213.908C457.569 213.908 457.215 213.831 456.89 213.676C456.565 213.522 456.284 213.29 456.048 212.981C455.821 212.664 455.638 212.274 455.5 211.81C455.37 211.339 455.305 210.798 455.305 210.189C455.305 209.392 455.386 208.717 455.548 208.164C455.711 207.611 455.927 207.164 456.195 206.823C456.471 206.481 456.784 206.233 457.134 206.079C457.492 205.916 457.862 205.835 458.244 205.835C458.65 205.835 459 205.912 459.292 206.067C459.593 206.213 459.849 206.404 460.061 206.64L459.561 207.201C459.398 207.006 459.203 206.855 458.975 206.75C458.756 206.636 458.52 206.579 458.268 206.579C457.886 206.579 457.532 206.693 457.207 206.92C456.89 207.148 456.634 207.526 456.439 208.054C456.244 208.575 456.146 209.286 456.146 210.189C456.146 210.823 456.215 211.367 456.353 211.823C456.492 212.27 456.695 212.611 456.963 212.847C457.231 213.083 457.565 213.201 457.963 213.201C458.223 213.201 458.459 213.128 458.67 212.981C458.89 212.827 459.061 212.615 459.183 212.347C459.305 212.079 459.366 211.774 459.366 211.432C459.366 211.083 459.309 210.778 459.195 210.518C459.089 210.258 458.927 210.058 458.707 209.92C458.488 209.774 458.207 209.701 457.866 209.701C457.605 209.701 457.321 209.786 457.012 209.957C456.703 210.128 456.406 210.42 456.122 210.835L456.097 210.103C456.349 209.77 456.646 209.506 456.988 209.31C457.329 209.115 457.67 209.018 458.012 209.018C458.459 209.018 458.845 209.111 459.17 209.298C459.504 209.477 459.76 209.745 459.939 210.103C460.118 210.453 460.207 210.896 460.207 211.432C460.207 211.92 460.105 212.351 459.902 212.725C459.699 213.091 459.427 213.38 459.085 213.591C458.744 213.802 458.366 213.908 457.951 213.908Z" fill="black"/>
<rect x="406.629" y="226.812" width="12.1951" height="12.1951" fill="#440154"/>
<path d="M427.227 236.91L425.068 230.996H425.983L427.154 234.447C427.251 234.731 427.345 235.02 427.434 235.313C427.532 235.605 427.625 235.894 427.715 236.178H427.763C427.853 235.894 427.946 235.605 428.044 235.313C428.141 235.02 428.235 234.731 428.324 234.447L429.495 230.996H430.373L428.251 236.91H427.227ZM432.897 237.056C432.572 237.056 432.279 236.991 432.019 236.861C431.759 236.731 431.552 236.544 431.397 236.3C431.243 236.048 431.166 235.743 431.166 235.386C431.166 234.743 431.458 234.252 432.044 233.91C432.637 233.561 433.572 233.317 434.849 233.178C434.849 232.91 434.812 232.654 434.739 232.41C434.674 232.166 434.548 231.971 434.361 231.825C434.182 231.67 433.922 231.593 433.58 231.593C433.222 231.593 432.889 231.662 432.58 231.8C432.279 231.939 432.015 232.085 431.788 232.239L431.434 231.63C431.605 231.516 431.808 231.398 432.044 231.276C432.279 231.154 432.54 231.052 432.824 230.971C433.109 230.89 433.409 230.849 433.727 230.849C434.206 230.849 434.592 230.951 434.885 231.154C435.178 231.357 435.389 231.638 435.519 231.996C435.657 232.353 435.727 232.772 435.727 233.252V236.91H434.995L434.922 236.191H434.885C434.601 236.426 434.292 236.63 433.958 236.8C433.625 236.971 433.271 237.056 432.897 237.056ZM433.129 236.337C433.438 236.337 433.722 236.268 433.983 236.13C434.251 235.983 434.54 235.776 434.849 235.508V233.776C434.149 233.857 433.596 233.971 433.19 234.117C432.783 234.256 432.491 234.426 432.312 234.63C432.133 234.833 432.044 235.069 432.044 235.337C432.044 235.687 432.149 235.943 432.361 236.105C432.58 236.26 432.836 236.337 433.129 236.337ZM438.629 237.056C438.409 237.056 438.226 237.008 438.08 236.91C437.934 236.821 437.828 236.687 437.763 236.508C437.698 236.321 437.665 236.093 437.665 235.825V228.203H438.543V235.898C438.543 236.044 438.572 236.15 438.629 236.215C438.686 236.28 438.751 236.313 438.824 236.313C438.848 236.313 438.877 236.313 438.909 236.313C438.942 236.304 438.986 236.296 439.043 236.288L439.165 236.971C439.1 236.987 439.023 237.004 438.934 237.02C438.852 237.044 438.751 237.056 438.629 237.056ZM442.421 237.056C441.812 237.056 441.36 236.861 441.068 236.471C440.775 236.081 440.629 235.508 440.629 234.752V230.996H441.507V234.642C441.507 235.211 441.6 235.63 441.787 235.898C441.974 236.158 442.275 236.288 442.69 236.288C442.999 236.288 443.279 236.207 443.531 236.044C443.783 235.874 444.056 235.605 444.348 235.239V230.996H445.238V236.91H444.495L444.421 235.971H444.385C444.108 236.296 443.816 236.561 443.507 236.764C443.198 236.959 442.836 237.056 442.421 237.056ZM449.641 237.056C449.129 237.056 448.658 236.935 448.227 236.691C447.804 236.439 447.467 236.085 447.215 235.63C446.963 235.166 446.837 234.609 446.837 233.959C446.837 233.317 446.963 232.764 447.215 232.3C447.467 231.837 447.792 231.479 448.19 231.227C448.597 230.975 449.028 230.849 449.483 230.849C449.971 230.849 450.389 230.963 450.739 231.191C451.089 231.418 451.353 231.739 451.532 232.154C451.719 232.561 451.812 233.048 451.812 233.617C451.812 233.715 451.808 233.813 451.8 233.91C451.8 234 451.792 234.081 451.776 234.154H447.532L447.519 233.508H451.019C451.019 232.874 450.885 232.394 450.617 232.069C450.349 231.735 449.975 231.569 449.495 231.569C449.202 231.569 448.918 231.654 448.641 231.825C448.365 231.996 448.137 232.256 447.958 232.605C447.78 232.955 447.69 233.406 447.69 233.959C447.69 234.487 447.784 234.926 447.971 235.276C448.158 235.626 448.406 235.89 448.715 236.069C449.032 236.248 449.377 236.337 449.751 236.337C450.052 236.337 450.32 236.292 450.556 236.203C450.8 236.113 451.032 236 451.251 235.861L451.58 236.447C451.328 236.609 451.044 236.752 450.727 236.874C450.418 236.996 450.056 237.056 449.641 237.056ZM456.902 236.91C456.943 235.918 457.044 235.028 457.207 234.239C457.37 233.451 457.609 232.711 457.927 232.02C458.244 231.321 458.658 230.613 459.17 229.898H455.244V229.13H460.195V229.666C459.731 230.26 459.353 230.833 459.061 231.386C458.768 231.93 458.536 232.483 458.366 233.044C458.203 233.605 458.081 234.199 458 234.825C457.918 235.451 457.857 236.146 457.817 236.91H456.902Z" fill="black"/>
<line x1="72.4045" y1="29.4861" x2="375.758" y2="29.4861" stroke="#D3D6DF" stroke-width="0.762195" stroke-linecap="square" stroke-dasharray="1.52 1.52"/>
<line x1="72.4045" y1="73.6931" x2="375.758" y2="73.6931" stroke="#D3D6DF" stroke-width="0.762195" stroke-linecap="square" stroke-dasharray="1.52 1.52"/>
<line x1="72.4045" y1="117.9" x2="375.758" y2="117.9" stroke="#D3D6DF" stroke-width="0.762195" stroke-linecap="square" stroke-dasharray="1.52 1.52"/>
<line x1="72.4045" y1="162.107" x2="375.758" y2="162.107" stroke="#3347E6" stroke-width="0.762195" stroke-linecap="square" stroke-dasharray="1.52 1.52"/>
<line x1="72.4045" y1="206.314" x2="375.758" y2="206.314" stroke="#D3D6DF" stroke-width="0.762195" stroke-linecap="square" stroke-dasharray="1.52 1.52"/>
<line x1="72.4045" y1="250.521" x2="375.758" y2="250.521" stroke="#D3D6DF" stroke-width="0.762195" stroke-linecap="square" stroke-dasharray="1.52 1.52"/>
<line x1="72.4045" y1="294.728" x2="375.758" y2="294.728" stroke="#D3D6DF" stroke-width="0.762195" stroke-linecap="square" stroke-dasharray="1.52 1.52"/>
<line x1="92.2229" y1="30.2483" x2="92.2229" y2="300.065" stroke="#D3D6DF" stroke-width="0.762195" stroke-linecap="square" stroke-dasharray="1.52 1.52"/>
<line x1="136.43" y1="30.2483" x2="136.43" y2="300.065" stroke="#D3D6DF" stroke-width="0.762195" stroke-linecap="square" stroke-dasharray="1.52 1.52"/>
<line x1="180.637" y1="30.2483" x2="180.637" y2="300.065" stroke="#D3D6DF" stroke-width="0.762195" stroke-linecap="square" stroke-dasharray="1.52 1.52"/>
<line x1="224.844" y1="30.2483" x2="224.844" y2="300.065" stroke="#3347E6" stroke-width="0.762195" stroke-linecap="square" stroke-dasharray="1.52 1.52"/>
<line x1="269.053" y1="30.2483" x2="269.053" y2="300.065" stroke="#D3D6DF" stroke-width="0.762195" stroke-linecap="square" stroke-dasharray="1.52 1.52"/>
<line x1="313.26" y1="30.2483" x2="313.26" y2="300.065" stroke="#D3D6DF" stroke-width="0.762195" stroke-linecap="square" stroke-dasharray="1.52 1.52"/>
<line x1="357.467" y1="30.2483" x2="357.467" y2="300.065" stroke="#D3D6DF" stroke-width="0.762195" stroke-linecap="square" stroke-dasharray="1.52 1.52"/>
<path d="M85.1777 314.84V314.144H87.946V314.84H85.1777ZM91.295 317.693C90.8804 317.693 90.5145 317.64 90.1975 317.535C89.8804 317.429 89.604 317.295 89.3682 317.132C89.1324 316.962 88.9292 316.783 88.7584 316.596L89.2097 316.01C89.4454 316.254 89.7218 316.474 90.0389 316.669C90.3641 316.856 90.7666 316.949 91.2462 316.949C91.734 316.949 92.1324 316.815 92.4414 316.547C92.7584 316.27 92.917 315.905 92.917 315.449C92.917 315.132 92.8316 314.852 92.6609 314.608C92.4983 314.364 92.23 314.177 91.856 314.047C91.4901 313.909 90.9942 313.84 90.3682 313.84V313.144C90.9292 313.144 91.3723 313.079 91.6975 312.949C92.0308 312.811 92.2706 312.628 92.417 312.401C92.5633 312.173 92.6365 311.917 92.6365 311.632C92.6365 311.242 92.5105 310.933 92.2584 310.705C92.0064 310.47 91.6649 310.352 91.234 310.352C90.9007 310.352 90.5918 310.429 90.3072 310.583C90.0227 310.73 89.7666 310.921 89.5389 311.157L89.0511 310.583C89.3519 310.307 89.6812 310.079 90.0389 309.901C90.3966 309.714 90.8031 309.62 91.2584 309.62C91.6975 309.62 92.0877 309.697 92.4292 309.852C92.7706 310.006 93.0389 310.23 93.234 310.522C93.4373 310.807 93.5389 311.157 93.5389 311.571C93.5389 312.051 93.4048 312.445 93.1365 312.754C92.8763 313.055 92.5308 313.283 92.0999 313.437V313.486C92.417 313.559 92.7056 313.685 92.9657 313.864C93.2259 314.035 93.4332 314.258 93.5877 314.535C93.7422 314.803 93.8194 315.116 93.8194 315.474C93.8194 315.937 93.7056 316.335 93.4779 316.669C93.2503 316.994 92.9454 317.246 92.5633 317.425C92.1812 317.604 91.7584 317.693 91.295 317.693Z" fill="#222539"/>
<path d="M130.146 314.84V314.144H132.915V314.84H130.146ZM133.886 317.547V317.022C134.682 316.218 135.357 315.514 135.91 314.913C136.463 314.303 136.882 313.758 137.166 313.279C137.451 312.799 137.593 312.344 137.593 311.913C137.593 311.457 137.467 311.083 137.215 310.791C136.971 310.498 136.585 310.352 136.056 310.352C135.731 310.352 135.422 310.441 135.13 310.62C134.845 310.799 134.589 311.027 134.361 311.303L133.837 310.791C134.162 310.441 134.508 310.161 134.874 309.949C135.239 309.73 135.67 309.62 136.166 309.62C136.638 309.62 137.044 309.714 137.386 309.901C137.735 310.088 138.004 310.352 138.191 310.693C138.378 311.027 138.471 311.421 138.471 311.876C138.471 312.372 138.329 312.872 138.044 313.376C137.768 313.88 137.382 314.417 136.886 314.986C136.398 315.547 135.833 316.165 135.191 316.84C135.402 316.823 135.621 316.811 135.849 316.803C136.077 316.787 136.292 316.779 136.495 316.779H138.849V317.547H133.886Z" fill="#222539"/>
<path d="M175.367 314.84V314.144H178.136V314.84H175.367ZM179.216 317.547V316.803H181.009V310.888H179.594V310.315C179.944 310.258 180.249 310.185 180.509 310.096C180.769 309.998 181.005 309.888 181.216 309.766H181.899V316.803H183.521V317.547H179.216Z" fill="#222539"/>
<path d="M224.462 317.693C223.697 317.693 223.096 317.344 222.657 316.644C222.226 315.937 222.01 314.933 222.01 313.632C222.01 312.323 222.226 311.327 222.657 310.644C223.096 309.962 223.697 309.62 224.462 309.62C225.234 309.62 225.836 309.966 226.267 310.657C226.697 311.34 226.913 312.331 226.913 313.632C226.913 314.933 226.697 315.937 226.267 316.644C225.836 317.344 225.234 317.693 224.462 317.693ZM224.462 316.974C224.779 316.974 225.055 316.856 225.291 316.62C225.535 316.384 225.722 316.018 225.852 315.522C225.982 315.027 226.047 314.396 226.047 313.632C226.047 312.86 225.982 312.234 225.852 311.754C225.722 311.266 225.535 310.909 225.291 310.681C225.055 310.453 224.779 310.34 224.462 310.34C224.145 310.34 223.868 310.453 223.632 310.681C223.397 310.909 223.21 311.266 223.071 311.754C222.941 312.234 222.876 312.86 222.876 313.632C222.876 314.396 222.941 315.027 223.071 315.522C223.21 316.018 223.397 316.384 223.632 316.62C223.868 316.856 224.145 316.974 224.462 316.974Z" fill="#222539"/>
<path d="M267.28 317.547V316.803H269.073V310.888H267.658V310.315C268.008 310.258 268.313 310.185 268.573 310.096C268.833 309.998 269.069 309.888 269.28 309.766H269.963V316.803H271.585V317.547H267.28Z" fill="#222539"/>
<path d="M308.792 317.547V317.022C309.589 316.218 310.264 315.514 310.817 314.913C311.37 314.303 311.788 313.758 312.073 313.279C312.358 312.799 312.5 312.344 312.5 311.913C312.5 311.457 312.374 311.083 312.122 310.791C311.878 310.498 311.492 310.352 310.963 310.352C310.638 310.352 310.329 310.441 310.036 310.62C309.752 310.799 309.496 311.027 309.268 311.303L308.744 310.791C309.069 310.441 309.414 310.161 309.78 309.949C310.146 309.73 310.577 309.62 311.073 309.62C311.545 309.62 311.951 309.714 312.292 309.901C312.642 310.088 312.91 310.352 313.097 310.693C313.284 311.027 313.378 311.421 313.378 311.876C313.378 312.372 313.236 312.872 312.951 313.376C312.675 313.88 312.288 314.417 311.792 314.986C311.305 315.547 310.74 316.165 310.097 316.84C310.309 316.823 310.528 316.811 310.756 316.803C310.984 316.787 311.199 316.779 311.402 316.779H313.756V317.547H308.792Z" fill="#222539"/>
<path d="M356.139 317.693C355.725 317.693 355.359 317.64 355.042 317.535C354.725 317.429 354.448 317.295 354.212 317.132C353.977 316.962 353.773 316.783 353.603 316.596L354.054 316.01C354.29 316.254 354.566 316.474 354.883 316.669C355.208 316.856 355.611 316.949 356.091 316.949C356.578 316.949 356.977 316.815 357.286 316.547C357.603 316.27 357.761 315.905 357.761 315.449C357.761 315.132 357.676 314.852 357.505 314.608C357.343 314.364 357.074 314.177 356.7 314.047C356.334 313.909 355.838 313.84 355.212 313.84V313.144C355.773 313.144 356.217 313.079 356.542 312.949C356.875 312.811 357.115 312.628 357.261 312.401C357.408 312.173 357.481 311.917 357.481 311.632C357.481 311.242 357.355 310.933 357.103 310.705C356.851 310.47 356.509 310.352 356.078 310.352C355.745 310.352 355.436 310.429 355.151 310.583C354.867 310.73 354.611 310.921 354.383 311.157L353.895 310.583C354.196 310.307 354.525 310.079 354.883 309.901C355.241 309.714 355.647 309.62 356.103 309.62C356.542 309.62 356.932 309.697 357.273 309.852C357.615 310.006 357.883 310.23 358.078 310.522C358.282 310.807 358.383 311.157 358.383 311.571C358.383 312.051 358.249 312.445 357.981 312.754C357.721 313.055 357.375 313.283 356.944 313.437V313.486C357.261 313.559 357.55 313.685 357.81 313.864C358.07 314.035 358.278 314.258 358.432 314.535C358.586 314.803 358.664 315.116 358.664 315.474C358.664 315.937 358.55 316.335 358.322 316.669C358.095 316.994 357.79 317.246 357.408 317.425C357.025 317.604 356.603 317.693 356.139 317.693Z" fill="#222539"/>
<path d="M62.7175 34.1463C62.3029 34.1463 61.9371 34.0935 61.62 33.9878C61.3029 33.8821 61.0265 33.748 60.7907 33.5854C60.5549 33.4146 60.3517 33.2358 60.181 33.0488L60.6322 32.4634C60.868 32.7073 61.1444 32.9268 61.4615 33.122C61.7867 33.3089 62.1891 33.4024 62.6688 33.4024C63.1566 33.4024 63.5549 33.2683 63.8639 33C64.181 32.7236 64.3395 32.3577 64.3395 31.9024C64.3395 31.5854 64.2541 31.3049 64.0834 31.061C63.9208 30.8171 63.6525 30.6301 63.2785 30.5C62.9127 30.3618 62.4167 30.2927 61.7907 30.2927V29.5976C62.3517 29.5976 62.7948 29.5325 63.12 29.4024C63.4533 29.2642 63.6932 29.0813 63.8395 28.8537C63.9858 28.626 64.059 28.3699 64.059 28.0854C64.059 27.6951 63.933 27.3862 63.681 27.1585C63.4289 26.9228 63.0875 26.8049 62.6566 26.8049C62.3232 26.8049 62.0143 26.8821 61.7297 27.0366C61.4452 27.1829 61.1891 27.374 60.9615 27.6098L60.4736 27.0366C60.7745 26.7602 61.1037 26.5325 61.4615 26.3537C61.8192 26.1667 62.2257 26.0732 62.681 26.0732C63.12 26.0732 63.5102 26.1504 63.8517 26.3049C64.1932 26.4593 64.4615 26.6829 64.6566 26.9756C64.8598 27.2602 64.9615 27.6098 64.9615 28.0244C64.9615 28.5041 64.8273 28.8984 64.559 29.2073C64.2989 29.5081 63.9533 29.7358 63.5224 29.8902V29.939C63.8395 30.0122 64.1281 30.1382 64.3883 30.3171C64.6484 30.4878 64.8558 30.7114 65.0102 30.9878C65.1647 31.2561 65.2419 31.5691 65.2419 31.9268C65.2419 32.3902 65.1281 32.7886 64.9005 33.122C64.6728 33.4472 64.368 33.6992 63.9858 33.878C63.6037 34.0569 63.181 34.1463 62.7175 34.1463ZM60.3395 78V77.4756C61.1362 76.6707 61.811 75.9675 62.3639 75.3659C62.9167 74.7561 63.3354 74.2114 63.62 73.7317C63.9045 73.252 64.0468 72.7967 64.0468 72.3659C64.0468 71.9106 63.9208 71.5366 63.6688 71.2439C63.4249 70.9512 63.0387 70.8049 62.5102 70.8049C62.185 70.8049 61.8761 70.8943 61.5834 71.0732C61.2989 71.252 61.0428 71.4797 60.8151 71.7561L60.2907 71.2439C60.6159 70.8943 60.9615 70.6138 61.3273 70.4024C61.6932 70.1829 62.1241 70.0732 62.62 70.0732C63.0915 70.0732 63.498 70.1667 63.8395 70.3537C64.1891 70.5407 64.4574 70.8049 64.6444 71.1463C64.8314 71.4797 64.9249 71.874 64.9249 72.3293C64.9249 72.8252 64.7826 73.3252 64.498 73.8293C64.2216 74.3333 63.8354 74.8699 63.3395 75.439C62.8517 76 62.2867 76.6179 61.6444 77.2927C61.8558 77.2764 62.0753 77.2642 62.3029 77.2561C62.5306 77.2398 62.746 77.2317 62.9493 77.2317H65.3029V78H60.3395ZM60.9494 122V121.256H62.7421V115.341H61.3275V114.768C61.6771 114.711 61.982 114.638 62.2421 114.549C62.5023 114.451 62.7381 114.341 62.9494 114.22H63.6324V121.256H65.2543V122H60.9494ZM62.8517 166.146C62.0875 166.146 61.4858 165.797 61.0468 165.098C60.6159 164.39 60.4005 163.386 60.4005 162.085C60.4005 160.776 60.6159 159.78 61.0468 159.098C61.4858 158.415 62.0875 158.073 62.8517 158.073C63.6241 158.073 64.2257 158.419 64.6566 159.11C65.0875 159.793 65.3029 160.785 65.3029 162.085C65.3029 163.386 65.0875 164.39 64.6566 165.098C64.2257 165.797 63.6241 166.146 62.8517 166.146ZM62.8517 165.427C63.1688 165.427 63.4452 165.309 63.681 165.073C63.9249 164.837 64.1119 164.472 64.2419 163.976C64.372 163.48 64.4371 162.85 64.4371 162.085C64.4371 161.313 64.372 160.687 64.2419 160.207C64.1119 159.72 63.9249 159.362 63.681 159.134C63.4452 158.907 63.1688 158.793 62.8517 158.793C62.5346 158.793 62.2582 158.907 62.0224 159.134C61.7867 159.362 61.5997 159.72 61.4615 160.207C61.3314 160.687 61.2663 161.313 61.2663 162.085C61.2663 162.85 61.3314 163.48 61.4615 163.976C61.5997 164.472 61.7867 164.837 62.0224 165.073C62.2582 165.309 62.5346 165.427 62.8517 165.427ZM57.1005 207.293V206.598H59.8688V207.293H57.1005ZM60.9494 210V209.256H62.7421V203.341H61.3275V202.768C61.6771 202.711 61.982 202.638 62.2421 202.549C62.5023 202.451 62.7381 202.341 62.9494 202.22H63.6324V209.256H65.2543V210H60.9494ZM56.6003 252.293V251.598H59.3686V252.293H56.6003ZM60.3395 255V254.476C61.1362 253.671 61.811 252.967 62.3639 252.366C62.9167 251.756 63.3354 251.211 63.62 250.732C63.9045 250.252 64.0468 249.797 64.0468 249.366C64.0468 248.911 63.9208 248.537 63.6688 248.244C63.4249 247.951 63.0387 247.805 62.5102 247.805C62.185 247.805 61.8761 247.894 61.5834 248.073C61.2989 248.252 61.0428 248.48 60.8151 248.756L60.2907 248.244C60.6159 247.894 60.9615 247.614 61.3273 247.402C61.6932 247.183 62.1241 247.073 62.62 247.073C63.0915 247.073 63.498 247.167 63.8395 247.354C64.1891 247.541 64.4574 247.805 64.6444 248.146C64.8314 248.48 64.9249 248.874 64.9249 249.329C64.9249 249.825 64.7826 250.325 64.498 250.829C64.2216 251.333 63.8354 251.87 63.3395 252.439C62.8517 253 62.2867 253.618 61.6444 254.293C61.8558 254.276 62.0753 254.264 62.3029 254.256C62.5306 254.24 62.746 254.232 62.9493 254.232H65.3029V255H60.3395ZM56.6003 296.293V295.598H59.3686V296.293H56.6003ZM62.7175 299.146C62.3029 299.146 61.9371 299.093 61.62 298.988C61.3029 298.882 61.0265 298.748 60.7907 298.585C60.5549 298.415 60.3517 298.236 60.181 298.049L60.6322 297.463C60.868 297.707 61.1444 297.927 61.4615 298.122C61.7867 298.309 62.1891 298.402 62.6688 298.402C63.1566 298.402 63.5549 298.268 63.8639 298C64.181 297.724 64.3395 297.358 64.3395 296.902C64.3395 296.585 64.2541 296.305 64.0834 296.061C63.9208 295.817 63.6525 295.63 63.2785 295.5C62.9127 295.362 62.4167 295.293 61.7907 295.293V294.598C62.3517 294.598 62.7948 294.533 63.12 294.402C63.4533 294.264 63.6932 294.081 63.8395 293.854C63.9858 293.626 64.059 293.37 64.059 293.085C64.059 292.695 63.933 292.386 63.681 292.159C63.4289 291.923 63.0875 291.805 62.6566 291.805C62.3232 291.805 62.0143 291.882 61.7297 292.037C61.4452 292.183 61.1891 292.374 60.9615 292.61L60.4736 292.037C60.7745 291.76 61.1037 291.533 61.4615 291.354C61.8192 291.167 62.2257 291.073 62.681 291.073C63.12 291.073 63.5102 291.15 63.8517 291.305C64.1932 291.459 64.4615 291.683 64.6566 291.976C64.8598 292.26 64.9615 292.61 64.9615 293.024C64.9615 293.504 64.8273 293.898 64.559 294.207C64.2989 294.508 63.9533 294.736 63.5224 294.89V294.939C63.8395 295.012 64.1281 295.138 64.3883 295.317C64.6484 295.488 64.8558 295.711 65.0102 295.988C65.1647 296.256 65.2419 296.569 65.2419 296.927C65.2419 297.39 65.1281 297.789 64.9005 298.122C64.6728 298.447 64.368 298.699 63.9858 298.878C63.6037 299.057 63.181 299.146 62.7175 299.146Z" fill="#222539"/>
<path d="M38.293 170.955H31.0491V173.418H30.2808V167.601H31.0491V170.052H38.293V170.955ZM38.293 166.221H32.3783V165.342H38.293V166.221ZM31.11 165.769C31.11 165.94 31.0531 166.086 30.9393 166.208C30.8255 166.322 30.6751 166.379 30.4881 166.379C30.3092 166.379 30.167 166.322 30.0613 166.208C29.9474 166.086 29.8905 165.94 29.8905 165.769C29.8905 165.59 29.9474 165.444 30.0613 165.33C30.167 165.216 30.3092 165.16 30.4881 165.16C30.6751 165.16 30.8255 165.216 30.9393 165.33C31.0531 165.444 31.11 165.59 31.11 165.769ZM38.4393 161.474C38.4393 162.084 38.2604 162.511 37.9027 162.755C37.545 162.991 37.0816 163.108 36.5125 163.108H33.11V163.999H32.4393L32.3783 163.072L30.7076 162.962V162.218H32.3783V160.596H33.11V162.218H36.5369C36.9027 162.218 37.1913 162.153 37.4027 162.023C37.606 161.885 37.7076 161.637 37.7076 161.279C37.7076 161.174 37.6913 161.06 37.6588 160.938C37.6263 160.808 37.5897 160.694 37.5491 160.596L38.2198 160.413C38.2767 160.576 38.3255 160.751 38.3661 160.938C38.4149 161.125 38.4393 161.304 38.4393 161.474ZM38.4393 158.266C38.4393 158.486 38.3905 158.669 38.293 158.815C38.2035 158.961 38.0694 159.067 37.8905 159.132C37.7035 159.197 37.4759 159.23 37.2076 159.23H29.5857V158.352H37.2808C37.4271 158.352 37.5328 158.323 37.5978 158.266C37.6629 158.209 37.6954 158.144 37.6954 158.071C37.6954 158.047 37.6954 158.018 37.6954 157.986C37.6873 157.953 37.6791 157.909 37.671 157.852L38.3539 157.73C38.3702 157.795 38.3865 157.872 38.4027 157.961C38.4271 158.043 38.4393 158.144 38.4393 158.266ZM38.4393 153.84C38.4393 154.352 38.3174 154.823 38.0735 155.254C37.8214 155.677 37.4678 156.014 37.0125 156.266C36.5491 156.518 35.9922 156.644 35.3417 156.644C34.6995 156.644 34.1466 156.518 33.6832 156.266C33.2198 156.014 32.8621 155.689 32.61 155.291C32.358 154.884 32.232 154.453 32.232 153.998C32.232 153.51 32.3458 153.092 32.5735 152.742C32.8011 152.392 33.1222 152.128 33.5369 151.949C33.9434 151.762 34.4312 151.669 35.0003 151.669C35.0978 151.669 35.1954 151.673 35.293 151.681C35.3824 151.681 35.4637 151.689 35.5369 151.705V155.949L34.8905 155.961V152.461C34.2564 152.461 33.7767 152.596 33.4515 152.864C33.1182 153.132 32.9515 153.506 32.9515 153.986C32.9515 154.279 33.0369 154.563 33.2076 154.84C33.3783 155.116 33.6385 155.344 33.9881 155.522C34.3377 155.701 34.7889 155.791 35.3417 155.791C35.8702 155.791 36.3092 155.697 36.6588 155.51C37.0084 155.323 37.2726 155.075 37.4515 154.766C37.6304 154.449 37.7198 154.104 37.7198 153.73C37.7198 153.429 37.6751 153.161 37.5857 152.925C37.4962 152.681 37.3824 152.449 37.2442 152.23L37.8296 151.9C37.9922 152.153 38.1344 152.437 38.2564 152.754C38.3783 153.063 38.4393 153.425 38.4393 153.84Z" fill="#3F4252"/>
<rect x="88.0293" y="34.4414" width="271.341" height="255.335" fill="#440154"/>
<path d="M177.27 263.796C228.483 273.659 229.433 283.95 278.975 267.068C345.707 244.328 373.547 149.927 327.517 82.7906C281.488 15.6539 214.789 88.4122 158.356 85.7945C101.922 83.1769 81.7677 103.791 111.845 210.461C122.604 248.617 140.168 256.65 177.27 263.796Z" fill="#46327E"/>
<path d="M257.144 103.652C215.486 95.6073 199.788 85.3529 159.489 99.1228C105.207 117.671 96.2397 191.914 137.142 234.006C173.186 271.099 249.311 267.867 292.961 241.479C333.332 217.072 365.827 160.452 330.648 128.274C307.433 107.039 287.324 109.481 257.144 103.652Z" fill="#365C8D"/>
<path d="M243.884 114.26C207.742 107.474 192.178 84.4371 163.651 108.222C125.904 139.694 119.34 186.292 154.826 221.796C186.097 253.084 204.312 241.839 249.069 246.182C292.545 250.4 353.447 164.26 322.927 137.118C302.786 119.207 270.068 119.176 243.884 114.26Z" fill="#277F8E"/>
<path d="M251.76 140.896C222.23 135.193 210.483 97.1567 181.917 106.918C143.439 120.066 141.282 186.009 170.276 215.848C195.826 242.142 250.391 230.223 281.333 211.517C309.951 194.216 332.382 163.707 307.445 140.896C290.989 125.843 273.153 145.028 251.76 140.896Z" fill="#1FA187"/>
<path d="M245.128 150.689C225.859 147.004 211.996 126.913 193.356 133.22C168.248 141.717 161.533 184.102 180.452 203.383C197.124 220.374 238.828 226.059 259.018 213.971C277.691 202.792 306.858 171.935 290.586 157.195C279.848 147.468 259.088 153.359 245.128 150.689Z" fill="#A0DA39"/>
<path d="M238.847 161.014C228.899 159.071 228.79 152.462 219.167 155.787C206.204 160.266 197.552 183.768 207.319 193.932C215.927 202.889 241.162 204.716 251.586 198.344C261.226 192.45 269.856 175.133 261.455 167.362C255.911 162.234 246.054 162.421 238.847 161.014Z" fill="#FDE725"/>
<path d="M227.047 350.562V343.319H224.584V342.55H230.401V343.319H227.95V350.562H227.047ZM231.782 350.562V344.648H232.66V350.562H231.782ZM232.233 343.38C232.062 343.38 231.916 343.323 231.794 343.209C231.68 343.095 231.623 342.945 231.623 342.758C231.623 342.579 231.68 342.436 231.794 342.331C231.916 342.217 232.062 342.16 232.233 342.16C232.412 342.16 232.558 342.217 232.672 342.331C232.786 342.436 232.843 342.579 232.843 342.758C232.843 342.945 232.786 343.095 232.672 343.209C232.558 343.323 232.412 343.38 232.233 343.38ZM236.528 350.709C235.918 350.709 235.491 350.53 235.247 350.172C235.012 349.815 234.894 349.351 234.894 348.782V345.38H234.003V344.709L234.93 344.648L235.04 342.977H235.784V344.648H237.406V345.38H235.784V348.806C235.784 349.172 235.849 349.461 235.979 349.672C236.117 349.876 236.365 349.977 236.723 349.977C236.829 349.977 236.942 349.961 237.064 349.928C237.194 349.896 237.308 349.859 237.406 349.819L237.589 350.489C237.426 350.546 237.251 350.595 237.064 350.636C236.877 350.684 236.699 350.709 236.528 350.709ZM239.736 350.709C239.516 350.709 239.333 350.66 239.187 350.562C239.041 350.473 238.935 350.339 238.87 350.16C238.805 349.973 238.772 349.745 238.772 349.477V341.855H239.65V349.55C239.65 349.697 239.679 349.802 239.736 349.867C239.793 349.932 239.858 349.965 239.931 349.965C239.955 349.965 239.984 349.965 240.016 349.965C240.049 349.957 240.094 349.949 240.15 349.941L240.272 350.623C240.207 350.64 240.13 350.656 240.041 350.672C239.959 350.697 239.858 350.709 239.736 350.709ZM244.163 350.709C243.65 350.709 243.179 350.587 242.748 350.343C242.325 350.091 241.988 349.737 241.736 349.282C241.484 348.819 241.358 348.262 241.358 347.611C241.358 346.969 241.484 346.416 241.736 345.953C241.988 345.489 242.313 345.132 242.711 344.88C243.118 344.628 243.549 344.502 244.004 344.502C244.492 344.502 244.911 344.615 245.26 344.843C245.61 345.071 245.874 345.392 246.053 345.806C246.24 346.213 246.333 346.701 246.333 347.27C246.333 347.367 246.329 347.465 246.321 347.562C246.321 347.652 246.313 347.733 246.297 347.806H242.053L242.041 347.16H245.541C245.541 346.526 245.407 346.046 245.138 345.721C244.87 345.388 244.496 345.221 244.016 345.221C243.724 345.221 243.439 345.306 243.163 345.477C242.886 345.648 242.659 345.908 242.48 346.258C242.301 346.607 242.211 347.058 242.211 347.611C242.211 348.14 242.305 348.579 242.492 348.928C242.679 349.278 242.927 349.542 243.236 349.721C243.553 349.9 243.898 349.989 244.272 349.989C244.573 349.989 244.841 349.945 245.077 349.855C245.321 349.766 245.553 349.652 245.772 349.514L246.102 350.099C245.85 350.262 245.565 350.404 245.248 350.526C244.939 350.648 244.577 350.709 244.163 350.709Z" fill="#3F4252"/>
<defs>
<filter id="filter0_d_1004_39161" x="0.378049" y="0.140244" width="515.244" height="378.049" filterUnits="userSpaceOnUse" color-interpolation-filters="sRGB">
<feFlood flood-opacity="0" result="BackgroundImageFix"/>
<feColorMatrix in="SourceAlpha" type="matrix" values="0 0 0 0 0 0 0 0 0 0 0 0 0 0 0 0 0 0 127 0" result="hardAlpha"/>
<feOffset dy="0.762195"/>
<feGaussianBlur stdDeviation="3.81098"/>
<feColorMatrix type="matrix" values="0 0 0 0 0 0 0 0 0 0 0 0 0 0 0 0 0 0 0.07 0"/>
<feBlend mode="normal" in2="BackgroundImageFix" result="effect1_dropShadow_1004_39161"/>
<feBlend mode="normal" in="SourceGraphic" in2="effect1_dropShadow_1004_39161" result="shape"/>
</filter>
<clipPath id="clip0_1004_39161">
<rect x="8" y="7" width="500" height="362.805" rx="6.09756" fill="white"/>
</clipPath>
</defs>
</svg>
