<svg width="500" height="198" viewBox="0 0 500 198" fill="none" xmlns="http://www.w3.org/2000/svg">
<rect y="2" width="500" height="195.833" rx="8.33333" fill="white"/>
<g clip-path="url(#clip0_1004_14364)">
<path d="M104.166 158.333C104.166 127.536 113.916 97.5299 132.018 72.6146L179.21 106.902C168.349 121.851 162.499 139.855 162.499 158.333H104.166Z" fill="#BC2970" stroke="#F6F6F6" stroke-width="2.08333"/>
<path d="M132.018 72.6146C150.12 47.6994 175.645 29.1544 204.934 19.6376L222.96 75.1159C205.387 80.8259 190.072 91.9529 179.21 106.902L132.018 72.6146Z" fill="#FF5C65" stroke="#F6F6F6" stroke-width="2.08333"/>
<path d="M204.934 19.6376C234.224 10.1208 265.775 10.1208 295.064 19.6376L277.038 75.1159C259.465 69.4058 240.534 69.4058 222.96 75.1159L204.934 19.6376Z" fill="#FD9982" stroke="#F6F6F6" stroke-width="2.08333"/>
<path d="M295.064 19.6376C324.354 29.1544 349.879 47.6994 367.981 72.6147L320.788 106.902C309.927 91.953 294.612 80.826 277.038 75.1159L295.064 19.6376Z" fill="#F8C268" stroke="#F6F6F6" stroke-width="2.08333"/>
<path d="M367.981 72.6147C386.083 97.53 395.833 127.536 395.833 158.333L337.499 158.333C337.499 139.855 331.65 121.851 320.788 106.902L367.981 72.6147Z" fill="#6CCE81" stroke="#F6F6F6" stroke-width="2.08333"/>
</g>
<path d="M116.127 182.664V172.058H117.411V181.525H122.341V182.664H116.127ZM127.396 182.83C126.678 182.83 126.048 182.659 125.505 182.317C124.967 181.975 124.546 181.497 124.242 180.883C123.941 180.268 123.791 179.55 123.791 178.728C123.791 177.9 123.941 177.176 124.242 176.558C124.546 175.94 124.967 175.46 125.505 175.119C126.048 174.777 126.678 174.606 127.396 174.606C128.114 174.606 128.742 174.777 129.281 175.119C129.823 175.46 130.244 175.94 130.544 176.558C130.848 177.176 131 177.9 131 178.728C131 179.55 130.848 180.268 130.544 180.883C130.244 181.497 129.823 181.975 129.281 182.317C128.742 182.659 128.114 182.83 127.396 182.83ZM127.396 181.732C127.941 181.732 128.39 181.592 128.742 181.312C129.094 181.033 129.355 180.665 129.524 180.209C129.693 179.754 129.778 179.26 129.778 178.728C129.778 178.197 129.693 177.701 129.524 177.242C129.355 176.783 129.094 176.412 128.742 176.128C128.39 175.845 127.941 175.704 127.396 175.704C126.85 175.704 126.401 175.845 126.049 176.128C125.697 176.412 125.436 176.783 125.267 177.242C125.098 177.701 125.013 178.197 125.013 178.728C125.013 179.26 125.098 179.754 125.267 180.209C125.436 180.665 125.697 181.033 126.049 181.312C126.401 181.592 126.85 181.732 127.396 181.732ZM134.397 182.664L131.974 174.71H133.258L134.977 180.8H135.06L136.759 174.71H138.064L139.742 180.779H139.825L141.544 174.71H142.828L140.405 182.664H139.203L137.463 176.553H137.339L135.599 182.664H134.397Z" fill="#5A5D6C"/>
<path d="M354.53 182.664V172.058H355.814V176.781H361.47V172.058H362.754V182.664H361.47V177.92H355.814V182.664H354.53ZM365.159 182.664V174.71H366.382V182.664H365.159ZM365.781 173.384C365.543 173.384 365.337 173.303 365.165 173.14C364.995 172.978 364.911 172.783 364.911 172.555C364.911 172.327 364.995 172.132 365.165 171.97C365.337 171.808 365.543 171.727 365.781 171.727C366.019 171.727 366.223 171.808 366.392 171.97C366.565 172.132 366.651 172.327 366.651 172.555C366.651 172.783 366.565 172.978 366.392 173.14C366.223 173.303 366.019 173.384 365.781 173.384ZM371.831 185.813C371.241 185.813 370.733 185.737 370.308 185.585C369.884 185.436 369.53 185.24 369.247 184.994C368.967 184.753 368.744 184.494 368.579 184.218L369.552 183.534C369.663 183.679 369.803 183.845 369.972 184.031C370.141 184.221 370.372 184.385 370.666 184.523C370.963 184.665 371.351 184.736 371.831 184.736C372.473 184.736 373.003 184.58 373.421 184.269C373.839 183.959 374.047 183.472 374.047 182.809V181.193H373.944C373.854 181.338 373.726 181.518 373.561 181.732C373.398 181.942 373.164 182.131 372.856 182.296C372.552 182.459 372.142 182.54 371.624 182.54C370.982 182.54 370.405 182.388 369.894 182.084C369.387 181.78 368.984 181.338 368.687 180.758C368.394 180.178 368.247 179.474 368.247 178.645C368.247 177.831 368.39 177.121 368.677 176.517C368.964 175.909 369.362 175.44 369.873 175.108C370.384 174.773 370.975 174.606 371.644 174.606C372.162 174.606 372.573 174.692 372.877 174.865C373.184 175.034 373.419 175.227 373.581 175.445C373.747 175.659 373.875 175.835 373.965 175.973H374.089V174.71H375.27V182.892C375.27 183.576 375.114 184.131 374.803 184.559C374.496 184.991 374.082 185.307 373.561 185.507C373.043 185.711 372.466 185.813 371.831 185.813ZM371.789 181.442C372.28 181.442 372.694 181.33 373.032 181.105C373.371 180.881 373.628 180.558 373.804 180.137C373.98 179.716 374.068 179.212 374.068 178.625C374.068 178.052 373.982 177.546 373.809 177.107C373.637 176.669 373.381 176.325 373.043 176.077C372.704 175.828 372.287 175.704 371.789 175.704C371.272 175.704 370.84 175.835 370.495 176.097C370.153 176.36 369.896 176.712 369.723 177.154C369.554 177.596 369.469 178.086 369.469 178.625C369.469 179.177 369.556 179.666 369.728 180.09C369.904 180.511 370.163 180.843 370.505 181.085C370.85 181.323 371.278 181.442 371.789 181.442ZM378.729 177.879V182.664H377.507V172.058H378.729V175.952H378.833C379.019 175.542 379.299 175.215 379.672 174.974C380.048 174.729 380.548 174.606 381.173 174.606C381.715 174.606 382.19 174.715 382.597 174.932C383.005 175.146 383.321 175.476 383.545 175.921C383.773 176.363 383.887 176.926 383.887 177.61V182.664H382.665V177.692C382.665 177.061 382.501 176.572 382.173 176.227C381.848 175.878 381.398 175.704 380.821 175.704C380.421 175.704 380.062 175.788 379.744 175.958C379.43 176.127 379.181 176.374 378.998 176.698C378.819 177.023 378.729 177.416 378.729 177.879Z" fill="#5A5D6C"/>
<path d="M231.821 182.664V172.058H233.105V181.525H238.035V182.664H231.821ZM242.199 182.85C241.695 182.85 241.238 182.756 240.827 182.566C240.416 182.372 240.09 182.094 239.848 181.732C239.606 181.366 239.485 180.924 239.485 180.406C239.485 179.95 239.575 179.581 239.755 179.298C239.934 179.011 240.174 178.787 240.475 178.625C240.775 178.462 241.106 178.342 241.469 178.262C241.835 178.179 242.203 178.114 242.572 178.065C243.055 178.003 243.447 177.957 243.748 177.926C244.051 177.891 244.272 177.834 244.41 177.755C244.552 177.675 244.623 177.537 244.623 177.34V177.299C244.623 176.788 244.483 176.391 244.203 176.108C243.927 175.825 243.508 175.683 242.945 175.683C242.361 175.683 241.904 175.811 241.573 176.066C241.241 176.322 241.008 176.595 240.873 176.885L239.713 176.47C239.92 175.987 240.197 175.611 240.542 175.341C240.891 175.069 241.27 174.879 241.681 174.772C242.096 174.661 242.503 174.606 242.903 174.606C243.159 174.606 243.452 174.637 243.784 174.699C244.119 174.758 244.442 174.88 244.752 175.067C245.066 175.253 245.327 175.535 245.534 175.911C245.741 176.287 245.845 176.791 245.845 177.423V182.664H244.623V181.587H244.561C244.478 181.76 244.34 181.944 244.146 182.141C243.953 182.338 243.696 182.505 243.375 182.643C243.054 182.781 242.662 182.85 242.199 182.85ZM242.386 181.753C242.869 181.753 243.276 181.658 243.608 181.468C243.943 181.278 244.195 181.033 244.364 180.732C244.536 180.432 244.623 180.116 244.623 179.785V178.666C244.571 178.728 244.457 178.785 244.281 178.837C244.108 178.885 243.908 178.928 243.68 178.966C243.456 179.001 243.237 179.032 243.023 179.06C242.812 179.084 242.641 179.105 242.51 179.122C242.192 179.163 241.895 179.231 241.619 179.324C241.346 179.414 241.125 179.55 240.956 179.733C240.791 179.912 240.708 180.158 240.708 180.468C240.708 180.893 240.865 181.214 241.179 181.432C241.497 181.646 241.899 181.753 242.386 181.753ZM248.241 182.664V172.058H249.464V175.973H249.567C249.657 175.835 249.781 175.659 249.94 175.445C250.102 175.227 250.334 175.034 250.634 174.865C250.938 174.692 251.349 174.606 251.867 174.606C252.536 174.606 253.127 174.773 253.638 175.108C254.149 175.443 254.547 175.918 254.834 176.532C255.121 177.147 255.264 177.872 255.264 178.708C255.264 179.55 255.121 180.28 254.834 180.898C254.547 181.513 254.15 181.989 253.643 182.327C253.135 182.662 252.55 182.83 251.887 182.83C251.376 182.83 250.967 182.745 250.66 182.576C250.353 182.403 250.116 182.208 249.95 181.991C249.785 181.77 249.657 181.587 249.567 181.442H249.422V182.664H248.241ZM249.443 178.687C249.443 179.288 249.531 179.817 249.707 180.277C249.883 180.732 250.14 181.09 250.479 181.349C250.817 181.604 251.231 181.732 251.722 181.732C252.233 181.732 252.659 181.597 253.001 181.328C253.346 181.055 253.605 180.689 253.778 180.23C253.954 179.767 254.042 179.253 254.042 178.687C254.042 178.127 253.955 177.623 253.783 177.175C253.614 176.722 253.356 176.365 253.011 176.103C252.669 175.837 252.239 175.704 251.722 175.704C251.224 175.704 250.807 175.83 250.468 176.082C250.13 176.33 249.874 176.679 249.702 177.128C249.529 177.573 249.443 178.093 249.443 178.687ZM260.468 182.83C259.702 182.83 259.041 182.661 258.485 182.322C257.933 181.98 257.506 181.504 257.206 180.893C256.909 180.278 256.76 179.564 256.76 178.749C256.76 177.934 256.909 177.216 257.206 176.595C257.506 175.97 257.924 175.483 258.459 175.134C258.998 174.782 259.626 174.606 260.344 174.606C260.758 174.606 261.168 174.675 261.572 174.813C261.975 174.951 262.343 175.176 262.675 175.486C263.006 175.794 263.27 176.201 263.467 176.709C263.664 177.216 263.762 177.841 263.762 178.583V179.101H257.63V178.045H262.519C262.519 177.596 262.429 177.195 262.25 176.843C262.074 176.491 261.822 176.213 261.494 176.009C261.169 175.806 260.786 175.704 260.344 175.704C259.857 175.704 259.436 175.825 259.081 176.066C258.728 176.305 258.457 176.615 258.267 176.999C258.078 177.382 257.983 177.793 257.983 178.231V178.935C257.983 179.536 258.086 180.045 258.293 180.463C258.504 180.877 258.796 181.193 259.169 181.411C259.541 181.625 259.975 181.732 260.468 181.732C260.79 181.732 261.08 181.687 261.338 181.597C261.601 181.504 261.827 181.366 262.017 181.183C262.207 180.997 262.354 180.765 262.457 180.489L263.638 180.82C263.514 181.221 263.305 181.573 263.011 181.877C262.718 182.177 262.355 182.412 261.924 182.581C261.492 182.747 261.007 182.83 260.468 182.83ZM266.843 172.058V182.664H265.621V172.058H266.843Z" fill="#5A5D6C"/>
<g filter="url(#filter0_d_1004_14364)">
<path d="M249.646 26.6304C249.995 27.2343 250.866 27.2343 251.215 26.6304L262.197 7.60869C262.546 7.00483 262.11 6.25 261.413 6.25H239.448C238.751 6.25 238.315 7.00483 238.664 7.6087L249.646 26.6304Z" fill="#343434"/>
<path d="M252.117 27.1513L263.099 8.12953C263.849 6.83122 262.912 5.20833 261.413 5.20833H239.448C237.949 5.20833 237.012 6.83122 237.762 8.12953L248.744 27.1513C249.493 28.4496 251.367 28.4496 252.117 27.1513Z" stroke="#F6F6F6" stroke-width="2.08333"/>
</g>
<path d="M219.222 131.672V155.914H216.287V134.749H216.145L210.226 138.679V135.696L216.287 131.672H219.222ZM234.102 156.246C232.318 156.246 230.799 155.76 229.544 154.79C228.29 153.811 227.331 152.394 226.668 150.54C226.005 148.678 225.674 146.429 225.674 143.793C225.674 141.173 226.005 138.936 226.668 137.081C227.339 135.219 228.301 133.798 229.556 132.82C230.819 131.833 232.334 131.34 234.102 131.34C235.869 131.34 237.38 131.833 238.635 132.82C239.898 133.798 240.861 135.219 241.523 137.081C242.194 138.936 242.53 141.173 242.53 143.793C242.53 146.429 242.198 148.678 241.535 150.54C240.872 152.394 239.914 153.811 238.659 154.79C237.404 155.76 235.885 156.246 234.102 156.246ZM234.102 153.641C235.869 153.641 237.242 152.789 238.221 151.085C239.199 149.38 239.689 146.949 239.689 143.793C239.689 141.694 239.464 139.906 239.014 138.431C238.572 136.955 237.933 135.83 237.096 135.057C236.268 134.284 235.269 133.897 234.102 133.897C232.35 133.897 230.981 134.761 229.994 136.489C229.008 138.21 228.514 140.644 228.514 143.793C228.514 145.892 228.735 147.675 229.177 149.143C229.619 150.611 230.254 151.728 231.083 152.493C231.92 153.259 232.926 153.641 234.102 153.641ZM254.935 156.246C253.151 156.246 251.632 155.76 250.378 154.79C249.123 153.811 248.164 152.394 247.501 150.54C246.838 148.678 246.507 146.429 246.507 143.793C246.507 141.173 246.838 138.936 247.501 137.081C248.172 135.219 249.135 133.798 250.389 132.82C251.652 131.833 253.167 131.34 254.935 131.34C256.703 131.34 258.214 131.833 259.469 132.82C260.731 133.798 261.694 135.219 262.357 137.081C263.028 138.936 263.363 141.173 263.363 143.793C263.363 146.429 263.031 148.678 262.369 150.54C261.706 152.394 260.747 153.811 259.492 154.79C258.237 155.76 256.718 156.246 254.935 156.246ZM254.935 153.641C256.703 153.641 258.076 152.789 259.054 151.085C260.033 149.38 260.522 146.949 260.522 143.793C260.522 141.694 260.297 139.906 259.847 138.431C259.405 136.955 258.766 135.83 257.93 135.057C257.101 134.284 256.103 133.897 254.935 133.897C253.183 133.897 251.814 134.761 250.827 136.489C249.841 138.21 249.348 140.644 249.348 143.793C249.348 145.892 249.569 147.675 250.011 149.143C250.453 150.611 251.088 151.728 251.916 152.493C252.753 153.259 253.759 153.641 254.935 153.641ZM280.219 151.369V150.09C280.219 149.206 280.4 148.397 280.763 147.664C281.134 146.922 281.671 146.33 282.373 145.888C283.084 145.438 283.944 145.213 284.954 145.213C285.98 145.213 286.84 145.438 287.534 145.888C288.229 146.33 288.754 146.922 289.109 147.664C289.464 148.397 289.641 149.206 289.641 150.09V151.369C289.641 152.252 289.46 153.065 289.097 153.807C288.742 154.541 288.213 155.133 287.511 155.583C286.816 156.025 285.964 156.246 284.954 156.246C283.928 156.246 283.064 156.025 282.362 155.583C281.659 155.133 281.126 154.541 280.763 153.807C280.4 153.065 280.219 152.252 280.219 151.369ZM282.634 150.09V151.369C282.634 152.103 282.807 152.761 283.155 153.345C283.502 153.921 284.102 154.21 284.954 154.21C285.782 154.21 286.366 153.921 286.706 153.345C287.053 152.761 287.227 152.103 287.227 151.369V150.09C287.227 149.356 287.061 148.701 286.729 148.125C286.398 147.541 285.806 147.249 284.954 147.249C284.125 147.249 283.529 147.541 283.166 148.125C282.811 148.701 282.634 149.356 282.634 150.09ZM268.145 137.496V136.217C268.145 135.333 268.327 134.524 268.69 133.79C269.061 133.049 269.597 132.457 270.299 132.015C271.01 131.565 271.87 131.34 272.88 131.34C273.906 131.34 274.766 131.565 275.46 132.015C276.155 132.457 276.68 133.049 277.035 133.79C277.39 134.524 277.567 135.333 277.567 136.217V137.496C277.567 138.379 277.386 139.192 277.023 139.934C276.668 140.668 276.139 141.26 275.437 141.71C274.742 142.151 273.89 142.372 272.88 142.372C271.854 142.372 270.99 142.151 270.288 141.71C269.585 141.26 269.053 140.668 268.69 139.934C268.327 139.192 268.145 138.379 268.145 137.496ZM270.56 136.217V137.496C270.56 138.229 270.734 138.888 271.081 139.472C271.428 140.048 272.028 140.336 272.88 140.336C273.709 140.336 274.293 140.048 274.632 139.472C274.979 138.888 275.153 138.229 275.153 137.496V136.217C275.153 135.483 274.987 134.828 274.656 134.252C274.324 133.668 273.732 133.376 272.88 133.376C272.051 133.376 271.456 133.668 271.093 134.252C270.737 134.828 270.56 135.483 270.56 136.217ZM269.045 155.914L285.711 131.672H288.41L271.744 155.914H269.045Z" fill="#262527"/>
<defs>
<filter id="filter0_d_1004_14364" x="232.288" y="0.00130224" width="36.2845" height="33.3333" filterUnits="userSpaceOnUse" color-interpolation-filters="sRGB">
<feFlood flood-opacity="0" result="BackgroundImageFix"/>
<feColorMatrix in="SourceAlpha" type="matrix" values="0 0 0 0 0 0 0 0 0 0 0 0 0 0 0 0 0 0 127 0" result="hardAlpha"/>
<feMorphology radius="4.16667" operator="erode" in="SourceAlpha" result="effect1_dropShadow_1004_14364"/>
<feOffset/>
<feGaussianBlur stdDeviation="4.16667"/>
<feColorMatrix type="matrix" values="0 0 0 0 0 0 0 0 0 0 0 0 0 0 0 0 0 0 0.15 0"/>
<feBlend mode="normal" in2="BackgroundImageFix" result="effect1_dropShadow_1004_14364"/>
<feBlend mode="normal" in="SourceGraphic" in2="effect1_dropShadow_1004_14364" result="shape"/>
</filter>
<clipPath id="clip0_1004_14364">
<rect width="291.667" height="145.833" fill="white" transform="translate(104.166 12.5)"/>
</clipPath>
</defs>
</svg>
