<svg width="500" height="348" viewBox="0 0 500 348" fill="none" xmlns="http://www.w3.org/2000/svg">
<rect width="500" height="347.573" transform="translate(0 0.078125)" fill="white"/>
<path d="M15.9716 27.3509V36.0781H14.9148V28.4588H14.8636L12.733 29.8736V28.7997L14.9148 27.3509H15.9716ZM21.3281 36.1974C20.6861 36.1974 20.1392 36.0227 19.6875 35.6733C19.2358 35.321 18.8906 34.8111 18.652 34.1435C18.4134 33.473 18.294 32.6634 18.294 31.7145C18.294 30.7713 18.4134 29.9659 18.652 29.2983C18.8935 28.6278 19.2401 28.1165 19.6918 27.7642C20.1463 27.4091 20.6918 27.2315 21.3281 27.2315C21.9645 27.2315 22.5085 27.4091 22.9602 27.7642C23.4148 28.1165 23.7614 28.6278 24 29.2983C24.2415 29.9659 24.3622 30.7713 24.3622 31.7145C24.3622 32.6634 24.2429 33.473 24.0043 34.1435C23.7656 34.8111 23.4205 35.321 22.9688 35.6733C22.517 36.0227 21.9702 36.1974 21.3281 36.1974ZM21.3281 35.2599C21.9645 35.2599 22.4588 34.9531 22.8111 34.3395C23.1634 33.7259 23.3395 32.8509 23.3395 31.7145C23.3395 30.9588 23.2585 30.3153 23.0966 29.7841C22.9375 29.2528 22.7074 28.848 22.4062 28.5696C22.108 28.2912 21.7486 28.152 21.3281 28.152C20.6974 28.152 20.2045 28.4631 19.8494 29.0852C19.4943 29.7045 19.3168 30.581 19.3168 31.7145C19.3168 32.4702 19.3963 33.1122 19.5554 33.6406C19.7145 34.169 19.9432 34.571 20.2415 34.8466C20.5426 35.1222 20.9048 35.2599 21.3281 35.2599ZM28.8281 36.1974C28.1861 36.1974 27.6392 36.0227 27.1875 35.6733C26.7358 35.321 26.3906 34.8111 26.152 34.1435C25.9134 33.473 25.794 32.6634 25.794 31.7145C25.794 30.7713 25.9134 29.9659 26.152 29.2983C26.3935 28.6278 26.7401 28.1165 27.1918 27.7642C27.6463 27.4091 28.1918 27.2315 28.8281 27.2315C29.4645 27.2315 30.0085 27.4091 30.4602 27.7642C30.9148 28.1165 31.2614 28.6278 31.5 29.2983C31.7415 29.9659 31.8622 30.7713 31.8622 31.7145C31.8622 32.6634 31.7429 33.473 31.5043 34.1435C31.2656 34.8111 30.9205 35.321 30.4688 35.6733C30.017 36.0227 29.4702 36.1974 28.8281 36.1974ZM28.8281 35.2599C29.4645 35.2599 29.9588 34.9531 30.3111 34.3395C30.6634 33.7259 30.8395 32.8509 30.8395 31.7145C30.8395 30.9588 30.7585 30.3153 30.5966 29.7841C30.4375 29.2528 30.2074 28.848 29.9062 28.5696C29.608 28.2912 29.2486 28.152 28.8281 28.152C28.1974 28.152 27.7045 28.4631 27.3494 29.0852C26.9943 29.7045 26.8168 30.581 26.8168 31.7145C26.8168 32.4702 26.8963 33.1122 27.0554 33.6406C27.2145 34.169 27.4432 34.571 27.7415 34.8466C28.0426 35.1222 28.4048 35.2599 28.8281 35.2599Z" fill="black" fill-opacity="0.7"/>
<path d="M19.1761 99.9707L23.0795 92.2491V92.1809H18.5795V91.2434H24.1705V92.2321L20.2841 99.9707H19.1761ZM28.369 100.09C27.869 100.09 27.4187 99.9906 27.0181 99.7917C26.6175 99.5929 26.2965 99.3201 26.055 98.9735C25.8136 98.627 25.6815 98.2321 25.6587 97.7889H26.6815C26.7212 98.1838 26.9002 98.5105 27.2184 98.769C27.5394 99.0247 27.9229 99.1525 28.369 99.1525C28.7269 99.1525 29.0451 99.0687 29.3235 98.9011C29.6048 98.7335 29.8249 98.5034 29.984 98.2108C30.146 97.9153 30.2269 97.5815 30.2269 97.2093C30.2269 96.8287 30.1431 96.4892 29.9755 96.1909C29.8107 95.8897 29.5835 95.6525 29.2937 95.4792C29.0039 95.3059 28.6729 95.2179 28.3008 95.215C28.0337 95.2122 27.7596 95.2534 27.4783 95.3386C27.1971 95.421 26.9656 95.5275 26.7837 95.6582L25.7951 95.5389L26.3235 91.2434H30.8576V92.1809H27.2099L26.9031 94.7548H26.9542C27.1332 94.6127 27.3576 94.4949 27.6275 94.4011C27.8974 94.3074 28.1786 94.2605 28.4712 94.2605C29.0053 94.2605 29.4812 94.3883 29.8988 94.644C30.3192 94.8968 30.6488 95.2434 30.8874 95.6838C31.1289 96.1241 31.2496 96.627 31.2496 97.1923C31.2496 97.7491 31.1246 98.2463 30.8746 98.6838C30.6275 99.1184 30.2866 99.4622 29.8519 99.715C29.4173 99.965 28.9229 100.09 28.369 100.09Z" fill="black" fill-opacity="0.7"/>
<path d="M21.6307 163.985C21.1307 163.985 20.6804 163.885 20.2798 163.686C19.8793 163.487 19.5582 163.215 19.3168 162.868C19.0753 162.521 18.9432 162.127 18.9205 161.683H19.9432C19.983 162.078 20.1619 162.405 20.4801 162.664C20.8011 162.919 21.1847 163.047 21.6307 163.047C21.9886 163.047 22.3068 162.963 22.5852 162.796C22.8665 162.628 23.0866 162.398 23.2457 162.105C23.4077 161.81 23.4886 161.476 23.4886 161.104C23.4886 160.723 23.4048 160.384 23.2372 160.085C23.0724 159.784 22.8452 159.547 22.5554 159.374C22.2656 159.2 21.9347 159.112 21.5625 159.11C21.2955 159.107 21.0213 159.148 20.7401 159.233C20.4588 159.316 20.2273 159.422 20.0455 159.553L19.0568 159.433L19.5852 155.138H24.1193V156.075H20.4716L20.1648 158.649H20.2159C20.3949 158.507 20.6193 158.389 20.8892 158.296C21.1591 158.202 21.4403 158.155 21.733 158.155C22.267 158.155 22.7429 158.283 23.1605 158.539C23.581 158.791 23.9105 159.138 24.1491 159.578C24.3906 160.019 24.5114 160.521 24.5114 161.087C24.5114 161.644 24.3864 162.141 24.1364 162.578C23.8892 163.013 23.5483 163.357 23.1136 163.61C22.679 163.86 22.1847 163.985 21.6307 163.985ZM29.0508 163.985C28.4087 163.985 27.8619 163.81 27.4102 163.46C26.9585 163.108 26.6133 162.598 26.3746 161.931C26.136 161.26 26.0167 160.45 26.0167 159.502C26.0167 158.558 26.136 157.753 26.3746 157.085C26.6161 156.415 26.9627 155.904 27.4144 155.551C27.869 155.196 28.4144 155.019 29.0508 155.019C29.6871 155.019 30.2312 155.196 30.6829 155.551C31.1374 155.904 31.484 156.415 31.7227 157.085C31.9641 157.753 32.0849 158.558 32.0849 159.502C32.0849 160.45 31.9656 161.26 31.7269 161.931C31.4883 162.598 31.1431 163.108 30.6914 163.46C30.2397 163.81 29.6928 163.985 29.0508 163.985ZM29.0508 163.047C29.6871 163.047 30.1815 162.74 30.5337 162.127C30.886 161.513 31.0621 160.638 31.0621 159.502C31.0621 158.746 30.9812 158.102 30.8192 157.571C30.6602 157.04 30.43 156.635 30.1289 156.357C29.8306 156.078 29.4712 155.939 29.0508 155.939C28.4201 155.939 27.9272 156.25 27.5721 156.872C27.217 157.492 27.0394 158.368 27.0394 159.502C27.0394 160.257 27.119 160.899 27.2781 161.428C27.4371 161.956 27.6658 162.358 27.9641 162.634C28.2653 162.909 28.6275 163.047 29.0508 163.047Z" fill="black" fill-opacity="0.7"/>
<path d="M18.9034 227.758V226.991L21.7841 223.837C22.1222 223.468 22.4006 223.147 22.6193 222.874C22.8381 222.599 23 222.34 23.1051 222.099C23.2131 221.854 23.267 221.599 23.267 221.332C23.267 221.025 23.1932 220.759 23.0455 220.535C22.9006 220.31 22.7017 220.137 22.4489 220.015C22.196 219.893 21.9119 219.832 21.5966 219.832C21.2614 219.832 20.9688 219.901 20.7188 220.04C20.4716 220.177 20.2798 220.369 20.1435 220.616C20.0099 220.863 19.9432 221.153 19.9432 221.485H18.9375C18.9375 220.974 19.0554 220.525 19.2912 220.138C19.527 219.752 19.848 219.451 20.2543 219.235C20.6634 219.019 21.1222 218.911 21.6307 218.911C22.142 218.911 22.5952 219.019 22.9901 219.235C23.3849 219.451 23.6946 219.742 23.919 220.109C24.1435 220.475 24.2557 220.883 24.2557 221.332C24.2557 221.653 24.1974 221.967 24.081 222.273C23.9673 222.577 23.7685 222.917 23.4844 223.292C23.2031 223.664 22.8125 224.119 22.3125 224.656L20.3523 226.752V226.82H24.4091V227.758H18.9034ZM28.8963 227.877C28.3963 227.877 27.946 227.778 27.5455 227.579C27.1449 227.38 26.8239 227.107 26.5824 226.761C26.3409 226.414 26.2088 226.019 26.1861 225.576H27.2088C27.2486 225.971 27.4276 226.298 27.7457 226.556C28.0668 226.812 28.4503 226.94 28.8963 226.94C29.2543 226.94 29.5724 226.856 29.8509 226.688C30.1321 226.521 30.3523 226.29 30.5114 225.998C30.6733 225.702 30.7543 225.369 30.7543 224.996C30.7543 224.616 30.6705 224.276 30.5028 223.978C30.3381 223.677 30.1108 223.44 29.821 223.266C29.5313 223.093 29.2003 223.005 28.8281 223.002C28.5611 222.999 28.2869 223.04 28.0057 223.126C27.7244 223.208 27.4929 223.315 27.3111 223.445L26.3224 223.326L26.8509 219.031H31.3849V219.968H27.7372L27.4304 222.542H27.4815C27.6605 222.4 27.8849 222.282 28.1548 222.188C28.4247 222.094 28.706 222.048 28.9986 222.048C29.5327 222.048 30.0085 222.175 30.4261 222.431C30.8466 222.684 31.1761 223.031 31.4148 223.471C31.6562 223.911 31.777 224.414 31.777 224.979C31.777 225.536 31.652 226.033 31.402 226.471C31.1548 226.906 30.8139 227.249 30.3793 227.502C29.9446 227.752 29.4503 227.877 28.8963 227.877Z" fill="black" fill-opacity="0.7"/>
<path d="M28.75 291.77C28.108 291.77 27.5611 291.595 27.1094 291.246C26.6577 290.893 26.3125 290.383 26.0739 289.716C25.8352 289.045 25.7159 288.236 25.7159 287.287C25.7159 286.344 25.8352 285.538 26.0739 284.871C26.3153 284.2 26.6619 283.689 27.1136 283.336C27.5682 282.981 28.1136 282.804 28.75 282.804C29.3864 282.804 29.9304 282.981 30.3821 283.336C30.8366 283.689 31.1832 284.2 31.4219 284.871C31.6634 285.538 31.7841 286.344 31.7841 287.287C31.7841 288.236 31.6648 289.045 31.4261 289.716C31.1875 290.383 30.8423 290.893 30.3906 291.246C29.9389 291.595 29.392 291.77 28.75 291.77ZM28.75 290.832C29.3864 290.832 29.8807 290.525 30.233 289.912C30.5852 289.298 30.7614 288.423 30.7614 287.287C30.7614 286.531 30.6804 285.888 30.5185 285.356C30.3594 284.825 30.1293 284.42 29.8281 284.142C29.5298 283.863 29.1705 283.724 28.75 283.724C28.1193 283.724 27.6264 284.035 27.2713 284.657C26.9162 285.277 26.7386 286.153 26.7386 287.287C26.7386 288.042 26.8182 288.684 26.9773 289.213C27.1364 289.741 27.3651 290.143 27.6634 290.419C27.9645 290.694 28.3267 290.832 28.75 290.832Z" fill="black" fill-opacity="0.7"/>
<line x1="38" y1="29.5781" x2="491" y2="29.5781" stroke="black" stroke-opacity="0.15" stroke-dasharray="2"/>
<line x1="38" y1="94.3281" x2="491" y2="94.3281" stroke="black" stroke-opacity="0.15" stroke-dasharray="2"/>
<line x1="38" y1="159.078" x2="491" y2="159.078" stroke="black" stroke-opacity="0.15" stroke-dasharray="2"/>
<line x1="38" y1="223.828" x2="491" y2="223.828" stroke="black" stroke-opacity="0.15" stroke-dasharray="2"/>
<line x1="38" y1="288.578" x2="491" y2="288.578" stroke="black" stroke-opacity="0.3"/>
<line x1="37.5" y1="289.078" x2="37.5" y2="30.0781" stroke="black" stroke-opacity="0.15" stroke-dasharray="2"/>
<line x1="113" y1="289.078" x2="113" y2="30.0781" stroke="black" stroke-opacity="0.15" stroke-dasharray="2"/>
<line x1="188.5" y1="289.078" x2="188.5" y2="30.0781" stroke="black" stroke-opacity="0.15" stroke-dasharray="2"/>
<line x1="264" y1="289.078" x2="264" y2="30.0781" stroke="black" stroke-opacity="0.15" stroke-dasharray="2"/>
<line x1="339.5" y1="289.078" x2="339.5" y2="30.0781" stroke="black" stroke-opacity="0.15" stroke-dasharray="2"/>
<line x1="415" y1="289.078" x2="415" y2="30.0781" stroke="black" stroke-opacity="0.15" stroke-dasharray="2"/>
<line x1="490.5" y1="289.078" x2="490.5" y2="30.0781" stroke="black" stroke-opacity="0.15" stroke-dasharray="2"/>
<path d="M74.916 203.268L150.749 108.178L226.583 223.828L302.416 79.9082L378.249 226.398L454.083 108.178M454.083 108.178V108.178Z" stroke="#EDD088"/>
<circle cx="74.916" cy="203.268" r="3.5" fill="white" stroke="#EDD088"/>
<circle cx="150.75" cy="108.178" r="3.5" fill="white" stroke="#EDD088"/>
<circle cx="226.582" cy="223.828" r="3.5" fill="white" stroke="#EDD088"/>
<circle cx="302.416" cy="79.9082" r="3.5" fill="white" stroke="#EDD088"/>
<circle cx="378.25" cy="226.398" r="3.5" fill="white" stroke="#EDD088"/>
<circle cx="454.082" cy="108.178" r="3.5" fill="white" stroke="#EDD088"/>
<path d="M42.6427 296.861V295.923H49.1882V296.861H46.4438V304.65H45.387V296.861H42.6427ZM52.4779 304.787C51.8472 304.787 51.3032 304.648 50.8458 304.369C50.3913 304.088 50.0404 303.696 49.7933 303.193C49.5489 302.687 49.4268 302.099 49.4268 301.429C49.4268 300.758 49.5489 300.167 49.7933 299.656C50.0404 299.142 50.3842 298.741 50.8245 298.454C51.2677 298.165 51.7847 298.02 52.3757 298.02C52.7166 298.02 53.0532 298.077 53.3856 298.19C53.718 298.304 54.0205 298.488 54.2933 298.744C54.566 298.997 54.7833 299.332 54.9453 299.75C55.1072 300.167 55.1882 300.682 55.1882 301.292V301.719H50.1427V300.849H54.1654C54.1654 300.48 54.0916 300.15 53.9438 299.861C53.7989 299.571 53.5916 299.342 53.3217 299.175C53.0546 299.007 52.7393 298.923 52.3757 298.923C51.9751 298.923 51.6285 299.023 51.3359 299.221C51.0461 299.417 50.8231 299.673 50.6668 299.988C50.5106 300.304 50.4325 300.642 50.4325 301.003V301.582C50.4325 302.077 50.5177 302.496 50.6882 302.839C50.8614 303.18 51.1015 303.44 51.4083 303.619C51.7151 303.795 52.0717 303.883 52.4779 303.883C52.7421 303.883 52.9808 303.846 53.1938 303.773C53.4097 303.696 53.5958 303.582 53.7521 303.432C53.9083 303.278 54.0291 303.088 54.1143 302.861L55.0859 303.133C54.9836 303.463 54.8117 303.753 54.5703 304.003C54.3288 304.25 54.0305 304.443 53.6754 304.582C53.3203 304.719 52.9211 304.787 52.4779 304.787ZM59.3771 304.787C58.7634 304.787 58.235 304.642 57.7918 304.352C57.3487 304.062 57.0078 303.663 56.7691 303.155C56.5305 302.646 56.4112 302.065 56.4112 301.412C56.4112 300.747 56.5333 300.16 56.7776 299.652C57.0248 299.14 57.3686 298.741 57.8089 298.454C58.2521 298.165 58.7691 298.02 59.36 298.02C59.8203 298.02 60.235 298.105 60.6043 298.275C60.9737 298.446 61.2762 298.684 61.512 298.991C61.7478 299.298 61.8941 299.656 61.9509 300.065H60.9453C60.8686 299.767 60.6981 299.503 60.4339 299.273C60.1725 299.04 59.8203 298.923 59.3771 298.923C58.985 298.923 58.6413 299.025 58.3458 299.23C58.0532 299.432 57.8245 299.717 57.6597 300.086C57.4978 300.453 57.4168 300.883 57.4168 301.378C57.4168 301.883 57.4964 302.324 57.6555 302.699C57.8174 303.074 58.0447 303.365 58.3373 303.572C58.6328 303.78 58.9793 303.883 59.3771 303.883C59.6384 303.883 59.8757 303.838 60.0887 303.747C60.3018 303.656 60.4822 303.525 60.6299 303.355C60.7776 303.184 60.8828 302.98 60.9453 302.741H61.9509C61.8941 303.128 61.7535 303.476 61.5291 303.785C61.3075 304.092 61.0134 304.336 60.647 304.518C60.2833 304.697 59.86 304.787 59.3771 304.787ZM64.4268 300.713V304.65H63.4211V295.923H64.4268V299.128H64.512C64.6654 298.79 64.8955 298.521 65.2024 298.322C65.512 298.121 65.9239 298.02 66.4382 298.02C66.8842 298.02 67.2748 298.109 67.61 298.288C67.9453 298.464 68.2052 298.736 68.3899 299.102C68.5774 299.466 68.6711 299.929 68.6711 300.491V304.65H67.6654V300.559C67.6654 300.04 67.5305 299.638 67.2606 299.354C66.9936 299.067 66.6228 298.923 66.1484 298.923C65.8188 298.923 65.5234 298.993 65.262 299.132C65.0035 299.271 64.7989 299.474 64.6484 299.741C64.5007 300.008 64.4268 300.332 64.4268 300.713ZM71.5166 300.713V304.65H70.511V298.105H71.4825V299.128H71.5678C71.7212 298.795 71.9541 298.528 72.2666 298.327C72.5791 298.122 72.9825 298.02 73.4769 298.02C73.92 298.02 74.3078 298.111 74.6402 298.292C74.9726 298.471 75.2311 298.744 75.4158 299.111C75.6004 299.474 75.6928 299.934 75.6928 300.491V304.65H74.6871V300.559C74.6871 300.045 74.5536 299.645 74.2865 299.358C74.0195 299.068 73.653 298.923 73.1871 298.923C72.8661 298.923 72.5791 298.993 72.3263 299.132C72.0763 299.271 71.8788 299.474 71.734 299.741C71.5891 300.008 71.5166 300.332 71.5166 300.713ZM80.1896 304.787C79.5987 304.787 79.0802 304.646 78.6342 304.365C78.191 304.084 77.8444 303.69 77.5944 303.184C77.3472 302.679 77.2237 302.088 77.2237 301.412C77.2237 300.73 77.3472 300.135 77.5944 299.626C77.8444 299.118 78.191 298.723 78.6342 298.442C79.0802 298.16 79.5987 298.02 80.1896 298.02C80.7805 298.02 81.2975 298.16 81.7407 298.442C82.1867 298.723 82.5333 299.118 82.7805 299.626C83.0305 300.135 83.1555 300.73 83.1555 301.412C83.1555 302.088 83.0305 302.679 82.7805 303.184C82.5333 303.69 82.1867 304.084 81.7407 304.365C81.2975 304.646 80.7805 304.787 80.1896 304.787ZM80.1896 303.883C80.6384 303.883 81.0078 303.768 81.2975 303.538C81.5873 303.308 81.8018 303.006 81.941 302.631C82.0802 302.256 82.1498 301.849 82.1498 301.412C82.1498 300.974 82.0802 300.567 81.941 300.189C81.8018 299.811 81.5873 299.506 81.2975 299.273C81.0078 299.04 80.6384 298.923 80.1896 298.923C79.7407 298.923 79.3714 299.04 79.0816 299.273C78.7918 299.506 78.5774 299.811 78.4382 300.189C78.2989 300.567 78.2293 300.974 78.2293 301.412C78.2293 301.849 78.2989 302.256 78.4382 302.631C78.5774 303.006 78.7918 303.308 79.0816 303.538C79.3714 303.768 79.7407 303.883 80.1896 303.883ZM85.6963 295.923V304.65H84.6906V295.923H85.6963ZM90.1974 304.787C89.6065 304.787 89.088 304.646 88.642 304.365C88.1988 304.084 87.8522 303.69 87.6022 303.184C87.3551 302.679 87.2315 302.088 87.2315 301.412C87.2315 300.73 87.3551 300.135 87.6022 299.626C87.8522 299.118 88.1988 298.723 88.642 298.442C89.088 298.16 89.6065 298.02 90.1974 298.02C90.7883 298.02 91.3053 298.16 91.7485 298.442C92.1945 298.723 92.5411 299.118 92.7883 299.626C93.0383 300.135 93.1633 300.73 93.1633 301.412C93.1633 302.088 93.0383 302.679 92.7883 303.184C92.5411 303.69 92.1945 304.084 91.7485 304.365C91.3053 304.646 90.7883 304.787 90.1974 304.787ZM90.1974 303.883C90.6462 303.883 91.0156 303.768 91.3053 303.538C91.5951 303.308 91.8096 303.006 91.9488 302.631C92.088 302.256 92.1576 301.849 92.1576 301.412C92.1576 300.974 92.088 300.567 91.9488 300.189C91.8096 299.811 91.5951 299.506 91.3053 299.273C91.0156 299.04 90.6462 298.923 90.1974 298.923C89.7485 298.923 89.3792 299.04 89.0894 299.273C88.7997 299.506 88.5852 299.811 88.446 300.189C88.3068 300.567 88.2372 300.974 88.2372 301.412C88.2372 301.849 88.3068 302.256 88.446 302.631C88.5852 303.006 88.7997 303.308 89.0894 303.538C89.3792 303.768 89.7485 303.883 90.1974 303.883ZM97.3405 307.241C96.8547 307.241 96.4371 307.179 96.0877 307.054C95.7382 306.932 95.447 306.77 95.2141 306.568C94.984 306.369 94.8007 306.156 94.6644 305.929L95.4655 305.366C95.5564 305.486 95.6715 305.622 95.8107 305.775C95.9499 305.932 96.1402 306.067 96.3817 306.18C96.626 306.297 96.9456 306.355 97.3405 306.355C97.8689 306.355 98.305 306.227 98.6487 305.971C98.9925 305.716 99.1644 305.315 99.1644 304.77V303.44H99.0791C99.0053 303.559 98.9002 303.707 98.7638 303.883C98.6303 304.057 98.4371 304.211 98.1842 304.348C97.9342 304.481 97.5962 304.548 97.17 304.548C96.6416 304.548 96.1672 304.423 95.7467 304.173C95.3291 303.923 94.9982 303.559 94.7538 303.082C94.5124 302.605 94.3916 302.025 94.3916 301.344C94.3916 300.673 94.5095 300.089 94.7453 299.592C94.9811 299.092 95.3092 298.706 95.7297 298.433C96.1502 298.157 96.636 298.02 97.1871 298.02C97.6132 298.02 97.9513 298.091 98.2013 298.233C98.4541 298.372 98.6473 298.531 98.7808 298.71C98.9172 298.886 99.0223 299.031 99.0962 299.145H99.1985V298.105H100.17V304.838C100.17 305.4 100.042 305.858 99.7865 306.21C99.5337 306.565 99.1928 306.825 98.7638 306.99C98.3377 307.157 97.8632 307.241 97.3405 307.241ZM97.3064 303.645C97.7098 303.645 98.0507 303.552 98.3291 303.368C98.6075 303.183 98.8192 302.917 98.9641 302.571C99.109 302.224 99.1814 301.809 99.1814 301.327C99.1814 300.855 99.1104 300.439 98.9683 300.078C98.8263 299.717 98.6161 299.434 98.3377 299.23C98.0592 299.025 97.7155 298.923 97.3064 298.923C96.8803 298.923 96.5252 299.031 96.2411 299.247C95.9598 299.463 95.7482 299.753 95.6061 300.116C95.4669 300.48 95.3973 300.883 95.3973 301.327C95.3973 301.781 95.4683 302.183 95.6104 302.532C95.7553 302.879 95.9683 303.152 96.2496 303.351C96.5337 303.547 96.886 303.645 97.3064 303.645ZM102.659 307.105C102.488 307.105 102.336 307.091 102.203 307.062C102.069 307.037 101.977 307.011 101.926 306.986L102.181 306.099C102.426 306.162 102.642 306.184 102.829 306.167C103.017 306.15 103.183 306.067 103.328 305.916C103.475 305.768 103.61 305.528 103.733 305.196L103.92 304.684L101.5 298.105H102.59L104.397 303.321H104.465L106.272 298.105H107.363L104.585 305.605C104.46 305.943 104.305 306.223 104.12 306.444C103.936 306.669 103.721 306.835 103.477 306.943C103.235 307.051 102.963 307.105 102.659 307.105Z" fill="black" fill-opacity="0.7"/>
<path d="M127.277 298.65H126.221C126.158 298.346 126.049 298.079 125.893 297.849C125.739 297.619 125.552 297.426 125.33 297.27C125.111 297.111 124.868 296.991 124.601 296.912C124.334 296.832 124.056 296.792 123.766 296.792C123.238 296.792 122.759 296.926 122.33 297.193C121.904 297.46 121.564 297.854 121.312 298.373C121.062 298.893 120.937 299.531 120.937 300.287C120.937 301.042 121.062 301.68 121.312 302.2C121.564 302.72 121.904 303.113 122.33 303.381C122.759 303.648 123.238 303.781 123.766 303.781C124.056 303.781 124.334 303.741 124.601 303.662C124.868 303.582 125.111 303.464 125.33 303.308C125.552 303.149 125.739 302.954 125.893 302.724C126.049 302.491 126.158 302.224 126.221 301.923H127.277C127.198 302.369 127.053 302.768 126.843 303.121C126.633 303.473 126.371 303.773 126.059 304.02C125.746 304.264 125.395 304.45 125.006 304.578C124.62 304.706 124.206 304.77 123.766 304.77C123.022 304.77 122.36 304.588 121.78 304.224C121.201 303.861 120.745 303.344 120.412 302.673C120.08 302.003 119.914 301.207 119.914 300.287C119.914 299.366 120.08 298.571 120.412 297.9C120.745 297.23 121.201 296.713 121.78 296.349C122.36 295.986 123.022 295.804 123.766 295.804C124.206 295.804 124.62 295.868 125.006 295.996C125.395 296.123 125.746 296.311 126.059 296.558C126.371 296.802 126.633 297.101 126.843 297.453C127.053 297.802 127.198 298.202 127.277 298.65ZM130.775 304.804C130.36 304.804 129.984 304.726 129.646 304.569C129.308 304.41 129.039 304.182 128.84 303.883C128.641 303.582 128.542 303.219 128.542 302.792C128.542 302.417 128.616 302.113 128.764 301.881C128.911 301.645 129.109 301.46 129.356 301.327C129.603 301.193 129.876 301.094 130.174 301.028C130.475 300.96 130.778 300.906 131.082 300.866C131.48 300.815 131.802 300.777 132.049 300.751C132.299 300.723 132.481 300.676 132.595 300.611C132.711 300.545 132.769 300.432 132.769 300.27V300.236C132.769 299.815 132.654 299.488 132.424 299.256C132.197 299.023 131.852 298.906 131.389 298.906C130.908 298.906 130.532 299.011 130.259 299.221C129.987 299.432 129.795 299.656 129.684 299.895L128.73 299.554C128.9 299.156 129.127 298.846 129.411 298.625C129.698 298.4 130.011 298.244 130.349 298.156C130.69 298.065 131.025 298.02 131.355 298.02C131.565 298.02 131.806 298.045 132.079 298.096C132.355 298.145 132.62 298.246 132.876 298.399C133.134 298.552 133.349 298.784 133.519 299.094C133.69 299.403 133.775 299.818 133.775 300.338V304.65H132.769V303.764H132.718C132.65 303.906 132.536 304.058 132.377 304.22C132.218 304.382 132.007 304.52 131.742 304.633C131.478 304.747 131.156 304.804 130.775 304.804ZM130.928 303.9C131.326 303.9 131.661 303.822 131.934 303.666C132.21 303.51 132.417 303.308 132.556 303.061C132.698 302.814 132.769 302.554 132.769 302.281V301.361C132.727 301.412 132.633 301.459 132.488 301.501C132.346 301.541 132.181 301.577 131.994 301.608C131.809 301.636 131.629 301.662 131.453 301.684C131.279 301.704 131.139 301.721 131.031 301.736C130.769 301.77 130.525 301.825 130.298 301.902C130.073 301.976 129.891 302.088 129.752 302.238C129.616 302.386 129.548 302.588 129.548 302.844C129.548 303.193 129.677 303.457 129.935 303.636C130.197 303.812 130.528 303.9 130.928 303.9ZM135.611 304.65V298.105H136.582V299.094H136.65C136.77 298.77 136.986 298.507 137.298 298.305C137.611 298.104 137.963 298.003 138.355 298.003C138.429 298.003 138.521 298.004 138.632 298.007C138.743 298.01 138.826 298.014 138.883 298.02V299.042C138.849 299.034 138.771 299.021 138.649 299.004C138.53 298.984 138.403 298.974 138.27 298.974C137.951 298.974 137.667 299.041 137.417 299.175C137.17 299.305 136.974 299.487 136.829 299.72C136.687 299.95 136.616 300.213 136.616 300.508V304.65H135.611ZM143.587 304.65V295.923H146.638C147.246 295.923 147.747 296.028 148.142 296.238C148.537 296.446 148.831 296.726 149.024 297.078C149.217 297.427 149.314 297.815 149.314 298.241C149.314 298.616 149.247 298.926 149.114 299.17C148.983 299.415 148.81 299.608 148.594 299.75C148.381 299.892 148.149 299.997 147.899 300.065V300.15C148.166 300.167 148.435 300.261 148.705 300.432C148.975 300.602 149.2 300.846 149.382 301.165C149.564 301.483 149.655 301.872 149.655 302.332C149.655 302.77 149.556 303.163 149.357 303.513C149.158 303.862 148.844 304.139 148.415 304.344C147.986 304.548 147.428 304.65 146.74 304.65H143.587ZM144.644 303.713H146.74C147.431 303.713 147.921 303.579 148.21 303.312C148.503 303.042 148.649 302.716 148.649 302.332C148.649 302.037 148.574 301.764 148.423 301.514C148.273 301.261 148.058 301.059 147.78 300.909C147.502 300.756 147.172 300.679 146.791 300.679H144.644V303.713ZM144.644 299.758H146.604C146.922 299.758 147.209 299.696 147.465 299.571C147.723 299.446 147.928 299.27 148.078 299.042C148.232 298.815 148.308 298.548 148.308 298.241C148.308 297.858 148.175 297.532 147.908 297.265C147.641 296.996 147.217 296.861 146.638 296.861H144.644V299.758ZM151.255 304.65V298.105H152.227V299.094H152.295C152.414 298.77 152.63 298.507 152.943 298.305C153.255 298.104 153.607 298.003 153.999 298.003C154.073 298.003 154.166 298.004 154.276 298.007C154.387 298.01 154.471 298.014 154.528 298.02V299.042C154.494 299.034 154.416 299.021 154.293 299.004C154.174 298.984 154.048 298.974 153.914 298.974C153.596 298.974 153.312 299.041 153.062 299.175C152.815 299.305 152.619 299.487 152.474 299.72C152.332 299.95 152.261 300.213 152.261 300.508V304.65H151.255ZM157.646 304.804C157.231 304.804 156.855 304.726 156.517 304.569C156.179 304.41 155.91 304.182 155.711 303.883C155.513 303.582 155.413 303.219 155.413 302.792C155.413 302.417 155.487 302.113 155.635 301.881C155.782 301.645 155.98 301.46 156.227 301.327C156.474 301.193 156.747 301.094 157.045 301.028C157.346 300.96 157.649 300.906 157.953 300.866C158.351 300.815 158.673 300.777 158.92 300.751C159.17 300.723 159.352 300.676 159.466 300.611C159.582 300.545 159.64 300.432 159.64 300.27V300.236C159.64 299.815 159.525 299.488 159.295 299.256C159.068 299.023 158.723 298.906 158.26 298.906C157.78 298.906 157.403 299.011 157.13 299.221C156.858 299.432 156.666 299.656 156.555 299.895L155.601 299.554C155.771 299.156 155.998 298.846 156.282 298.625C156.569 298.4 156.882 298.244 157.22 298.156C157.561 298.065 157.896 298.02 158.226 298.02C158.436 298.02 158.677 298.045 158.95 298.096C159.226 298.145 159.491 298.246 159.747 298.399C160.005 298.552 160.22 298.784 160.39 299.094C160.561 299.403 160.646 299.818 160.646 300.338V304.65H159.64V303.764H159.589C159.521 303.906 159.407 304.058 159.248 304.22C159.089 304.382 158.878 304.52 158.613 304.633C158.349 304.747 158.027 304.804 157.646 304.804ZM157.799 303.9C158.197 303.9 158.532 303.822 158.805 303.666C159.081 303.51 159.288 303.308 159.427 303.061C159.569 302.814 159.64 302.554 159.64 302.281V301.361C159.598 301.412 159.504 301.459 159.359 301.501C159.217 301.541 159.052 301.577 158.865 301.608C158.68 301.636 158.5 301.662 158.324 301.684C158.15 301.704 158.01 301.721 157.902 301.736C157.64 301.77 157.396 301.825 157.169 301.902C156.944 301.976 156.763 302.088 156.623 302.238C156.487 302.386 156.419 302.588 156.419 302.844C156.419 303.193 156.548 303.457 156.807 303.636C157.068 303.812 157.399 303.9 157.799 303.9ZM163.487 300.713V304.65H162.482V298.105H163.453V299.128H163.538C163.692 298.795 163.925 298.528 164.237 298.327C164.55 298.122 164.953 298.02 165.448 298.02C165.891 298.02 166.279 298.111 166.611 298.292C166.943 298.471 167.202 298.744 167.386 299.111C167.571 299.474 167.663 299.934 167.663 300.491V304.65H166.658V300.559C166.658 300.045 166.524 299.645 166.257 299.358C165.99 299.068 165.624 298.923 165.158 298.923C164.837 298.923 164.55 298.993 164.297 299.132C164.047 299.271 163.85 299.474 163.705 299.741C163.56 300.008 163.487 300.332 163.487 300.713ZM171.973 304.787C171.427 304.787 170.946 304.649 170.528 304.373C170.111 304.095 169.784 303.703 169.548 303.197C169.312 302.689 169.194 302.088 169.194 301.395C169.194 300.707 169.312 300.111 169.548 299.605C169.784 299.099 170.112 298.709 170.532 298.433C170.953 298.157 171.439 298.02 171.99 298.02C172.416 298.02 172.753 298.091 173 298.233C173.25 298.372 173.44 298.531 173.571 298.71C173.704 298.886 173.808 299.031 173.882 299.145H173.967V295.923H174.973V304.65H174.001V303.645H173.882C173.808 303.764 173.703 303.915 173.567 304.096C173.43 304.275 173.236 304.436 172.983 304.578C172.73 304.717 172.393 304.787 171.973 304.787ZM172.109 303.883C172.513 303.883 172.853 303.778 173.132 303.568C173.41 303.355 173.622 303.061 173.767 302.686C173.912 302.308 173.984 301.872 173.984 301.378C173.984 300.889 173.913 300.461 173.771 300.095C173.629 299.726 173.419 299.439 173.14 299.234C172.862 299.027 172.518 298.923 172.109 298.923C171.683 298.923 171.328 299.032 171.044 299.251C170.763 299.467 170.551 299.761 170.409 300.133C170.27 300.503 170.2 300.917 170.2 301.378C170.2 301.844 170.271 302.267 170.413 302.648C170.558 303.025 170.771 303.327 171.052 303.551C171.336 303.773 171.689 303.883 172.109 303.883ZM181.591 299.571L180.687 299.827C180.63 299.676 180.547 299.53 180.436 299.388C180.328 299.243 180.18 299.123 179.993 299.03C179.805 298.936 179.565 298.889 179.272 298.889C178.872 298.889 178.538 298.981 178.271 299.166C178.007 299.348 177.875 299.579 177.875 299.861C177.875 300.111 177.966 300.308 178.147 300.453C178.329 300.598 178.613 300.719 179 300.815L179.971 301.054C180.557 301.196 180.993 301.413 181.28 301.706C181.567 301.996 181.71 302.369 181.71 302.827C181.71 303.202 181.602 303.537 181.386 303.832C181.173 304.128 180.875 304.361 180.491 304.531C180.108 304.702 179.662 304.787 179.153 304.787C178.486 304.787 177.933 304.642 177.495 304.352C177.058 304.062 176.781 303.639 176.665 303.082L177.619 302.844C177.71 303.196 177.882 303.46 178.135 303.636C178.39 303.812 178.724 303.9 179.136 303.9C179.605 303.9 179.977 303.801 180.253 303.602C180.531 303.4 180.67 303.159 180.67 302.878C180.67 302.65 180.591 302.46 180.432 302.307C180.272 302.15 180.028 302.034 179.699 301.957L178.608 301.702C178.008 301.559 177.568 301.339 177.287 301.041C177.008 300.74 176.869 300.363 176.869 299.912C176.869 299.542 176.973 299.216 177.18 298.932C177.39 298.648 177.676 298.425 178.037 298.263C178.4 298.101 178.812 298.02 179.272 298.02C179.92 298.02 180.429 298.162 180.798 298.446C181.17 298.73 181.434 299.105 181.591 299.571Z" fill="black" fill-opacity="0.7"/>
<path d="M207.267 304.65H206.159L209.364 295.923H210.454L213.659 304.65H212.551L209.943 297.304H209.875L207.267 304.65ZM207.676 301.241H212.142V302.179H207.676V301.241ZM214.952 304.65V298.105H215.958V304.65H214.952ZM215.464 297.014C215.268 297.014 215.099 296.947 214.957 296.814C214.817 296.68 214.748 296.52 214.748 296.332C214.748 296.145 214.817 295.984 214.957 295.851C215.099 295.717 215.268 295.65 215.464 295.65C215.66 295.65 215.827 295.717 215.967 295.851C216.109 295.984 216.18 296.145 216.18 296.332C216.18 296.52 216.109 296.68 215.967 296.814C215.827 296.947 215.66 297.014 215.464 297.014ZM217.8 304.65V298.105H218.772V299.094H218.84C218.959 298.77 219.175 298.507 219.488 298.305C219.8 298.104 220.152 298.003 220.544 298.003C220.618 298.003 220.711 298.004 220.821 298.007C220.932 298.01 221.016 298.014 221.073 298.02V299.042C221.039 299.034 220.961 299.021 220.838 299.004C220.719 298.984 220.593 298.974 220.459 298.974C220.141 298.974 219.857 299.041 219.607 299.175C219.36 299.305 219.164 299.487 219.019 299.72C218.877 299.95 218.806 300.213 218.806 300.508V304.65H217.8ZM223.271 295.923V304.65H222.265V295.923H223.271ZM225.113 304.65V298.105H226.118V304.65H225.113ZM225.624 297.014C225.428 297.014 225.259 296.947 225.117 296.814C224.978 296.68 224.908 296.52 224.908 296.332C224.908 296.145 224.978 295.984 225.117 295.851C225.259 295.717 225.428 295.65 225.624 295.65C225.82 295.65 225.988 295.717 226.127 295.851C226.269 295.984 226.34 296.145 226.34 296.332C226.34 296.52 226.269 296.68 226.127 296.814C225.988 296.947 225.82 297.014 225.624 297.014ZM228.966 300.713V304.65H227.96V298.105H228.932V299.128H229.017C229.17 298.795 229.403 298.528 229.716 298.327C230.028 298.122 230.432 298.02 230.926 298.02C231.369 298.02 231.757 298.111 232.089 298.292C232.422 298.471 232.68 298.744 232.865 299.111C233.05 299.474 233.142 299.934 233.142 300.491V304.65H232.136V300.559C232.136 300.045 232.003 299.645 231.736 299.358C231.469 299.068 231.102 298.923 230.636 298.923C230.315 298.923 230.028 298.993 229.776 299.132C229.526 299.271 229.328 299.474 229.183 299.741C229.038 300.008 228.966 300.332 228.966 300.713ZM237.724 304.787C237.093 304.787 236.549 304.648 236.092 304.369C235.637 304.088 235.287 303.696 235.039 303.193C234.795 302.687 234.673 302.099 234.673 301.429C234.673 300.758 234.795 300.167 235.039 299.656C235.287 299.142 235.63 298.741 236.071 298.454C236.514 298.165 237.031 298.02 237.622 298.02C237.963 298.02 238.299 298.077 238.632 298.19C238.964 298.304 239.267 298.488 239.539 298.744C239.812 298.997 240.029 299.332 240.191 299.75C240.353 300.167 240.434 300.682 240.434 301.292V301.719H235.389V300.849H239.412C239.412 300.48 239.338 300.15 239.19 299.861C239.045 299.571 238.838 299.342 238.568 299.175C238.301 299.007 237.985 298.923 237.622 298.923C237.221 298.923 236.875 299.023 236.582 299.221C236.292 299.417 236.069 299.673 235.913 299.988C235.757 300.304 235.679 300.642 235.679 301.003V301.582C235.679 302.077 235.764 302.496 235.934 302.839C236.108 303.18 236.348 303.44 236.654 303.619C236.961 303.795 237.318 303.883 237.724 303.883C237.988 303.883 238.227 303.846 238.44 303.773C238.656 303.696 238.842 303.582 238.998 303.432C239.154 303.278 239.275 303.088 239.36 302.861L240.332 303.133C240.23 303.463 240.058 303.753 239.816 304.003C239.575 304.25 239.277 304.443 238.921 304.582C238.566 304.719 238.167 304.787 237.724 304.787ZM246.6 299.571L245.697 299.827C245.64 299.676 245.556 299.53 245.446 299.388C245.338 299.243 245.19 299.123 245.002 299.03C244.815 298.936 244.575 298.889 244.282 298.889C243.882 298.889 243.548 298.981 243.281 299.166C243.017 299.348 242.885 299.579 242.885 299.861C242.885 300.111 242.975 300.308 243.157 300.453C243.339 300.598 243.623 300.719 244.01 300.815L244.981 301.054C245.566 301.196 246.002 301.413 246.289 301.706C246.576 301.996 246.72 302.369 246.72 302.827C246.72 303.202 246.612 303.537 246.396 303.832C246.183 304.128 245.885 304.361 245.501 304.531C245.117 304.702 244.671 304.787 244.163 304.787C243.495 304.787 242.943 304.642 242.505 304.352C242.068 304.062 241.791 303.639 241.674 303.082L242.629 302.844C242.72 303.196 242.892 303.46 243.144 303.636C243.4 303.812 243.734 303.9 244.146 303.9C244.615 303.9 244.987 303.801 245.262 303.602C245.541 303.4 245.68 303.159 245.68 302.878C245.68 302.65 245.6 302.46 245.441 302.307C245.282 302.15 245.038 302.034 244.708 301.957L243.617 301.702C243.018 301.559 242.578 301.339 242.296 301.041C242.018 300.74 241.879 300.363 241.879 299.912C241.879 299.542 241.983 299.216 242.19 298.932C242.4 298.648 242.686 298.425 243.046 298.263C243.41 298.101 243.822 298.02 244.282 298.02C244.93 298.02 245.439 298.162 245.808 298.446C246.18 298.73 246.444 299.105 246.6 299.571Z" fill="black" fill-opacity="0.7"/>
<path d="M283.757 304.65V295.923H289.024V296.861H284.814V299.809H288.751V300.747H284.814V303.713H289.092V304.65H283.757ZM291.798 300.713V304.65H290.792V298.105H291.764V299.128H291.849C292.002 298.795 292.235 298.528 292.548 298.327C292.86 298.122 293.264 298.02 293.758 298.02C294.201 298.02 294.589 298.111 294.921 298.292C295.254 298.471 295.512 298.744 295.697 299.111C295.882 299.474 295.974 299.934 295.974 300.491V304.65H294.968V300.559C294.968 300.045 294.835 299.645 294.568 299.358C294.301 299.068 293.934 298.923 293.468 298.923C293.147 298.923 292.86 298.993 292.608 299.132C292.358 299.271 292.16 299.474 292.015 299.741C291.87 300.008 291.798 300.332 291.798 300.713ZM300.556 304.787C299.925 304.787 299.381 304.648 298.924 304.369C298.469 304.088 298.119 303.696 297.871 303.193C297.627 302.687 297.505 302.099 297.505 301.429C297.505 300.758 297.627 300.167 297.871 299.656C298.119 299.142 298.462 298.741 298.903 298.454C299.346 298.165 299.863 298.02 300.454 298.02C300.795 298.02 301.131 298.077 301.464 298.19C301.796 298.304 302.099 298.488 302.371 298.744C302.644 298.997 302.861 299.332 303.023 299.75C303.185 300.167 303.266 300.682 303.266 301.292V301.719H298.221V300.849H302.244C302.244 300.48 302.17 300.15 302.022 299.861C301.877 299.571 301.67 299.342 301.4 299.175C301.133 299.007 300.817 298.923 300.454 298.923C300.053 298.923 299.707 299.023 299.414 299.221C299.124 299.417 298.901 299.673 298.745 299.988C298.589 300.304 298.511 300.642 298.511 301.003V301.582C298.511 302.077 298.596 302.496 298.766 302.839C298.94 303.18 299.18 303.44 299.486 303.619C299.793 303.795 300.15 303.883 300.556 303.883C300.82 303.883 301.059 303.846 301.272 303.773C301.488 303.696 301.674 303.582 301.83 303.432C301.986 303.278 302.107 303.088 302.192 302.861L303.164 303.133C303.062 303.463 302.89 303.753 302.648 304.003C302.407 304.25 302.109 304.443 301.753 304.582C301.398 304.719 300.999 304.787 300.556 304.787ZM304.796 304.65V298.105H305.768V299.094H305.836C305.955 298.77 306.171 298.507 306.484 298.305C306.796 298.104 307.148 298.003 307.54 298.003C307.614 298.003 307.707 298.004 307.817 298.007C307.928 298.01 308.012 298.014 308.069 298.02V299.042C308.035 299.034 307.957 299.021 307.834 299.004C307.715 298.984 307.589 298.974 307.455 298.974C307.137 298.974 306.853 299.041 306.603 299.175C306.356 299.305 306.16 299.487 306.015 299.72C305.873 299.95 305.802 300.213 305.802 300.508V304.65H304.796ZM311.704 307.241C311.218 307.241 310.8 307.179 310.451 307.054C310.102 306.932 309.81 306.77 309.577 306.568C309.347 306.369 309.164 306.156 309.028 305.929L309.829 305.366C309.92 305.486 310.035 305.622 310.174 305.775C310.313 305.932 310.503 306.067 310.745 306.18C310.989 306.297 311.309 306.355 311.704 306.355C312.232 306.355 312.668 306.227 313.012 305.971C313.356 305.716 313.528 305.315 313.528 304.77V303.44H313.442C313.369 303.559 313.263 303.707 313.127 303.883C312.994 304.057 312.8 304.211 312.548 304.348C312.298 304.481 311.959 304.548 311.533 304.548C311.005 304.548 310.53 304.423 310.11 304.173C309.692 303.923 309.361 303.559 309.117 303.082C308.876 302.605 308.755 302.025 308.755 301.344C308.755 300.673 308.873 300.089 309.109 299.592C309.344 299.092 309.673 298.706 310.093 298.433C310.513 298.157 310.999 298.02 311.55 298.02C311.977 298.02 312.315 298.091 312.565 298.233C312.817 298.372 313.011 298.531 313.144 298.71C313.28 298.886 313.386 299.031 313.459 299.145H313.562V298.105H314.533V304.838C314.533 305.4 314.405 305.858 314.15 306.21C313.897 306.565 313.556 306.825 313.127 306.99C312.701 307.157 312.227 307.241 311.704 307.241ZM311.67 303.645C312.073 303.645 312.414 303.552 312.692 303.368C312.971 303.183 313.182 302.917 313.327 302.571C313.472 302.224 313.545 301.809 313.545 301.327C313.545 300.855 313.474 300.439 313.332 300.078C313.19 299.717 312.979 299.434 312.701 299.23C312.423 299.025 312.079 298.923 311.67 298.923C311.244 298.923 310.888 299.031 310.604 299.247C310.323 299.463 310.111 299.753 309.969 300.116C309.83 300.48 309.761 300.883 309.761 301.327C309.761 301.781 309.832 302.183 309.974 302.532C310.119 302.879 310.332 303.152 310.613 303.351C310.897 303.547 311.249 303.645 311.67 303.645ZM317.022 307.105C316.852 307.105 316.7 307.091 316.566 307.062C316.432 307.037 316.34 307.011 316.289 306.986L316.545 306.099C316.789 306.162 317.005 306.184 317.192 306.167C317.38 306.15 317.546 306.067 317.691 305.916C317.839 305.768 317.974 305.528 318.096 305.196L318.283 304.684L315.863 298.105H316.954L318.761 303.321H318.829L320.636 298.105H321.727L318.948 305.605C318.823 305.943 318.668 306.223 318.484 306.444C318.299 306.669 318.084 306.835 317.84 306.943C317.599 307.051 317.326 307.105 317.022 307.105Z" fill="black" fill-opacity="0.7"/>
<path d="M345.977 296.861V295.923H352.522V296.861H349.778V304.65H348.721V296.861H345.977ZM355.812 304.787C355.181 304.787 354.637 304.648 354.18 304.369C353.725 304.088 353.374 303.696 353.127 303.193C352.883 302.687 352.761 302.099 352.761 301.429C352.761 300.758 352.883 300.167 353.127 299.656C353.374 299.142 353.718 298.741 354.158 298.454C354.602 298.165 355.119 298.02 355.71 298.02C356.051 298.02 356.387 298.077 356.72 298.19C357.052 298.304 357.355 298.488 357.627 298.744C357.9 298.997 358.117 299.332 358.279 299.75C358.441 300.167 358.522 300.682 358.522 301.292V301.719H353.477V300.849H357.499C357.499 300.48 357.426 300.15 357.278 299.861C357.133 299.571 356.926 299.342 356.656 299.175C356.389 299.007 356.073 298.923 355.71 298.923C355.309 298.923 354.962 299.023 354.67 299.221C354.38 299.417 354.157 299.673 354.001 299.988C353.845 300.304 353.766 300.642 353.766 301.003V301.582C353.766 302.077 353.852 302.496 354.022 302.839C354.195 303.18 354.435 303.44 354.742 303.619C355.049 303.795 355.406 303.883 355.812 303.883C356.076 303.883 356.315 303.846 356.528 303.773C356.744 303.696 356.93 303.582 357.086 303.432C357.242 303.278 357.363 303.088 357.448 302.861L358.42 303.133C358.318 303.463 358.146 303.753 357.904 304.003C357.663 304.25 357.364 304.443 357.009 304.582C356.654 304.719 356.255 304.787 355.812 304.787ZM362.711 304.787C362.097 304.787 361.569 304.642 361.126 304.352C360.683 304.062 360.342 303.663 360.103 303.155C359.864 302.646 359.745 302.065 359.745 301.412C359.745 300.747 359.867 300.16 360.112 299.652C360.359 299.14 360.703 298.741 361.143 298.454C361.586 298.165 362.103 298.02 362.694 298.02C363.154 298.02 363.569 298.105 363.938 298.275C364.308 298.446 364.61 298.684 364.846 298.991C365.082 299.298 365.228 299.656 365.285 300.065H364.279C364.203 299.767 364.032 299.503 363.768 299.273C363.507 299.04 363.154 298.923 362.711 298.923C362.319 298.923 361.975 299.025 361.68 299.23C361.387 299.432 361.158 299.717 360.994 300.086C360.832 300.453 360.751 300.883 360.751 301.378C360.751 301.883 360.83 302.324 360.989 302.699C361.151 303.074 361.379 303.365 361.671 303.572C361.967 303.78 362.313 303.883 362.711 303.883C362.972 303.883 363.21 303.838 363.423 303.747C363.636 303.656 363.816 303.525 363.964 303.355C364.112 303.184 364.217 302.98 364.279 302.741H365.285C365.228 303.128 365.087 303.476 364.863 303.785C364.641 304.092 364.347 304.336 363.981 304.518C363.617 304.697 363.194 304.787 362.711 304.787ZM367.761 300.713V304.65H366.755V295.923H367.761V299.128H367.846C367.999 298.79 368.23 298.521 368.536 298.322C368.846 298.121 369.258 298.02 369.772 298.02C370.218 298.02 370.609 298.109 370.944 298.288C371.279 298.464 371.539 298.736 371.724 299.102C371.911 299.466 372.005 299.929 372.005 300.491V304.65H370.999V300.559C370.999 300.04 370.864 299.638 370.595 299.354C370.328 299.067 369.957 298.923 369.482 298.923C369.153 298.923 368.857 298.993 368.596 299.132C368.337 299.271 368.133 299.474 367.982 299.741C367.835 300.008 367.761 300.332 367.761 300.713ZM374.851 300.713V304.65H373.845V298.105H374.817V299.128H374.902C375.055 298.795 375.288 298.528 375.601 298.327C375.913 298.122 376.317 298.02 376.811 298.02C377.254 298.02 377.642 298.111 377.974 298.292C378.307 298.471 378.565 298.744 378.75 299.111C378.934 299.474 379.027 299.934 379.027 300.491V304.65H378.021V300.559C378.021 300.045 377.888 299.645 377.62 299.358C377.353 299.068 376.987 298.923 376.521 298.923C376.2 298.923 375.913 298.993 375.66 299.132C375.41 299.271 375.213 299.474 375.068 299.741C374.923 300.008 374.851 300.332 374.851 300.713ZM383.524 304.787C382.933 304.787 382.414 304.646 381.968 304.365C381.525 304.084 381.178 303.69 380.928 303.184C380.681 302.679 380.558 302.088 380.558 301.412C380.558 300.73 380.681 300.135 380.928 299.626C381.178 299.118 381.525 298.723 381.968 298.442C382.414 298.16 382.933 298.02 383.524 298.02C384.114 298.02 384.632 298.16 385.075 298.442C385.521 298.723 385.867 299.118 386.114 299.626C386.364 300.135 386.489 300.73 386.489 301.412C386.489 302.088 386.364 302.679 386.114 303.184C385.867 303.69 385.521 304.084 385.075 304.365C384.632 304.646 384.114 304.787 383.524 304.787ZM383.524 303.883C383.972 303.883 384.342 303.768 384.632 303.538C384.921 303.308 385.136 303.006 385.275 302.631C385.414 302.256 385.484 301.849 385.484 301.412C385.484 300.974 385.414 300.567 385.275 300.189C385.136 299.811 384.921 299.506 384.632 299.273C384.342 299.04 383.972 298.923 383.524 298.923C383.075 298.923 382.705 299.04 382.416 299.273C382.126 299.506 381.911 299.811 381.772 300.189C381.633 300.567 381.563 300.974 381.563 301.412C381.563 301.849 381.633 302.256 381.772 302.631C381.911 303.006 382.126 303.308 382.416 303.538C382.705 303.768 383.075 303.883 383.524 303.883ZM389.03 295.923V304.65H388.025V295.923H389.03ZM393.531 304.787C392.94 304.787 392.422 304.646 391.976 304.365C391.533 304.084 391.186 303.69 390.936 303.184C390.689 302.679 390.565 302.088 390.565 301.412C390.565 300.73 390.689 300.135 390.936 299.626C391.186 299.118 391.533 298.723 391.976 298.442C392.422 298.16 392.94 298.02 393.531 298.02C394.122 298.02 394.639 298.16 395.083 298.442C395.529 298.723 395.875 299.118 396.122 299.626C396.372 300.135 396.497 300.73 396.497 301.412C396.497 302.088 396.372 302.679 396.122 303.184C395.875 303.69 395.529 304.084 395.083 304.365C394.639 304.646 394.122 304.787 393.531 304.787ZM393.531 303.883C393.98 303.883 394.35 303.768 394.639 303.538C394.929 303.308 395.144 303.006 395.283 302.631C395.422 302.256 395.492 301.849 395.492 301.412C395.492 300.974 395.422 300.567 395.283 300.189C395.144 299.811 394.929 299.506 394.639 299.273C394.35 299.04 393.98 298.923 393.531 298.923C393.083 298.923 392.713 299.04 392.423 299.273C392.134 299.506 391.919 299.811 391.78 300.189C391.641 300.567 391.571 300.974 391.571 301.412C391.571 301.849 391.641 302.256 391.78 302.631C391.919 303.006 392.134 303.308 392.423 303.538C392.713 303.768 393.083 303.883 393.531 303.883ZM400.674 307.241C400.189 307.241 399.771 307.179 399.422 307.054C399.072 306.932 398.781 306.77 398.548 306.568C398.318 306.369 398.135 306.156 397.998 305.929L398.799 305.366C398.89 305.486 399.005 305.622 399.145 305.775C399.284 305.932 399.474 306.067 399.716 306.18C399.96 306.297 400.28 306.355 400.674 306.355C401.203 306.355 401.639 306.227 401.983 305.971C402.326 305.716 402.498 305.315 402.498 304.77V303.44H402.413C402.339 303.559 402.234 303.707 402.098 303.883C401.964 304.057 401.771 304.211 401.518 304.348C401.268 304.481 400.93 304.548 400.504 304.548C399.976 304.548 399.501 304.423 399.081 304.173C398.663 303.923 398.332 303.559 398.088 303.082C397.846 302.605 397.726 302.025 397.726 301.344C397.726 300.673 397.844 300.089 398.079 299.592C398.315 299.092 398.643 298.706 399.064 298.433C399.484 298.157 399.97 298.02 400.521 298.02C400.947 298.02 401.285 298.091 401.535 298.233C401.788 298.372 401.981 298.531 402.115 298.71C402.251 298.886 402.356 299.031 402.43 299.145H402.532V298.105H403.504V304.838C403.504 305.4 403.376 305.858 403.12 306.21C402.868 306.565 402.527 306.825 402.098 306.99C401.672 307.157 401.197 307.241 400.674 307.241ZM400.64 303.645C401.044 303.645 401.385 303.552 401.663 303.368C401.942 303.183 402.153 302.917 402.298 302.571C402.443 302.224 402.515 301.809 402.515 301.327C402.515 300.855 402.444 300.439 402.302 300.078C402.16 299.717 401.95 299.434 401.672 299.23C401.393 299.025 401.049 298.923 400.64 298.923C400.214 298.923 399.859 299.031 399.575 299.247C399.294 299.463 399.082 299.753 398.94 300.116C398.801 300.48 398.731 300.883 398.731 301.327C398.731 301.781 398.802 302.183 398.944 302.532C399.089 302.879 399.302 303.152 399.584 303.351C399.868 303.547 400.22 303.645 400.64 303.645ZM405.993 307.105C405.822 307.105 405.67 307.091 405.537 307.062C405.403 307.037 405.311 307.011 405.26 306.986L405.515 306.099C405.76 306.162 405.976 306.184 406.163 306.167C406.351 306.15 406.517 306.067 406.662 305.916C406.809 305.768 406.944 305.528 407.067 305.196L407.254 304.684L404.834 298.105H405.924L407.731 303.321H407.799L409.606 298.105H410.697L407.919 305.605C407.794 305.943 407.639 306.223 407.454 306.444C407.27 306.669 407.055 306.835 406.811 306.943C406.569 307.051 406.297 307.105 405.993 307.105Z" fill="black" fill-opacity="0.7"/>
<path d="M430.609 298.65H429.553C429.49 298.346 429.381 298.079 429.225 297.849C429.071 297.619 428.884 297.426 428.662 297.27C428.443 297.111 428.2 296.991 427.933 296.912C427.666 296.832 427.388 296.792 427.098 296.792C426.57 296.792 426.091 296.926 425.662 297.193C425.236 297.46 424.896 297.854 424.644 298.373C424.394 298.893 424.269 299.531 424.269 300.287C424.269 301.042 424.394 301.68 424.644 302.2C424.896 302.72 425.236 303.113 425.662 303.381C426.091 303.648 426.57 303.781 427.098 303.781C427.388 303.781 427.666 303.741 427.933 303.662C428.2 303.582 428.443 303.464 428.662 303.308C428.884 303.149 429.071 302.954 429.225 302.724C429.381 302.491 429.49 302.224 429.553 301.923H430.609C430.53 302.369 430.385 302.768 430.175 303.121C429.965 303.473 429.703 303.773 429.391 304.02C429.078 304.264 428.727 304.45 428.338 304.578C427.952 304.706 427.538 304.77 427.098 304.77C426.354 304.77 425.692 304.588 425.112 304.224C424.533 303.861 424.077 303.344 423.744 302.673C423.412 302.003 423.246 301.207 423.246 300.287C423.246 299.366 423.412 298.571 423.744 297.9C424.077 297.23 424.533 296.713 425.112 296.349C425.692 295.986 426.354 295.804 427.098 295.804C427.538 295.804 427.952 295.868 428.338 295.996C428.727 296.123 429.078 296.311 429.391 296.558C429.703 296.802 429.965 297.101 430.175 297.453C430.385 297.802 430.53 298.202 430.609 298.65ZM434.107 304.804C433.692 304.804 433.316 304.726 432.978 304.569C432.64 304.41 432.371 304.182 432.172 303.883C431.973 303.582 431.874 303.219 431.874 302.792C431.874 302.417 431.948 302.113 432.096 301.881C432.243 301.645 432.441 301.46 432.688 301.327C432.935 301.193 433.208 301.094 433.506 301.028C433.807 300.96 434.11 300.906 434.414 300.866C434.812 300.815 435.134 300.777 435.381 300.751C435.631 300.723 435.813 300.676 435.927 300.611C436.043 300.545 436.101 300.432 436.101 300.27V300.236C436.101 299.815 435.986 299.488 435.756 299.256C435.529 299.023 435.184 298.906 434.721 298.906C434.241 298.906 433.864 299.011 433.591 299.221C433.319 299.432 433.127 299.656 433.016 299.895L432.062 299.554C432.232 299.156 432.459 298.846 432.743 298.625C433.03 298.4 433.343 298.244 433.681 298.156C434.022 298.065 434.357 298.02 434.687 298.02C434.897 298.02 435.138 298.045 435.411 298.096C435.687 298.145 435.952 298.246 436.208 298.399C436.466 298.552 436.681 298.784 436.851 299.094C437.022 299.403 437.107 299.818 437.107 300.338V304.65H436.101V303.764H436.05C435.982 303.906 435.868 304.058 435.709 304.22C435.55 304.382 435.339 304.52 435.074 304.633C434.81 304.747 434.488 304.804 434.107 304.804ZM434.26 303.9C434.658 303.9 434.993 303.822 435.266 303.666C435.542 303.51 435.749 303.308 435.888 303.061C436.03 302.814 436.101 302.554 436.101 302.281V301.361C436.059 301.412 435.965 301.459 435.82 301.501C435.678 301.541 435.513 301.577 435.326 301.608C435.141 301.636 434.961 301.662 434.785 301.684C434.611 301.704 434.471 301.721 434.363 301.736C434.101 301.77 433.857 301.825 433.63 301.902C433.405 301.976 433.223 302.088 433.084 302.238C432.948 302.386 432.88 302.588 432.88 302.844C432.88 303.193 433.009 303.457 433.268 303.636C433.529 303.812 433.86 303.9 434.26 303.9ZM438.943 304.65V298.105H439.914V299.094H439.982C440.102 298.77 440.318 298.507 440.63 298.305C440.943 298.104 441.295 298.003 441.687 298.003C441.761 298.003 441.853 298.004 441.964 298.007C442.075 298.01 442.158 298.014 442.215 298.02V299.042C442.181 299.034 442.103 299.021 441.981 299.004C441.862 298.984 441.735 298.974 441.602 298.974C441.283 298.974 440.999 299.041 440.749 299.175C440.502 299.305 440.306 299.487 440.161 299.72C440.019 299.95 439.948 300.213 439.948 300.508V304.65H438.943ZM446.919 304.65V295.923H449.97C450.578 295.923 451.079 296.028 451.474 296.238C451.869 296.446 452.163 296.726 452.356 297.078C452.549 297.427 452.646 297.815 452.646 298.241C452.646 298.616 452.579 298.926 452.446 299.17C452.315 299.415 452.142 299.608 451.926 299.75C451.713 299.892 451.481 299.997 451.231 300.065V300.15C451.498 300.167 451.767 300.261 452.037 300.432C452.307 300.602 452.532 300.846 452.714 301.165C452.896 301.483 452.987 301.872 452.987 302.332C452.987 302.77 452.888 303.163 452.689 303.513C452.49 303.862 452.176 304.139 451.747 304.344C451.318 304.548 450.76 304.65 450.072 304.65H446.919ZM447.976 303.713H450.072C450.763 303.713 451.253 303.579 451.542 303.312C451.835 303.042 451.981 302.716 451.981 302.332C451.981 302.037 451.906 301.764 451.755 301.514C451.605 301.261 451.39 301.059 451.112 300.909C450.834 300.756 450.504 300.679 450.123 300.679H447.976V303.713ZM447.976 299.758H449.936C450.254 299.758 450.541 299.696 450.797 299.571C451.055 299.446 451.26 299.27 451.41 299.042C451.564 298.815 451.64 298.548 451.64 298.241C451.64 297.858 451.507 297.532 451.24 297.265C450.973 296.996 450.549 296.861 449.97 296.861H447.976V299.758ZM454.587 304.65V298.105H455.559V299.094H455.627C455.746 298.77 455.962 298.507 456.275 298.305C456.587 298.104 456.939 298.003 457.331 298.003C457.405 298.003 457.498 298.004 457.608 298.007C457.719 298.01 457.803 298.014 457.86 298.02V299.042C457.826 299.034 457.748 299.021 457.625 299.004C457.506 298.984 457.38 298.974 457.246 298.974C456.928 298.974 456.644 299.041 456.394 299.175C456.147 299.305 455.951 299.487 455.806 299.72C455.664 299.95 455.593 300.213 455.593 300.508V304.65H454.587ZM460.978 304.804C460.563 304.804 460.187 304.726 459.849 304.569C459.511 304.41 459.242 304.182 459.043 303.883C458.845 303.582 458.745 303.219 458.745 302.792C458.745 302.417 458.819 302.113 458.967 301.881C459.114 301.645 459.312 301.46 459.559 301.327C459.806 301.193 460.079 301.094 460.377 301.028C460.678 300.96 460.981 300.906 461.285 300.866C461.683 300.815 462.005 300.777 462.252 300.751C462.502 300.723 462.684 300.676 462.798 300.611C462.914 300.545 462.972 300.432 462.972 300.27V300.236C462.972 299.815 462.857 299.488 462.627 299.256C462.4 299.023 462.055 298.906 461.592 298.906C461.112 298.906 460.735 299.011 460.462 299.221C460.19 299.432 459.998 299.656 459.887 299.895L458.933 299.554C459.103 299.156 459.33 298.846 459.614 298.625C459.901 298.4 460.214 298.244 460.552 298.156C460.893 298.065 461.228 298.02 461.558 298.02C461.768 298.02 462.009 298.045 462.282 298.096C462.558 298.145 462.823 298.246 463.079 298.399C463.337 298.552 463.552 298.784 463.722 299.094C463.893 299.403 463.978 299.818 463.978 300.338V304.65H462.972V303.764H462.921C462.853 303.906 462.739 304.058 462.58 304.22C462.421 304.382 462.21 304.52 461.945 304.633C461.681 304.747 461.359 304.804 460.978 304.804ZM461.132 303.9C461.529 303.9 461.864 303.822 462.137 303.666C462.413 303.51 462.62 303.308 462.759 303.061C462.901 302.814 462.972 302.554 462.972 302.281V301.361C462.93 301.412 462.836 301.459 462.691 301.501C462.549 301.541 462.384 301.577 462.197 301.608C462.012 301.636 461.832 301.662 461.656 301.684C461.482 301.704 461.342 301.721 461.234 301.736C460.972 301.77 460.728 301.825 460.501 301.902C460.276 301.976 460.095 302.088 459.955 302.238C459.819 302.386 459.751 302.588 459.751 302.844C459.751 303.193 459.88 303.457 460.139 303.636C460.4 303.812 460.731 303.9 461.132 303.9ZM466.819 300.713V304.65H465.814V298.105H466.785V299.128H466.87C467.024 298.795 467.257 298.528 467.569 298.327C467.882 298.122 468.285 298.02 468.78 298.02C469.223 298.02 469.611 298.111 469.943 298.292C470.275 298.471 470.534 298.744 470.719 299.111C470.903 299.474 470.995 299.934 470.995 300.491V304.65H469.99V300.559C469.99 300.045 469.856 299.645 469.589 299.358C469.322 299.068 468.956 298.923 468.49 298.923C468.169 298.923 467.882 298.993 467.629 299.132C467.379 299.271 467.182 299.474 467.037 299.741C466.892 300.008 466.819 300.332 466.819 300.713ZM475.305 304.787C474.759 304.787 474.278 304.649 473.86 304.373C473.443 304.095 473.116 303.703 472.88 303.197C472.644 302.689 472.526 302.088 472.526 301.395C472.526 300.707 472.644 300.111 472.88 299.605C473.116 299.099 473.444 298.709 473.864 298.433C474.285 298.157 474.771 298.02 475.322 298.02C475.748 298.02 476.085 298.091 476.332 298.233C476.582 298.372 476.772 298.531 476.903 298.71C477.036 298.886 477.14 299.031 477.214 299.145H477.299V295.923H478.305V304.65H477.333V303.645H477.214C477.14 303.764 477.035 303.915 476.899 304.096C476.762 304.275 476.568 304.436 476.315 304.578C476.062 304.717 475.725 304.787 475.305 304.787ZM475.441 303.883C475.845 303.883 476.185 303.778 476.464 303.568C476.742 303.355 476.954 303.061 477.099 302.686C477.244 302.308 477.316 301.872 477.316 301.378C477.316 300.889 477.245 300.461 477.103 300.095C476.961 299.726 476.751 299.439 476.472 299.234C476.194 299.027 475.85 298.923 475.441 298.923C475.015 298.923 474.66 299.032 474.376 299.251C474.095 299.467 473.883 299.761 473.741 300.133C473.602 300.503 473.532 300.917 473.532 301.378C473.532 301.844 473.603 302.267 473.745 302.648C473.89 303.025 474.103 303.327 474.384 303.551C474.668 303.773 475.021 303.883 475.441 303.883ZM484.923 299.571L484.019 299.827C483.962 299.676 483.879 299.53 483.768 299.388C483.66 299.243 483.512 299.123 483.325 299.03C483.137 298.936 482.897 298.889 482.605 298.889C482.204 298.889 481.87 298.981 481.603 299.166C481.339 299.348 481.207 299.579 481.207 299.861C481.207 300.111 481.298 300.308 481.48 300.453C481.661 300.598 481.945 300.719 482.332 300.815L483.303 301.054C483.889 301.196 484.325 301.413 484.612 301.706C484.899 301.996 485.042 302.369 485.042 302.827C485.042 303.202 484.934 303.537 484.718 303.832C484.505 304.128 484.207 304.361 483.823 304.531C483.44 304.702 482.994 304.787 482.485 304.787C481.818 304.787 481.265 304.642 480.828 304.352C480.39 304.062 480.113 303.639 479.997 303.082L480.951 302.844C481.042 303.196 481.214 303.46 481.467 303.636C481.722 303.812 482.056 303.9 482.468 303.9C482.937 303.9 483.309 303.801 483.585 303.602C483.863 303.4 484.002 303.159 484.002 302.878C484.002 302.65 483.923 302.46 483.764 302.307C483.605 302.15 483.36 302.034 483.031 301.957L481.94 301.702C481.34 301.559 480.9 301.339 480.619 301.041C480.34 300.74 480.201 300.363 480.201 299.912C480.201 299.542 480.305 299.216 480.512 298.932C480.722 298.648 481.008 298.425 481.369 298.263C481.732 298.101 482.144 298.02 482.605 298.02C483.252 298.02 483.761 298.162 484.13 298.446C484.502 298.73 484.766 299.105 484.923 299.571Z" fill="black" fill-opacity="0.7"/>
<g clip-path="url(#clip0_815_3218)">
<g clip-path="url(#clip1_815_3218)">
<rect x="225" y="326.65" width="16" height="2" fill="#EDD088"/>
<circle cx="233" cy="327.65" r="3.5" fill="white" stroke="#EDD088"/>
<path d="M245.903 332.15V331.383L248.784 328.23C249.122 327.861 249.401 327.54 249.619 327.267C249.838 326.991 250 326.733 250.105 326.491C250.213 326.247 250.267 325.991 250.267 325.724C250.267 325.417 250.193 325.152 250.045 324.927C249.901 324.703 249.702 324.53 249.449 324.407C249.196 324.285 248.912 324.224 248.597 324.224C248.261 324.224 247.969 324.294 247.719 324.433C247.472 324.569 247.28 324.761 247.143 325.008C247.01 325.256 246.943 325.545 246.943 325.878H245.938C245.938 325.366 246.055 324.917 246.291 324.531C246.527 324.145 246.848 323.844 247.254 323.628C247.663 323.412 248.122 323.304 248.631 323.304C249.142 323.304 249.595 323.412 249.99 323.628C250.385 323.844 250.695 324.135 250.919 324.501C251.143 324.868 251.256 325.275 251.256 325.724C251.256 326.045 251.197 326.359 251.081 326.666C250.967 326.97 250.768 327.309 250.484 327.684C250.203 328.057 249.812 328.511 249.312 329.048L247.352 331.145V331.213H251.409V332.15H245.903ZM256.016 332.27C255.374 332.27 254.827 332.095 254.375 331.746C253.923 331.393 253.578 330.883 253.339 330.216C253.101 329.545 252.982 328.736 252.982 327.787C252.982 326.844 253.101 326.038 253.339 325.371C253.581 324.7 253.928 324.189 254.379 323.836C254.834 323.481 255.379 323.304 256.016 323.304C256.652 323.304 257.196 323.481 257.648 323.836C258.102 324.189 258.449 324.7 258.688 325.371C258.929 326.038 259.05 326.844 259.05 327.787C259.05 328.736 258.93 329.545 258.692 330.216C258.453 330.883 258.108 331.393 257.656 331.746C257.205 332.095 256.658 332.27 256.016 332.27ZM256.016 331.332C256.652 331.332 257.146 331.025 257.499 330.412C257.851 329.798 258.027 328.923 258.027 327.787C258.027 327.031 257.946 326.388 257.784 325.856C257.625 325.325 257.395 324.92 257.094 324.642C256.795 324.363 256.436 324.224 256.016 324.224C255.385 324.224 254.892 324.535 254.537 325.157C254.182 325.777 254.004 326.653 254.004 327.787C254.004 328.542 254.084 329.184 254.243 329.713C254.402 330.241 254.631 330.643 254.929 330.919C255.23 331.194 255.592 331.332 256.016 331.332ZM260.669 332.15V331.383L263.55 328.23C263.888 327.861 264.166 327.54 264.385 327.267C264.604 326.991 264.766 326.733 264.871 326.491C264.979 326.247 265.033 325.991 265.033 325.724C265.033 325.417 264.959 325.152 264.811 324.927C264.666 324.703 264.467 324.53 264.214 324.407C263.962 324.285 263.678 324.224 263.362 324.224C263.027 324.224 262.734 324.294 262.484 324.433C262.237 324.569 262.045 324.761 261.909 325.008C261.776 325.256 261.709 325.545 261.709 325.878H260.703C260.703 325.366 260.821 324.917 261.057 324.531C261.293 324.145 261.614 323.844 262.02 323.628C262.429 323.412 262.888 323.304 263.396 323.304C263.908 323.304 264.361 323.412 264.756 323.628C265.151 323.844 265.46 324.135 265.685 324.501C265.909 324.868 266.021 325.275 266.021 325.724C266.021 326.045 265.963 326.359 265.847 326.666C265.733 326.97 265.534 327.309 265.25 327.684C264.969 328.057 264.578 328.511 264.078 329.048L262.118 331.145V331.213H266.175V332.15H260.669ZM270.884 332.27C270.321 332.27 269.82 332.173 269.379 331.98C268.942 331.787 268.594 331.518 268.335 331.175C268.08 330.828 267.94 330.426 267.918 329.969H268.991C269.014 330.25 269.111 330.493 269.281 330.697C269.452 330.899 269.675 331.055 269.95 331.166C270.226 331.277 270.531 331.332 270.866 331.332C271.241 331.332 271.574 331.267 271.864 331.136C272.153 331.006 272.381 330.824 272.545 330.591C272.71 330.358 272.793 330.088 272.793 329.781C272.793 329.46 272.713 329.177 272.554 328.933C272.395 328.686 272.162 328.493 271.855 328.354C271.548 328.214 271.173 328.145 270.73 328.145H270.031V327.207H270.73C271.077 327.207 271.381 327.145 271.642 327.02C271.906 326.895 272.112 326.719 272.26 326.491C272.411 326.264 272.486 325.997 272.486 325.69C272.486 325.395 272.42 325.138 272.29 324.919C272.159 324.7 271.974 324.53 271.736 324.407C271.5 324.285 271.222 324.224 270.901 324.224C270.599 324.224 270.315 324.28 270.048 324.39C269.784 324.498 269.568 324.656 269.401 324.863C269.233 325.068 269.142 325.315 269.128 325.605H268.105C268.122 325.148 268.26 324.747 268.518 324.403C268.777 324.057 269.115 323.787 269.533 323.594C269.953 323.4 270.415 323.304 270.918 323.304C271.457 323.304 271.92 323.413 272.307 323.632C272.693 323.848 272.99 324.133 273.197 324.488C273.405 324.844 273.509 325.227 273.509 325.639C273.509 326.131 273.379 326.55 273.121 326.896C272.865 327.243 272.517 327.483 272.077 327.616V327.684C272.628 327.775 273.058 328.01 273.368 328.388C273.678 328.763 273.832 329.227 273.832 329.781C273.832 330.256 273.703 330.682 273.445 331.059C273.189 331.434 272.839 331.73 272.396 331.946C271.953 332.162 271.449 332.27 270.884 332.27Z" fill="black" fill-opacity="0.7"/>
</g>
</g>
<defs>
<clipPath id="clip0_815_3218">
<rect width="484" height="24" fill="white" transform="translate(8 315.65)"/>
</clipPath>
<clipPath id="clip1_815_3218">
<rect width="74" height="24" fill="white" transform="translate(213 315.65)"/>
</clipPath>
</defs>
</svg>
