<svg width="500" height="348" viewBox="0 0 500 348" fill="none" xmlns="http://www.w3.org/2000/svg">
<rect width="500" height="347.573" transform="translate(0 0.078125)" fill="white"/>
<path d="M15.9716 11.3509V20.0781H14.9148V12.4588H14.8636L12.733 13.8736V12.7997L14.9148 11.3509H15.9716ZM21.3281 20.1974C20.6861 20.1974 20.1392 20.0227 19.6875 19.6733C19.2358 19.321 18.8906 18.8111 18.652 18.1435C18.4134 17.473 18.294 16.6634 18.294 15.7145C18.294 14.7713 18.4134 13.9659 18.652 13.2983C18.8935 12.6278 19.2401 12.1165 19.6918 11.7642C20.1463 11.4091 20.6918 11.2315 21.3281 11.2315C21.9645 11.2315 22.5085 11.4091 22.9602 11.7642C23.4148 12.1165 23.7614 12.6278 24 13.2983C24.2415 13.9659 24.3622 14.7713 24.3622 15.7145C24.3622 16.6634 24.2429 17.473 24.0043 18.1435C23.7656 18.8111 23.4205 19.321 22.9688 19.6733C22.517 20.0227 21.9702 20.1974 21.3281 20.1974ZM21.3281 19.2599C21.9645 19.2599 22.4588 18.9531 22.8111 18.3395C23.1634 17.7259 23.3395 16.8509 23.3395 15.7145C23.3395 14.9588 23.2585 14.3153 23.0966 13.7841C22.9375 13.2528 22.7074 12.848 22.4062 12.5696C22.108 12.2912 21.7486 12.152 21.3281 12.152C20.6974 12.152 20.2045 12.4631 19.8494 13.0852C19.4943 13.7045 19.3168 14.581 19.3168 15.7145C19.3168 16.4702 19.3963 17.1122 19.5554 17.6406C19.7145 18.169 19.9432 18.571 20.2415 18.8466C20.5426 19.1222 20.9048 19.2599 21.3281 19.2599ZM28.8281 20.1974C28.1861 20.1974 27.6392 20.0227 27.1875 19.6733C26.7358 19.321 26.3906 18.8111 26.152 18.1435C25.9134 17.473 25.794 16.6634 25.794 15.7145C25.794 14.7713 25.9134 13.9659 26.152 13.2983C26.3935 12.6278 26.7401 12.1165 27.1918 11.7642C27.6463 11.4091 28.1918 11.2315 28.8281 11.2315C29.4645 11.2315 30.0085 11.4091 30.4602 11.7642C30.9148 12.1165 31.2614 12.6278 31.5 13.2983C31.7415 13.9659 31.8622 14.7713 31.8622 15.7145C31.8622 16.6634 31.7429 17.473 31.5043 18.1435C31.2656 18.8111 30.9205 19.321 30.4688 19.6733C30.017 20.0227 29.4702 20.1974 28.8281 20.1974ZM28.8281 19.2599C29.4645 19.2599 29.9588 18.9531 30.3111 18.3395C30.6634 17.7259 30.8395 16.8509 30.8395 15.7145C30.8395 14.9588 30.7585 14.3153 30.5966 13.7841C30.4375 13.2528 30.2074 12.848 29.9062 12.5696C29.608 12.2912 29.2486 12.152 28.8281 12.152C28.1974 12.152 27.7045 12.4631 27.3494 13.0852C26.9943 13.7045 26.8168 14.581 26.8168 15.7145C26.8168 16.4702 26.8963 17.1122 27.0554 17.6406C27.2145 18.169 27.4432 18.571 27.7415 18.8466C28.0426 19.1222 28.4048 19.2599 28.8281 19.2599Z" fill="black" fill-opacity="0.7"/>
<path d="M19.1761 87.9727L23.0795 80.2511V80.1829H18.5795V79.2454H24.1705V80.234L20.2841 87.9727H19.1761ZM28.369 88.092C27.869 88.092 27.4187 87.9925 27.0181 87.7937C26.6175 87.5948 26.2965 87.3221 26.055 86.9755C25.8136 86.6289 25.6815 86.234 25.6587 85.7908H26.6815C26.7212 86.1857 26.9002 86.5124 27.2184 86.771C27.5394 87.0266 27.9229 87.1545 28.369 87.1545C28.7269 87.1545 29.0451 87.0707 29.3235 86.9031C29.6048 86.7354 29.8249 86.5053 29.984 86.2127C30.146 85.9173 30.2269 85.5835 30.2269 85.2113C30.2269 84.8306 30.1431 84.4911 29.9755 84.1928C29.8107 83.8917 29.5835 83.6545 29.2937 83.4812C29.0039 83.3079 28.6729 83.2198 28.3008 83.217C28.0337 83.2141 27.7596 83.2553 27.4783 83.3406C27.1971 83.4229 26.9656 83.5295 26.7837 83.6602L25.7951 83.5408L26.3235 79.2454H30.8576V80.1829H27.2099L26.9031 82.7567H26.9542C27.1332 82.6147 27.3576 82.4968 27.6275 82.4031C27.8974 82.3093 28.1786 82.2624 28.4712 82.2624C29.0053 82.2624 29.4812 82.3903 29.8988 82.646C30.3192 82.8988 30.6488 83.2454 30.8874 83.6857C31.1289 84.1261 31.2496 84.6289 31.2496 85.1942C31.2496 85.7511 31.1246 86.2482 30.8746 86.6857C30.6275 87.1204 30.2866 87.4641 29.8519 87.717C29.4173 87.967 28.9229 88.092 28.369 88.092Z" fill="black" fill-opacity="0.7"/>
<path d="M21.6307 155.983C21.1307 155.983 20.6804 155.883 20.2798 155.684C19.8793 155.485 19.5582 155.213 19.3168 154.866C19.0753 154.52 18.9432 154.125 18.9205 153.681H19.9432C19.983 154.076 20.1619 154.403 20.4801 154.662C20.8011 154.917 21.1847 155.045 21.6307 155.045C21.9886 155.045 22.3068 154.961 22.5852 154.794C22.8665 154.626 23.0866 154.396 23.2457 154.103C23.4077 153.808 23.4886 153.474 23.4886 153.102C23.4886 152.721 23.4048 152.382 23.2372 152.083C23.0724 151.782 22.8452 151.545 22.5554 151.372C22.2656 151.199 21.9347 151.11 21.5625 151.108C21.2955 151.105 21.0213 151.146 20.7401 151.231C20.4588 151.314 20.2273 151.42 20.0455 151.551L19.0568 151.431L19.5852 147.136H24.1193V148.074H20.4716L20.1648 150.647H20.2159C20.3949 150.505 20.6193 150.387 20.8892 150.294C21.1591 150.2 21.4403 150.153 21.733 150.153C22.267 150.153 22.7429 150.281 23.1605 150.537C23.581 150.789 23.9105 151.136 24.1491 151.576C24.3906 152.017 24.5114 152.52 24.5114 153.085C24.5114 153.642 24.3864 154.139 24.1364 154.576C23.8892 155.011 23.5483 155.355 23.1136 155.608C22.679 155.858 22.1847 155.983 21.6307 155.983ZM29.0508 155.983C28.4087 155.983 27.8619 155.808 27.4102 155.458C26.9585 155.106 26.6133 154.596 26.3746 153.929C26.136 153.258 26.0167 152.449 26.0167 151.5C26.0167 150.556 26.136 149.751 26.3746 149.083C26.6161 148.413 26.9627 147.902 27.4144 147.549C27.869 147.194 28.4144 147.017 29.0508 147.017C29.6871 147.017 30.2312 147.194 30.6829 147.549C31.1374 147.902 31.484 148.413 31.7227 149.083C31.9641 149.751 32.0849 150.556 32.0849 151.5C32.0849 152.449 31.9656 153.258 31.7269 153.929C31.4883 154.596 31.1431 155.106 30.6914 155.458C30.2397 155.808 29.6928 155.983 29.0508 155.983ZM29.0508 155.045C29.6871 155.045 30.1815 154.738 30.5337 154.125C30.886 153.511 31.0621 152.636 31.0621 151.5C31.0621 150.744 30.9812 150.1 30.8192 149.569C30.6602 149.038 30.43 148.633 30.1289 148.355C29.8306 148.076 29.4712 147.937 29.0508 147.937C28.4201 147.937 27.9272 148.248 27.5721 148.87C27.217 149.49 27.0394 150.366 27.0394 151.5C27.0394 152.255 27.119 152.897 27.2781 153.426C27.4371 153.954 27.6658 154.356 27.9641 154.632C28.2653 154.907 28.6275 155.045 29.0508 155.045Z" fill="black" fill-opacity="0.7"/>
<path d="M18.9034 223.758V222.991L21.7841 219.837C22.1222 219.468 22.4006 219.147 22.6193 218.874C22.8381 218.599 23 218.34 23.1051 218.099C23.2131 217.854 23.267 217.599 23.267 217.332C23.267 217.025 23.1932 216.759 23.0455 216.535C22.9006 216.31 22.7017 216.137 22.4489 216.015C22.196 215.893 21.9119 215.832 21.5966 215.832C21.2614 215.832 20.9688 215.901 20.7188 216.04C20.4716 216.177 20.2798 216.369 20.1435 216.616C20.0099 216.863 19.9432 217.153 19.9432 217.485H18.9375C18.9375 216.974 19.0554 216.525 19.2912 216.138C19.527 215.752 19.848 215.451 20.2543 215.235C20.6634 215.019 21.1222 214.911 21.6307 214.911C22.142 214.911 22.5952 215.019 22.9901 215.235C23.3849 215.451 23.6946 215.742 23.919 216.109C24.1435 216.475 24.2557 216.883 24.2557 217.332C24.2557 217.653 24.1974 217.967 24.081 218.273C23.9673 218.577 23.7685 218.917 23.4844 219.292C23.2031 219.664 22.8125 220.119 22.3125 220.656L20.3523 222.752V222.82H24.4091V223.758H18.9034ZM28.8963 223.877C28.3963 223.877 27.946 223.778 27.5455 223.579C27.1449 223.38 26.8239 223.107 26.5824 222.761C26.3409 222.414 26.2088 222.019 26.1861 221.576H27.2088C27.2486 221.971 27.4276 222.298 27.7457 222.556C28.0668 222.812 28.4503 222.94 28.8963 222.94C29.2543 222.94 29.5724 222.856 29.8509 222.688C30.1321 222.521 30.3523 222.29 30.5114 221.998C30.6733 221.702 30.7543 221.369 30.7543 220.996C30.7543 220.616 30.6705 220.276 30.5028 219.978C30.3381 219.677 30.1108 219.44 29.821 219.266C29.5313 219.093 29.2003 219.005 28.8281 219.002C28.5611 218.999 28.2869 219.04 28.0057 219.126C27.7244 219.208 27.4929 219.315 27.3111 219.445L26.3224 219.326L26.8509 215.031H31.3849V215.968H27.7372L27.4304 218.542H27.4815C27.6605 218.4 27.8849 218.282 28.1548 218.188C28.4247 218.094 28.706 218.048 28.9986 218.048C29.5327 218.048 30.0085 218.175 30.4261 218.431C30.8466 218.684 31.1761 219.031 31.4148 219.471C31.6562 219.911 31.777 220.414 31.777 220.979C31.777 221.536 31.652 222.033 31.402 222.471C31.1548 222.906 30.8139 223.249 30.3793 223.502C29.9446 223.752 29.4503 223.877 28.8963 223.877Z" fill="black" fill-opacity="0.7"/>
<path d="M28.75 291.772C28.108 291.772 27.5611 291.597 27.1094 291.248C26.6577 290.895 26.3125 290.385 26.0739 289.718C25.8352 289.047 25.7159 288.238 25.7159 287.289C25.7159 286.346 25.8352 285.54 26.0739 284.873C26.3153 284.202 26.6619 283.691 27.1136 283.338C27.5682 282.983 28.1136 282.806 28.75 282.806C29.3864 282.806 29.9304 282.983 30.3821 283.338C30.8366 283.691 31.1832 284.202 31.4219 284.873C31.6634 285.54 31.7841 286.346 31.7841 287.289C31.7841 288.238 31.6648 289.047 31.4261 289.718C31.1875 290.385 30.8423 290.895 30.3906 291.248C29.9389 291.597 29.392 291.772 28.75 291.772ZM28.75 290.834C29.3864 290.834 29.8807 290.527 30.233 289.914C30.5852 289.3 30.7614 288.425 30.7614 287.289C30.7614 286.533 30.6804 285.89 30.5185 285.358C30.3594 284.827 30.1293 284.422 29.8281 284.144C29.5298 283.865 29.1705 283.726 28.75 283.726C28.1193 283.726 27.6264 284.037 27.2713 284.659C26.9162 285.279 26.7386 286.155 26.7386 287.289C26.7386 288.044 26.8182 288.686 26.9773 289.215C27.1364 289.743 27.3651 290.145 27.6634 290.421C27.9645 290.696 28.3267 290.834 28.75 290.834Z" fill="black" fill-opacity="0.7"/>
<g clip-path="url(#clip0_836_5292)">
<line x1="38" y1="13.5781" x2="484" y2="13.5781" stroke="black" stroke-opacity="0.15" stroke-dasharray="2"/>
<line x1="38" y1="82.3281" x2="484" y2="82.3281" stroke="black" stroke-opacity="0.15" stroke-dasharray="2"/>
<line x1="38" y1="151.078" x2="484" y2="151.078" stroke="black" stroke-opacity="0.15" stroke-dasharray="2"/>
<line x1="38" y1="219.828" x2="484" y2="219.828" stroke="black" stroke-opacity="0.15" stroke-dasharray="2"/>
<line x1="38" y1="288.578" x2="484" y2="288.578" stroke="black" stroke-opacity="0.3"/>
<line x1="37.5" y1="289.078" x2="37.5" y2="14.0781" stroke="black" stroke-opacity="0.3"/>
<line x1="82.0996" y1="289.078" x2="82.0996" y2="14.0781" stroke="black" stroke-opacity="0.15" stroke-dasharray="2"/>
<line x1="126.699" y1="289.078" x2="126.699" y2="14.0781" stroke="black" stroke-opacity="0.15" stroke-dasharray="2"/>
<line x1="171.301" y1="289.078" x2="171.301" y2="14.0781" stroke="black" stroke-opacity="0.15" stroke-dasharray="2"/>
<line x1="215.9" y1="289.078" x2="215.9" y2="14.0781" stroke="black" stroke-opacity="0.15" stroke-dasharray="2"/>
<line x1="260.5" y1="289.078" x2="260.5" y2="14.0781" stroke="black" stroke-opacity="0.15" stroke-dasharray="2"/>
<line x1="305.1" y1="289.078" x2="305.1" y2="14.0781" stroke="black" stroke-opacity="0.15" stroke-dasharray="2"/>
<line x1="349.699" y1="289.078" x2="349.699" y2="14.0781" stroke="black" stroke-opacity="0.15" stroke-dasharray="2"/>
<line x1="394.301" y1="289.078" x2="394.301" y2="14.0781" stroke="black" stroke-opacity="0.15" stroke-dasharray="2"/>
<line x1="438.9" y1="289.078" x2="438.9" y2="14.0781" stroke="black" stroke-opacity="0.15" stroke-dasharray="2"/>
<line x1="483.5" y1="289.078" x2="483.5" y2="14.0781" stroke="black" stroke-opacity="0.15" stroke-dasharray="2"/>
<g clip-path="url(#clip1_836_5292)">
<path d="M239.279 70.3124C239.279 77.3211 237.964 83.5933 235.903 88.0571C233.783 92.6481 231.156 94.7966 228.779 94.7966C226.403 94.7966 223.776 92.6481 221.656 88.0571C219.594 83.5933 218.279 77.3211 218.279 70.3124C218.279 63.3037 219.594 57.0315 221.656 52.5676C223.776 47.9767 226.403 45.8281 228.779 45.8281C231.156 45.8281 233.783 47.9767 235.903 52.5676C237.964 57.0315 239.279 63.3037 239.279 70.3124Z" fill="#8979FF" fill-opacity="0.7" stroke="#8979FF" stroke-width="3"/>
<path d="M221.439 92.3124C221.439 99.3211 220.124 105.593 218.063 110.057C215.943 114.648 213.316 116.797 210.939 116.797C208.563 116.797 205.936 114.648 203.816 110.057C201.754 105.593 200.439 99.3211 200.439 92.3124C200.439 85.3037 201.754 79.0315 203.816 74.5676C205.936 69.9767 208.563 67.8281 210.939 67.8281C213.316 67.8281 215.943 69.9767 218.063 74.5676C220.124 79.0315 221.439 85.3037 221.439 92.3124Z" fill="#FF928A" fill-opacity="0.7" stroke="#FF928A" stroke-width="3"/>
<path d="M404.301 282.062C404.301 289.071 402.986 295.343 400.924 299.807C398.804 304.398 396.177 306.547 393.801 306.547C391.424 306.547 388.797 304.398 386.677 299.807C384.616 295.343 383.301 289.071 383.301 282.062C383.301 275.054 384.616 268.781 386.677 264.318C388.797 259.727 391.424 257.578 393.801 257.578C396.177 257.578 398.804 259.727 400.924 264.318C402.986 268.781 404.301 275.054 404.301 282.062Z" fill="#3CC3DF" fill-opacity="0.7" stroke="#3CC3DF" stroke-width="3"/>
<path d="M123.32 122.562C123.32 129.571 122.005 135.843 119.944 140.307C117.824 144.898 115.197 147.047 112.82 147.047C110.444 147.047 107.817 144.898 105.697 140.307C103.635 135.843 102.32 129.571 102.32 122.562C102.32 115.554 103.635 109.281 105.697 104.818C107.817 100.227 110.444 98.0781 112.82 98.0781C115.197 98.0781 117.824 100.227 119.944 104.818C122.005 109.281 123.32 115.554 123.32 122.562Z" fill="#FFAE4C" fill-opacity="0.7" stroke="#FFAE4C" stroke-width="3"/>
<path d="M150.08 42.8124C150.08 49.8211 148.765 56.0933 146.704 60.5571C144.583 65.1481 141.957 67.2966 139.58 67.2966C137.204 67.2966 134.577 65.1481 132.457 60.5571C130.395 56.0933 129.08 49.8211 129.08 42.8124C129.08 35.8037 130.395 29.5315 132.457 25.0676C134.577 20.4767 137.204 18.3281 139.58 18.3281C141.957 18.3281 144.583 20.4767 146.704 25.0676C148.765 29.5315 150.08 35.8037 150.08 42.8124Z" fill="#8979FF" fill-opacity="0.7" stroke="#8979FF" stroke-width="3"/>
<path d="M114.4 155.562C114.4 162.571 113.085 168.843 111.024 173.307C108.904 177.898 106.277 180.047 103.9 180.047C101.524 180.047 98.8971 177.898 96.7769 173.307C94.7154 168.843 93.4004 162.571 93.4004 155.562C93.4004 148.554 94.7154 142.281 96.7769 137.818C98.8971 133.227 101.524 131.078 103.9 131.078C106.277 131.078 108.904 133.227 111.024 137.818C113.085 142.281 114.4 148.554 114.4 155.562Z" fill="#FF928A" fill-opacity="0.7" stroke="#FF928A" stroke-width="3"/>
</g>
</g>
<path d="M37 304.772C36.358 304.772 35.8111 304.597 35.3594 304.248C34.9077 303.895 34.5625 303.385 34.3239 302.718C34.0852 302.047 33.9659 301.238 33.9659 300.289C33.9659 299.346 34.0852 298.54 34.3239 297.873C34.5653 297.202 34.9119 296.691 35.3636 296.338C35.8182 295.983 36.3636 295.806 37 295.806C37.6364 295.806 38.1804 295.983 38.6321 296.338C39.0866 296.691 39.4332 297.202 39.6719 297.873C39.9134 298.54 40.0341 299.346 40.0341 300.289C40.0341 301.238 39.9148 302.047 39.6761 302.718C39.4375 303.385 39.0923 303.895 38.6406 304.248C38.1889 304.597 37.642 304.772 37 304.772ZM37 303.834C37.6364 303.834 38.1307 303.527 38.483 302.914C38.8352 302.3 39.0114 301.425 39.0114 300.289C39.0114 299.533 38.9304 298.89 38.7685 298.358C38.6094 297.827 38.3793 297.422 38.0781 297.144C37.7798 296.865 37.4205 296.726 37 296.726C36.3693 296.726 35.8764 297.037 35.5213 297.659C35.1662 298.279 34.9886 299.155 34.9886 300.289C34.9886 301.044 35.0682 301.686 35.2273 302.215C35.3864 302.743 35.6151 303.145 35.9134 303.421C36.2145 303.696 36.5767 303.834 37 303.834Z" fill="black" fill-opacity="0.7"/>
<path d="M79.1317 295.925V304.652H78.0749V297.033H78.0238L75.8931 298.448V297.374L78.0749 295.925H79.1317ZM84.4883 304.772C83.8462 304.772 83.2994 304.597 82.8477 304.248C82.396 303.895 82.0508 303.385 81.8121 302.718C81.5735 302.047 81.4542 301.238 81.4542 300.289C81.4542 299.346 81.5735 298.54 81.8121 297.873C82.0536 297.202 82.4002 296.691 82.8519 296.338C83.3065 295.983 83.8519 295.806 84.4883 295.806C85.1246 295.806 85.6687 295.983 86.1204 296.338C86.5749 296.691 86.9215 297.202 87.1602 297.873C87.4016 298.54 87.5224 299.346 87.5224 300.289C87.5224 301.238 87.4031 302.047 87.1644 302.718C86.9258 303.385 86.5806 303.895 86.1289 304.248C85.6772 304.597 85.1303 304.772 84.4883 304.772ZM84.4883 303.834C85.1246 303.834 85.619 303.527 85.9712 302.914C86.3235 302.3 86.4996 301.425 86.4996 300.289C86.4996 299.533 86.4187 298.89 86.2567 298.358C86.0977 297.827 85.8675 297.422 85.5664 297.144C85.2681 296.865 84.9087 296.726 84.4883 296.726C83.8576 296.726 83.3647 297.037 83.0096 297.659C82.6545 298.279 82.4769 299.155 82.4769 300.289C82.4769 301.044 82.5565 301.686 82.7156 302.215C82.8746 302.743 83.1033 303.145 83.4016 303.421C83.7028 303.696 84.065 303.834 84.4883 303.834Z" fill="black" fill-opacity="0.7"/>
<path d="M119.921 304.652V303.885L122.802 300.732C123.14 300.363 123.418 300.042 123.637 299.769C123.856 299.493 124.018 299.235 124.123 298.993C124.231 298.749 124.285 298.493 124.285 298.226C124.285 297.919 124.211 297.654 124.063 297.429C123.918 297.205 123.719 297.032 123.466 296.909C123.214 296.787 122.93 296.726 122.614 296.726C122.279 296.726 121.986 296.796 121.736 296.935C121.489 297.071 121.297 297.263 121.161 297.51C121.028 297.757 120.961 298.047 120.961 298.38H119.955C119.955 297.868 120.073 297.419 120.309 297.033C120.545 296.647 120.866 296.346 121.272 296.13C121.681 295.914 122.14 295.806 122.648 295.806C123.16 295.806 123.613 295.914 124.008 296.13C124.403 296.346 124.712 296.637 124.937 297.003C125.161 297.37 125.273 297.777 125.273 298.226C125.273 298.547 125.215 298.861 125.099 299.168C124.985 299.472 124.786 299.811 124.502 300.186C124.221 300.559 123.83 301.013 123.33 301.55L121.37 303.647V303.715H125.427V304.652H119.921ZM130.033 304.772C129.391 304.772 128.844 304.597 128.393 304.248C127.941 303.895 127.596 303.385 127.357 302.718C127.118 302.047 126.999 301.238 126.999 300.289C126.999 299.346 127.118 298.54 127.357 297.873C127.599 297.202 127.945 296.691 128.397 296.338C128.851 295.983 129.397 295.806 130.033 295.806C130.67 295.806 131.214 295.983 131.665 296.338C132.12 296.691 132.466 297.202 132.705 297.873C132.947 298.54 133.067 299.346 133.067 300.289C133.067 301.238 132.948 302.047 132.709 302.718C132.471 303.385 132.126 303.895 131.674 304.248C131.222 304.597 130.675 304.772 130.033 304.772ZM130.033 303.834C130.67 303.834 131.164 303.527 131.516 302.914C131.868 302.3 132.045 301.425 132.045 300.289C132.045 299.533 131.964 298.89 131.802 298.358C131.643 297.827 131.412 297.422 131.111 297.144C130.813 296.865 130.454 296.726 130.033 296.726C129.403 296.726 128.91 297.037 128.555 297.659C128.199 298.279 128.022 299.155 128.022 300.289C128.022 301.044 128.101 301.686 128.26 302.215C128.42 302.743 128.648 303.145 128.947 303.421C129.248 303.696 129.61 303.834 130.033 303.834Z" fill="black" fill-opacity="0.7"/>
<path d="M167.382 304.772C166.819 304.772 166.318 304.675 165.877 304.482C165.44 304.289 165.092 304.02 164.833 303.676C164.578 303.33 164.438 302.928 164.416 302.471H165.49C165.512 302.752 165.609 302.995 165.779 303.199C165.95 303.401 166.173 303.557 166.448 303.668C166.724 303.779 167.029 303.834 167.365 303.834C167.74 303.834 168.072 303.769 168.362 303.638C168.651 303.507 168.879 303.326 169.044 303.093C169.208 302.86 169.291 302.59 169.291 302.283C169.291 301.962 169.211 301.679 169.052 301.435C168.893 301.188 168.66 300.995 168.353 300.855C168.046 300.716 167.671 300.647 167.228 300.647H166.529V299.709H167.228C167.575 299.709 167.879 299.647 168.14 299.522C168.404 299.397 168.61 299.221 168.758 298.993C168.909 298.766 168.984 298.499 168.984 298.192C168.984 297.897 168.919 297.64 168.788 297.421C168.657 297.202 168.472 297.032 168.234 296.909C167.998 296.787 167.72 296.726 167.399 296.726C167.097 296.726 166.813 296.782 166.546 296.892C166.282 297 166.066 297.158 165.899 297.365C165.731 297.57 165.64 297.817 165.626 298.107H164.603C164.62 297.65 164.758 297.249 165.017 296.905C165.275 296.559 165.613 296.289 166.031 296.096C166.451 295.902 166.913 295.806 167.416 295.806C167.955 295.806 168.419 295.915 168.805 296.134C169.191 296.35 169.488 296.635 169.695 296.99C169.903 297.346 170.007 297.729 170.007 298.141C170.007 298.632 169.877 299.051 169.619 299.398C169.363 299.745 169.015 299.985 168.575 300.118V300.186C169.126 300.277 169.556 300.512 169.866 300.89C170.176 301.265 170.33 301.729 170.33 302.283C170.33 302.757 170.201 303.184 169.943 303.561C169.687 303.936 169.338 304.232 168.894 304.448C168.451 304.664 167.947 304.772 167.382 304.772ZM174.92 304.772C174.278 304.772 173.731 304.597 173.279 304.248C172.828 303.895 172.482 303.385 172.244 302.718C172.005 302.047 171.886 301.238 171.886 300.289C171.886 299.346 172.005 298.54 172.244 297.873C172.485 297.202 172.832 296.691 173.284 296.338C173.738 295.983 174.284 295.806 174.92 295.806C175.556 295.806 176.1 295.983 176.552 296.338C177.007 296.691 177.353 297.202 177.592 297.873C177.833 298.54 177.954 299.346 177.954 300.289C177.954 301.238 177.835 302.047 177.596 302.718C177.357 303.385 177.012 303.895 176.561 304.248C176.109 304.597 175.562 304.772 174.92 304.772ZM174.92 303.834C175.556 303.834 176.051 303.527 176.403 302.914C176.755 302.3 176.931 301.425 176.931 300.289C176.931 299.533 176.85 298.89 176.688 298.358C176.529 297.827 176.299 297.422 175.998 297.144C175.7 296.865 175.34 296.726 174.92 296.726C174.289 296.726 173.796 297.037 173.441 297.659C173.086 298.279 172.909 299.155 172.909 300.289C172.909 301.044 172.988 301.686 173.147 302.215C173.306 302.743 173.535 303.145 173.833 303.421C174.134 303.696 174.497 303.834 174.92 303.834Z" fill="black" fill-opacity="0.7"/>
<path d="M208.9 302.863V301.993L212.735 295.925H213.366V297.272H212.94L210.042 301.857V301.925H215.207V302.863H208.9ZM213.008 304.652V302.598V302.194V295.925H214.014V304.652H213.008ZM219.65 304.772C219.008 304.772 218.461 304.597 218.01 304.248C217.558 303.895 217.213 303.385 216.974 302.718C216.736 302.047 216.616 301.238 216.616 300.289C216.616 299.346 216.736 298.54 216.974 297.873C217.216 297.202 217.562 296.691 218.014 296.338C218.469 295.983 219.014 295.806 219.65 295.806C220.287 295.806 220.831 295.983 221.282 296.338C221.737 296.691 222.084 297.202 222.322 297.873C222.564 298.54 222.684 299.346 222.684 300.289C222.684 301.238 222.565 302.047 222.327 302.718C222.088 303.385 221.743 303.895 221.291 304.248C220.839 304.597 220.292 304.772 219.65 304.772ZM219.65 303.834C220.287 303.834 220.781 303.527 221.133 302.914C221.486 302.3 221.662 301.425 221.662 300.289C221.662 299.533 221.581 298.89 221.419 298.358C221.26 297.827 221.03 297.422 220.729 297.144C220.43 296.865 220.071 296.726 219.65 296.726C219.02 296.726 218.527 297.037 218.172 297.659C217.817 298.279 217.639 299.155 217.639 300.289C217.639 301.044 217.719 301.686 217.878 302.215C218.037 302.743 218.265 303.145 218.564 303.421C218.865 303.696 219.227 303.834 219.65 303.834Z" fill="black" fill-opacity="0.7"/>
<path d="M256.73 304.772C256.23 304.772 255.78 304.672 255.379 304.473C254.979 304.275 254.658 304.002 254.416 303.655C254.175 303.309 254.043 302.914 254.02 302.471H255.043C255.083 302.865 255.262 303.192 255.58 303.451C255.901 303.706 256.284 303.834 256.73 303.834C257.088 303.834 257.406 303.75 257.685 303.583C257.966 303.415 258.186 303.185 258.345 302.892C258.507 302.597 258.588 302.263 258.588 301.891C258.588 301.51 258.504 301.171 258.337 300.873C258.172 300.571 257.945 300.334 257.655 300.161C257.365 299.988 257.034 299.9 256.662 299.897C256.395 299.894 256.121 299.935 255.84 300.02C255.558 300.103 255.327 300.209 255.145 300.34L254.156 300.221L254.685 295.925H259.219V296.863H255.571L255.264 299.436H255.316C255.494 299.294 255.719 299.176 255.989 299.083C256.259 298.989 256.54 298.942 256.833 298.942C257.367 298.942 257.843 299.07 258.26 299.326C258.681 299.578 259.01 299.925 259.249 300.365C259.49 300.806 259.611 301.309 259.611 301.874C259.611 302.431 259.486 302.928 259.236 303.365C258.989 303.8 258.648 304.144 258.213 304.397C257.779 304.647 257.284 304.772 256.73 304.772ZM264.15 304.772C263.508 304.772 262.961 304.597 262.51 304.248C262.058 303.895 261.713 303.385 261.474 302.718C261.236 302.047 261.116 301.238 261.116 300.289C261.116 299.346 261.236 298.54 261.474 297.873C261.716 297.202 262.062 296.691 262.514 296.338C262.969 295.983 263.514 295.806 264.15 295.806C264.787 295.806 265.331 295.983 265.782 296.338C266.237 296.691 266.584 297.202 266.822 297.873C267.064 298.54 267.184 299.346 267.184 300.289C267.184 301.238 267.065 302.047 266.827 302.718C266.588 303.385 266.243 303.895 265.791 304.248C265.339 304.597 264.792 304.772 264.15 304.772ZM264.15 303.834C264.787 303.834 265.281 303.527 265.633 302.914C265.986 302.3 266.162 301.425 266.162 300.289C266.162 299.533 266.081 298.89 265.919 298.358C265.76 297.827 265.53 297.422 265.229 297.144C264.93 296.865 264.571 296.726 264.15 296.726C263.52 296.726 263.027 297.037 262.672 297.659C262.317 298.279 262.139 299.155 262.139 300.289C262.139 301.044 262.219 301.686 262.378 302.215C262.537 302.743 262.765 303.145 263.064 303.421C263.365 303.696 263.727 303.834 264.15 303.834Z" fill="black" fill-opacity="0.7"/>
<path d="M301.506 304.772C301.148 304.766 300.79 304.698 300.432 304.567C300.074 304.436 299.748 304.216 299.452 303.907C299.157 303.594 298.92 303.172 298.741 302.641C298.562 302.107 298.472 301.436 298.472 300.63C298.472 299.857 298.545 299.172 298.689 298.576C298.834 297.976 299.045 297.472 299.32 297.063C299.596 296.651 299.928 296.338 300.317 296.125C300.709 295.912 301.151 295.806 301.643 295.806C302.131 295.806 302.566 295.904 302.947 296.1C303.33 296.293 303.643 296.563 303.884 296.909C304.126 297.256 304.282 297.655 304.353 298.107H303.313C303.216 297.715 303.029 297.39 302.751 297.131C302.472 296.873 302.103 296.743 301.643 296.743C300.966 296.743 300.434 297.037 300.045 297.625C299.658 298.213 299.464 299.039 299.461 300.101H299.529C299.688 299.86 299.877 299.654 300.096 299.483C300.317 299.31 300.562 299.176 300.829 299.083C301.096 298.989 301.378 298.942 301.677 298.942C302.177 298.942 302.634 299.067 303.049 299.317C303.464 299.564 303.796 299.907 304.046 300.344C304.296 300.779 304.421 301.277 304.421 301.84C304.421 302.38 304.3 302.874 304.059 303.323C303.817 303.769 303.478 304.124 303.04 304.388C302.606 304.65 302.094 304.777 301.506 304.772ZM301.506 303.834C301.864 303.834 302.185 303.745 302.469 303.566C302.756 303.387 302.982 303.147 303.147 302.846C303.314 302.544 303.398 302.209 303.398 301.84C303.398 301.479 303.317 301.151 303.155 300.855C302.996 300.557 302.776 300.32 302.495 300.144C302.216 299.968 301.898 299.88 301.54 299.88C301.27 299.88 301.019 299.934 300.786 300.042C300.553 300.147 300.349 300.292 300.172 300.476C299.999 300.661 299.863 300.873 299.763 301.111C299.664 301.347 299.614 301.596 299.614 301.857C299.614 302.203 299.695 302.527 299.857 302.828C300.022 303.13 300.246 303.373 300.53 303.557C300.817 303.742 301.143 303.834 301.506 303.834ZM308.943 304.772C308.301 304.772 307.754 304.597 307.303 304.248C306.851 303.895 306.506 303.385 306.267 302.718C306.029 302.047 305.909 301.238 305.909 300.289C305.909 299.346 306.029 298.54 306.267 297.873C306.509 297.202 306.855 296.691 307.307 296.338C307.762 295.983 308.307 295.806 308.943 295.806C309.58 295.806 310.124 295.983 310.575 296.338C311.03 296.691 311.377 297.202 311.615 297.873C311.857 298.54 311.977 299.346 311.977 300.289C311.977 301.238 311.858 302.047 311.619 302.718C311.381 303.385 311.036 303.895 310.584 304.248C310.132 304.597 309.585 304.772 308.943 304.772ZM308.943 303.834C309.58 303.834 310.074 303.527 310.426 302.914C310.779 302.3 310.955 301.425 310.955 300.289C310.955 299.533 310.874 298.89 310.712 298.358C310.553 297.827 310.323 297.422 310.021 297.144C309.723 296.865 309.364 296.726 308.943 296.726C308.313 296.726 307.82 297.037 307.465 297.659C307.11 298.279 306.932 299.155 306.932 300.289C306.932 301.044 307.012 301.686 307.171 302.215C307.33 302.743 307.558 303.145 307.857 303.421C308.158 303.696 308.52 303.834 308.943 303.834Z" fill="black" fill-opacity="0.7"/>
<path d="M343.993 304.652L347.896 296.931V296.863H343.396V295.925H348.987V296.914L345.1 304.652H343.993ZM353.234 304.772C352.592 304.772 352.045 304.597 351.594 304.248C351.142 303.895 350.797 303.385 350.558 302.718C350.32 302.047 350.2 301.238 350.2 300.289C350.2 299.346 350.32 298.54 350.558 297.873C350.8 297.202 351.146 296.691 351.598 296.338C352.053 295.983 352.598 295.806 353.234 295.806C353.871 295.806 354.415 295.983 354.866 296.338C355.321 296.691 355.668 297.202 355.906 297.873C356.148 298.54 356.268 299.346 356.268 300.289C356.268 301.238 356.149 302.047 355.911 302.718C355.672 303.385 355.327 303.895 354.875 304.248C354.423 304.597 353.876 304.772 353.234 304.772ZM353.234 303.834C353.871 303.834 354.365 303.527 354.717 302.914C355.07 302.3 355.246 301.425 355.246 300.289C355.246 299.533 355.165 298.89 355.003 298.358C354.844 297.827 354.614 297.422 354.312 297.144C354.014 296.865 353.655 296.726 353.234 296.726C352.604 296.726 352.111 297.037 351.756 297.659C351.401 298.279 351.223 299.155 351.223 300.289C351.223 301.044 351.303 301.686 351.462 302.215C351.621 302.743 351.849 303.145 352.148 303.421C352.449 303.696 352.811 303.834 353.234 303.834Z" fill="black" fill-opacity="0.7"/>
<path d="M390.851 304.772C390.266 304.772 389.749 304.668 389.3 304.461C388.854 304.25 388.506 303.962 388.256 303.596C388.006 303.226 387.882 302.806 387.885 302.334C387.882 301.965 387.955 301.624 388.103 301.311C388.25 300.996 388.452 300.733 388.708 300.523C388.966 300.31 389.255 300.175 389.573 300.118V300.067C389.155 299.959 388.823 299.725 388.576 299.364C388.328 299 388.206 298.587 388.209 298.124C388.206 297.681 388.319 297.284 388.546 296.935C388.773 296.586 389.086 296.31 389.483 296.108C389.884 295.907 390.34 295.806 390.851 295.806C391.357 295.806 391.809 295.907 392.206 296.108C392.604 296.31 392.917 296.586 393.144 296.935C393.374 297.284 393.49 297.681 393.493 298.124C393.49 298.587 393.364 299 393.114 299.364C392.867 299.725 392.539 299.959 392.13 300.067V300.118C392.445 300.175 392.729 300.31 392.982 300.523C393.235 300.733 393.436 300.996 393.587 301.311C393.738 301.624 393.814 301.965 393.817 302.334C393.814 302.806 393.686 303.226 393.434 303.596C393.184 303.962 392.836 304.25 392.39 304.461C391.946 304.668 391.434 304.772 390.851 304.772ZM390.851 303.834C391.246 303.834 391.587 303.77 391.874 303.642C392.161 303.515 392.382 303.334 392.539 303.101C392.695 302.868 392.775 302.596 392.777 302.283C392.775 301.953 392.689 301.662 392.522 301.409C392.354 301.157 392.125 300.958 391.836 300.813C391.549 300.668 391.221 300.596 390.851 300.596C390.479 300.596 390.147 300.668 389.854 300.813C389.564 300.958 389.336 301.157 389.168 301.409C389.003 301.662 388.922 301.953 388.925 302.283C388.922 302.596 388.998 302.868 389.151 303.101C389.307 303.334 389.53 303.515 389.82 303.642C390.11 303.77 390.453 303.834 390.851 303.834ZM390.851 299.692C391.164 299.692 391.441 299.63 391.682 299.505C391.926 299.38 392.118 299.205 392.257 298.98C392.397 298.756 392.468 298.493 392.471 298.192C392.468 297.897 392.398 297.64 392.262 297.421C392.125 297.199 391.936 297.029 391.695 296.909C391.453 296.787 391.172 296.726 390.851 296.726C390.525 296.726 390.239 296.787 389.995 296.909C389.75 297.029 389.561 297.199 389.428 297.421C389.294 297.64 389.229 297.897 389.232 298.192C389.229 298.493 389.296 298.756 389.432 298.98C389.571 299.205 389.763 299.38 390.007 299.505C390.252 299.63 390.533 299.692 390.851 299.692ZM398.297 304.772C397.655 304.772 397.108 304.597 396.656 304.248C396.205 303.895 395.859 303.385 395.621 302.718C395.382 302.047 395.263 301.238 395.263 300.289C395.263 299.346 395.382 298.54 395.621 297.873C395.862 297.202 396.209 296.691 396.661 296.338C397.115 295.983 397.661 295.806 398.297 295.806C398.933 295.806 399.477 295.983 399.929 296.338C400.384 296.691 400.73 297.202 400.969 297.873C401.21 298.54 401.331 299.346 401.331 300.289C401.331 301.238 401.212 302.047 400.973 302.718C400.734 303.385 400.389 303.895 399.938 304.248C399.486 304.597 398.939 304.772 398.297 304.772ZM398.297 303.834C398.933 303.834 399.428 303.527 399.78 302.914C400.132 302.3 400.308 301.425 400.308 300.289C400.308 299.533 400.227 298.89 400.065 298.358C399.906 297.827 399.676 297.422 399.375 297.144C399.077 296.865 398.717 296.726 398.297 296.726C397.666 296.726 397.173 297.037 396.818 297.659C396.463 298.279 396.286 299.155 396.286 300.289C396.286 301.044 396.365 301.686 396.524 302.215C396.683 302.743 396.912 303.145 397.21 303.421C397.511 303.696 397.874 303.834 398.297 303.834Z" fill="black" fill-opacity="0.7"/>
<path d="M435.488 295.806C435.846 295.809 436.204 295.877 436.562 296.01C436.92 296.144 437.247 296.365 437.542 296.675C437.838 296.982 438.075 297.401 438.254 297.932C438.433 298.463 438.523 299.13 438.523 299.931C438.523 300.706 438.449 301.395 438.301 301.998C438.156 302.597 437.946 303.103 437.67 303.515C437.398 303.926 437.065 304.239 436.673 304.452C436.284 304.665 435.844 304.772 435.352 304.772C434.863 304.772 434.427 304.675 434.044 304.482C433.663 304.286 433.351 304.015 433.106 303.668C432.865 303.319 432.71 302.914 432.642 302.453H433.682C433.775 302.854 433.961 303.185 434.24 303.446C434.521 303.705 434.892 303.834 435.352 303.834C436.025 303.834 436.557 303.54 436.946 302.952C437.338 302.364 437.534 301.533 437.534 300.459H437.466C437.307 300.698 437.118 300.904 436.899 301.077C436.68 301.25 436.437 301.384 436.17 301.478C435.903 301.571 435.619 301.618 435.318 301.618C434.818 301.618 434.359 301.495 433.942 301.248C433.527 300.998 433.194 300.655 432.944 300.221C432.697 299.783 432.574 299.283 432.574 298.721C432.574 298.186 432.693 297.698 432.932 297.255C433.173 296.809 433.511 296.453 433.946 296.189C434.383 295.925 434.898 295.797 435.488 295.806ZM435.488 296.743C435.131 296.743 434.808 296.833 434.521 297.012C434.237 297.188 434.011 297.426 433.844 297.728C433.679 298.026 433.596 298.357 433.596 298.721C433.596 299.084 433.676 299.415 433.835 299.713C433.997 300.009 434.217 300.245 434.496 300.421C434.777 300.594 435.096 300.681 435.454 300.681C435.724 300.681 435.976 300.628 436.209 300.523C436.442 300.415 436.645 300.269 436.818 300.084C436.994 299.897 437.132 299.685 437.231 299.449C437.331 299.211 437.381 298.962 437.381 298.703C437.381 298.363 437.298 298.043 437.133 297.745C436.971 297.446 436.747 297.205 436.46 297.02C436.176 296.836 435.852 296.743 435.488 296.743ZM443.045 304.772C442.403 304.772 441.856 304.597 441.404 304.248C440.953 303.895 440.607 303.385 440.369 302.718C440.13 302.047 440.011 301.238 440.011 300.289C440.011 299.346 440.13 298.54 440.369 297.873C440.61 297.202 440.957 296.691 441.409 296.338C441.863 295.983 442.409 295.806 443.045 295.806C443.681 295.806 444.225 295.983 444.677 296.338C445.132 296.691 445.478 297.202 445.717 297.873C445.958 298.54 446.079 299.346 446.079 300.289C446.079 301.238 445.96 302.047 445.721 302.718C445.482 303.385 445.137 303.895 444.686 304.248C444.234 304.597 443.687 304.772 443.045 304.772ZM443.045 303.834C443.681 303.834 444.176 303.527 444.528 302.914C444.88 302.3 445.056 301.425 445.056 300.289C445.056 299.533 444.975 298.89 444.813 298.358C444.654 297.827 444.424 297.422 444.123 297.144C443.825 296.865 443.465 296.726 443.045 296.726C442.414 296.726 441.921 297.037 441.566 297.659C441.211 298.279 441.034 299.155 441.034 300.289C441.034 301.044 441.113 301.686 441.272 302.215C441.431 302.743 441.66 303.145 441.958 303.421C442.259 303.696 442.622 303.834 443.045 303.834Z" fill="black" fill-opacity="0.7"/>
<path d="M477.683 295.925V304.652H476.626V297.033H476.575L474.444 298.448V297.374L476.626 295.925H477.683ZM483.039 304.772C482.397 304.772 481.85 304.597 481.398 304.248C480.947 303.895 480.602 303.385 480.363 302.718C480.124 302.047 480.005 301.238 480.005 300.289C480.005 299.346 480.124 298.54 480.363 297.873C480.604 297.202 480.951 296.691 481.403 296.338C481.857 295.983 482.403 295.806 483.039 295.806C483.675 295.806 484.219 295.983 484.671 296.338C485.126 296.691 485.472 297.202 485.711 297.873C485.952 298.54 486.073 299.346 486.073 300.289C486.073 301.238 485.954 302.047 485.715 302.718C485.477 303.385 485.131 303.895 484.68 304.248C484.228 304.597 483.681 304.772 483.039 304.772ZM483.039 303.834C483.675 303.834 484.17 303.527 484.522 302.914C484.874 302.3 485.05 301.425 485.05 300.289C485.05 299.533 484.969 298.89 484.808 298.358C484.648 297.827 484.418 297.422 484.117 297.144C483.819 296.865 483.46 296.726 483.039 296.726C482.408 296.726 481.915 297.037 481.56 297.659C481.205 298.279 481.028 299.155 481.028 300.289C481.028 301.044 481.107 301.686 481.266 302.215C481.425 302.743 481.654 303.145 481.952 303.421C482.254 303.696 482.616 303.834 483.039 303.834ZM490.539 304.772C489.897 304.772 489.35 304.597 488.898 304.248C488.447 303.895 488.102 303.385 487.863 302.718C487.624 302.047 487.505 301.238 487.505 300.289C487.505 299.346 487.624 298.54 487.863 297.873C488.104 297.202 488.451 296.691 488.903 296.338C489.357 295.983 489.903 295.806 490.539 295.806C491.175 295.806 491.719 295.983 492.171 296.338C492.626 296.691 492.972 297.202 493.211 297.873C493.452 298.54 493.573 299.346 493.573 300.289C493.573 301.238 493.454 302.047 493.215 302.718C492.977 303.385 492.631 303.895 492.18 304.248C491.728 304.597 491.181 304.772 490.539 304.772ZM490.539 303.834C491.175 303.834 491.67 303.527 492.022 302.914C492.374 302.3 492.55 301.425 492.55 300.289C492.55 299.533 492.469 298.89 492.308 298.358C492.148 297.827 491.918 297.422 491.617 297.144C491.319 296.865 490.96 296.726 490.539 296.726C489.908 296.726 489.415 297.037 489.06 297.659C488.705 298.279 488.528 299.155 488.528 300.289C488.528 301.044 488.607 301.686 488.766 302.215C488.925 302.743 489.154 303.145 489.452 303.421C489.754 303.696 490.116 303.834 490.539 303.834Z" fill="black" fill-opacity="0.7"/>
<g clip-path="url(#clip2_836_5292)">
<circle cx="100" cy="327.652" r="3.5" fill="#8979FF" stroke="white"/>
<path d="M112.58 324.363V323.425H119.125V324.363H116.381V332.152H115.324V324.363H112.58ZM122.415 332.289C121.784 332.289 121.24 332.15 120.783 331.871C120.328 331.59 119.977 331.198 119.73 330.695C119.486 330.189 119.364 329.601 119.364 328.931C119.364 328.26 119.486 327.669 119.73 327.158C119.977 326.644 120.321 326.243 120.761 325.956C121.205 325.667 121.722 325.522 122.312 325.522C122.653 325.522 122.99 325.578 123.322 325.692C123.655 325.806 123.957 325.99 124.23 326.246C124.503 326.499 124.72 326.834 124.882 327.252C125.044 327.669 125.125 328.184 125.125 328.794V329.221H120.08V328.351H124.102C124.102 327.982 124.028 327.652 123.881 327.363C123.736 327.073 123.528 326.844 123.259 326.676C122.991 326.509 122.676 326.425 122.312 326.425C121.912 326.425 121.565 326.525 121.273 326.723C120.983 326.919 120.76 327.175 120.604 327.49C120.447 327.806 120.369 328.144 120.369 328.505V329.084C120.369 329.578 120.455 329.998 120.625 330.341C120.798 330.682 121.038 330.942 121.345 331.121C121.652 331.297 122.009 331.385 122.415 331.385C122.679 331.385 122.918 331.348 123.131 331.275C123.347 331.198 123.533 331.084 123.689 330.934C123.845 330.78 123.966 330.59 124.051 330.363L125.023 330.635C124.92 330.965 124.749 331.255 124.507 331.505C124.266 331.752 123.967 331.945 123.612 332.084C123.257 332.221 122.858 332.289 122.415 332.289ZM129.314 332.289C128.7 332.289 128.172 332.144 127.729 331.854C127.286 331.564 126.945 331.165 126.706 330.657C126.467 330.148 126.348 329.567 126.348 328.914C126.348 328.249 126.47 327.662 126.714 327.154C126.962 326.642 127.305 326.243 127.746 325.956C128.189 325.667 128.706 325.522 129.297 325.522C129.757 325.522 130.172 325.607 130.541 325.777C130.911 325.948 131.213 326.186 131.449 326.493C131.685 326.8 131.831 327.158 131.888 327.567H130.882C130.805 327.269 130.635 327.005 130.371 326.775C130.109 326.542 129.757 326.425 129.314 326.425C128.922 326.425 128.578 326.527 128.283 326.732C127.99 326.934 127.761 327.219 127.597 327.588C127.435 327.955 127.354 328.385 127.354 328.88C127.354 329.385 127.433 329.826 127.592 330.201C127.754 330.576 127.982 330.867 128.274 331.074C128.57 331.282 128.916 331.385 129.314 331.385C129.575 331.385 129.812 331.34 130.026 331.249C130.239 331.158 130.419 331.027 130.567 330.857C130.714 330.686 130.82 330.482 130.882 330.243H131.888C131.831 330.63 131.69 330.978 131.466 331.287C131.244 331.594 130.95 331.838 130.584 332.02C130.22 332.199 129.797 332.289 129.314 332.289ZM134.364 328.215V332.152H133.358V323.425H134.364V326.63H134.449C134.602 326.292 134.832 326.023 135.139 325.824C135.449 325.623 135.861 325.522 136.375 325.522C136.821 325.522 137.212 325.611 137.547 325.79C137.882 325.966 138.142 326.238 138.327 326.604C138.514 326.968 138.608 327.431 138.608 327.993V332.152H137.602V328.061C137.602 327.542 137.467 327.14 137.197 326.855C136.93 326.569 136.56 326.425 136.085 326.425C135.756 326.425 135.46 326.495 135.199 326.634C134.94 326.773 134.736 326.976 134.585 327.243C134.438 327.51 134.364 327.834 134.364 328.215ZM141.453 328.215V332.152H140.448V325.607H141.419V326.63H141.505C141.658 326.297 141.891 326.03 142.203 325.828C142.516 325.624 142.919 325.522 143.414 325.522C143.857 325.522 144.245 325.613 144.577 325.794C144.909 325.973 145.168 326.246 145.353 326.613C145.537 326.976 145.63 327.436 145.63 327.993V332.152H144.624V328.061C144.624 327.547 144.49 327.147 144.223 326.86C143.956 326.57 143.59 326.425 143.124 326.425C142.803 326.425 142.516 326.495 142.263 326.634C142.013 326.773 141.816 326.976 141.671 327.243C141.526 327.51 141.453 327.834 141.453 328.215ZM150.126 332.289C149.536 332.289 149.017 332.148 148.571 331.867C148.128 331.586 147.781 331.192 147.531 330.686C147.284 330.181 147.161 329.59 147.161 328.914C147.161 328.232 147.284 327.637 147.531 327.128C147.781 326.62 148.128 326.225 148.571 325.944C149.017 325.662 149.536 325.522 150.126 325.522C150.717 325.522 151.234 325.662 151.678 325.944C152.124 326.225 152.47 326.62 152.717 327.128C152.967 327.637 153.092 328.232 153.092 328.914C153.092 329.59 152.967 330.181 152.717 330.686C152.47 331.192 152.124 331.586 151.678 331.867C151.234 332.148 150.717 332.289 150.126 332.289ZM150.126 331.385C150.575 331.385 150.945 331.27 151.234 331.04C151.524 330.81 151.739 330.507 151.878 330.132C152.017 329.757 152.087 329.351 152.087 328.914C152.087 328.476 152.017 328.069 151.878 327.691C151.739 327.313 151.524 327.007 151.234 326.775C150.945 326.542 150.575 326.425 150.126 326.425C149.678 326.425 149.308 326.542 149.018 326.775C148.729 327.007 148.514 327.313 148.375 327.691C148.236 328.069 148.166 328.476 148.166 328.914C148.166 329.351 148.236 329.757 148.375 330.132C148.514 330.507 148.729 330.81 149.018 331.04C149.308 331.27 149.678 331.385 150.126 331.385ZM155.633 323.425V332.152H154.627V323.425H155.633ZM160.134 332.289C159.543 332.289 159.025 332.148 158.579 331.867C158.136 331.586 157.789 331.192 157.539 330.686C157.292 330.181 157.168 329.59 157.168 328.914C157.168 328.232 157.292 327.637 157.539 327.128C157.789 326.62 158.136 326.225 158.579 325.944C159.025 325.662 159.543 325.522 160.134 325.522C160.725 325.522 161.242 325.662 161.685 325.944C162.131 326.225 162.478 326.62 162.725 327.128C162.975 327.637 163.1 328.232 163.1 328.914C163.1 329.59 162.975 330.181 162.725 330.686C162.478 331.192 162.131 331.586 161.685 331.867C161.242 332.148 160.725 332.289 160.134 332.289ZM160.134 331.385C160.583 331.385 160.952 331.27 161.242 331.04C161.532 330.81 161.746 330.507 161.886 330.132C162.025 329.757 162.094 329.351 162.094 328.914C162.094 328.476 162.025 328.069 161.886 327.691C161.746 327.313 161.532 327.007 161.242 326.775C160.952 326.542 160.583 326.425 160.134 326.425C159.685 326.425 159.316 326.542 159.026 326.775C158.737 327.007 158.522 327.313 158.383 327.691C158.244 328.069 158.174 328.476 158.174 328.914C158.174 329.351 158.244 329.757 158.383 330.132C158.522 330.507 158.737 330.81 159.026 331.04C159.316 331.27 159.685 331.385 160.134 331.385ZM167.277 334.743C166.792 334.743 166.374 334.681 166.025 334.556C165.675 334.434 165.384 334.272 165.151 334.07C164.921 333.871 164.738 333.658 164.601 333.431L165.402 332.868C165.493 332.988 165.608 333.124 165.748 333.277C165.887 333.434 166.077 333.569 166.319 333.682C166.563 333.799 166.882 333.857 167.277 333.857C167.806 333.857 168.242 333.729 168.586 333.473C168.929 333.218 169.101 332.817 169.101 332.272V330.942H169.016C168.942 331.061 168.837 331.209 168.701 331.385C168.567 331.559 168.374 331.713 168.121 331.85C167.871 331.983 167.533 332.05 167.107 332.05C166.578 332.05 166.104 331.925 165.684 331.675C165.266 331.425 164.935 331.061 164.691 330.584C164.449 330.107 164.328 329.527 164.328 328.846C164.328 328.175 164.446 327.591 164.682 327.094C164.918 326.594 165.246 326.208 165.667 325.935C166.087 325.659 166.573 325.522 167.124 325.522C167.55 325.522 167.888 325.593 168.138 325.735C168.391 325.874 168.584 326.033 168.718 326.212C168.854 326.388 168.959 326.533 169.033 326.647H169.135V325.607H170.107V332.34C170.107 332.902 169.979 333.36 169.723 333.712C169.471 334.067 169.13 334.327 168.701 334.492C168.275 334.659 167.8 334.743 167.277 334.743ZM167.243 331.147C167.647 331.147 167.988 331.054 168.266 330.87C168.544 330.685 168.756 330.419 168.901 330.073C169.046 329.726 169.118 329.311 169.118 328.828C169.118 328.357 169.047 327.941 168.905 327.58C168.763 327.219 168.553 326.936 168.275 326.732C167.996 326.527 167.652 326.425 167.243 326.425C166.817 326.425 166.462 326.533 166.178 326.749C165.897 326.965 165.685 327.255 165.543 327.618C165.404 327.982 165.334 328.385 165.334 328.828C165.334 329.283 165.405 329.685 165.547 330.034C165.692 330.381 165.905 330.654 166.186 330.853C166.471 331.049 166.823 331.147 167.243 331.147ZM172.596 334.607C172.425 334.607 172.273 334.593 172.14 334.564C172.006 334.539 171.914 334.513 171.863 334.488L172.118 333.601C172.363 333.664 172.578 333.686 172.766 333.669C172.953 333.652 173.12 333.569 173.265 333.418C173.412 333.27 173.547 333.03 173.669 332.698L173.857 332.186L171.436 325.607H172.527L174.334 330.823H174.402L176.209 325.607H177.3L174.522 333.107C174.397 333.445 174.242 333.725 174.057 333.946C173.873 334.171 173.658 334.337 173.414 334.445C173.172 334.553 172.9 334.607 172.596 334.607Z" fill="black" fill-opacity="0.7"/>
<circle cx="194" cy="327.652" r="3.5" fill="#FF928A" stroke="white"/>
<path d="M214.08 326.152H213.023C212.96 325.848 212.851 325.581 212.695 325.351C212.541 325.121 212.354 324.928 212.132 324.772C211.913 324.613 211.67 324.493 211.403 324.414C211.136 324.334 210.858 324.294 210.568 324.294C210.04 324.294 209.561 324.428 209.132 324.695C208.706 324.962 208.366 325.355 208.114 325.875C207.864 326.395 207.739 327.033 207.739 327.789C207.739 328.544 207.864 329.182 208.114 329.702C208.366 330.222 208.706 330.615 209.132 330.882C209.561 331.15 210.04 331.283 210.568 331.283C210.858 331.283 211.136 331.243 211.403 331.164C211.67 331.084 211.913 330.966 212.132 330.81C212.354 330.651 212.541 330.456 212.695 330.226C212.851 329.993 212.96 329.726 213.023 329.425H214.08C214 329.871 213.855 330.27 213.645 330.623C213.435 330.975 213.173 331.275 212.861 331.522C212.548 331.766 212.197 331.952 211.808 332.08C211.422 332.208 211.009 332.272 210.568 332.272C209.824 332.272 209.162 332.09 208.582 331.726C208.003 331.363 207.547 330.846 207.214 330.175C206.882 329.505 206.716 328.709 206.716 327.789C206.716 326.868 206.882 326.073 207.214 325.402C207.547 324.732 208.003 324.215 208.582 323.851C209.162 323.488 209.824 323.306 210.568 323.306C211.009 323.306 211.422 323.37 211.808 323.498C212.197 323.625 212.548 323.813 212.861 324.06C213.173 324.304 213.435 324.603 213.645 324.955C213.855 325.304 214 325.703 214.08 326.152ZM217.577 332.306C217.162 332.306 216.786 332.228 216.448 332.071C216.11 331.912 215.841 331.684 215.642 331.385C215.444 331.084 215.344 330.721 215.344 330.294C215.344 329.919 215.418 329.615 215.566 329.382C215.713 329.147 215.911 328.962 216.158 328.828C216.405 328.695 216.678 328.596 216.976 328.53C217.277 328.462 217.58 328.408 217.884 328.368C218.282 328.317 218.604 328.279 218.851 328.253C219.101 328.225 219.283 328.178 219.397 328.113C219.513 328.047 219.571 327.934 219.571 327.772V327.738C219.571 327.317 219.456 326.99 219.226 326.757C218.999 326.525 218.654 326.408 218.191 326.408C217.711 326.408 217.334 326.513 217.061 326.723C216.789 326.934 216.597 327.158 216.486 327.397L215.532 327.056C215.702 326.658 215.929 326.348 216.213 326.127C216.5 325.902 216.813 325.746 217.151 325.658C217.492 325.567 217.827 325.522 218.157 325.522C218.367 325.522 218.608 325.547 218.881 325.598C219.157 325.647 219.422 325.748 219.678 325.901C219.936 326.054 220.151 326.286 220.321 326.596C220.492 326.905 220.577 327.32 220.577 327.84V332.152H219.571V331.266H219.52C219.452 331.408 219.338 331.56 219.179 331.722C219.02 331.884 218.809 332.022 218.544 332.135C218.28 332.249 217.958 332.306 217.577 332.306ZM217.73 331.402C218.128 331.402 218.463 331.324 218.736 331.168C219.012 331.012 219.219 330.81 219.358 330.563C219.5 330.316 219.571 330.056 219.571 329.783V328.863C219.529 328.914 219.435 328.961 219.29 329.003C219.148 329.043 218.983 329.078 218.796 329.11C218.611 329.138 218.431 329.164 218.255 329.186C218.081 329.206 217.941 329.223 217.833 329.238C217.571 329.272 217.327 329.327 217.1 329.404C216.875 329.478 216.694 329.59 216.554 329.74C216.418 329.888 216.35 330.09 216.35 330.346C216.35 330.695 216.479 330.959 216.738 331.138C216.999 331.314 217.33 331.402 217.73 331.402ZM222.413 332.152V325.607H223.384V326.596H223.452C223.572 326.272 223.788 326.009 224.1 325.807C224.413 325.605 224.765 325.505 225.157 325.505C225.231 325.505 225.323 325.506 225.434 325.509C225.545 325.512 225.629 325.516 225.685 325.522V326.544C225.651 326.536 225.573 326.523 225.451 326.506C225.332 326.486 225.205 326.476 225.072 326.476C224.754 326.476 224.469 326.543 224.219 326.676C223.972 326.807 223.776 326.989 223.631 327.222C223.489 327.452 223.418 327.715 223.418 328.01V332.152H222.413ZM230.389 332.152V323.425H233.44C234.048 323.425 234.549 323.53 234.944 323.74C235.339 323.948 235.633 324.228 235.826 324.58C236.02 324.929 236.116 325.317 236.116 325.743C236.116 326.118 236.049 326.428 235.916 326.672C235.785 326.917 235.612 327.11 235.396 327.252C235.183 327.394 234.951 327.499 234.701 327.567V327.652C234.968 327.669 235.237 327.763 235.507 327.934C235.777 328.104 236.002 328.348 236.184 328.667C236.366 328.985 236.457 329.374 236.457 329.834C236.457 330.272 236.358 330.665 236.159 331.015C235.96 331.364 235.646 331.641 235.217 331.846C234.788 332.05 234.23 332.152 233.542 332.152H230.389ZM231.446 331.215H233.542C234.233 331.215 234.723 331.081 235.012 330.814C235.305 330.544 235.451 330.218 235.451 329.834C235.451 329.539 235.376 329.266 235.225 329.016C235.075 328.763 234.86 328.561 234.582 328.411C234.304 328.257 233.974 328.181 233.593 328.181H231.446V331.215ZM231.446 327.26H233.406C233.724 327.26 234.011 327.198 234.267 327.073C234.525 326.948 234.73 326.772 234.88 326.544C235.034 326.317 235.11 326.05 235.11 325.743C235.11 325.36 234.977 325.034 234.71 324.767C234.443 324.498 234.02 324.363 233.44 324.363H231.446V327.26ZM238.057 332.152V325.607H239.029V326.596H239.097C239.216 326.272 239.432 326.009 239.745 325.807C240.057 325.605 240.409 325.505 240.801 325.505C240.875 325.505 240.968 325.506 241.078 325.509C241.189 325.512 241.273 325.516 241.33 325.522V326.544C241.296 326.536 241.218 326.523 241.096 326.506C240.976 326.486 240.85 326.476 240.716 326.476C240.398 326.476 240.114 326.543 239.864 326.676C239.617 326.807 239.421 326.989 239.276 327.222C239.134 327.452 239.063 327.715 239.063 328.01V332.152H238.057ZM244.448 332.306C244.033 332.306 243.657 332.228 243.319 332.071C242.981 331.912 242.712 331.684 242.513 331.385C242.315 331.084 242.215 330.721 242.215 330.294C242.215 329.919 242.289 329.615 242.437 329.382C242.585 329.147 242.782 328.962 243.029 328.828C243.276 328.695 243.549 328.596 243.847 328.53C244.148 328.462 244.451 328.408 244.755 328.368C245.153 328.317 245.475 328.279 245.722 328.253C245.972 328.225 246.154 328.178 246.268 328.113C246.384 328.047 246.442 327.934 246.442 327.772V327.738C246.442 327.317 246.327 326.99 246.097 326.757C245.87 326.525 245.525 326.408 245.062 326.408C244.582 326.408 244.205 326.513 243.933 326.723C243.66 326.934 243.468 327.158 243.357 327.397L242.403 327.056C242.573 326.658 242.8 326.348 243.085 326.127C243.371 325.902 243.684 325.746 244.022 325.658C244.363 325.567 244.698 325.522 245.028 325.522C245.238 325.522 245.479 325.547 245.752 325.598C246.028 325.647 246.293 325.748 246.549 325.901C246.808 326.054 247.022 326.286 247.192 326.596C247.363 326.905 247.448 327.32 247.448 327.84V332.152H246.442V331.266H246.391C246.323 331.408 246.21 331.56 246.05 331.722C245.891 331.884 245.68 332.022 245.415 332.135C245.151 332.249 244.829 332.306 244.448 332.306ZM244.602 331.402C244.999 331.402 245.335 331.324 245.607 331.168C245.883 331.012 246.09 330.81 246.229 330.563C246.371 330.316 246.442 330.056 246.442 329.783V328.863C246.4 328.914 246.306 328.961 246.161 329.003C246.019 329.043 245.854 329.078 245.667 329.11C245.482 329.138 245.302 329.164 245.126 329.186C244.952 329.206 244.812 329.223 244.704 329.238C244.442 329.272 244.198 329.327 243.971 329.404C243.746 329.478 243.565 329.59 243.425 329.74C243.289 329.888 243.221 330.09 243.221 330.346C243.221 330.695 243.35 330.959 243.609 331.138C243.87 331.314 244.201 331.402 244.602 331.402ZM250.289 328.215V332.152H249.284V325.607H250.255V326.63H250.341C250.494 326.297 250.727 326.03 251.039 325.828C251.352 325.624 251.755 325.522 252.25 325.522C252.693 325.522 253.081 325.613 253.413 325.794C253.745 325.973 254.004 326.246 254.189 326.613C254.373 326.976 254.466 327.436 254.466 327.993V332.152H253.46V328.061C253.46 327.547 253.326 327.147 253.059 326.86C252.792 326.57 252.426 326.425 251.96 326.425C251.639 326.425 251.352 326.495 251.099 326.634C250.849 326.773 250.652 326.976 250.507 327.243C250.362 327.51 250.289 327.834 250.289 328.215ZM258.775 332.289C258.229 332.289 257.748 332.151 257.33 331.875C256.913 331.597 256.586 331.205 256.35 330.699C256.114 330.191 255.996 329.59 255.996 328.897C255.996 328.209 256.114 327.613 256.35 327.107C256.586 326.601 256.914 326.211 257.335 325.935C257.755 325.659 258.241 325.522 258.792 325.522C259.218 325.522 259.555 325.593 259.802 325.735C260.052 325.874 260.242 326.033 260.373 326.212C260.506 326.388 260.61 326.533 260.684 326.647H260.769V323.425H261.775V332.152H260.803V331.147H260.684C260.61 331.266 260.505 331.417 260.369 331.598C260.232 331.777 260.038 331.938 259.785 332.08C259.532 332.219 259.195 332.289 258.775 332.289ZM258.911 331.385C259.315 331.385 259.656 331.28 259.934 331.07C260.212 330.857 260.424 330.563 260.569 330.188C260.714 329.81 260.786 329.374 260.786 328.88C260.786 328.391 260.715 327.963 260.573 327.597C260.431 327.228 260.221 326.941 259.942 326.736C259.664 326.529 259.32 326.425 258.911 326.425C258.485 326.425 258.13 326.534 257.846 326.753C257.565 326.969 257.353 327.263 257.211 327.635C257.072 328.005 257.002 328.419 257.002 328.88C257.002 329.346 257.073 329.769 257.215 330.15C257.36 330.527 257.573 330.828 257.854 331.053C258.138 331.275 258.491 331.385 258.911 331.385ZM268.393 327.073L267.489 327.328C267.433 327.178 267.349 327.032 267.238 326.89C267.13 326.745 266.982 326.625 266.795 326.532C266.607 326.438 266.367 326.391 266.075 326.391C265.674 326.391 265.34 326.483 265.073 326.668C264.809 326.85 264.677 327.081 264.677 327.363C264.677 327.613 264.768 327.81 264.95 327.955C265.131 328.1 265.415 328.221 265.802 328.317L266.773 328.556C267.359 328.698 267.795 328.915 268.082 329.208C268.369 329.498 268.512 329.871 268.512 330.328C268.512 330.703 268.404 331.039 268.188 331.334C267.975 331.63 267.677 331.863 267.293 332.033C266.91 332.203 266.464 332.289 265.955 332.289C265.288 332.289 264.735 332.144 264.298 331.854C263.86 331.564 263.583 331.141 263.467 330.584L264.421 330.346C264.512 330.698 264.684 330.962 264.937 331.138C265.192 331.314 265.526 331.402 265.938 331.402C266.407 331.402 266.779 331.303 267.055 331.104C267.333 330.902 267.472 330.661 267.472 330.38C267.472 330.152 267.393 329.962 267.234 329.809C267.075 329.652 266.83 329.536 266.501 329.459L265.41 329.203C264.81 329.061 264.37 328.841 264.089 328.543C263.81 328.242 263.671 327.865 263.671 327.414C263.671 327.044 263.775 326.718 263.982 326.434C264.192 326.15 264.478 325.926 264.839 325.765C265.202 325.603 265.614 325.522 266.075 325.522C266.722 325.522 267.231 325.664 267.6 325.948C267.972 326.232 268.237 326.607 268.393 327.073Z" fill="black" fill-opacity="0.7"/>
<circle cx="286" cy="327.652" r="3.5" fill="#3CC3DF" stroke="white"/>
<path d="M299.415 332.152H298.307L301.511 323.425H302.602L305.807 332.152H304.699L302.091 324.806H302.023L299.415 332.152ZM299.824 328.743H304.29V329.681H299.824V328.743ZM307.1 332.152V325.607H308.106V332.152H307.1ZM307.612 324.516C307.415 324.516 307.246 324.449 307.104 324.316C306.965 324.182 306.896 324.022 306.896 323.834C306.896 323.647 306.965 323.486 307.104 323.353C307.246 323.219 307.415 323.152 307.612 323.152C307.808 323.152 307.975 323.219 308.114 323.353C308.256 323.486 308.327 323.647 308.327 323.834C308.327 324.022 308.256 324.182 308.114 324.316C307.975 324.449 307.808 324.516 307.612 324.516ZM309.948 332.152V325.607H310.919V326.596H310.988C311.107 326.272 311.323 326.009 311.635 325.807C311.948 325.605 312.3 325.505 312.692 325.505C312.766 325.505 312.858 325.506 312.969 325.509C313.08 325.512 313.164 325.516 313.221 325.522V326.544C313.186 326.536 313.108 326.523 312.986 326.506C312.867 326.486 312.74 326.476 312.607 326.476C312.289 326.476 312.005 326.543 311.755 326.676C311.507 326.807 311.311 326.989 311.167 327.222C311.025 327.452 310.953 327.715 310.953 328.01V332.152H309.948ZM315.418 323.425V332.152H314.413V323.425H315.418ZM317.26 332.152V325.607H318.266V332.152H317.26ZM317.772 324.516C317.576 324.516 317.407 324.449 317.265 324.316C317.125 324.182 317.056 324.022 317.056 323.834C317.056 323.647 317.125 323.486 317.265 323.353C317.407 323.219 317.576 323.152 317.772 323.152C317.968 323.152 318.135 323.219 318.275 323.353C318.417 323.486 318.488 323.647 318.488 323.834C318.488 324.022 318.417 324.182 318.275 324.316C318.135 324.449 317.968 324.516 317.772 324.516ZM321.114 328.215V332.152H320.108V325.607H321.08V326.63H321.165C321.318 326.297 321.551 326.03 321.864 325.828C322.176 325.624 322.58 325.522 323.074 325.522C323.517 325.522 323.905 325.613 324.237 325.794C324.57 325.973 324.828 326.246 325.013 326.613C325.197 326.976 325.29 327.436 325.29 327.993V332.152H324.284V328.061C324.284 327.547 324.151 327.147 323.884 326.86C323.616 326.57 323.25 326.425 322.784 326.425C322.463 326.425 322.176 326.495 321.923 326.634C321.673 326.773 321.476 326.976 321.331 327.243C321.186 327.51 321.114 327.834 321.114 328.215ZM329.872 332.289C329.241 332.289 328.697 332.15 328.24 331.871C327.785 331.59 327.434 331.198 327.187 330.695C326.943 330.189 326.821 329.601 326.821 328.931C326.821 328.26 326.943 327.669 327.187 327.158C327.434 326.644 327.778 326.243 328.218 325.956C328.662 325.667 329.179 325.522 329.77 325.522C330.11 325.522 330.447 325.578 330.779 325.692C331.112 325.806 331.414 325.99 331.687 326.246C331.96 326.499 332.177 326.834 332.339 327.252C332.501 327.669 332.582 328.184 332.582 328.794V329.221H327.537V328.351H331.559C331.559 327.982 331.485 327.652 331.338 327.363C331.193 327.073 330.985 326.844 330.716 326.676C330.449 326.509 330.133 326.425 329.77 326.425C329.369 326.425 329.022 326.525 328.73 326.723C328.44 326.919 328.217 327.175 328.061 327.49C327.904 327.806 327.826 328.144 327.826 328.505V329.084C327.826 329.578 327.912 329.998 328.082 330.341C328.255 330.682 328.495 330.942 328.802 331.121C329.109 331.297 329.466 331.385 329.872 331.385C330.136 331.385 330.375 331.348 330.588 331.275C330.804 331.198 330.99 331.084 331.146 330.934C331.302 330.78 331.423 330.59 331.508 330.363L332.48 330.635C332.377 330.965 332.206 331.255 331.964 331.505C331.723 331.752 331.424 331.945 331.069 332.084C330.714 332.221 330.315 332.289 329.872 332.289ZM338.748 327.073L337.845 327.328C337.788 327.178 337.704 327.032 337.593 326.89C337.485 326.745 337.338 326.625 337.15 326.532C336.963 326.438 336.723 326.391 336.43 326.391C336.029 326.391 335.696 326.483 335.429 326.668C335.164 326.85 335.032 327.081 335.032 327.363C335.032 327.613 335.123 327.81 335.305 327.955C335.487 328.1 335.771 328.221 336.157 328.317L337.129 328.556C337.714 328.698 338.15 328.915 338.437 329.208C338.724 329.498 338.868 329.871 338.868 330.328C338.868 330.703 338.76 331.039 338.544 331.334C338.331 331.63 338.032 331.863 337.649 332.033C337.265 332.203 336.819 332.289 336.311 332.289C335.643 332.289 335.091 332.144 334.653 331.854C334.216 331.564 333.939 331.141 333.822 330.584L334.777 330.346C334.868 330.698 335.039 330.962 335.292 331.138C335.548 331.314 335.882 331.402 336.294 331.402C336.762 331.402 337.135 331.303 337.41 331.104C337.689 330.902 337.828 330.661 337.828 330.38C337.828 330.152 337.748 329.962 337.589 329.809C337.43 329.652 337.186 329.536 336.856 329.459L335.765 329.203C335.166 329.061 334.725 328.841 334.444 328.543C334.166 328.242 334.027 327.865 334.027 327.414C334.027 327.044 334.13 326.718 334.338 326.434C334.548 326.15 334.833 325.926 335.194 325.765C335.558 325.603 335.97 325.522 336.43 325.522C337.078 325.522 337.586 325.664 337.956 325.948C338.328 326.232 338.592 326.607 338.748 327.073Z" fill="black" fill-opacity="0.7"/>
<circle cx="356" cy="327.652" r="3.5" fill="#FFAE4C" stroke="white"/>
<path d="M369.057 332.152V323.425H374.324V324.363H370.114V327.311H374.051V328.249H370.114V331.215H374.392V332.152H369.057ZM377.098 328.215V332.152H376.092V325.607H377.064V326.63H377.149C377.303 326.297 377.536 326.03 377.848 325.828C378.161 325.624 378.564 325.522 379.058 325.522C379.501 325.522 379.889 325.613 380.222 325.794C380.554 325.973 380.813 326.246 380.997 326.613C381.182 326.976 381.274 327.436 381.274 327.993V332.152H380.268V328.061C380.268 327.547 380.135 327.147 379.868 326.86C379.601 326.57 379.234 326.425 378.768 326.425C378.447 326.425 378.161 326.495 377.908 326.634C377.658 326.773 377.46 326.976 377.315 327.243C377.17 327.51 377.098 327.834 377.098 328.215ZM385.856 332.289C385.225 332.289 384.681 332.15 384.224 331.871C383.77 331.59 383.419 331.198 383.172 330.695C382.927 330.189 382.805 329.601 382.805 328.931C382.805 328.26 382.927 327.669 383.172 327.158C383.419 326.644 383.762 326.243 384.203 325.956C384.646 325.667 385.163 325.522 385.754 325.522C386.095 325.522 386.431 325.578 386.764 325.692C387.096 325.806 387.399 325.99 387.672 326.246C387.944 326.499 388.162 326.834 388.324 327.252C388.485 327.669 388.566 328.184 388.566 328.794V329.221H383.521V328.351H387.544C387.544 327.982 387.47 327.652 387.322 327.363C387.177 327.073 386.97 326.844 386.7 326.676C386.433 326.509 386.118 326.425 385.754 326.425C385.353 326.425 385.007 326.525 384.714 326.723C384.424 326.919 384.201 327.175 384.045 327.49C383.889 327.806 383.811 328.144 383.811 328.505V329.084C383.811 329.578 383.896 329.998 384.066 330.341C384.24 330.682 384.48 330.942 384.787 331.121C385.093 331.297 385.45 331.385 385.856 331.385C386.12 331.385 386.359 331.348 386.572 331.275C386.788 331.198 386.974 331.084 387.13 330.934C387.287 330.78 387.407 330.59 387.493 330.363L388.464 330.635C388.362 330.965 388.19 331.255 387.949 331.505C387.707 331.752 387.409 331.945 387.054 332.084C386.699 332.221 386.299 332.289 385.856 332.289ZM390.096 332.152V325.607H391.068V326.596H391.136C391.255 326.272 391.471 326.009 391.784 325.807C392.096 325.605 392.449 325.505 392.841 325.505C392.914 325.505 393.007 325.506 393.118 325.509C393.228 325.512 393.312 325.516 393.369 325.522V326.544C393.335 326.536 393.257 326.523 393.135 326.506C393.015 326.486 392.889 326.476 392.755 326.476C392.437 326.476 392.153 326.543 391.903 326.676C391.656 326.807 391.46 326.989 391.315 327.222C391.173 327.452 391.102 327.715 391.102 328.01V332.152H390.096ZM397.004 334.743C396.518 334.743 396.1 334.681 395.751 334.556C395.402 334.434 395.11 334.272 394.877 334.07C394.647 333.871 394.464 333.658 394.328 333.431L395.129 332.868C395.22 332.988 395.335 333.124 395.474 333.277C395.613 333.434 395.804 333.569 396.045 333.682C396.289 333.799 396.609 333.857 397.004 333.857C397.532 333.857 397.968 333.729 398.312 333.473C398.656 333.218 398.828 332.817 398.828 332.272V330.942H398.743C398.669 331.061 398.564 331.209 398.427 331.385C398.294 331.559 398.1 331.713 397.848 331.85C397.598 331.983 397.26 332.05 396.833 332.05C396.305 332.05 395.831 331.925 395.41 331.675C394.993 331.425 394.662 331.061 394.417 330.584C394.176 330.107 394.055 329.527 394.055 328.846C394.055 328.175 394.173 327.591 394.409 327.094C394.645 326.594 394.973 326.208 395.393 325.935C395.814 325.659 396.299 325.522 396.85 325.522C397.277 325.522 397.615 325.593 397.865 325.735C398.118 325.874 398.311 326.033 398.444 326.212C398.581 326.388 398.686 326.533 398.76 326.647H398.862V325.607H399.833V332.34C399.833 332.902 399.706 333.36 399.45 333.712C399.197 334.067 398.856 334.327 398.427 334.492C398.001 334.659 397.527 334.743 397.004 334.743ZM396.97 331.147C397.373 331.147 397.714 331.054 397.993 330.87C398.271 330.685 398.483 330.419 398.627 330.073C398.772 329.726 398.845 329.311 398.845 328.828C398.845 328.357 398.774 327.941 398.632 327.58C398.49 327.219 398.279 326.936 398.001 326.732C397.723 326.527 397.379 326.425 396.97 326.425C396.544 326.425 396.189 326.533 395.904 326.749C395.623 326.965 395.412 327.255 395.27 327.618C395.13 327.982 395.061 328.385 395.061 328.828C395.061 329.283 395.132 329.685 395.274 330.034C395.419 330.381 395.632 330.654 395.913 330.853C396.197 331.049 396.549 331.147 396.97 331.147ZM402.322 334.607C402.152 334.607 402 334.593 401.866 334.564C401.733 334.539 401.64 334.513 401.589 334.488L401.845 333.601C402.089 333.664 402.305 333.686 402.493 333.669C402.68 333.652 402.846 333.569 402.991 333.418C403.139 333.27 403.274 333.03 403.396 332.698L403.583 332.186L401.163 325.607H402.254L404.061 330.823H404.129L405.936 325.607H407.027L404.248 333.107C404.123 333.445 403.968 333.725 403.784 333.946C403.599 334.171 403.385 334.337 403.14 334.445C402.899 334.553 402.626 334.607 402.322 334.607Z" fill="black" fill-opacity="0.7"/>
</g>
<defs>
<clipPath id="clip0_836_5292">
<rect width="455" height="286.573" fill="white" transform="translate(37 8.07812)"/>
</clipPath>
<clipPath id="clip1_836_5292">
<rect width="446" height="275" fill="white" transform="translate(37 14.0781)"/>
</clipPath>
<clipPath id="clip2_836_5292">
<rect width="484" height="24" fill="white" transform="translate(8 315.652)"/>
</clipPath>
</defs>
</svg>
