<svg width="520" height="348" viewBox="0 0 520 348" fill="none" xmlns="http://www.w3.org/2000/svg">
<rect width="520" height="348" fill="white"/>
<path d="M52.0285 333.293H52.5091L53.7349 336.344L54.9582 333.293H55.4414L53.92 337.035H53.5448L52.0285 333.293ZM51.8718 333.293H52.2958L52.3652 335.575V337.035H51.8718V333.293ZM55.1715 333.293H55.5955V337.035H55.1021V335.575L55.1715 333.293ZM59.3476 335.046V335.282C59.3476 335.563 59.3125 335.815 59.2422 336.038C59.172 336.261 59.0709 336.45 58.939 336.606C58.8071 336.762 58.6486 336.881 58.4636 336.963C58.2802 337.045 58.0746 337.087 57.8468 337.087C57.6258 337.087 57.4227 337.045 57.2377 336.963C57.0544 336.881 56.8951 336.762 56.7597 336.606C56.6261 336.45 56.5224 336.261 56.4488 336.038C56.3751 335.815 56.3382 335.563 56.3382 335.282V335.046C56.3382 334.765 56.3742 334.514 56.4462 334.293C56.5199 334.07 56.6235 333.881 56.7571 333.725C56.8908 333.568 57.0493 333.448 57.2326 333.365C57.4176 333.283 57.6206 333.242 57.8416 333.242C58.0695 333.242 58.2751 333.283 58.4584 333.365C58.6435 333.448 58.8019 333.568 58.9338 333.725C59.0675 333.881 59.1694 334.07 59.2397 334.293C59.3116 334.514 59.3476 334.765 59.3476 335.046ZM58.8568 335.282V335.041C58.8568 334.818 58.8336 334.621 58.7874 334.45C58.7428 334.279 58.6769 334.135 58.5895 334.018C58.5021 333.902 58.395 333.813 58.2682 333.753C58.1432 333.693 58.001 333.663 57.8416 333.663C57.6874 333.663 57.5478 333.693 57.4227 333.753C57.2994 333.813 57.1932 333.902 57.1041 334.018C57.0167 334.135 56.949 334.279 56.9011 334.45C56.8531 334.621 56.8291 334.818 56.8291 335.041V335.282C56.8291 335.507 56.8531 335.706 56.9011 335.879C56.949 336.05 57.0176 336.195 57.1066 336.313C57.1975 336.43 57.3045 336.518 57.4279 336.578C57.553 336.638 57.6926 336.668 57.8468 336.668C58.0078 336.668 58.1509 336.638 58.276 336.578C58.401 336.518 58.5064 336.43 58.5921 336.313C58.6794 336.195 58.7454 336.05 58.7899 335.879C58.8345 335.706 58.8568 335.507 58.8568 335.282ZM62.9686 333.293V337.035H62.47L60.5863 334.149V337.035H60.0903V333.293H60.5863L62.4777 336.187V333.293H62.9686Z" fill="black"/>
<path d="M125.283 333.293V337.035H124.795V333.293H125.283ZM126.486 333.293V333.699H123.595V333.293H126.486ZM129.182 333.293H129.675V335.825C129.675 336.106 129.613 336.34 129.488 336.526C129.362 336.713 129.196 336.854 128.989 336.948C128.783 337.04 128.56 337.087 128.318 337.087C128.065 337.087 127.835 337.04 127.629 336.948C127.426 336.854 127.264 336.713 127.144 336.526C127.026 336.34 126.966 336.106 126.966 335.825V333.293H127.457V335.825C127.457 336.02 127.493 336.181 127.565 336.308C127.637 336.435 127.737 336.529 127.866 336.591C127.996 336.652 128.147 336.683 128.318 336.683C128.491 336.683 128.642 336.652 128.771 336.591C128.901 336.529 129.002 336.435 129.074 336.308C129.146 336.181 129.182 336.02 129.182 335.825V333.293ZM132.831 336.632V337.035H130.85V336.632H132.831ZM130.95 333.293V337.035H130.454V333.293H130.95ZM132.569 334.902V335.306H130.85V334.902H132.569ZM132.805 333.293V333.699H130.85V333.293H132.805Z" fill="black"/>
<path d="M194.207 335.904L194.95 333.293H195.31L195.101 334.308L194.302 337.035H193.945L194.207 335.904ZM193.439 333.293L194.03 335.853L194.207 337.035H193.852L192.945 333.293H193.439ZM196.271 335.85L196.849 333.293H197.345L196.44 337.035H196.086L196.271 335.85ZM195.364 333.293L196.086 335.904L196.348 337.035H195.991L195.22 334.308L195.009 333.293H195.364ZM200.272 336.632V337.035H198.291V336.632H200.272ZM198.391 333.293V337.035H197.895V333.293H198.391ZM200.01 334.902V335.306H198.291V334.902H200.01ZM200.246 333.293V333.699H198.291V333.293H200.246ZM201.899 337.035H201.118L201.123 336.632H201.899C202.166 336.632 202.389 336.576 202.567 336.465C202.745 336.352 202.879 336.194 202.968 335.992C203.059 335.788 203.104 335.55 203.104 335.277V335.049C203.104 334.834 203.078 334.644 203.027 334.478C202.976 334.31 202.9 334.169 202.801 334.054C202.701 333.938 202.58 333.849 202.436 333.789C202.294 333.729 202.13 333.699 201.945 333.699H201.102V333.293H201.945C202.19 333.293 202.414 333.334 202.616 333.417C202.818 333.497 202.992 333.615 203.137 333.769C203.285 333.921 203.398 334.106 203.477 334.324C203.556 334.54 203.595 334.783 203.595 335.054V335.277C203.595 335.548 203.556 335.792 203.477 336.01C203.398 336.226 203.284 336.41 203.135 336.562C202.988 336.715 202.809 336.832 202.6 336.914C202.393 336.995 202.159 337.035 201.899 337.035ZM201.382 333.293V337.035H200.886V333.293H201.382Z" fill="black"/>
<path d="M265.47 333.293V337.035H264.982V333.293H265.47ZM266.673 333.293V333.699H263.781V333.293H266.673ZM269.672 334.902V335.306H267.647V334.902H269.672ZM267.724 333.293V337.035H267.228V333.293H267.724ZM270.103 333.293V337.035H269.61V333.293H270.103ZM273.126 333.293H273.619V335.825C273.619 336.106 273.556 336.34 273.431 336.526C273.306 336.713 273.14 336.854 272.933 336.948C272.727 337.04 272.504 337.087 272.262 337.087C272.009 337.087 271.779 337.04 271.573 336.948C271.369 336.854 271.208 336.713 271.088 336.526C270.969 336.34 270.91 336.106 270.91 335.825V333.293H271.401V335.825C271.401 336.02 271.437 336.181 271.509 336.308C271.581 336.435 271.681 336.529 271.81 336.591C271.94 336.652 272.091 336.683 272.262 336.683C272.435 336.683 272.586 336.652 272.714 336.591C272.845 336.529 272.946 336.435 273.018 336.308C273.09 336.181 273.126 336.02 273.126 335.825V333.293Z" fill="black"/>
<path d="M336.759 333.293V337.035H336.263V333.293H336.759ZM338.326 334.977V335.383H336.651V334.977H338.326ZM338.581 333.293V333.699H336.651V333.293H338.581ZM339.172 333.293H340.41C340.691 333.293 340.929 333.336 341.122 333.422C341.318 333.508 341.466 333.634 341.567 333.802C341.67 333.968 341.721 334.173 341.721 334.416C341.721 334.588 341.686 334.745 341.616 334.887C341.547 335.027 341.448 335.147 341.318 335.247C341.189 335.344 341.035 335.417 340.855 335.465L340.716 335.519H339.552L339.547 335.115H340.426C340.604 335.115 340.752 335.085 340.87 335.023C340.989 334.96 341.078 334.875 341.138 334.769C341.198 334.662 341.228 334.545 341.228 334.416C341.228 334.273 341.199 334.147 341.143 334.039C341.086 333.931 340.997 333.848 340.875 333.789C340.756 333.729 340.601 333.699 340.41 333.699H339.668V337.035H339.172V333.293ZM341.359 337.035L340.449 335.339L340.965 335.336L341.888 337.004V337.035H341.359ZM342.947 333.293V337.035H342.451V333.293H342.947ZM342.417 332.692C342.417 332.617 342.441 332.552 342.487 332.499C342.535 332.446 342.605 332.42 342.698 332.42C342.788 332.42 342.858 332.446 342.906 332.499C342.955 332.552 342.98 332.617 342.98 332.692C342.98 332.767 342.955 332.832 342.906 332.885C342.858 332.936 342.788 332.962 342.698 332.962C342.605 332.962 342.535 332.936 342.487 332.885C342.441 332.832 342.417 332.767 342.417 332.692Z" fill="black"/>
<path d="M407.474 336.089C407.474 336.002 407.461 335.925 407.433 335.858C407.407 335.79 407.361 335.728 407.294 335.673C407.229 335.618 407.138 335.566 407.022 335.516C406.907 335.467 406.762 335.416 406.585 335.365C406.4 335.31 406.233 335.249 406.084 335.182C405.935 335.114 405.807 335.036 405.701 334.948C405.595 334.861 405.513 334.761 405.457 334.648C405.4 334.535 405.372 334.405 405.372 334.26C405.372 334.114 405.402 333.98 405.462 333.856C405.522 333.733 405.608 333.626 405.719 333.535C405.832 333.442 405.967 333.37 406.122 333.319C406.278 333.268 406.452 333.242 406.644 333.242C406.925 333.242 407.163 333.296 407.359 333.404C407.556 333.51 407.706 333.65 407.808 333.823C407.911 333.994 407.963 334.177 407.963 334.373H407.469C407.469 334.232 407.439 334.108 407.379 334C407.319 333.89 407.228 333.805 407.107 333.743C406.985 333.68 406.831 333.648 406.644 333.648C406.468 333.648 406.322 333.675 406.207 333.728C406.092 333.781 406.007 333.853 405.95 333.944C405.895 334.034 405.868 334.138 405.868 334.255C405.868 334.333 405.884 334.405 405.917 334.47C405.951 334.534 406.003 334.593 406.074 334.648C406.146 334.703 406.236 334.753 406.346 334.799C406.457 334.846 406.59 334.89 406.744 334.933C406.957 334.993 407.14 335.06 407.294 335.133C407.449 335.207 407.575 335.29 407.675 335.383C407.776 335.474 407.85 335.577 407.898 335.694C407.948 335.808 407.973 335.939 407.973 336.084C407.973 336.237 407.942 336.375 407.88 336.498C407.819 336.621 407.73 336.727 407.616 336.814C407.501 336.902 407.363 336.969 407.202 337.017C407.043 337.063 406.864 337.087 406.667 337.087C406.494 337.087 406.324 337.063 406.156 337.015C405.99 336.967 405.838 336.895 405.701 336.799C405.566 336.703 405.457 336.585 405.375 336.444C405.294 336.302 405.254 336.137 405.254 335.951H405.747C405.747 336.079 405.772 336.19 405.822 336.282C405.871 336.373 405.939 336.448 406.025 336.508C406.112 336.568 406.211 336.613 406.32 336.642C406.432 336.669 406.547 336.683 406.667 336.683C406.84 336.683 406.987 336.659 407.107 336.611C407.227 336.563 407.317 336.495 407.379 336.406C407.443 336.316 407.474 336.211 407.474 336.089ZM409.99 333.625L408.751 337.035H408.245L409.672 333.293H409.998L409.99 333.625ZM411.028 337.035L409.787 333.625L409.779 333.293H410.106L411.537 337.035H411.028ZM410.964 335.65V336.056H408.862V335.65H410.964ZM413.087 333.293V337.035H412.599V333.293H413.087ZM414.29 333.293V333.699H411.398V333.293H414.29Z" fill="black"/>
<path d="M477.119 336.089C477.119 336.002 477.106 335.925 477.078 335.858C477.052 335.79 477.006 335.728 476.939 335.673C476.874 335.618 476.783 335.566 476.667 335.516C476.552 335.467 476.406 335.416 476.23 335.365C476.045 335.31 475.878 335.249 475.729 335.182C475.58 335.114 475.452 335.036 475.346 334.948C475.24 334.861 475.158 334.761 475.102 334.648C475.045 334.535 475.017 334.405 475.017 334.26C475.017 334.114 475.047 333.98 475.107 333.856C475.167 333.733 475.253 333.626 475.364 333.535C475.477 333.442 475.612 333.37 475.767 333.319C475.923 333.268 476.097 333.242 476.289 333.242C476.57 333.242 476.808 333.296 477.004 333.404C477.201 333.51 477.351 333.65 477.453 333.823C477.556 333.994 477.607 334.177 477.607 334.373H477.114C477.114 334.232 477.084 334.108 477.024 334C476.964 333.89 476.873 333.805 476.752 333.743C476.63 333.68 476.476 333.648 476.289 333.648C476.113 333.648 475.967 333.675 475.852 333.728C475.737 333.781 475.652 333.853 475.595 333.944C475.54 334.034 475.513 334.138 475.513 334.255C475.513 334.333 475.529 334.405 475.562 334.47C475.596 334.534 475.648 334.593 475.719 334.648C475.791 334.703 475.881 334.753 475.991 334.799C476.102 334.846 476.235 334.89 476.389 334.933C476.602 334.993 476.785 335.06 476.939 335.133C477.094 335.207 477.22 335.29 477.32 335.383C477.421 335.474 477.495 335.577 477.543 335.694C477.593 335.808 477.618 335.939 477.618 336.084C477.618 336.237 477.587 336.375 477.525 336.498C477.464 336.621 477.375 336.727 477.261 336.814C477.146 336.902 477.008 336.969 476.847 337.017C476.687 337.063 476.509 337.087 476.312 337.087C476.139 337.087 475.969 337.063 475.801 337.015C475.635 336.967 475.483 336.895 475.346 336.799C475.211 336.703 475.102 336.585 475.02 336.444C474.939 336.302 474.899 336.137 474.899 335.951H475.392C475.392 336.079 475.417 336.19 475.467 336.282C475.516 336.373 475.584 336.448 475.67 336.508C475.757 336.568 475.856 336.613 475.965 336.642C476.077 336.669 476.192 336.683 476.312 336.683C476.485 336.683 476.632 336.659 476.752 336.611C476.872 336.563 476.962 336.495 477.024 336.406C477.088 336.316 477.119 336.211 477.119 336.089ZM480.391 333.293H480.884V335.825C480.884 336.106 480.822 336.34 480.697 336.526C480.571 336.713 480.405 336.854 480.198 336.948C479.992 337.04 479.769 337.087 479.527 337.087C479.274 337.087 479.044 337.04 478.838 336.948C478.635 336.854 478.473 336.713 478.353 336.526C478.235 336.34 478.175 336.106 478.175 335.825V333.293H478.666V335.825C478.666 336.02 478.702 336.181 478.774 336.308C478.846 336.435 478.946 336.529 479.075 336.591C479.205 336.652 479.356 336.683 479.527 336.683C479.7 336.683 479.851 336.652 479.98 336.591C480.11 336.529 480.211 336.435 480.283 336.308C480.355 336.181 480.391 336.02 480.391 335.825V333.293ZM484.541 333.293V337.035H484.043L482.159 334.149V337.035H481.663V333.293H482.159L484.05 336.187V333.293H484.541Z" fill="black"/>
<path d="M12.0053 193.937C12.0053 193.269 12.5424 192.781 13.28 192.781C13.9867 192.781 14.5135 193.231 14.5135 193.819C14.5135 194.251 14.2822 194.572 13.74 195.127L12.8122 196.06V196.073H14.5726V196.559H12.0361V196.168L13.3751 194.803C13.8274 194.333 13.9456 194.138 13.9456 193.847C13.9456 193.518 13.6475 193.256 13.262 193.256C12.8559 193.256 12.5501 193.549 12.5501 193.935V193.942H12.0053V193.937Z" fill="black"/>
<path d="M12.7043 135.814V135.362H13.1515C13.5524 135.362 13.8274 135.11 13.8274 134.76C13.8274 134.416 13.5909 134.187 13.1515 134.187C12.7506 134.187 12.4833 134.419 12.4499 134.784H11.9076C11.9513 134.133 12.4422 133.714 13.1772 133.714C13.8788 133.714 14.3902 134.113 14.3902 134.683C14.3902 135.146 14.0869 135.477 13.6269 135.56V135.57C14.1846 135.608 14.5444 135.95 14.5444 136.469C14.5444 137.117 13.9559 137.562 13.1823 137.562C12.3831 137.562 11.8691 137.122 11.8331 136.482H12.3856C12.4216 136.837 12.7146 137.081 13.1823 137.081C13.6346 137.081 13.9584 136.824 13.9584 136.462C13.9584 136.061 13.6552 135.814 13.1669 135.814H12.7043Z" fill="black"/>
<path d="M13.618 249.236V246.098H13.6051L12.6363 246.787V246.222L13.6128 245.528H14.1808V249.236H13.618Z" fill="black"/>
<path d="M13.5786 73.6387V72.9063H11.7231V72.4025C12.0418 71.8038 12.4633 71.1382 13.2985 69.9303H14.1311V72.4231H14.64V72.9063H14.1311V73.6387H13.5786ZM12.2603 72.418V72.4308H13.5838V70.3749H13.5735C12.931 71.3026 12.5558 71.8809 12.2603 72.418Z" fill="black"/>
<path d="M13.2574 19.4327C12.5172 19.4327 11.975 18.9804 11.9416 18.3328H12.4915C12.5327 18.7002 12.8488 18.9521 13.2625 18.9521C13.7302 18.9521 14.054 18.6257 14.054 18.1606C14.054 17.6954 13.7302 17.3613 13.2677 17.3613C12.9464 17.3613 12.6689 17.5078 12.525 17.752H11.9981L12.1934 15.6549H14.401V16.1406H12.656L12.5532 17.2791H12.5661C12.728 17.0452 13.0312 16.9039 13.3936 16.9039C14.1054 16.9039 14.6169 17.4256 14.6169 18.1451C14.6169 18.9058 14.0566 19.4327 13.2574 19.4327Z" fill="black"/>
<path d="M13.158 311.562C12.2688 311.562 11.7419 310.816 11.7419 309.634C11.7419 308.46 12.2739 307.714 13.158 307.714C14.0446 307.714 14.5688 308.457 14.5688 309.632C14.5688 310.814 14.0471 311.562 13.158 311.562ZM13.158 311.078C13.6874 311.078 13.988 310.531 13.988 309.634C13.988 308.75 13.6822 308.198 13.158 308.198C12.6337 308.198 12.3253 308.753 12.3253 309.634C12.3253 310.528 12.6286 311.078 13.158 311.078Z" fill="black"/>
<rect x="23.252" y="83.0059" width="493.225" height="1.59633" fill="#808080" fill-opacity="0.5"/>
<rect x="23.252" y="25.5371" width="493.225" height="1.59633" fill="#808080" fill-opacity="0.5"/>
<rect x="23.252" y="140.475" width="493.225" height="1.59634" fill="#808080" fill-opacity="0.5"/>
<rect x="23.252" y="199.537" width="493.225" height="1.59634" fill="#808080" fill-opacity="0.5"/>
<rect x="23.252" y="257.006" width="493.225" height="1.59632" fill="#808080" fill-opacity="0.5"/>
<rect x="23.252" y="314.475" width="493.225" height="1.5963" fill="#808080" fill-opacity="0.5"/>
<rect x="22.5469" y="25.5371" width="0.704606" height="300.11" fill="#808080" fill-opacity="0.5"/>
<rect x="445.311" y="27.1348" width="0.704618" height="298.514" fill="#808080" fill-opacity="0.5"/>
<rect x="515.773" y="27.1348" width="0.70459" height="298.514" fill="#808080" fill-opacity="0.5"/>
<rect x="92.3027" y="27.1348" width="0.704604" height="298.514" fill="#808080" fill-opacity="0.5"/>
<rect x="162.764" y="27.1348" width="0.704618" height="298.514" fill="#808080" fill-opacity="0.5"/>
<rect x="233.93" y="27.1348" width="0.704618" height="298.514" fill="#808080" fill-opacity="0.5"/>
<rect x="304.391" y="27.1348" width="0.70459" height="298.514" fill="#808080" fill-opacity="0.5"/>
<rect x="374.146" y="27.1348" width="0.70459" height="298.514" fill="#808080" fill-opacity="0.5"/>
<path d="M22.5469 258.07H92.5855V200.07H163.107V316.07H233.629V142.07H304.151V200.071H374.672V258.071H409.692H444.711L445.061 315.411H515.772" stroke="#55B1A5" stroke-width="0.877193"/>
<ellipse cx="92.8865" cy="258.324" rx="4.10526" ry="9.30073" fill="#55B1A5"/>
<ellipse cx="92.8865" cy="200.859" rx="4.10526" ry="9.30073" fill="#55B1A5"/>
<ellipse cx="163.346" cy="200.859" rx="4.10526" ry="9.30073" fill="#55B1A5"/>
<ellipse cx="163.346" cy="315.793" rx="4.10526" ry="9.30073" fill="#55B1A5"/>
<ellipse cx="233.808" cy="315.793" rx="4.10526" ry="9.30073" fill="#55B1A5"/>
<ellipse cx="233.808" cy="141.793" rx="4.10526" ry="9.30072" fill="#55B1A5"/>
<ellipse cx="304.267" cy="141.793" rx="4.10526" ry="9.30072" fill="#55B1A5"/>
<ellipse cx="304.267" cy="200.859" rx="4.10526" ry="9.30073" fill="#55B1A5"/>
<ellipse cx="374.728" cy="258.324" rx="4.10526" ry="9.30073" fill="#55B1A5"/>
<ellipse cx="445.189" cy="258.324" rx="4.10526" ry="9.30073" fill="#55B1A5"/>
<ellipse cx="445.189" cy="317.391" rx="4.10526" ry="9.30071" fill="#55B1A5"/>
<ellipse cx="515.65" cy="315.793" rx="4.10526" ry="9.30073" fill="#55B1A5"/>
<ellipse cx="374.728" cy="202.455" rx="4.10526" ry="9.30072" fill="#55B1A5"/>
<ellipse cx="23.1287" cy="256.728" rx="4.10526" ry="9.30073" fill="#55B1A5"/>
<rect x="479.529" y="4.63477" width="3.64912" height="8.28571" rx="1.82456" fill="#55B1A5"/>
<path d="M492.119 5.9594L493.221 2.78557H493.758L492.373 6.52734H491.99L492.119 5.9594ZM491.088 2.78557L492.18 5.9594L492.317 6.52734H491.934L490.551 2.78557H491.088ZM495.452 3.11708L494.213 6.52734H493.707L495.133 2.78557H495.46L495.452 3.11708ZM496.49 6.52734L495.249 3.11708L495.241 2.78557H495.568L496.999 6.52734H496.49ZM496.426 5.14217V5.54821H494.324V5.14217H496.426ZM499.769 6.12387V6.52734H497.898V6.12387H499.769ZM497.996 2.78557V6.52734H497.5V2.78557H497.996ZM502.339 2.78557H502.833V5.31692C502.833 5.5979 502.77 5.83176 502.645 6.0185C502.52 6.20525 502.354 6.34574 502.146 6.43997C501.941 6.53248 501.717 6.57874 501.476 6.57874C501.222 6.57874 500.993 6.53248 500.787 6.43997C500.583 6.34574 500.421 6.20525 500.301 6.0185C500.183 5.83176 500.124 5.5979 500.124 5.31692V2.78557H500.615V5.31692C500.615 5.51223 500.651 5.67328 500.723 5.80006C500.795 5.92684 500.895 6.02107 501.023 6.08275C501.154 6.14443 501.304 6.17527 501.476 6.17527C501.649 6.17527 501.8 6.14443 501.928 6.08275C502.058 6.02107 502.159 5.92684 502.231 5.80006C502.303 5.67328 502.339 5.51223 502.339 5.31692V2.78557ZM505.988 6.12387V6.52734H504.007V6.12387H505.988ZM504.107 2.78557V6.52734H503.611V2.78557H504.107ZM505.726 4.39433V4.7978H504.007V4.39433H505.726ZM505.963 2.78557V3.19161H504.007V2.78557H505.963ZM507.761 5.28094V5.25953C507.761 4.94828 507.796 4.66702 507.866 4.41574C507.936 4.16303 508.025 3.94174 508.133 3.75185C508.242 3.56196 508.356 3.40491 508.476 3.2807C508.596 3.15506 508.707 3.0644 508.808 3.00872L508.892 3.26999C508.807 3.33424 508.722 3.42276 508.635 3.53555C508.549 3.64834 508.47 3.78683 508.397 3.95102C508.326 4.11521 508.268 4.30581 508.223 4.52282C508.179 4.73983 508.157 4.98398 508.157 5.25524V5.28522C508.157 5.55649 508.179 5.80135 508.223 6.01979C508.268 6.2368 508.326 6.42812 508.397 6.59373C508.47 6.75935 508.549 6.89998 508.635 7.01562C508.722 7.1327 508.807 7.2255 508.892 7.29403L508.808 7.53389C508.707 7.47821 508.596 7.38755 508.476 7.26191C508.356 7.1377 508.242 6.98065 508.133 6.79076C508.025 6.6023 507.936 6.38172 507.866 6.12901C507.796 5.8763 507.761 5.59361 507.761 5.28094ZM511.194 4.71985V5.19528C511.194 5.45084 511.171 5.66643 511.125 5.84204C511.08 6.01765 511.014 6.15899 510.928 6.26607C510.843 6.37315 510.739 6.45096 510.618 6.4995C510.498 6.54662 510.362 6.57018 510.211 6.57018C510.091 6.57018 509.98 6.55518 509.879 6.5252C509.778 6.49522 509.686 6.44739 509.605 6.38172C509.525 6.31461 509.456 6.22752 509.399 6.12044C509.342 6.01336 509.299 5.88344 509.269 5.73067C509.239 5.57791 509.224 5.39944 509.224 5.19528V4.71985C509.224 4.46428 509.246 4.25013 509.292 4.07737C509.339 3.90462 509.406 3.76613 509.491 3.6619C509.577 3.55625 509.68 3.48058 509.8 3.4349C509.921 3.38921 510.057 3.36637 510.207 3.36637C510.328 3.36637 510.439 3.38136 510.541 3.41134C510.643 3.43989 510.735 3.48629 510.815 3.55054C510.895 3.61336 510.963 3.6976 511.018 3.80325C511.075 3.90747 511.119 4.03525 511.149 4.18659C511.179 4.33793 511.194 4.51568 511.194 4.71985ZM510.795 5.25953V4.65346C510.795 4.51354 510.787 4.39076 510.77 4.2851C510.754 4.17803 510.731 4.08665 510.699 4.01098C510.668 3.93531 510.628 3.87392 510.579 3.82681C510.532 3.77969 510.477 3.74543 510.414 3.72401C510.353 3.70117 510.284 3.68974 510.207 3.68974C510.112 3.68974 510.029 3.70759 509.956 3.74328C509.883 3.77755 509.822 3.83252 509.772 3.90819C509.723 3.98386 509.686 4.08308 509.66 4.20587C509.635 4.32865 509.622 4.47785 509.622 4.65346V5.25953C509.622 5.39944 509.63 5.52294 509.645 5.63002C509.663 5.7371 509.688 5.8299 509.72 5.90843C509.753 5.98552 509.793 6.04906 509.84 6.09903C509.887 6.149 509.942 6.18612 510.003 6.21039C510.066 6.23323 510.135 6.24465 510.211 6.24465C510.308 6.24465 510.393 6.22609 510.466 6.18897C510.538 6.15185 510.599 6.09403 510.648 6.01551C510.698 5.93555 510.735 5.83347 510.759 5.70926C510.783 5.58362 510.795 5.43371 510.795 5.25953ZM513.006 3.39206V6.52734H512.609V3.88677L511.811 4.17803V3.82038L512.943 3.39206H513.006ZM515.126 5.25953V5.28094C515.126 5.59361 515.091 5.8763 515.021 6.12901C514.951 6.38172 514.862 6.6023 514.753 6.79076C514.645 6.98065 514.53 7.1377 514.41 7.26191C514.291 7.38755 514.18 7.47821 514.079 7.53389L513.995 7.29403C514.079 7.22978 514.164 7.13984 514.25 7.02419C514.336 6.90997 514.415 6.76863 514.488 6.60016C514.56 6.43311 514.619 6.24037 514.663 6.02193C514.707 5.80206 514.73 5.55649 514.73 5.28522V5.25524C514.73 4.98398 514.706 4.73912 514.659 4.52068C514.612 4.30081 514.55 4.10735 514.475 3.94031C514.4 3.77327 514.321 3.63264 514.235 3.51842C514.151 3.40277 514.071 3.31354 513.995 3.25072L514.079 3.00872C514.18 3.0644 514.291 3.15506 514.41 3.2807C514.53 3.40491 514.645 3.56196 514.753 3.75185C514.862 3.94174 514.951 4.16303 515.021 4.41574C515.091 4.66702 515.126 4.94828 515.126 5.25953Z" fill="black"/>
</svg>
