<svg width="760" height="537" viewBox="0 0 760 537" fill="none" xmlns="http://www.w3.org/2000/svg">
<rect width="760" height="537" rx="8" fill="#F5F7FA"/>
<rect x="601" y="40" width="119" height="35" rx="16" fill="#D4AF37"/>
<path d="M622.651 63H621.358L625.097 52.8182H626.369L630.108 63H628.815L625.773 54.429H625.693L622.651 63ZM623.128 59.0227H628.338V60.1165H623.128V59.0227ZM631.535 65.8636V55.3636H632.668V56.5767H632.808C632.894 56.4441 633.013 56.2751 633.165 56.0696C633.321 55.8608 633.543 55.6752 633.832 55.5128C634.123 55.3471 634.518 55.2642 635.015 55.2642C635.658 55.2642 636.225 55.425 636.715 55.7464C637.206 56.0679 637.589 56.5237 637.864 57.1136C638.139 57.7036 638.276 58.3996 638.276 59.2017C638.276 60.0104 638.139 60.7114 637.864 61.3047C637.589 61.8946 637.207 62.352 636.72 62.6768C636.233 62.9983 635.671 63.1591 635.035 63.1591C634.544 63.1591 634.152 63.0779 633.857 62.9155C633.562 62.7498 633.335 62.5625 633.175 62.3537C633.016 62.1416 632.894 61.9659 632.808 61.8267H632.708V65.8636H631.535ZM632.688 59.1818C632.688 59.7585 632.773 60.2673 632.942 60.7081C633.111 61.1456 633.358 61.4886 633.683 61.7372C634.007 61.9825 634.405 62.1051 634.876 62.1051C635.366 62.1051 635.776 61.9759 636.104 61.7173C636.435 61.4555 636.684 61.1042 636.849 60.6634C637.018 60.2192 637.103 59.7254 637.103 59.1818C637.103 58.6449 637.02 58.161 636.854 57.7301C636.692 57.2959 636.445 56.9529 636.114 56.701C635.786 56.4458 635.373 56.3182 634.876 56.3182C634.398 56.3182 633.997 56.4392 633.673 56.6811C633.348 56.9197 633.103 57.2545 632.937 57.6854C632.771 58.1129 632.688 58.6117 632.688 59.1818ZM640.066 65.8636V55.3636H641.2V56.5767H641.339C641.425 56.4441 641.544 56.2751 641.697 56.0696C641.853 55.8608 642.075 55.6752 642.363 55.5128C642.655 55.3471 643.049 55.2642 643.546 55.2642C644.189 55.2642 644.756 55.425 645.246 55.7464C645.737 56.0679 646.12 56.5237 646.395 57.1136C646.67 57.7036 646.808 58.3996 646.808 59.2017C646.808 60.0104 646.67 60.7114 646.395 61.3047C646.12 61.8946 645.739 62.352 645.251 62.6768C644.764 62.9983 644.202 63.1591 643.566 63.1591C643.076 63.1591 642.683 63.0779 642.388 62.9155C642.093 62.7498 641.866 62.5625 641.707 62.3537C641.548 62.1416 641.425 61.9659 641.339 61.8267H641.239V65.8636H640.066ZM641.219 59.1818C641.219 59.7585 641.304 60.2673 641.473 60.7081C641.642 61.1456 641.889 61.4886 642.214 61.7372C642.539 61.9825 642.936 62.1051 643.407 62.1051C643.897 62.1051 644.307 61.9759 644.635 61.7173C644.966 61.4555 645.215 61.1042 645.381 60.6634C645.55 60.2192 645.634 59.7254 645.634 59.1818C645.634 58.6449 645.551 58.161 645.386 57.7301C645.223 57.2959 644.976 56.9529 644.645 56.701C644.317 56.4458 643.904 56.3182 643.407 56.3182C642.93 56.3182 642.529 56.4392 642.204 56.6811C641.879 56.9197 641.634 57.2545 641.468 57.6854C641.302 58.1129 641.219 58.6117 641.219 59.1818ZM649.771 52.8182V63H648.597V52.8182H649.771ZM652.675 65.8636C652.476 65.8636 652.299 65.8471 652.143 65.8139C651.988 65.7841 651.88 65.7543 651.82 65.7244L652.118 64.6903C652.403 64.7633 652.655 64.7898 652.874 64.7699C653.093 64.75 653.287 64.6522 653.456 64.4766C653.628 64.3042 653.786 64.0241 653.928 63.6364L654.147 63.0398L651.323 55.3636H652.596L654.704 61.4489H654.783L656.891 55.3636H658.164L654.922 64.1136C654.777 64.508 654.596 64.8345 654.381 65.093C654.165 65.3549 653.915 65.5488 653.63 65.6747C653.348 65.8007 653.03 65.8636 652.675 65.8636ZM672.002 56H670.769C670.696 55.6454 670.569 55.3338 670.387 55.0653C670.208 54.7969 669.989 54.5715 669.73 54.3892C669.475 54.2036 669.192 54.0644 668.88 53.9716C668.569 53.8788 668.244 53.8324 667.906 53.8324C667.289 53.8324 666.731 53.9882 666.23 54.2997C665.733 54.6113 665.337 55.0703 665.042 55.6768C664.75 56.2834 664.605 57.0275 664.605 57.9091C664.605 58.7907 664.75 59.5348 665.042 60.1413C665.337 60.7479 665.733 61.2069 666.23 61.5185C666.731 61.83 667.289 61.9858 667.906 61.9858C668.244 61.9858 668.569 61.9394 668.88 61.8466C669.192 61.7538 669.475 61.6162 669.73 61.4339C669.989 61.2483 670.208 61.0213 670.387 60.7528C670.569 60.4811 670.696 60.1695 670.769 59.8182H672.002C671.91 60.3385 671.74 60.8042 671.495 61.2152C671.25 61.6262 670.945 61.9759 670.58 62.2642C670.216 62.5492 669.807 62.7663 669.352 62.9155C668.902 63.0646 668.419 63.1392 667.906 63.1392C667.037 63.1392 666.265 62.9271 665.589 62.5028C664.913 62.0786 664.381 61.4754 663.993 60.6932C663.605 59.911 663.411 58.983 663.411 57.9091C663.411 56.8352 663.605 55.9072 663.993 55.125C664.381 54.3428 664.913 53.7396 665.589 53.3153C666.265 52.8911 667.037 52.679 667.906 52.679C668.419 52.679 668.902 52.7536 669.352 52.9027C669.807 53.0518 670.216 53.2706 670.58 53.5589C670.945 53.844 671.25 54.192 671.495 54.603C671.74 55.0107 671.91 55.4763 672.002 56ZM675.009 58.4062V63H673.836V52.8182H675.009V56.5568H675.108C675.287 56.1624 675.556 55.8492 675.914 55.6172C676.275 55.3819 676.756 55.2642 677.355 55.2642C677.876 55.2642 678.332 55.3686 678.723 55.5774C679.114 55.7829 679.417 56.0994 679.632 56.527C679.851 56.9512 679.961 57.4915 679.961 58.1477V63H678.787V58.2273C678.787 57.6207 678.63 57.1518 678.315 56.8203C678.003 56.4856 677.571 56.3182 677.017 56.3182C676.633 56.3182 676.288 56.3994 675.983 56.5618C675.682 56.7242 675.443 56.9612 675.267 57.2727C675.095 57.5843 675.009 57.9621 675.009 58.4062ZM684.354 63.179C683.87 63.179 683.431 63.0878 683.037 62.9055C682.642 62.7199 682.329 62.4531 682.097 62.1051C681.865 61.7538 681.749 61.3295 681.749 60.8324C681.749 60.3949 681.835 60.0402 682.008 59.7685C682.18 59.4934 682.41 59.2779 682.699 59.1222C682.987 58.9664 683.305 58.8504 683.653 58.7741C684.005 58.6946 684.358 58.6316 684.712 58.5852C685.176 58.5256 685.552 58.4808 685.841 58.451C686.132 58.4179 686.345 58.3632 686.477 58.2869C686.613 58.2107 686.681 58.0781 686.681 57.8892V57.8494C686.681 57.3589 686.547 56.9777 686.278 56.706C686.013 56.4342 685.61 56.2983 685.07 56.2983C684.51 56.2983 684.071 56.4209 683.753 56.6662C683.434 56.9115 683.211 57.1733 683.081 57.4517L681.968 57.054C682.167 56.59 682.432 56.2287 682.763 55.9702C683.098 55.7083 683.463 55.526 683.857 55.4233C684.255 55.3172 684.646 55.2642 685.03 55.2642C685.276 55.2642 685.557 55.294 685.876 55.3537C686.197 55.41 686.507 55.5277 686.805 55.7067C687.107 55.8857 687.357 56.1558 687.556 56.517C687.755 56.8783 687.854 57.3622 687.854 57.9688V63H686.681V61.9659H686.621C686.542 62.1316 686.409 62.3089 686.224 62.4979C686.038 62.6868 685.791 62.8475 685.483 62.9801C685.175 63.1127 684.798 63.179 684.354 63.179ZM684.533 62.125C684.997 62.125 685.388 62.0339 685.706 61.8516C686.028 61.6693 686.27 61.4339 686.432 61.1456C686.598 60.8572 686.681 60.554 686.681 60.2358V59.1619C686.631 59.2216 686.522 59.2763 686.353 59.326C686.187 59.3724 685.995 59.4138 685.776 59.4503C685.561 59.4834 685.35 59.5133 685.145 59.5398C684.943 59.563 684.778 59.5829 684.653 59.5994C684.348 59.6392 684.063 59.7038 683.797 59.7933C683.536 59.8795 683.323 60.0104 683.161 60.1861C683.002 60.3584 682.922 60.5937 682.922 60.892C682.922 61.2997 683.073 61.608 683.375 61.8168C683.68 62.0223 684.066 62.125 684.533 62.125ZM689.996 63V55.3636H691.129V56.517H691.209C691.348 56.1392 691.6 55.8326 691.964 55.5973C692.329 55.362 692.74 55.2443 693.197 55.2443C693.284 55.2443 693.391 55.246 693.521 55.2493C693.65 55.2526 693.748 55.2576 693.814 55.2642V56.4574C693.774 56.4474 693.683 56.4325 693.54 56.4126C693.401 56.3894 693.254 56.3778 693.098 56.3778C692.727 56.3778 692.395 56.4557 692.104 56.6115C691.815 56.764 691.587 56.9761 691.418 57.2479C691.252 57.5163 691.169 57.8229 691.169 58.1676V63H689.996ZM699.004 55.3636V56.358H695.047V55.3636H699.004ZM696.2 53.5341H697.374V60.8125C697.374 61.1439 697.422 61.3925 697.518 61.5582C697.617 61.7206 697.743 61.83 697.896 61.8864C698.051 61.9394 698.215 61.9659 698.388 61.9659C698.517 61.9659 698.623 61.9593 698.706 61.946C698.789 61.9295 698.855 61.9162 698.905 61.9062L699.143 62.9602C699.064 62.9901 698.953 63.0199 698.81 63.0497C698.668 63.0829 698.487 63.0994 698.268 63.0994C697.937 63.0994 697.612 63.0282 697.294 62.8857C696.979 62.7431 696.717 62.526 696.509 62.2344C696.303 61.9427 696.2 61.5748 696.2 61.1307V53.5341Z" fill="white"/>
<path d="M41.3899 63V51.3636H45.8445C46.6854 51.3636 47.3842 51.4962 47.9411 51.7614C48.5017 52.0227 48.9202 52.3807 49.1967 52.8352C49.477 53.2898 49.6172 53.8049 49.6172 54.3807C49.6172 54.8542 49.5263 55.2595 49.3445 55.5966C49.1626 55.9299 48.9183 56.2008 48.6115 56.4091C48.3047 56.6174 47.9619 56.767 47.5831 56.858V56.9716C47.996 56.9943 48.3918 57.1212 48.7706 57.3523C49.1532 57.5795 49.4657 57.9015 49.7081 58.3182C49.9505 58.7348 50.0717 59.2386 50.0717 59.8295C50.0717 60.4318 49.9259 60.9735 49.6342 61.4545C49.3426 61.9318 48.9032 62.3087 48.3161 62.5852C47.7289 62.8617 46.9903 63 46.1001 63H41.3899ZM43.4979 61.2386H45.7649C46.5301 61.2386 47.0812 61.0928 47.4183 60.8011C47.7592 60.5057 47.9297 60.1269 47.9297 59.6648C47.9297 59.3201 47.8445 59.0095 47.674 58.733C47.5036 58.4527 47.2611 58.233 46.9467 58.0739C46.6323 57.911 46.2573 57.8295 45.8217 57.8295H43.4979V61.2386ZM43.4979 56.3125H45.5831C45.9467 56.3125 46.2744 56.2462 46.5661 56.1136C46.8577 55.9773 47.0869 55.786 47.2536 55.5398C47.424 55.2898 47.5092 54.9943 47.5092 54.6534C47.5092 54.2027 47.3501 53.8314 47.032 53.5398C46.7176 53.2481 46.2498 53.1023 45.6286 53.1023H43.4979V56.3125ZM54.326 63.1761C53.773 63.1761 53.2749 63.0777 52.8317 62.8807C52.3923 62.6799 52.0438 62.3845 51.7862 61.9943C51.5324 61.6042 51.4055 61.1231 51.4055 60.5511C51.4055 60.0587 51.4964 59.6515 51.6783 59.3295C51.8601 59.0076 52.1082 58.75 52.4226 58.5568C52.737 58.3636 53.0911 58.2178 53.4851 58.1193C53.8828 58.017 54.2938 57.9432 54.718 57.8977C55.2294 57.8447 55.6442 57.7973 55.9624 57.7557C56.2805 57.7102 56.5116 57.642 56.6555 57.5511C56.8033 57.4564 56.8771 57.3106 56.8771 57.1136V57.0795C56.8771 56.6515 56.7502 56.3201 56.4964 56.0852C56.2427 55.8504 55.8771 55.733 55.3999 55.733C54.8961 55.733 54.4964 55.8428 54.201 56.0625C53.9093 56.2822 53.7124 56.5417 53.6101 56.8409L51.6896 56.5682C51.8411 56.0379 52.0911 55.5947 52.4396 55.2386C52.7881 54.8788 53.2143 54.6098 53.718 54.4318C54.2218 54.25 54.7786 54.1591 55.3885 54.1591C55.8089 54.1591 56.2275 54.2083 56.6442 54.3068C57.0608 54.4053 57.4415 54.5682 57.7862 54.7955C58.1309 55.0189 58.4074 55.3239 58.6158 55.7102C58.8279 56.0966 58.9339 56.5795 58.9339 57.1591V63H56.9567V61.8011H56.8885C56.7635 62.0436 56.5874 62.2708 56.3601 62.483C56.1366 62.6913 55.8544 62.8598 55.5135 62.9886C55.1764 63.1136 54.7805 63.1761 54.326 63.1761ZM54.8601 61.6648C55.273 61.6648 55.6309 61.5833 55.9339 61.4205C56.237 61.2538 56.4699 61.0341 56.6328 60.7614C56.7995 60.4886 56.8828 60.1913 56.8828 59.8693V58.8409C56.8184 58.8939 56.7086 58.9432 56.5533 58.9886C56.4018 59.0341 56.2313 59.0739 56.0419 59.108C55.8525 59.142 55.665 59.1723 55.4794 59.1989C55.2938 59.2254 55.1328 59.2481 54.9964 59.267C54.6896 59.3087 54.415 59.3769 54.1726 59.4716C53.9302 59.5663 53.7389 59.6989 53.5987 59.8693C53.4586 60.036 53.3885 60.2519 53.3885 60.517C53.3885 60.8958 53.5268 61.1818 53.8033 61.375C54.0798 61.5682 54.4321 61.6648 54.8601 61.6648ZM61.0021 63V54.2727H62.9964V55.7273H63.0874C63.2464 55.2235 63.5192 54.8352 63.9055 54.5625C64.2957 54.286 64.7408 54.1477 65.2408 54.1477C65.3544 54.1477 65.4813 54.1534 65.6214 54.1648C65.7654 54.1723 65.8847 54.1856 65.9794 54.2045V56.0966C65.8923 56.0663 65.754 56.0398 65.5646 56.017C65.379 55.9905 65.1991 55.9773 65.0249 55.9773C64.6499 55.9773 64.3127 56.0587 64.0135 56.2216C63.718 56.3807 63.4851 56.6023 63.3146 56.8864C63.1442 57.1705 63.0589 57.4981 63.0589 57.8693V63H61.0021ZM77.7294 54.5625C77.6764 54.0663 77.4529 53.6799 77.0589 53.4034C76.6688 53.1269 76.1612 52.9886 75.5362 52.9886C75.0968 52.9886 74.7199 53.0549 74.4055 53.1875C74.0911 53.3201 73.8506 53.5 73.6839 53.7273C73.5173 53.9545 73.4321 54.214 73.4283 54.5057C73.4283 54.7481 73.4832 54.9583 73.593 55.1364C73.7067 55.3144 73.8601 55.4659 74.0533 55.5909C74.2464 55.7121 74.4605 55.8144 74.6953 55.8977C74.9302 55.9811 75.1669 56.0511 75.4055 56.108L76.4964 56.3807C76.9358 56.483 77.3582 56.6212 77.7635 56.7955C78.1726 56.9697 78.5381 57.1894 78.8601 57.4545C79.1858 57.7197 79.4434 58.0398 79.6328 58.4148C79.8222 58.7898 79.9169 59.2292 79.9169 59.733C79.9169 60.4148 79.7427 61.0152 79.3942 61.5341C79.0457 62.0492 78.5419 62.4527 77.8828 62.7443C77.2275 63.0322 76.4339 63.1761 75.5021 63.1761C74.5968 63.1761 73.8108 63.036 73.1442 62.7557C72.4813 62.4754 71.9624 62.0663 71.5874 61.5284C71.2161 60.9905 71.0154 60.3352 70.9851 59.5625H73.0589C73.0893 59.9678 73.2143 60.3049 73.4339 60.5739C73.6536 60.8428 73.9396 61.0436 74.2919 61.1761C74.648 61.3087 75.0457 61.375 75.4851 61.375C75.9434 61.375 76.3449 61.3068 76.6896 61.1705C77.0381 61.0303 77.3108 60.8371 77.5078 60.5909C77.7048 60.3409 77.8052 60.0492 77.8089 59.7159C77.8052 59.4129 77.7161 59.1629 77.5419 58.9659C77.3677 58.7652 77.1233 58.5985 76.8089 58.4659C76.4983 58.3295 76.1347 58.2083 75.718 58.1023L74.3942 57.7614C73.4358 57.5152 72.6783 57.142 72.1214 56.642C71.5684 56.1383 71.2919 55.4697 71.2919 54.6364C71.2919 53.9508 71.4775 53.3504 71.8487 52.8352C72.2237 52.3201 72.7332 51.9205 73.3771 51.6364C74.0211 51.3485 74.7502 51.2045 75.5646 51.2045C76.3904 51.2045 77.1139 51.3485 77.7351 51.6364C78.3601 51.9205 78.8506 52.3163 79.2067 52.8239C79.5627 53.3277 79.7464 53.9072 79.7578 54.5625H77.7294ZM86.0632 54.2727V55.8636H81.0462V54.2727H86.0632ZM82.2848 52.1818H84.3416V60.375C84.3416 60.6515 84.3833 60.8636 84.4666 61.0114C84.5537 61.1553 84.6674 61.2538 84.8075 61.3068C84.9477 61.3598 85.103 61.3864 85.2734 61.3864C85.4022 61.3864 85.5196 61.3769 85.6257 61.358C85.7356 61.339 85.8189 61.322 85.8757 61.3068L86.2223 62.9148C86.1125 62.9527 85.9553 62.9943 85.7507 63.0398C85.55 63.0852 85.3037 63.1117 85.0121 63.1193C84.4969 63.1345 84.0329 63.0568 83.62 62.8864C83.2071 62.7121 82.8795 62.4432 82.6371 62.0795C82.3984 61.7159 82.281 61.2614 82.2848 60.7159V52.1818ZM90.2947 63.1761C89.7417 63.1761 89.2436 63.0777 88.8004 62.8807C88.361 62.6799 88.0125 62.3845 87.755 61.9943C87.5012 61.6042 87.3743 61.1231 87.3743 60.5511C87.3743 60.0587 87.4652 59.6515 87.647 59.3295C87.8288 59.0076 88.0769 58.75 88.3913 58.5568C88.7057 58.3636 89.0599 58.2178 89.4538 58.1193C89.8516 58.017 90.2625 57.9432 90.6868 57.8977C91.1982 57.8447 91.6129 57.7973 91.9311 57.7557C92.2493 57.7102 92.4804 57.642 92.6243 57.5511C92.772 57.4564 92.8459 57.3106 92.8459 57.1136V57.0795C92.8459 56.6515 92.719 56.3201 92.4652 56.0852C92.2114 55.8504 91.8459 55.733 91.3686 55.733C90.8648 55.733 90.4652 55.8428 90.1697 56.0625C89.8781 56.2822 89.6811 56.5417 89.5788 56.8409L87.6584 56.5682C87.8099 56.0379 88.0599 55.5947 88.4084 55.2386C88.7569 54.8788 89.183 54.6098 89.6868 54.4318C90.1906 54.25 90.7474 54.1591 91.3572 54.1591C91.7777 54.1591 92.1963 54.2083 92.6129 54.3068C93.0296 54.4053 93.4103 54.5682 93.755 54.7955C94.0997 55.0189 94.3762 55.3239 94.5845 55.7102C94.7966 56.0966 94.9027 56.5795 94.9027 57.1591V63H92.9254V61.8011H92.8572C92.7322 62.0436 92.5561 62.2708 92.3288 62.483C92.1054 62.6913 91.8232 62.8598 91.4822 62.9886C91.1451 63.1136 90.7493 63.1761 90.2947 63.1761ZM90.8288 61.6648C91.2417 61.6648 91.5997 61.5833 91.9027 61.4205C92.2057 61.2538 92.4387 61.0341 92.6016 60.7614C92.7682 60.4886 92.8516 60.1913 92.8516 59.8693V58.8409C92.7872 58.8939 92.6773 58.9432 92.522 58.9886C92.3705 59.0341 92.2 59.0739 92.0107 59.108C91.8213 59.142 91.6338 59.1723 91.4482 59.1989C91.2625 59.2254 91.1016 59.2481 90.9652 59.267C90.6584 59.3087 90.3838 59.3769 90.1413 59.4716C89.8989 59.5663 89.7076 59.6989 89.5675 59.8693C89.4273 60.036 89.3572 60.2519 89.3572 60.517C89.3572 60.8958 89.4955 61.1818 89.772 61.375C90.0485 61.5682 90.4008 61.6648 90.8288 61.6648ZM100.778 63.1705C99.9065 63.1705 99.1584 62.9792 98.5334 62.5966C97.9122 62.214 97.433 61.6856 97.0959 61.0114C96.7625 60.3333 96.5959 59.553 96.5959 58.6705C96.5959 57.7841 96.7663 57.0019 97.1072 56.3239C97.4482 55.642 97.9292 55.1117 98.5504 54.733C99.1754 54.3504 99.9141 54.1591 100.766 54.1591C101.475 54.1591 102.102 54.2898 102.647 54.5511C103.196 54.8087 103.634 55.1742 103.96 55.6477C104.285 56.1174 104.471 56.6667 104.516 57.2955H102.55C102.471 56.875 102.281 56.5246 101.982 56.2443C101.687 55.9602 101.291 55.8182 100.795 55.8182C100.374 55.8182 100.005 55.9318 99.6868 56.1591C99.3686 56.3826 99.1205 56.7045 98.9425 57.125C98.7682 57.5455 98.6811 58.0492 98.6811 58.6364C98.6811 59.2311 98.7682 59.7424 98.9425 60.1705C99.1167 60.5947 99.361 60.9223 99.6754 61.1534C99.9936 61.3807 100.367 61.4943 100.795 61.4943C101.098 61.4943 101.369 61.4375 101.607 61.3239C101.85 61.2064 102.052 61.0379 102.215 60.8182C102.378 60.5985 102.49 60.3314 102.55 60.017H104.516C104.467 60.6345 104.285 61.1818 103.971 61.6591C103.656 62.1326 103.228 62.5038 102.687 62.7727C102.145 63.0379 101.509 63.1705 100.778 63.1705ZM108.08 60.2614L108.075 57.7784H108.404L111.54 54.2727H113.944L110.086 58.5682H109.66L108.08 60.2614ZM106.205 63V51.3636H108.262V63H106.205ZM111.683 63L108.842 59.0284L110.228 57.5795L114.143 63H111.683ZM118.819 63.1705C117.944 63.1705 117.188 62.9886 116.552 62.625C115.919 62.2576 115.433 61.7386 115.092 61.0682C114.751 60.3939 114.58 59.6004 114.58 58.6875C114.58 57.7898 114.751 57.0019 115.092 56.3239C115.436 55.642 115.917 55.1117 116.535 54.733C117.152 54.3504 117.878 54.1591 118.711 54.1591C119.249 54.1591 119.756 54.2462 120.234 54.4205C120.715 54.5909 121.139 54.8561 121.506 55.2159C121.878 55.5758 122.169 56.0341 122.381 56.5909C122.594 57.1439 122.7 57.803 122.7 58.5682V59.1989H115.546V57.8125H120.728C120.724 57.4186 120.639 57.0682 120.472 56.7614C120.306 56.4508 120.073 56.2064 119.773 56.0284C119.478 55.8504 119.133 55.7614 118.739 55.7614C118.319 55.7614 117.95 55.8636 117.631 56.0682C117.313 56.2689 117.065 56.5341 116.887 56.8636C116.713 57.1894 116.624 57.5473 116.62 57.9375V59.1477C116.62 59.6553 116.713 60.0909 116.898 60.4545C117.084 60.8144 117.344 61.0909 117.677 61.2841C118.01 61.4735 118.4 61.5682 118.847 61.5682C119.147 61.5682 119.417 61.5265 119.66 61.4432C119.902 61.3561 120.112 61.2292 120.29 61.0625C120.469 60.8958 120.603 60.6894 120.694 60.4432L122.614 60.6591C122.493 61.1667 122.262 61.6098 121.921 61.9886C121.584 62.3636 121.152 62.6553 120.626 62.8636C120.099 63.0682 119.497 63.1705 118.819 63.1705ZM127.678 63.1534C126.993 63.1534 126.379 62.9773 125.837 62.625C125.296 62.2727 124.868 61.7614 124.553 61.0909C124.239 60.4205 124.082 59.6061 124.082 58.6477C124.082 57.678 124.241 56.8598 124.559 56.1932C124.881 55.5227 125.315 55.017 125.86 54.6761C126.406 54.3314 127.013 54.1591 127.684 54.1591C128.195 54.1591 128.616 54.2462 128.945 54.4205C129.275 54.5909 129.536 54.7973 129.729 55.0398C129.923 55.2784 130.072 55.5038 130.178 55.7159H130.263V51.3636H132.326V63H130.303V61.625H130.178C130.072 61.8371 129.919 62.0625 129.718 62.3011C129.517 62.536 129.252 62.7367 128.923 62.9034C128.593 63.0701 128.178 63.1534 127.678 63.1534ZM128.252 61.4659C128.688 61.4659 129.059 61.3485 129.366 61.1136C129.673 60.875 129.906 60.5436 130.065 60.1193C130.224 59.6951 130.303 59.2008 130.303 58.6364C130.303 58.072 130.224 57.5814 130.065 57.1648C129.909 56.7481 129.678 56.4242 129.371 56.1932C129.068 55.9621 128.695 55.8466 128.252 55.8466C127.794 55.8466 127.411 55.9659 127.104 56.2045C126.798 56.4432 126.567 56.7727 126.411 57.1932C126.256 57.6136 126.178 58.0947 126.178 58.6364C126.178 59.1818 126.256 59.6686 126.411 60.0966C126.57 60.5208 126.803 60.8561 127.11 61.1023C127.421 61.3447 127.801 61.4659 128.252 61.4659ZM141.964 63.1705C141.168 63.1705 140.485 63.0265 139.913 62.7386C139.341 62.4508 138.899 62.0625 138.589 61.5739C138.282 61.0814 138.129 60.5265 138.129 59.9091C138.129 59.4432 138.223 59.0303 138.413 58.6705C138.606 58.3106 138.871 57.9773 139.208 57.6705C139.549 57.3636 139.943 57.0587 140.39 56.7557L142.452 55.3523C142.755 55.1553 142.985 54.947 143.14 54.7273C143.299 54.5076 143.379 54.25 143.379 53.9545C143.379 53.7045 143.272 53.4678 143.06 53.2443C142.852 53.0208 142.564 52.9091 142.197 52.9091C141.951 52.9091 141.733 52.9678 141.543 53.0852C141.358 53.1989 141.212 53.3485 141.106 53.5341C141.004 53.7197 140.952 53.9167 140.952 54.125C140.952 54.3788 141.022 54.6364 141.163 54.8977C141.307 55.1591 141.492 55.4299 141.719 55.7102C141.951 55.9905 142.197 56.2879 142.458 56.6023L147.918 63H145.691L141.157 57.8068C140.82 57.4129 140.494 57.0246 140.18 56.642C139.869 56.2595 139.613 55.8617 139.413 55.4489C139.216 55.0322 139.117 54.5814 139.117 54.0966C139.117 53.5473 139.244 53.0568 139.498 52.625C139.752 52.1894 140.106 51.8466 140.56 51.5966C141.019 51.3466 141.555 51.2216 142.168 51.2216C142.782 51.2216 143.308 51.3428 143.748 51.5852C144.187 51.8277 144.526 52.1496 144.765 52.5511C145.004 52.9527 145.123 53.3902 145.123 53.8636C145.123 54.4129 144.987 54.9053 144.714 55.3409C144.441 55.7727 144.062 56.1648 143.577 56.517L141.225 58.2386C140.839 58.5189 140.562 58.803 140.396 59.0909C140.229 59.375 140.146 59.6174 140.146 59.8182C140.146 60.125 140.223 60.4034 140.379 60.6534C140.534 60.9034 140.752 61.1042 141.032 61.2557C141.316 61.4034 141.647 61.4773 142.026 61.4773C142.443 61.4773 142.854 61.3845 143.259 61.1989C143.665 61.0095 144.034 60.7405 144.367 60.392C144.701 60.0436 144.966 59.6269 145.163 59.142C145.36 58.6534 145.458 58.1117 145.458 57.517H147.225C147.225 58.2519 147.144 58.892 146.981 59.4375C146.818 59.9792 146.608 60.4375 146.35 60.8125C146.093 61.1837 145.82 61.4811 145.532 61.7045C145.441 61.7689 145.354 61.8333 145.271 61.8977C145.187 61.9621 145.1 62.0265 145.009 62.0909C144.6 62.4621 144.121 62.7348 143.572 62.9091C143.026 63.0833 142.49 63.1705 141.964 63.1705ZM153.156 51.3636H155.735L159.19 59.7955H159.326L162.781 51.3636H165.36V63H163.337V55.0057H163.229L160.013 62.9659H158.502L155.286 54.9886H155.178V63H153.156V51.3636ZM173.127 59.3295V54.2727H175.184V63H173.19V61.4489H173.099C172.902 61.9375 172.578 62.3371 172.127 62.6477C171.68 62.9583 171.129 63.1136 170.474 63.1136C169.902 63.1136 169.396 62.9867 168.957 62.733C168.521 62.4754 168.18 62.1023 167.934 61.6136C167.688 61.1212 167.565 60.5265 167.565 59.8295V54.2727H169.621V59.5114C169.621 60.0644 169.773 60.5038 170.076 60.8295C170.379 61.1553 170.777 61.3182 171.269 61.3182C171.572 61.3182 171.866 61.2443 172.15 61.0966C172.434 60.9489 172.667 60.7292 172.849 60.4375C173.034 60.142 173.127 59.7727 173.127 59.3295ZM179.356 51.3636V63H177.299V51.3636H179.356ZM185.829 54.2727V55.8636H180.812V54.2727H185.829ZM182.05 52.1818H184.107V60.375C184.107 60.6515 184.149 60.8636 184.232 61.0114C184.319 61.1553 184.433 61.2538 184.573 61.3068C184.713 61.3598 184.869 61.3864 185.039 61.3864C185.168 61.3864 185.285 61.3769 185.391 61.358C185.501 61.339 185.585 61.322 185.641 61.3068L185.988 62.9148C185.878 62.9527 185.721 62.9943 185.516 63.0398C185.316 63.0852 185.069 63.1117 184.778 63.1193C184.263 63.1345 183.799 63.0568 183.386 62.8864C182.973 62.7121 182.645 62.4432 182.403 62.0795C182.164 61.7159 182.047 61.2614 182.05 60.7159V52.1818ZM187.549 63V54.2727H189.606V63H187.549ZM188.583 53.0341C188.257 53.0341 187.977 52.9261 187.742 52.7102C187.507 52.4905 187.39 52.2273 187.39 51.9205C187.39 51.6098 187.507 51.3466 187.742 51.1307C187.977 50.911 188.257 50.8011 188.583 50.8011C188.913 50.8011 189.193 50.911 189.424 51.1307C189.659 51.3466 189.776 51.6098 189.776 51.9205C189.776 52.2273 189.659 52.4905 189.424 52.7102C189.193 52.9261 188.913 53.0341 188.583 53.0341ZM191.721 66.2727V54.2727H193.744V55.7159H193.863C193.969 55.5038 194.119 55.2784 194.312 55.0398C194.505 54.7973 194.766 54.5909 195.096 54.4205C195.425 54.2462 195.846 54.1591 196.357 54.1591C197.031 54.1591 197.639 54.3314 198.181 54.6761C198.727 55.017 199.158 55.5227 199.477 56.1932C199.799 56.8598 199.96 57.678 199.96 58.6477C199.96 59.6061 199.802 60.4205 199.488 61.0909C199.174 61.7614 198.746 62.2727 198.204 62.625C197.662 62.9773 197.049 63.1534 196.363 63.1534C195.863 63.1534 195.448 63.0701 195.119 62.9034C194.789 62.7367 194.524 62.536 194.323 62.3011C194.126 62.0625 193.973 61.8371 193.863 61.625H193.778V66.2727H191.721ZM193.738 58.6364C193.738 59.2008 193.817 59.6951 193.977 60.1193C194.139 60.5436 194.372 60.875 194.675 61.1136C194.982 61.3485 195.353 61.4659 195.789 61.4659C196.244 61.4659 196.624 61.3447 196.931 61.1023C197.238 60.8561 197.469 60.5208 197.624 60.0966C197.783 59.6686 197.863 59.1818 197.863 58.6364C197.863 58.0947 197.785 57.6136 197.63 57.1932C197.475 56.7727 197.244 56.4432 196.937 56.2045C196.63 55.9659 196.247 55.8466 195.789 55.8466C195.35 55.8466 194.977 55.9621 194.67 56.1932C194.363 56.4242 194.13 56.7481 193.971 57.1648C193.816 57.5814 193.738 58.072 193.738 58.6364ZM203.778 51.3636V63H201.721V51.3636H203.778ZM209.756 63.1705C208.881 63.1705 208.126 62.9886 207.489 62.625C206.857 62.2576 206.37 61.7386 206.029 61.0682C205.688 60.3939 205.518 59.6004 205.518 58.6875C205.518 57.7898 205.688 57.0019 206.029 56.3239C206.374 55.642 206.855 55.1117 207.472 54.733C208.09 54.3504 208.815 54.1591 209.648 54.1591C210.186 54.1591 210.694 54.2462 211.171 54.4205C211.652 54.5909 212.076 54.8561 212.444 55.2159C212.815 55.5758 213.107 56.0341 213.319 56.5909C213.531 57.1439 213.637 57.803 213.637 58.5682V59.1989H206.484V57.8125H211.665C211.662 57.4186 211.576 57.0682 211.41 56.7614C211.243 56.4508 211.01 56.2064 210.711 56.0284C210.415 55.8504 210.071 55.7614 209.677 55.7614C209.256 55.7614 208.887 55.8636 208.569 56.0682C208.251 56.2689 208.003 56.5341 207.825 56.8636C207.65 57.1894 207.561 57.5473 207.558 57.9375V59.1477C207.558 59.6553 207.65 60.0909 207.836 60.4545C208.022 60.8144 208.281 61.0909 208.614 61.2841C208.948 61.4735 209.338 61.5682 209.785 61.5682C210.084 61.5682 210.355 61.5265 210.597 61.4432C210.84 61.3561 211.05 61.2292 211.228 61.0625C211.406 60.8958 211.54 60.6894 211.631 60.4432L213.552 60.6591C213.431 61.1667 213.2 61.6098 212.859 61.9886C212.522 62.3636 212.09 62.6553 211.563 62.8636C211.037 63.0682 210.434 63.1705 209.756 63.1705ZM219.437 63V51.3636H221.545V61.233H226.67V63H219.437ZM228.408 63V54.2727H230.465V63H228.408ZM229.442 53.0341C229.117 53.0341 228.836 52.9261 228.602 52.7102C228.367 52.4905 228.249 52.2273 228.249 51.9205C228.249 51.6098 228.367 51.3466 228.602 51.1307C228.836 50.911 229.117 50.8011 229.442 50.8011C229.772 50.8011 230.052 50.911 230.283 51.1307C230.518 51.3466 230.636 51.6098 230.636 51.9205C230.636 52.2273 230.518 52.4905 230.283 52.7102C230.052 52.9261 229.772 53.0341 229.442 53.0341ZM234.637 57.8864V63H232.58V54.2727H234.546V55.7557H234.648C234.849 55.267 235.169 54.8788 235.609 54.5909C236.052 54.303 236.599 54.1591 237.251 54.1591C237.853 54.1591 238.378 54.2879 238.825 54.5455C239.275 54.803 239.624 55.1761 239.87 55.6648C240.12 56.1534 240.243 56.7462 240.239 57.4432V63H238.183V57.7614C238.183 57.178 238.031 56.7216 237.728 56.392C237.429 56.0625 237.014 55.8977 236.484 55.8977C236.124 55.8977 235.804 55.9773 235.523 56.1364C235.247 56.2917 235.029 56.517 234.87 56.8125C234.715 57.108 234.637 57.4659 234.637 57.8864ZM246.194 63.1705C245.319 63.1705 244.563 62.9886 243.927 62.625C243.294 62.2576 242.808 61.7386 242.467 61.0682C242.126 60.3939 241.955 59.6004 241.955 58.6875C241.955 57.7898 242.126 57.0019 242.467 56.3239C242.811 55.642 243.292 55.1117 243.91 54.733C244.527 54.3504 245.253 54.1591 246.086 54.1591C246.624 54.1591 247.131 54.2462 247.609 54.4205C248.09 54.5909 248.514 54.8561 248.881 55.2159C249.253 55.5758 249.544 56.0341 249.756 56.5909C249.969 57.1439 250.075 57.803 250.075 58.5682V59.1989H242.921V57.8125H248.103C248.099 57.4186 248.014 57.0682 247.847 56.7614C247.681 56.4508 247.448 56.2064 247.148 56.0284C246.853 55.8504 246.508 55.7614 246.114 55.7614C245.694 55.7614 245.325 55.8636 245.006 56.0682C244.688 56.2689 244.44 56.5341 244.262 56.8636C244.088 57.1894 243.999 57.5473 243.995 57.9375V59.1477C243.995 59.6553 244.088 60.0909 244.273 60.4545C244.459 60.8144 244.719 61.0909 245.052 61.2841C245.385 61.4735 245.775 61.5682 246.222 61.5682C246.522 61.5682 246.792 61.5265 247.035 61.4432C247.277 61.3561 247.487 61.2292 247.665 61.0625C247.844 60.8958 247.978 60.6894 248.069 60.4432L249.989 60.6591C249.868 61.1667 249.637 61.6098 249.296 61.9886C248.959 62.3636 248.527 62.6553 248.001 62.8636C247.474 63.0682 246.872 63.1705 246.194 63.1705Z" fill="#212121"/>
<g clip-path="url(#clip0_964_4421)">
<rect width="450" height="338.4" transform="translate(175 150)" fill="white"/>
<path d="M229.254 434.852H579.409" stroke="#F0F0F0" stroke-width="0.9" stroke-dasharray="3.6 1.8"/>
<path d="M229.254 385.352H579.409" stroke="#F0F0F0" stroke-width="0.9" stroke-dasharray="3.6 1.8"/>
<path d="M229.254 334.949H579.409" stroke="#F0F0F0" stroke-width="0.9" stroke-dasharray="3.6 1.8"/>
<path d="M229.254 285.449H579.409" stroke="#F0F0F0" stroke-width="0.9" stroke-dasharray="3.6 1.8"/>
<path d="M229.254 235.949H579.409" stroke="#F0F0F0" stroke-width="0.9" stroke-dasharray="3.6 1.8"/>
<path d="M229.254 186.449H579.409" stroke="#F0F0F0" stroke-width="0.9" stroke-dasharray="3.6 1.8"/>
<path d="M229.254 434.852H579.409" stroke="#F0F0F0" stroke-width="0.9" stroke-dasharray="3.6 1.8"/>
<path d="M229.254 385.352H579.409" stroke="#F0F0F0" stroke-width="0.9" stroke-dasharray="3.6 1.8"/>
<path d="M229.254 334.949H579.409" stroke="#F0F0F0" stroke-width="0.9" stroke-dasharray="3.6 1.8"/>
<path d="M229.254 285.449H579.409" stroke="#F0F0F0" stroke-width="0.9" stroke-dasharray="3.6 1.8"/>
<path d="M229.254 235.949H579.409" stroke="#F0F0F0" stroke-width="0.9" stroke-dasharray="3.6 1.8"/>
<path d="M229.254 186.449H579.409" stroke="#F0F0F0" stroke-width="0.9" stroke-dasharray="3.6 1.8"/>
<path d="M229.254 434.852H579.409" stroke="#F0F0F0" stroke-width="0.9" stroke-linecap="round"/>
<path d="M254.182 434.398V438.898" stroke="#D9D9D9" stroke-width="0.9"/>
<path d="M304.375 434.398V438.898" stroke="#D9D9D9" stroke-width="0.9"/>
<path d="M354.568 434.398V438.898" stroke="#D9D9D9" stroke-width="0.9"/>
<path d="M404.76 434.398V438.898" stroke="#D9D9D9" stroke-width="0.9"/>
<path d="M454.953 434.398V438.898" stroke="#D9D9D9" stroke-width="0.9"/>
<path d="M504.279 434.398V438.898" stroke="#D9D9D9" stroke-width="0.9"/>
<path d="M554.471 434.398V438.898" stroke="#D9D9D9" stroke-width="0.9"/>
<path d="M215.544 434.276C215.544 432.834 215.783 431.745 216.261 431.006C216.739 430.264 217.432 429.894 218.339 429.894C220.069 429.894 220.934 431.289 220.934 434.081C220.934 435.459 220.689 436.513 220.201 437.245C219.715 437.972 219.033 438.336 218.154 438.336C217.325 438.336 216.681 437.99 216.224 437.297C215.771 436.605 215.544 435.598 215.544 434.276ZM216.599 434.228C216.599 436.397 217.149 437.482 218.249 437.482C219.332 437.482 219.874 436.38 219.874 434.176C219.874 431.894 219.343 430.753 218.281 430.753C217.16 430.753 216.599 431.912 216.599 434.228Z" fill="#8C8C8C"/>
<path d="M207.775 382.492C207.775 382.053 207.636 381.708 207.359 381.458C207.081 381.205 206.703 381.079 206.225 381.079C205.887 381.079 205.546 381.165 205.202 381.337C204.857 381.509 204.536 381.755 204.237 382.075V381.073C204.504 380.796 204.806 380.583 205.144 380.435C205.485 380.288 205.884 380.214 206.341 380.214C207.079 380.214 207.673 380.413 208.123 380.81C208.573 381.204 208.798 381.738 208.798 382.413C208.798 383.014 208.659 383.534 208.382 383.974C208.107 384.413 207.636 384.863 206.968 385.324C206.286 385.795 205.829 386.132 205.597 386.336C205.369 386.54 205.209 386.735 205.117 386.922C205.026 387.108 204.98 387.335 204.98 387.602H209.041V388.52H203.904V388.113C203.904 387.642 203.968 387.243 204.094 386.916C204.224 386.586 204.437 386.266 204.732 385.957C205.028 385.644 205.488 385.269 206.114 384.833C206.754 384.383 207.19 383.99 207.422 383.652C207.657 383.311 207.775 382.924 207.775 382.492ZM210.09 384.596C210.09 383.155 210.329 382.065 210.807 381.327C211.286 380.585 211.978 380.214 212.885 380.214C214.615 380.214 215.48 381.61 215.48 384.401C215.48 385.779 215.235 386.834 214.747 387.565C214.262 388.293 213.579 388.657 212.701 388.657C211.871 388.657 211.228 388.31 210.771 387.618C210.317 386.925 210.09 385.918 210.09 384.596ZM211.145 384.549C211.145 386.718 211.695 387.802 212.796 387.802C213.878 387.802 214.42 386.7 214.42 384.496C214.42 382.214 213.889 381.073 212.827 381.073C211.706 381.073 211.145 382.232 211.145 384.549ZM216.429 384.596C216.429 383.155 216.668 382.065 217.146 381.327C217.624 380.585 218.317 380.214 219.224 380.214C220.954 380.214 221.818 381.61 221.818 384.401C221.818 385.779 221.574 386.834 221.085 387.565C220.6 388.293 219.918 388.657 219.039 388.657C218.21 388.657 217.566 388.31 217.109 387.618C216.656 386.925 216.429 385.918 216.429 384.596ZM217.484 384.549C217.484 386.718 218.034 387.802 219.134 387.802C220.217 387.802 220.758 386.7 220.758 384.496C220.758 382.214 220.228 381.073 219.166 381.073C218.044 381.073 217.484 382.232 217.484 384.549Z" fill="#8C8C8C"/>
<path d="M208.181 330.671V336.066H209.405V336.92H208.181V338.84H207.179V336.92H203.367V336.113C204.045 335.351 204.727 334.472 205.413 333.477C206.098 332.482 206.664 331.547 207.111 330.671H208.181ZM204.527 336.066H207.179V332.174C206.814 332.832 206.422 333.47 206.003 334.088C205.585 334.704 205.093 335.363 204.527 336.066ZM210.09 334.916C210.09 333.475 210.329 332.385 210.807 331.647C211.286 330.905 211.978 330.534 212.885 330.534C214.615 330.534 215.48 331.93 215.48 334.721C215.48 336.099 215.235 337.154 214.747 337.885C214.262 338.613 213.579 338.977 212.701 338.977C211.871 338.977 211.228 338.631 210.771 337.938C210.317 337.246 210.09 336.238 210.09 334.916ZM211.145 334.869C211.145 337.038 211.695 338.123 212.796 338.123C213.878 338.123 214.42 337.021 214.42 334.816C214.42 332.535 213.889 331.394 212.827 331.394C211.706 331.394 211.145 332.552 211.145 334.869ZM216.429 334.916C216.429 333.475 216.668 332.385 217.146 331.647C217.624 330.905 218.317 330.534 219.224 330.534C220.954 330.534 221.818 331.93 221.818 334.721C221.818 336.099 221.574 337.154 221.085 337.885C220.6 338.613 219.918 338.977 219.039 338.977C218.21 338.977 217.566 338.631 217.109 337.938C216.656 337.246 216.429 336.238 216.429 334.916ZM217.484 334.869C217.484 337.038 218.034 338.123 219.134 338.123C220.217 338.123 220.758 337.021 220.758 334.816C220.758 332.535 220.228 331.394 219.166 331.394C218.044 331.394 217.484 332.552 217.484 334.869Z" fill="#8C8C8C"/>
<path d="M208.645 282.041C208.22 281.823 207.775 281.714 207.311 281.714C206.604 281.714 206.037 282.022 205.608 282.637C205.179 283.252 204.961 284.092 204.954 285.158H204.98C205.367 284.409 205.984 284.034 206.831 284.034C207.538 284.034 208.102 284.265 208.524 284.725C208.946 285.186 209.157 285.797 209.157 286.56C209.157 287.358 208.913 288.014 208.424 288.527C207.939 289.041 207.318 289.297 206.562 289.297C205.733 289.297 205.08 288.974 204.606 288.327C204.135 287.677 203.899 286.755 203.899 285.564C203.899 284.122 204.209 282.978 204.827 282.131C205.45 281.28 206.267 280.854 207.279 280.854C207.86 280.854 208.315 280.934 208.645 281.092V282.041ZM205.017 286.487C205.017 287.024 205.16 287.485 205.444 287.868C205.733 288.251 206.114 288.443 206.589 288.443C207.039 288.443 207.404 288.278 207.686 287.947C207.967 287.617 208.107 287.191 208.107 286.671C208.107 286.109 207.974 285.671 207.707 285.358C207.443 285.045 207.067 284.889 206.578 284.889C206.114 284.889 205.738 285.047 205.45 285.363C205.161 285.68 205.017 286.054 205.017 286.487ZM210.09 285.237C210.09 283.795 210.329 282.705 210.807 281.967C211.286 281.225 211.978 280.854 212.885 280.854C214.615 280.854 215.48 282.25 215.48 285.042C215.48 286.42 215.235 287.474 214.747 288.206C214.262 288.933 213.579 289.297 212.701 289.297C211.871 289.297 211.228 288.951 210.771 288.258C210.317 287.566 210.09 286.559 210.09 285.237ZM211.145 285.189C211.145 287.358 211.695 288.443 212.796 288.443C213.878 288.443 214.42 287.341 214.42 285.137C214.42 282.855 213.889 281.714 212.827 281.714C211.706 281.714 211.145 282.872 211.145 285.189ZM216.429 285.237C216.429 283.795 216.668 282.705 217.146 281.967C217.624 281.225 218.317 280.854 219.224 280.854C220.954 280.854 221.818 282.25 221.818 285.042C221.818 286.42 221.574 287.474 221.085 288.206C220.6 288.933 219.918 289.297 219.039 289.297C218.21 289.297 217.566 288.951 217.109 288.258C216.656 287.566 216.429 286.559 216.429 285.237ZM217.484 285.189C217.484 287.358 218.034 288.443 219.134 288.443C220.217 288.443 220.758 287.341 220.758 285.137C220.758 282.855 220.228 281.714 219.166 281.714C218.044 281.714 217.484 282.872 217.484 285.189Z" fill="#8C8C8C"/>
<path d="M203.794 237.202C203.794 236.731 203.934 236.297 204.216 235.9C204.497 235.503 204.859 235.22 205.302 235.051C204.947 234.85 204.666 234.594 204.458 234.281C204.251 233.968 204.147 233.629 204.147 233.263C204.147 232.876 204.246 232.523 204.442 232.203C204.643 231.883 204.919 231.632 205.27 231.449C205.625 231.266 206.016 231.175 206.441 231.175C206.87 231.175 207.262 231.266 207.617 231.449C207.972 231.628 208.248 231.878 208.445 232.198C208.642 232.518 208.74 232.873 208.74 233.263C208.74 233.622 208.638 233.959 208.434 234.276C208.234 234.588 207.954 234.847 207.596 235.051C208.039 235.223 208.399 235.508 208.677 235.905C208.955 236.302 209.094 236.735 209.094 237.202C209.094 237.666 208.983 238.083 208.761 238.452C208.54 238.818 208.225 239.103 207.817 239.306C207.41 239.51 206.951 239.612 206.441 239.612C205.935 239.612 205.479 239.51 205.075 239.306C204.671 239.103 204.356 238.816 204.131 238.447C203.906 238.078 203.794 237.663 203.794 237.202ZM204.806 237.155C204.806 237.64 204.956 238.029 205.254 238.32C205.553 238.612 205.951 238.758 206.446 238.758C206.931 238.758 207.327 238.61 207.633 238.315C207.942 238.016 208.097 237.629 208.097 237.155C208.097 236.705 207.94 236.327 207.628 236.021C207.318 235.712 206.924 235.557 206.446 235.557C205.972 235.557 205.58 235.708 205.27 236.011C204.961 236.309 204.806 236.691 204.806 237.155ZM205.102 233.347C205.102 233.713 205.232 234.028 205.492 234.291C205.752 234.552 206.07 234.682 206.446 234.682C206.815 234.682 207.134 234.55 207.401 234.286C207.671 234.022 207.807 233.71 207.807 233.347C207.807 232.978 207.677 232.665 207.417 232.409C207.16 232.152 206.837 232.024 206.446 232.024C206.06 232.024 205.738 232.15 205.481 232.404C205.228 232.653 205.102 232.968 205.102 233.347ZM210.09 235.557C210.09 234.116 210.329 233.026 210.807 232.288C211.286 231.546 211.978 231.175 212.885 231.175C214.615 231.175 215.48 232.571 215.48 235.362C215.48 236.74 215.235 237.795 214.747 238.526C214.262 239.254 213.579 239.618 212.701 239.618C211.871 239.618 211.228 239.271 210.771 238.579C210.317 237.886 210.09 236.879 210.09 235.557ZM211.145 235.51C211.145 237.679 211.695 238.763 212.796 238.763C213.878 238.763 214.42 237.661 214.42 235.457C214.42 233.175 213.889 232.034 212.827 232.034C211.706 232.034 211.145 233.193 211.145 235.51ZM216.429 235.557C216.429 234.116 216.668 233.026 217.146 232.288C217.624 231.546 218.317 231.175 219.224 231.175C220.954 231.175 221.818 232.571 221.818 235.362C221.818 236.74 221.574 237.795 221.085 238.526C220.6 239.254 219.918 239.618 219.039 239.618C218.21 239.618 217.566 239.271 217.109 238.579C216.656 237.886 216.429 236.879 216.429 235.557ZM217.484 235.51C217.484 237.679 218.034 238.763 219.134 238.763C220.217 238.763 220.758 237.661 220.758 235.457C220.758 233.175 220.228 232.034 219.166 232.034C218.044 232.034 217.484 233.193 217.484 235.51Z" fill="#8C8C8C"/>
<path d="M199.888 189.801V182.813C199.726 182.975 199.452 183.156 199.065 183.357C198.682 183.557 198.327 183.698 198 183.779V182.766C198.432 182.646 198.894 182.457 199.387 182.196C199.879 181.933 200.257 181.685 200.52 181.453H200.911V189.801H199.888ZM203.695 185.877C203.695 184.436 203.934 183.346 204.412 182.608C204.89 181.866 205.583 181.495 206.49 181.495C208.22 181.495 209.084 182.891 209.084 185.682C209.084 187.06 208.84 188.115 208.351 188.846C207.866 189.574 207.184 189.938 206.305 189.938C205.476 189.938 204.832 189.592 204.375 188.899C203.922 188.206 203.695 187.199 203.695 185.877ZM204.75 185.83C204.75 187.999 205.3 189.084 206.4 189.084C207.483 189.084 208.024 187.981 208.024 185.777C208.024 183.496 207.494 182.355 206.432 182.355C205.31 182.355 204.75 183.513 204.75 185.83ZM210.034 185.877C210.034 184.436 210.273 183.346 210.751 182.608C211.229 181.866 211.921 181.495 212.829 181.495C214.558 181.495 215.423 182.891 215.423 185.682C215.423 187.06 215.179 188.115 214.69 188.846C214.205 189.574 213.523 189.938 212.644 189.938C211.814 189.938 211.171 189.592 210.714 188.899C210.26 188.206 210.034 187.199 210.034 185.877ZM211.088 185.83C211.088 187.999 211.638 189.084 212.739 189.084C213.822 189.084 214.363 187.981 214.363 185.777C214.363 183.496 213.832 182.355 212.771 182.355C211.649 182.355 211.088 183.513 211.088 185.83ZM216.372 185.877C216.372 184.436 216.611 183.346 217.089 182.608C217.568 181.866 218.26 181.495 219.167 181.495C220.897 181.495 221.762 182.891 221.762 185.682C221.762 187.06 221.517 188.115 221.029 188.846C220.544 189.574 219.862 189.938 218.983 189.938C218.153 189.938 217.51 189.592 217.053 188.899C216.599 188.206 216.372 187.199 216.372 185.877ZM217.427 185.83C217.427 187.999 217.977 189.084 219.078 189.084C220.16 189.084 220.702 187.981 220.702 185.777C220.702 183.496 220.171 182.355 219.109 182.355C217.988 182.355 217.427 183.513 217.427 185.83Z" fill="#8C8C8C"/>
<path d="M586.809 430.678C586.809 429.237 587.048 428.147 587.526 427.409C588.004 426.667 588.696 426.296 589.604 426.296C591.333 426.296 592.198 427.692 592.198 430.483C592.198 431.861 591.954 432.916 591.465 433.647C590.98 434.375 590.298 434.739 589.419 434.739C588.589 434.739 587.946 434.392 587.489 433.7C587.035 433.007 586.809 432 586.809 430.678ZM587.863 430.631C587.863 432.8 588.413 433.884 589.514 433.884C590.597 433.884 591.138 432.782 591.138 430.578C591.138 428.296 590.607 427.155 589.546 427.155C588.424 427.155 587.863 428.314 587.863 430.631Z" fill="#8C8C8C"/>
<path d="M586.809 380.998C586.809 379.557 587.048 378.467 587.526 377.729C588.004 376.987 588.696 376.616 589.604 376.616C591.333 376.616 592.198 378.012 592.198 380.803C592.198 382.181 591.954 383.236 591.465 383.967C590.98 384.695 590.298 385.059 589.419 385.059C588.589 385.059 587.946 384.713 587.489 384.02C587.035 383.328 586.809 382.32 586.809 380.998ZM587.863 380.951C587.863 383.12 588.413 384.205 589.514 384.205C590.597 384.205 591.138 383.103 591.138 380.898C591.138 378.617 590.607 377.476 589.546 377.476C588.424 377.476 587.863 378.634 587.863 380.951ZM593.3 384.379C593.3 384.189 593.365 384.029 593.495 383.899C593.625 383.769 593.787 383.704 593.98 383.704C594.177 383.704 594.341 383.771 594.471 383.904C594.601 384.034 594.666 384.192 594.666 384.379C594.666 384.562 594.601 384.72 594.471 384.853C594.341 384.983 594.176 385.048 593.975 385.048C593.782 385.048 593.62 384.983 593.49 384.853C593.363 384.72 593.3 384.562 593.3 384.379ZM599.776 378.894C599.776 378.455 599.637 378.11 599.359 377.861C599.082 377.608 598.704 377.481 598.226 377.481C597.888 377.481 597.547 377.567 597.203 377.739C596.858 377.912 596.536 378.158 596.237 378.478V377.476C596.505 377.198 596.807 376.985 597.145 376.838C597.486 376.69 597.885 376.616 598.342 376.616C599.08 376.616 599.674 376.815 600.124 377.212C600.574 377.606 600.799 378.14 600.799 378.815C600.799 379.416 600.66 379.937 600.382 380.376C600.108 380.816 599.637 381.266 598.969 381.726C598.287 382.197 597.83 382.535 597.598 382.739C597.37 382.943 597.21 383.138 597.118 383.324C597.027 383.51 596.981 383.737 596.981 384.004H601.042V384.922H595.905V384.516C595.905 384.045 595.969 383.646 596.095 383.319C596.225 382.988 596.438 382.668 596.733 382.359C597.029 382.046 597.489 381.672 598.115 381.236C598.755 380.786 599.191 380.392 599.423 380.054C599.658 379.713 599.776 379.327 599.776 378.894Z" fill="#8C8C8C"/>
<path d="M586.809 331.319C586.809 329.877 587.048 328.788 587.526 328.049C588.004 327.307 588.696 326.937 589.604 326.937C591.333 326.937 592.198 328.332 592.198 331.124C592.198 332.502 591.954 333.556 591.465 334.288C590.98 335.015 590.298 335.379 589.419 335.379C588.589 335.379 587.946 335.033 587.489 334.34C587.035 333.648 586.809 332.641 586.809 331.319ZM587.863 331.271C587.863 333.44 588.413 334.525 589.514 334.525C590.597 334.525 591.138 333.423 591.138 331.219C591.138 328.937 590.607 327.796 589.546 327.796C588.424 327.796 587.863 328.954 587.863 331.271ZM593.3 334.699C593.3 334.509 593.365 334.349 593.495 334.219C593.625 334.089 593.787 334.024 593.98 334.024C594.177 334.024 594.341 334.091 594.471 334.224C594.601 334.354 594.666 334.513 594.666 334.699C594.666 334.882 594.601 335.04 594.471 335.174C594.341 335.304 594.176 335.369 593.975 335.369C593.782 335.369 593.62 335.304 593.49 335.174C593.363 335.04 593.3 334.882 593.3 334.699ZM600.182 327.074V332.468H601.405V333.323H600.182V335.242H599.18V333.323H595.367V332.516C596.046 331.753 596.728 330.874 597.413 329.879C598.099 328.884 598.665 327.949 599.112 327.074H600.182ZM596.528 332.468H599.18V328.577C598.814 329.234 598.422 329.872 598.004 330.491C597.586 331.106 597.094 331.765 596.528 332.468Z" fill="#8C8C8C"/>
<path d="M586.809 281.635C586.809 280.194 587.048 279.104 587.526 278.366C588.004 277.624 588.696 277.253 589.604 277.253C591.333 277.253 592.198 278.649 592.198 281.44C592.198 282.818 591.954 283.873 591.465 284.604C590.98 285.332 590.298 285.696 589.419 285.696C588.589 285.696 587.946 285.349 587.489 284.657C587.035 283.964 586.809 282.957 586.809 281.635ZM587.863 281.588C587.863 283.757 588.413 284.841 589.514 284.841C590.597 284.841 591.138 283.739 591.138 281.535C591.138 279.253 590.607 278.113 589.546 278.113C588.424 278.113 587.863 279.271 587.863 281.588ZM593.3 285.015C593.3 284.826 593.365 284.666 593.495 284.536C593.625 284.405 593.787 284.34 593.98 284.34C594.177 284.34 594.341 284.407 594.471 284.541C594.601 284.671 594.666 284.829 594.666 285.015C594.666 285.198 594.601 285.356 594.471 285.49C594.341 285.62 594.176 285.685 593.975 285.685C593.782 285.685 593.62 285.62 593.49 285.49C593.363 285.356 593.3 285.198 593.3 285.015ZM600.646 278.439C600.221 278.221 599.776 278.113 599.312 278.113C598.605 278.113 598.037 278.42 597.609 279.035C597.18 279.651 596.962 280.491 596.955 281.556H596.981C597.368 280.807 597.985 280.433 598.832 280.433C599.539 280.433 600.103 280.663 600.525 281.124C600.947 281.584 601.158 282.196 601.158 282.959C601.158 283.757 600.913 284.413 600.425 284.926C599.939 285.439 599.319 285.696 598.563 285.696C597.733 285.696 597.081 285.372 596.607 284.725C596.136 284.075 595.9 283.154 595.9 281.962C595.9 280.521 596.209 279.376 596.828 278.529C597.45 277.678 598.268 277.253 599.28 277.253C599.86 277.253 600.316 277.332 600.646 277.49V278.439ZM597.018 282.885C597.018 283.423 597.16 283.883 597.445 284.267C597.733 284.65 598.115 284.841 598.589 284.841C599.039 284.841 599.405 284.676 599.686 284.346C599.968 284.015 600.108 283.59 600.108 283.07C600.108 282.507 599.975 282.069 599.707 281.756C599.444 281.444 599.068 281.287 598.579 281.287C598.115 281.287 597.739 281.445 597.45 281.762C597.162 282.078 597.018 282.453 597.018 282.885Z" fill="#8C8C8C"/>
<path d="M586.809 231.955C586.809 230.514 587.048 229.424 587.526 228.686C588.004 227.944 588.696 227.573 589.604 227.573C591.333 227.573 592.198 228.969 592.198 231.76C592.198 233.138 591.954 234.193 591.465 234.924C590.98 235.652 590.298 236.016 589.419 236.016C588.589 236.016 587.946 235.67 587.489 234.977C587.035 234.285 586.809 233.277 586.809 231.955ZM587.863 231.908C587.863 234.077 588.413 235.162 589.514 235.162C590.597 235.162 591.138 234.06 591.138 231.855C591.138 229.574 590.607 228.433 589.546 228.433C588.424 228.433 587.863 229.591 587.863 231.908ZM593.3 235.336C593.3 235.146 593.365 234.986 593.495 234.856C593.625 234.726 593.787 234.661 593.98 234.661C594.177 234.661 594.341 234.728 594.471 234.861C594.601 234.991 594.666 235.149 594.666 235.336C594.666 235.519 594.601 235.677 594.471 235.81C594.341 235.94 594.176 236.005 593.975 236.005C593.782 236.005 593.62 235.94 593.49 235.81C593.363 235.677 593.3 235.519 593.3 235.336ZM595.795 233.601C595.795 233.13 595.935 232.696 596.216 232.298C596.498 231.901 596.86 231.618 597.303 231.449C596.948 231.249 596.666 230.992 596.459 230.679C596.252 230.366 596.148 230.027 596.148 229.662C596.148 229.275 596.246 228.921 596.443 228.602C596.644 228.282 596.92 228.03 597.271 227.847C597.626 227.665 598.016 227.573 598.442 227.573C598.871 227.573 599.263 227.665 599.618 227.847C599.973 228.027 600.249 228.276 600.446 228.596C600.643 228.916 600.741 229.271 600.741 229.662C600.741 230.02 600.639 230.358 600.435 230.674C600.235 230.987 599.955 231.245 599.597 231.449C600.04 231.621 600.4 231.906 600.678 232.304C600.955 232.701 601.094 233.133 601.094 233.601C601.094 234.065 600.984 234.481 600.762 234.851C600.541 235.216 600.226 235.501 599.818 235.705C599.41 235.909 598.952 236.011 598.442 236.011C597.936 236.011 597.48 235.909 597.076 235.705C596.672 235.501 596.357 235.214 596.132 234.845C595.907 234.476 595.795 234.061 595.795 233.601ZM596.807 233.553C596.807 234.038 596.956 234.427 597.255 234.719C597.554 235.011 597.951 235.156 598.447 235.156C598.932 235.156 599.328 235.009 599.634 234.713C599.943 234.415 600.098 234.028 600.098 233.553C600.098 233.103 599.941 232.725 599.628 232.42C599.319 232.11 598.925 231.955 598.447 231.955C597.972 231.955 597.58 232.107 597.271 232.409C596.962 232.708 596.807 233.089 596.807 233.553ZM597.102 229.746C597.102 230.112 597.232 230.426 597.493 230.69C597.753 230.95 598.071 231.08 598.447 231.08C598.816 231.08 599.134 230.948 599.402 230.685C599.672 230.421 599.808 230.108 599.808 229.746C599.808 229.377 599.678 229.064 599.417 228.807C599.161 228.551 598.837 228.422 598.447 228.422C598.06 228.422 597.739 228.549 597.482 228.802C597.229 229.052 597.102 229.366 597.102 229.746Z" fill="#8C8C8C"/>
<path d="M589.34 186.199V179.212C589.178 179.374 588.904 179.555 588.517 179.755C588.134 179.955 587.779 180.096 587.452 180.177V179.164C587.884 179.045 588.347 178.855 588.839 178.595C589.331 178.331 589.709 178.083 589.973 177.851H590.363V186.199H589.34Z" fill="#8C8C8C"/>
<path d="M248.886 450.801V445.39C248.886 444.944 248.913 444.408 248.965 443.782H248.939C248.847 444.176 248.767 444.45 248.696 444.604L246.002 450.801H245.416L242.727 444.652C242.663 444.511 242.583 444.221 242.484 443.782H242.453C242.488 444.162 242.505 444.713 242.505 445.438V450.801H241.498V442.632H242.927L245.337 448.233C245.52 448.662 245.641 448.996 245.701 449.235H245.738C245.921 448.732 246.049 448.391 246.123 448.212L248.575 442.632H249.936V450.801H248.886ZM251.533 447.948C251.533 446.985 251.802 446.225 252.34 445.67C252.878 445.111 253.608 444.831 254.529 444.831C255.404 444.831 256.09 445.1 256.585 445.638C257.085 446.172 257.334 446.913 257.334 447.858C257.334 448.779 257.069 449.523 256.538 450.089C256.007 450.655 255.295 450.938 254.402 450.938C253.53 450.938 252.834 450.664 252.314 450.115C251.794 449.567 251.533 448.844 251.533 447.948ZM252.588 447.916C252.588 448.588 252.757 449.117 253.094 449.504C253.435 449.89 253.892 450.084 254.465 450.084C255.056 450.084 255.506 449.896 255.815 449.519C256.125 449.14 256.279 448.596 256.279 447.89C256.279 447.18 256.125 446.635 255.815 446.255C255.506 445.875 255.056 445.686 254.465 445.686C253.885 445.686 253.427 445.884 253.089 446.281C252.755 446.679 252.588 447.224 252.588 447.916ZM263.72 450.801H262.692V447.484C262.692 446.285 262.254 445.686 261.379 445.686C260.925 445.686 260.553 445.854 260.261 446.192C259.969 446.529 259.823 446.956 259.823 447.473V450.801H258.79V444.968H259.823V445.933H259.844C260.284 445.199 260.922 444.831 261.759 444.831C262.398 444.831 262.885 445.037 263.219 445.448C263.553 445.856 263.72 446.452 263.72 447.236V450.801ZM265.149 450.258C265.149 450.068 265.214 449.908 265.345 449.778C265.475 449.648 265.636 449.583 265.83 449.583C266.027 449.583 266.19 449.649 266.32 449.783C266.45 449.913 266.515 450.071 266.515 450.258C266.515 450.44 266.45 450.599 266.32 450.732C266.19 450.862 266.025 450.927 265.824 450.927C265.631 450.927 265.469 450.862 265.339 450.732C265.213 450.599 265.149 450.44 265.149 450.258Z" fill="#8C8C8C"/>
<path d="M296.508 443.571H294.151V450.801H293.091V443.571H290.744V442.632H296.508V443.571ZM302.446 450.801H301.407V449.883H301.386C300.996 450.586 300.396 450.938 299.588 450.938C298.206 450.938 297.515 450.112 297.515 448.459V444.968H298.538V448.306C298.538 449.491 298.992 450.084 299.899 450.084C300.349 450.084 300.713 449.918 300.991 449.588C301.268 449.254 301.407 448.834 301.407 448.328V444.968H302.446V450.801ZM309.038 448.148H304.956C304.974 448.771 305.144 449.252 305.468 449.593C305.791 449.931 306.243 450.099 306.823 450.099C307.477 450.099 308.076 449.89 308.621 449.472V450.395C308.108 450.757 307.428 450.938 306.58 450.938C305.737 450.938 305.078 450.671 304.603 450.136C304.132 449.602 303.896 448.86 303.896 447.911C303.896 447.018 304.155 446.281 304.671 445.701C305.192 445.121 305.837 444.831 306.607 444.831C307.37 444.831 307.966 445.077 308.395 445.57C308.823 446.058 309.038 446.744 309.038 447.626V448.148ZM308.004 447.32C308.001 446.793 307.876 446.385 307.63 446.097C307.384 445.809 307.037 445.664 306.591 445.664C306.18 445.664 305.823 445.817 305.521 446.123C305.222 446.429 305.034 446.828 304.956 447.32H308.004ZM310.087 449.54C310.608 449.917 311.168 450.105 311.77 450.105C312.575 450.105 312.977 449.841 312.977 449.314C312.977 449.089 312.889 448.904 312.713 448.76C312.538 448.612 312.181 448.438 311.643 448.238C310.996 447.978 310.576 447.721 310.383 447.468C310.189 447.211 310.093 446.902 310.093 446.54C310.093 446.023 310.311 445.61 310.746 445.301C311.186 444.988 311.726 444.831 312.365 444.831C312.861 444.831 313.322 444.917 313.747 445.09V446.086C313.311 445.805 312.817 445.664 312.265 445.664C311.935 445.664 311.666 445.737 311.458 445.881C311.251 446.025 311.147 446.215 311.147 446.45C311.147 446.682 311.221 446.863 311.369 446.993C311.52 447.123 311.852 447.29 312.365 447.494C313.016 447.737 313.455 447.988 313.684 448.248C313.912 448.509 314.027 448.83 314.027 449.213C314.027 449.748 313.807 450.17 313.367 450.479C312.931 450.785 312.365 450.938 311.669 450.938C311.065 450.938 310.537 450.824 310.087 450.595V449.54ZM315.118 450.258C315.118 450.068 315.183 449.908 315.313 449.778C315.443 449.648 315.605 449.583 315.798 449.583C315.995 449.583 316.159 449.649 316.289 449.783C316.419 449.913 316.484 450.071 316.484 450.258C316.484 450.44 316.419 450.599 316.289 450.732C316.159 450.862 315.994 450.927 315.793 450.927C315.6 450.927 315.438 450.862 315.308 450.732C315.181 450.599 315.118 450.44 315.118 450.258Z" fill="#8C8C8C"/>
<path d="M351.367 442.632L349.079 450.801H347.85L346.205 444.916C346.131 444.648 346.087 444.367 346.073 444.072H346.052C346.031 444.364 345.981 444.641 345.904 444.905L344.243 450.801H343.025L340.657 442.632H341.822L343.489 448.802C343.563 449.08 343.607 449.359 343.621 449.641H343.652C343.67 449.43 343.728 449.15 343.826 448.802L345.593 442.632H346.632L348.319 448.85C348.376 449.054 348.421 449.314 348.456 449.63H348.478C348.495 449.402 348.546 449.134 348.63 448.829L350.234 442.632H351.367ZM357.179 448.148H353.097C353.115 448.771 353.285 449.252 353.609 449.593C353.932 449.931 354.384 450.099 354.964 450.099C355.618 450.099 356.217 449.89 356.762 449.472V450.395C356.249 450.757 355.569 450.938 354.721 450.938C353.878 450.938 353.218 450.671 352.744 450.136C352.273 449.602 352.037 448.86 352.037 447.911C352.037 447.018 352.296 446.281 352.812 445.701C353.333 445.121 353.978 444.831 354.748 444.831C355.511 444.831 356.106 445.077 356.535 445.57C356.964 446.058 357.179 446.744 357.179 447.626V448.148ZM356.145 447.32C356.142 446.793 356.017 446.385 355.771 446.097C355.525 445.809 355.178 445.664 354.732 445.664C354.321 445.664 353.964 445.817 353.661 446.123C353.363 446.429 353.174 446.828 353.097 447.32H356.145ZM363.618 450.801H362.584V449.83H362.563C362.137 450.569 361.477 450.938 360.58 450.938C359.842 450.938 359.255 450.676 358.819 450.152C358.383 449.625 358.165 448.915 358.165 448.022C358.165 447.058 358.411 446.287 358.903 445.707C359.395 445.123 360.039 444.831 360.833 444.831C361.628 444.831 362.204 445.141 362.563 445.759H362.584V442.168H363.618V450.801ZM362.589 447.331C362.589 446.863 362.435 446.473 362.125 446.16C361.819 445.844 361.441 445.686 360.991 445.686C360.443 445.686 360.011 445.891 359.694 446.303C359.378 446.71 359.22 447.268 359.22 447.974C359.22 448.625 359.371 449.14 359.673 449.519C359.979 449.896 360.385 450.084 360.891 450.084C361.39 450.084 361.798 449.899 362.115 449.53C362.431 449.157 362.589 448.695 362.589 448.143V447.331ZM365.168 450.258C365.168 450.068 365.233 449.908 365.363 449.778C365.493 449.648 365.655 449.583 365.848 449.583C366.045 449.583 366.209 449.649 366.339 449.783C366.469 449.913 366.534 450.071 366.534 450.258C366.534 450.44 366.469 450.599 366.339 450.732C366.209 450.862 366.043 450.927 365.843 450.927C365.65 450.927 365.488 450.862 365.358 450.732C365.231 450.599 365.168 450.44 365.168 450.258Z" fill="#8C8C8C"/>
<path d="M396.727 443.571H394.37V450.801H393.31V443.571H390.963V442.632H396.727V443.571ZM402.776 450.801H401.747V447.447C401.747 446.273 401.312 445.686 400.44 445.686C399.993 445.686 399.622 445.858 399.327 446.202C399.032 446.543 398.884 446.974 398.884 447.494V450.801H397.85V442.168H398.884V445.928H398.905C399.352 445.197 399.986 444.831 400.809 444.831C402.12 444.831 402.776 445.624 402.776 447.21V450.801ZM409.32 450.801H408.281V449.883H408.26C407.87 450.586 407.271 450.938 406.462 450.938C405.08 450.938 404.389 450.112 404.389 448.459V444.968H405.412V448.306C405.412 449.491 405.866 450.084 406.773 450.084C407.223 450.084 407.587 449.918 407.865 449.588C408.142 449.254 408.281 448.834 408.281 448.328V444.968H409.32V450.801ZM414.288 445.991C414.115 445.868 413.878 445.807 413.576 445.807C413.175 445.807 412.845 445.995 412.584 446.371C412.324 446.744 412.194 447.236 412.194 447.848V450.801H411.161V444.968H412.194V446.155H412.215C412.511 445.297 413.02 444.868 413.745 444.868C413.98 444.868 414.161 444.895 414.288 444.947V445.991ZM414.989 450.258C414.989 450.068 415.054 449.908 415.184 449.778C415.314 449.648 415.476 449.583 415.669 449.583C415.866 449.583 416.03 449.649 416.16 449.783C416.29 449.913 416.355 450.071 416.355 450.258C416.355 450.44 416.29 450.599 416.16 450.732C416.03 450.862 415.864 450.927 415.664 450.927C415.471 450.927 415.309 450.862 415.179 450.732C415.052 450.599 414.989 450.44 414.989 450.258Z" fill="#8C8C8C"/>
<path d="M451.156 443.571H448.003V446.303H450.924V447.231H448.003V450.801H446.948V442.632H451.156V443.571ZM455.681 445.991C455.509 445.868 455.271 445.807 454.969 445.807C454.568 445.807 454.238 445.995 453.978 446.371C453.718 446.744 453.588 447.236 453.588 447.848V450.801H452.554V444.968H453.588V446.155H453.609C453.904 445.297 454.414 444.868 455.138 444.868C455.373 444.868 455.554 444.895 455.681 444.947V445.991ZM456.551 442.912C456.551 442.729 456.613 442.576 456.736 442.453C456.862 442.326 457.017 442.263 457.2 442.263C457.386 442.263 457.543 442.325 457.669 442.448C457.799 442.571 457.864 442.725 457.864 442.912C457.864 443.095 457.799 443.247 457.669 443.371C457.543 443.49 457.386 443.55 457.2 443.55C457.013 443.55 456.859 443.49 456.736 443.371C456.613 443.247 456.551 443.095 456.551 442.912ZM456.672 450.801V444.968H457.706V450.801H456.672ZM459.262 450.258C459.262 450.068 459.327 449.908 459.457 449.778C459.587 449.648 459.749 449.583 459.942 449.583C460.139 449.583 460.302 449.649 460.432 449.783C460.563 449.913 460.628 450.071 460.628 450.258C460.628 450.44 460.563 450.599 460.432 450.732C460.302 450.862 460.137 450.927 459.937 450.927C459.743 450.927 459.582 450.862 459.452 450.732C459.325 450.599 459.262 450.44 459.262 450.258Z" fill="#8C8C8C"/>
<path d="M496.479 449.266C496.729 449.484 497.063 449.663 497.481 449.804C497.9 449.945 498.297 450.015 498.673 450.015C499.819 450.015 500.392 449.607 500.392 448.792C500.392 448.563 500.331 448.357 500.208 448.175C500.085 447.992 499.916 447.83 499.701 447.689C499.487 447.549 499.084 447.333 498.494 447.041C497.675 446.633 497.135 446.255 496.875 445.907C496.615 445.555 496.485 445.155 496.485 444.705C496.485 444.026 496.757 443.488 497.302 443.091C497.847 442.694 498.534 442.495 499.364 442.495C500.176 442.495 500.772 442.594 501.152 442.79V443.94C500.659 443.599 500.037 443.429 499.285 443.429C498.786 443.429 498.378 443.534 498.061 443.745C497.748 443.952 497.592 444.242 497.592 444.615C497.592 444.946 497.701 445.214 497.919 445.422C498.137 445.629 498.61 445.912 499.338 446.271C500.139 446.654 500.7 447.037 501.02 447.421C501.34 447.804 501.5 448.234 501.5 448.713C501.5 449.43 501.239 449.98 500.719 450.363C500.199 450.746 499.476 450.938 498.552 450.938C498.228 450.938 497.85 450.892 497.418 450.801C496.989 450.713 496.676 450.602 496.479 450.469V449.266ZM503.097 445.374C503.678 445.012 504.347 444.831 505.107 444.831C506.513 444.831 507.216 445.57 507.216 447.046V450.801H506.193V449.899H506.167C505.762 450.592 505.166 450.938 504.379 450.938C503.813 450.938 503.363 450.785 503.029 450.479C502.695 450.173 502.528 449.76 502.528 449.24C502.528 448.15 503.173 447.515 504.463 447.336L506.193 447.094C506.193 446.141 505.799 445.664 505.012 445.664C504.312 445.664 503.674 445.9 503.097 446.371V445.374ZM504.827 448.059C504.349 448.122 504.019 448.241 503.836 448.417C503.656 448.593 503.567 448.839 503.567 449.155C503.567 449.433 503.665 449.66 503.862 449.836C504.059 450.012 504.319 450.099 504.643 450.099C505.093 450.099 505.463 449.941 505.755 449.625C506.047 449.308 506.193 448.911 506.193 448.433V447.874L504.827 448.059ZM511.73 450.743C511.505 450.866 511.201 450.927 510.818 450.927C509.774 450.927 509.252 450.349 509.252 449.192V445.823H508.25V444.968H509.252V443.566L510.28 443.239V444.968H511.73V445.823H510.28V449.008C510.28 449.391 510.345 449.665 510.475 449.83C510.605 449.996 510.821 450.078 511.124 450.078C511.356 450.078 511.558 450.013 511.73 449.883V450.743ZM512.663 450.258C512.663 450.068 512.729 449.908 512.859 449.778C512.989 449.648 513.15 449.583 513.344 449.583C513.541 449.583 513.704 449.649 513.834 449.783C513.964 449.913 514.029 450.071 514.029 450.258C514.029 450.44 513.964 450.599 513.834 450.732C513.704 450.862 513.539 450.927 513.338 450.927C513.145 450.927 512.983 450.862 512.853 450.732C512.727 450.599 512.663 450.44 512.663 450.258Z" fill="#8C8C8C"/>
<path d="M544.114 449.266C544.364 449.484 544.698 449.663 545.116 449.804C545.535 449.945 545.932 450.015 546.308 450.015C547.454 450.015 548.027 449.607 548.027 448.792C548.027 448.563 547.966 448.357 547.843 448.175C547.72 447.992 547.551 447.83 547.337 447.689C547.122 447.549 546.72 447.333 546.129 447.041C545.31 446.633 544.77 446.255 544.51 445.907C544.25 445.555 544.12 445.155 544.12 444.705C544.12 444.026 544.392 443.488 544.937 443.091C545.482 442.694 546.169 442.495 546.999 442.495C547.811 442.495 548.407 442.594 548.787 442.79V443.94C548.295 443.599 547.672 443.429 546.92 443.429C546.421 443.429 546.013 443.534 545.696 443.745C545.384 443.952 545.227 444.242 545.227 444.615C545.227 444.946 545.336 445.214 545.554 445.422C545.772 445.629 546.245 445.912 546.973 446.271C547.774 446.654 548.335 447.037 548.655 447.421C548.975 447.804 549.135 448.234 549.135 448.713C549.135 449.43 548.875 449.98 548.354 450.363C547.834 450.746 547.112 450.938 546.187 450.938C545.863 450.938 545.486 450.892 545.053 450.801C544.624 450.713 544.311 450.602 544.114 450.469V449.266ZM555.41 450.801H554.371V449.883H554.35C553.96 450.586 553.361 450.938 552.552 450.938C551.17 450.938 550.479 450.112 550.479 448.459V444.968H551.503V448.306C551.503 449.491 551.956 450.084 552.863 450.084C553.313 450.084 553.677 449.918 553.955 449.588C554.232 449.254 554.371 448.834 554.371 448.328V444.968H555.41V450.801ZM562.181 450.801H561.153V447.484C561.153 446.285 560.715 445.686 559.84 445.686C559.386 445.686 559.014 445.854 558.722 446.192C558.43 446.529 558.284 446.956 558.284 447.473V450.801H557.251V444.968H558.284V445.933H558.305C558.745 445.199 559.383 444.831 560.22 444.831C560.859 444.831 561.346 445.037 561.68 445.448C562.014 445.856 562.181 446.452 562.181 447.236V450.801ZM563.61 450.258C563.61 450.068 563.675 449.908 563.805 449.778C563.936 449.648 564.097 449.583 564.291 449.583C564.487 449.583 564.651 449.649 564.781 449.783C564.911 449.913 564.976 450.071 564.976 450.258C564.976 450.44 564.911 450.599 564.781 450.732C564.651 450.862 564.486 450.927 564.285 450.927C564.092 450.927 563.93 450.862 563.8 450.732C563.674 450.599 563.61 450.44 563.61 450.258Z" fill="#8C8C8C"/>
<path d="M236.008 434.4H254.175V297.035H236.008V434.4Z" fill="#376DF7"/>
<path d="M286.031 434.4H304.198V272.691H286.031V434.4Z" fill="#376DF7"/>
<path d="M336.053 434.401H354.22V241.891H336.053V434.401Z" fill="#376DF7"/>
<path d="M386.074 434.4H404.241V193.949H386.074V434.4Z" fill="#376DF7"/>
<path d="M436.098 434.399H454.265V389.688H436.098V434.399Z" fill="#376DF7"/>
<path d="M486.119 434.401H504.286V339.016H486.119V434.401Z" fill="#376DF7"/>
<path d="M536.141 434.4H554.308V213.324H536.141V434.4Z" fill="#376DF7"/>
<path d="M254.357 434.401H272.525V201.898H254.357V434.401Z" fill="#53B997"/>
<path d="M304.381 434.399H322.548V284.117H304.381V434.399Z" fill="#53B997"/>
<path d="M354.402 434.398H372.57V305.727H354.402V434.398Z" fill="#53B997"/>
<path d="M404.424 434.401H422.591V296.539H404.424V434.401Z" fill="#53B997"/>
<path d="M454.447 434.4H472.614V414.031H454.447V434.4Z" fill="#53B997"/>
<path d="M504.469 434.402H522.636V399.129H504.469V434.402Z" fill="#53B997"/>
<path d="M554.49 434.402H572.657V316.164H554.49V434.402Z" fill="#53B997"/>
<mask id="mask0_964_4421" style="mask-type:luminance" maskUnits="userSpaceOnUse" x="227" y="185" width="353" height="251">
<path d="M227.789 185.098H580.001V435.298H227.789V185.098Z" fill="white"/>
</mask>
<g mask="url(#mask0_964_4421)">
<path d="M254.266 235.68L304.288 384.72L354.31 235.68H404.332H454.354H504.376H554.398" stroke="#6750AA" stroke-width="1.8" stroke-linejoin="bevel"/>
</g>
<mask id="mask1_964_4421" style="mask-type:luminance" maskUnits="userSpaceOnUse" x="227" y="185" width="353" height="251">
<path d="M227.789 185.098H580.001V435.298H227.789V185.098Z" fill="white"/>
</mask>
<g mask="url(#mask1_964_4421)">
<path d="M254.266 210.844L304.288 260.524L354.31 359.884L404.332 210.844H454.354L504.376 384.724L554.398 310.204" stroke="#F8C541" stroke-width="1.8" stroke-linejoin="bevel"/>
</g>
<path d="M284.447 474.898H294.832V482.098H284.447V474.898Z" fill="#376DF7"/>
<path d="M307.119 482.301H302.811V474.132H303.865V481.367H307.119V482.301ZM307.836 479.448C307.836 478.485 308.105 477.725 308.643 477.17C309.181 476.611 309.91 476.331 310.831 476.331C311.707 476.331 312.392 476.6 312.888 477.138C313.387 477.672 313.637 478.413 313.637 479.358C313.637 480.279 313.371 481.023 312.841 481.589C312.31 482.155 311.598 482.438 310.705 482.438C309.833 482.438 309.137 482.164 308.617 481.615C308.096 481.067 307.836 480.344 307.836 479.448ZM308.891 479.416C308.891 480.088 309.06 480.617 309.397 481.004C309.738 481.39 310.195 481.584 310.768 481.584C311.359 481.584 311.809 481.396 312.118 481.019C312.428 480.64 312.582 480.096 312.582 479.39C312.582 478.68 312.428 478.135 312.118 477.755C311.809 477.375 311.359 477.186 310.768 477.186C310.188 477.186 309.729 477.384 309.392 477.781C309.058 478.179 308.891 478.724 308.891 479.416ZM320.023 482.301H318.995V478.984C318.995 477.785 318.557 477.186 317.682 477.186C317.228 477.186 316.855 477.354 316.564 477.692C316.272 478.029 316.126 478.456 316.126 478.973V482.301H315.092V476.468H316.126V477.433H316.147C316.587 476.699 317.225 476.331 318.061 476.331C318.701 476.331 319.188 476.537 319.522 476.948C319.856 477.356 320.023 477.952 320.023 478.736V482.301ZM326.81 482.301H325.776V481.33H325.755C325.33 482.069 324.669 482.438 323.772 482.438C323.034 482.438 322.447 482.176 322.011 481.652C321.575 481.125 321.357 480.415 321.357 479.522C321.357 478.558 321.603 477.787 322.096 477.207C322.588 476.623 323.231 476.331 324.026 476.331C324.82 476.331 325.397 476.641 325.755 477.259H325.776V473.668H326.81V482.301ZM325.782 478.831C325.782 478.363 325.627 477.973 325.318 477.66C325.012 477.344 324.634 477.186 324.184 477.186C323.635 477.186 323.203 477.391 322.887 477.803C322.57 478.21 322.412 478.768 322.412 479.474C322.412 480.125 322.563 480.64 322.865 481.019C323.171 481.396 323.577 481.584 324.084 481.584C324.583 481.584 324.991 481.399 325.307 481.03C325.623 480.657 325.782 480.195 325.782 479.643V478.831ZM328.265 479.448C328.265 478.485 328.534 477.725 329.072 477.17C329.61 476.611 330.34 476.331 331.261 476.331C332.136 476.331 332.822 476.6 333.317 477.138C333.817 477.672 334.066 478.413 334.066 479.358C334.066 480.279 333.801 481.023 333.27 481.589C332.739 482.155 332.027 482.438 331.134 482.438C330.262 482.438 329.566 482.164 329.046 481.615C328.526 481.067 328.265 480.344 328.265 479.448ZM329.32 479.416C329.32 480.088 329.489 480.617 329.826 481.004C330.167 481.39 330.624 481.584 331.197 481.584C331.788 481.584 332.238 481.396 332.547 481.019C332.857 480.64 333.012 480.096 333.012 479.39C333.012 478.68 332.857 478.135 332.547 477.755C332.238 477.375 331.788 477.186 331.197 477.186C330.617 477.186 330.159 477.384 329.821 477.781C329.487 478.179 329.32 478.724 329.32 479.416ZM340.452 482.301H339.424V478.984C339.424 477.785 338.986 477.186 338.111 477.186C337.657 477.186 337.285 477.354 336.993 477.692C336.701 478.029 336.555 478.456 336.555 478.973V482.301H335.522V476.468H336.555V477.433H336.576C337.016 476.699 337.654 476.331 338.491 476.331C339.13 476.331 339.617 476.537 339.951 476.948C340.285 477.356 340.452 477.952 340.452 478.736V482.301Z" fill="#2C3542" fill-opacity="0.65"/>
<path d="M353.574 474.898H363.959V482.098H353.574V474.898Z" fill="#53B997"/>
<path d="M372.992 479.247V482.301H371.937V474.132H374.258C375.14 474.132 375.824 474.345 376.309 474.77C376.798 475.196 377.042 475.804 377.042 476.595C377.042 477.396 376.757 478.047 376.188 478.546C375.618 479.042 374.906 479.276 374.052 479.247H372.992ZM372.992 475.06V478.319H373.968C374.611 478.319 375.1 478.175 375.434 477.887C375.768 477.595 375.935 477.179 375.935 476.637C375.935 475.586 375.312 475.06 374.068 475.06H372.992ZM378.556 476.874C379.136 476.512 379.805 476.331 380.565 476.331C381.971 476.331 382.674 477.07 382.674 478.546V482.301H381.651V481.399H381.625C381.221 482.092 380.625 482.438 379.837 482.438C379.271 482.438 378.821 482.285 378.487 481.979C378.153 481.673 377.986 481.26 377.986 480.74C377.986 479.65 378.631 479.015 379.921 478.836L381.651 478.594C381.651 477.641 381.257 477.164 380.47 477.164C379.77 477.164 379.132 477.4 378.556 477.871V476.874ZM380.285 479.559C379.807 479.622 379.477 479.741 379.294 479.917C379.115 480.093 379.025 480.339 379.025 480.655C379.025 480.933 379.123 481.16 379.32 481.336C379.517 481.512 379.777 481.599 380.101 481.599C380.551 481.599 380.922 481.441 381.213 481.125C381.505 480.808 381.651 480.411 381.651 479.933V479.374L380.285 479.559ZM387.515 477.491C387.343 477.368 387.106 477.307 386.803 477.307C386.403 477.307 386.072 477.495 385.812 477.871C385.552 478.244 385.422 478.736 385.422 479.348V482.301H384.388V476.468H385.422V477.655H385.443C385.738 476.797 386.248 476.368 386.972 476.368C387.208 476.368 387.389 476.395 387.515 476.447V477.491ZM388.385 474.412C388.385 474.229 388.447 474.076 388.57 473.953C388.696 473.826 388.851 473.763 389.034 473.763C389.22 473.763 389.377 473.825 389.503 473.948C389.633 474.071 389.698 474.225 389.698 474.412C389.698 474.595 389.633 474.747 389.503 474.871C389.377 474.99 389.22 475.05 389.034 475.05C388.848 475.05 388.693 474.99 388.57 474.871C388.447 474.747 388.385 474.595 388.385 474.412ZM388.507 482.301V476.468H389.54V482.301H388.507ZM391.064 481.04C391.585 481.417 392.145 481.605 392.746 481.605C393.552 481.605 393.954 481.341 393.954 480.814C393.954 480.589 393.866 480.404 393.69 480.26C393.515 480.112 393.158 479.938 392.62 479.738C391.973 479.478 391.553 479.221 391.36 478.968C391.166 478.711 391.07 478.402 391.07 478.04C391.07 477.523 391.287 477.11 391.723 476.801C392.163 476.488 392.703 476.331 393.342 476.331C393.838 476.331 394.299 476.417 394.724 476.59V477.586C394.288 477.305 393.794 477.164 393.242 477.164C392.912 477.164 392.643 477.237 392.435 477.381C392.228 477.525 392.124 477.715 392.124 477.95C392.124 478.182 392.198 478.363 392.346 478.493C392.497 478.623 392.829 478.79 393.342 478.994C393.993 479.237 394.432 479.488 394.661 479.748C394.889 480.009 395.004 480.33 395.004 480.713C395.004 481.248 394.784 481.67 394.344 481.979C393.908 482.285 393.342 482.438 392.646 482.438C392.042 482.438 391.514 482.324 391.064 482.095V481.04Z" fill="#2C3542" fill-opacity="0.65"/>
<path d="M407.998 477.962C407.998 477.664 408.23 477.422 408.517 477.422H417.863C418.15 477.422 418.383 477.664 418.383 477.962V479.042C418.383 479.34 418.15 479.582 417.863 479.582H408.517C408.23 479.582 407.998 479.34 407.998 479.042V477.962Z" fill="#6750AA"/>
<path d="M430.668 482.301H426.359V474.132H427.414V481.367H430.668V482.301ZM431.649 474.412C431.649 474.229 431.71 474.076 431.833 473.953C431.96 473.826 432.114 473.763 432.297 473.763C432.484 473.763 432.64 473.825 432.767 473.948C432.897 474.071 432.962 474.225 432.962 474.412C432.962 474.595 432.897 474.747 432.767 474.871C432.64 474.99 432.484 475.05 432.297 475.05C432.111 475.05 431.956 474.99 431.833 474.871C431.71 474.747 431.649 474.595 431.649 474.412ZM431.77 482.301V476.468H432.804V482.301H431.77ZM439.585 482.301H438.557V478.984C438.557 477.785 438.119 477.186 437.244 477.186C436.79 477.186 436.418 477.354 436.126 477.692C435.834 478.029 435.688 478.456 435.688 478.973V482.301H434.654V476.468H435.688V477.433H435.709C436.149 476.699 436.787 476.331 437.623 476.331C438.263 476.331 438.75 476.537 439.084 476.948C439.418 477.356 439.585 477.952 439.585 478.736V482.301ZM446.061 479.648H441.979C441.997 480.271 442.167 480.752 442.491 481.093C442.814 481.431 443.266 481.599 443.846 481.599C444.5 481.599 445.099 481.39 445.644 480.972V481.895C445.131 482.257 444.451 482.438 443.604 482.438C442.76 482.438 442.101 482.171 441.626 481.636C441.155 481.102 440.919 480.36 440.919 479.411C440.919 478.518 441.178 477.781 441.695 477.201C442.215 476.621 442.86 476.331 443.63 476.331C444.393 476.331 444.989 476.577 445.418 477.07C445.846 477.558 446.061 478.244 446.061 479.126V479.648ZM445.027 478.82C445.024 478.293 444.899 477.885 444.653 477.597C444.407 477.309 444.061 477.164 443.614 477.164C443.203 477.164 442.846 477.317 442.544 477.623C442.245 477.929 442.057 478.328 441.979 478.82H445.027ZM452.716 482.301V475.313C452.554 475.475 452.28 475.656 451.893 475.857C451.51 476.057 451.155 476.198 450.828 476.279V475.266C451.261 475.146 451.723 474.957 452.215 474.696C452.707 474.433 453.085 474.185 453.349 473.953H453.739V482.301H452.716Z" fill="#2C3542" fill-opacity="0.65"/>
<path d="M468.699 477.962C468.699 477.664 468.932 477.422 469.218 477.422H478.565C478.851 477.422 479.084 477.664 479.084 477.962V479.042C479.084 479.34 478.851 479.582 478.565 479.582H469.218C468.932 479.582 468.699 479.34 468.699 479.042V477.962Z" fill="#F8C541"/>
<path d="M491.369 482.301H487.061V474.132H488.115V481.367H491.369V482.301ZM492.35 474.412C492.35 474.229 492.411 474.076 492.534 473.953C492.661 473.826 492.816 473.763 492.998 473.763C493.185 473.763 493.341 473.825 493.468 473.948C493.598 474.071 493.663 474.225 493.663 474.412C493.663 474.595 493.598 474.747 493.468 474.871C493.341 474.99 493.185 475.05 492.998 475.05C492.812 475.05 492.657 474.99 492.534 474.871C492.411 474.747 492.35 474.595 492.35 474.412ZM492.471 482.301V476.468H493.505V482.301H492.471ZM500.286 482.301H499.258V478.984C499.258 477.785 498.82 477.186 497.945 477.186C497.491 477.186 497.119 477.354 496.827 477.692C496.535 478.029 496.389 478.456 496.389 478.973V482.301H495.356V476.468H496.389V477.433H496.41C496.85 476.699 497.488 476.331 498.325 476.331C498.964 476.331 499.451 476.537 499.785 476.948C500.119 477.356 500.286 477.952 500.286 478.736V482.301ZM506.762 479.648H502.68C502.698 480.271 502.869 480.752 503.192 481.093C503.515 481.431 503.967 481.599 504.547 481.599C505.201 481.599 505.801 481.39 506.346 480.972V481.895C505.832 482.257 505.152 482.438 504.305 482.438C503.461 482.438 502.802 482.171 502.327 481.636C501.856 481.102 501.621 480.36 501.621 479.411C501.621 478.518 501.879 477.781 502.396 477.201C502.916 476.621 503.561 476.331 504.331 476.331C505.094 476.331 505.69 476.577 506.119 477.07C506.548 477.558 506.762 478.244 506.762 479.126V479.648ZM505.729 478.82C505.725 478.293 505.6 477.885 505.354 477.597C505.108 477.309 504.762 477.164 504.315 477.164C503.904 477.164 503.547 477.317 503.245 477.623C502.946 477.929 502.758 478.328 502.68 478.82H505.729ZM514.91 476.273C514.91 475.834 514.771 475.489 514.493 475.24C514.215 474.987 513.837 474.86 513.359 474.86C513.022 474.86 512.681 474.946 512.336 475.118C511.992 475.291 511.67 475.537 511.371 475.857V474.855C511.638 474.577 511.941 474.364 512.278 474.217C512.619 474.069 513.018 473.995 513.475 473.995C514.213 473.995 514.808 474.194 515.258 474.591C515.708 474.985 515.933 475.519 515.933 476.194C515.933 476.795 515.794 477.316 515.516 477.755C515.242 478.195 514.771 478.645 514.103 479.105C513.421 479.576 512.964 479.914 512.732 480.118C512.503 480.321 512.343 480.517 512.252 480.703C512.16 480.889 512.115 481.116 512.115 481.383H516.175V482.301H511.039V481.895C511.039 481.424 511.102 481.025 511.229 480.698C511.359 480.367 511.571 480.047 511.867 479.738C512.162 479.425 512.623 479.051 513.248 478.615C513.888 478.165 514.324 477.771 514.556 477.433C514.792 477.092 514.91 476.706 514.91 476.273Z" fill="#2C3542" fill-opacity="0.65"/>
</g>
<defs>
<clipPath id="clip0_964_4421">
<rect width="450" height="338.4" fill="white" transform="translate(175 150)"/>
</clipPath>
</defs>
</svg>
