<svg width="464" height="379" viewBox="0 0 464 379" fill="none" xmlns="http://www.w3.org/2000/svg">
<g filter="url(#filter0_d_964_4433)">
<g clip-path="url(#clip0_964_4433)">
<rect x="7" y="7" width="450" height="364.253" rx="5.4878" fill="white"/>
<rect x="7" y="7" width="450" height="364.253" rx="5.4878" fill="white"/>
</g>
</g>
<line x1="64.9641" y1="43.0125" x2="434.705" y2="43.0125" stroke="#D3D6DF" stroke-width="0.685976" stroke-linecap="square" stroke-dasharray="1.37 1.37"/>
<line x1="64.9641" y1="82.7976" x2="434.705" y2="82.7976" stroke="#D3D6DF" stroke-width="0.685976" stroke-linecap="square" stroke-dasharray="1.37 1.37"/>
<line x1="64.9641" y1="122.587" x2="434.705" y2="122.587" stroke="#D3D6DF" stroke-width="0.685976" stroke-linecap="square" stroke-dasharray="1.37 1.37"/>
<line x1="64.9641" y1="162.372" x2="434.705" y2="162.372" stroke="#D3D6DF" stroke-width="0.685976" stroke-linecap="square" stroke-dasharray="1.37 1.37"/>
<line x1="64.9641" y1="202.157" x2="434.705" y2="202.157" stroke="#D3D6DF" stroke-width="0.685976" stroke-linecap="square" stroke-dasharray="1.37 1.37"/>
<line x1="64.9641" y1="241.946" x2="434.705" y2="241.946" stroke="#D3D6DF" stroke-width="0.685976" stroke-linecap="square" stroke-dasharray="1.37 1.37"/>
<line x1="64.6211" y1="281.731" x2="435.048" y2="281.731" stroke="#3347E6" stroke-width="0.685976"/>
<path d="M76.7222 303.051V302.579C77.4393 301.854 78.0466 301.222 78.5442 300.68C79.0417 300.131 79.4186 299.641 79.6747 299.209C79.9308 298.778 80.0588 298.368 80.0588 297.98C80.0588 297.57 79.9454 297.234 79.7186 296.97C79.4991 296.707 79.1515 296.575 78.6759 296.575C78.3832 296.575 78.1052 296.656 77.8417 296.817C77.5856 296.978 77.3552 297.182 77.1503 297.431L76.6783 296.97C76.971 296.656 77.282 296.403 77.6113 296.213C77.9405 296.015 78.3283 295.917 78.7747 295.917C79.1991 295.917 79.5649 296.001 79.8722 296.169C80.1869 296.337 80.4283 296.575 80.5966 296.882C80.7649 297.182 80.8491 297.537 80.8491 297.947C80.8491 298.393 80.721 298.843 80.4649 299.297C80.2161 299.751 79.8686 300.234 79.4222 300.746C78.9832 301.251 78.4747 301.807 77.8966 302.414C78.0869 302.4 78.2844 302.389 78.4893 302.381C78.6942 302.367 78.8881 302.359 79.071 302.359H81.1893V303.051H76.7222ZM84.3853 303.182C83.6975 303.182 83.156 302.868 82.7609 302.239C82.3731 301.602 82.1792 300.698 82.1792 299.528C82.1792 298.35 82.3731 297.453 82.7609 296.839C83.156 296.224 83.6975 295.917 84.3853 295.917C85.0804 295.917 85.6218 296.228 86.0097 296.85C86.3975 297.464 86.5914 298.357 86.5914 299.528C86.5914 300.698 86.3975 301.602 86.0097 302.239C85.6218 302.868 85.0804 303.182 84.3853 303.182ZM84.3853 302.535C84.6706 302.535 84.9194 302.429 85.1316 302.217C85.3511 302.004 85.5194 301.675 85.6365 301.229C85.7536 300.782 85.8121 300.215 85.8121 299.528C85.8121 298.832 85.7536 298.269 85.6365 297.837C85.5194 297.398 85.3511 297.076 85.1316 296.872C84.9194 296.667 84.6706 296.564 84.3853 296.564C84.0999 296.564 83.8511 296.667 83.6389 296.872C83.4267 297.076 83.2584 297.398 83.134 297.837C83.017 298.269 82.9584 298.832 82.9584 299.528C82.9584 300.215 83.017 300.782 83.134 301.229C83.2584 301.675 83.4267 302.004 83.6389 302.217C83.8511 302.429 84.0999 302.535 84.3853 302.535ZM87.6251 303.051V302.381H89.2385V297.058H87.9654V296.542C88.28 296.491 88.5544 296.425 88.7885 296.345C89.0227 296.257 89.2349 296.158 89.4251 296.048H90.0398V302.381H91.4995V303.051H87.6251ZM95.3868 303.051V298.265C95.3868 298.082 95.3941 297.863 95.4087 297.607C95.4234 297.351 95.4343 297.131 95.4416 296.948H95.3977C95.3099 297.109 95.2185 297.267 95.1234 297.42C95.0282 297.574 94.9294 297.739 94.827 297.914L93.0819 300.439H97.1209V301.075H92.2258V300.559L95.288 296.048H96.1441V303.051H95.3868Z" fill="#222539"/>
<path d="M123.281 303.051V302.579C123.998 301.854 124.605 301.222 125.103 300.68C125.6 300.131 125.977 299.641 126.233 299.209C126.489 298.778 126.617 298.368 126.617 297.98C126.617 297.57 126.504 297.234 126.277 296.97C126.058 296.707 125.71 296.575 125.234 296.575C124.942 296.575 124.664 296.656 124.4 296.817C124.144 296.978 123.914 297.182 123.709 297.431L123.237 296.97C123.53 296.656 123.841 296.403 124.17 296.213C124.499 296.015 124.887 295.917 125.333 295.917C125.758 295.917 126.124 296.001 126.431 296.169C126.745 296.337 126.987 296.575 127.155 296.882C127.324 297.182 127.408 297.537 127.408 297.947C127.408 298.393 127.28 298.843 127.024 299.297C126.775 299.751 126.427 300.234 125.981 300.746C125.542 301.251 125.033 301.807 124.455 302.414C124.645 302.4 124.843 302.389 125.048 302.381C125.253 302.367 125.447 302.359 125.63 302.359H127.748V303.051H123.281ZM130.944 303.182C130.256 303.182 129.715 302.868 129.319 302.239C128.932 301.602 128.738 300.698 128.738 299.528C128.738 298.35 128.932 297.453 129.319 296.839C129.715 296.224 130.256 295.917 130.944 295.917C131.639 295.917 132.18 296.228 132.568 296.85C132.956 297.464 133.15 298.357 133.15 299.528C133.15 300.698 132.956 301.602 132.568 302.239C132.18 302.868 131.639 303.182 130.944 303.182ZM130.944 302.535C131.229 302.535 131.478 302.429 131.69 302.217C131.91 302.004 132.078 301.675 132.195 301.229C132.312 300.782 132.371 300.215 132.371 299.528C132.371 298.832 132.312 298.269 132.195 297.837C132.078 297.398 131.91 297.076 131.69 296.872C131.478 296.667 131.229 296.564 130.944 296.564C130.658 296.564 130.41 296.667 130.198 296.872C129.985 297.076 129.817 297.398 129.693 297.837C129.576 298.269 129.517 298.832 129.517 299.528C129.517 300.215 129.576 300.782 129.693 301.229C129.817 301.675 129.985 302.004 130.198 302.217C130.41 302.429 130.658 302.535 130.944 302.535ZM134.184 303.051V302.381H135.797V297.058H134.524V296.542C134.839 296.491 135.113 296.425 135.347 296.345C135.581 296.257 135.793 296.158 135.984 296.048H136.598V302.381H138.058V303.051H134.184ZM141.144 303.182C140.771 303.182 140.442 303.139 140.156 303.051C139.878 302.956 139.633 302.835 139.421 302.689C139.216 302.542 139.033 302.389 138.872 302.228L139.278 301.701C139.49 301.906 139.736 302.092 140.014 302.261C140.299 302.429 140.654 302.513 141.078 302.513C141.371 302.513 141.638 302.443 141.88 302.304C142.121 302.165 142.311 301.972 142.45 301.723C142.589 301.474 142.659 301.181 142.659 300.845C142.659 300.34 142.52 299.948 142.242 299.67C141.964 299.385 141.59 299.242 141.122 299.242C140.873 299.242 140.658 299.279 140.475 299.352C140.299 299.425 140.105 299.531 139.893 299.67L139.454 299.396L139.684 296.048H143.12V296.74H140.387L140.189 298.924C140.365 298.829 140.54 298.756 140.716 298.704C140.892 298.646 141.089 298.617 141.309 298.617C141.711 298.617 142.073 298.697 142.395 298.858C142.725 299.012 142.984 299.25 143.175 299.572C143.372 299.893 143.471 300.307 143.471 300.812C143.471 301.317 143.361 301.748 143.142 302.107C142.922 302.458 142.633 302.725 142.275 302.908C141.923 303.091 141.547 303.182 141.144 303.182Z" fill="#222539"/>
<path d="M169.839 303.051V302.579C170.556 301.854 171.164 301.222 171.661 300.68C172.159 300.131 172.536 299.641 172.792 299.209C173.048 298.778 173.176 298.368 173.176 297.98C173.176 297.57 173.063 297.234 172.836 296.97C172.616 296.707 172.269 296.575 171.793 296.575C171.5 296.575 171.222 296.656 170.959 296.817C170.703 296.978 170.472 297.182 170.267 297.431L169.796 296.97C170.088 296.656 170.399 296.403 170.728 296.213C171.058 296.015 171.446 295.917 171.892 295.917C172.316 295.917 172.682 296.001 172.989 296.169C173.304 296.337 173.546 296.575 173.714 296.882C173.882 297.182 173.966 297.537 173.966 297.947C173.966 298.393 173.838 298.843 173.582 299.297C173.333 299.751 172.986 300.234 172.539 300.746C172.1 301.251 171.592 301.807 171.014 302.414C171.204 302.4 171.402 302.389 171.606 302.381C171.811 302.367 172.005 302.359 172.188 302.359H174.306V303.051H169.839ZM177.502 303.182C176.815 303.182 176.273 302.868 175.878 302.239C175.49 301.602 175.296 300.698 175.296 299.528C175.296 298.35 175.49 297.453 175.878 296.839C176.273 296.224 176.815 295.917 177.502 295.917C178.198 295.917 178.739 296.228 179.127 296.85C179.515 297.464 179.709 298.357 179.709 299.528C179.709 300.698 179.515 301.602 179.127 302.239C178.739 302.868 178.198 303.182 177.502 303.182ZM177.502 302.535C177.788 302.535 178.037 302.429 178.249 302.217C178.468 302.004 178.637 301.675 178.754 301.229C178.871 300.782 178.929 300.215 178.929 299.528C178.929 298.832 178.871 298.269 178.754 297.837C178.637 297.398 178.468 297.076 178.249 296.872C178.037 296.667 177.788 296.564 177.502 296.564C177.217 296.564 176.968 296.667 176.756 296.872C176.544 297.076 176.376 297.398 176.251 297.837C176.134 298.269 176.076 298.832 176.076 299.528C176.076 300.215 176.134 300.782 176.251 301.229C176.376 301.675 176.544 302.004 176.756 302.217C176.968 302.429 177.217 302.535 177.502 302.535ZM180.742 303.051V302.381H182.356V297.058H181.083V296.542C181.397 296.491 181.672 296.425 181.906 296.345C182.14 296.257 182.352 296.158 182.542 296.048H183.157V302.381H184.617V303.051H180.742ZM188.076 303.182C187.732 303.182 187.414 303.113 187.121 302.974C186.828 302.835 186.576 302.626 186.364 302.348C186.159 302.063 185.994 301.712 185.87 301.295C185.753 300.87 185.694 300.384 185.694 299.835C185.694 299.118 185.767 298.511 185.914 298.013C186.06 297.515 186.254 297.113 186.495 296.806C186.744 296.498 187.026 296.275 187.341 296.136C187.662 295.99 187.995 295.917 188.339 295.917C188.705 295.917 189.02 295.986 189.283 296.125C189.554 296.257 189.784 296.429 189.975 296.641L189.525 297.146C189.378 296.97 189.203 296.835 188.998 296.74C188.8 296.637 188.588 296.586 188.361 296.586C188.017 296.586 187.699 296.689 187.406 296.893C187.121 297.098 186.891 297.439 186.715 297.914C186.539 298.382 186.452 299.023 186.452 299.835C186.452 300.406 186.514 300.896 186.638 301.306C186.762 301.708 186.945 302.015 187.187 302.228C187.428 302.44 187.728 302.546 188.087 302.546C188.321 302.546 188.533 302.48 188.723 302.348C188.921 302.209 189.075 302.019 189.184 301.778C189.294 301.536 189.349 301.262 189.349 300.954C189.349 300.64 189.298 300.365 189.195 300.131C189.1 299.897 188.954 299.718 188.756 299.593C188.559 299.462 188.306 299.396 187.999 299.396C187.765 299.396 187.509 299.473 187.231 299.626C186.953 299.78 186.686 300.043 186.43 300.417L186.408 299.758C186.634 299.458 186.902 299.22 187.209 299.045C187.516 298.869 187.823 298.781 188.131 298.781C188.533 298.781 188.881 298.865 189.173 299.034C189.473 299.195 189.704 299.436 189.865 299.758C190.026 300.073 190.106 300.472 190.106 300.954C190.106 301.393 190.015 301.781 189.832 302.118C189.649 302.447 189.404 302.707 189.097 302.897C188.789 303.087 188.449 303.182 188.076 303.182Z" fill="#222539"/>
<path d="M216.396 303.051V302.579C217.113 301.854 217.72 301.222 218.218 300.68C218.716 300.131 219.092 299.641 219.348 299.209C219.605 298.778 219.733 298.368 219.733 297.98C219.733 297.57 219.619 297.234 219.392 296.97C219.173 296.707 218.825 296.575 218.35 296.575C218.057 296.575 217.779 296.656 217.516 296.817C217.259 296.978 217.029 297.182 216.824 297.431L216.352 296.97C216.645 296.656 216.956 296.403 217.285 296.213C217.614 296.015 218.002 295.917 218.448 295.917C218.873 295.917 219.239 296.001 219.546 296.169C219.861 296.337 220.102 296.575 220.27 296.882C220.439 297.182 220.523 297.537 220.523 297.947C220.523 298.393 220.395 298.843 220.139 299.297C219.89 299.751 219.542 300.234 219.096 300.746C218.657 301.251 218.148 301.807 217.57 302.414C217.761 302.4 217.958 302.389 218.163 302.381C218.368 302.367 218.562 302.359 218.745 302.359H220.863V303.051H216.396ZM224.059 303.182C223.371 303.182 222.83 302.868 222.435 302.239C222.047 301.602 221.853 300.698 221.853 299.528C221.853 298.35 222.047 297.453 222.435 296.839C222.83 296.224 223.371 295.917 224.059 295.917C224.754 295.917 225.296 296.228 225.683 296.85C226.071 297.464 226.265 298.357 226.265 299.528C226.265 300.698 226.071 301.602 225.683 302.239C225.296 302.868 224.754 303.182 224.059 303.182ZM224.059 302.535C224.344 302.535 224.593 302.429 224.805 302.217C225.025 302.004 225.193 301.675 225.31 301.229C225.427 300.782 225.486 300.215 225.486 299.528C225.486 298.832 225.427 298.269 225.31 297.837C225.193 297.398 225.025 297.076 224.805 296.872C224.593 296.667 224.344 296.564 224.059 296.564C223.774 296.564 223.525 296.667 223.313 296.872C223.101 297.076 222.932 297.398 222.808 297.837C222.691 298.269 222.632 298.832 222.632 299.528C222.632 300.215 222.691 300.782 222.808 301.229C222.932 301.675 223.101 302.004 223.313 302.217C223.525 302.429 223.774 302.535 224.059 302.535ZM227.299 303.051V302.381H228.912V297.058H227.639V296.542C227.954 296.491 228.228 296.425 228.462 296.345C228.697 296.257 228.909 296.158 229.099 296.048H229.714V302.381H231.173V303.051H227.299ZM233.689 303.051C233.725 302.158 233.817 301.357 233.963 300.647C234.109 299.937 234.325 299.272 234.611 298.65C234.896 298.02 235.269 297.384 235.73 296.74H232.196V296.048H236.652V296.531C236.235 297.065 235.895 297.581 235.631 298.079C235.368 298.569 235.159 299.067 235.006 299.572C234.859 300.076 234.75 300.611 234.676 301.174C234.603 301.737 234.548 302.363 234.512 303.051H233.689Z" fill="#222539"/>
<path d="M262.955 303.051V302.579C263.672 301.854 264.279 301.222 264.777 300.68C265.274 300.131 265.651 299.641 265.907 299.209C266.163 298.778 266.291 298.368 266.291 297.98C266.291 297.57 266.178 297.234 265.951 296.97C265.731 296.707 265.384 296.575 264.908 296.575C264.616 296.575 264.338 296.656 264.074 296.817C263.818 296.978 263.588 297.182 263.383 297.431L262.911 296.97C263.203 296.656 263.514 296.403 263.844 296.213C264.173 296.015 264.561 295.917 265.007 295.917C265.431 295.917 265.797 296.001 266.105 296.169C266.419 296.337 266.661 296.575 266.829 296.882C266.997 297.182 267.081 297.537 267.081 297.947C267.081 298.393 266.953 298.843 266.697 299.297C266.449 299.751 266.101 300.234 265.655 300.746C265.216 301.251 264.707 301.807 264.129 302.414C264.319 302.4 264.517 302.389 264.722 302.381C264.927 302.367 265.121 302.359 265.303 302.359H267.422V303.051H262.955ZM270.618 303.182C269.93 303.182 269.388 302.868 268.993 302.239C268.605 301.602 268.412 300.698 268.412 299.528C268.412 298.35 268.605 297.453 268.993 296.839C269.388 296.224 269.93 295.917 270.618 295.917C271.313 295.917 271.854 296.228 272.242 296.85C272.63 297.464 272.824 298.357 272.824 299.528C272.824 300.698 272.63 301.602 272.242 302.239C271.854 302.868 271.313 303.182 270.618 303.182ZM270.618 302.535C270.903 302.535 271.152 302.429 271.364 302.217C271.584 302.004 271.752 301.675 271.869 301.229C271.986 300.782 272.045 300.215 272.045 299.528C272.045 298.832 271.986 298.269 271.869 297.837C271.752 297.398 271.584 297.076 271.364 296.872C271.152 296.667 270.903 296.564 270.618 296.564C270.332 296.564 270.084 296.667 269.871 296.872C269.659 297.076 269.491 297.398 269.366 297.837C269.249 298.269 269.191 298.832 269.191 299.528C269.191 300.215 269.249 300.782 269.366 301.229C269.491 301.675 269.659 302.004 269.871 302.217C270.084 302.429 270.332 302.535 270.618 302.535ZM273.858 303.051V302.381H275.471V297.058H274.198V296.542C274.512 296.491 274.787 296.425 275.021 296.345C275.255 296.257 275.467 296.158 275.658 296.048H276.272V302.381H277.732V303.051H273.858ZM280.994 303.182C280.562 303.182 280.174 303.102 279.83 302.941C279.486 302.773 279.216 302.542 279.018 302.25C278.82 301.957 278.722 301.628 278.722 301.262C278.722 300.954 278.787 300.68 278.919 300.439C279.051 300.197 279.219 299.985 279.424 299.802C279.629 299.619 279.841 299.469 280.061 299.352V299.308C279.805 299.125 279.574 298.902 279.369 298.639C279.172 298.375 279.073 298.061 279.073 297.695C279.073 297.336 279.157 297.025 279.325 296.762C279.501 296.491 279.735 296.282 280.028 296.136C280.32 295.99 280.65 295.917 281.016 295.917C281.63 295.917 282.109 296.092 282.453 296.443C282.805 296.787 282.98 297.23 282.98 297.772C282.98 298.02 282.925 298.254 282.816 298.474C282.713 298.686 282.585 298.88 282.431 299.056C282.285 299.231 282.142 299.374 282.003 299.484V299.528C282.208 299.652 282.402 299.795 282.585 299.956C282.775 300.109 282.929 300.3 283.046 300.526C283.163 300.746 283.222 301.009 283.222 301.317C283.222 301.668 283.13 301.982 282.947 302.261C282.764 302.539 282.505 302.762 282.168 302.93C281.831 303.098 281.44 303.182 280.994 303.182ZM281.016 302.579C281.301 302.579 281.55 302.524 281.762 302.414C281.981 302.304 282.15 302.154 282.267 301.964C282.391 301.767 282.453 301.547 282.453 301.306C282.453 300.984 282.362 300.724 282.179 300.526C281.996 300.329 281.755 300.161 281.455 300.022C281.162 299.882 280.84 299.743 280.489 299.604C280.196 299.795 279.947 300.022 279.742 300.285C279.545 300.548 279.446 300.852 279.446 301.196C279.446 301.459 279.512 301.697 279.644 301.909C279.783 302.114 279.969 302.279 280.203 302.403C280.445 302.52 280.716 302.579 281.016 302.579ZM281.487 299.275C281.744 299.048 281.937 298.814 282.069 298.573C282.208 298.331 282.278 298.075 282.278 297.804C282.278 297.57 282.227 297.358 282.124 297.168C282.029 296.97 281.886 296.813 281.696 296.696C281.506 296.579 281.275 296.52 281.005 296.52C280.661 296.52 280.375 296.63 280.148 296.85C279.929 297.062 279.819 297.343 279.819 297.695C279.819 297.987 279.896 298.229 280.05 298.419C280.211 298.609 280.419 298.77 280.675 298.902C280.931 299.034 281.202 299.158 281.487 299.275Z" fill="#222539"/>
<path d="M309.513 303.051V302.579C310.23 301.854 310.838 301.222 311.335 300.68C311.833 300.131 312.21 299.641 312.466 299.209C312.722 298.778 312.85 298.368 312.85 297.98C312.85 297.57 312.736 297.234 312.51 296.97C312.29 296.707 311.943 296.575 311.467 296.575C311.174 296.575 310.896 296.656 310.633 296.817C310.377 296.978 310.146 297.182 309.941 297.431L309.469 296.97C309.762 296.656 310.073 296.403 310.402 296.213C310.732 296.015 311.119 295.917 311.566 295.917C311.99 295.917 312.356 296.001 312.663 296.169C312.978 296.337 313.219 296.575 313.388 296.882C313.556 297.182 313.64 297.537 313.64 297.947C313.64 298.393 313.512 298.843 313.256 299.297C313.007 299.751 312.66 300.234 312.213 300.746C311.774 301.251 311.266 301.807 310.688 302.414C310.878 302.4 311.075 302.389 311.28 302.381C311.485 302.367 311.679 302.359 311.862 302.359H313.98V303.051H309.513ZM317.176 303.182C316.488 303.182 315.947 302.868 315.552 302.239C315.164 301.602 314.97 300.698 314.97 299.528C314.97 298.35 315.164 297.453 315.552 296.839C315.947 296.224 316.488 295.917 317.176 295.917C317.871 295.917 318.413 296.228 318.801 296.85C319.188 297.464 319.382 298.357 319.382 299.528C319.382 300.698 319.188 301.602 318.801 302.239C318.413 302.868 317.871 303.182 317.176 303.182ZM317.176 302.535C317.462 302.535 317.71 302.429 317.923 302.217C318.142 302.004 318.31 301.675 318.427 301.229C318.545 300.782 318.603 300.215 318.603 299.528C318.603 298.832 318.545 298.269 318.427 297.837C318.31 297.398 318.142 297.076 317.923 296.872C317.71 296.667 317.462 296.564 317.176 296.564C316.891 296.564 316.642 296.667 316.43 296.872C316.218 297.076 316.049 297.398 315.925 297.837C315.808 298.269 315.749 298.832 315.749 299.528C315.749 300.215 315.808 300.782 315.925 301.229C316.049 301.675 316.218 302.004 316.43 302.217C316.642 302.429 316.891 302.535 317.176 302.535ZM320.416 303.051V302.381H322.03V297.058H320.756V296.542C321.071 296.491 321.345 296.425 321.58 296.345C321.814 296.257 322.026 296.158 322.216 296.048H322.831V302.381H324.291V303.051H320.416ZM327.047 303.182C326.681 303.182 326.363 303.113 326.092 302.974C325.822 302.835 325.595 302.663 325.412 302.458L325.862 301.953C326.008 302.129 326.184 302.268 326.389 302.37C326.594 302.465 326.802 302.513 327.014 302.513C327.366 302.513 327.684 302.411 327.969 302.206C328.262 302.001 328.492 301.661 328.661 301.185C328.836 300.709 328.924 300.069 328.924 299.264C328.924 298.693 328.862 298.207 328.738 297.804C328.62 297.395 328.441 297.084 328.2 296.872C327.958 296.659 327.658 296.553 327.3 296.553C327.066 296.553 326.853 296.623 326.663 296.762C326.473 296.893 326.319 297.08 326.202 297.322C326.092 297.556 326.038 297.83 326.038 298.145C326.038 298.459 326.085 298.734 326.18 298.968C326.283 299.202 326.433 299.385 326.63 299.517C326.828 299.641 327.08 299.703 327.388 299.703C327.622 299.703 327.878 299.626 328.156 299.473C328.434 299.312 328.701 299.045 328.957 298.672L328.979 299.341C328.759 299.634 328.492 299.872 328.178 300.054C327.87 300.23 327.563 300.318 327.256 300.318C326.853 300.318 326.502 300.237 326.202 300.076C325.902 299.908 325.672 299.663 325.511 299.341C325.35 299.019 325.269 298.62 325.269 298.145C325.269 297.706 325.361 297.318 325.544 296.981C325.734 296.645 325.983 296.385 326.29 296.202C326.597 296.012 326.934 295.917 327.3 295.917C327.651 295.917 327.969 295.986 328.255 296.125C328.547 296.264 328.8 296.476 329.012 296.762C329.224 297.04 329.389 297.391 329.506 297.815C329.63 298.232 329.692 298.715 329.692 299.264C329.692 299.974 329.619 300.581 329.473 301.086C329.327 301.584 329.129 301.986 328.88 302.293C328.631 302.601 328.35 302.828 328.035 302.974C327.72 303.113 327.391 303.182 327.047 303.182Z" fill="#222539"/>
<path d="M356.072 303.051V302.579C356.789 301.854 357.396 301.222 357.894 300.68C358.391 300.131 358.768 299.641 359.024 299.209C359.28 298.778 359.408 298.368 359.408 297.98C359.408 297.57 359.295 297.234 359.068 296.97C358.849 296.707 358.501 296.575 358.025 296.575C357.733 296.575 357.455 296.656 357.191 296.817C356.935 296.978 356.705 297.182 356.5 297.431L356.028 296.97C356.321 296.656 356.632 296.403 356.961 296.213C357.29 296.015 357.678 295.917 358.124 295.917C358.549 295.917 358.915 296.001 359.222 296.169C359.536 296.337 359.778 296.575 359.946 296.882C360.115 297.182 360.199 297.537 360.199 297.947C360.199 298.393 360.071 298.843 359.815 299.297C359.566 299.751 359.218 300.234 358.772 300.746C358.333 301.251 357.824 301.807 357.246 302.414C357.436 302.4 357.634 302.389 357.839 302.381C358.044 302.367 358.238 302.359 358.421 302.359H360.539V303.051H356.072ZM363.735 303.182C363.047 303.182 362.506 302.868 362.11 302.239C361.723 301.602 361.529 300.698 361.529 299.528C361.529 298.35 361.723 297.453 362.11 296.839C362.506 296.224 363.047 295.917 363.735 295.917C364.43 295.917 364.971 296.228 365.359 296.85C365.747 297.464 365.941 298.357 365.941 299.528C365.941 300.698 365.747 301.602 365.359 302.239C364.971 302.868 364.43 303.182 363.735 303.182ZM363.735 302.535C364.02 302.535 364.269 302.429 364.481 302.217C364.701 302.004 364.869 301.675 364.986 301.229C365.103 300.782 365.162 300.215 365.162 299.528C365.162 298.832 365.103 298.269 364.986 297.837C364.869 297.398 364.701 297.076 364.481 296.872C364.269 296.667 364.02 296.564 363.735 296.564C363.45 296.564 363.201 296.667 362.989 296.872C362.776 297.076 362.608 297.398 362.484 297.837C362.367 298.269 362.308 298.832 362.308 299.528C362.308 300.215 362.367 300.782 362.484 301.229C362.608 301.675 362.776 302.004 362.989 302.217C363.201 302.429 363.45 302.535 363.735 302.535ZM366.876 303.051V302.579C367.593 301.854 368.2 301.222 368.698 300.68C369.195 300.131 369.572 299.641 369.828 299.209C370.084 298.778 370.213 298.368 370.213 297.98C370.213 297.57 370.099 297.234 369.872 296.97C369.653 296.707 369.305 296.575 368.83 296.575C368.537 296.575 368.259 296.656 367.995 296.817C367.739 296.978 367.509 297.182 367.304 297.431L366.832 296.97C367.125 296.656 367.436 296.403 367.765 296.213C368.094 296.015 368.482 295.917 368.928 295.917C369.353 295.917 369.719 296.001 370.026 296.169C370.341 296.337 370.582 296.575 370.75 296.882C370.919 297.182 371.003 297.537 371.003 297.947C371.003 298.393 370.875 298.843 370.619 299.297C370.37 299.751 370.022 300.234 369.576 300.746C369.137 301.251 368.628 301.807 368.05 302.414C368.241 302.4 368.438 302.389 368.643 302.381C368.848 302.367 369.042 302.359 369.225 302.359H371.343V303.051H366.876ZM374.539 303.182C373.851 303.182 373.31 302.868 372.915 302.239C372.527 301.602 372.333 300.698 372.333 299.528C372.333 298.35 372.527 297.453 372.915 296.839C373.31 296.224 373.851 295.917 374.539 295.917C375.234 295.917 375.776 296.228 376.163 296.85C376.551 297.464 376.745 298.357 376.745 299.528C376.745 300.698 376.551 301.602 376.163 302.239C375.776 302.868 375.234 303.182 374.539 303.182ZM374.539 302.535C374.824 302.535 375.073 302.429 375.285 302.217C375.505 302.004 375.673 301.675 375.79 301.229C375.907 300.782 375.966 300.215 375.966 299.528C375.966 298.832 375.907 298.269 375.79 297.837C375.673 297.398 375.505 297.076 375.285 296.872C375.073 296.667 374.824 296.564 374.539 296.564C374.254 296.564 374.005 296.667 373.793 296.872C373.58 297.076 373.412 297.398 373.288 297.837C373.171 298.269 373.112 298.832 373.112 299.528C373.112 300.215 373.171 300.782 373.288 301.229C373.412 301.675 373.58 302.004 373.793 302.217C374.005 302.429 374.254 302.535 374.539 302.535Z" fill="#222539"/>
<path d="M402.63 303.051V302.579C403.348 301.854 403.955 301.222 404.452 300.68C404.95 300.131 405.327 299.641 405.583 299.209C405.839 298.778 405.967 298.368 405.967 297.98C405.967 297.57 405.854 297.234 405.627 296.97C405.407 296.707 405.06 296.575 404.584 296.575C404.291 296.575 404.013 296.656 403.75 296.817C403.494 296.978 403.263 297.182 403.058 297.431L402.587 296.97C402.879 296.656 403.19 296.403 403.519 296.213C403.849 296.015 404.237 295.917 404.683 295.917C405.107 295.917 405.473 296.001 405.78 296.169C406.095 296.337 406.337 296.575 406.505 296.882C406.673 297.182 406.757 297.537 406.757 297.947C406.757 298.393 406.629 298.843 406.373 299.297C406.124 299.751 405.777 300.234 405.33 300.746C404.891 301.251 404.383 301.807 403.805 302.414C403.995 302.4 404.193 302.389 404.398 302.381C404.602 302.367 404.796 302.359 404.979 302.359H407.098V303.051H402.63ZM410.293 303.182C409.606 303.182 409.064 302.868 408.669 302.239C408.281 301.602 408.087 300.698 408.087 299.528C408.087 298.35 408.281 297.453 408.669 296.839C409.064 296.224 409.606 295.917 410.293 295.917C410.989 295.917 411.53 296.228 411.918 296.85C412.306 297.464 412.5 298.357 412.5 299.528C412.5 300.698 412.306 301.602 411.918 302.239C411.53 302.868 410.989 303.182 410.293 303.182ZM410.293 302.535C410.579 302.535 410.828 302.429 411.04 302.217C411.259 302.004 411.428 301.675 411.545 301.229C411.662 300.782 411.72 300.215 411.72 299.528C411.72 298.832 411.662 298.269 411.545 297.837C411.428 297.398 411.259 297.076 411.04 296.872C410.828 296.667 410.579 296.564 410.293 296.564C410.008 296.564 409.759 296.667 409.547 296.872C409.335 297.076 409.167 297.398 409.042 297.837C408.925 298.269 408.867 298.832 408.867 299.528C408.867 300.215 408.925 300.782 409.042 301.229C409.167 301.675 409.335 302.004 409.547 302.217C409.759 302.429 410.008 302.535 410.293 302.535ZM413.435 303.051V302.579C414.152 301.854 414.759 301.222 415.256 300.68C415.754 300.131 416.131 299.641 416.387 299.209C416.643 298.778 416.771 298.368 416.771 297.98C416.771 297.57 416.658 297.234 416.431 296.97C416.211 296.707 415.864 296.575 415.388 296.575C415.096 296.575 414.817 296.656 414.554 296.817C414.298 296.978 414.067 297.182 413.863 297.431L413.391 296.97C413.683 296.656 413.994 296.403 414.324 296.213C414.653 296.015 415.041 295.917 415.487 295.917C415.911 295.917 416.277 296.001 416.585 296.169C416.899 296.337 417.141 296.575 417.309 296.882C417.477 297.182 417.561 297.537 417.561 297.947C417.561 298.393 417.433 298.843 417.177 299.297C416.928 299.751 416.581 300.234 416.135 300.746C415.696 301.251 415.187 301.807 414.609 302.414C414.799 302.4 414.997 302.389 415.202 302.381C415.406 302.367 415.6 302.359 415.783 302.359H417.902V303.051H413.435ZM418.935 303.051V302.381H420.549V297.058H419.276V296.542C419.59 296.491 419.865 296.425 420.099 296.345C420.333 296.257 420.545 296.158 420.735 296.048H421.35V302.381H422.81V303.051H418.935Z" fill="#222539"/>
<path d="M43.1635 46.0898V45.4203H44.7769V40.0972H43.5037V39.5813C43.8184 39.5301 44.0927 39.4642 44.3269 39.3837C44.561 39.2959 44.7732 39.1972 44.9635 39.0874H45.5781V45.4203H47.0379V46.0898H43.1635ZM50.1239 46.2216C49.7507 46.2216 49.4215 46.1776 49.1361 46.0898C48.858 45.9947 48.6129 45.874 48.4007 45.7276C48.1958 45.5813 48.0129 45.4276 47.8519 45.2667L48.258 44.7398C48.4702 44.9447 48.7154 45.1313 48.9934 45.2996C49.2788 45.4679 49.6337 45.552 50.058 45.552C50.3507 45.552 50.6178 45.4825 50.8593 45.3435C51.1007 45.2045 51.291 45.0106 51.43 44.7618C51.569 44.513 51.6385 44.2203 51.6385 43.8837C51.6385 43.3789 51.4995 42.9874 51.2215 42.7094C50.9434 42.424 50.5702 42.2813 50.1019 42.2813C49.8532 42.2813 49.6373 42.3179 49.4544 42.3911C49.2788 42.4642 49.0849 42.5703 48.8727 42.7094L48.4337 42.435L48.6641 39.0874H52.0995V39.7789H49.3666L49.169 41.963C49.3446 41.8679 49.5202 41.7947 49.6958 41.7435C49.8715 41.685 50.069 41.6557 50.2885 41.6557C50.691 41.6557 51.0532 41.7362 51.3751 41.8972C51.7044 42.0508 51.9641 42.2886 52.1544 42.6106C52.3519 42.9325 52.4507 43.3459 52.4507 43.8508C52.4507 44.3557 52.341 44.7874 52.1215 45.1459C51.9019 45.4972 51.6129 45.7642 51.2544 45.9472C50.9032 46.1301 50.5263 46.2216 50.1239 46.2216ZM55.6796 46.2216C54.9918 46.2216 54.4503 45.9069 54.0552 45.2776C53.6674 44.6411 53.4735 43.7374 53.4735 42.5667C53.4735 41.3886 53.6674 40.4923 54.0552 39.8776C54.4503 39.263 54.9918 38.9557 55.6796 38.9557C56.3747 38.9557 56.9162 39.2667 57.304 39.8886C57.6918 40.5033 57.8857 41.3959 57.8857 42.5667C57.8857 43.7374 57.6918 44.6411 57.304 45.2776C56.9162 45.9069 56.3747 46.2216 55.6796 46.2216ZM55.6796 45.574C55.965 45.574 56.2138 45.4679 56.426 45.2557C56.6455 45.0435 56.8138 44.7142 56.9308 44.2679C57.0479 43.8216 57.1064 43.2545 57.1064 42.5667C57.1064 41.8716 57.0479 41.3081 56.9308 40.8764C56.8138 40.4374 56.6455 40.1155 56.426 39.9106C56.2138 39.7057 55.965 39.6033 55.6796 39.6033C55.3942 39.6033 55.1455 39.7057 54.9333 39.9106C54.7211 40.1155 54.5528 40.4374 54.4284 40.8764C54.3113 41.3081 54.2528 41.8716 54.2528 42.5667C54.2528 43.2545 54.3113 43.8216 54.4284 44.2679C54.5528 44.7142 54.7211 45.0435 54.9333 45.2557C55.1455 45.4679 55.3942 45.574 55.6796 45.574ZM43.1635 86.0898V85.4203H44.7769V80.0972H43.5037V79.5813C43.8184 79.5301 44.0927 79.4642 44.3269 79.3837C44.561 79.2959 44.7732 79.1972 44.9635 79.0874H45.5781V85.4203H47.0379V86.0898H43.1635ZM48.0166 86.0898V85.6179C48.7337 84.8935 49.341 84.2606 49.8385 83.7191C50.3361 83.1703 50.7129 82.6801 50.969 82.2484C51.2251 81.8167 51.3532 81.4069 51.3532 81.0191C51.3532 80.6094 51.2398 80.2728 51.0129 80.0094C50.7934 79.7459 50.4458 79.6142 49.9702 79.6142C49.6776 79.6142 49.3995 79.6947 49.1361 79.8557C48.88 80.0167 48.6495 80.2216 48.4446 80.4703L47.9727 80.0094C48.2654 79.6947 48.5763 79.4423 48.9056 79.252C49.2349 79.0545 49.6227 78.9557 50.069 78.9557C50.4934 78.9557 50.8593 79.0398 51.1666 79.2081C51.4812 79.3764 51.7227 79.6142 51.891 79.9216C52.0593 80.2216 52.1434 80.5764 52.1434 80.9862C52.1434 81.4325 52.0154 81.8825 51.7593 82.3362C51.5105 82.7898 51.1629 83.2728 50.7166 83.785C50.2776 84.2898 49.769 84.8459 49.191 85.4533C49.3812 85.4386 49.5788 85.4276 49.7837 85.4203C49.9885 85.4057 50.1824 85.3984 50.3654 85.3984H52.4837V86.0898H48.0166ZM55.526 86.2216C55.1528 86.2216 54.8235 86.1776 54.5382 86.0898C54.2601 85.9947 54.015 85.874 53.8028 85.7276C53.5979 85.5813 53.415 85.4276 53.254 85.2667L53.6601 84.7398C53.8723 84.9447 54.1174 85.1313 54.3955 85.2996C54.6808 85.4679 55.0357 85.552 55.4601 85.552C55.7528 85.552 56.0199 85.4825 56.2613 85.3435C56.5028 85.2045 56.693 85.0106 56.8321 84.7618C56.9711 84.513 57.0406 84.2203 57.0406 83.8837C57.0406 83.3789 56.9016 82.9874 56.6235 82.7094C56.3455 82.424 55.9723 82.2813 55.504 82.2813C55.2552 82.2813 55.0394 82.3179 54.8564 82.3911C54.6808 82.4642 54.4869 82.5703 54.2747 82.7094L53.8357 82.435L54.0662 79.0874H57.5016V79.7789H54.7686L54.5711 81.963C54.7467 81.8679 54.9223 81.7947 55.0979 81.7435C55.2735 81.685 55.4711 81.6557 55.6906 81.6557C56.093 81.6557 56.4552 81.7362 56.7772 81.8972C57.1064 82.0508 57.3662 82.2886 57.5564 82.6106C57.754 82.9325 57.8528 83.3459 57.8528 83.8508C57.8528 84.3557 57.743 84.7874 57.5235 85.1459C57.304 85.4972 57.015 85.7642 56.6564 85.9472C56.3052 86.1301 55.9284 86.2216 55.526 86.2216ZM43.1635 125.09V124.42H44.7769V119.097H43.5037V118.581C43.8184 118.53 44.0927 118.464 44.3269 118.384C44.561 118.296 44.7732 118.197 44.9635 118.087H45.5781V124.42H47.0379V125.09H43.1635ZM50.2776 125.222C49.5898 125.222 49.0483 124.907 48.6532 124.278C48.2654 123.641 48.0715 122.737 48.0715 121.567C48.0715 120.389 48.2654 119.492 48.6532 118.878C49.0483 118.263 49.5898 117.956 50.2776 117.956C50.9727 117.956 51.5141 118.267 51.9019 118.889C52.2898 119.503 52.4837 120.396 52.4837 121.567C52.4837 122.737 52.2898 123.641 51.9019 124.278C51.5141 124.907 50.9727 125.222 50.2776 125.222ZM50.2776 124.574C50.5629 124.574 50.8117 124.468 51.0239 124.256C51.2434 124.044 51.4117 123.714 51.5288 123.268C51.6458 122.822 51.7044 122.254 51.7044 121.567C51.7044 120.872 51.6458 120.308 51.5288 119.876C51.4117 119.437 51.2434 119.115 51.0239 118.911C50.8117 118.706 50.5629 118.603 50.2776 118.603C49.9922 118.603 49.7434 118.706 49.5312 118.911C49.319 119.115 49.1507 119.437 49.0263 119.876C48.9093 120.308 48.8507 120.872 48.8507 121.567C48.8507 122.254 48.9093 122.822 49.0263 123.268C49.1507 123.714 49.319 124.044 49.5312 124.256C49.7434 124.468 49.9922 124.574 50.2776 124.574ZM55.6796 125.222C54.9918 125.222 54.4503 124.907 54.0552 124.278C53.6674 123.641 53.4735 122.737 53.4735 121.567C53.4735 120.389 53.6674 119.492 54.0552 118.878C54.4503 118.263 54.9918 117.956 55.6796 117.956C56.3747 117.956 56.9162 118.267 57.304 118.889C57.6918 119.503 57.8857 120.396 57.8857 121.567C57.8857 122.737 57.6918 123.641 57.304 124.278C56.9162 124.907 56.3747 125.222 55.6796 125.222ZM55.6796 124.574C55.965 124.574 56.2138 124.468 56.426 124.256C56.6455 124.044 56.8138 123.714 56.9308 123.268C57.0479 122.822 57.1064 122.254 57.1064 121.567C57.1064 120.872 57.0479 120.308 56.9308 119.876C56.8138 119.437 56.6455 119.115 56.426 118.911C56.2138 118.706 55.965 118.603 55.6796 118.603C55.3942 118.603 55.1455 118.706 54.9333 118.911C54.7211 119.115 54.5528 119.437 54.4284 119.876C54.3113 120.308 54.2528 120.872 54.2528 121.567C54.2528 122.254 54.3113 122.822 54.4284 123.268C54.5528 123.714 54.7211 124.044 54.9333 124.256C55.1455 124.468 55.3942 124.574 55.6796 124.574ZM49.5532 165.09C49.5898 164.197 49.6812 163.396 49.8276 162.686C49.9739 161.976 50.1898 161.311 50.4751 160.689C50.7605 160.059 51.1337 159.423 51.5946 158.779H48.0605V158.087H52.5166V158.57C52.0995 159.104 51.7593 159.62 51.4958 160.118C51.2324 160.608 51.0239 161.106 50.8702 161.611C50.7239 162.115 50.6141 162.65 50.541 163.213C50.4678 163.776 50.4129 164.402 50.3763 165.09H49.5532ZM55.526 165.222C55.1528 165.222 54.8235 165.178 54.5382 165.09C54.2601 164.995 54.015 164.874 53.8028 164.728C53.5979 164.581 53.415 164.428 53.254 164.267L53.6601 163.74C53.8723 163.945 54.1174 164.131 54.3955 164.3C54.6808 164.468 55.0357 164.552 55.4601 164.552C55.7528 164.552 56.0199 164.483 56.2613 164.344C56.5028 164.204 56.693 164.011 56.8321 163.762C56.9711 163.513 57.0406 163.22 57.0406 162.884C57.0406 162.379 56.9016 161.987 56.6235 161.709C56.3455 161.424 55.9723 161.281 55.504 161.281C55.2552 161.281 55.0394 161.318 54.8564 161.391C54.6808 161.464 54.4869 161.57 54.2747 161.709L53.8357 161.435L54.0662 158.087H57.5016V158.779H54.7686L54.5711 160.963C54.7467 160.868 54.9223 160.795 55.0979 160.744C55.2735 160.685 55.4711 160.656 55.6906 160.656C56.093 160.656 56.4552 160.736 56.7772 160.897C57.1064 161.051 57.3662 161.289 57.5564 161.611C57.754 161.933 57.8528 162.346 57.8528 162.851C57.8528 163.356 57.743 163.787 57.5235 164.146C57.304 164.497 57.015 164.764 56.6564 164.947C56.3052 165.13 55.9284 165.222 55.526 165.222ZM50.1239 205.222C49.7507 205.222 49.4215 205.178 49.1361 205.09C48.858 204.995 48.6129 204.874 48.4007 204.728C48.1958 204.581 48.0129 204.428 47.8519 204.267L48.258 203.74C48.4702 203.945 48.7154 204.131 48.9934 204.3C49.2788 204.468 49.6337 204.552 50.058 204.552C50.3507 204.552 50.6178 204.483 50.8593 204.344C51.1007 204.204 51.291 204.011 51.43 203.762C51.569 203.513 51.6385 203.22 51.6385 202.884C51.6385 202.379 51.4995 201.987 51.2215 201.709C50.9434 201.424 50.5702 201.281 50.1019 201.281C49.8532 201.281 49.6373 201.318 49.4544 201.391C49.2788 201.464 49.0849 201.57 48.8727 201.709L48.4337 201.435L48.6641 198.087H52.0995V198.779H49.3666L49.169 200.963C49.3446 200.868 49.5202 200.795 49.6958 200.744C49.8715 200.685 50.069 200.656 50.2885 200.656C50.691 200.656 51.0532 200.736 51.3751 200.897C51.7044 201.051 51.9641 201.289 52.1544 201.611C52.3519 201.933 52.4507 202.346 52.4507 202.851C52.4507 203.356 52.341 203.787 52.1215 204.146C51.9019 204.497 51.6129 204.764 51.2544 204.947C50.9032 205.13 50.5263 205.222 50.1239 205.222ZM55.6796 205.222C54.9918 205.222 54.4503 204.907 54.0552 204.278C53.6674 203.641 53.4735 202.737 53.4735 201.567C53.4735 200.389 53.6674 199.492 54.0552 198.878C54.4503 198.263 54.9918 197.956 55.6796 197.956C56.3747 197.956 56.9162 198.267 57.304 198.889C57.6918 199.503 57.8857 200.396 57.8857 201.567C57.8857 202.737 57.6918 203.641 57.304 204.278C56.9162 204.907 56.3747 205.222 55.6796 205.222ZM55.6796 204.574C55.965 204.574 56.2138 204.468 56.426 204.256C56.6455 204.044 56.8138 203.714 56.9308 203.268C57.0479 202.822 57.1064 202.254 57.1064 201.567C57.1064 200.872 57.0479 200.308 56.9308 199.876C56.8138 199.437 56.6455 199.115 56.426 198.911C56.2138 198.706 55.965 198.603 55.6796 198.603C55.3942 198.603 55.1455 198.706 54.9333 198.911C54.7211 199.115 54.5528 199.437 54.4284 199.876C54.3113 200.308 54.2528 200.872 54.2528 201.567C54.2528 202.254 54.3113 202.822 54.4284 203.268C54.5528 203.714 54.7211 204.044 54.9333 204.256C55.1455 204.468 55.3942 204.574 55.6796 204.574ZM48.0166 245.09V244.618C48.7337 243.894 49.341 243.261 49.8385 242.719C50.3361 242.17 50.7129 241.68 50.969 241.248C51.2251 240.817 51.3532 240.407 51.3532 240.019C51.3532 239.609 51.2398 239.273 51.0129 239.009C50.7934 238.746 50.4458 238.614 49.9702 238.614C49.6776 238.614 49.3995 238.695 49.1361 238.856C48.88 239.017 48.6495 239.222 48.4446 239.47L47.9727 239.009C48.2654 238.695 48.5763 238.442 48.9056 238.252C49.2349 238.054 49.6227 237.956 50.069 237.956C50.4934 237.956 50.8593 238.04 51.1666 238.208C51.4812 238.376 51.7227 238.614 51.891 238.922C52.0593 239.222 52.1434 239.576 52.1434 239.986C52.1434 240.433 52.0154 240.883 51.7593 241.336C51.5105 241.79 51.1629 242.273 50.7166 242.785C50.2776 243.29 49.769 243.846 49.191 244.453C49.3812 244.439 49.5788 244.428 49.7837 244.42C49.9885 244.406 50.1824 244.398 50.3654 244.398H52.4837V245.09H48.0166ZM55.526 245.222C55.1528 245.222 54.8235 245.178 54.5382 245.09C54.2601 244.995 54.015 244.874 53.8028 244.728C53.5979 244.581 53.415 244.428 53.254 244.267L53.6601 243.74C53.8723 243.945 54.1174 244.131 54.3955 244.3C54.6808 244.468 55.0357 244.552 55.4601 244.552C55.7528 244.552 56.0199 244.483 56.2613 244.344C56.5028 244.204 56.693 244.011 56.8321 243.762C56.9711 243.513 57.0406 243.22 57.0406 242.884C57.0406 242.379 56.9016 241.987 56.6235 241.709C56.3455 241.424 55.9723 241.281 55.504 241.281C55.2552 241.281 55.0394 241.318 54.8564 241.391C54.6808 241.464 54.4869 241.57 54.2747 241.709L53.8357 241.435L54.0662 238.087H57.5016V238.779H54.7686L54.5711 240.963C54.7467 240.868 54.9223 240.795 55.0979 240.744C55.2735 240.685 55.4711 240.656 55.6906 240.656C56.093 240.656 56.4552 240.736 56.7772 240.897C57.1064 241.051 57.3662 241.289 57.5564 241.611C57.754 241.933 57.8528 242.346 57.8528 242.851C57.8528 243.356 57.743 243.787 57.5235 244.146C57.304 244.497 57.015 244.764 56.6564 244.947C56.3052 245.13 55.9284 245.222 55.526 245.222ZM55.6796 285.222C54.9918 285.222 54.4503 284.907 54.0552 284.278C53.6674 283.641 53.4735 282.737 53.4735 281.567C53.4735 280.389 53.6674 279.492 54.0552 278.878C54.4503 278.263 54.9918 277.956 55.6796 277.956C56.3747 277.956 56.9162 278.267 57.304 278.889C57.6918 279.503 57.8857 280.396 57.8857 281.567C57.8857 282.737 57.6918 283.641 57.304 284.278C56.9162 284.907 56.3747 285.222 55.6796 285.222ZM55.6796 284.574C55.965 284.574 56.2138 284.468 56.426 284.256C56.6455 284.044 56.8138 283.714 56.9308 283.268C57.0479 282.822 57.1064 282.254 57.1064 281.567C57.1064 280.872 57.0479 280.308 56.9308 279.876C56.8138 279.437 56.6455 279.115 56.426 278.911C56.2138 278.706 55.965 278.603 55.6796 278.603C55.3942 278.603 55.1455 278.706 54.9333 278.911C54.7211 279.115 54.5528 279.437 54.4284 279.876C54.3113 280.308 54.2528 280.872 54.2528 281.567C54.2528 282.254 54.3113 282.822 54.4284 283.268C54.5528 283.714 54.7211 284.044 54.9333 284.256C55.1455 284.468 55.3942 284.574 55.6796 284.574Z" fill="#222539"/>
<rect x="69.4238" y="202.504" width="35.6707" height="78.2012" fill="#D55E00"/>
<rect x="116.07" y="192.215" width="35.6707" height="88.4909" fill="#D55E00"/>
<rect x="162.717" y="168.891" width="35.6707" height="111.814" fill="#D55E00"/>
<rect x="209.363" y="138.707" width="35.6707" height="141.997" fill="#D55E00"/>
<rect x="256.01" y="96.1758" width="35.6707" height="184.527" fill="#D55E00"/>
<rect x="302.656" y="83.832" width="35.6707" height="196.875" fill="#D55E00"/>
<rect x="349.303" y="70.7969" width="35.6707" height="209.909" fill="#D55E00"/>
<rect x="395.947" y="53.6484" width="35.6707" height="227.058" fill="#D55E00"/>
<path d="M34.4629 162.107H27.9434V164.324H27.2519V159.089H27.9434V161.295H34.4629V162.107ZM34.4629 157.846H29.1397V157.056H34.4629V157.846ZM27.9983 157.44C27.9983 157.594 27.947 157.726 27.8446 157.835C27.7422 157.938 27.6068 157.989 27.4385 157.989C27.2775 157.989 27.1495 157.938 27.0544 157.835C26.9519 157.726 26.9007 157.594 26.9007 157.44C26.9007 157.279 26.9519 157.148 27.0544 157.045C27.1495 156.943 27.2775 156.891 27.4385 156.891C27.6068 156.891 27.7422 156.943 27.8446 157.045C27.947 157.148 27.9983 157.279 27.9983 157.44ZM34.5946 153.575C34.5946 154.124 34.4336 154.508 34.1117 154.727C33.7897 154.939 33.3726 155.046 32.8605 155.046H29.7983V155.847H29.1946L29.1397 155.013L27.6361 154.914V154.244H29.1397V152.785H29.7983V154.244H32.8824C33.2117 154.244 33.4714 154.186 33.6617 154.069C33.8446 153.944 33.9361 153.721 33.9361 153.399C33.9361 153.304 33.9214 153.202 33.8922 153.092C33.8629 152.975 33.83 152.872 33.7934 152.785L34.397 152.62C34.4483 152.766 34.4922 152.924 34.5287 153.092C34.5726 153.26 34.5946 153.421 34.5946 153.575ZM34.5946 150.688C34.5946 150.885 34.5507 151.05 34.4629 151.181C34.3824 151.313 34.2617 151.408 34.1007 151.467C33.9324 151.525 33.7275 151.555 33.4861 151.555H26.6263V150.764H33.5519C33.6836 150.764 33.7787 150.739 33.8373 150.688C33.8958 150.636 33.9251 150.578 33.9251 150.512C33.9251 150.49 33.9251 150.464 33.9251 150.435C33.9178 150.406 33.9105 150.366 33.9031 150.314L34.5178 150.205C34.5324 150.263 34.547 150.333 34.5617 150.413C34.5836 150.486 34.5946 150.578 34.5946 150.688ZM34.5946 146.703C34.5946 147.164 34.4848 147.589 34.2653 147.977C34.0385 148.357 33.7202 148.661 33.3105 148.888C32.8934 149.114 32.3922 149.228 31.8068 149.228C31.2287 149.228 30.7312 149.114 30.3141 148.888C29.897 148.661 29.5751 148.368 29.3483 148.01C29.1214 147.644 29.008 147.256 29.008 146.846C29.008 146.407 29.1105 146.03 29.3153 145.716C29.5202 145.401 29.8092 145.163 30.1824 145.002C30.5483 144.834 30.9873 144.75 31.4995 144.75C31.5873 144.75 31.6751 144.753 31.7629 144.761C31.8434 144.761 31.9165 144.768 31.9824 144.783V148.602L31.4007 148.613V145.463C30.83 145.463 30.3983 145.584 30.1056 145.825C29.8056 146.067 29.6556 146.403 29.6556 146.835C29.6556 147.099 29.7324 147.355 29.8861 147.603C30.0397 147.852 30.2739 148.057 30.5885 148.218C30.9031 148.379 31.3092 148.46 31.8068 148.46C32.2824 148.46 32.6775 148.375 32.9922 148.207C33.3068 148.039 33.5446 147.816 33.7056 147.538C33.8665 147.252 33.947 146.941 33.947 146.605C33.947 146.334 33.9068 146.092 33.8263 145.88C33.7458 145.661 33.6434 145.452 33.519 145.255L34.0458 144.958C34.1922 145.185 34.3202 145.441 34.43 145.727C34.5397 146.005 34.5946 146.33 34.5946 146.703Z" fill="#3F4252"/>
<path opacity="0.8" d="M87.2578 151.742L134.247 141.795L180.893 138.708L227.197 115.042L274.186 52.2753L320.49 60.85H367.136L413.096 46.1016" stroke="#56B4E9" stroke-width="2.05793"/>
<circle cx="87.2576" cy="151.744" r="2.7439" fill="#56B4E9"/>
<circle cx="133.904" cy="141.455" r="2.7439" fill="#56B4E9"/>
<circle cx="180.551" cy="138.709" r="2.7439" fill="#56B4E9"/>
<circle cx="227.197" cy="115.388" r="2.7439" fill="#56B4E9"/>
<circle cx="273.844" cy="52.2752" r="2.7439" fill="#56B4E9"/>
<circle cx="320.49" cy="60.5095" r="2.7439" fill="#56B4E9"/>
<circle cx="367.136" cy="60.5095" r="2.7439" fill="#56B4E9"/>
<circle cx="413.095" cy="46.1033" r="2.7439" fill="#56B4E9"/>
<path d="M228.775 338.656V331.445H229.587V337.965H232.77V338.656H228.775ZM236.089 338.788C235.628 338.788 235.204 338.678 234.816 338.459C234.436 338.232 234.132 337.914 233.905 337.504C233.678 337.087 233.565 336.586 233.565 336C233.565 335.422 233.678 334.925 233.905 334.507C234.132 334.09 234.425 333.768 234.783 333.542C235.149 333.315 235.537 333.201 235.947 333.201C236.386 333.201 236.763 333.304 237.077 333.509C237.392 333.714 237.63 334.003 237.791 334.376C237.959 334.742 238.043 335.181 238.043 335.693C238.043 335.781 238.039 335.868 238.032 335.956C238.032 336.037 238.025 336.11 238.01 336.176H234.191L234.18 335.594H237.33C237.33 335.023 237.209 334.592 236.967 334.299C236.726 333.999 236.389 333.849 235.958 333.849C235.694 333.849 235.438 333.926 235.189 334.079C234.941 334.233 234.736 334.467 234.575 334.782C234.414 335.096 234.333 335.503 234.333 336C234.333 336.476 234.417 336.871 234.586 337.186C234.754 337.5 234.977 337.738 235.255 337.899C235.541 338.06 235.852 338.14 236.188 338.14C236.459 338.14 236.7 338.1 236.913 338.02C237.132 337.939 237.341 337.837 237.538 337.712L237.834 338.239C237.608 338.386 237.352 338.514 237.066 338.623C236.788 338.733 236.463 338.788 236.089 338.788ZM241.162 341.137C240.723 341.137 240.339 341.078 240.01 340.961C239.68 340.844 239.424 340.679 239.241 340.467C239.058 340.255 238.967 339.999 238.967 339.699C238.967 339.465 239.037 339.242 239.176 339.029C239.315 338.817 239.505 338.631 239.746 338.47V338.426C239.615 338.338 239.501 338.225 239.406 338.086C239.318 337.939 239.274 337.764 239.274 337.559C239.274 337.332 239.337 337.134 239.461 336.966C239.593 336.798 239.724 336.666 239.856 336.571V336.527C239.688 336.388 239.53 336.194 239.384 335.945C239.245 335.696 239.176 335.415 239.176 335.1C239.176 334.712 239.263 334.379 239.439 334.101C239.622 333.816 239.86 333.596 240.152 333.443C240.452 333.282 240.782 333.201 241.14 333.201C241.287 333.201 241.422 333.216 241.546 333.245C241.678 333.267 241.788 333.296 241.876 333.333H243.719V333.959H242.589C242.728 334.09 242.841 334.255 242.929 334.453C243.017 334.65 243.061 334.87 243.061 335.111C243.061 335.492 242.973 335.821 242.798 336.099C242.629 336.377 242.399 336.593 242.106 336.746C241.821 336.893 241.499 336.966 241.14 336.966C241.008 336.966 240.869 336.951 240.723 336.922C240.584 336.886 240.452 336.838 240.328 336.779C240.226 336.86 240.138 336.951 240.065 337.054C239.999 337.156 239.966 337.284 239.966 337.438C239.966 337.614 240.032 337.76 240.163 337.877C240.302 337.987 240.551 338.042 240.91 338.042H241.974C242.589 338.042 243.046 338.144 243.346 338.349C243.654 338.546 243.807 338.865 243.807 339.304C243.807 339.626 243.698 339.926 243.478 340.204C243.266 340.482 242.962 340.705 242.567 340.873C242.172 341.049 241.704 341.137 241.162 341.137ZM241.272 340.566C241.623 340.566 241.927 340.511 242.183 340.401C242.446 340.292 242.651 340.149 242.798 339.973C242.944 339.798 243.017 339.611 243.017 339.414C243.017 339.157 242.922 338.978 242.732 338.876C242.549 338.773 242.274 338.722 241.908 338.722H240.932C240.851 338.722 240.749 338.715 240.624 338.7C240.507 338.686 240.383 338.664 240.251 338.634C240.046 338.781 239.896 338.934 239.801 339.095C239.713 339.264 239.669 339.428 239.669 339.589C239.669 339.889 239.812 340.127 240.098 340.303C240.383 340.478 240.774 340.566 241.272 340.566ZM241.14 336.417C241.352 336.417 241.546 336.362 241.722 336.253C241.905 336.143 242.051 335.989 242.161 335.792C242.271 335.594 242.326 335.364 242.326 335.1C242.326 334.829 242.271 334.599 242.161 334.409C242.058 334.211 241.916 334.061 241.733 333.959C241.557 333.849 241.36 333.794 241.14 333.794C240.811 333.794 240.529 333.911 240.295 334.145C240.061 334.372 239.944 334.69 239.944 335.1C239.944 335.364 239.999 335.594 240.108 335.792C240.218 335.989 240.365 336.143 240.548 336.253C240.73 336.362 240.928 336.417 241.14 336.417ZM246.979 338.788C246.518 338.788 246.094 338.678 245.706 338.459C245.326 338.232 245.022 337.914 244.795 337.504C244.568 337.087 244.455 336.586 244.455 336C244.455 335.422 244.568 334.925 244.795 334.507C245.022 334.09 245.315 333.768 245.673 333.542C246.039 333.315 246.427 333.201 246.837 333.201C247.276 333.201 247.652 333.304 247.967 333.509C248.282 333.714 248.519 334.003 248.68 334.376C248.849 334.742 248.933 335.181 248.933 335.693C248.933 335.781 248.929 335.868 248.922 335.956C248.922 336.037 248.915 336.11 248.9 336.176H245.08L245.069 335.594H248.219C248.219 335.023 248.099 334.592 247.857 334.299C247.616 333.999 247.279 333.849 246.848 333.849C246.584 333.849 246.328 333.926 246.079 334.079C245.83 334.233 245.626 334.467 245.465 334.782C245.304 335.096 245.223 335.503 245.223 336C245.223 336.476 245.307 336.871 245.476 337.186C245.644 337.5 245.867 337.738 246.145 337.899C246.43 338.06 246.741 338.14 247.078 338.14C247.349 338.14 247.59 338.1 247.802 338.02C248.022 337.939 248.23 337.837 248.428 337.712L248.724 338.239C248.498 338.386 248.241 338.514 247.956 338.623C247.678 338.733 247.352 338.788 246.979 338.788ZM250.274 338.656V333.333H250.932L250.998 334.123H251.031C251.287 333.86 251.558 333.64 251.843 333.465C252.136 333.289 252.462 333.201 252.82 333.201C253.384 333.201 253.793 333.377 254.05 333.728C254.313 334.079 254.445 334.595 254.445 335.276V338.656H253.643V335.375C253.643 334.862 253.559 334.489 253.391 334.255C253.23 334.021 252.963 333.904 252.59 333.904C252.312 333.904 252.059 333.977 251.832 334.123C251.606 334.262 251.35 334.475 251.064 334.76V338.656H250.274ZM258.022 338.788C257.357 338.788 256.826 338.546 256.431 338.064C256.036 337.573 255.838 336.886 255.838 336C255.838 335.429 255.944 334.936 256.157 334.518C256.376 334.101 256.661 333.779 257.013 333.553C257.364 333.318 257.744 333.201 258.154 333.201C258.469 333.201 258.739 333.256 258.966 333.366C259.193 333.476 259.427 333.629 259.669 333.827L259.636 332.905V330.82H260.426V338.656H259.768L259.702 338.009H259.669C259.464 338.221 259.219 338.404 258.933 338.557C258.655 338.711 258.352 338.788 258.022 338.788ZM258.198 338.107C258.454 338.107 258.699 338.045 258.933 337.921C259.168 337.789 259.402 337.599 259.636 337.35V334.464C259.394 334.251 259.164 334.101 258.944 334.014C258.725 333.926 258.502 333.882 258.275 333.882C257.975 333.882 257.7 333.973 257.452 334.156C257.21 334.332 257.016 334.581 256.87 334.903C256.731 335.217 256.661 335.583 256.661 336C256.661 336.651 256.793 337.167 257.057 337.548C257.327 337.921 257.708 338.107 258.198 338.107Z" fill="#222539"/>
<path d="M217.647 361.98V361.311H219.261V355.988H217.987V355.472C218.302 355.421 218.576 355.355 218.811 355.274C219.045 355.187 219.257 355.088 219.447 354.978H220.062V361.311H221.522V361.98H217.647Z" fill="black"/>
<rect x="227.598" y="352.992" width="10.9756" height="10.9756" fill="#D55E00"/>
<path d="M249.988 361.98V361.509C250.705 360.784 251.312 360.151 251.81 359.61C252.307 359.061 252.684 358.571 252.94 358.139C253.196 357.707 253.324 357.298 253.324 356.91C253.324 356.5 253.211 356.163 252.984 355.9C252.765 355.637 252.417 355.505 251.942 355.505C251.649 355.505 251.371 355.585 251.107 355.746C250.851 355.907 250.621 356.112 250.416 356.361L249.944 355.9C250.237 355.585 250.548 355.333 250.877 355.143C251.206 354.945 251.594 354.846 252.04 354.846C252.465 354.846 252.831 354.93 253.138 355.099C253.452 355.267 253.694 355.505 253.862 355.812C254.031 356.112 254.115 356.467 254.115 356.877C254.115 357.323 253.987 357.773 253.731 358.227C253.482 358.68 253.134 359.163 252.688 359.676C252.249 360.18 251.74 360.737 251.162 361.344C251.352 361.329 251.55 361.318 251.755 361.311C251.96 361.296 252.154 361.289 252.337 361.289H254.455V361.98H249.988Z" fill="black"/>
<rect x="261.037" y="352.992" width="10.9756" height="10.9756" fill="#56B4E9"/>
<defs>
<filter id="filter0_d_964_4433" x="0.140244" y="0.82622" width="463.72" height="377.973" filterUnits="userSpaceOnUse" color-interpolation-filters="sRGB">
<feFlood flood-opacity="0" result="BackgroundImageFix"/>
<feColorMatrix in="SourceAlpha" type="matrix" values="0 0 0 0 0 0 0 0 0 0 0 0 0 0 0 0 0 0 127 0" result="hardAlpha"/>
<feOffset dy="0.685976"/>
<feGaussianBlur stdDeviation="3.42988"/>
<feColorMatrix type="matrix" values="0 0 0 0 0 0 0 0 0 0 0 0 0 0 0 0 0 0 0.07 0"/>
<feBlend mode="normal" in2="BackgroundImageFix" result="effect1_dropShadow_964_4433"/>
<feBlend mode="normal" in="SourceGraphic" in2="effect1_dropShadow_964_4433" result="shape"/>
</filter>
<clipPath id="clip0_964_4433">
<rect x="7" y="7" width="450" height="364.253" rx="5.4878" fill="white"/>
</clipPath>
</defs>
</svg>
