<svg width="500" height="348" viewBox="0 0 500 348" fill="none" xmlns="http://www.w3.org/2000/svg">
<rect width="500" height="347.573" transform="translate(0 0.078125)" fill="white"/>
<path d="M55.3882 206.955C51.7277 186.003 52.6959 164.504 58.2249 143.967C63.7539 123.429 73.7098 104.35 87.394 88.0673C101.078 71.785 118.159 58.6941 137.439 49.713C156.719 40.7319 177.73 36.0781 198.999 36.0781V65.2354C181.984 65.2354 165.175 68.9584 149.751 76.1433C134.327 83.3282 120.662 93.8009 109.715 106.827C98.7677 119.853 90.803 135.116 86.3798 151.546C81.9566 167.976 81.182 185.175 84.1104 201.937L55.3882 206.955Z" fill="#9747FF"/>
<path d="M154.439 320.674C129.13 312.549 106.525 297.66 89.0667 277.617C71.6088 257.573 59.9627 233.139 55.3882 206.955L84.1104 201.937C87.77 222.884 97.0869 242.432 111.053 258.466C125.02 274.501 143.104 286.412 163.351 292.912L154.439 320.674Z" fill="#6FD195"/>
<path d="M198.999 36.0781C226.104 36.0781 252.672 43.6344 275.72 57.8985C298.768 72.1626 317.383 92.5695 329.475 116.828L303.38 129.835C293.706 110.429 278.814 94.103 260.376 82.6917C241.938 71.2804 220.683 65.2354 198.999 65.2354V36.0781Z" fill="#E9C46A"/>
<path d="M329.475 116.828C343.366 144.696 347.97 176.281 342.61 206.955L313.888 201.937C318.175 177.397 314.493 152.13 303.38 129.835L329.475 116.828Z" fill="#516B75"/>
<path d="M342.61 206.955C338.216 232.107 327.293 255.663 310.935 275.267C294.577 294.871 273.357 309.836 249.398 318.662L239.318 291.303C258.485 284.241 275.461 272.27 288.548 256.587C301.635 240.903 310.373 222.058 313.888 201.937L342.61 206.955Z" fill="#8979FF"/>
<path d="M249.398 318.662C218.857 329.914 185.429 330.622 154.439 320.674L163.351 292.912C188.143 300.871 214.885 300.304 239.318 291.303L249.398 318.662Z" fill="#55B1A5"/>
<path d="M182.756 190.604C181.489 190.604 180.364 190.391 179.381 189.965C178.403 189.539 177.636 188.956 177.08 188.218C176.528 187.473 176.256 186.629 176.261 185.686C176.256 184.953 176.415 184.28 176.739 183.666C177.063 183.053 177.5 182.541 178.051 182.132C178.608 181.718 179.227 181.453 179.909 181.34V181.22C179.011 181.021 178.284 180.564 177.727 179.848C177.176 179.127 176.903 178.294 176.909 177.351C176.903 176.453 177.153 175.652 177.659 174.948C178.165 174.243 178.858 173.689 179.739 173.286C180.619 172.877 181.625 172.672 182.756 172.672C183.875 172.672 184.872 172.877 185.747 173.286C186.628 173.689 187.321 174.243 187.827 174.948C188.338 175.652 188.594 176.453 188.594 177.351C188.594 178.294 188.312 179.127 187.75 179.848C187.193 180.564 186.474 181.021 185.594 181.22V181.34C186.276 181.453 186.889 181.718 187.435 182.132C187.986 182.541 188.423 183.053 188.747 183.666C189.077 184.28 189.241 184.953 189.241 185.686C189.241 186.629 188.963 187.473 188.406 188.218C187.849 188.956 187.082 189.539 186.105 189.965C185.134 190.391 184.017 190.604 182.756 190.604ZM182.756 188.166C183.409 188.166 183.977 188.056 184.46 187.834C184.943 187.607 185.318 187.289 185.585 186.879C185.852 186.47 185.989 185.999 185.994 185.465C185.989 184.908 185.844 184.416 185.56 183.99C185.281 183.558 184.898 183.22 184.409 182.976C183.926 182.732 183.375 182.61 182.756 182.61C182.131 182.61 181.574 182.732 181.085 182.976C180.597 183.22 180.21 183.558 179.926 183.99C179.648 184.416 179.511 184.908 179.517 185.465C179.511 185.999 179.642 186.47 179.909 186.879C180.176 187.283 180.551 187.598 181.034 187.825C181.523 188.053 182.097 188.166 182.756 188.166ZM182.756 180.215C183.29 180.215 183.761 180.107 184.17 179.891C184.585 179.675 184.912 179.374 185.151 178.987C185.389 178.601 185.511 178.155 185.517 177.649C185.511 177.149 185.392 176.712 185.159 176.337C184.926 175.956 184.602 175.664 184.188 175.459C183.773 175.249 183.295 175.144 182.756 175.144C182.205 175.144 181.719 175.249 181.298 175.459C180.884 175.664 180.56 175.956 180.327 176.337C180.099 176.712 179.989 177.149 179.994 177.649C179.989 178.155 180.102 178.601 180.335 178.987C180.574 179.368 180.901 179.669 181.315 179.891C181.736 180.107 182.216 180.215 182.756 180.215ZM198.103 172.672C198.938 172.678 199.751 172.825 200.54 173.115C201.336 173.399 202.052 173.865 202.688 174.513C203.325 175.155 203.83 176.016 204.205 177.095C204.58 178.175 204.768 179.51 204.768 181.101C204.773 182.601 204.614 183.942 204.29 185.124C203.972 186.3 203.515 187.294 202.918 188.107C202.322 188.919 201.603 189.539 200.762 189.965C199.921 190.391 198.975 190.604 197.924 190.604C196.822 190.604 195.844 190.388 194.992 189.956C194.146 189.524 193.461 188.933 192.938 188.183C192.415 187.433 192.094 186.575 191.975 185.61H195.086C195.245 186.303 195.569 186.854 196.058 187.263C196.552 187.666 197.174 187.868 197.924 187.868C199.134 187.868 200.066 187.343 200.719 186.291C201.373 185.24 201.7 183.78 201.7 181.911H201.58C201.302 182.411 200.941 182.843 200.498 183.206C200.055 183.564 199.552 183.84 198.989 184.033C198.433 184.226 197.842 184.323 197.217 184.323C196.194 184.323 195.273 184.078 194.455 183.59C193.643 183.101 192.998 182.431 192.521 181.578C192.049 180.726 191.81 179.752 191.805 178.655C191.805 177.519 192.066 176.499 192.589 175.595C193.117 174.686 193.853 173.97 194.796 173.448C195.739 172.919 196.842 172.661 198.103 172.672ZM198.112 175.229C197.498 175.229 196.944 175.379 196.45 175.681C195.961 175.976 195.575 176.379 195.29 176.891C195.012 177.396 194.873 177.962 194.873 178.587C194.879 179.206 195.018 179.769 195.29 180.274C195.569 180.78 195.947 181.181 196.424 181.476C196.907 181.771 197.458 181.919 198.077 181.919C198.538 181.919 198.967 181.831 199.364 181.655C199.762 181.479 200.109 181.235 200.404 180.922C200.705 180.604 200.938 180.243 201.103 179.84C201.273 179.436 201.356 179.01 201.35 178.561C201.35 177.965 201.208 177.414 200.924 176.908C200.646 176.402 200.262 175.996 199.773 175.689C199.29 175.382 198.737 175.229 198.112 175.229ZM214.058 190.698C212.654 190.698 211.45 190.343 210.444 189.632C209.444 188.916 208.674 187.885 208.134 186.539C207.6 185.186 207.333 183.558 207.333 181.655C207.339 179.752 207.609 178.132 208.143 176.797C208.683 175.456 209.452 174.433 210.452 173.729C211.458 173.024 212.66 172.672 214.058 172.672C215.455 172.672 216.657 173.024 217.663 173.729C218.668 174.433 219.438 175.456 219.972 176.797C220.512 178.138 220.782 179.757 220.782 181.655C220.782 183.564 220.512 185.195 219.972 186.547C219.438 187.894 218.668 188.922 217.663 189.632C216.663 190.343 215.461 190.698 214.058 190.698ZM214.058 188.03C215.148 188.03 216.009 187.493 216.64 186.419C217.276 185.34 217.594 183.752 217.594 181.655C217.594 180.269 217.45 179.104 217.16 178.161C216.87 177.218 216.461 176.507 215.933 176.03C215.404 175.547 214.779 175.306 214.058 175.306C212.972 175.306 212.114 175.845 211.484 176.925C210.853 177.999 210.535 179.575 210.529 181.655C210.523 183.047 210.663 184.218 210.947 185.166C211.237 186.115 211.646 186.831 212.174 187.314C212.702 187.791 213.33 188.03 214.058 188.03Z" fill="black" fill-opacity="0.9"/>
<circle cx="410" cy="121.865" r="3.5" fill="#8979FF" stroke="white"/>
<path d="M422.58 118.575V117.638H429.125V118.575H426.381V126.365H425.324V118.575H422.58ZM432.415 126.502C431.784 126.502 431.24 126.362 430.783 126.084C430.328 125.803 429.977 125.411 429.73 124.908C429.486 124.402 429.364 123.814 429.364 123.144C429.364 122.473 429.486 121.882 429.73 121.371C429.977 120.857 430.321 120.456 430.761 120.169C431.205 119.879 431.722 119.735 432.312 119.735C432.653 119.735 432.99 119.791 433.322 119.905C433.655 120.019 433.957 120.203 434.23 120.459C434.503 120.712 434.72 121.047 434.882 121.465C435.044 121.882 435.125 122.396 435.125 123.007V123.433H430.08V122.564H434.102C434.102 122.195 434.028 121.865 433.881 121.575C433.736 121.286 433.528 121.057 433.259 120.889C432.991 120.722 432.676 120.638 432.312 120.638C431.912 120.638 431.565 120.737 431.273 120.936C430.983 121.132 430.76 121.388 430.604 121.703C430.447 122.019 430.369 122.357 430.369 122.718V123.297C430.369 123.791 430.455 124.21 430.625 124.554C430.798 124.895 431.038 125.155 431.345 125.334C431.652 125.51 432.009 125.598 432.415 125.598C432.679 125.598 432.918 125.561 433.131 125.487C433.347 125.411 433.533 125.297 433.689 125.146C433.845 124.993 433.966 124.803 434.051 124.575L435.023 124.848C434.92 125.178 434.749 125.468 434.507 125.718C434.266 125.965 433.967 126.158 433.612 126.297C433.257 126.433 432.858 126.502 432.415 126.502ZM439.314 126.502C438.7 126.502 438.172 126.357 437.729 126.067C437.286 125.777 436.945 125.378 436.706 124.869C436.467 124.361 436.348 123.78 436.348 123.127C436.348 122.462 436.47 121.875 436.714 121.367C436.962 120.855 437.305 120.456 437.746 120.169C438.189 119.879 438.706 119.735 439.297 119.735C439.757 119.735 440.172 119.82 440.541 119.99C440.911 120.161 441.213 120.399 441.449 120.706C441.685 121.013 441.831 121.371 441.888 121.78H440.882C440.805 121.482 440.635 121.218 440.371 120.987C440.109 120.754 439.757 120.638 439.314 120.638C438.922 120.638 438.578 120.74 438.283 120.945C437.99 121.146 437.761 121.432 437.597 121.801C437.435 122.168 437.354 122.598 437.354 123.093C437.354 123.598 437.433 124.039 437.592 124.414C437.754 124.789 437.982 125.08 438.274 125.287C438.57 125.494 438.916 125.598 439.314 125.598C439.575 125.598 439.812 125.553 440.026 125.462C440.239 125.371 440.419 125.24 440.567 125.07C440.714 124.899 440.82 124.695 440.882 124.456H441.888C441.831 124.843 441.69 125.191 441.466 125.5C441.244 125.807 440.95 126.051 440.584 126.233C440.22 126.412 439.797 126.502 439.314 126.502ZM444.364 122.428V126.365H443.358V117.638H444.364V120.843H444.449C444.602 120.504 444.832 120.236 445.139 120.037C445.449 119.835 445.861 119.735 446.375 119.735C446.821 119.735 447.212 119.824 447.547 120.003C447.882 120.179 448.142 120.45 448.327 120.817C448.514 121.181 448.608 121.644 448.608 122.206V126.365H447.602V122.274C447.602 121.754 447.467 121.352 447.197 121.068C446.93 120.781 446.56 120.638 446.085 120.638C445.756 120.638 445.46 120.708 445.199 120.847C444.94 120.986 444.736 121.189 444.585 121.456C444.438 121.723 444.364 122.047 444.364 122.428ZM451.453 122.428V126.365H450.448V119.82H451.419V120.843H451.505C451.658 120.51 451.891 120.243 452.203 120.041C452.516 119.837 452.919 119.735 453.414 119.735C453.857 119.735 454.245 119.825 454.577 120.007C454.909 120.186 455.168 120.459 455.353 120.825C455.537 121.189 455.63 121.649 455.63 122.206V126.365H454.624V122.274C454.624 121.76 454.49 121.36 454.223 121.073C453.956 120.783 453.59 120.638 453.124 120.638C452.803 120.638 452.516 120.708 452.263 120.847C452.013 120.986 451.816 121.189 451.671 121.456C451.526 121.723 451.453 122.047 451.453 122.428ZM460.126 126.502C459.536 126.502 459.017 126.361 458.571 126.08C458.128 125.798 457.781 125.405 457.531 124.899C457.284 124.394 457.161 123.803 457.161 123.127C457.161 122.445 457.284 121.85 457.531 121.341C457.781 120.833 458.128 120.438 458.571 120.156C459.017 119.875 459.536 119.735 460.126 119.735C460.717 119.735 461.234 119.875 461.678 120.156C462.124 120.438 462.47 120.833 462.717 121.341C462.967 121.85 463.092 122.445 463.092 123.127C463.092 123.803 462.967 124.394 462.717 124.899C462.47 125.405 462.124 125.798 461.678 126.08C461.234 126.361 460.717 126.502 460.126 126.502ZM460.126 125.598C460.575 125.598 460.945 125.483 461.234 125.253C461.524 125.023 461.739 124.72 461.878 124.345C462.017 123.97 462.087 123.564 462.087 123.127C462.087 122.689 462.017 122.281 461.878 121.904C461.739 121.526 461.524 121.22 461.234 120.987C460.945 120.754 460.575 120.638 460.126 120.638C459.678 120.638 459.308 120.754 459.018 120.987C458.729 121.22 458.514 121.526 458.375 121.904C458.236 122.281 458.166 122.689 458.166 123.127C458.166 123.564 458.236 123.97 458.375 124.345C458.514 124.72 458.729 125.023 459.018 125.253C459.308 125.483 459.678 125.598 460.126 125.598ZM465.633 117.638V126.365H464.627V117.638H465.633ZM470.134 126.502C469.543 126.502 469.025 126.361 468.579 126.08C468.136 125.798 467.789 125.405 467.539 124.899C467.292 124.394 467.168 123.803 467.168 123.127C467.168 122.445 467.292 121.85 467.539 121.341C467.789 120.833 468.136 120.438 468.579 120.156C469.025 119.875 469.543 119.735 470.134 119.735C470.725 119.735 471.242 119.875 471.685 120.156C472.131 120.438 472.478 120.833 472.725 121.341C472.975 121.85 473.1 122.445 473.1 123.127C473.1 123.803 472.975 124.394 472.725 124.899C472.478 125.405 472.131 125.798 471.685 126.08C471.242 126.361 470.725 126.502 470.134 126.502ZM470.134 125.598C470.583 125.598 470.952 125.483 471.242 125.253C471.532 125.023 471.746 124.72 471.886 124.345C472.025 123.97 472.094 123.564 472.094 123.127C472.094 122.689 472.025 122.281 471.886 121.904C471.746 121.526 471.532 121.22 471.242 120.987C470.952 120.754 470.583 120.638 470.134 120.638C469.685 120.638 469.316 120.754 469.026 120.987C468.737 121.22 468.522 121.526 468.383 121.904C468.244 122.281 468.174 122.689 468.174 123.127C468.174 123.564 468.244 123.97 468.383 124.345C468.522 124.72 468.737 125.023 469.026 125.253C469.316 125.483 469.685 125.598 470.134 125.598ZM477.277 128.956C476.792 128.956 476.374 128.894 476.025 128.769C475.675 128.646 475.384 128.485 475.151 128.283C474.921 128.084 474.738 127.871 474.601 127.644L475.402 127.081C475.493 127.2 475.608 127.337 475.748 127.49C475.887 127.646 476.077 127.781 476.319 127.895C476.563 128.012 476.882 128.07 477.277 128.07C477.806 128.07 478.242 127.942 478.586 127.686C478.929 127.431 479.101 127.03 479.101 126.485V125.155H479.016C478.942 125.274 478.837 125.422 478.701 125.598C478.567 125.771 478.374 125.926 478.121 126.063C477.871 126.196 477.533 126.263 477.107 126.263C476.578 126.263 476.104 126.138 475.684 125.888C475.266 125.638 474.935 125.274 474.691 124.797C474.449 124.32 474.328 123.74 474.328 123.058C474.328 122.388 474.446 121.804 474.682 121.307C474.918 120.807 475.246 120.421 475.667 120.148C476.087 119.872 476.573 119.735 477.124 119.735C477.55 119.735 477.888 119.806 478.138 119.948C478.391 120.087 478.584 120.246 478.718 120.425C478.854 120.601 478.959 120.746 479.033 120.86H479.135V119.82H480.107V126.553C480.107 127.115 479.979 127.573 479.723 127.925C479.471 128.28 479.13 128.54 478.701 128.705C478.275 128.872 477.8 128.956 477.277 128.956ZM477.243 125.36C477.647 125.36 477.988 125.267 478.266 125.083C478.544 124.898 478.756 124.632 478.901 124.286C479.046 123.939 479.118 123.524 479.118 123.041C479.118 122.57 479.047 122.154 478.905 121.793C478.763 121.432 478.553 121.149 478.275 120.945C477.996 120.74 477.652 120.638 477.243 120.638C476.817 120.638 476.462 120.746 476.178 120.962C475.897 121.178 475.685 121.468 475.543 121.831C475.404 122.195 475.334 122.598 475.334 123.041C475.334 123.496 475.405 123.898 475.547 124.247C475.692 124.594 475.905 124.867 476.186 125.066C476.471 125.262 476.823 125.36 477.243 125.36ZM482.596 128.82C482.425 128.82 482.273 128.806 482.14 128.777C482.006 128.752 481.914 128.726 481.863 128.7L482.118 127.814C482.363 127.877 482.578 127.899 482.766 127.882C482.953 127.865 483.12 127.781 483.265 127.631C483.412 127.483 483.547 127.243 483.669 126.911L483.857 126.399L481.436 119.82H482.527L484.334 125.036H484.402L486.209 119.82H487.3L484.522 127.32C484.397 127.658 484.242 127.938 484.057 128.159C483.873 128.384 483.658 128.55 483.414 128.658C483.172 128.766 482.9 128.82 482.596 128.82Z" fill="black" fill-opacity="0.7"/>
<circle cx="410" cy="145.865" r="3.5" fill="#FF928A" stroke="white"/>
<path d="M430.08 144.365H429.023C428.96 144.061 428.851 143.794 428.695 143.564C428.541 143.334 428.354 143.141 428.132 142.985C427.913 142.825 427.67 142.706 427.403 142.627C427.136 142.547 426.858 142.507 426.568 142.507C426.04 142.507 425.561 142.641 425.132 142.908C424.706 143.175 424.366 143.568 424.114 144.088C423.864 144.608 423.739 145.246 423.739 146.002C423.739 146.757 423.864 147.395 424.114 147.915C424.366 148.435 424.706 148.828 425.132 149.095C425.561 149.362 426.04 149.496 426.568 149.496C426.858 149.496 427.136 149.456 427.403 149.377C427.67 149.297 427.913 149.179 428.132 149.023C428.354 148.864 428.541 148.669 428.695 148.439C428.851 148.206 428.96 147.939 429.023 147.638H430.08C430 148.084 429.855 148.483 429.645 148.835C429.435 149.188 429.173 149.487 428.861 149.735C428.548 149.979 428.197 150.165 427.808 150.293C427.422 150.421 427.009 150.485 426.568 150.485C425.824 150.485 425.162 150.303 424.582 149.939C424.003 149.575 423.547 149.058 423.214 148.388C422.882 147.718 422.716 146.922 422.716 146.002C422.716 145.081 422.882 144.286 423.214 143.615C423.547 142.945 424.003 142.428 424.582 142.064C425.162 141.7 425.824 141.519 426.568 141.519C427.009 141.519 427.422 141.583 427.808 141.71C428.197 141.838 428.548 142.026 428.861 142.273C429.173 142.517 429.435 142.816 429.645 143.168C429.855 143.517 430 143.916 430.08 144.365ZM433.577 150.519C433.162 150.519 432.786 150.441 432.448 150.284C432.11 150.125 431.841 149.896 431.642 149.598C431.444 149.297 431.344 148.933 431.344 148.507C431.344 148.132 431.418 147.828 431.566 147.595C431.713 147.36 431.911 147.175 432.158 147.041C432.405 146.908 432.678 146.808 432.976 146.743C433.277 146.675 433.58 146.621 433.884 146.581C434.282 146.53 434.604 146.492 434.851 146.466C435.101 146.438 435.283 146.391 435.397 146.325C435.513 146.26 435.571 146.146 435.571 145.985V145.95C435.571 145.53 435.456 145.203 435.226 144.97C434.999 144.737 434.654 144.621 434.191 144.621C433.711 144.621 433.334 144.726 433.061 144.936C432.789 145.146 432.597 145.371 432.486 145.61L431.532 145.269C431.702 144.871 431.929 144.561 432.213 144.34C432.5 144.115 432.813 143.959 433.151 143.871C433.492 143.78 433.827 143.735 434.157 143.735C434.367 143.735 434.608 143.76 434.881 143.811C435.157 143.86 435.422 143.96 435.678 144.114C435.936 144.267 436.151 144.499 436.321 144.808C436.492 145.118 436.577 145.533 436.577 146.053V150.365H435.571V149.479H435.52C435.452 149.621 435.338 149.773 435.179 149.935C435.02 150.097 434.809 150.235 434.544 150.348C434.28 150.462 433.958 150.519 433.577 150.519ZM433.73 149.615C434.128 149.615 434.463 149.537 434.736 149.381C435.012 149.225 435.219 149.023 435.358 148.776C435.5 148.529 435.571 148.269 435.571 147.996V147.075C435.529 147.127 435.435 147.173 435.29 147.216C435.148 147.256 434.983 147.291 434.796 147.323C434.611 147.351 434.431 147.377 434.255 147.399C434.081 147.419 433.941 147.436 433.833 147.45C433.571 147.485 433.327 147.54 433.1 147.617C432.875 147.691 432.694 147.803 432.554 147.953C432.418 148.101 432.35 148.303 432.35 148.558C432.35 148.908 432.479 149.172 432.738 149.351C432.999 149.527 433.33 149.615 433.73 149.615ZM438.413 150.365V143.82H439.384V144.808H439.452C439.572 144.485 439.788 144.222 440.1 144.02C440.413 143.818 440.765 143.718 441.157 143.718C441.231 143.718 441.323 143.719 441.434 143.722C441.545 143.725 441.629 143.729 441.685 143.735V144.757C441.651 144.749 441.573 144.736 441.451 144.719C441.332 144.699 441.205 144.689 441.072 144.689C440.754 144.689 440.469 144.756 440.219 144.889C439.972 145.02 439.776 145.202 439.631 145.435C439.489 145.665 439.418 145.928 439.418 146.223V150.365H438.413ZM446.389 150.365V141.638H449.44C450.048 141.638 450.549 141.743 450.944 141.953C451.339 142.161 451.633 142.441 451.826 142.793C452.02 143.142 452.116 143.53 452.116 143.956C452.116 144.331 452.049 144.641 451.916 144.885C451.785 145.129 451.612 145.323 451.396 145.465C451.183 145.607 450.951 145.712 450.701 145.78V145.865C450.968 145.882 451.237 145.976 451.507 146.146C451.777 146.317 452.002 146.561 452.184 146.879C452.366 147.198 452.457 147.587 452.457 148.047C452.457 148.485 452.358 148.878 452.159 149.227C451.96 149.577 451.646 149.854 451.217 150.058C450.788 150.263 450.23 150.365 449.542 150.365H446.389ZM447.446 149.428H449.542C450.233 149.428 450.723 149.294 451.012 149.027C451.305 148.757 451.451 148.431 451.451 148.047C451.451 147.752 451.376 147.479 451.225 147.229C451.075 146.976 450.86 146.774 450.582 146.624C450.304 146.47 449.974 146.394 449.593 146.394H447.446V149.428ZM447.446 145.473H449.406C449.724 145.473 450.011 145.411 450.267 145.286C450.525 145.161 450.73 144.985 450.88 144.757C451.034 144.53 451.11 144.263 451.11 143.956C451.11 143.573 450.977 143.247 450.71 142.98C450.443 142.71 450.02 142.575 449.44 142.575H447.446V145.473ZM454.057 150.365V143.82H455.029V144.808H455.097C455.216 144.485 455.432 144.222 455.745 144.02C456.057 143.818 456.409 143.718 456.801 143.718C456.875 143.718 456.968 143.719 457.078 143.722C457.189 143.725 457.273 143.729 457.33 143.735V144.757C457.296 144.749 457.218 144.736 457.096 144.719C456.976 144.699 456.85 144.689 456.716 144.689C456.398 144.689 456.114 144.756 455.864 144.889C455.617 145.02 455.421 145.202 455.276 145.435C455.134 145.665 455.063 145.928 455.063 146.223V150.365H454.057ZM460.448 150.519C460.033 150.519 459.657 150.441 459.319 150.284C458.981 150.125 458.712 149.896 458.513 149.598C458.315 149.297 458.215 148.933 458.215 148.507C458.215 148.132 458.289 147.828 458.437 147.595C458.585 147.36 458.782 147.175 459.029 147.041C459.276 146.908 459.549 146.808 459.847 146.743C460.148 146.675 460.451 146.621 460.755 146.581C461.153 146.53 461.475 146.492 461.722 146.466C461.972 146.438 462.154 146.391 462.268 146.325C462.384 146.26 462.442 146.146 462.442 145.985V145.95C462.442 145.53 462.327 145.203 462.097 144.97C461.87 144.737 461.525 144.621 461.062 144.621C460.582 144.621 460.205 144.726 459.933 144.936C459.66 145.146 459.468 145.371 459.357 145.61L458.403 145.269C458.573 144.871 458.8 144.561 459.085 144.34C459.371 144.115 459.684 143.959 460.022 143.871C460.363 143.78 460.698 143.735 461.028 143.735C461.238 143.735 461.479 143.76 461.752 143.811C462.028 143.86 462.293 143.96 462.549 144.114C462.808 144.267 463.022 144.499 463.192 144.808C463.363 145.118 463.448 145.533 463.448 146.053V150.365H462.442V149.479H462.391C462.323 149.621 462.21 149.773 462.05 149.935C461.891 150.097 461.68 150.235 461.415 150.348C461.151 150.462 460.829 150.519 460.448 150.519ZM460.602 149.615C460.999 149.615 461.335 149.537 461.607 149.381C461.883 149.225 462.09 149.023 462.229 148.776C462.371 148.529 462.442 148.269 462.442 147.996V147.075C462.4 147.127 462.306 147.173 462.161 147.216C462.019 147.256 461.854 147.291 461.667 147.323C461.482 147.351 461.302 147.377 461.126 147.399C460.952 147.419 460.812 147.436 460.704 147.45C460.442 147.485 460.198 147.54 459.971 147.617C459.746 147.691 459.565 147.803 459.425 147.953C459.289 148.101 459.221 148.303 459.221 148.558C459.221 148.908 459.35 149.172 459.609 149.351C459.87 149.527 460.201 149.615 460.602 149.615ZM466.289 146.428V150.365H465.284V143.82H466.255V144.843H466.341C466.494 144.51 466.727 144.243 467.039 144.041C467.352 143.837 467.755 143.735 468.25 143.735C468.693 143.735 469.081 143.825 469.413 144.007C469.745 144.186 470.004 144.459 470.189 144.825C470.373 145.189 470.466 145.649 470.466 146.206V150.365H469.46V146.274C469.46 145.76 469.326 145.36 469.059 145.073C468.792 144.783 468.426 144.638 467.96 144.638C467.639 144.638 467.352 144.708 467.099 144.847C466.849 144.986 466.652 145.189 466.507 145.456C466.362 145.723 466.289 146.047 466.289 146.428ZM474.775 150.502C474.229 150.502 473.748 150.364 473.33 150.088C472.913 149.81 472.586 149.418 472.35 148.912C472.114 148.404 471.996 147.803 471.996 147.11C471.996 146.422 472.114 145.825 472.35 145.32C472.586 144.814 472.914 144.423 473.335 144.148C473.755 143.872 474.241 143.735 474.792 143.735C475.218 143.735 475.555 143.806 475.802 143.948C476.052 144.087 476.242 144.246 476.373 144.425C476.506 144.601 476.61 144.746 476.684 144.86H476.769V141.638H477.775V150.365H476.803V149.36H476.684C476.61 149.479 476.505 149.629 476.369 149.811C476.232 149.99 476.038 150.151 475.785 150.293C475.532 150.432 475.195 150.502 474.775 150.502ZM474.911 149.598C475.315 149.598 475.656 149.493 475.934 149.283C476.212 149.07 476.424 148.776 476.569 148.401C476.714 148.023 476.786 147.587 476.786 147.093C476.786 146.604 476.715 146.176 476.573 145.81C476.431 145.441 476.221 145.154 475.942 144.949C475.664 144.742 475.32 144.638 474.911 144.638C474.485 144.638 474.13 144.747 473.846 144.966C473.565 145.182 473.353 145.476 473.211 145.848C473.072 146.218 473.002 146.632 473.002 147.093C473.002 147.558 473.073 147.982 473.215 148.362C473.36 148.74 473.573 149.041 473.854 149.266C474.138 149.487 474.491 149.598 474.911 149.598ZM484.393 145.286L483.489 145.541C483.433 145.391 483.349 145.244 483.238 145.102C483.13 144.958 482.982 144.838 482.795 144.744C482.607 144.651 482.367 144.604 482.075 144.604C481.674 144.604 481.34 144.696 481.073 144.881C480.809 145.063 480.677 145.294 480.677 145.575C480.677 145.825 480.768 146.023 480.95 146.168C481.131 146.313 481.415 146.433 481.802 146.53L482.773 146.769C483.359 146.911 483.795 147.128 484.082 147.421C484.369 147.71 484.512 148.084 484.512 148.541C484.512 148.916 484.404 149.252 484.188 149.547C483.975 149.843 483.677 150.075 483.293 150.246C482.91 150.416 482.464 150.502 481.955 150.502C481.288 150.502 480.735 150.357 480.298 150.067C479.86 149.777 479.583 149.354 479.467 148.797L480.421 148.558C480.512 148.911 480.684 149.175 480.937 149.351C481.192 149.527 481.526 149.615 481.938 149.615C482.407 149.615 482.779 149.516 483.055 149.317C483.333 149.115 483.472 148.874 483.472 148.593C483.472 148.365 483.393 148.175 483.234 148.021C483.075 147.865 482.83 147.749 482.501 147.672L481.41 147.416C480.81 147.274 480.37 147.054 480.089 146.756C479.81 146.455 479.671 146.078 479.671 145.627C479.671 145.257 479.775 144.931 479.982 144.646C480.192 144.362 480.478 144.139 480.839 143.977C481.202 143.816 481.614 143.735 482.075 143.735C482.722 143.735 483.231 143.877 483.6 144.161C483.972 144.445 484.237 144.82 484.393 145.286Z" fill="black" fill-opacity="0.7"/>
<circle cx="410" cy="169.865" r="3.5" fill="#3CC3DF" stroke="white"/>
<path d="M423.415 174.365H422.307L425.511 165.638H426.602L429.807 174.365H428.699L426.091 167.019H426.023L423.415 174.365ZM423.824 170.956H428.29V171.894H423.824V170.956ZM431.1 174.365V167.82H432.106V174.365H431.1ZM431.612 166.729C431.415 166.729 431.246 166.662 431.104 166.529C430.965 166.395 430.896 166.235 430.896 166.047C430.896 165.86 430.965 165.699 431.104 165.566C431.246 165.432 431.415 165.365 431.612 165.365C431.808 165.365 431.975 165.432 432.114 165.566C432.256 165.699 432.327 165.86 432.327 166.047C432.327 166.235 432.256 166.395 432.114 166.529C431.975 166.662 431.808 166.729 431.612 166.729ZM433.948 174.365V167.82H434.919V168.808H434.988C435.107 168.485 435.323 168.222 435.635 168.02C435.948 167.818 436.3 167.718 436.692 167.718C436.766 167.718 436.858 167.719 436.969 167.722C437.08 167.725 437.164 167.729 437.221 167.735V168.757C437.186 168.749 437.108 168.736 436.986 168.719C436.867 168.699 436.74 168.689 436.607 168.689C436.289 168.689 436.005 168.756 435.755 168.889C435.507 169.02 435.311 169.202 435.167 169.435C435.025 169.665 434.953 169.928 434.953 170.223V174.365H433.948ZM439.418 165.638V174.365H438.413V165.638H439.418ZM441.26 174.365V167.82H442.266V174.365H441.26ZM441.772 166.729C441.576 166.729 441.407 166.662 441.265 166.529C441.125 166.395 441.056 166.235 441.056 166.047C441.056 165.86 441.125 165.699 441.265 165.566C441.407 165.432 441.576 165.365 441.772 165.365C441.968 165.365 442.135 165.432 442.275 165.566C442.417 165.699 442.488 165.86 442.488 166.047C442.488 166.235 442.417 166.395 442.275 166.529C442.135 166.662 441.968 166.729 441.772 166.729ZM445.114 170.428V174.365H444.108V167.82H445.08V168.843H445.165C445.318 168.51 445.551 168.243 445.864 168.041C446.176 167.837 446.58 167.735 447.074 167.735C447.517 167.735 447.905 167.825 448.237 168.007C448.57 168.186 448.828 168.459 449.013 168.825C449.197 169.189 449.29 169.649 449.29 170.206V174.365H448.284V170.274C448.284 169.76 448.151 169.36 447.884 169.073C447.616 168.783 447.25 168.638 446.784 168.638C446.463 168.638 446.176 168.708 445.923 168.847C445.673 168.986 445.476 169.189 445.331 169.456C445.186 169.723 445.114 170.047 445.114 170.428ZM453.872 174.502C453.241 174.502 452.697 174.362 452.24 174.084C451.785 173.803 451.434 173.411 451.187 172.908C450.943 172.402 450.821 171.814 450.821 171.144C450.821 170.473 450.943 169.882 451.187 169.371C451.434 168.857 451.778 168.456 452.218 168.169C452.662 167.879 453.179 167.735 453.77 167.735C454.11 167.735 454.447 167.791 454.779 167.905C455.112 168.019 455.414 168.203 455.687 168.459C455.96 168.712 456.177 169.047 456.339 169.465C456.501 169.882 456.582 170.396 456.582 171.007V171.433H451.537V170.564H455.559C455.559 170.195 455.485 169.865 455.338 169.575C455.193 169.286 454.985 169.057 454.716 168.889C454.449 168.722 454.133 168.638 453.77 168.638C453.369 168.638 453.022 168.737 452.73 168.936C452.44 169.132 452.217 169.388 452.061 169.703C451.904 170.019 451.826 170.357 451.826 170.718V171.297C451.826 171.791 451.912 172.21 452.082 172.554C452.255 172.895 452.495 173.155 452.802 173.334C453.109 173.51 453.466 173.598 453.872 173.598C454.136 173.598 454.375 173.561 454.588 173.487C454.804 173.411 454.99 173.297 455.146 173.146C455.302 172.993 455.423 172.803 455.508 172.575L456.48 172.848C456.377 173.178 456.206 173.468 455.964 173.718C455.723 173.965 455.424 174.158 455.069 174.297C454.714 174.433 454.315 174.502 453.872 174.502ZM462.748 169.286L461.845 169.541C461.788 169.391 461.704 169.244 461.593 169.102C461.485 168.958 461.338 168.838 461.15 168.744C460.963 168.651 460.723 168.604 460.43 168.604C460.029 168.604 459.696 168.696 459.429 168.881C459.164 169.063 459.032 169.294 459.032 169.575C459.032 169.825 459.123 170.023 459.305 170.168C459.487 170.313 459.771 170.433 460.157 170.53L461.129 170.769C461.714 170.911 462.15 171.128 462.437 171.421C462.724 171.71 462.868 172.084 462.868 172.541C462.868 172.916 462.76 173.252 462.544 173.547C462.331 173.843 462.032 174.075 461.649 174.246C461.265 174.416 460.819 174.502 460.311 174.502C459.643 174.502 459.091 174.357 458.653 174.067C458.216 173.777 457.939 173.354 457.822 172.797L458.777 172.558C458.868 172.911 459.039 173.175 459.292 173.351C459.548 173.527 459.882 173.615 460.294 173.615C460.762 173.615 461.135 173.516 461.41 173.317C461.689 173.115 461.828 172.874 461.828 172.593C461.828 172.365 461.748 172.175 461.589 172.021C461.43 171.865 461.186 171.749 460.856 171.672L459.765 171.416C459.166 171.274 458.725 171.054 458.444 170.756C458.166 170.455 458.027 170.078 458.027 169.627C458.027 169.257 458.13 168.931 458.338 168.646C458.548 168.362 458.833 168.139 459.194 167.977C459.558 167.816 459.97 167.735 460.43 167.735C461.078 167.735 461.586 167.877 461.956 168.161C462.328 168.445 462.592 168.82 462.748 169.286Z" fill="black" fill-opacity="0.7"/>
<circle cx="410" cy="193.865" r="3.5" fill="#FFAE4C" stroke="white"/>
<path d="M423.057 198.365V189.638H428.324V190.575H424.114V193.524H428.051V194.462H424.114V197.428H428.392V198.365H423.057ZM431.098 194.428V198.365H430.092V191.82H431.064V192.843H431.149C431.303 192.51 431.536 192.243 431.848 192.041C432.161 191.837 432.564 191.735 433.058 191.735C433.501 191.735 433.889 191.825 434.222 192.007C434.554 192.186 434.813 192.459 434.997 192.825C435.182 193.189 435.274 193.649 435.274 194.206V198.365H434.268V194.274C434.268 193.76 434.135 193.36 433.868 193.073C433.601 192.783 433.234 192.638 432.768 192.638C432.447 192.638 432.161 192.708 431.908 192.847C431.658 192.986 431.46 193.189 431.315 193.456C431.17 193.723 431.098 194.047 431.098 194.428ZM439.856 198.502C439.225 198.502 438.681 198.362 438.224 198.084C437.77 197.803 437.419 197.411 437.172 196.908C436.927 196.402 436.805 195.814 436.805 195.144C436.805 194.473 436.927 193.882 437.172 193.371C437.419 192.857 437.762 192.456 438.203 192.169C438.646 191.879 439.163 191.735 439.754 191.735C440.095 191.735 440.431 191.791 440.764 191.905C441.096 192.019 441.399 192.203 441.672 192.459C441.944 192.712 442.162 193.047 442.324 193.465C442.485 193.882 442.566 194.396 442.566 195.007V195.433H437.521V194.564H441.544C441.544 194.195 441.47 193.865 441.322 193.575C441.177 193.286 440.97 193.057 440.7 192.889C440.433 192.722 440.118 192.638 439.754 192.638C439.353 192.638 439.007 192.737 438.714 192.936C438.424 193.132 438.201 193.388 438.045 193.703C437.889 194.019 437.811 194.357 437.811 194.718V195.297C437.811 195.791 437.896 196.21 438.066 196.554C438.24 196.895 438.48 197.155 438.787 197.334C439.093 197.51 439.45 197.598 439.856 197.598C440.12 197.598 440.359 197.561 440.572 197.487C440.788 197.411 440.974 197.297 441.13 197.146C441.287 196.993 441.407 196.803 441.493 196.575L442.464 196.848C442.362 197.178 442.19 197.468 441.949 197.718C441.707 197.965 441.409 198.158 441.054 198.297C440.699 198.433 440.299 198.502 439.856 198.502ZM444.096 198.365V191.82H445.068V192.808H445.136C445.255 192.485 445.471 192.222 445.784 192.02C446.096 191.818 446.449 191.718 446.841 191.718C446.914 191.718 447.007 191.719 447.118 191.722C447.228 191.725 447.312 191.729 447.369 191.735V192.757C447.335 192.749 447.257 192.736 447.135 192.719C447.015 192.699 446.889 192.689 446.755 192.689C446.437 192.689 446.153 192.756 445.903 192.889C445.656 193.02 445.46 193.202 445.315 193.435C445.173 193.665 445.102 193.928 445.102 194.223V198.365H444.096ZM451.004 200.956C450.518 200.956 450.1 200.894 449.751 200.769C449.402 200.646 449.11 200.485 448.877 200.283C448.647 200.084 448.464 199.871 448.328 199.644L449.129 199.081C449.22 199.2 449.335 199.337 449.474 199.49C449.613 199.646 449.804 199.781 450.045 199.895C450.289 200.012 450.609 200.07 451.004 200.07C451.532 200.07 451.968 199.942 452.312 199.686C452.656 199.431 452.828 199.03 452.828 198.485V197.155H452.743C452.669 197.274 452.564 197.422 452.427 197.598C452.294 197.771 452.1 197.926 451.848 198.063C451.598 198.196 451.26 198.263 450.833 198.263C450.305 198.263 449.831 198.138 449.41 197.888C448.993 197.638 448.662 197.274 448.417 196.797C448.176 196.32 448.055 195.74 448.055 195.058C448.055 194.388 448.173 193.804 448.409 193.307C448.645 192.807 448.973 192.421 449.393 192.148C449.814 191.872 450.299 191.735 450.85 191.735C451.277 191.735 451.615 191.806 451.865 191.948C452.118 192.087 452.311 192.246 452.444 192.425C452.581 192.601 452.686 192.746 452.76 192.86H452.862V191.82H453.833V198.553C453.833 199.115 453.706 199.573 453.45 199.925C453.197 200.28 452.856 200.54 452.427 200.705C452.001 200.872 451.527 200.956 451.004 200.956ZM450.97 197.36C451.373 197.36 451.714 197.267 451.993 197.083C452.271 196.898 452.483 196.632 452.627 196.286C452.772 195.939 452.845 195.524 452.845 195.041C452.845 194.57 452.774 194.154 452.632 193.793C452.49 193.432 452.279 193.149 452.001 192.945C451.723 192.74 451.379 192.638 450.97 192.638C450.544 192.638 450.189 192.746 449.904 192.962C449.623 193.178 449.412 193.468 449.27 193.831C449.13 194.195 449.061 194.598 449.061 195.041C449.061 195.496 449.132 195.898 449.274 196.247C449.419 196.594 449.632 196.867 449.913 197.066C450.197 197.262 450.549 197.36 450.97 197.36ZM456.322 200.82C456.152 200.82 456 200.806 455.866 200.777C455.733 200.752 455.64 200.726 455.589 200.7L455.845 199.814C456.089 199.877 456.305 199.899 456.493 199.882C456.68 199.865 456.846 199.781 456.991 199.631C457.139 199.483 457.274 199.243 457.396 198.911L457.583 198.399L455.163 191.82H456.254L458.061 197.036H458.129L459.936 191.82H461.027L458.248 199.32C458.123 199.658 457.968 199.938 457.784 200.159C457.599 200.384 457.385 200.55 457.14 200.658C456.899 200.766 456.626 200.82 456.322 200.82Z" fill="black" fill-opacity="0.7"/>
<circle cx="410" cy="217.865" r="3.5" fill="#537FF1" stroke="white"/>
<path d="M422.58 214.575V213.638H429.125V214.575H426.381V222.365H425.324V214.575H422.58ZM432.415 222.502C431.784 222.502 431.24 222.362 430.783 222.084C430.328 221.803 429.977 221.411 429.73 220.908C429.486 220.402 429.364 219.814 429.364 219.144C429.364 218.473 429.486 217.882 429.73 217.371C429.977 216.857 430.321 216.456 430.761 216.169C431.205 215.879 431.722 215.735 432.312 215.735C432.653 215.735 432.99 215.791 433.322 215.905C433.655 216.019 433.957 216.203 434.23 216.459C434.503 216.712 434.72 217.047 434.882 217.465C435.044 217.882 435.125 218.396 435.125 219.007V219.433H430.08V218.564H434.102C434.102 218.195 434.028 217.865 433.881 217.575C433.736 217.286 433.528 217.057 433.259 216.889C432.991 216.722 432.676 216.638 432.312 216.638C431.912 216.638 431.565 216.737 431.273 216.936C430.983 217.132 430.76 217.388 430.604 217.703C430.447 218.019 430.369 218.357 430.369 218.718V219.297C430.369 219.791 430.455 220.21 430.625 220.554C430.798 220.895 431.038 221.155 431.345 221.334C431.652 221.51 432.009 221.598 432.415 221.598C432.679 221.598 432.918 221.561 433.131 221.487C433.347 221.411 433.533 221.297 433.689 221.146C433.845 220.993 433.966 220.803 434.051 220.575L435.023 220.848C434.92 221.178 434.749 221.468 434.507 221.718C434.266 221.965 433.967 222.158 433.612 222.297C433.257 222.433 432.858 222.502 432.415 222.502ZM439.314 222.502C438.7 222.502 438.172 222.357 437.729 222.067C437.286 221.777 436.945 221.378 436.706 220.869C436.467 220.361 436.348 219.78 436.348 219.127C436.348 218.462 436.47 217.875 436.714 217.367C436.962 216.855 437.305 216.456 437.746 216.169C438.189 215.879 438.706 215.735 439.297 215.735C439.757 215.735 440.172 215.82 440.541 215.99C440.911 216.161 441.213 216.399 441.449 216.706C441.685 217.013 441.831 217.371 441.888 217.78H440.882C440.805 217.482 440.635 217.218 440.371 216.987C440.109 216.754 439.757 216.638 439.314 216.638C438.922 216.638 438.578 216.74 438.283 216.945C437.99 217.146 437.761 217.432 437.597 217.801C437.435 218.168 437.354 218.598 437.354 219.093C437.354 219.598 437.433 220.039 437.592 220.414C437.754 220.789 437.982 221.08 438.274 221.287C438.57 221.494 438.916 221.598 439.314 221.598C439.575 221.598 439.812 221.553 440.026 221.462C440.239 221.371 440.419 221.24 440.567 221.07C440.714 220.899 440.82 220.695 440.882 220.456H441.888C441.831 220.843 441.69 221.191 441.466 221.5C441.244 221.807 440.95 222.051 440.584 222.233C440.22 222.412 439.797 222.502 439.314 222.502ZM444.364 218.428V222.365H443.358V213.638H444.364V216.843H444.449C444.602 216.504 444.832 216.236 445.139 216.037C445.449 215.835 445.861 215.735 446.375 215.735C446.821 215.735 447.212 215.824 447.547 216.003C447.882 216.179 448.142 216.45 448.327 216.817C448.514 217.181 448.608 217.644 448.608 218.206V222.365H447.602V218.274C447.602 217.754 447.467 217.352 447.197 217.068C446.93 216.781 446.56 216.638 446.085 216.638C445.756 216.638 445.46 216.708 445.199 216.847C444.94 216.986 444.736 217.189 444.585 217.456C444.438 217.723 444.364 218.047 444.364 218.428ZM451.453 218.428V222.365H450.448V215.82H451.419V216.843H451.505C451.658 216.51 451.891 216.243 452.203 216.041C452.516 215.837 452.919 215.735 453.414 215.735C453.857 215.735 454.245 215.825 454.577 216.007C454.909 216.186 455.168 216.459 455.353 216.825C455.537 217.189 455.63 217.649 455.63 218.206V222.365H454.624V218.274C454.624 217.76 454.49 217.36 454.223 217.073C453.956 216.783 453.59 216.638 453.124 216.638C452.803 216.638 452.516 216.708 452.263 216.847C452.013 216.986 451.816 217.189 451.671 217.456C451.526 217.723 451.453 218.047 451.453 218.428ZM460.126 222.502C459.536 222.502 459.017 222.361 458.571 222.08C458.128 221.798 457.781 221.405 457.531 220.899C457.284 220.394 457.161 219.803 457.161 219.127C457.161 218.445 457.284 217.85 457.531 217.341C457.781 216.833 458.128 216.438 458.571 216.156C459.017 215.875 459.536 215.735 460.126 215.735C460.717 215.735 461.234 215.875 461.678 216.156C462.124 216.438 462.47 216.833 462.717 217.341C462.967 217.85 463.092 218.445 463.092 219.127C463.092 219.803 462.967 220.394 462.717 220.899C462.47 221.405 462.124 221.798 461.678 222.08C461.234 222.361 460.717 222.502 460.126 222.502ZM460.126 221.598C460.575 221.598 460.945 221.483 461.234 221.253C461.524 221.023 461.739 220.72 461.878 220.345C462.017 219.97 462.087 219.564 462.087 219.127C462.087 218.689 462.017 218.281 461.878 217.904C461.739 217.526 461.524 217.22 461.234 216.987C460.945 216.754 460.575 216.638 460.126 216.638C459.678 216.638 459.308 216.754 459.018 216.987C458.729 217.22 458.514 217.526 458.375 217.904C458.236 218.281 458.166 218.689 458.166 219.127C458.166 219.564 458.236 219.97 458.375 220.345C458.514 220.72 458.729 221.023 459.018 221.253C459.308 221.483 459.678 221.598 460.126 221.598ZM465.633 213.638V222.365H464.627V213.638H465.633ZM470.134 222.502C469.543 222.502 469.025 222.361 468.579 222.08C468.136 221.798 467.789 221.405 467.539 220.899C467.292 220.394 467.168 219.803 467.168 219.127C467.168 218.445 467.292 217.85 467.539 217.341C467.789 216.833 468.136 216.438 468.579 216.156C469.025 215.875 469.543 215.735 470.134 215.735C470.725 215.735 471.242 215.875 471.685 216.156C472.131 216.438 472.478 216.833 472.725 217.341C472.975 217.85 473.1 218.445 473.1 219.127C473.1 219.803 472.975 220.394 472.725 220.899C472.478 221.405 472.131 221.798 471.685 222.08C471.242 222.361 470.725 222.502 470.134 222.502ZM470.134 221.598C470.583 221.598 470.952 221.483 471.242 221.253C471.532 221.023 471.746 220.72 471.886 220.345C472.025 219.97 472.094 219.564 472.094 219.127C472.094 218.689 472.025 218.281 471.886 217.904C471.746 217.526 471.532 217.22 471.242 216.987C470.952 216.754 470.583 216.638 470.134 216.638C469.685 216.638 469.316 216.754 469.026 216.987C468.737 217.22 468.522 217.526 468.383 217.904C468.244 218.281 468.174 218.689 468.174 219.127C468.174 219.564 468.244 219.97 468.383 220.345C468.522 220.72 468.737 221.023 469.026 221.253C469.316 221.483 469.685 221.598 470.134 221.598ZM477.277 224.956C476.792 224.956 476.374 224.894 476.025 224.769C475.675 224.646 475.384 224.485 475.151 224.283C474.921 224.084 474.738 223.871 474.601 223.644L475.402 223.081C475.493 223.2 475.608 223.337 475.748 223.49C475.887 223.646 476.077 223.781 476.319 223.895C476.563 224.012 476.882 224.07 477.277 224.07C477.806 224.07 478.242 223.942 478.586 223.686C478.929 223.431 479.101 223.03 479.101 222.485V221.155H479.016C478.942 221.274 478.837 221.422 478.701 221.598C478.567 221.771 478.374 221.926 478.121 222.063C477.871 222.196 477.533 222.263 477.107 222.263C476.578 222.263 476.104 222.138 475.684 221.888C475.266 221.638 474.935 221.274 474.691 220.797C474.449 220.32 474.328 219.74 474.328 219.058C474.328 218.388 474.446 217.804 474.682 217.307C474.918 216.807 475.246 216.421 475.667 216.148C476.087 215.872 476.573 215.735 477.124 215.735C477.55 215.735 477.888 215.806 478.138 215.948C478.391 216.087 478.584 216.246 478.718 216.425C478.854 216.601 478.959 216.746 479.033 216.86H479.135V215.82H480.107V222.553C480.107 223.115 479.979 223.573 479.723 223.925C479.471 224.28 479.13 224.54 478.701 224.705C478.275 224.872 477.8 224.956 477.277 224.956ZM477.243 221.36C477.647 221.36 477.988 221.267 478.266 221.083C478.544 220.898 478.756 220.632 478.901 220.286C479.046 219.939 479.118 219.524 479.118 219.041C479.118 218.57 479.047 218.154 478.905 217.793C478.763 217.432 478.553 217.149 478.275 216.945C477.996 216.74 477.652 216.638 477.243 216.638C476.817 216.638 476.462 216.746 476.178 216.962C475.897 217.178 475.685 217.468 475.543 217.831C475.404 218.195 475.334 218.598 475.334 219.041C475.334 219.496 475.405 219.898 475.547 220.247C475.692 220.594 475.905 220.867 476.186 221.066C476.471 221.262 476.823 221.36 477.243 221.36ZM482.596 224.82C482.425 224.82 482.273 224.806 482.14 224.777C482.006 224.752 481.914 224.726 481.863 224.7L482.118 223.814C482.363 223.877 482.578 223.899 482.766 223.882C482.953 223.865 483.12 223.781 483.265 223.631C483.412 223.483 483.547 223.243 483.669 222.911L483.857 222.399L481.436 215.82H482.527L484.334 221.036H484.402L486.209 215.82H487.3L484.522 223.32C484.397 223.658 484.242 223.938 484.057 224.159C483.873 224.384 483.658 224.55 483.414 224.658C483.172 224.766 482.9 224.82 482.596 224.82Z" fill="black" fill-opacity="0.7"/>
<circle cx="410" cy="241.865" r="3.5" fill="#6FD195" stroke="white"/>
<path d="M430.08 240.365H429.023C428.96 240.061 428.851 239.794 428.695 239.564C428.541 239.334 428.354 239.141 428.132 238.985C427.913 238.825 427.67 238.706 427.403 238.627C427.136 238.547 426.858 238.507 426.568 238.507C426.04 238.507 425.561 238.641 425.132 238.908C424.706 239.175 424.366 239.568 424.114 240.088C423.864 240.608 423.739 241.246 423.739 242.002C423.739 242.757 423.864 243.395 424.114 243.915C424.366 244.435 424.706 244.828 425.132 245.095C425.561 245.362 426.04 245.496 426.568 245.496C426.858 245.496 427.136 245.456 427.403 245.377C427.67 245.297 427.913 245.179 428.132 245.023C428.354 244.864 428.541 244.669 428.695 244.439C428.851 244.206 428.96 243.939 429.023 243.638H430.08C430 244.084 429.855 244.483 429.645 244.835C429.435 245.188 429.173 245.487 428.861 245.735C428.548 245.979 428.197 246.165 427.808 246.293C427.422 246.421 427.009 246.485 426.568 246.485C425.824 246.485 425.162 246.303 424.582 245.939C424.003 245.575 423.547 245.058 423.214 244.388C422.882 243.718 422.716 242.922 422.716 242.002C422.716 241.081 422.882 240.286 423.214 239.615C423.547 238.945 424.003 238.428 424.582 238.064C425.162 237.7 425.824 237.519 426.568 237.519C427.009 237.519 427.422 237.583 427.808 237.71C428.197 237.838 428.548 238.026 428.861 238.273C429.173 238.517 429.435 238.816 429.645 239.168C429.855 239.517 430 239.916 430.08 240.365ZM433.577 246.519C433.162 246.519 432.786 246.441 432.448 246.284C432.11 246.125 431.841 245.896 431.642 245.598C431.444 245.297 431.344 244.933 431.344 244.507C431.344 244.132 431.418 243.828 431.566 243.595C431.713 243.36 431.911 243.175 432.158 243.041C432.405 242.908 432.678 242.808 432.976 242.743C433.277 242.675 433.58 242.621 433.884 242.581C434.282 242.53 434.604 242.492 434.851 242.466C435.101 242.438 435.283 242.391 435.397 242.325C435.513 242.26 435.571 242.146 435.571 241.985V241.95C435.571 241.53 435.456 241.203 435.226 240.97C434.999 240.737 434.654 240.621 434.191 240.621C433.711 240.621 433.334 240.726 433.061 240.936C432.789 241.146 432.597 241.371 432.486 241.61L431.532 241.269C431.702 240.871 431.929 240.561 432.213 240.34C432.5 240.115 432.813 239.959 433.151 239.871C433.492 239.78 433.827 239.735 434.157 239.735C434.367 239.735 434.608 239.76 434.881 239.811C435.157 239.86 435.422 239.96 435.678 240.114C435.936 240.267 436.151 240.499 436.321 240.808C436.492 241.118 436.577 241.533 436.577 242.053V246.365H435.571V245.479H435.52C435.452 245.621 435.338 245.773 435.179 245.935C435.02 246.097 434.809 246.235 434.544 246.348C434.28 246.462 433.958 246.519 433.577 246.519ZM433.73 245.615C434.128 245.615 434.463 245.537 434.736 245.381C435.012 245.225 435.219 245.023 435.358 244.776C435.5 244.529 435.571 244.269 435.571 243.996V243.075C435.529 243.127 435.435 243.173 435.29 243.216C435.148 243.256 434.983 243.291 434.796 243.323C434.611 243.351 434.431 243.377 434.255 243.399C434.081 243.419 433.941 243.436 433.833 243.45C433.571 243.485 433.327 243.54 433.1 243.617C432.875 243.691 432.694 243.803 432.554 243.953C432.418 244.101 432.35 244.303 432.35 244.558C432.35 244.908 432.479 245.172 432.738 245.351C432.999 245.527 433.33 245.615 433.73 245.615ZM438.413 246.365V239.82H439.384V240.808H439.452C439.572 240.485 439.788 240.222 440.1 240.02C440.413 239.818 440.765 239.718 441.157 239.718C441.231 239.718 441.323 239.719 441.434 239.722C441.545 239.725 441.629 239.729 441.685 239.735V240.757C441.651 240.749 441.573 240.736 441.451 240.719C441.332 240.699 441.205 240.689 441.072 240.689C440.754 240.689 440.469 240.756 440.219 240.889C439.972 241.02 439.776 241.202 439.631 241.435C439.489 241.665 439.418 241.928 439.418 242.223V246.365H438.413ZM446.389 246.365V237.638H449.44C450.048 237.638 450.549 237.743 450.944 237.953C451.339 238.161 451.633 238.441 451.826 238.793C452.02 239.142 452.116 239.53 452.116 239.956C452.116 240.331 452.049 240.641 451.916 240.885C451.785 241.129 451.612 241.323 451.396 241.465C451.183 241.607 450.951 241.712 450.701 241.78V241.865C450.968 241.882 451.237 241.976 451.507 242.146C451.777 242.317 452.002 242.561 452.184 242.879C452.366 243.198 452.457 243.587 452.457 244.047C452.457 244.485 452.358 244.878 452.159 245.227C451.96 245.577 451.646 245.854 451.217 246.058C450.788 246.263 450.23 246.365 449.542 246.365H446.389ZM447.446 245.428H449.542C450.233 245.428 450.723 245.294 451.012 245.027C451.305 244.757 451.451 244.431 451.451 244.047C451.451 243.752 451.376 243.479 451.225 243.229C451.075 242.976 450.86 242.774 450.582 242.624C450.304 242.47 449.974 242.394 449.593 242.394H447.446V245.428ZM447.446 241.473H449.406C449.724 241.473 450.011 241.411 450.267 241.286C450.525 241.161 450.73 240.985 450.88 240.757C451.034 240.53 451.11 240.263 451.11 239.956C451.11 239.573 450.977 239.247 450.71 238.98C450.443 238.71 450.02 238.575 449.44 238.575H447.446V241.473ZM454.057 246.365V239.82H455.029V240.808H455.097C455.216 240.485 455.432 240.222 455.745 240.02C456.057 239.818 456.409 239.718 456.801 239.718C456.875 239.718 456.968 239.719 457.078 239.722C457.189 239.725 457.273 239.729 457.33 239.735V240.757C457.296 240.749 457.218 240.736 457.096 240.719C456.976 240.699 456.85 240.689 456.716 240.689C456.398 240.689 456.114 240.756 455.864 240.889C455.617 241.02 455.421 241.202 455.276 241.435C455.134 241.665 455.063 241.928 455.063 242.223V246.365H454.057ZM460.448 246.519C460.033 246.519 459.657 246.441 459.319 246.284C458.981 246.125 458.712 245.896 458.513 245.598C458.315 245.297 458.215 244.933 458.215 244.507C458.215 244.132 458.289 243.828 458.437 243.595C458.585 243.36 458.782 243.175 459.029 243.041C459.276 242.908 459.549 242.808 459.847 242.743C460.148 242.675 460.451 242.621 460.755 242.581C461.153 242.53 461.475 242.492 461.722 242.466C461.972 242.438 462.154 242.391 462.268 242.325C462.384 242.26 462.442 242.146 462.442 241.985V241.95C462.442 241.53 462.327 241.203 462.097 240.97C461.87 240.737 461.525 240.621 461.062 240.621C460.582 240.621 460.205 240.726 459.933 240.936C459.66 241.146 459.468 241.371 459.357 241.61L458.403 241.269C458.573 240.871 458.8 240.561 459.085 240.34C459.371 240.115 459.684 239.959 460.022 239.871C460.363 239.78 460.698 239.735 461.028 239.735C461.238 239.735 461.479 239.76 461.752 239.811C462.028 239.86 462.293 239.96 462.549 240.114C462.808 240.267 463.022 240.499 463.192 240.808C463.363 241.118 463.448 241.533 463.448 242.053V246.365H462.442V245.479H462.391C462.323 245.621 462.21 245.773 462.05 245.935C461.891 246.097 461.68 246.235 461.415 246.348C461.151 246.462 460.829 246.519 460.448 246.519ZM460.602 245.615C460.999 245.615 461.335 245.537 461.607 245.381C461.883 245.225 462.09 245.023 462.229 244.776C462.371 244.529 462.442 244.269 462.442 243.996V243.075C462.4 243.127 462.306 243.173 462.161 243.216C462.019 243.256 461.854 243.291 461.667 243.323C461.482 243.351 461.302 243.377 461.126 243.399C460.952 243.419 460.812 243.436 460.704 243.45C460.442 243.485 460.198 243.54 459.971 243.617C459.746 243.691 459.565 243.803 459.425 243.953C459.289 244.101 459.221 244.303 459.221 244.558C459.221 244.908 459.35 245.172 459.609 245.351C459.87 245.527 460.201 245.615 460.602 245.615ZM466.289 242.428V246.365H465.284V239.82H466.255V240.843H466.341C466.494 240.51 466.727 240.243 467.039 240.041C467.352 239.837 467.755 239.735 468.25 239.735C468.693 239.735 469.081 239.825 469.413 240.007C469.745 240.186 470.004 240.459 470.189 240.825C470.373 241.189 470.466 241.649 470.466 242.206V246.365H469.46V242.274C469.46 241.76 469.326 241.36 469.059 241.073C468.792 240.783 468.426 240.638 467.96 240.638C467.639 240.638 467.352 240.708 467.099 240.847C466.849 240.986 466.652 241.189 466.507 241.456C466.362 241.723 466.289 242.047 466.289 242.428ZM474.775 246.502C474.229 246.502 473.748 246.364 473.33 246.088C472.913 245.81 472.586 245.418 472.35 244.912C472.114 244.404 471.996 243.803 471.996 243.11C471.996 242.422 472.114 241.825 472.35 241.32C472.586 240.814 472.914 240.423 473.335 240.148C473.755 239.872 474.241 239.735 474.792 239.735C475.218 239.735 475.555 239.806 475.802 239.948C476.052 240.087 476.242 240.246 476.373 240.425C476.506 240.601 476.61 240.746 476.684 240.86H476.769V237.638H477.775V246.365H476.803V245.36H476.684C476.61 245.479 476.505 245.629 476.369 245.811C476.232 245.99 476.038 246.151 475.785 246.293C475.532 246.432 475.195 246.502 474.775 246.502ZM474.911 245.598C475.315 245.598 475.656 245.493 475.934 245.283C476.212 245.07 476.424 244.776 476.569 244.401C476.714 244.023 476.786 243.587 476.786 243.093C476.786 242.604 476.715 242.176 476.573 241.81C476.431 241.441 476.221 241.154 475.942 240.949C475.664 240.742 475.32 240.638 474.911 240.638C474.485 240.638 474.13 240.747 473.846 240.966C473.565 241.182 473.353 241.476 473.211 241.848C473.072 242.218 473.002 242.632 473.002 243.093C473.002 243.558 473.073 243.982 473.215 244.362C473.36 244.74 473.573 245.041 473.854 245.266C474.138 245.487 474.491 245.598 474.911 245.598ZM484.393 241.286L483.489 241.541C483.433 241.391 483.349 241.244 483.238 241.102C483.13 240.958 482.982 240.838 482.795 240.744C482.607 240.651 482.367 240.604 482.075 240.604C481.674 240.604 481.34 240.696 481.073 240.881C480.809 241.063 480.677 241.294 480.677 241.575C480.677 241.825 480.768 242.023 480.95 242.168C481.131 242.313 481.415 242.433 481.802 242.53L482.773 242.769C483.359 242.911 483.795 243.128 484.082 243.421C484.369 243.71 484.512 244.084 484.512 244.541C484.512 244.916 484.404 245.252 484.188 245.547C483.975 245.843 483.677 246.075 483.293 246.246C482.91 246.416 482.464 246.502 481.955 246.502C481.288 246.502 480.735 246.357 480.298 246.067C479.86 245.777 479.583 245.354 479.467 244.797L480.421 244.558C480.512 244.911 480.684 245.175 480.937 245.351C481.192 245.527 481.526 245.615 481.938 245.615C482.407 245.615 482.779 245.516 483.055 245.317C483.333 245.115 483.472 244.874 483.472 244.593C483.472 244.365 483.393 244.175 483.234 244.021C483.075 243.865 482.83 243.749 482.501 243.672L481.41 243.416C480.81 243.274 480.37 243.054 480.089 242.756C479.81 242.455 479.671 242.078 479.671 241.627C479.671 241.257 479.775 240.931 479.982 240.646C480.192 240.362 480.478 240.139 480.839 239.977C481.202 239.816 481.614 239.735 482.075 239.735C482.722 239.735 483.231 239.877 483.6 240.161C483.972 240.445 484.237 240.82 484.393 241.286Z" fill="black" fill-opacity="0.7"/>
</svg>
