<svg width="500" height="348" viewBox="0 0 500 348" fill="none" xmlns="http://www.w3.org/2000/svg">
<g clip-path="url(#clip0_833_3318)">
<rect width="500" height="347.573" transform="translate(0 0.078125)" fill="white"/>
<path d="M60.2832 292.648H473.076" stroke="#F0F0F0" stroke-dasharray="4 2"/>
<path d="M60.2832 241.809H473.076" stroke="#F0F0F0" stroke-dasharray="4 2"/>
<path d="M60.2832 190.043H473.076" stroke="#F0F0F0" stroke-dasharray="4 2"/>
<path d="M60.2832 139.199H473.076" stroke="#F0F0F0" stroke-dasharray="4 2"/>
<path d="M60.2832 88.3594H473.076" stroke="#F0F0F0" stroke-dasharray="4 2"/>
<path d="M60.2832 37.5156H473.076" stroke="#F0F0F0" stroke-dasharray="4 2"/>
<path d="M60.2832 292.648H473.076" stroke="#F0F0F0" stroke-linecap="round"/>
<path d="M89.9043 292.188V296.809" stroke="#D9D9D9"/>
<path d="M148.559 292.188V296.809" stroke="#D9D9D9"/>
<path d="M208.174 292.188V296.809" stroke="#D9D9D9"/>
<path d="M266.826 292.188V296.809" stroke="#D9D9D9"/>
<path d="M325.48 292.188V296.809" stroke="#D9D9D9"/>
<path d="M385.096 292.188V296.809" stroke="#D9D9D9"/>
<path d="M443.75 292.188V296.809" stroke="#D9D9D9"/>
<path d="M45.3828 292.434C45.3828 290.832 45.6484 289.621 46.1797 288.801C46.7109 287.977 47.4805 287.564 48.4883 287.564C50.4102 287.564 51.3711 289.115 51.3711 292.217C51.3711 293.748 51.0996 294.92 50.5566 295.732C50.0176 296.541 49.2598 296.945 48.2832 296.945C47.3613 296.945 46.6465 296.561 46.1387 295.791C45.6348 295.021 45.3828 293.902 45.3828 292.434ZM46.5547 292.381C46.5547 294.791 47.166 295.996 48.3887 295.996C49.5918 295.996 50.1934 294.771 50.1934 292.322C50.1934 289.787 49.6035 288.52 48.4238 288.52C47.1777 288.52 46.5547 289.807 46.5547 292.381Z" fill="#8C8C8C"/>
<path d="M36.3066 239.068C36.3066 238.58 36.1523 238.197 35.8438 237.92C35.5352 237.639 35.1152 237.498 34.584 237.498C34.209 237.498 33.8301 237.594 33.4473 237.785C33.0645 237.977 32.707 238.25 32.375 238.605V237.492C32.6719 237.184 33.0078 236.947 33.3828 236.783C33.7617 236.619 34.2051 236.537 34.7129 236.537C35.5332 236.537 36.1934 236.758 36.6934 237.199C37.1934 237.637 37.4434 238.23 37.4434 238.98C37.4434 239.648 37.2891 240.227 36.9805 240.715C36.6758 241.203 36.1523 241.703 35.4102 242.215C34.6523 242.738 34.1445 243.113 33.8867 243.34C33.6328 243.566 33.4551 243.783 33.3535 243.99C33.252 244.197 33.2012 244.449 33.2012 244.746H37.7129V245.766H32.0059V245.314C32.0059 244.791 32.0762 244.348 32.2168 243.984C32.3613 243.617 32.5977 243.262 32.9258 242.918C33.2539 242.57 33.7656 242.154 34.4609 241.67C35.1719 241.17 35.6562 240.732 35.9141 240.357C36.1758 239.979 36.3066 239.549 36.3066 239.068ZM38.8789 241.406C38.8789 239.805 39.1445 238.594 39.6758 237.773C40.207 236.949 40.9766 236.537 41.9844 236.537C43.9062 236.537 44.8672 238.088 44.8672 241.189C44.8672 242.721 44.5957 243.893 44.0527 244.705C43.5137 245.514 42.7559 245.918 41.7793 245.918C40.8574 245.918 40.1426 245.533 39.6348 244.764C39.1309 243.994 38.8789 242.875 38.8789 241.406ZM40.0508 241.354C40.0508 243.764 40.6621 244.969 41.8848 244.969C43.0879 244.969 43.6895 243.744 43.6895 241.295C43.6895 238.76 43.0996 237.492 41.9199 237.492C40.6738 237.492 40.0508 238.779 40.0508 241.354ZM45.9219 241.406C45.9219 239.805 46.1875 238.594 46.7188 237.773C47.25 236.949 48.0195 236.537 49.0273 236.537C50.9492 236.537 51.9102 238.088 51.9102 241.189C51.9102 242.721 51.6387 243.893 51.0957 244.705C50.5566 245.514 49.7988 245.918 48.8223 245.918C47.9004 245.918 47.1855 245.533 46.6777 244.764C46.1738 243.994 45.9219 242.875 45.9219 241.406ZM47.0938 241.354C47.0938 243.764 47.7051 244.969 48.9277 244.969C50.1309 244.969 50.7324 243.744 50.7324 241.295C50.7324 238.76 50.1426 237.492 48.9629 237.492C47.7168 237.492 47.0938 238.779 47.0938 241.354Z" fill="#8C8C8C"/>
<path d="M36.7578 185.662V191.656H38.1172V192.605H36.7578V194.738H35.6445V192.605H31.4082V191.709C32.1621 190.861 32.9199 189.885 33.6816 188.779C34.4434 187.674 35.0723 186.635 35.5684 185.662H36.7578ZM32.6973 191.656H35.6445V187.332C35.2383 188.062 34.8027 188.771 34.3379 189.459C33.873 190.143 33.3262 190.875 32.6973 191.656ZM38.8789 190.379C38.8789 188.777 39.1445 187.566 39.6758 186.746C40.207 185.922 40.9766 185.51 41.9844 185.51C43.9062 185.51 44.8672 187.061 44.8672 190.162C44.8672 191.693 44.5957 192.865 44.0527 193.678C43.5137 194.486 42.7559 194.891 41.7793 194.891C40.8574 194.891 40.1426 194.506 39.6348 193.736C39.1309 192.967 38.8789 191.848 38.8789 190.379ZM40.0508 190.326C40.0508 192.736 40.6621 193.941 41.8848 193.941C43.0879 193.941 43.6895 192.717 43.6895 190.268C43.6895 187.732 43.0996 186.465 41.9199 186.465C40.6738 186.465 40.0508 187.752 40.0508 190.326ZM45.9219 190.379C45.9219 188.777 46.1875 187.566 46.7188 186.746C47.25 185.922 48.0195 185.51 49.0273 185.51C50.9492 185.51 51.9102 187.061 51.9102 190.162C51.9102 191.693 51.6387 192.865 51.0957 193.678C50.5566 194.486 49.7988 194.891 48.8223 194.891C47.9004 194.891 47.1855 194.506 46.6777 193.736C46.1738 192.967 45.9219 191.848 45.9219 190.379ZM47.0938 190.326C47.0938 192.736 47.7051 193.941 48.9277 193.941C50.1309 193.941 50.7324 192.717 50.7324 190.268C50.7324 187.732 50.1426 186.465 48.9629 186.465C47.7168 186.465 47.0938 187.752 47.0938 190.326Z" fill="#8C8C8C"/>
<path d="M37.2734 135.801C36.8008 135.559 36.3066 135.438 35.791 135.438C35.0059 135.438 34.375 135.779 33.8984 136.463C33.4219 137.146 33.1797 138.08 33.1719 139.264H33.2012C33.6309 138.432 34.3164 138.016 35.2578 138.016C36.043 138.016 36.6699 138.271 37.1387 138.783C37.6074 139.295 37.8418 139.975 37.8418 140.822C37.8418 141.709 37.5703 142.438 37.0273 143.008C36.4883 143.578 35.7988 143.863 34.959 143.863C34.0371 143.863 33.3125 143.504 32.7852 142.785C32.2617 142.062 32 141.039 32 139.715C32 138.113 32.3438 136.842 33.0312 135.9C33.7227 134.955 34.6309 134.482 35.7559 134.482C36.4004 134.482 36.9062 134.57 37.2734 134.746V135.801ZM33.2422 140.74C33.2422 141.338 33.4004 141.85 33.7168 142.275C34.0371 142.701 34.4609 142.914 34.9883 142.914C35.4883 142.914 35.8945 142.73 36.207 142.363C36.5195 141.996 36.6758 141.523 36.6758 140.945C36.6758 140.32 36.5273 139.834 36.2305 139.486C35.9375 139.139 35.5195 138.965 34.9766 138.965C34.4609 138.965 34.043 139.141 33.7227 139.492C33.4023 139.844 33.2422 140.26 33.2422 140.74ZM38.8789 139.352C38.8789 137.75 39.1445 136.539 39.6758 135.719C40.207 134.895 40.9766 134.482 41.9844 134.482C43.9062 134.482 44.8672 136.033 44.8672 139.135C44.8672 140.666 44.5957 141.838 44.0527 142.65C43.5137 143.459 42.7559 143.863 41.7793 143.863C40.8574 143.863 40.1426 143.479 39.6348 142.709C39.1309 141.939 38.8789 140.82 38.8789 139.352ZM40.0508 139.299C40.0508 141.709 40.6621 142.914 41.8848 142.914C43.0879 142.914 43.6895 141.689 43.6895 139.24C43.6895 136.705 43.0996 135.438 41.9199 135.438C40.6738 135.438 40.0508 136.725 40.0508 139.299ZM45.9219 139.352C45.9219 137.75 46.1875 136.539 46.7188 135.719C47.25 134.895 48.0195 134.482 49.0273 134.482C50.9492 134.482 51.9102 136.033 51.9102 139.135C51.9102 140.666 51.6387 141.838 51.0957 142.65C50.5566 143.459 49.7988 143.863 48.8223 143.863C47.9004 143.863 47.1855 143.479 46.6777 142.709C46.1738 141.939 45.9219 140.82 45.9219 139.352ZM47.0938 139.299C47.0938 141.709 47.7051 142.914 48.9277 142.914C50.1309 142.914 50.7324 141.689 50.7324 139.24C50.7324 136.705 50.1426 135.438 48.9629 135.438C47.7168 135.438 47.0938 136.725 47.0938 139.299Z" fill="#8C8C8C"/>
<path d="M31.8828 90.1523C31.8828 89.6289 32.0391 89.1465 32.3516 88.7051C32.6641 88.2637 33.0664 87.9492 33.5586 87.7617C33.1641 87.5391 32.8516 87.2539 32.6211 86.9062C32.3906 86.5586 32.2754 86.1816 32.2754 85.7754C32.2754 85.3457 32.3848 84.9531 32.6035 84.5977C32.8262 84.2422 33.1328 83.9629 33.5234 83.7598C33.918 83.5566 34.3516 83.4551 34.8242 83.4551C35.3008 83.4551 35.7363 83.5566 36.1309 83.7598C36.5254 83.959 36.832 84.2363 37.0508 84.5918C37.2695 84.9473 37.3789 85.3418 37.3789 85.7754C37.3789 86.1738 37.2656 86.5488 37.0391 86.9004C36.8164 87.248 36.5059 87.5352 36.1074 87.7617C36.5996 87.9531 37 88.2695 37.3086 88.7109C37.6172 89.1523 37.7715 89.6328 37.7715 90.1523C37.7715 90.668 37.6484 91.1309 37.4023 91.541C37.1562 91.9473 36.8066 92.2637 36.3535 92.4902C35.9004 92.7168 35.3906 92.8301 34.8242 92.8301C34.2617 92.8301 33.7559 92.7168 33.3066 92.4902C32.8574 92.2637 32.5078 91.9453 32.2578 91.5352C32.0078 91.125 31.8828 90.6641 31.8828 90.1523ZM33.0078 90.0996C33.0078 90.6387 33.1738 91.0703 33.5059 91.3945C33.8379 91.7188 34.2793 91.8809 34.8301 91.8809C35.3691 91.8809 35.8086 91.7168 36.1484 91.3887C36.4922 91.0566 36.6641 90.627 36.6641 90.0996C36.6641 89.5996 36.4902 89.1797 36.1426 88.8398C35.7988 88.4961 35.3613 88.3242 34.8301 88.3242C34.3027 88.3242 33.8672 88.4922 33.5234 88.8281C33.1797 89.1602 33.0078 89.584 33.0078 90.0996ZM33.3359 85.8691C33.3359 86.2754 33.4805 86.625 33.7695 86.918C34.0586 87.207 34.4121 87.3516 34.8301 87.3516C35.2402 87.3516 35.5938 87.2051 35.8906 86.9121C36.1914 86.6191 36.3418 86.2715 36.3418 85.8691C36.3418 85.459 36.1973 85.1113 35.9082 84.8262C35.623 84.541 35.2637 84.3984 34.8301 84.3984C34.4004 84.3984 34.043 84.5391 33.7578 84.8203C33.4766 85.0977 33.3359 85.4473 33.3359 85.8691ZM38.8789 88.3242C38.8789 86.7227 39.1445 85.5117 39.6758 84.6914C40.207 83.8672 40.9766 83.4551 41.9844 83.4551C43.9062 83.4551 44.8672 85.0059 44.8672 88.1074C44.8672 89.6387 44.5957 90.8105 44.0527 91.623C43.5137 92.4316 42.7559 92.8359 41.7793 92.8359C40.8574 92.8359 40.1426 92.4512 39.6348 91.6816C39.1309 90.9121 38.8789 89.793 38.8789 88.3242ZM40.0508 88.2715C40.0508 90.6816 40.6621 91.8867 41.8848 91.8867C43.0879 91.8867 43.6895 90.6621 43.6895 88.2129C43.6895 85.6777 43.0996 84.4102 41.9199 84.4102C40.6738 84.4102 40.0508 85.6973 40.0508 88.2715ZM45.9219 88.3242C45.9219 86.7227 46.1875 85.5117 46.7188 84.6914C47.25 83.8672 48.0195 83.4551 49.0273 83.4551C50.9492 83.4551 51.9102 85.0059 51.9102 88.1074C51.9102 89.6387 51.6387 90.8105 51.0957 91.623C50.5566 92.4316 49.7988 92.8359 48.8223 92.8359C47.9004 92.8359 47.1855 92.4512 46.6777 91.6816C46.1738 90.9121 45.9219 89.793 45.9219 88.3242ZM47.0938 88.2715C47.0938 90.6816 47.7051 91.8867 48.9277 91.8867C50.1309 91.8867 50.7324 90.6621 50.7324 88.2129C50.7324 85.6777 50.1426 84.4102 48.9629 84.4102C47.7168 84.4102 47.0938 85.6973 47.0938 88.2715Z" fill="#8C8C8C"/>
<path d="M26.875 41.6602V33.8965C26.6953 34.0762 26.3906 34.2773 25.9609 34.5C25.5352 34.7227 25.1406 34.8789 24.7773 34.9688V33.8438C25.2578 33.7109 25.7715 33.5 26.3184 33.2109C26.8652 32.918 27.2852 32.6426 27.5781 32.3848H28.0117V41.6602H26.875ZM31.1055 37.3008C31.1055 35.6992 31.3711 34.4883 31.9023 33.668C32.4336 32.8438 33.2031 32.4316 34.2109 32.4316C36.1328 32.4316 37.0938 33.9824 37.0938 37.084C37.0938 38.6152 36.8223 39.7871 36.2793 40.5996C35.7402 41.4082 34.9824 41.8125 34.0059 41.8125C33.084 41.8125 32.3691 41.4277 31.8613 40.6582C31.3574 39.8887 31.1055 38.7695 31.1055 37.3008ZM32.2773 37.248C32.2773 39.6582 32.8887 40.8633 34.1113 40.8633C35.3145 40.8633 35.916 39.6387 35.916 37.1895C35.916 34.6543 35.3262 33.3867 34.1465 33.3867C32.9004 33.3867 32.2773 34.6738 32.2773 37.248ZM38.1484 37.3008C38.1484 35.6992 38.4141 34.4883 38.9453 33.668C39.4766 32.8438 40.2461 32.4316 41.2539 32.4316C43.1758 32.4316 44.1367 33.9824 44.1367 37.084C44.1367 38.6152 43.8652 39.7871 43.3223 40.5996C42.7832 41.4082 42.0254 41.8125 41.0488 41.8125C40.127 41.8125 39.4121 41.4277 38.9043 40.6582C38.4004 39.8887 38.1484 38.7695 38.1484 37.3008ZM39.3203 37.248C39.3203 39.6582 39.9316 40.8633 41.1543 40.8633C42.3574 40.8633 42.959 39.6387 42.959 37.1895C42.959 34.6543 42.3691 33.3867 41.1895 33.3867C39.9434 33.3867 39.3203 34.6738 39.3203 37.248ZM45.1914 37.3008C45.1914 35.6992 45.457 34.4883 45.9883 33.668C46.5195 32.8438 47.2891 32.4316 48.2969 32.4316C50.2188 32.4316 51.1797 33.9824 51.1797 37.084C51.1797 38.6152 50.9082 39.7871 50.3652 40.5996C49.8262 41.4082 49.0684 41.8125 48.0918 41.8125C47.1699 41.8125 46.4551 41.4277 45.9473 40.6582C45.4434 39.8887 45.1914 38.7695 45.1914 37.3008ZM46.3633 37.248C46.3633 39.6582 46.9746 40.8633 48.1973 40.8633C49.4004 40.8633 50.002 39.6387 50.002 37.1895C50.002 34.6543 49.4121 33.3867 48.2324 33.3867C46.9863 33.3867 46.3633 34.6738 46.3633 37.248Z" fill="#8C8C8C"/>
<path d="M83.9023 309.734V303.723C83.9023 303.227 83.9316 302.631 83.9902 301.936H83.9609C83.8594 302.373 83.7695 302.678 83.6914 302.85L80.6973 309.734H80.0469L77.0586 302.902C76.9883 302.746 76.8984 302.424 76.7891 301.936H76.7539C76.793 302.357 76.8125 302.971 76.8125 303.775V309.734H75.6934V300.658H77.2812L79.959 306.881C80.1621 307.357 80.2969 307.729 80.3633 307.994H80.4043C80.6074 307.436 80.75 307.057 80.832 306.857L83.5566 300.658H85.0684V309.734H83.9023ZM86.8438 306.564C86.8438 305.494 87.1426 304.65 87.7402 304.033C88.3379 303.412 89.1484 303.102 90.1719 303.102C91.1445 303.102 91.9062 303.4 92.457 303.998C93.0117 304.592 93.2891 305.414 93.2891 306.465C93.2891 307.488 92.9941 308.314 92.4043 308.943C91.8145 309.572 91.0234 309.887 90.0312 309.887C89.0625 309.887 88.2891 309.582 87.7109 308.973C87.1328 308.363 86.8438 307.561 86.8438 306.564ZM88.0156 306.529C88.0156 307.275 88.2031 307.863 88.5781 308.293C88.957 308.723 89.4648 308.938 90.1016 308.938C90.7578 308.938 91.2578 308.729 91.6016 308.311C91.9453 307.889 92.1172 307.285 92.1172 306.5C92.1172 305.711 91.9453 305.105 91.6016 304.684C91.2578 304.262 90.7578 304.051 90.1016 304.051C89.457 304.051 88.9473 304.271 88.5723 304.713C88.2012 305.154 88.0156 305.76 88.0156 306.529ZM100.385 309.734H99.2422V306.049C99.2422 304.717 98.7559 304.051 97.7832 304.051C97.2793 304.051 96.8652 304.238 96.541 304.613C96.2168 304.988 96.0547 305.463 96.0547 306.037V309.734H94.9062V303.254H96.0547V304.326H96.0781C96.5664 303.51 97.2754 303.102 98.2051 303.102C98.916 303.102 99.457 303.33 99.8281 303.787C100.199 304.24 100.385 304.902 100.385 305.773V309.734ZM101.973 309.131C101.973 308.92 102.045 308.742 102.189 308.598C102.334 308.453 102.514 308.381 102.729 308.381C102.947 308.381 103.129 308.455 103.273 308.604C103.418 308.748 103.49 308.924 103.49 309.131C103.49 309.334 103.418 309.51 103.273 309.658C103.129 309.803 102.945 309.875 102.723 309.875C102.508 309.875 102.328 309.803 102.184 309.658C102.043 309.51 101.973 309.334 101.973 309.131Z" fill="#8C8C8C"/>
<path d="M140.207 301.701H137.588V309.734H136.41V301.701H133.803V300.658H140.207V301.701ZM146.805 309.734H145.65V308.715H145.627C145.193 309.496 144.527 309.887 143.629 309.887C142.094 309.887 141.326 308.969 141.326 307.133V303.254H142.463V306.963C142.463 308.279 142.967 308.938 143.975 308.938C144.475 308.938 144.879 308.754 145.188 308.387C145.496 308.016 145.65 307.549 145.65 306.986V303.254H146.805V309.734ZM154.129 306.787H149.594C149.613 307.479 149.803 308.014 150.162 308.393C150.521 308.768 151.023 308.955 151.668 308.955C152.395 308.955 153.061 308.723 153.666 308.258V309.283C153.096 309.686 152.34 309.887 151.398 309.887C150.461 309.887 149.729 309.59 149.201 308.996C148.678 308.402 148.416 307.578 148.416 306.523C148.416 305.531 148.703 304.713 149.277 304.068C149.855 303.424 150.572 303.102 151.428 303.102C152.275 303.102 152.938 303.375 153.414 303.922C153.891 304.465 154.129 305.227 154.129 306.207V306.787ZM152.98 305.867C152.977 305.281 152.838 304.828 152.564 304.508C152.291 304.188 151.906 304.027 151.41 304.027C150.953 304.027 150.557 304.197 150.221 304.537C149.889 304.877 149.68 305.32 149.594 305.867H152.98ZM155.295 308.334C155.873 308.752 156.496 308.961 157.164 308.961C158.059 308.961 158.506 308.668 158.506 308.082C158.506 307.832 158.408 307.627 158.213 307.467C158.018 307.303 157.621 307.109 157.023 306.887C156.305 306.598 155.838 306.312 155.623 306.031C155.408 305.746 155.301 305.402 155.301 305C155.301 304.426 155.543 303.967 156.027 303.623C156.516 303.275 157.115 303.102 157.826 303.102C158.377 303.102 158.889 303.197 159.361 303.389V304.496C158.877 304.184 158.328 304.027 157.715 304.027C157.348 304.027 157.049 304.107 156.818 304.268C156.588 304.428 156.473 304.639 156.473 304.9C156.473 305.158 156.555 305.359 156.719 305.504C156.887 305.648 157.256 305.834 157.826 306.061C158.549 306.33 159.037 306.609 159.291 306.898C159.545 307.188 159.672 307.545 159.672 307.971C159.672 308.564 159.428 309.033 158.939 309.377C158.455 309.717 157.826 309.887 157.053 309.887C156.381 309.887 155.795 309.76 155.295 309.506V308.334ZM160.885 309.131C160.885 308.92 160.957 308.742 161.102 308.598C161.246 308.453 161.426 308.381 161.641 308.381C161.859 308.381 162.041 308.455 162.186 308.604C162.33 308.748 162.402 308.924 162.402 309.131C162.402 309.334 162.33 309.51 162.186 309.658C162.041 309.803 161.857 309.875 161.635 309.875C161.42 309.875 161.24 309.803 161.096 309.658C160.955 309.51 160.885 309.334 160.885 309.131Z" fill="#8C8C8C"/>
<path d="M204.551 300.658L202.008 309.734H200.643L198.814 303.195C198.732 302.898 198.684 302.586 198.668 302.258H198.645C198.621 302.582 198.566 302.891 198.48 303.184L196.635 309.734H195.281L192.65 300.658H193.945L195.797 307.514C195.879 307.822 195.928 308.133 195.943 308.445H195.979C195.998 308.211 196.062 307.9 196.172 307.514L198.135 300.658H199.289L201.164 307.566C201.227 307.793 201.277 308.082 201.316 308.434H201.34C201.359 308.18 201.416 307.883 201.51 307.543L203.291 300.658H204.551ZM211.008 306.787H206.473C206.492 307.479 206.682 308.014 207.041 308.393C207.4 308.768 207.902 308.955 208.547 308.955C209.273 308.955 209.939 308.723 210.545 308.258V309.283C209.975 309.686 209.219 309.887 208.277 309.887C207.34 309.887 206.607 309.59 206.08 308.996C205.557 308.402 205.295 307.578 205.295 306.523C205.295 305.531 205.582 304.713 206.156 304.068C206.734 303.424 207.451 303.102 208.307 303.102C209.154 303.102 209.816 303.375 210.293 303.922C210.77 304.465 211.008 305.227 211.008 306.207V306.787ZM209.859 305.867C209.855 305.281 209.717 304.828 209.443 304.508C209.17 304.188 208.785 304.027 208.289 304.027C207.832 304.027 207.436 304.197 207.1 304.537C206.768 304.877 206.559 305.32 206.473 305.867H209.859ZM218.162 309.734H217.014V308.656H216.99C216.518 309.477 215.783 309.887 214.787 309.887C213.967 309.887 213.314 309.596 212.83 309.014C212.346 308.428 212.104 307.639 212.104 306.646C212.104 305.576 212.377 304.719 212.924 304.074C213.471 303.426 214.186 303.102 215.068 303.102C215.951 303.102 216.592 303.445 216.99 304.133H217.014V300.143H218.162V309.734ZM217.02 305.879C217.02 305.359 216.848 304.926 216.504 304.578C216.164 304.227 215.744 304.051 215.244 304.051C214.635 304.051 214.154 304.279 213.803 304.736C213.451 305.189 213.275 305.809 213.275 306.594C213.275 307.316 213.443 307.889 213.779 308.311C214.119 308.729 214.57 308.938 215.133 308.938C215.688 308.938 216.141 308.732 216.492 308.322C216.844 307.908 217.02 307.395 217.02 306.781V305.879ZM219.885 309.131C219.885 308.92 219.957 308.742 220.102 308.598C220.246 308.453 220.426 308.381 220.641 308.381C220.859 308.381 221.041 308.455 221.186 308.604C221.33 308.748 221.402 308.924 221.402 309.131C221.402 309.334 221.33 309.51 221.186 309.658C221.041 309.803 220.857 309.875 220.635 309.875C220.42 309.875 220.24 309.803 220.096 309.658C219.955 309.51 219.885 309.334 219.885 309.131Z" fill="#8C8C8C"/>
<path d="M258.342 301.701H255.723V309.734H254.545V301.701H251.938V300.658H258.342V301.701ZM265.062 309.734H263.92V306.008C263.92 304.703 263.436 304.051 262.467 304.051C261.971 304.051 261.559 304.242 261.23 304.625C260.902 305.004 260.738 305.482 260.738 306.061V309.734H259.59V300.143H260.738V304.32H260.762C261.258 303.508 261.963 303.102 262.877 303.102C264.334 303.102 265.062 303.982 265.062 305.744V309.734ZM272.334 309.734H271.18V308.715H271.156C270.723 309.496 270.057 309.887 269.158 309.887C267.623 309.887 266.855 308.969 266.855 307.133V303.254H267.992V306.963C267.992 308.279 268.496 308.938 269.504 308.938C270.004 308.938 270.408 308.754 270.717 308.387C271.025 308.016 271.18 307.549 271.18 306.986V303.254H272.334V309.734ZM277.854 304.391C277.662 304.254 277.398 304.186 277.062 304.186C276.617 304.186 276.25 304.395 275.961 304.812C275.672 305.227 275.527 305.773 275.527 306.453V309.734H274.379V303.254H275.527V304.572H275.551C275.879 303.619 276.445 303.143 277.25 303.143C277.512 303.143 277.713 303.172 277.854 303.23V304.391ZM278.633 309.131C278.633 308.92 278.705 308.742 278.85 308.598C278.994 308.453 279.174 308.381 279.389 308.381C279.607 308.381 279.789 308.455 279.934 308.604C280.078 308.748 280.15 308.924 280.15 309.131C280.15 309.334 280.078 309.51 279.934 309.658C279.789 309.803 279.605 309.875 279.383 309.875C279.168 309.875 278.988 309.803 278.844 309.658C278.703 309.51 278.633 309.334 278.633 309.131Z" fill="#8C8C8C"/>
<path d="M322.318 301.701H318.814V304.736H322.061V305.768H318.814V309.734H317.643V300.658H322.318V301.701ZM327.346 304.391C327.154 304.254 326.891 304.186 326.555 304.186C326.109 304.186 325.742 304.395 325.453 304.812C325.164 305.227 325.02 305.773 325.02 306.453V309.734H323.871V303.254H325.02V304.572H325.043C325.371 303.619 325.938 303.143 326.742 303.143C327.004 303.143 327.205 303.172 327.346 303.23V304.391ZM328.312 300.969C328.312 300.766 328.381 300.596 328.518 300.459C328.658 300.318 328.83 300.248 329.033 300.248C329.24 300.248 329.414 300.316 329.555 300.453C329.699 300.59 329.771 300.762 329.771 300.969C329.771 301.172 329.699 301.342 329.555 301.479C329.414 301.611 329.24 301.678 329.033 301.678C328.826 301.678 328.654 301.611 328.518 301.479C328.381 301.342 328.312 301.172 328.312 300.969ZM328.447 309.734V303.254H329.596V309.734H328.447ZM331.324 309.131C331.324 308.92 331.396 308.742 331.541 308.598C331.686 308.453 331.865 308.381 332.08 308.381C332.299 308.381 332.48 308.455 332.625 308.604C332.77 308.748 332.842 308.924 332.842 309.131C332.842 309.334 332.77 309.51 332.625 309.658C332.48 309.803 332.297 309.875 332.074 309.875C331.859 309.875 331.68 309.803 331.535 309.658C331.395 309.51 331.324 309.334 331.324 309.131Z" fill="#8C8C8C"/>
<path d="M375.791 308.029C376.068 308.271 376.439 308.471 376.904 308.627C377.369 308.783 377.811 308.861 378.229 308.861C379.502 308.861 380.139 308.408 380.139 307.502C380.139 307.248 380.07 307.02 379.934 306.816C379.797 306.613 379.609 306.434 379.371 306.277C379.133 306.121 378.686 305.881 378.029 305.557C377.119 305.104 376.52 304.684 376.23 304.297C375.941 303.906 375.797 303.461 375.797 302.961C375.797 302.207 376.1 301.609 376.705 301.168C377.311 300.727 378.074 300.506 378.996 300.506C379.898 300.506 380.561 300.615 380.982 300.834V302.111C380.436 301.732 379.744 301.543 378.908 301.543C378.354 301.543 377.9 301.66 377.549 301.895C377.201 302.125 377.027 302.447 377.027 302.861C377.027 303.229 377.148 303.527 377.391 303.758C377.633 303.988 378.158 304.303 378.967 304.701C379.857 305.127 380.48 305.553 380.836 305.979C381.191 306.404 381.369 306.883 381.369 307.414C381.369 308.211 381.08 308.822 380.502 309.248C379.924 309.674 379.121 309.887 378.094 309.887C377.734 309.887 377.314 309.836 376.834 309.734C376.357 309.637 376.01 309.514 375.791 309.365V308.029ZM383.145 303.705C383.789 303.303 384.533 303.102 385.377 303.102C386.939 303.102 387.721 303.922 387.721 305.562V309.734H386.584V308.732H386.555C386.105 309.502 385.443 309.887 384.568 309.887C383.939 309.887 383.439 309.717 383.068 309.377C382.697 309.037 382.512 308.578 382.512 308C382.512 306.789 383.229 306.084 384.662 305.885L386.584 305.615C386.584 304.557 386.146 304.027 385.271 304.027C384.494 304.027 383.785 304.289 383.145 304.812V303.705ZM385.066 306.688C384.535 306.758 384.168 306.891 383.965 307.086C383.766 307.281 383.666 307.555 383.666 307.906C383.666 308.215 383.775 308.467 383.994 308.662C384.213 308.857 384.502 308.955 384.861 308.955C385.361 308.955 385.773 308.779 386.098 308.428C386.422 308.076 386.584 307.635 386.584 307.104V306.482L385.066 306.688ZM392.736 309.67C392.486 309.807 392.148 309.875 391.723 309.875C390.562 309.875 389.982 309.232 389.982 307.947V304.203H388.869V303.254H389.982V301.695L391.125 301.332V303.254H392.736V304.203H391.125V307.742C391.125 308.168 391.197 308.473 391.342 308.656C391.486 308.84 391.727 308.932 392.062 308.932C392.32 308.932 392.545 308.859 392.736 308.715V309.67ZM393.773 309.131C393.773 308.92 393.846 308.742 393.99 308.598C394.135 308.453 394.314 308.381 394.529 308.381C394.748 308.381 394.93 308.455 395.074 308.604C395.219 308.748 395.291 308.924 395.291 309.131C395.291 309.334 395.219 309.51 395.074 309.658C394.93 309.803 394.746 309.875 394.523 309.875C394.309 309.875 394.129 309.803 393.984 309.658C393.844 309.51 393.773 309.334 393.773 309.131Z" fill="#8C8C8C"/>
<path d="M432.998 308.029C433.275 308.271 433.646 308.471 434.111 308.627C434.576 308.783 435.018 308.861 435.436 308.861C436.709 308.861 437.346 308.408 437.346 307.502C437.346 307.248 437.277 307.02 437.141 306.816C437.004 306.613 436.816 306.434 436.578 306.277C436.34 306.121 435.893 305.881 435.236 305.557C434.326 305.104 433.727 304.684 433.438 304.297C433.148 303.906 433.004 303.461 433.004 302.961C433.004 302.207 433.307 301.609 433.912 301.168C434.518 300.727 435.281 300.506 436.203 300.506C437.105 300.506 437.768 300.615 438.189 300.834V302.111C437.643 301.732 436.951 301.543 436.115 301.543C435.561 301.543 435.107 301.66 434.756 301.895C434.408 302.125 434.234 302.447 434.234 302.861C434.234 303.229 434.355 303.527 434.598 303.758C434.84 303.988 435.365 304.303 436.174 304.701C437.064 305.127 437.688 305.553 438.043 305.979C438.398 306.404 438.576 306.883 438.576 307.414C438.576 308.211 438.287 308.822 437.709 309.248C437.131 309.674 436.328 309.887 435.301 309.887C434.941 309.887 434.521 309.836 434.041 309.734C433.564 309.637 433.217 309.514 432.998 309.365V308.029ZM445.549 309.734H444.395V308.715H444.371C443.938 309.496 443.271 309.887 442.373 309.887C440.838 309.887 440.07 308.969 440.07 307.133V303.254H441.207V306.963C441.207 308.279 441.711 308.938 442.719 308.938C443.219 308.938 443.623 308.754 443.932 308.387C444.24 308.016 444.395 307.549 444.395 306.986V303.254H445.549V309.734ZM453.072 309.734H451.93V306.049C451.93 304.717 451.443 304.051 450.471 304.051C449.967 304.051 449.553 304.238 449.229 304.613C448.904 304.988 448.742 305.463 448.742 306.037V309.734H447.594V303.254H448.742V304.326H448.766C449.254 303.51 449.963 303.102 450.893 303.102C451.604 303.102 452.145 303.33 452.516 303.787C452.887 304.24 453.072 304.902 453.072 305.773V309.734ZM454.66 309.131C454.66 308.92 454.732 308.742 454.877 308.598C455.021 308.453 455.201 308.381 455.416 308.381C455.635 308.381 455.816 308.455 455.961 308.604C456.105 308.748 456.178 308.924 456.178 309.131C456.178 309.334 456.105 309.51 455.961 309.658C455.816 309.803 455.633 309.875 455.41 309.875C455.195 309.875 455.016 309.803 454.871 309.658C454.73 309.51 454.66 309.334 454.66 309.131Z" fill="#8C8C8C"/>
<mask id="mask0_833_3318" style="mask-type:luminance" maskUnits="userSpaceOnUse" x="58" y="36" width="416" height="258">
<path d="M58.6543 36.1289H473.077V293.111H58.6543V36.1289Z" fill="white"/>
</mask>
<g mask="url(#mask0_833_3318)">
<path d="M89.7695 156.966L148.74 273.307L207.71 199.063L266.681 63.332L325.651 128.646L384.622 222.79L443.592 152.118V292.187H384.622H325.651H266.681H207.71H148.74H89.7695V156.966Z" fill="#55B1A5" fill-opacity="0.2"/>
<path d="M89.7695 156.966L148.74 273.307L207.71 199.063L266.681 63.332L325.651 128.646L384.622 222.79L443.592 152.118" stroke="#55B1A5" stroke-width="2" stroke-linejoin="bevel"/>
</g>
</g>
<defs>
<clipPath id="clip0_833_3318">
<rect width="500" height="347.573" fill="white" transform="translate(0 0.078125)"/>
</clipPath>
</defs>
</svg>
