<svg width="500" height="348" viewBox="0 0 500 348" fill="none" xmlns="http://www.w3.org/2000/svg">
<g clip-path="url(#clip0_833_3600)">
<rect width="500" height="347.573" transform="translate(0 0.078125)" fill="white"/>
<path d="M53.8672 292.648H473.077" stroke="#F0F0F0" stroke-dasharray="4 2"/>
<path d="M53.8672 241.809H473.077" stroke="#F0F0F0" stroke-dasharray="4 2"/>
<path d="M53.8672 190.043H473.077" stroke="#F0F0F0" stroke-dasharray="4 2"/>
<path d="M53.8672 139.199H473.077" stroke="#F0F0F0" stroke-dasharray="4 2"/>
<path d="M53.8672 88.3594H473.077" stroke="#F0F0F0" stroke-dasharray="4 2"/>
<path d="M53.8672 37.5156H473.077" stroke="#F0F0F0" stroke-dasharray="4 2"/>
<path d="M53.8672 292.648H473.077" stroke="#F0F0F0" stroke-linecap="round"/>
<path d="M84.1348 292.188V296.809" stroke="#D9D9D9"/>
<path d="M203.365 292.188V296.809" stroke="#D9D9D9"/>
<path d="M323.559 292.188V296.809" stroke="#D9D9D9"/>
<path d="M443.75 292.188V296.809" stroke="#D9D9D9"/>
<path d="M38.9668 292.434C38.9668 290.832 39.2324 289.621 39.7637 288.801C40.2949 287.977 41.0645 287.564 42.0723 287.564C43.9941 287.564 44.9551 289.115 44.9551 292.217C44.9551 293.748 44.6836 294.92 44.1406 295.732C43.6016 296.541 42.8438 296.945 41.8672 296.945C40.9453 296.945 40.2305 296.561 39.7227 295.791C39.2188 295.021 38.9668 293.902 38.9668 292.434ZM40.1387 292.381C40.1387 294.791 40.75 295.996 41.9727 295.996C43.1758 295.996 43.7773 294.771 43.7773 292.322C43.7773 289.787 43.1875 288.52 42.0078 288.52C40.7617 288.52 40.1387 289.807 40.1387 292.381Z" fill="#8C8C8C"/>
<path d="M28.2324 245.766V238.002C28.0527 238.182 27.748 238.383 27.3184 238.605C26.8926 238.828 26.498 238.984 26.1348 239.074V237.949C26.6152 237.816 27.1289 237.605 27.6758 237.316C28.2227 237.023 28.6426 236.748 28.9355 236.49H29.3691V245.766H28.2324ZM32.4629 241.406C32.4629 239.805 32.7285 238.594 33.2598 237.773C33.791 236.949 34.5605 236.537 35.5684 236.537C37.4902 236.537 38.4512 238.088 38.4512 241.189C38.4512 242.721 38.1797 243.893 37.6367 244.705C37.0977 245.514 36.3398 245.918 35.3633 245.918C34.4414 245.918 33.7266 245.533 33.2188 244.764C32.7148 243.994 32.4629 242.875 32.4629 241.406ZM33.6348 241.354C33.6348 243.764 34.2461 244.969 35.4688 244.969C36.6719 244.969 37.2734 243.744 37.2734 241.295C37.2734 238.76 36.6836 237.492 35.5039 237.492C34.2578 237.492 33.6348 238.779 33.6348 241.354ZM39.5059 241.406C39.5059 239.805 39.7715 238.594 40.3027 237.773C40.834 236.949 41.6035 236.537 42.6113 236.537C44.5332 236.537 45.4941 238.088 45.4941 241.189C45.4941 242.721 45.2227 243.893 44.6797 244.705C44.1406 245.514 43.3828 245.918 42.4062 245.918C41.4844 245.918 40.7695 245.533 40.2617 244.764C39.7578 243.994 39.5059 242.875 39.5059 241.406ZM40.6777 241.354C40.6777 243.764 41.2891 244.969 42.5117 244.969C43.7148 244.969 44.3164 243.744 44.3164 241.295C44.3164 238.76 43.7266 237.492 42.5469 237.492C41.3008 237.492 40.6777 238.779 40.6777 241.354Z" fill="#8C8C8C"/>
<path d="M29.8906 188.041C29.8906 187.553 29.7363 187.17 29.4277 186.893C29.1191 186.611 28.6992 186.471 28.168 186.471C27.793 186.471 27.4141 186.566 27.0312 186.758C26.6484 186.949 26.291 187.223 25.959 187.578V186.465C26.2559 186.156 26.5918 185.92 26.9668 185.756C27.3457 185.592 27.7891 185.51 28.2969 185.51C29.1172 185.51 29.7773 185.73 30.2773 186.172C30.7773 186.609 31.0273 187.203 31.0273 187.953C31.0273 188.621 30.873 189.199 30.5645 189.688C30.2598 190.176 29.7363 190.676 28.9941 191.188C28.2363 191.711 27.7285 192.086 27.4707 192.312C27.2168 192.539 27.0391 192.756 26.9375 192.963C26.8359 193.17 26.7852 193.422 26.7852 193.719H31.2969V194.738H25.5898V194.287C25.5898 193.764 25.6602 193.32 25.8008 192.957C25.9453 192.59 26.1816 192.234 26.5098 191.891C26.8379 191.543 27.3496 191.127 28.0449 190.643C28.7559 190.143 29.2402 189.705 29.498 189.33C29.7598 188.951 29.8906 188.521 29.8906 188.041ZM32.4629 190.379C32.4629 188.777 32.7285 187.566 33.2598 186.746C33.791 185.922 34.5605 185.51 35.5684 185.51C37.4902 185.51 38.4512 187.061 38.4512 190.162C38.4512 191.693 38.1797 192.865 37.6367 193.678C37.0977 194.486 36.3398 194.891 35.3633 194.891C34.4414 194.891 33.7266 194.506 33.2188 193.736C32.7148 192.967 32.4629 191.848 32.4629 190.379ZM33.6348 190.326C33.6348 192.736 34.2461 193.941 35.4688 193.941C36.6719 193.941 37.2734 192.717 37.2734 190.268C37.2734 187.732 36.6836 186.465 35.5039 186.465C34.2578 186.465 33.6348 187.752 33.6348 190.326ZM39.5059 190.379C39.5059 188.777 39.7715 187.566 40.3027 186.746C40.834 185.922 41.6035 185.51 42.6113 185.51C44.5332 185.51 45.4941 187.061 45.4941 190.162C45.4941 191.693 45.2227 192.865 44.6797 193.678C44.1406 194.486 43.3828 194.891 42.4062 194.891C41.4844 194.891 40.7695 194.506 40.2617 193.736C39.7578 192.967 39.5059 191.848 39.5059 190.379ZM40.6777 190.326C40.6777 192.736 41.2891 193.941 42.5117 193.941C43.7148 193.941 44.3164 192.717 44.3164 190.268C44.3164 187.732 43.7266 186.465 42.5469 186.465C41.3008 186.465 40.6777 187.752 40.6777 190.326Z" fill="#8C8C8C"/>
<path d="M25.7305 142.193C26.3516 142.674 27.0527 142.914 27.834 142.914C28.459 142.914 28.9531 142.762 29.3164 142.457C29.6836 142.148 29.8672 141.736 29.8672 141.221C29.8672 140.072 29.0449 139.498 27.4004 139.498H26.6445V138.549H27.3652C28.8223 138.549 29.5508 138.01 29.5508 136.932C29.5508 135.936 28.9941 135.438 27.8809 135.438C27.2441 135.438 26.6445 135.652 26.082 136.082V134.998C26.6758 134.654 27.3691 134.482 28.1621 134.482C28.9355 134.482 29.5566 134.686 30.0254 135.092C30.4941 135.494 30.7285 136.018 30.7285 136.662C30.7285 137.85 30.123 138.613 28.9121 138.953V138.977C29.5684 139.047 30.0859 139.279 30.4648 139.674C30.8477 140.064 31.0391 140.553 31.0391 141.139C31.0391 141.955 30.7441 142.613 30.1543 143.113C29.5684 143.613 28.7871 143.863 27.8105 143.863C26.9512 143.863 26.2578 143.703 25.7305 143.383V142.193ZM32.4629 139.352C32.4629 137.75 32.7285 136.539 33.2598 135.719C33.791 134.895 34.5605 134.482 35.5684 134.482C37.4902 134.482 38.4512 136.033 38.4512 139.135C38.4512 140.666 38.1797 141.838 37.6367 142.65C37.0977 143.459 36.3398 143.863 35.3633 143.863C34.4414 143.863 33.7266 143.479 33.2188 142.709C32.7148 141.939 32.4629 140.82 32.4629 139.352ZM33.6348 139.299C33.6348 141.709 34.2461 142.914 35.4688 142.914C36.6719 142.914 37.2734 141.689 37.2734 139.24C37.2734 136.705 36.6836 135.438 35.5039 135.438C34.2578 135.438 33.6348 136.725 33.6348 139.299ZM39.5059 139.352C39.5059 137.75 39.7715 136.539 40.3027 135.719C40.834 134.895 41.6035 134.482 42.6113 134.482C44.5332 134.482 45.4941 136.033 45.4941 139.135C45.4941 140.666 45.2227 141.838 44.6797 142.65C44.1406 143.459 43.3828 143.863 42.4062 143.863C41.4844 143.863 40.7695 143.479 40.2617 142.709C39.7578 141.939 39.5059 140.82 39.5059 139.352ZM40.6777 139.299C40.6777 141.709 41.2891 142.914 42.5117 142.914C43.7148 142.914 44.3164 141.689 44.3164 139.24C44.3164 136.705 43.7266 135.438 42.5469 135.438C41.3008 135.438 40.6777 136.725 40.6777 139.299Z" fill="#8C8C8C"/>
<path d="M30.3418 83.6074V89.6016H31.7012V90.5508H30.3418V92.6836H29.2285V90.5508H24.9922V89.6543C25.7461 88.8066 26.5039 87.8301 27.2656 86.7246C28.0273 85.6191 28.6562 84.5801 29.1523 83.6074H30.3418ZM26.2812 89.6016H29.2285V85.2773C28.8223 86.0078 28.3867 86.7168 27.9219 87.4043C27.457 88.0879 26.9102 88.8203 26.2812 89.6016ZM32.4629 88.3242C32.4629 86.7227 32.7285 85.5117 33.2598 84.6914C33.791 83.8672 34.5605 83.4551 35.5684 83.4551C37.4902 83.4551 38.4512 85.0059 38.4512 88.1074C38.4512 89.6387 38.1797 90.8105 37.6367 91.623C37.0977 92.4316 36.3398 92.8359 35.3633 92.8359C34.4414 92.8359 33.7266 92.4512 33.2188 91.6816C32.7148 90.9121 32.4629 89.793 32.4629 88.3242ZM33.6348 88.2715C33.6348 90.6816 34.2461 91.8867 35.4688 91.8867C36.6719 91.8867 37.2734 90.6621 37.2734 88.2129C37.2734 85.6777 36.6836 84.4102 35.5039 84.4102C34.2578 84.4102 33.6348 85.6973 33.6348 88.2715ZM39.5059 88.3242C39.5059 86.7227 39.7715 85.5117 40.3027 84.6914C40.834 83.8672 41.6035 83.4551 42.6113 83.4551C44.5332 83.4551 45.4941 85.0059 45.4941 88.1074C45.4941 89.6387 45.2227 90.8105 44.6797 91.623C44.1406 92.4316 43.3828 92.8359 42.4062 92.8359C41.4844 92.8359 40.7695 92.4512 40.2617 91.6816C39.7578 90.9121 39.5059 89.793 39.5059 88.3242ZM40.6777 88.2715C40.6777 90.6816 41.2891 91.8867 42.5117 91.8867C43.7148 91.8867 44.3164 90.6621 44.3164 88.2129C44.3164 85.6777 43.7266 84.4102 42.5469 84.4102C41.3008 84.4102 40.6777 85.6973 40.6777 88.2715Z" fill="#8C8C8C"/>
<path d="M31.0684 38.8594C31.0684 39.7461 30.7734 40.4609 30.1836 41.0039C29.5977 41.5469 28.8086 41.8184 27.8164 41.8184C26.9648 41.8184 26.3301 41.6914 25.9121 41.4375V40.2656C26.5254 40.6641 27.1504 40.8633 27.7871 40.8633C28.4199 40.8633 28.9297 40.6895 29.3164 40.3418C29.707 39.9902 29.9023 39.5254 29.9023 38.9473C29.9023 38.3691 29.6992 37.9199 29.293 37.5996C28.8906 37.2754 28.3203 37.1133 27.582 37.1133C27.0117 37.1133 26.498 37.1387 26.041 37.1895L26.375 32.584H30.6172V33.5918H27.3418L27.1543 36.1641L27.9805 36.1289C28.9414 36.1289 29.6953 36.3691 30.2422 36.8496C30.793 37.3262 31.0684 37.9961 31.0684 38.8594ZM32.4629 37.3008C32.4629 35.6992 32.7285 34.4883 33.2598 33.668C33.791 32.8438 34.5605 32.4316 35.5684 32.4316C37.4902 32.4316 38.4512 33.9824 38.4512 37.084C38.4512 38.6152 38.1797 39.7871 37.6367 40.5996C37.0977 41.4082 36.3398 41.8125 35.3633 41.8125C34.4414 41.8125 33.7266 41.4277 33.2188 40.6582C32.7148 39.8887 32.4629 38.7695 32.4629 37.3008ZM33.6348 37.248C33.6348 39.6582 34.2461 40.8633 35.4688 40.8633C36.6719 40.8633 37.2734 39.6387 37.2734 37.1895C37.2734 34.6543 36.6836 33.3867 35.5039 33.3867C34.2578 33.3867 33.6348 34.6738 33.6348 37.248ZM39.5059 37.3008C39.5059 35.6992 39.7715 34.4883 40.3027 33.668C40.834 32.8438 41.6035 32.4316 42.6113 32.4316C44.5332 32.4316 45.4941 33.9824 45.4941 37.084C45.4941 38.6152 45.2227 39.7871 44.6797 40.5996C44.1406 41.4082 43.3828 41.8125 42.4062 41.8125C41.4844 41.8125 40.7695 41.4277 40.2617 40.6582C39.7578 39.8887 39.5059 38.7695 39.5059 37.3008ZM40.6777 37.248C40.6777 39.6582 41.2891 40.8633 42.5117 40.8633C43.7148 40.8633 44.3164 39.6387 44.3164 37.1895C44.3164 34.6543 43.7266 33.3867 42.5469 33.3867C41.3008 33.3867 40.6777 34.6738 40.6777 37.248Z" fill="#8C8C8C"/>
<path d="M56.2148 303.037C56.2148 302.549 56.0605 302.166 55.752 301.889C55.4434 301.607 55.0234 301.467 54.4922 301.467C54.1172 301.467 53.7383 301.562 53.3555 301.754C52.9727 301.945 52.6152 302.219 52.2832 302.574V301.461C52.5801 301.152 52.916 300.916 53.291 300.752C53.6699 300.588 54.1133 300.506 54.6211 300.506C55.4414 300.506 56.1016 300.727 56.6016 301.168C57.1016 301.605 57.3516 302.199 57.3516 302.949C57.3516 303.617 57.1973 304.195 56.8887 304.684C56.584 305.172 56.0605 305.672 55.3184 306.184C54.5605 306.707 54.0527 307.082 53.7949 307.309C53.541 307.535 53.3633 307.752 53.2617 307.959C53.1602 308.166 53.1094 308.418 53.1094 308.715H57.6211V309.734H51.9141V309.283C51.9141 308.76 51.9844 308.316 52.125 307.953C52.2695 307.586 52.5059 307.23 52.834 306.887C53.1621 306.539 53.6738 306.123 54.3691 305.639C55.0801 305.139 55.5645 304.701 55.8223 304.326C56.084 303.947 56.2148 303.518 56.2148 303.037ZM58.7871 305.375C58.7871 303.773 59.0527 302.562 59.584 301.742C60.1152 300.918 60.8848 300.506 61.8926 300.506C63.8145 300.506 64.7754 302.057 64.7754 305.158C64.7754 306.689 64.5039 307.861 63.9609 308.674C63.4219 309.482 62.6641 309.887 61.6875 309.887C60.7656 309.887 60.0508 309.502 59.543 308.732C59.0391 307.963 58.7871 306.844 58.7871 305.375ZM59.959 305.322C59.959 307.732 60.5703 308.938 61.793 308.938C62.9961 308.938 63.5977 307.713 63.5977 305.264C63.5977 302.729 63.0078 301.461 61.8281 301.461C60.582 301.461 59.959 302.748 59.959 305.322ZM70.3008 303.037C70.3008 302.549 70.1465 302.166 69.8379 301.889C69.5293 301.607 69.1094 301.467 68.5781 301.467C68.2031 301.467 67.8242 301.562 67.4414 301.754C67.0586 301.945 66.7012 302.219 66.3691 302.574V301.461C66.666 301.152 67.002 300.916 67.377 300.752C67.7559 300.588 68.1992 300.506 68.707 300.506C69.5273 300.506 70.1875 300.727 70.6875 301.168C71.1875 301.605 71.4375 302.199 71.4375 302.949C71.4375 303.617 71.2832 304.195 70.9746 304.684C70.6699 305.172 70.1465 305.672 69.4043 306.184C68.6465 306.707 68.1387 307.082 67.8809 307.309C67.627 307.535 67.4492 307.752 67.3477 307.959C67.2461 308.166 67.1953 308.418 67.1953 308.715H71.707V309.734H66V309.283C66 308.76 66.0703 308.316 66.2109 307.953C66.3555 307.586 66.5918 307.23 66.9199 306.887C67.248 306.539 67.7598 306.123 68.4551 305.639C69.166 305.139 69.6504 304.701 69.9082 304.326C70.1699 303.947 70.3008 303.518 70.3008 303.037ZM77.3438 303.037C77.3438 302.549 77.1895 302.166 76.8809 301.889C76.5723 301.607 76.1523 301.467 75.6211 301.467C75.2461 301.467 74.8672 301.562 74.4844 301.754C74.1016 301.945 73.7441 302.219 73.4121 302.574V301.461C73.709 301.152 74.0449 300.916 74.4199 300.752C74.7988 300.588 75.2422 300.506 75.75 300.506C76.5703 300.506 77.2305 300.727 77.7305 301.168C78.2305 301.605 78.4805 302.199 78.4805 302.949C78.4805 303.617 78.3262 304.195 78.0176 304.684C77.7129 305.172 77.1895 305.672 76.4473 306.184C75.6895 306.707 75.1816 307.082 74.9238 307.309C74.6699 307.535 74.4922 307.752 74.3906 307.959C74.2891 308.166 74.2383 308.418 74.2383 308.715H78.75V309.734H73.043V309.283C73.043 308.76 73.1133 308.316 73.2539 307.953C73.3984 307.586 73.6348 307.23 73.9629 306.887C74.291 306.539 74.8027 306.123 75.498 305.639C76.209 305.139 76.6934 304.701 76.9512 304.326C77.2129 303.947 77.3438 303.518 77.3438 303.037ZM83.7539 306.582H80.3027V305.697H83.7539V306.582ZM85.1074 305.375C85.1074 303.773 85.373 302.562 85.9043 301.742C86.4355 300.918 87.2051 300.506 88.2129 300.506C90.1348 300.506 91.0957 302.057 91.0957 305.158C91.0957 306.689 90.8242 307.861 90.2812 308.674C89.7422 309.482 88.9844 309.887 88.0078 309.887C87.0859 309.887 86.3711 309.502 85.8633 308.732C85.3594 307.963 85.1074 306.844 85.1074 305.375ZM86.2793 305.322C86.2793 307.732 86.8906 308.938 88.1133 308.938C89.3164 308.938 89.918 307.713 89.918 305.264C89.918 302.729 89.3281 301.461 88.1484 301.461C86.9023 301.461 86.2793 302.748 86.2793 305.322ZM98.0391 301.367C97.0859 303.031 96.3359 304.572 95.7891 305.99C95.2461 307.404 94.9102 308.652 94.7812 309.734H93.5859C93.7305 308.668 94.0723 307.451 94.6113 306.084C95.1504 304.717 95.8711 303.246 96.7734 301.672H92.2734V300.658H98.0391V301.367ZM103.031 306.582H99.5801V305.697H103.031V306.582ZM104.385 305.375C104.385 303.773 104.65 302.562 105.182 301.742C105.713 300.918 106.482 300.506 107.49 300.506C109.412 300.506 110.373 302.057 110.373 305.158C110.373 306.689 110.102 307.861 109.559 308.674C109.02 309.482 108.262 309.887 107.285 309.887C106.363 309.887 105.648 309.502 105.141 308.732C104.637 307.963 104.385 306.844 104.385 305.375ZM105.557 305.322C105.557 307.732 106.168 308.938 107.391 308.938C108.594 308.938 109.195 307.713 109.195 305.264C109.195 302.729 108.605 301.461 107.426 301.461C106.18 301.461 105.557 302.748 105.557 305.322ZM114.24 309.734V301.971C114.061 302.15 113.756 302.352 113.326 302.574C112.9 302.797 112.506 302.953 112.143 303.043V301.918C112.623 301.785 113.137 301.574 113.684 301.285C114.23 300.992 114.65 300.717 114.943 300.459H115.377V309.734H114.24Z" fill="#8C8C8C"/>
<path d="M175.988 303.037C175.988 302.549 175.834 302.166 175.525 301.889C175.217 301.607 174.797 301.467 174.266 301.467C173.891 301.467 173.512 301.562 173.129 301.754C172.746 301.945 172.389 302.219 172.057 302.574V301.461C172.354 301.152 172.689 300.916 173.064 300.752C173.443 300.588 173.887 300.506 174.395 300.506C175.215 300.506 175.875 300.727 176.375 301.168C176.875 301.605 177.125 302.199 177.125 302.949C177.125 303.617 176.971 304.195 176.662 304.684C176.357 305.172 175.834 305.672 175.092 306.184C174.334 306.707 173.826 307.082 173.568 307.309C173.314 307.535 173.137 307.752 173.035 307.959C172.934 308.166 172.883 308.418 172.883 308.715H177.395V309.734H171.688V309.283C171.688 308.76 171.758 308.316 171.898 307.953C172.043 307.586 172.279 307.23 172.607 306.887C172.936 306.539 173.447 306.123 174.143 305.639C174.854 305.139 175.338 304.701 175.596 304.326C175.857 303.947 175.988 303.518 175.988 303.037ZM178.561 305.375C178.561 303.773 178.826 302.562 179.357 301.742C179.889 300.918 180.658 300.506 181.666 300.506C183.588 300.506 184.549 302.057 184.549 305.158C184.549 306.689 184.277 307.861 183.734 308.674C183.195 309.482 182.438 309.887 181.461 309.887C180.539 309.887 179.824 309.502 179.316 308.732C178.812 307.963 178.561 306.844 178.561 305.375ZM179.732 305.322C179.732 307.732 180.344 308.938 181.566 308.938C182.77 308.938 183.371 307.713 183.371 305.264C183.371 302.729 182.781 301.461 181.602 301.461C180.355 301.461 179.732 302.748 179.732 305.322ZM190.074 303.037C190.074 302.549 189.92 302.166 189.611 301.889C189.303 301.607 188.883 301.467 188.352 301.467C187.977 301.467 187.598 301.562 187.215 301.754C186.832 301.945 186.475 302.219 186.143 302.574V301.461C186.439 301.152 186.775 300.916 187.15 300.752C187.529 300.588 187.973 300.506 188.48 300.506C189.301 300.506 189.961 300.727 190.461 301.168C190.961 301.605 191.211 302.199 191.211 302.949C191.211 303.617 191.057 304.195 190.748 304.684C190.443 305.172 189.92 305.672 189.178 306.184C188.42 306.707 187.912 307.082 187.654 307.309C187.4 307.535 187.223 307.752 187.121 307.959C187.02 308.166 186.969 308.418 186.969 308.715H191.48V309.734H185.773V309.283C185.773 308.76 185.844 308.316 185.984 307.953C186.129 307.586 186.365 307.23 186.693 306.887C187.021 306.539 187.533 306.123 188.229 305.639C188.939 305.139 189.424 304.701 189.682 304.326C189.943 303.947 190.074 303.518 190.074 303.037ZM197.117 303.037C197.117 302.549 196.963 302.166 196.654 301.889C196.346 301.607 195.926 301.467 195.395 301.467C195.02 301.467 194.641 301.562 194.258 301.754C193.875 301.945 193.518 302.219 193.186 302.574V301.461C193.482 301.152 193.818 300.916 194.193 300.752C194.572 300.588 195.016 300.506 195.523 300.506C196.344 300.506 197.004 300.727 197.504 301.168C198.004 301.605 198.254 302.199 198.254 302.949C198.254 303.617 198.1 304.195 197.791 304.684C197.486 305.172 196.963 305.672 196.221 306.184C195.463 306.707 194.955 307.082 194.697 307.309C194.443 307.535 194.266 307.752 194.164 307.959C194.062 308.166 194.012 308.418 194.012 308.715H198.523V309.734H192.816V309.283C192.816 308.76 192.887 308.316 193.027 307.953C193.172 307.586 193.408 307.23 193.736 306.887C194.064 306.539 194.576 306.123 195.271 305.639C195.982 305.139 196.467 304.701 196.725 304.326C196.986 303.947 197.117 303.518 197.117 303.037ZM203.527 306.582H200.076V305.697H203.527V306.582ZM204.881 305.375C204.881 303.773 205.146 302.562 205.678 301.742C206.209 300.918 206.979 300.506 207.986 300.506C209.908 300.506 210.869 302.057 210.869 305.158C210.869 306.689 210.598 307.861 210.055 308.674C209.516 309.482 208.758 309.887 207.781 309.887C206.859 309.887 206.145 309.502 205.637 308.732C205.133 307.963 204.881 306.844 204.881 305.375ZM206.053 305.322C206.053 307.732 206.664 308.938 207.887 308.938C209.09 308.938 209.691 307.713 209.691 305.264C209.691 302.729 209.102 301.461 207.922 301.461C206.676 301.461 206.053 302.748 206.053 305.322ZM217.812 301.367C216.859 303.031 216.109 304.572 215.562 305.99C215.02 307.404 214.684 308.652 214.555 309.734H213.359C213.504 308.668 213.846 307.451 214.385 306.084C214.924 304.717 215.645 303.246 216.547 301.672H212.047V300.658H217.812V301.367ZM222.805 306.582H219.354V305.697H222.805V306.582ZM224.158 305.375C224.158 303.773 224.424 302.562 224.955 301.742C225.486 300.918 226.256 300.506 227.264 300.506C229.186 300.506 230.146 302.057 230.146 305.158C230.146 306.689 229.875 307.861 229.332 308.674C228.793 309.482 228.035 309.887 227.059 309.887C226.137 309.887 225.422 309.502 224.914 308.732C224.41 307.963 224.158 306.844 224.158 305.375ZM225.33 305.322C225.33 307.732 225.941 308.938 227.164 308.938C228.367 308.938 228.969 307.713 228.969 305.264C228.969 302.729 228.379 301.461 227.199 301.461C225.953 301.461 225.33 302.748 225.33 305.322ZM231.512 308.217C232.133 308.697 232.834 308.938 233.615 308.938C234.24 308.938 234.734 308.785 235.098 308.48C235.465 308.172 235.648 307.76 235.648 307.244C235.648 306.096 234.826 305.521 233.182 305.521H232.426V304.572H233.146C234.604 304.572 235.332 304.033 235.332 302.955C235.332 301.959 234.775 301.461 233.662 301.461C233.025 301.461 232.426 301.676 231.863 302.105V301.021C232.457 300.678 233.15 300.506 233.943 300.506C234.717 300.506 235.338 300.709 235.807 301.115C236.275 301.518 236.51 302.041 236.51 302.686C236.51 303.873 235.904 304.637 234.693 304.977V305C235.35 305.07 235.867 305.303 236.246 305.697C236.629 306.088 236.82 306.576 236.82 307.162C236.82 307.979 236.525 308.637 235.936 309.137C235.35 309.637 234.568 309.887 233.592 309.887C232.732 309.887 232.039 309.727 231.512 309.406V308.217Z" fill="#8C8C8C"/>
<path d="M295.764 303.037C295.764 302.549 295.609 302.166 295.301 301.889C294.992 301.607 294.572 301.467 294.041 301.467C293.666 301.467 293.287 301.562 292.904 301.754C292.521 301.945 292.164 302.219 291.832 302.574V301.461C292.129 301.152 292.465 300.916 292.84 300.752C293.219 300.588 293.662 300.506 294.17 300.506C294.99 300.506 295.65 300.727 296.15 301.168C296.65 301.605 296.9 302.199 296.9 302.949C296.9 303.617 296.746 304.195 296.438 304.684C296.133 305.172 295.609 305.672 294.867 306.184C294.109 306.707 293.602 307.082 293.344 307.309C293.09 307.535 292.912 307.752 292.811 307.959C292.709 308.166 292.658 308.418 292.658 308.715H297.17V309.734H291.463V309.283C291.463 308.76 291.533 308.316 291.674 307.953C291.818 307.586 292.055 307.23 292.383 306.887C292.711 306.539 293.223 306.123 293.918 305.639C294.629 305.139 295.113 304.701 295.371 304.326C295.633 303.947 295.764 303.518 295.764 303.037ZM298.336 305.375C298.336 303.773 298.602 302.562 299.133 301.742C299.664 300.918 300.434 300.506 301.441 300.506C303.363 300.506 304.324 302.057 304.324 305.158C304.324 306.689 304.053 307.861 303.51 308.674C302.971 309.482 302.213 309.887 301.236 309.887C300.314 309.887 299.6 309.502 299.092 308.732C298.588 307.963 298.336 306.844 298.336 305.375ZM299.508 305.322C299.508 307.732 300.119 308.938 301.342 308.938C302.545 308.938 303.146 307.713 303.146 305.264C303.146 302.729 302.557 301.461 301.377 301.461C300.131 301.461 299.508 302.748 299.508 305.322ZM309.85 303.037C309.85 302.549 309.695 302.166 309.387 301.889C309.078 301.607 308.658 301.467 308.127 301.467C307.752 301.467 307.373 301.562 306.99 301.754C306.607 301.945 306.25 302.219 305.918 302.574V301.461C306.215 301.152 306.551 300.916 306.926 300.752C307.305 300.588 307.748 300.506 308.256 300.506C309.076 300.506 309.736 300.727 310.236 301.168C310.736 301.605 310.986 302.199 310.986 302.949C310.986 303.617 310.832 304.195 310.523 304.684C310.219 305.172 309.695 305.672 308.953 306.184C308.195 306.707 307.688 307.082 307.43 307.309C307.176 307.535 306.998 307.752 306.896 307.959C306.795 308.166 306.744 308.418 306.744 308.715H311.256V309.734H305.549V309.283C305.549 308.76 305.619 308.316 305.76 307.953C305.904 307.586 306.141 307.23 306.469 306.887C306.797 306.539 307.309 306.123 308.004 305.639C308.715 305.139 309.199 304.701 309.457 304.326C309.719 303.947 309.85 303.518 309.85 303.037ZM316.893 303.037C316.893 302.549 316.738 302.166 316.43 301.889C316.121 301.607 315.701 301.467 315.17 301.467C314.795 301.467 314.416 301.562 314.033 301.754C313.65 301.945 313.293 302.219 312.961 302.574V301.461C313.258 301.152 313.594 300.916 313.969 300.752C314.348 300.588 314.791 300.506 315.299 300.506C316.119 300.506 316.779 300.727 317.279 301.168C317.779 301.605 318.029 302.199 318.029 302.949C318.029 303.617 317.875 304.195 317.566 304.684C317.262 305.172 316.738 305.672 315.996 306.184C315.238 306.707 314.73 307.082 314.473 307.309C314.219 307.535 314.041 307.752 313.939 307.959C313.838 308.166 313.787 308.418 313.787 308.715H318.299V309.734H312.592V309.283C312.592 308.76 312.662 308.316 312.803 307.953C312.947 307.586 313.184 307.23 313.512 306.887C313.84 306.539 314.352 306.123 315.047 305.639C315.758 305.139 316.242 304.701 316.5 304.326C316.762 303.947 316.893 303.518 316.893 303.037ZM323.303 306.582H319.852V305.697H323.303V306.582ZM324.656 305.375C324.656 303.773 324.922 302.562 325.453 301.742C325.984 300.918 326.754 300.506 327.762 300.506C329.684 300.506 330.645 302.057 330.645 305.158C330.645 306.689 330.373 307.861 329.83 308.674C329.291 309.482 328.533 309.887 327.557 309.887C326.635 309.887 325.92 309.502 325.412 308.732C324.908 307.963 324.656 306.844 324.656 305.375ZM325.828 305.322C325.828 307.732 326.439 308.938 327.662 308.938C328.865 308.938 329.467 307.713 329.467 305.264C329.467 302.729 328.877 301.461 327.697 301.461C326.451 301.461 325.828 302.748 325.828 305.322ZM337.588 301.367C336.635 303.031 335.885 304.572 335.338 305.99C334.795 307.404 334.459 308.652 334.33 309.734H333.135C333.279 308.668 333.621 307.451 334.16 306.084C334.699 304.717 335.42 303.246 336.322 301.672H331.822V300.658H337.588V301.367ZM342.58 306.582H339.129V305.697H342.58V306.582ZM343.934 305.375C343.934 303.773 344.199 302.562 344.73 301.742C345.262 300.918 346.031 300.506 347.039 300.506C348.961 300.506 349.922 302.057 349.922 305.158C349.922 306.689 349.65 307.861 349.107 308.674C348.568 309.482 347.811 309.887 346.834 309.887C345.912 309.887 345.197 309.502 344.689 308.732C344.186 307.963 343.934 306.844 343.934 305.375ZM345.105 305.322C345.105 307.732 345.717 308.938 346.939 308.938C348.143 308.938 348.744 307.713 348.744 305.264C348.744 302.729 348.154 301.461 346.975 301.461C345.729 301.461 345.105 302.748 345.105 305.322ZM356.625 306.934C356.625 307.82 356.33 308.535 355.74 309.078C355.154 309.621 354.365 309.893 353.373 309.893C352.521 309.893 351.887 309.766 351.469 309.512V308.34C352.082 308.738 352.707 308.938 353.344 308.938C353.977 308.938 354.486 308.764 354.873 308.416C355.264 308.064 355.459 307.6 355.459 307.021C355.459 306.443 355.256 305.994 354.85 305.674C354.447 305.35 353.877 305.188 353.139 305.188C352.568 305.188 352.055 305.213 351.598 305.264L351.932 300.658H356.174V301.666H352.898L352.711 304.238L353.537 304.203C354.498 304.203 355.252 304.443 355.799 304.924C356.35 305.4 356.625 306.07 356.625 306.934Z" fill="#8C8C8C"/>
<path d="M415.537 303.037C415.537 302.549 415.383 302.166 415.074 301.889C414.766 301.607 414.346 301.467 413.814 301.467C413.439 301.467 413.061 301.562 412.678 301.754C412.295 301.945 411.938 302.219 411.605 302.574V301.461C411.902 301.152 412.238 300.916 412.613 300.752C412.992 300.588 413.436 300.506 413.943 300.506C414.764 300.506 415.424 300.727 415.924 301.168C416.424 301.605 416.674 302.199 416.674 302.949C416.674 303.617 416.52 304.195 416.211 304.684C415.906 305.172 415.383 305.672 414.641 306.184C413.883 306.707 413.375 307.082 413.117 307.309C412.863 307.535 412.686 307.752 412.584 307.959C412.482 308.166 412.432 308.418 412.432 308.715H416.943V309.734H411.236V309.283C411.236 308.76 411.307 308.316 411.447 307.953C411.592 307.586 411.828 307.23 412.156 306.887C412.484 306.539 412.996 306.123 413.691 305.639C414.402 305.139 414.887 304.701 415.145 304.326C415.406 303.947 415.537 303.518 415.537 303.037ZM418.109 305.375C418.109 303.773 418.375 302.562 418.906 301.742C419.438 300.918 420.207 300.506 421.215 300.506C423.137 300.506 424.098 302.057 424.098 305.158C424.098 306.689 423.826 307.861 423.283 308.674C422.744 309.482 421.986 309.887 421.01 309.887C420.088 309.887 419.373 309.502 418.865 308.732C418.361 307.963 418.109 306.844 418.109 305.375ZM419.281 305.322C419.281 307.732 419.893 308.938 421.115 308.938C422.318 308.938 422.92 307.713 422.92 305.264C422.92 302.729 422.33 301.461 421.15 301.461C419.904 301.461 419.281 302.748 419.281 305.322ZM429.623 303.037C429.623 302.549 429.469 302.166 429.16 301.889C428.852 301.607 428.432 301.467 427.9 301.467C427.525 301.467 427.146 301.562 426.764 301.754C426.381 301.945 426.023 302.219 425.691 302.574V301.461C425.988 301.152 426.324 300.916 426.699 300.752C427.078 300.588 427.521 300.506 428.029 300.506C428.85 300.506 429.51 300.727 430.01 301.168C430.51 301.605 430.76 302.199 430.76 302.949C430.76 303.617 430.605 304.195 430.297 304.684C429.992 305.172 429.469 305.672 428.727 306.184C427.969 306.707 427.461 307.082 427.203 307.309C426.949 307.535 426.771 307.752 426.67 307.959C426.568 308.166 426.518 308.418 426.518 308.715H431.029V309.734H425.322V309.283C425.322 308.76 425.393 308.316 425.533 307.953C425.678 307.586 425.914 307.23 426.242 306.887C426.57 306.539 427.082 306.123 427.777 305.639C428.488 305.139 428.973 304.701 429.23 304.326C429.492 303.947 429.623 303.518 429.623 303.037ZM436.666 303.037C436.666 302.549 436.512 302.166 436.203 301.889C435.895 301.607 435.475 301.467 434.943 301.467C434.568 301.467 434.189 301.562 433.807 301.754C433.424 301.945 433.066 302.219 432.734 302.574V301.461C433.031 301.152 433.367 300.916 433.742 300.752C434.121 300.588 434.564 300.506 435.072 300.506C435.893 300.506 436.553 300.727 437.053 301.168C437.553 301.605 437.803 302.199 437.803 302.949C437.803 303.617 437.648 304.195 437.34 304.684C437.035 305.172 436.512 305.672 435.77 306.184C435.012 306.707 434.504 307.082 434.246 307.309C433.992 307.535 433.814 307.752 433.713 307.959C433.611 308.166 433.561 308.418 433.561 308.715H438.072V309.734H432.365V309.283C432.365 308.76 432.436 308.316 432.576 307.953C432.721 307.586 432.957 307.23 433.285 306.887C433.613 306.539 434.125 306.123 434.82 305.639C435.531 305.139 436.016 304.701 436.273 304.326C436.535 303.947 436.666 303.518 436.666 303.037ZM443.076 306.582H439.625V305.697H443.076V306.582ZM444.43 305.375C444.43 303.773 444.695 302.562 445.227 301.742C445.758 300.918 446.527 300.506 447.535 300.506C449.457 300.506 450.418 302.057 450.418 305.158C450.418 306.689 450.146 307.861 449.604 308.674C449.064 309.482 448.307 309.887 447.33 309.887C446.408 309.887 445.693 309.502 445.186 308.732C444.682 307.963 444.43 306.844 444.43 305.375ZM445.602 305.322C445.602 307.732 446.213 308.938 447.436 308.938C448.639 308.938 449.24 307.713 449.24 305.264C449.24 302.729 448.65 301.461 447.471 301.461C446.225 301.461 445.602 302.748 445.602 305.322ZM457.361 301.367C456.408 303.031 455.658 304.572 455.111 305.99C454.568 307.404 454.232 308.652 454.104 309.734H452.908C453.053 308.668 453.395 307.451 453.934 306.084C454.473 304.717 455.193 303.246 456.096 301.672H451.596V300.658H457.361V301.367ZM462.354 306.582H458.902V305.697H462.354V306.582ZM463.707 305.375C463.707 303.773 463.973 302.562 464.504 301.742C465.035 300.918 465.805 300.506 466.812 300.506C468.734 300.506 469.695 302.057 469.695 305.158C469.695 306.689 469.424 307.861 468.881 308.674C468.342 309.482 467.584 309.887 466.607 309.887C465.686 309.887 464.971 309.502 464.463 308.732C463.959 307.963 463.707 306.844 463.707 305.375ZM464.879 305.322C464.879 307.732 465.49 308.938 466.713 308.938C467.916 308.938 468.518 307.713 468.518 305.264C468.518 302.729 467.928 301.461 466.748 301.461C465.502 301.461 464.879 302.748 464.879 305.322ZM476.639 301.367C475.686 303.031 474.936 304.572 474.389 305.99C473.846 307.404 473.51 308.652 473.381 309.734H472.186C472.33 308.668 472.672 307.451 473.211 306.084C473.75 304.717 474.471 303.246 475.373 301.672H470.873V300.658H476.639V301.367Z" fill="#8C8C8C"/>
<mask id="mask0_833_3600" style="mask-type:luminance" maskUnits="userSpaceOnUse" x="52" y="36" width="423" height="258">
<path d="M52.8848 36.1289H474.039V293.111H52.8848V36.1289Z" fill="white"/>
</mask>
<g mask="url(#mask0_833_3600)">
<path d="M83.8105 269.734L143.698 274.326L203.585 258.508L263.472 243.71L323.359 245.751L383.246 206.461L443.134 211.564V292.186H383.246H323.359H263.472H203.585H143.698H83.8105V269.734Z" fill="#E9C46A" fill-opacity="0.2"/>
</g>
<mask id="mask1_833_3600" style="mask-type:luminance" maskUnits="userSpaceOnUse" x="52" y="36" width="423" height="258">
<path d="M52.8848 36.1289H474.039V293.111H52.8848V36.1289Z" fill="white"/>
</mask>
<g mask="url(#mask1_833_3600)">
<path d="M83.8105 196.255L143.698 170.741L203.585 185.539L263.472 132.471L323.359 152.372L383.246 70.2188L443.134 92.1602V211.563L383.246 206.46L323.359 245.75L263.472 243.709L203.585 258.507L143.698 274.325L83.8105 269.733V196.255Z" fill="#55B1A5" fill-opacity="0.2"/>
</g>
<mask id="mask2_833_3600" style="mask-type:luminance" maskUnits="userSpaceOnUse" x="52" y="36" width="423" height="258">
<path d="M52.8848 36.1289H474.039V293.111H52.8848V36.1289Z" fill="white"/>
</mask>
<g mask="url(#mask2_833_3600)">
<path d="M83.8105 269.734L143.698 274.326L203.585 258.508L263.472 243.71L323.359 245.751L383.246 206.461L443.134 211.564" stroke="#E9C46A" stroke-width="2" stroke-linejoin="bevel"/>
</g>
<mask id="mask3_833_3600" style="mask-type:luminance" maskUnits="userSpaceOnUse" x="52" y="36" width="423" height="258">
<path d="M52.8848 36.1289H474.039V293.111H52.8848V36.1289Z" fill="white"/>
</mask>
<g mask="url(#mask3_833_3600)">
<path d="M83.8105 196.255L143.698 170.741L203.585 185.539L263.472 132.471L323.359 152.372L383.246 70.2188L443.134 92.1602" stroke="#55B1A5" stroke-width="2" stroke-linejoin="bevel"/>
</g>
<path d="M190.976 333.785H198.668C199.178 333.785 199.667 333.98 200.028 334.327C200.389 334.673 200.591 335.144 200.591 335.634V339.332C200.591 339.822 200.389 340.292 200.028 340.639C199.667 340.986 199.178 341.18 198.668 341.18H190.976C190.466 341.18 189.977 340.986 189.616 340.639C189.255 340.292 189.053 339.822 189.053 339.332V335.634C189.053 335.144 189.255 334.673 189.616 334.327C189.977 333.98 190.466 333.785 190.976 333.785Z" fill="#E9C46A"/>
<path d="M214.242 342.086H209.455V333.01H210.627V341.049H214.242V342.086ZM215.039 338.916C215.039 337.846 215.338 337.002 215.936 336.385C216.533 335.764 217.344 335.453 218.367 335.453C219.34 335.453 220.102 335.752 220.652 336.35C221.207 336.943 221.484 337.766 221.484 338.816C221.484 339.84 221.189 340.666 220.6 341.295C220.01 341.924 219.219 342.238 218.227 342.238C217.258 342.238 216.484 341.934 215.906 341.324C215.328 340.715 215.039 339.912 215.039 338.916ZM216.211 338.881C216.211 339.627 216.398 340.215 216.773 340.645C217.152 341.074 217.66 341.289 218.297 341.289C218.953 341.289 219.453 341.08 219.797 340.662C220.141 340.24 220.312 339.637 220.312 338.852C220.312 338.062 220.141 337.457 219.797 337.035C219.453 336.613 218.953 336.402 218.297 336.402C217.652 336.402 217.143 336.623 216.768 337.064C216.396 337.506 216.211 338.111 216.211 338.881ZM228.58 342.086H227.438V338.4C227.438 337.068 226.951 336.402 225.979 336.402C225.475 336.402 225.061 336.59 224.736 336.965C224.412 337.34 224.25 337.814 224.25 338.389V342.086H223.102V335.605H224.25V336.678H224.273C224.762 335.861 225.471 335.453 226.4 335.453C227.111 335.453 227.652 335.682 228.023 336.139C228.395 336.592 228.58 337.254 228.58 338.125V342.086ZM236.121 342.086H234.973V341.008H234.949C234.477 341.828 233.742 342.238 232.746 342.238C231.926 342.238 231.273 341.947 230.789 341.365C230.305 340.779 230.062 339.99 230.062 338.998C230.062 337.928 230.336 337.07 230.883 336.426C231.43 335.777 232.145 335.453 233.027 335.453C233.91 335.453 234.551 335.797 234.949 336.484H234.973V332.494H236.121V342.086ZM234.979 338.23C234.979 337.711 234.807 337.277 234.463 336.93C234.123 336.578 233.703 336.402 233.203 336.402C232.594 336.402 232.113 336.631 231.762 337.088C231.41 337.541 231.234 338.16 231.234 338.945C231.234 339.668 231.402 340.24 231.738 340.662C232.078 341.08 232.529 341.289 233.092 341.289C233.646 341.289 234.1 341.084 234.451 340.674C234.803 340.26 234.979 339.746 234.979 339.133V338.23ZM237.738 338.916C237.738 337.846 238.037 337.002 238.635 336.385C239.232 335.764 240.043 335.453 241.066 335.453C242.039 335.453 242.801 335.752 243.352 336.35C243.906 336.943 244.184 337.766 244.184 338.816C244.184 339.84 243.889 340.666 243.299 341.295C242.709 341.924 241.918 342.238 240.926 342.238C239.957 342.238 239.184 341.934 238.605 341.324C238.027 340.715 237.738 339.912 237.738 338.916ZM238.91 338.881C238.91 339.627 239.098 340.215 239.473 340.645C239.852 341.074 240.359 341.289 240.996 341.289C241.652 341.289 242.152 341.08 242.496 340.662C242.84 340.24 243.012 339.637 243.012 338.852C243.012 338.062 242.84 337.457 242.496 337.035C242.152 336.613 241.652 336.402 240.996 336.402C240.352 336.402 239.842 336.623 239.467 337.064C239.096 337.506 238.91 338.111 238.91 338.881ZM251.279 342.086H250.137V338.4C250.137 337.068 249.65 336.402 248.678 336.402C248.174 336.402 247.76 336.59 247.436 336.965C247.111 337.34 246.949 337.814 246.949 338.389V342.086H245.801V335.605H246.949V336.678H246.973C247.461 335.861 248.17 335.453 249.1 335.453C249.811 335.453 250.352 335.682 250.723 336.139C251.094 336.592 251.279 337.254 251.279 338.125V342.086Z" fill="#2C3542" fill-opacity="0.65"/>
<path d="M267.784 333.785H275.477C275.987 333.785 276.476 333.98 276.837 334.327C277.197 334.673 277.4 335.144 277.4 335.634V339.332C277.4 339.822 277.197 340.292 276.837 340.639C276.476 340.986 275.987 341.18 275.477 341.18H267.784C267.274 341.18 266.785 340.986 266.425 340.639C266.064 340.292 265.861 339.822 265.861 339.332V335.634C265.861 335.144 266.064 334.673 266.425 334.327C266.785 333.98 267.274 333.785 267.784 333.785Z" fill="#55B1A5"/>
<path d="M287.436 338.693V342.086H286.264V333.01H288.842C289.822 333.01 290.582 333.246 291.121 333.719C291.664 334.191 291.936 334.867 291.936 335.746C291.936 336.637 291.619 337.359 290.986 337.914C290.354 338.465 289.562 338.725 288.613 338.693H287.436ZM287.436 334.041V337.662H288.52C289.234 337.662 289.777 337.502 290.148 337.182C290.52 336.857 290.705 336.395 290.705 335.793C290.705 334.625 290.014 334.041 288.631 334.041H287.436ZM293.617 336.057C294.262 335.654 295.006 335.453 295.85 335.453C297.412 335.453 298.193 336.273 298.193 337.914V342.086H297.057V341.084H297.027C296.578 341.854 295.916 342.238 295.041 342.238C294.412 342.238 293.912 342.068 293.541 341.729C293.17 341.389 292.984 340.93 292.984 340.352C292.984 339.141 293.701 338.436 295.135 338.236L297.057 337.967C297.057 336.908 296.619 336.379 295.744 336.379C294.967 336.379 294.258 336.641 293.617 337.164V336.057ZM295.539 339.039C295.008 339.109 294.641 339.242 294.438 339.438C294.238 339.633 294.139 339.906 294.139 340.258C294.139 340.566 294.248 340.818 294.467 341.014C294.686 341.209 294.975 341.307 295.334 341.307C295.834 341.307 296.246 341.131 296.57 340.779C296.895 340.428 297.057 339.986 297.057 339.455V338.834L295.539 339.039ZM303.572 336.742C303.381 336.605 303.117 336.537 302.781 336.537C302.336 336.537 301.969 336.746 301.68 337.164C301.391 337.578 301.246 338.125 301.246 338.805V342.086H300.098V335.605H301.246V336.924H301.27C301.598 335.971 302.164 335.494 302.969 335.494C303.23 335.494 303.432 335.523 303.572 335.582V336.742ZM304.539 333.32C304.539 333.117 304.607 332.947 304.744 332.811C304.885 332.67 305.057 332.6 305.26 332.6C305.467 332.6 305.641 332.668 305.781 332.805C305.926 332.941 305.998 333.113 305.998 333.32C305.998 333.523 305.926 333.693 305.781 333.83C305.641 333.963 305.467 334.029 305.26 334.029C305.053 334.029 304.881 333.963 304.744 333.83C304.607 333.693 304.539 333.523 304.539 333.32ZM304.674 342.086V335.605H305.822V342.086H304.674ZM307.516 340.686C308.094 341.104 308.717 341.312 309.385 341.312C310.279 341.312 310.727 341.02 310.727 340.434C310.727 340.184 310.629 339.979 310.434 339.818C310.238 339.654 309.842 339.461 309.244 339.238C308.525 338.949 308.059 338.664 307.844 338.383C307.629 338.098 307.521 337.754 307.521 337.352C307.521 336.777 307.764 336.318 308.248 335.975C308.736 335.627 309.336 335.453 310.047 335.453C310.598 335.453 311.109 335.549 311.582 335.74V336.848C311.098 336.535 310.549 336.379 309.936 336.379C309.568 336.379 309.27 336.459 309.039 336.619C308.809 336.779 308.693 336.99 308.693 337.252C308.693 337.51 308.775 337.711 308.939 337.855C309.107 338 309.477 338.186 310.047 338.412C310.77 338.682 311.258 338.961 311.512 339.25C311.766 339.539 311.893 339.896 311.893 340.322C311.893 340.916 311.648 341.385 311.16 341.729C310.676 342.068 310.047 342.238 309.273 342.238C308.602 342.238 308.016 342.111 307.516 341.857V340.686Z" fill="#2C3542" fill-opacity="0.65"/>
</g>
<defs>
<clipPath id="clip0_833_3600">
<rect width="500" height="347.573" fill="white" transform="translate(0 0.078125)"/>
</clipPath>
</defs>
</svg>
