<svg width="600" height="270" viewBox="0 0 600 270" fill="none" xmlns="http://www.w3.org/2000/svg">
<rect width="71.25" height="35.1429" transform="translate(30)" fill="#CEC2FF"/>
<path d="M64.2514 15.343L65.6236 17.6847L66.9958 15.343H68.01L66.1605 18.2067L68.01 21.0703H66.9958L65.6236 18.848L64.2514 21.0703H63.2372L65.0568 18.2067L63.2372 15.343H64.2514Z" fill="#262527"/>
<rect width="71.25" height="35.1429" transform="translate(101.25)" fill="#F4F2FF"/>
<path d="M135.501 15.343L136.874 17.6847L138.246 15.343H139.26L137.411 18.2067L139.26 21.0703H138.246L136.874 18.848L135.501 21.0703H134.487L136.307 18.2067L134.487 15.343H135.501Z" fill="#262527"/>
<rect width="71.25" height="35.1429" transform="translate(172.5)" fill="#AF9BFF"/>
<path d="M206.751 15.343L208.124 17.6847L209.496 15.343H210.51L208.661 18.2067L210.51 21.0703H209.496L208.124 18.848L206.751 21.0703H205.737L207.557 18.2067L205.737 15.343H206.751Z" fill="#262527"/>
<rect width="71.25" height="35.1429" transform="translate(243.75)" fill="#9379FF"/>
<path d="M278.001 15.343L279.374 17.6847L280.746 15.343H281.76L279.911 18.2067L281.76 21.0703H280.746L279.374 18.848L278.001 21.0703H276.987L278.807 18.2067L276.987 15.343H278.001Z" fill="#262527"/>
<rect width="71.25" height="35.1429" transform="translate(315)" fill="#F4F2FF"/>
<path d="M349.251 15.343L350.624 17.6847L351.996 15.343H353.01L351.161 18.2067L353.01 21.0703H351.996L350.624 18.848L349.251 21.0703H348.237L350.057 18.2067L348.237 15.343H349.251Z" fill="#262527"/>
<rect width="71.25" height="35.1429" transform="translate(386.25)" fill="#CEC2FF"/>
<path d="M420.501 15.343L421.874 17.6847L423.246 15.343H424.26L422.411 18.2067L424.26 21.0703H423.246L421.874 18.848L420.501 21.0703H419.487L421.307 18.2067L419.487 15.343H420.501Z" fill="#262527"/>
<rect width="71.25" height="35.1429" transform="translate(457.5)" fill="#F4F2FF"/>
<path d="M491.751 15.343L493.124 17.6847L494.496 15.343H495.51L493.661 18.2067L495.51 21.0703H494.496L493.124 18.848L491.751 21.0703H490.737L492.557 18.2067L490.737 15.343H491.751Z" fill="#262527"/>
<rect width="71.25" height="35.1429" transform="translate(528.75)" fill="#AF9BFF"/>
<path d="M563.001 15.343L564.374 17.6847L565.746 15.343H566.76L564.911 18.2067L566.76 21.0703H565.746L564.374 18.848L563.001 21.0703H561.987L563.807 18.2067L561.987 15.343H563.001Z" fill="#262527"/>
<rect width="71.25" height="35.1429" transform="translate(30 35.1445)" fill="#AF9BFF"/>
<path d="M64.2514 50.4876L65.6236 52.8292L66.9958 50.4876H68.01L66.1605 53.3512L68.01 56.2148H66.9958L65.6236 53.9925L64.2514 56.2148H63.2372L65.0568 53.3512L63.2372 50.4876H64.2514Z" fill="#262527"/>
<rect width="71.25" height="35.1429" transform="translate(101.25 35.1445)" fill="#7857FF"/>
<path d="M135.501 50.4876L136.874 52.8292L138.246 50.4876H139.26L137.411 53.3512L139.26 56.2148H138.246L136.874 53.9925L135.501 56.2148H134.487L136.307 53.3512L134.487 50.4876H135.501Z" fill="#F9FAFB"/>
<rect width="71.25" height="35.1429" transform="translate(172.5 35.1445)" fill="#EAE5FF"/>
<path d="M206.751 50.4876L208.124 52.8292L209.496 50.4876H210.51L208.661 53.3512L210.51 56.2148H209.496L208.124 53.9925L206.751 56.2148H205.737L207.557 53.3512L205.737 50.4876H206.751Z" fill="#262527"/>
<rect width="71.25" height="35.1429" transform="translate(243.75 35.1445)" fill="#7857FF"/>
<path d="M278.001 50.4876L279.374 52.8292L280.746 50.4876H281.76L279.911 53.3512L281.76 56.2148H280.746L279.374 53.9925L278.001 56.2148H276.987L278.807 53.3512L276.987 50.4876H278.001Z" fill="#F9FAFB"/>
<rect width="71.25" height="35.1429" transform="translate(315 35.1445)" fill="#AF9BFF"/>
<path d="M349.251 50.4876L350.624 52.8292L351.996 50.4876H353.01L351.161 53.3512L353.01 56.2148H351.996L350.624 53.9925L349.251 56.2148H348.237L350.057 53.3512L348.237 50.4876H349.251Z" fill="#262527"/>
<rect width="71.25" height="35.1429" transform="translate(386.25 35.1445)" fill="#6046CC"/>
<path d="M420.501 50.4876L421.874 52.8292L423.246 50.4876H424.26L422.411 53.3512L424.26 56.2148H423.246L421.874 53.9925L420.501 56.2148H419.487L421.307 53.3512L419.487 50.4876H420.501Z" fill="#F9FAFB"/>
<rect width="71.25" height="35.1429" transform="translate(457.5 35.1445)" fill="#9379FF"/>
<path d="M491.751 50.4876L493.124 52.8292L494.496 50.4876H495.51L493.661 53.3512L495.51 56.2148H494.496L493.124 53.9925L491.751 56.2148H490.737L492.557 53.3512L490.737 50.4876H491.751Z" fill="#262527"/>
<rect width="71.25" height="35.1429" transform="translate(528.75 35.1445)" fill="#EAE5FF"/>
<path d="M563.001 50.4876L564.374 52.8292L565.746 50.4876H566.76L564.911 53.3512L566.76 56.2148H565.746L564.374 53.9925L563.001 56.2148H561.987L563.807 53.3512L561.987 50.4876H563.001Z" fill="#262527"/>
<rect width="71.25" height="35.1429" transform="translate(30 70.2852)" fill="#7857FF"/>
<path d="M64.2514 85.6282L65.6236 87.9698L66.9958 85.6282H68.01L66.1605 88.4918L68.01 91.3555H66.9958L65.6236 89.1332L64.2514 91.3555H63.2372L65.0568 88.4918L63.2372 85.6282H64.2514Z" fill="#F9FAFB"/>
<rect width="71.25" height="35.1429" transform="translate(101.25 70.2852)" fill="#6046CC"/>
<path d="M135.501 85.6282L136.874 87.9698L138.246 85.6282H139.26L137.411 88.4918L139.26 91.3555H138.246L136.874 89.1332L135.501 91.3555H134.487L136.307 88.4918L134.487 85.6282H135.501Z" fill="#F9FAFB"/>
<rect width="71.25" height="35.1429" transform="translate(172.5 70.2852)" fill="#AF9BFF"/>
<path d="M206.751 85.6282L208.124 87.9698L209.496 85.6282H210.51L208.661 88.4918L210.51 91.3555H209.496L208.124 89.1332L206.751 91.3555H205.737L207.557 88.4918L205.737 85.6282H206.751Z" fill="#262527"/>
<rect width="71.25" height="35.1429" transform="translate(243.75 70.2852)" fill="#F4F2FF"/>
<path d="M278.001 85.6282L279.374 87.9698L280.746 85.6282H281.76L279.911 88.4918L281.76 91.3555H280.746L279.374 89.1332L278.001 91.3555H276.987L278.807 88.4918L276.987 85.6282H278.001Z" fill="#262527"/>
<rect width="71.25" height="35.1429" transform="translate(315 70.2852)" fill="#7857FF"/>
<path d="M349.251 85.6282L350.624 87.9698L351.996 85.6282H353.01L351.161 88.4918L353.01 91.3555H351.996L350.624 89.1332L349.251 91.3555H348.237L350.057 88.4918L348.237 85.6282H349.251Z" fill="#F9FAFB"/>
<rect width="71.25" height="35.1429" transform="translate(386.25 70.2852)" fill="#CEC2FF"/>
<path d="M420.501 85.6282L421.874 87.9698L423.246 85.6282H424.26L422.411 88.4918L424.26 91.3555H423.246L421.874 89.1332L420.501 91.3555H419.487L421.307 88.4918L419.487 85.6282H420.501Z" fill="#262527"/>
<rect width="71.25" height="35.1429" transform="translate(457.5 70.2852)" fill="#EAE5FF"/>
<path d="M491.751 85.6282L493.124 87.9698L494.496 85.6282H495.51L493.661 88.4918L495.51 91.3555H494.496L493.124 89.1332L491.751 91.3555H490.737L492.557 88.4918L490.737 85.6282H491.751Z" fill="#262527"/>
<rect width="71.25" height="35.1429" transform="translate(528.75 70.2852)" fill="#CEC2FF"/>
<path d="M563.001 85.6282L564.374 87.9698L565.746 85.6282H566.76L564.911 88.4918L566.76 91.3555H565.746L564.374 89.1332L563.001 91.3555H561.987L563.807 88.4918L561.987 85.6282H563.001Z" fill="#262527"/>
<rect width="71.25" height="35.1429" transform="translate(30 105.43)" fill="#CEC2FF"/>
<path d="M64.2514 120.773L65.6236 123.114L66.9958 120.773H68.01L66.1605 123.636L68.01 126.5H66.9958L65.6236 124.278L64.2514 126.5H63.2372L65.0568 123.636L63.2372 120.773H64.2514Z" fill="#262527"/>
<rect width="71.25" height="35.1429" transform="translate(101.25 105.43)" fill="#F4F2FF"/>
<path d="M135.501 120.773L136.874 123.114L138.246 120.773H139.26L137.411 123.636L139.26 126.5H138.246L136.874 124.278L135.501 126.5H134.487L136.307 123.636L134.487 120.773H135.501Z" fill="#262527"/>
<rect width="71.25" height="35.1429" transform="translate(172.5 105.43)" fill="#7857FF"/>
<path d="M206.751 120.773L208.124 123.114L209.496 120.773H210.51L208.661 123.636L210.51 126.5H209.496L208.124 124.278L206.751 126.5H205.737L207.557 123.636L205.737 120.773H206.751Z" fill="#F9FAFB"/>
<rect width="71.25" height="35.1429" transform="translate(243.75 105.43)" fill="#6046CC"/>
<path d="M278.001 120.773L279.374 123.114L280.746 120.773H281.76L279.911 123.636L281.76 126.5H280.746L279.374 124.278L278.001 126.5H276.987L278.807 123.636L276.987 120.773H278.001Z" fill="#F9FAFB"/>
<rect width="71.25" height="35.1429" transform="translate(315 105.43)" fill="#AF9BFF"/>
<path d="M349.251 120.773L350.624 123.114L351.996 120.773H353.01L351.161 123.636L353.01 126.5H351.996L350.624 124.278L349.251 126.5H348.237L350.057 123.636L348.237 120.773H349.251Z" fill="#262527"/>
<rect width="71.25" height="35.1429" transform="translate(386.25 105.43)" fill="#48359A"/>
<path d="M420.501 120.773L421.874 123.114L423.246 120.773H424.26L422.411 123.636L424.26 126.5H423.246L421.874 124.278L420.501 126.5H419.487L421.307 123.636L419.487 120.773H420.501Z" fill="#F9FAFB"/>
<rect width="71.25" height="35.1429" transform="translate(457.5 105.43)" fill="#AF9BFF"/>
<path d="M491.751 120.773L493.124 123.114L494.496 120.773H495.51L493.661 123.636L495.51 126.5H494.496L493.124 124.278L491.751 126.5H490.737L492.557 123.636L490.737 120.773H491.751Z" fill="#262527"/>
<rect width="71.25" height="35.1429" transform="translate(528.75 105.43)" fill="#9379FF"/>
<path d="M563.001 120.773L564.374 123.114L565.746 120.773H566.76L564.911 123.636L566.76 126.5H565.746L564.374 124.278L563.001 126.5H561.987L563.807 123.636L561.987 120.773H563.001Z" fill="#262527"/>
<rect width="71.25" height="35.1429" transform="translate(30 140.57)" fill="#7857FF"/>
<path d="M64.2514 155.913L65.6236 158.255L66.9958 155.913H68.01L66.1605 158.777L68.01 161.641H66.9958L65.6236 159.418L64.2514 161.641H63.2372L65.0568 158.777L63.2372 155.913H64.2514Z" fill="#F9FAFB"/>
<rect width="71.25" height="35.1429" transform="translate(101.25 140.57)" fill="#CEC2FF"/>
<path d="M135.501 155.913L136.874 158.255L138.246 155.913H139.26L137.411 158.777L139.26 161.641H138.246L136.874 159.418L135.501 161.641H134.487L136.307 158.777L134.487 155.913H135.501Z" fill="#262527"/>
<rect width="71.25" height="35.1429" transform="translate(172.5 140.57)" fill="#AF9BFF"/>
<path d="M206.751 155.913L208.124 158.255L209.496 155.913H210.51L208.661 158.777L210.51 161.641H209.496L208.124 159.418L206.751 161.641H205.737L207.557 158.777L205.737 155.913H206.751Z" fill="#262527"/>
<rect width="71.25" height="35.1429" transform="translate(243.75 140.57)" fill="#9379FF"/>
<path d="M278.001 155.913L279.374 158.255L280.746 155.913H281.76L279.911 158.777L281.76 161.641H280.746L279.374 159.418L278.001 161.641H276.987L278.807 158.777L276.987 155.913H278.001Z" fill="#262527"/>
<rect width="71.25" height="35.1429" transform="translate(315 140.57)" fill="#EAE5FF"/>
<path d="M349.251 155.913L350.624 158.255L351.996 155.913H353.01L351.161 158.777L353.01 161.641H351.996L350.624 159.418L349.251 161.641H348.237L350.057 158.777L348.237 155.913H349.251Z" fill="#262527"/>
<rect width="71.25" height="35.1429" transform="translate(386.25 140.57)" fill="#7857FF"/>
<path d="M420.501 155.913L421.874 158.255L423.246 155.913H424.26L422.411 158.777L424.26 161.641H423.246L421.874 159.418L420.501 161.641H419.487L421.307 158.777L419.487 155.913H420.501Z" fill="#F9FAFB"/>
<rect width="71.25" height="35.1429" transform="translate(457.5 140.57)" fill="#6046CC"/>
<path d="M491.751 155.913L493.124 158.255L494.496 155.913H495.51L493.661 158.777L495.51 161.641H494.496L493.124 159.418L491.751 161.641H490.737L492.557 158.777L490.737 155.913H491.751Z" fill="#F9FAFB"/>
<rect width="71.25" height="35.1429" transform="translate(528.75 140.57)" fill="#7857FF"/>
<path d="M563.001 155.913L564.374 158.255L565.746 155.913H566.76L564.911 158.777L566.76 161.641H565.746L564.374 159.418L563.001 161.641H561.987L563.807 158.777L561.987 155.913H563.001Z" fill="#F9FAFB"/>
<rect width="71.25" height="35.1429" transform="translate(30 175.715)" fill="#48359A"/>
<path d="M64.2514 191.058L65.6236 193.4L66.9958 191.058H68.01L66.1605 193.922L68.01 196.785H66.9958L65.6236 194.563L64.2514 196.785H63.2372L65.0568 193.922L63.2372 191.058H64.2514Z" fill="#F9FAFB"/>
<rect width="71.25" height="35.1429" transform="translate(101.25 175.715)" fill="#7857FF"/>
<path d="M135.501 191.058L136.874 193.4L138.246 191.058H139.26L137.411 193.922L139.26 196.785H138.246L136.874 194.563L135.501 196.785H134.487L136.307 193.922L134.487 191.058H135.501Z" fill="#F9FAFB"/>
<rect width="71.25" height="35.1429" transform="translate(172.5 175.715)" fill="#EAE5FF"/>
<path d="M206.751 191.058L208.124 193.4L209.496 191.058H210.51L208.661 193.922L210.51 196.785H209.496L208.124 194.563L206.751 196.785H205.737L207.557 193.922L205.737 191.058H206.751Z" fill="#262527"/>
<rect width="71.25" height="35.1429" transform="translate(243.75 175.715)" fill="#CEC2FF"/>
<path d="M278.001 191.058L279.374 193.4L280.746 191.058H281.76L279.911 193.922L281.76 196.785H280.746L279.374 194.563L278.001 196.785H276.987L278.807 193.922L276.987 191.058H278.001Z" fill="#262527"/>
<rect width="71.25" height="35.1429" transform="translate(315 175.715)" fill="#392A7A"/>
<path d="M349.251 191.058L350.624 193.4L351.996 191.058H353.01L351.161 193.922L353.01 196.785H351.996L350.624 194.563L349.251 196.785H348.237L350.057 193.922L348.237 191.058H349.251Z" fill="#F9FAFB"/>
<rect width="71.25" height="35.1429" transform="translate(386.25 175.715)" fill="#F4F2FF"/>
<path d="M420.501 191.058L421.874 193.4L423.246 191.058H424.26L422.411 193.922L424.26 196.785H423.246L421.874 194.563L420.501 196.785H419.487L421.307 193.922L419.487 191.058H420.501Z" fill="#262527"/>
<rect width="71.25" height="35.1429" transform="translate(457.5 175.715)" fill="#9379FF"/>
<path d="M491.751 191.058L493.124 193.4L494.496 191.058H495.51L493.661 193.922L495.51 196.785H494.496L493.124 194.563L491.751 196.785H490.737L492.557 193.922L490.737 191.058H491.751Z" fill="#262527"/>
<rect width="71.25" height="35.1429" transform="translate(528.75 175.715)" fill="#48359A"/>
<path d="M563.001 191.058L564.374 193.4L565.746 191.058H566.76L564.911 193.922L566.76 196.785H565.746L564.374 194.563L563.001 196.785H561.987L563.807 193.922L561.987 191.058H563.001Z" fill="#F9FAFB"/>
<rect width="71.25" height="35.1429" transform="translate(30 210.855)" fill="#7857FF"/>
<path d="M64.2514 226.199L65.6236 228.54L66.9958 226.199H68.01L66.1605 229.062L68.01 231.926H66.9958L65.6236 229.703L64.2514 231.926H63.2372L65.0568 229.062L63.2372 226.199H64.2514Z" fill="#F9FAFB"/>
<rect width="71.25" height="35.1429" transform="translate(101.25 210.855)" fill="#6046CC"/>
<path d="M135.501 226.199L136.874 228.54L138.246 226.199H139.26L137.411 229.062L139.26 231.926H138.246L136.874 229.703L135.501 231.926H134.487L136.307 229.062L134.487 226.199H135.501Z" fill="#F9FAFB"/>
<rect width="71.25" height="35.1429" transform="translate(172.5 210.855)" fill="#7857FF"/>
<path d="M206.751 226.199L208.124 228.54L209.496 226.199H210.51L208.661 229.062L210.51 231.926H209.496L208.124 229.703L206.751 231.926H205.737L207.557 229.062L205.737 226.199H206.751Z" fill="#F9FAFB"/>
<rect width="71.25" height="35.1429" transform="translate(243.75 210.855)" fill="#AF9BFF"/>
<path d="M278.001 226.199L279.374 228.54L280.746 226.199H281.76L279.911 229.062L281.76 231.926H280.746L279.374 229.703L278.001 231.926H276.987L278.807 229.062L276.987 226.199H278.001Z" fill="#262527"/>
<rect width="71.25" height="35.1429" transform="translate(315 210.855)" fill="#6046CC"/>
<path d="M349.251 226.199L350.624 228.54L351.996 226.199H353.01L351.161 229.062L353.01 231.926H351.996L350.624 229.703L349.251 231.926H348.237L350.057 229.062L348.237 226.199H349.251Z" fill="#F9FAFB"/>
<rect width="71.25" height="35.1429" transform="translate(386.25 210.855)" fill="#392A7A"/>
<path d="M420.501 226.199L421.874 228.54L423.246 226.199H424.26L422.411 229.062L424.26 231.926H423.246L421.874 229.703L420.501 231.926H419.487L421.307 229.062L419.487 226.199H420.501Z" fill="#F9FAFB"/>
<rect width="71.25" height="35.1429" transform="translate(457.5 210.855)" fill="#7857FF"/>
<path d="M491.751 226.199L493.124 228.54L494.496 226.199H495.51L493.661 229.062L495.51 231.926H494.496L493.124 229.703L491.751 231.926H490.737L492.557 229.062L490.737 226.199H491.751Z" fill="#F9FAFB"/>
<rect width="71.25" height="35.1429" transform="translate(528.75 210.855)" fill="#2B1F5C"/>
<path d="M563.001 226.199L564.374 228.54L565.746 226.199H566.76L564.911 229.062L566.76 231.926H565.746L564.374 229.703L563.001 231.926H561.987L563.807 229.062L561.987 226.199H563.001Z" fill="#F9FAFB"/>
<g filter="url(#filter0_d_1004_17635)">
<path d="M367.811 86.6893C367.225 87.2751 367.225 88.2249 367.811 88.8107L371.25 92.25V83.25L367.811 86.6893Z" fill="white"/>
<rect x="371.25" y="63.75" width="123" height="48" rx="6" fill="white"/>
<path d="M383.646 76.0547V75.2045H388.712V76.0547H386.67V81.75H385.685V76.0547H383.646ZM390.71 78.8352V81.75H389.755V75.2045H390.698V77.6399H390.758C390.873 77.3757 391.049 77.1658 391.286 77.0103C391.522 76.8548 391.831 76.777 392.212 76.777C392.549 76.777 392.843 76.8462 393.095 76.9847C393.348 77.1232 393.544 77.3299 393.683 77.6048C393.823 77.8775 393.894 78.2184 393.894 78.6275V81.75H392.938V78.7425C392.938 78.3825 392.845 78.1033 392.66 77.9052C392.475 77.7049 392.217 77.6048 391.886 77.6048C391.661 77.6048 391.458 77.6527 391.279 77.7486C391.102 77.8445 390.963 77.9851 390.861 78.1705C390.76 78.3537 390.71 78.5753 390.71 78.8352ZM395.169 81.75V76.8409H396.124V81.75H395.169ZM395.651 76.0835C395.485 76.0835 395.342 76.0281 395.223 75.9173C395.106 75.8043 395.047 75.6701 395.047 75.5146C395.047 75.3569 395.106 75.2227 395.223 75.1119C395.342 74.9989 395.485 74.9425 395.651 74.9425C395.818 74.9425 395.959 74.9989 396.076 75.1119C396.196 75.2227 396.255 75.3569 396.255 75.5146C396.255 75.6701 396.196 75.8043 396.076 75.9173C395.959 76.0281 395.818 76.0835 395.651 76.0835ZM401.089 78.0394L400.222 78.1928C400.186 78.082 400.129 77.9766 400.05 77.8764C399.973 77.7763 399.869 77.6942 399.737 77.6303C399.605 77.5664 399.439 77.5344 399.241 77.5344C398.971 77.5344 398.745 77.5952 398.564 77.7166C398.383 77.8359 398.292 77.9904 398.292 78.18C398.292 78.3441 398.353 78.4762 398.474 78.5763C398.596 78.6765 398.792 78.7585 399.062 78.8224L399.842 79.0014C400.294 79.1058 400.631 79.2667 400.852 79.484C401.074 79.7013 401.184 79.9837 401.184 80.331C401.184 80.625 401.099 80.8871 400.929 81.1172C400.76 81.3452 400.525 81.5241 400.222 81.6541C399.922 81.7841 399.574 81.8491 399.177 81.8491C398.628 81.8491 398.179 81.7319 397.832 81.4975C397.485 81.261 397.271 80.9254 397.193 80.4908L398.116 80.3501C398.174 80.5909 398.292 80.7731 398.471 80.8967C398.65 81.0181 398.883 81.0788 399.171 81.0788C399.484 81.0788 399.735 81.0138 399.922 80.8839C400.11 80.7518 400.203 80.5909 400.203 80.4013C400.203 80.2479 400.146 80.119 400.031 80.0146C399.918 79.9102 399.744 79.8313 399.51 79.7781L398.679 79.5959C398.221 79.4915 397.882 79.3253 397.662 79.0973C397.445 78.8693 397.336 78.5806 397.336 78.2312C397.336 77.9414 397.417 77.6879 397.579 77.4705C397.741 77.2532 397.965 77.0838 398.251 76.9624C398.536 76.8388 398.863 76.777 399.232 76.777C399.762 76.777 400.18 76.892 400.485 77.1222C400.789 77.3501 400.991 77.6559 401.089 78.0394ZM404.617 81.75V76.8409H405.573V81.75H404.617ZM405.1 76.0835C404.933 76.0835 404.791 76.0281 404.671 75.9173C404.554 75.8043 404.496 75.6701 404.496 75.5146C404.496 75.3569 404.554 75.2227 404.671 75.1119C404.791 74.9989 404.933 74.9425 405.1 74.9425C405.266 74.9425 405.407 74.9989 405.525 75.1119C405.644 75.2227 405.704 75.3569 405.704 75.5146C405.704 75.6701 405.644 75.8043 405.525 75.9173C405.407 76.0281 405.266 76.0835 405.1 76.0835ZM410.537 78.0394L409.671 78.1928C409.634 78.082 409.577 77.9766 409.498 77.8764C409.421 77.7763 409.317 77.6942 409.185 77.6303C409.053 77.5664 408.888 77.5344 408.69 77.5344C408.419 77.5344 408.193 77.5952 408.012 77.7166C407.831 77.8359 407.74 77.9904 407.74 78.18C407.74 78.3441 407.801 78.4762 407.922 78.5763C408.044 78.6765 408.24 78.7585 408.511 78.8224L409.29 79.0014C409.742 79.1058 410.079 79.2667 410.3 79.484C410.522 79.7013 410.633 79.9837 410.633 80.331C410.633 80.625 410.547 80.8871 410.377 81.1172C410.209 81.3452 409.973 81.5241 409.671 81.6541C409.37 81.7841 409.022 81.8491 408.626 81.8491C408.076 81.8491 407.627 81.7319 407.28 81.4975C406.933 81.261 406.72 80.9254 406.641 80.4908L407.565 80.3501C407.622 80.5909 407.74 80.7731 407.919 80.8967C408.098 81.0181 408.332 81.0788 408.619 81.0788C408.932 81.0788 409.183 81.0138 409.37 80.8839C409.558 80.7518 409.652 80.5909 409.652 80.4013C409.652 80.2479 409.594 80.119 409.479 80.0146C409.366 79.9102 409.192 79.8313 408.958 79.7781L408.127 79.5959C407.669 79.4915 407.33 79.3253 407.111 79.0973C406.893 78.8693 406.785 78.5806 406.785 78.2312C406.785 77.9414 406.866 77.6879 407.028 77.4705C407.19 77.2532 407.413 77.0838 407.699 76.9624C407.984 76.8388 408.311 76.777 408.68 76.777C409.21 76.777 409.628 76.892 409.933 77.1222C410.237 77.3501 410.439 77.6559 410.537 78.0394ZM416.357 76.8409V77.608H413.675V76.8409H416.357ZM414.394 75.6648H415.35V80.3086C415.35 80.494 415.378 80.6335 415.433 80.7273C415.489 80.8189 415.56 80.8817 415.647 80.9158C415.737 80.9478 415.834 80.9638 415.938 80.9638C416.015 80.9638 416.082 80.9585 416.139 80.9478C416.197 80.9371 416.242 80.9286 416.274 80.9222L416.446 81.7116C416.391 81.733 416.312 81.7543 416.21 81.7756C416.108 81.799 415.98 81.8118 415.826 81.8139C415.575 81.8182 415.34 81.7734 415.123 81.6797C414.906 81.5859 414.73 81.4411 414.596 81.245C414.462 81.049 414.394 80.8029 414.394 80.5067V75.6648ZM418.475 78.8352V81.75H417.519V75.2045H418.462V77.6399H418.523C418.638 77.3757 418.814 77.1658 419.05 77.0103C419.287 76.8548 419.596 76.777 419.977 76.777C420.314 76.777 420.608 76.8462 420.859 76.9847C421.113 77.1232 421.309 77.3299 421.447 77.6048C421.588 77.8775 421.658 78.2184 421.658 78.6275V81.75H420.703V78.7425C420.703 78.3825 420.61 78.1033 420.425 77.9052C420.239 77.7049 419.981 77.6048 419.651 77.6048C419.425 77.6048 419.223 77.6527 419.044 77.7486C418.867 77.8445 418.727 77.9851 418.625 78.1705C418.525 78.3537 418.475 78.5753 418.475 78.8352ZM425.049 81.8491C424.566 81.8491 424.149 81.7457 423.8 81.5391C423.452 81.3303 423.184 81.0373 422.994 80.6602C422.807 80.2809 422.713 79.8366 422.713 79.3274C422.713 78.8246 422.807 78.3814 422.994 77.9979C423.184 77.6143 423.448 77.315 423.787 77.0998C424.128 76.8846 424.526 76.777 424.982 76.777C425.259 76.777 425.528 76.8228 425.787 76.9144C426.047 77.006 426.281 77.1499 426.487 77.3459C426.694 77.5419 426.857 77.7965 426.976 78.1097C427.096 78.4208 427.155 78.799 427.155 79.2443V79.5831H423.253V78.8672H426.219C426.219 78.6158 426.168 78.3931 426.066 78.1992C425.963 78.0032 425.819 77.8487 425.634 77.7358C425.451 77.6229 425.236 77.5664 424.988 77.5664C424.72 77.5664 424.486 77.6325 424.285 77.7646C424.087 77.8945 423.934 78.065 423.825 78.2759C423.719 78.4847 423.665 78.7116 423.665 78.9567V79.516C423.665 79.8441 423.723 80.1232 423.838 80.3533C423.955 80.5835 424.118 80.7592 424.327 80.8807C424.536 81 424.78 81.0597 425.059 81.0597C425.24 81.0597 425.405 81.0341 425.554 80.983C425.703 80.9297 425.832 80.8509 425.941 80.7464C426.05 80.642 426.133 80.5131 426.19 80.3597L427.095 80.5227C427.022 80.7891 426.892 81.0224 426.705 81.2227C426.519 81.4208 426.286 81.5753 426.005 81.6861C425.726 81.7947 425.407 81.8491 425.049 81.8491ZM432.889 76.8409V77.608H430.208V76.8409H432.889ZM430.927 75.6648H431.882V80.3086C431.882 80.494 431.91 80.6335 431.965 80.7273C432.021 80.8189 432.092 80.8817 432.18 80.9158C432.269 80.9478 432.366 80.9638 432.47 80.9638C432.547 80.9638 432.614 80.9585 432.672 80.9478C432.729 80.9371 432.774 80.9286 432.806 80.9222L432.979 81.7116C432.923 81.733 432.844 81.7543 432.742 81.7756C432.64 81.799 432.512 81.8118 432.358 81.8139C432.107 81.8182 431.873 81.7734 431.655 81.6797C431.438 81.5859 431.262 81.4411 431.128 81.245C430.994 81.049 430.927 80.8029 430.927 80.5067V75.6648ZM435.961 81.8491C435.501 81.8491 435.099 81.7436 434.756 81.5327C434.413 81.3217 434.147 81.0266 433.957 80.6474C433.768 80.2681 433.673 79.8249 433.673 79.3178C433.673 78.8086 433.768 78.3633 433.957 77.9819C434.147 77.6005 434.413 77.3043 434.756 77.0934C435.099 76.8825 435.501 76.777 435.961 76.777C436.421 76.777 436.823 76.8825 437.166 77.0934C437.509 77.3043 437.775 77.6005 437.965 77.9819C438.155 78.3633 438.25 78.8086 438.25 79.3178C438.25 79.8249 438.155 80.2681 437.965 80.6474C437.775 81.0266 437.509 81.3217 437.166 81.5327C436.823 81.7436 436.421 81.8491 435.961 81.8491ZM435.964 81.0469C436.263 81.0469 436.51 80.968 436.706 80.8104C436.902 80.6527 437.047 80.4428 437.141 80.1808C437.236 79.9187 437.284 79.63 437.284 79.3146C437.284 79.0014 437.236 78.7138 437.141 78.4517C437.047 78.1875 436.902 77.9755 436.706 77.8157C436.51 77.6559 436.263 77.576 435.964 77.576C435.664 77.576 435.415 77.6559 435.217 77.8157C435.021 77.9755 434.875 78.1875 434.779 78.4517C434.685 78.7138 434.638 79.0014 434.638 79.3146C434.638 79.63 434.685 79.9187 434.779 80.1808C434.875 80.4428 435.021 80.6527 435.217 80.8104C435.415 80.968 435.664 81.0469 435.964 81.0469ZM441.384 81.8491C440.924 81.8491 440.522 81.7436 440.179 81.5327C439.836 81.3217 439.57 81.0266 439.38 80.6474C439.191 80.2681 439.096 79.8249 439.096 79.3178C439.096 78.8086 439.191 78.3633 439.38 77.9819C439.57 77.6005 439.836 77.3043 440.179 77.0934C440.522 76.8825 440.924 76.777 441.384 76.777C441.844 76.777 442.246 76.8825 442.589 77.0934C442.932 77.3043 443.198 77.6005 443.388 77.9819C443.578 78.3633 443.672 78.8086 443.672 79.3178C443.672 79.8249 443.578 80.2681 443.388 80.6474C443.198 81.0266 442.932 81.3217 442.589 81.5327C442.246 81.7436 441.844 81.8491 441.384 81.8491ZM441.387 81.0469C441.686 81.0469 441.933 80.968 442.129 80.8104C442.325 80.6527 442.47 80.4428 442.563 80.1808C442.659 79.9187 442.707 79.63 442.707 79.3146C442.707 79.0014 442.659 78.7138 442.563 78.4517C442.47 78.1875 442.325 77.9755 442.129 77.8157C441.933 77.6559 441.686 77.576 441.387 77.576C441.087 77.576 440.838 77.6559 440.639 77.8157C440.443 77.9755 440.297 78.1875 440.202 78.4517C440.108 78.7138 440.061 79.0014 440.061 79.3146C440.061 79.63 440.108 79.9187 440.202 80.1808C440.297 80.4428 440.443 80.6527 440.639 80.8104C440.838 80.968 441.087 81.0469 441.387 81.0469ZM445.695 75.2045V81.75H444.739V75.2045H445.695ZM449.272 76.8409V77.608H446.59V76.8409H449.272ZM447.309 75.6648H448.265V80.3086C448.265 80.494 448.293 80.6335 448.348 80.7273C448.404 80.8189 448.475 80.8817 448.562 80.9158C448.652 80.9478 448.749 80.9638 448.853 80.9638C448.93 80.9638 448.997 80.9585 449.055 80.9478C449.112 80.9371 449.157 80.9286 449.189 80.9222L449.361 81.7116C449.306 81.733 449.227 81.7543 449.125 81.7756C449.023 81.799 448.895 81.8118 448.741 81.8139C448.49 81.8182 448.256 81.7734 448.038 81.6797C447.821 81.5859 447.645 81.4411 447.511 81.245C447.377 81.049 447.309 80.8029 447.309 80.5067V75.6648ZM450.329 81.75V76.8409H451.285V81.75H450.329ZM450.812 76.0835C450.645 76.0835 450.503 76.0281 450.383 75.9173C450.266 75.8043 450.207 75.6701 450.207 75.5146C450.207 75.3569 450.266 75.2227 450.383 75.1119C450.503 74.9989 450.645 74.9425 450.812 74.9425C450.978 74.9425 451.119 74.9989 451.237 75.1119C451.356 75.2227 451.416 75.3569 451.416 75.5146C451.416 75.6701 451.356 75.8043 451.237 75.9173C451.119 76.0281 450.978 76.0835 450.812 76.0835ZM452.57 83.5909V76.8409H453.503V77.6367H453.583C453.639 77.5344 453.719 77.4162 453.823 77.282C453.927 77.1477 454.072 77.0305 454.258 76.9304C454.443 76.8281 454.688 76.777 454.993 76.777C455.389 76.777 455.743 76.8771 456.054 77.0774C456.365 77.2777 456.609 77.5664 456.786 77.9435C456.965 78.3207 457.054 78.7745 457.054 79.305C457.054 79.8356 456.966 80.2905 456.789 80.6697C456.612 81.0469 456.369 81.3377 456.06 81.5423C455.751 81.7447 455.399 81.8459 455.002 81.8459C454.704 81.8459 454.46 81.7958 454.27 81.6957C454.083 81.5955 453.936 81.4783 453.829 81.3441C453.723 81.2099 453.641 81.0906 453.583 80.9862H453.526V83.5909H452.57ZM453.507 79.2955C453.507 79.6406 453.557 79.9432 453.657 80.2031C453.757 80.4631 453.902 80.6665 454.091 80.8136C454.281 80.9585 454.513 81.0309 454.788 81.0309C455.074 81.0309 455.312 80.9553 455.504 80.804C455.696 80.6506 455.841 80.4428 455.939 80.1808C456.039 79.9187 456.089 79.6236 456.089 79.2955C456.089 78.9716 456.04 78.6808 455.942 78.4229C455.846 78.1651 455.701 77.9616 455.507 77.8125C455.316 77.6634 455.076 77.5888 454.788 77.5888C454.511 77.5888 454.277 77.6602 454.085 77.8029C453.895 77.9457 453.752 78.1449 453.654 78.4006C453.556 78.6562 453.507 78.9545 453.507 79.2955ZM462.798 76.8409V77.608H460.117V76.8409H462.798ZM460.836 75.6648H461.791V80.3086C461.791 80.494 461.819 80.6335 461.875 80.7273C461.93 80.8189 462.001 80.8817 462.089 80.9158C462.178 80.9478 462.275 80.9638 462.38 80.9638C462.456 80.9638 462.523 80.9585 462.581 80.9478C462.638 80.9371 462.683 80.9286 462.715 80.9222L462.888 81.7116C462.832 81.733 462.753 81.7543 462.651 81.7756C462.549 81.799 462.421 81.8118 462.268 81.8139C462.016 81.8182 461.782 81.7734 461.565 81.6797C461.347 81.5859 461.171 81.4411 461.037 81.245C460.903 81.049 460.836 80.8029 460.836 80.5067V75.6648ZM463.855 81.75V76.8409H464.811V81.75H463.855ZM464.338 76.0835C464.172 76.0835 464.029 76.0281 463.91 75.9173C463.792 75.8043 463.734 75.6701 463.734 75.5146C463.734 75.3569 463.792 75.2227 463.91 75.1119C464.029 74.9989 464.172 74.9425 464.338 74.9425C464.504 74.9425 464.646 74.9989 464.763 75.1119C464.882 75.2227 464.942 75.3569 464.942 75.5146C464.942 75.6701 464.882 75.8043 464.763 75.9173C464.646 76.0281 464.504 76.0835 464.338 76.0835ZM468.388 76.8409V77.608H465.707V76.8409H468.388ZM466.426 75.6648H467.381V80.3086C467.381 80.494 467.409 80.6335 467.464 80.7273C467.52 80.8189 467.591 80.8817 467.679 80.9158C467.768 80.9478 467.865 80.9638 467.969 80.9638C468.046 80.9638 468.113 80.9585 468.171 80.9478C468.228 80.9371 468.273 80.9286 468.305 80.9222L468.478 81.7116C468.422 81.733 468.343 81.7543 468.241 81.7756C468.139 81.799 468.011 81.8118 467.858 81.8139C467.606 81.8182 467.372 81.7734 467.154 81.6797C466.937 81.5859 466.761 81.4411 466.627 81.245C466.493 81.049 466.426 80.8029 466.426 80.5067V75.6648ZM470.506 75.2045V81.75H469.551V75.2045H470.506ZM473.908 81.8491C473.424 81.8491 473.007 81.7457 472.658 81.5391C472.311 81.3303 472.042 81.0373 471.853 80.6602C471.665 80.2809 471.571 79.8366 471.571 79.3274C471.571 78.8246 471.665 78.3814 471.853 77.9979C472.042 77.6143 472.306 77.315 472.645 77.0998C472.986 76.8846 473.384 76.777 473.84 76.777C474.117 76.777 474.386 76.8228 474.646 76.9144C474.906 77.006 475.139 77.1499 475.346 77.3459C475.552 77.5419 475.715 77.7965 475.835 78.1097C475.954 78.4208 476.014 78.799 476.014 79.2443V79.5831H472.111V78.8672H475.077C475.077 78.6158 475.026 78.3931 474.924 78.1992C474.822 78.0032 474.678 77.8487 474.492 77.7358C474.309 77.6229 474.094 77.5664 473.847 77.5664C473.578 77.5664 473.344 77.6325 473.144 77.7646C472.946 77.8945 472.792 78.065 472.684 78.2759C472.577 78.4847 472.524 78.7116 472.524 78.9567V79.516C472.524 79.8441 472.581 80.1232 472.696 80.3533C472.813 80.5835 472.976 80.7592 473.185 80.8807C473.394 81 473.638 81.0597 473.917 81.0597C474.098 81.0597 474.263 81.0341 474.413 80.983C474.562 80.9297 474.691 80.8509 474.799 80.7464C474.908 80.642 474.991 80.5131 475.049 80.3597L475.953 80.5227C475.881 80.7891 475.751 81.0224 475.563 81.2227C475.378 81.4208 475.144 81.5753 474.863 81.6861C474.584 81.7947 474.266 81.8491 473.908 81.8491Z" fill="#262527"/>
<rect x="384.75" y="92.25" width="9" height="9" rx="0.75" fill="#7857FF"/>
<path d="M404.062 100.25H402.043V93.7045H404.152C404.787 93.7045 405.33 93.8356 405.782 94.0977C406.234 94.3576 406.58 94.7315 406.821 95.2195C407.061 95.7053 407.182 96.2869 407.182 96.9645C407.182 97.6463 407.06 98.2333 406.817 98.7255C406.575 99.2156 406.221 99.5927 405.756 99.8569C405.292 100.119 404.727 100.25 404.062 100.25ZM402.835 99.5469H404.011C404.553 99.5469 405.001 99.4425 405.357 99.2337C405.713 99.0249 405.978 98.7276 406.153 98.342C406.327 97.9563 406.415 97.4972 406.415 96.9645C406.415 96.4361 406.328 95.9812 406.156 95.5998C405.983 95.2163 405.725 94.9222 405.382 94.7177C405.039 94.511 404.612 94.4077 404.101 94.4077H402.835V99.5469ZM409.854 100.365C409.543 100.365 409.26 100.306 409.007 100.189C408.753 100.07 408.552 99.8984 408.403 99.6747C408.254 99.4489 408.179 99.1761 408.179 98.8565C408.179 98.5753 408.234 98.3473 408.345 98.1726C408.456 97.9957 408.604 97.8572 408.789 97.7571C408.975 97.657 409.179 97.5824 409.403 97.5334C409.629 97.4822 409.856 97.4418 410.084 97.4119C410.382 97.3736 410.624 97.3448 410.809 97.3256C410.997 97.3043 411.133 97.2692 411.218 97.2202C411.306 97.1712 411.349 97.0859 411.349 96.9645V96.9389C411.349 96.6236 411.263 96.3786 411.091 96.2038C410.92 96.0291 410.661 95.9418 410.314 95.9418C409.954 95.9418 409.672 96.0206 409.467 96.1783C409.262 96.3359 409.119 96.5043 409.036 96.6832L408.32 96.4276C408.447 96.1293 408.618 95.897 408.831 95.7308C409.046 95.5625 409.281 95.4453 409.534 95.3793C409.79 95.3111 410.041 95.277 410.288 95.277C410.446 95.277 410.627 95.2962 410.832 95.3345C411.038 95.3707 411.238 95.4464 411.429 95.5614C411.623 95.6765 411.784 95.8501 411.912 96.0824C412.04 96.3146 412.104 96.6257 412.104 97.0156V100.25H411.349V99.5852H411.311C411.26 99.6918 411.175 99.8058 411.055 99.9272C410.936 100.049 410.777 100.152 410.579 100.237C410.381 100.322 410.139 100.365 409.854 100.365ZM409.969 99.6875C410.267 99.6875 410.518 99.6289 410.723 99.5117C410.93 99.3945 411.085 99.2433 411.19 99.0579C411.296 98.8725 411.349 98.6776 411.349 98.473V97.7827C411.317 97.821 411.247 97.8562 411.138 97.8881C411.032 97.918 410.908 97.9446 410.768 97.968C410.629 97.9893 410.494 98.0085 410.362 98.0256C410.232 98.0405 410.126 98.0533 410.045 98.0639C409.849 98.0895 409.666 98.131 409.496 98.1886C409.327 98.244 409.191 98.3281 409.087 98.4411C408.984 98.5518 408.933 98.7031 408.933 98.8949C408.933 99.157 409.03 99.3551 409.224 99.4893C409.42 99.6214 409.668 99.6875 409.969 99.6875ZM415.615 95.3409V95.9801H413.071V95.3409H415.615ZM413.813 94.1648H414.567V98.8438C414.567 99.0568 414.598 99.2166 414.66 99.3232C414.724 99.4276 414.805 99.4979 414.903 99.5341C415.003 99.5682 415.108 99.5852 415.219 99.5852C415.302 99.5852 415.37 99.581 415.424 99.5724C415.477 99.5618 415.519 99.5533 415.551 99.5469L415.705 100.224C415.654 100.244 415.582 100.263 415.491 100.282C415.399 100.303 415.283 100.314 415.142 100.314C414.929 100.314 414.72 100.268 414.516 100.176C414.313 100.085 414.145 99.9453 414.011 99.7578C413.879 99.5703 413.813 99.3338 413.813 99.0483V94.1648ZM418.195 100.365C417.883 100.365 417.601 100.306 417.348 100.189C417.094 100.07 416.893 99.8984 416.744 99.6747C416.594 99.4489 416.52 99.1761 416.52 98.8565C416.52 98.5753 416.575 98.3473 416.686 98.1726C416.797 97.9957 416.945 97.8572 417.13 97.7571C417.316 97.657 417.52 97.5824 417.744 97.5334C417.97 97.4822 418.197 97.4418 418.425 97.4119C418.723 97.3736 418.965 97.3448 419.15 97.3256C419.338 97.3043 419.474 97.2692 419.559 97.2202C419.647 97.1712 419.69 97.0859 419.69 96.9645V96.9389C419.69 96.6236 419.604 96.3786 419.431 96.2038C419.261 96.0291 419.002 95.9418 418.655 95.9418C418.295 95.9418 418.012 96.0206 417.808 96.1783C417.603 96.3359 417.459 96.5043 417.376 96.6832L416.66 96.4276C416.788 96.1293 416.959 95.897 417.172 95.7308C417.387 95.5625 417.621 95.4453 417.875 95.3793C418.131 95.3111 418.382 95.277 418.629 95.277C418.787 95.277 418.968 95.2962 419.172 95.3345C419.379 95.3707 419.578 95.4464 419.77 95.5614C419.964 95.6765 420.125 95.8501 420.253 96.0824C420.381 96.3146 420.445 96.6257 420.445 97.0156V100.25H419.69V99.5852H419.652C419.601 99.6918 419.516 99.8058 419.396 99.9272C419.277 100.049 419.118 100.152 418.92 100.237C418.722 100.322 418.48 100.365 418.195 100.365ZM418.31 99.6875C418.608 99.6875 418.859 99.6289 419.064 99.5117C419.271 99.3945 419.426 99.2433 419.53 99.0579C419.637 98.8725 419.69 98.6776 419.69 98.473V97.7827C419.658 97.821 419.588 97.8562 419.479 97.8881C419.373 97.918 419.249 97.9446 419.109 97.968C418.97 97.9893 418.835 98.0085 418.703 98.0256C418.573 98.0405 418.467 98.0533 418.386 98.0639C418.19 98.0895 418.007 98.131 417.837 98.1886C417.668 98.244 417.532 98.3281 417.427 98.4411C417.325 98.5518 417.274 98.7031 417.274 98.8949C417.274 99.157 417.371 99.3551 417.565 99.4893C417.761 99.6214 418.009 99.6875 418.31 99.6875ZM424.723 100.25H423.892L426.296 93.7045H427.114L429.517 100.25H428.686L426.73 94.7401H426.679L424.723 100.25ZM425.03 97.6932H428.379V98.3963H425.03V97.6932Z" fill="#262527"/>
<path d="M478.503 95.3409L479.679 97.348L480.855 95.3409H481.724L480.139 97.7955L481.724 100.25H480.855L479.679 98.3452L478.503 100.25H477.634L479.193 97.7955L477.634 95.3409H478.503Z" fill="#262527"/>
</g>
<path d="M30 246.375H101.25V245.625H30V246.375Z" fill="#D7D7D7"/>
<path d="M65.625 246L65.625 249" stroke="#D7D7D7" stroke-width="0.75"/>
<path d="M64.4477 256.091L65.6238 258.098L66.7999 256.091H67.6693L66.084 258.545L67.6693 261H66.7999L65.6238 259.095L64.4477 261H63.5783L65.138 258.545L63.5783 256.091H64.4477Z" fill="#262527"/>
<path d="M101.25 246.375H172.5V245.625H101.25V246.375Z" fill="#D7D7D7"/>
<path d="M136.875 246L136.875 249" stroke="#D7D7D7" stroke-width="0.75"/>
<path d="M135.698 256.091L136.874 258.098L138.05 256.091H138.919L137.334 258.545L138.919 261H138.05L136.874 259.095L135.698 261H134.828L136.388 258.545L134.828 256.091H135.698Z" fill="#262527"/>
<path d="M172.5 246.375H243.75V245.625H172.5V246.375Z" fill="#D7D7D7"/>
<path d="M208.125 246L208.125 249" stroke="#D7D7D7" stroke-width="0.75"/>
<path d="M206.948 256.091L208.124 258.098L209.3 256.091H210.169L208.584 258.545L210.169 261H209.3L208.124 259.095L206.948 261H206.078L207.638 258.545L206.078 256.091H206.948Z" fill="#262527"/>
<path d="M243.75 246.375H315V245.625H243.75V246.375Z" fill="#D7D7D7"/>
<path d="M279.375 246L279.375 249" stroke="#D7D7D7" stroke-width="0.75"/>
<path d="M278.198 256.091L279.374 258.098L280.55 256.091H281.419L279.834 258.545L281.419 261H280.55L279.374 259.095L278.198 261H277.328L278.888 258.545L277.328 256.091H278.198Z" fill="#262527"/>
<path d="M315 246.375H386.25V245.625H315V246.375Z" fill="#D7D7D7"/>
<path d="M350.625 246L350.625 249" stroke="#D7D7D7" stroke-width="0.75"/>
<path d="M349.448 256.091L350.624 258.098L351.8 256.091H352.669L351.084 258.545L352.669 261H351.8L350.624 259.095L349.448 261H348.578L350.138 258.545L348.578 256.091H349.448Z" fill="#262527"/>
<path d="M386.25 246.375H457.5V245.625H386.25V246.375Z" fill="#D7D7D7"/>
<path d="M421.875 246L421.875 249" stroke="#D7D7D7" stroke-width="0.75"/>
<path d="M420.698 256.091L421.874 258.098L423.05 256.091H423.919L422.334 258.545L423.919 261H423.05L421.874 259.095L420.698 261H419.828L421.388 258.545L419.828 256.091H420.698Z" fill="#262527"/>
<path d="M457.5 246.375H528.75V245.625H457.5V246.375Z" fill="#D7D7D7"/>
<path d="M493.125 246L493.125 249" stroke="#D7D7D7" stroke-width="0.75"/>
<path d="M491.948 256.091L493.124 258.098L494.3 256.091H495.169L493.584 258.545L495.169 261H494.3L493.124 259.095L491.948 261H491.078L492.638 258.545L491.078 256.091H491.948Z" fill="#262527"/>
<path d="M528.75 246.375H600V245.625H528.75V246.375Z" fill="#D7D7D7"/>
<path d="M564.375 246L564.375 249" stroke="#D7D7D7" stroke-width="0.75"/>
<path d="M563.198 256.091L564.374 258.098L565.55 256.091H566.419L564.834 258.545L566.419 261H565.55L564.374 259.095L563.198 261H562.328L563.888 258.545L562.328 256.091H563.198Z" fill="#262527"/>
<mask id="path-95-inside-1_1004_17635" fill="white">
<path d="M0 0H30V35.1429H0V0Z"/>
</mask>
<path d="M29.25 0V35.1429H30.75V0H29.25Z" fill="#D7D7D7" mask="url(#path-95-inside-1_1004_17635)"/>
<path d="M18.8925 16.1612L20.0686 18.1683L21.2448 16.1612H22.1141L20.5289 18.6158L22.1141 21.0703H21.2448L20.0686 19.1655L18.8925 21.0703H18.0232L19.5828 18.6158L18.0232 16.1612H18.8925Z" fill="#262527"/>
<path d="M30 17.5703H27" stroke="#D7D7D7" stroke-width="0.75"/>
<mask id="path-99-inside-2_1004_17635" fill="white">
<path d="M0 35.1445H30V70.2874H0V35.1445Z"/>
</mask>
<path d="M29.25 35.1445V70.2874H30.75V35.1445H29.25Z" fill="#D7D7D7" mask="url(#path-99-inside-2_1004_17635)"/>
<path d="M18.8925 51.3058L20.0686 53.3129L21.2448 51.3058H22.1141L20.5289 53.7603L22.1141 56.2148H21.2448L20.0686 54.31L18.8925 56.2148H18.0232L19.5828 53.7603L18.0232 51.3058H18.8925Z" fill="#262527"/>
<path d="M30 52.7148H27" stroke="#D7D7D7" stroke-width="0.75"/>
<mask id="path-103-inside-3_1004_17635" fill="white">
<path d="M0 70.2852H30V105.428H0V70.2852Z"/>
</mask>
<path d="M29.25 70.2852V105.428H30.75V70.2852H29.25Z" fill="#D7D7D7" mask="url(#path-103-inside-3_1004_17635)"/>
<path d="M18.8925 86.4464L20.0686 88.4535L21.2448 86.4464H22.1141L20.5289 88.9009L22.1141 91.3555H21.2448L20.0686 89.4506L18.8925 91.3555H18.0232L19.5828 88.9009L18.0232 86.4464H18.8925Z" fill="#262527"/>
<path d="M30 87.8555H27" stroke="#D7D7D7" stroke-width="0.75"/>
<mask id="path-107-inside-4_1004_17635" fill="white">
<path d="M0 105.43H30V140.573H0V105.43Z"/>
</mask>
<path d="M29.25 105.43V140.573H30.75V105.43H29.25Z" fill="#D7D7D7" mask="url(#path-107-inside-4_1004_17635)"/>
<path d="M18.8925 121.591L20.0686 123.598L21.2448 121.591H22.1141L20.5289 124.045L22.1141 126.5H21.2448L20.0686 124.595L18.8925 126.5H18.0232L19.5828 124.045L18.0232 121.591H18.8925Z" fill="#262527"/>
<path d="M30 123H27" stroke="#D7D7D7" stroke-width="0.75"/>
<mask id="path-111-inside-5_1004_17635" fill="white">
<path d="M0 140.57H30V175.713H0V140.57Z"/>
</mask>
<path d="M29.25 140.57V175.713H30.75V140.57H29.25Z" fill="#D7D7D7" mask="url(#path-111-inside-5_1004_17635)"/>
<path d="M18.8925 156.732L20.0686 158.739L21.2448 156.732H22.1141L20.5289 159.186L22.1141 161.641H21.2448L20.0686 159.736L18.8925 161.641H18.0232L19.5828 159.186L18.0232 156.732H18.8925Z" fill="#262527"/>
<path d="M30 158.141H27" stroke="#D7D7D7" stroke-width="0.75"/>
<mask id="path-115-inside-6_1004_17635" fill="white">
<path d="M0 175.715H30V210.858H0V175.715Z"/>
</mask>
<path d="M29.25 175.715V210.858H30.75V175.715H29.25Z" fill="#D7D7D7" mask="url(#path-115-inside-6_1004_17635)"/>
<path d="M18.8925 191.876L20.0686 193.883L21.2448 191.876H22.1141L20.5289 194.331L22.1141 196.785H21.2448L20.0686 194.88L18.8925 196.785H18.0232L19.5828 194.331L18.0232 191.876H18.8925Z" fill="#262527"/>
<path d="M30 193.285H27" stroke="#D7D7D7" stroke-width="0.75"/>
<mask id="path-119-inside-7_1004_17635" fill="white">
<path d="M0 210.855H30V245.998H0V210.855Z"/>
</mask>
<path d="M29.25 210.855V245.998H30.75V210.855H29.25Z" fill="#D7D7D7" mask="url(#path-119-inside-7_1004_17635)"/>
<path d="M18.8925 227.017L20.0686 229.024L21.2448 227.017H22.1141L20.5289 229.471L22.1141 231.926H21.2448L20.0686 230.021L18.8925 231.926H18.0232L19.5828 229.471L18.0232 227.017H18.8925Z" fill="#262527"/>
<path d="M30 228.426H27" stroke="#D7D7D7" stroke-width="0.75"/>
<defs>
<filter id="filter0_d_1004_17635" x="363.75" y="60.75" width="133.5" height="54" filterUnits="userSpaceOnUse" color-interpolation-filters="sRGB">
<feFlood flood-opacity="0" result="BackgroundImageFix"/>
<feColorMatrix in="SourceAlpha" type="matrix" values="0 0 0 0 0 0 0 0 0 0 0 0 0 0 0 0 0 0 127 0" result="hardAlpha"/>
<feMorphology radius="3" operator="erode" in="SourceAlpha" result="effect1_dropShadow_1004_17635"/>
<feOffset/>
<feGaussianBlur stdDeviation="3"/>
<feColorMatrix type="matrix" values="0 0 0 0 0 0 0 0 0 0 0 0 0 0 0 0 0 0 0.15 0"/>
<feBlend mode="normal" in2="BackgroundImageFix" result="effect1_dropShadow_1004_17635"/>
<feBlend mode="normal" in="SourceGraphic" in2="effect1_dropShadow_1004_17635" result="shape"/>
</filter>
</defs>
</svg>
