<svg width="516" height="405" viewBox="0 0 516 405" fill="none" xmlns="http://www.w3.org/2000/svg">
<g filter="url(#filter0_d_958_20853)">
<g clip-path="url(#clip0_958_20853)">
<rect x="8" y="7" width="500" height="389.482" rx="6.09756" fill="white"/>
<rect x="8" y="7" width="500" height="389.482" rx="6.09756" fill="white"/>
</g>
</g>
<line x1="72.4045" y1="57.6853" x2="483.228" y2="57.6853" stroke="#D3D6DF" stroke-width="0.762195" stroke-linecap="square" stroke-dasharray="1.52 1.52"/>
<line x1="72.4045" y1="101.892" x2="483.228" y2="101.892" stroke="#D3D6DF" stroke-width="0.762195" stroke-linecap="square" stroke-dasharray="1.52 1.52"/>
<line x1="72.4045" y1="146.099" x2="483.228" y2="146.099" stroke="#D3D6DF" stroke-width="0.762195" stroke-linecap="square" stroke-dasharray="1.52 1.52"/>
<line x1="72.4045" y1="190.306" x2="483.228" y2="190.306" stroke="#D3D6DF" stroke-width="0.762195" stroke-linecap="square" stroke-dasharray="1.52 1.52"/>
<line x1="72.4045" y1="234.513" x2="483.228" y2="234.513" stroke="#D3D6DF" stroke-width="0.762195" stroke-linecap="square" stroke-dasharray="1.52 1.52"/>
<line x1="72.4045" y1="278.72" x2="483.228" y2="278.72" stroke="#D3D6DF" stroke-width="0.762195" stroke-linecap="square" stroke-dasharray="1.52 1.52"/>
<line x1="72.4045" y1="322.927" x2="483.228" y2="322.927" stroke="#D3D6DF" stroke-width="0.762195" stroke-linecap="square" stroke-dasharray="1.52 1.52"/>
<line x1="76.9788" y1="59.9709" x2="76.9788" y2="321.404" stroke="#D3D6DF" stroke-width="0.762195" stroke-linecap="square" stroke-dasharray="1.52 1.52"/>
<line x1="134.143" y1="59.9709" x2="134.143" y2="321.404" stroke="#D3D6DF" stroke-width="0.762195" stroke-linecap="square" stroke-dasharray="1.52 1.52"/>
<line x1="191.309" y1="59.9709" x2="191.309" y2="321.404" stroke="#D3D6DF" stroke-width="0.762195" stroke-linecap="square" stroke-dasharray="1.52 1.52"/>
<line x1="248.473" y1="59.9709" x2="248.473" y2="321.404" stroke="#D3D6DF" stroke-width="0.762195" stroke-linecap="square" stroke-dasharray="1.52 1.52"/>
<line x1="305.637" y1="59.5898" x2="305.637" y2="321.785" stroke="#3347E6" stroke-width="0.762195"/>
<line x1="362.801" y1="59.9709" x2="362.801" y2="321.404" stroke="#D3D6DF" stroke-width="0.762195" stroke-linecap="square" stroke-dasharray="1.52 1.52"/>
<line x1="419.967" y1="59.9709" x2="419.967" y2="321.404" stroke="#D3D6DF" stroke-width="0.762195" stroke-linecap="square" stroke-dasharray="1.52 1.52"/>
<line x1="477.131" y1="59.9709" x2="477.131" y2="321.404" stroke="#D3D6DF" stroke-width="0.762195" stroke-linecap="square" stroke-dasharray="1.52 1.52"/>
<path d="M73.6197 340.556C73.14 340.556 72.7091 340.467 72.327 340.288C71.9449 340.101 71.6441 339.845 71.4245 339.52C71.205 339.195 71.0953 338.829 71.0953 338.422C71.0953 338.081 71.1684 337.776 71.3148 337.508C71.4611 337.239 71.6481 337.004 71.8758 336.8C72.1034 336.597 72.3392 336.43 72.5831 336.3V336.252C72.2985 336.048 72.0424 335.8 71.8148 335.508C71.5953 335.215 71.4855 334.865 71.4855 334.459C71.4855 334.061 71.579 333.715 71.766 333.422C71.9611 333.122 72.2213 332.89 72.5465 332.727C72.8717 332.565 73.2376 332.483 73.6441 332.483C74.327 332.483 74.8595 332.678 75.2416 333.069C75.6319 333.451 75.827 333.943 75.827 334.544C75.827 334.821 75.766 335.081 75.6441 335.325C75.5302 335.561 75.388 335.776 75.2172 335.971C75.0546 336.166 74.8961 336.325 74.7416 336.447V336.496C74.9693 336.634 75.1847 336.792 75.388 336.971C75.5993 337.142 75.7701 337.353 75.9002 337.605C76.0302 337.849 76.0953 338.142 76.0953 338.483C76.0953 338.874 75.9936 339.223 75.7904 339.532C75.5871 339.841 75.2985 340.089 74.9245 340.276C74.5506 340.463 74.1156 340.556 73.6197 340.556ZM73.6441 339.886C73.9611 339.886 74.2376 339.825 74.4733 339.703C74.7172 339.581 74.9042 339.414 75.0343 339.203C75.1725 338.983 75.2416 338.739 75.2416 338.471C75.2416 338.113 75.14 337.825 74.9367 337.605C74.7335 337.386 74.4652 337.199 74.1319 337.044C73.8067 336.89 73.4489 336.735 73.0587 336.581C72.7335 336.792 72.4571 337.044 72.2294 337.337C72.0099 337.63 71.9002 337.967 71.9002 338.349C71.9002 338.642 71.9733 338.906 72.1197 339.142C72.2741 339.37 72.4815 339.552 72.7416 339.691C73.0099 339.821 73.3107 339.886 73.6441 339.886ZM74.1684 336.215C74.453 335.963 74.6684 335.703 74.8148 335.435C74.9693 335.166 75.0465 334.882 75.0465 334.581C75.0465 334.321 74.9896 334.085 74.8758 333.874C74.7701 333.654 74.6115 333.479 74.4002 333.349C74.1888 333.219 73.9327 333.154 73.6319 333.154C73.2497 333.154 72.9327 333.276 72.6806 333.52C72.4367 333.756 72.3148 334.069 72.3148 334.459C72.3148 334.784 72.4002 335.052 72.5709 335.264C72.7497 335.475 72.9815 335.654 73.266 335.8C73.5506 335.947 73.8514 336.085 74.1684 336.215ZM79.5976 340.556C78.8333 340.556 78.2317 340.207 77.7927 339.508C77.3618 338.8 77.1463 337.796 77.1463 336.496C77.1463 335.187 77.3618 334.191 77.7927 333.508C78.2317 332.825 78.8333 332.483 79.5976 332.483C80.3699 332.483 80.9715 332.829 81.4024 333.52C81.8333 334.203 82.0488 335.195 82.0488 336.496C82.0488 337.796 81.8333 338.8 81.4024 339.508C80.9715 340.207 80.3699 340.556 79.5976 340.556ZM79.5976 339.837C79.9146 339.837 80.1911 339.719 80.4268 339.483C80.6707 339.248 80.8577 338.882 80.9878 338.386C81.1179 337.89 81.1829 337.26 81.1829 336.496C81.1829 335.723 81.1179 335.097 80.9878 334.617C80.8577 334.13 80.6707 333.772 80.4268 333.544C80.1911 333.317 79.9146 333.203 79.5976 333.203C79.2805 333.203 79.0041 333.317 78.7683 333.544C78.5325 333.772 78.3455 334.13 78.2073 334.617C78.0772 335.097 78.0122 335.723 78.0122 336.496C78.0122 337.26 78.0772 337.89 78.2073 338.386C78.3455 338.882 78.5325 339.248 78.7683 339.483C79.0041 339.719 79.2805 339.837 79.5976 339.837Z" fill="#222539"/>
<path d="M131.003 340.556C130.621 340.556 130.267 340.479 129.942 340.325C129.617 340.17 129.337 339.939 129.101 339.63C128.873 339.313 128.69 338.922 128.552 338.459C128.422 337.987 128.357 337.447 128.357 336.837C128.357 336.04 128.438 335.365 128.601 334.813C128.763 334.26 128.979 333.813 129.247 333.471C129.524 333.13 129.837 332.882 130.186 332.727C130.544 332.565 130.914 332.483 131.296 332.483C131.702 332.483 132.052 332.561 132.345 332.715C132.646 332.861 132.902 333.052 133.113 333.288L132.613 333.849C132.45 333.654 132.255 333.504 132.028 333.398C131.808 333.284 131.572 333.227 131.32 333.227C130.938 333.227 130.585 333.341 130.259 333.569C129.942 333.796 129.686 334.174 129.491 334.703C129.296 335.223 129.198 335.935 129.198 336.837C129.198 337.471 129.267 338.016 129.406 338.471C129.544 338.918 129.747 339.26 130.015 339.496C130.284 339.731 130.617 339.849 131.015 339.849C131.276 339.849 131.511 339.776 131.723 339.63C131.942 339.475 132.113 339.264 132.235 338.996C132.357 338.727 132.418 338.422 132.418 338.081C132.418 337.731 132.361 337.426 132.247 337.166C132.141 336.906 131.979 336.707 131.759 336.569C131.54 336.422 131.259 336.349 130.918 336.349C130.658 336.349 130.373 336.435 130.064 336.605C129.755 336.776 129.459 337.069 129.174 337.483L129.15 336.752C129.402 336.418 129.698 336.154 130.04 335.959C130.381 335.764 130.723 335.666 131.064 335.666C131.511 335.666 131.898 335.76 132.223 335.947C132.556 336.126 132.812 336.394 132.991 336.752C133.17 337.101 133.259 337.544 133.259 338.081C133.259 338.569 133.158 339 132.954 339.374C132.751 339.739 132.479 340.028 132.137 340.239C131.796 340.451 131.418 340.556 131.003 340.556ZM136.762 340.556C135.997 340.556 135.396 340.207 134.957 339.508C134.526 338.8 134.31 337.796 134.31 336.496C134.31 335.187 134.526 334.191 134.957 333.508C135.396 332.825 135.997 332.483 136.762 332.483C137.534 332.483 138.136 332.829 138.567 333.52C138.997 334.203 139.213 335.195 139.213 336.496C139.213 337.796 138.997 338.8 138.567 339.508C138.136 340.207 137.534 340.556 136.762 340.556ZM136.762 339.837C137.079 339.837 137.355 339.719 137.591 339.483C137.835 339.248 138.022 338.882 138.152 338.386C138.282 337.89 138.347 337.26 138.347 336.496C138.347 335.723 138.282 335.097 138.152 334.617C138.022 334.13 137.835 333.772 137.591 333.544C137.355 333.317 137.079 333.203 136.762 333.203C136.445 333.203 136.168 333.317 135.932 333.544C135.697 333.772 135.51 334.13 135.371 334.617C135.241 335.097 135.176 335.723 135.176 336.496C135.176 337.26 135.241 337.89 135.371 338.386C135.51 338.882 135.697 339.248 135.932 339.483C136.168 339.719 136.445 339.837 136.762 339.837Z" fill="#222539"/>
<path d="M188.645 340.41V335.093C188.645 334.89 188.653 334.646 188.669 334.361C188.686 334.077 188.698 333.833 188.706 333.63H188.657C188.559 333.809 188.458 333.983 188.352 334.154C188.246 334.325 188.137 334.508 188.023 334.703L186.084 337.508H190.572V338.215H185.133V337.642L188.535 332.63H189.486V340.41H188.645ZM193.928 340.556C193.163 340.556 192.562 340.207 192.123 339.508C191.692 338.8 191.476 337.796 191.476 336.496C191.476 335.187 191.692 334.191 192.123 333.508C192.562 332.825 193.163 332.483 193.928 332.483C194.7 332.483 195.302 332.829 195.733 333.52C196.163 334.203 196.379 335.195 196.379 336.496C196.379 337.796 196.163 338.8 195.733 339.508C195.302 340.207 194.7 340.556 193.928 340.556ZM193.928 339.837C194.245 339.837 194.521 339.719 194.757 339.483C195.001 339.248 195.188 338.882 195.318 338.386C195.448 337.89 195.513 337.26 195.513 336.496C195.513 335.723 195.448 335.097 195.318 334.617C195.188 334.13 195.001 333.772 194.757 333.544C194.521 333.317 194.245 333.203 193.928 333.203C193.611 333.203 193.334 333.317 193.098 333.544C192.863 333.772 192.676 334.13 192.537 334.617C192.407 335.097 192.342 335.723 192.342 336.496C192.342 337.26 192.407 337.89 192.537 338.386C192.676 338.882 192.863 339.248 193.098 339.483C193.334 339.719 193.611 339.837 193.928 339.837Z" fill="#222539"/>
<path d="M242.577 340.41V339.886C243.374 339.081 244.049 338.378 244.602 337.776C245.154 337.166 245.573 336.622 245.858 336.142C246.142 335.662 246.285 335.207 246.285 334.776C246.285 334.321 246.159 333.947 245.906 333.654C245.663 333.361 245.276 333.215 244.748 333.215C244.423 333.215 244.114 333.304 243.821 333.483C243.537 333.662 243.28 333.89 243.053 334.166L242.528 333.654C242.854 333.304 243.199 333.024 243.565 332.813C243.931 332.593 244.362 332.483 244.858 332.483C245.329 332.483 245.736 332.577 246.077 332.764C246.427 332.951 246.695 333.215 246.882 333.556C247.069 333.89 247.163 334.284 247.163 334.739C247.163 335.235 247.02 335.735 246.736 336.239C246.459 336.743 246.073 337.28 245.577 337.849C245.089 338.41 244.524 339.028 243.882 339.703C244.093 339.687 244.313 339.674 244.541 339.666C244.768 339.65 244.984 339.642 245.187 339.642H247.541V340.41H242.577ZM251.092 340.556C250.327 340.556 249.726 340.207 249.287 339.508C248.856 338.8 248.64 337.796 248.64 336.496C248.64 335.187 248.856 334.191 249.287 333.508C249.726 332.825 250.327 332.483 251.092 332.483C251.864 332.483 252.466 332.829 252.897 333.52C253.327 334.203 253.543 335.195 253.543 336.496C253.543 337.796 253.327 338.8 252.897 339.508C252.466 340.207 251.864 340.556 251.092 340.556ZM251.092 339.837C251.409 339.837 251.685 339.719 251.921 339.483C252.165 339.248 252.352 338.882 252.482 338.386C252.612 337.89 252.677 337.26 252.677 336.496C252.677 335.723 252.612 335.097 252.482 334.617C252.352 334.13 252.165 333.772 251.921 333.544C251.685 333.317 251.409 333.203 251.092 333.203C250.775 333.203 250.498 333.317 250.262 333.544C250.027 333.772 249.84 334.13 249.701 334.617C249.571 335.097 249.506 335.723 249.506 336.496C249.506 337.26 249.571 337.89 249.701 338.386C249.84 338.882 250.027 339.248 250.262 339.483C250.498 339.719 250.775 339.837 251.092 339.837Z" fill="#222539"/>
<path d="M305.255 340.556C304.49 340.556 303.889 340.207 303.45 339.508C303.019 338.8 302.803 337.796 302.803 336.496C302.803 335.187 303.019 334.191 303.45 333.508C303.889 332.825 304.49 332.483 305.255 332.483C306.027 332.483 306.629 332.829 307.059 333.52C307.49 334.203 307.706 335.195 307.706 336.496C307.706 337.796 307.49 338.8 307.059 339.508C306.629 340.207 306.027 340.556 305.255 340.556ZM305.255 339.837C305.572 339.837 305.848 339.719 306.084 339.483C306.328 339.248 306.515 338.882 306.645 338.386C306.775 337.89 306.84 337.26 306.84 336.496C306.84 335.723 306.775 335.097 306.645 334.617C306.515 334.13 306.328 333.772 306.084 333.544C305.848 333.317 305.572 333.203 305.255 333.203C304.938 333.203 304.661 333.317 304.425 333.544C304.19 333.772 304.003 334.13 303.864 334.617C303.734 335.097 303.669 335.723 303.669 336.496C303.669 337.26 303.734 337.89 303.864 338.386C304.003 338.882 304.19 339.248 304.425 339.483C304.661 339.719 304.938 339.837 305.255 339.837Z" fill="#222539"/>
<path d="M356.905 340.41V339.886C357.702 339.081 358.377 338.378 358.93 337.776C359.483 337.166 359.901 336.622 360.186 336.142C360.47 335.662 360.613 335.207 360.613 334.776C360.613 334.321 360.487 333.947 360.235 333.654C359.991 333.361 359.605 333.215 359.076 333.215C358.751 333.215 358.442 333.304 358.149 333.483C357.865 333.662 357.609 333.89 357.381 334.166L356.857 333.654C357.182 333.304 357.527 333.024 357.893 332.813C358.259 332.593 358.69 332.483 359.186 332.483C359.657 332.483 360.064 332.577 360.405 332.764C360.755 332.951 361.023 333.215 361.21 333.556C361.397 333.89 361.491 334.284 361.491 334.739C361.491 335.235 361.348 335.735 361.064 336.239C360.787 336.743 360.401 337.28 359.905 337.849C359.418 338.41 358.852 339.028 358.21 339.703C358.422 339.687 358.641 339.674 358.869 339.666C359.096 339.65 359.312 339.642 359.515 339.642H361.869V340.41H356.905ZM365.42 340.556C364.656 340.556 364.054 340.207 363.615 339.508C363.184 338.8 362.969 337.796 362.969 336.496C362.969 335.187 363.184 334.191 363.615 333.508C364.054 332.825 364.656 332.483 365.42 332.483C366.192 332.483 366.794 332.829 367.225 333.52C367.656 334.203 367.871 335.195 367.871 336.496C367.871 337.796 367.656 338.8 367.225 339.508C366.794 340.207 366.192 340.556 365.42 340.556ZM365.42 339.837C365.737 339.837 366.013 339.719 366.249 339.483C366.493 339.248 366.68 338.882 366.81 338.386C366.94 337.89 367.005 337.26 367.005 336.496C367.005 335.723 366.94 335.097 366.81 334.617C366.68 334.13 366.493 333.772 366.249 333.544C366.013 333.317 365.737 333.203 365.42 333.203C365.103 333.203 364.826 333.317 364.591 333.544C364.355 333.772 364.168 334.13 364.03 334.617C363.9 335.097 363.834 335.723 363.834 336.496C363.834 337.26 363.9 337.89 364.03 338.386C364.168 338.882 364.355 339.248 364.591 339.483C364.826 339.719 365.103 339.837 365.42 339.837Z" fill="#222539"/>
<path d="M417.303 340.41V335.093C417.303 334.89 417.311 334.646 417.327 334.361C417.344 334.077 417.356 333.833 417.364 333.63H417.315C417.218 333.809 417.116 333.983 417.01 334.154C416.905 334.325 416.795 334.508 416.681 334.703L414.742 337.508H419.23V338.215H413.791V337.642L417.193 332.63H418.145V340.41H417.303ZM422.586 340.556C421.822 340.556 421.22 340.207 420.781 339.508C420.35 338.8 420.135 337.796 420.135 336.496C420.135 335.187 420.35 334.191 420.781 333.508C421.22 332.825 421.822 332.483 422.586 332.483C423.358 332.483 423.96 332.829 424.391 333.52C424.822 334.203 425.037 335.195 425.037 336.496C425.037 337.796 424.822 338.8 424.391 339.508C423.96 340.207 423.358 340.556 422.586 340.556ZM422.586 339.837C422.903 339.837 423.179 339.719 423.415 339.483C423.659 339.248 423.846 338.882 423.976 338.386C424.106 337.89 424.171 337.26 424.171 336.496C424.171 335.723 424.106 335.097 423.976 334.617C423.846 334.13 423.659 333.772 423.415 333.544C423.179 333.317 422.903 333.203 422.586 333.203C422.269 333.203 421.992 333.317 421.757 333.544C421.521 333.772 421.334 334.13 421.196 334.617C421.066 335.097 421 335.723 421 336.496C421 337.26 421.066 337.89 421.196 338.386C421.334 338.882 421.521 339.248 421.757 339.483C421.992 339.719 422.269 339.837 422.586 339.837Z" fill="#222539"/>
<path d="M473.992 340.556C473.609 340.556 473.256 340.479 472.931 340.325C472.605 340.17 472.325 339.939 472.089 339.63C471.861 339.313 471.679 338.922 471.54 338.459C471.41 337.987 471.345 337.447 471.345 336.837C471.345 336.04 471.426 335.365 471.589 334.813C471.752 334.26 471.967 333.813 472.235 333.471C472.512 333.13 472.825 332.882 473.174 332.727C473.532 332.565 473.902 332.483 474.284 332.483C474.691 332.483 475.04 332.561 475.333 332.715C475.634 332.861 475.89 333.052 476.101 333.288L475.601 333.849C475.439 333.654 475.244 333.504 475.016 333.398C474.796 333.284 474.561 333.227 474.309 333.227C473.926 333.227 473.573 333.341 473.248 333.569C472.931 333.796 472.674 334.174 472.479 334.703C472.284 335.223 472.187 335.935 472.187 336.837C472.187 337.471 472.256 338.016 472.394 338.471C472.532 338.918 472.735 339.26 473.004 339.496C473.272 339.731 473.605 339.849 474.004 339.849C474.264 339.849 474.5 339.776 474.711 339.63C474.931 339.475 475.101 339.264 475.223 338.996C475.345 338.727 475.406 338.422 475.406 338.081C475.406 337.731 475.349 337.426 475.235 337.166C475.13 336.906 474.967 336.707 474.748 336.569C474.528 336.422 474.248 336.349 473.906 336.349C473.646 336.349 473.361 336.435 473.052 336.605C472.744 336.776 472.447 337.069 472.162 337.483L472.138 336.752C472.39 336.418 472.687 336.154 473.028 335.959C473.37 335.764 473.711 335.666 474.052 335.666C474.5 335.666 474.886 335.76 475.211 335.947C475.544 336.126 475.8 336.394 475.979 336.752C476.158 337.101 476.248 337.544 476.248 338.081C476.248 338.569 476.146 339 475.943 339.374C475.739 339.739 475.467 340.028 475.126 340.239C474.784 340.451 474.406 340.556 473.992 340.556ZM479.75 340.556C478.986 340.556 478.384 340.207 477.945 339.508C477.514 338.8 477.299 337.796 477.299 336.496C477.299 335.187 477.514 334.191 477.945 333.508C478.384 332.825 478.986 332.483 479.75 332.483C480.522 332.483 481.124 332.829 481.555 333.52C481.986 334.203 482.201 335.195 482.201 336.496C482.201 337.796 481.986 338.8 481.555 339.508C481.124 340.207 480.522 340.556 479.75 340.556ZM479.75 339.837C480.067 339.837 480.343 339.719 480.579 339.483C480.823 339.248 481.01 338.882 481.14 338.386C481.27 337.89 481.335 337.26 481.335 336.496C481.335 335.723 481.27 335.097 481.14 334.617C481.01 334.13 480.823 333.772 480.579 333.544C480.343 333.317 480.067 333.203 479.75 333.203C479.433 333.203 479.156 333.317 478.921 333.544C478.685 333.772 478.498 334.13 478.36 334.617C478.23 335.097 478.165 335.723 478.165 336.496C478.165 337.26 478.23 337.89 478.36 338.386C478.498 338.882 478.685 339.248 478.921 339.483C479.156 339.719 479.433 339.837 479.75 339.837Z" fill="#222539"/>
<path d="M57.0933 60.8221C56.7112 60.8221 56.3575 60.7449 56.0323 60.5904C55.7071 60.4359 55.4266 60.2042 55.1909 59.8953C54.9632 59.5782 54.7803 59.188 54.6421 58.7246C54.512 58.253 54.447 57.7124 54.447 57.1026C54.447 56.3059 54.5283 55.6311 54.6909 55.0782C54.8535 54.5254 55.0689 54.0782 55.3372 53.7368C55.6136 53.3953 55.9266 53.1473 56.2762 52.9929C56.634 52.8303 57.0039 52.749 57.386 52.749C57.7925 52.749 58.1421 52.8262 58.4348 52.9807C58.7356 53.127 58.9917 53.3181 59.2031 53.5538L58.7031 54.1148C58.5405 53.9197 58.3453 53.7693 58.1177 53.6636C57.8982 53.5498 57.6624 53.4929 57.4104 53.4929C57.0283 53.4929 56.6746 53.6067 56.3494 53.8343C56.0323 54.062 55.7762 54.44 55.5811 54.9685C55.386 55.4888 55.2884 56.2002 55.2884 57.1026C55.2884 57.7368 55.3575 58.2815 55.4958 58.7368C55.634 59.1839 55.8372 59.5254 56.1055 59.7611C56.3738 59.9969 56.7071 60.1148 57.1055 60.1148C57.3657 60.1148 57.6014 60.0416 57.8128 59.8953C58.0323 59.7408 58.2031 59.5294 58.325 59.2611C58.447 58.9929 58.5079 58.688 58.5079 58.3465C58.5079 57.9969 58.451 57.692 58.3372 57.4319C58.2315 57.1717 58.0689 56.9725 57.8494 56.8343C57.6299 56.688 57.3494 56.6148 57.0079 56.6148C56.7478 56.6148 56.4632 56.7002 56.1543 56.8709C55.8453 57.0416 55.5486 57.3343 55.264 57.749L55.2397 57.0172C55.4917 56.6839 55.7884 56.4197 56.1299 56.2246C56.4714 56.0294 56.8128 55.9319 57.1543 55.9319C57.6014 55.9319 57.9876 56.0254 58.3128 56.2124C58.6462 56.3912 58.9023 56.6595 59.0811 57.0172C59.26 57.3668 59.3494 57.8099 59.3494 58.3465C59.3494 58.8343 59.2478 59.2652 59.0445 59.6392C58.8413 60.005 58.5689 60.2937 58.2275 60.505C57.886 60.7164 57.5079 60.8221 57.0933 60.8221ZM62.8517 60.8221C62.0875 60.8221 61.4858 60.4725 61.0468 59.7733C60.6159 59.066 60.4005 58.062 60.4005 56.7611C60.4005 55.4522 60.6159 54.4563 61.0468 53.7733C61.4858 53.0904 62.0875 52.749 62.8517 52.749C63.6241 52.749 64.2257 53.0945 64.6566 53.7855C65.0875 54.4685 65.3029 55.4603 65.3029 56.7611C65.3029 58.062 65.0875 59.066 64.6566 59.7733C64.2257 60.4725 63.6241 60.8221 62.8517 60.8221ZM62.8517 60.1026C63.1688 60.1026 63.4452 59.9847 63.681 59.749C63.9249 59.5132 64.1119 59.1473 64.2419 58.6514C64.372 58.1555 64.4371 57.5254 64.4371 56.7611C64.4371 55.9888 64.372 55.3628 64.2419 54.8831C64.1119 54.3953 63.9249 54.0376 63.681 53.8099C63.4452 53.5823 63.1688 53.4685 62.8517 53.4685C62.5346 53.4685 62.2582 53.5823 62.0224 53.8099C61.7867 54.0376 61.5997 54.3953 61.4615 54.8831C61.3314 55.3628 61.2663 55.9888 61.2663 56.7611C61.2663 57.5254 61.3314 58.1555 61.4615 58.6514C61.5997 59.1473 61.7867 59.5132 62.0224 59.749C62.2582 59.9847 62.5346 60.1026 62.8517 60.1026ZM56.6787 104.822C56.264 104.822 55.8982 104.773 55.5811 104.676C55.2722 104.57 54.9998 104.436 54.764 104.273C54.5364 104.111 54.3331 103.94 54.1543 103.761L54.6055 103.176C54.8413 103.403 55.1136 103.611 55.4226 103.798C55.7397 103.985 56.134 104.078 56.6055 104.078C56.9307 104.078 57.2275 104.001 57.4958 103.847C57.764 103.692 57.9754 103.477 58.1299 103.2C58.2844 102.924 58.3616 102.599 58.3616 102.225C58.3616 101.664 58.2071 101.229 57.8982 100.92C57.5892 100.603 57.1746 100.444 56.6543 100.444C56.3779 100.444 56.138 100.485 55.9348 100.566C55.7397 100.647 55.5242 100.765 55.2884 100.92L54.8006 100.615L55.0567 96.8953H58.8738V97.6636H55.8372L55.6177 100.09C55.8128 99.9847 56.0079 99.9034 56.2031 99.8465C56.3982 99.7815 56.6177 99.749 56.8616 99.749C57.3088 99.749 57.7112 99.8384 58.0689 100.017C58.4348 100.188 58.7234 100.452 58.9348 100.81C59.1543 101.168 59.264 101.627 59.264 102.188C59.264 102.749 59.1421 103.229 58.8982 103.627C58.6543 104.017 58.3331 104.314 57.9348 104.517C57.5445 104.72 57.1258 104.822 56.6787 104.822ZM62.8517 104.822C62.0875 104.822 61.4858 104.473 61.0468 103.773C60.6159 103.066 60.4005 102.062 60.4005 100.761C60.4005 99.4522 60.6159 98.4563 61.0468 97.7733C61.4858 97.0904 62.0875 96.749 62.8517 96.749C63.6241 96.749 64.2257 97.0945 64.6566 97.7855C65.0875 98.4685 65.3029 99.4603 65.3029 100.761C65.3029 102.062 65.0875 103.066 64.6566 103.773C64.2257 104.473 63.6241 104.822 62.8517 104.822ZM62.8517 104.103C63.1688 104.103 63.4452 103.985 63.681 103.749C63.9249 103.513 64.1119 103.147 64.2419 102.651C64.372 102.155 64.4371 101.525 64.4371 100.761C64.4371 99.9888 64.372 99.3628 64.2419 98.8831C64.1119 98.3953 63.9249 98.0376 63.681 97.8099C63.4452 97.5823 63.1688 97.4685 62.8517 97.4685C62.5346 97.4685 62.2582 97.5823 62.0224 97.8099C61.7867 98.0376 61.5997 98.3953 61.4615 98.8831C61.3314 99.3628 61.2663 99.9888 61.2663 100.761C61.2663 101.525 61.3314 102.155 61.4615 102.651C61.5997 103.147 61.7867 103.513 62.0224 103.749C62.2582 103.985 62.5346 104.103 62.8517 104.103ZM57.5689 148.676V143.359C57.5689 143.155 57.5771 142.912 57.5933 142.627C57.6096 142.342 57.6218 142.099 57.6299 141.895H57.5811C57.4836 142.074 57.3819 142.249 57.2762 142.42C57.1705 142.59 57.0608 142.773 56.947 142.968L55.0079 145.773H59.4958V146.481H54.0567V145.907L57.4592 140.895H58.4104V148.676H57.5689ZM62.8517 148.822C62.0875 148.822 61.4858 148.473 61.0468 147.773C60.6159 147.066 60.4005 146.062 60.4005 144.761C60.4005 143.452 60.6159 142.456 61.0468 141.773C61.4858 141.09 62.0875 140.749 62.8517 140.749C63.6241 140.749 64.2257 141.094 64.6566 141.786C65.0875 142.468 65.3029 143.46 65.3029 144.761C65.3029 146.062 65.0875 147.066 64.6566 147.773C64.2257 148.473 63.6241 148.822 62.8517 148.822ZM62.8517 148.103C63.1688 148.103 63.4452 147.985 63.681 147.749C63.9249 147.513 64.1119 147.147 64.2419 146.651C64.372 146.155 64.4371 145.525 64.4371 144.761C64.4371 143.989 64.372 143.363 64.2419 142.883C64.1119 142.395 63.9249 142.038 63.681 141.81C63.4452 141.582 63.1688 141.468 62.8517 141.468C62.5346 141.468 62.2582 141.582 62.0224 141.81C61.7867 142.038 61.5997 142.395 61.4615 142.883C61.3314 143.363 61.2663 143.989 61.2663 144.761C61.2663 145.525 61.3314 146.155 61.4615 146.651C61.5997 147.147 61.7867 147.513 62.0224 147.749C62.2582 147.985 62.5346 148.103 62.8517 148.103ZM56.7153 192.822C56.3006 192.822 55.9348 192.769 55.6177 192.664C55.3006 192.558 55.0242 192.424 54.7884 192.261C54.5527 192.09 54.3494 191.912 54.1787 191.725L54.6299 191.139C54.8657 191.383 55.1421 191.603 55.4592 191.798C55.7844 191.985 56.1868 192.078 56.6665 192.078C57.1543 192.078 57.5527 191.944 57.8616 191.676C58.1787 191.399 58.3372 191.034 58.3372 190.578C58.3372 190.261 58.2518 189.981 58.0811 189.737C57.9185 189.493 57.6502 189.306 57.2762 189.176C56.9104 189.038 56.4145 188.968 55.7884 188.968V188.273C56.3494 188.273 56.7925 188.208 57.1177 188.078C57.451 187.94 57.6909 187.757 57.8372 187.529C57.9836 187.302 58.0567 187.046 58.0567 186.761C58.0567 186.371 57.9307 186.062 57.6787 185.834C57.4266 185.599 57.0852 185.481 56.6543 185.481C56.321 185.481 56.012 185.558 55.7275 185.712C55.4429 185.859 55.1868 186.05 54.9592 186.286L54.4714 185.712C54.7722 185.436 55.1014 185.208 55.4592 185.029C55.8169 184.842 56.2234 184.749 56.6787 184.749C57.1177 184.749 57.5079 184.826 57.8494 184.981C58.1909 185.135 58.4592 185.359 58.6543 185.651C58.8575 185.936 58.9592 186.286 58.9592 186.7C58.9592 187.18 58.825 187.574 58.5567 187.883C58.2966 188.184 57.951 188.412 57.5201 188.566V188.615C57.8372 188.688 58.1258 188.814 58.386 188.993C58.6462 189.164 58.8535 189.387 59.0079 189.664C59.1624 189.932 59.2397 190.245 59.2397 190.603C59.2397 191.066 59.1258 191.464 58.8982 191.798C58.6705 192.123 58.3657 192.375 57.9836 192.554C57.6014 192.733 57.1787 192.822 56.7153 192.822ZM62.8517 192.822C62.0875 192.822 61.4858 192.473 61.0468 191.773C60.6159 191.066 60.4005 190.062 60.4005 188.761C60.4005 187.452 60.6159 186.456 61.0468 185.773C61.4858 185.09 62.0875 184.749 62.8517 184.749C63.6241 184.749 64.2257 185.094 64.6566 185.786C65.0875 186.468 65.3029 187.46 65.3029 188.761C65.3029 190.062 65.0875 191.066 64.6566 191.773C64.2257 192.473 63.6241 192.822 62.8517 192.822ZM62.8517 192.103C63.1688 192.103 63.4452 191.985 63.681 191.749C63.9249 191.513 64.1119 191.147 64.2419 190.651C64.372 190.155 64.4371 189.525 64.4371 188.761C64.4371 187.989 64.372 187.363 64.2419 186.883C64.1119 186.395 63.9249 186.038 63.681 185.81C63.4452 185.582 63.1688 185.468 62.8517 185.468C62.5346 185.468 62.2582 185.582 62.0224 185.81C61.7867 186.038 61.5997 186.395 61.4615 186.883C61.3314 187.363 61.2663 187.989 61.2663 188.761C61.2663 189.525 61.3314 190.155 61.4615 190.651C61.5997 191.147 61.7867 191.513 62.0224 191.749C62.2582 191.985 62.5346 192.103 62.8517 192.103ZM54.3372 236.676V236.151C55.134 235.347 55.8088 234.643 56.3616 234.042C56.9145 233.432 57.3332 232.887 57.6177 232.407C57.9023 231.928 58.0445 231.473 58.0445 231.042C58.0445 230.586 57.9185 230.212 57.6665 229.92C57.4226 229.627 57.0364 229.481 56.5079 229.481C56.1827 229.481 55.8738 229.57 55.5811 229.749C55.2966 229.928 55.0405 230.155 54.8128 230.432L54.2884 229.92C54.6136 229.57 54.9592 229.29 55.325 229.078C55.6909 228.859 56.1218 228.749 56.6177 228.749C57.0892 228.749 57.4958 228.842 57.8372 229.029C58.1868 229.216 58.4551 229.481 58.6421 229.822C58.8291 230.155 58.9226 230.55 58.9226 231.005C58.9226 231.501 58.7803 232.001 58.4958 232.505C58.2193 233.009 57.8331 233.546 57.3372 234.115C56.8494 234.676 56.2844 235.294 55.6421 235.968C55.8535 235.952 56.073 235.94 56.3006 235.932C56.5283 235.916 56.7437 235.907 56.947 235.907H59.3006V236.676H54.3372ZM62.8517 236.822C62.0875 236.822 61.4858 236.473 61.0468 235.773C60.6159 235.066 60.4005 234.062 60.4005 232.761C60.4005 231.452 60.6159 230.456 61.0468 229.773C61.4858 229.09 62.0875 228.749 62.8517 228.749C63.6241 228.749 64.2257 229.094 64.6566 229.786C65.0875 230.468 65.3029 231.46 65.3029 232.761C65.3029 234.062 65.0875 235.066 64.6566 235.773C64.2257 236.473 63.6241 236.822 62.8517 236.822ZM62.8517 236.103C63.1688 236.103 63.4452 235.985 63.681 235.749C63.9249 235.513 64.1119 235.147 64.2419 234.651C64.372 234.155 64.4371 233.525 64.4371 232.761C64.4371 231.989 64.372 231.363 64.2419 230.883C64.1119 230.395 63.9249 230.038 63.681 229.81C63.4452 229.582 63.1688 229.468 62.8517 229.468C62.5346 229.468 62.2582 229.582 62.0224 229.81C61.7867 230.038 61.5997 230.395 61.4615 230.883C61.3314 231.363 61.2663 231.989 61.2663 232.761C61.2663 233.525 61.3314 234.155 61.4615 234.651C61.5997 235.147 61.7867 235.513 62.0224 235.749C62.2582 235.985 62.5346 236.103 62.8517 236.103ZM54.9472 281.676V280.932H56.7398V275.017H55.3252V274.444C55.6748 274.387 55.9797 274.314 56.2398 274.225C56.5 274.127 56.7358 274.017 56.9472 273.895H57.6301V280.932H59.252V281.676H54.9472ZM62.8517 281.822C62.0875 281.822 61.4858 281.473 61.0468 280.773C60.6159 280.066 60.4005 279.062 60.4005 277.761C60.4005 276.452 60.6159 275.456 61.0468 274.773C61.4858 274.09 62.0875 273.749 62.8517 273.749C63.6241 273.749 64.2257 274.094 64.6566 274.786C65.0875 275.468 65.3029 276.46 65.3029 277.761C65.3029 279.062 65.0875 280.066 64.6566 280.773C64.2257 281.473 63.6241 281.822 62.8517 281.822ZM62.8517 281.103C63.1688 281.103 63.4452 280.985 63.681 280.749C63.9249 280.513 64.1119 280.147 64.2419 279.651C64.372 279.155 64.4371 278.525 64.4371 277.761C64.4371 276.989 64.372 276.363 64.2419 275.883C64.1119 275.395 63.9249 275.038 63.681 274.81C63.4452 274.582 63.1688 274.468 62.8517 274.468C62.5346 274.468 62.2582 274.582 62.0224 274.81C61.7867 275.038 61.5997 275.395 61.4615 275.883C61.3314 276.363 61.2663 276.989 61.2663 277.761C61.2663 278.525 61.3314 279.155 61.4615 279.651C61.5997 280.147 61.7867 280.513 62.0224 280.749C62.2582 280.985 62.5346 281.103 62.8517 281.103ZM62.8517 325.822C62.0875 325.822 61.4858 325.473 61.0468 324.773C60.6159 324.066 60.4005 323.062 60.4005 321.761C60.4005 320.452 60.6159 319.456 61.0468 318.773C61.4858 318.09 62.0875 317.749 62.8517 317.749C63.6241 317.749 64.2257 318.094 64.6566 318.786C65.0875 319.468 65.3029 320.46 65.3029 321.761C65.3029 323.062 65.0875 324.066 64.6566 324.773C64.2257 325.473 63.6241 325.822 62.8517 325.822ZM62.8517 325.103C63.1688 325.103 63.4452 324.985 63.681 324.749C63.9249 324.513 64.1119 324.147 64.2419 323.651C64.372 323.155 64.4371 322.525 64.4371 321.761C64.4371 320.989 64.372 320.363 64.2419 319.883C64.1119 319.395 63.9249 319.038 63.681 318.81C63.4452 318.582 63.1688 318.468 62.8517 318.468C62.5346 318.468 62.2582 318.582 62.0224 318.81C61.7867 319.038 61.5997 319.395 61.4615 319.883C61.3314 320.363 61.2663 320.989 61.2663 321.761C61.2663 322.525 61.3314 323.155 61.4615 323.651C61.5997 324.147 61.7867 324.513 62.0224 324.749C62.2582 324.985 62.5346 325.103 62.8517 325.103Z" fill="#222539"/>
<path d="M38.293 190.008H31.0491V192.472H30.2808V186.655H31.0491V189.106H38.293V190.008ZM38.293 185.274H32.3783V184.396H38.293V185.274ZM31.11 184.823C31.11 184.994 31.0531 185.14 30.9393 185.262C30.8255 185.376 30.6751 185.433 30.4881 185.433C30.3092 185.433 30.167 185.376 30.0613 185.262C29.9474 185.14 29.8905 184.994 29.8905 184.823C29.8905 184.644 29.9474 184.498 30.0613 184.384C30.167 184.27 30.3092 184.213 30.4881 184.213C30.6751 184.213 30.8255 184.27 30.9393 184.384C31.0531 184.498 31.11 184.644 31.11 184.823ZM38.4393 180.528C38.4393 181.138 38.2604 181.565 37.9027 181.808C37.545 182.044 37.0816 182.162 36.5125 182.162H33.11V183.052H32.4393L32.3783 182.126L30.7076 182.016V181.272H32.3783V179.65H33.11V181.272H36.5369C36.9027 181.272 37.1913 181.207 37.4027 181.077C37.606 180.939 37.7076 180.691 37.7076 180.333C37.7076 180.227 37.6913 180.113 37.6588 179.991C37.6263 179.861 37.5897 179.747 37.5491 179.65L38.2198 179.467C38.2767 179.63 38.3255 179.804 38.3661 179.991C38.4149 180.178 38.4393 180.357 38.4393 180.528ZM38.4393 177.32C38.4393 177.539 38.3905 177.722 38.293 177.869C38.2035 178.015 38.0694 178.121 37.8905 178.186C37.7035 178.251 37.4759 178.283 37.2076 178.283H29.5857V177.405H37.2808C37.4271 177.405 37.5328 177.377 37.5978 177.32C37.6629 177.263 37.6954 177.198 37.6954 177.125C37.6954 177.1 37.6954 177.072 37.6954 177.039C37.6873 177.007 37.6791 176.962 37.671 176.905L38.3539 176.783C38.3702 176.848 38.3865 176.926 38.4027 177.015C38.4271 177.096 38.4393 177.198 38.4393 177.32ZM38.4393 172.893C38.4393 173.405 38.3174 173.877 38.0735 174.308C37.8214 174.731 37.4678 175.068 37.0125 175.32C36.5491 175.572 35.9922 175.698 35.3417 175.698C34.6995 175.698 34.1466 175.572 33.6832 175.32C33.2198 175.068 32.8621 174.743 32.61 174.344C32.358 173.938 32.232 173.507 32.232 173.052C32.232 172.564 32.3458 172.145 32.5735 171.796C32.8011 171.446 33.1222 171.182 33.5369 171.003C33.9434 170.816 34.4312 170.722 35.0003 170.722C35.0978 170.722 35.1954 170.726 35.293 170.735C35.3824 170.735 35.4637 170.743 35.5369 170.759V175.003L34.8905 175.015V171.515C34.2564 171.515 33.7767 171.649 33.4515 171.918C33.1182 172.186 32.9515 172.56 32.9515 173.039C32.9515 173.332 33.0369 173.617 33.2076 173.893C33.3783 174.17 33.6385 174.397 33.9881 174.576C34.3377 174.755 34.7889 174.844 35.3417 174.844C35.8702 174.844 36.3092 174.751 36.6588 174.564C37.0084 174.377 37.2726 174.129 37.4515 173.82C37.6304 173.503 37.7198 173.157 37.7198 172.783C37.7198 172.483 37.6751 172.214 37.5857 171.979C37.4962 171.735 37.3824 171.503 37.2442 171.283L37.8296 170.954C37.9922 171.206 38.1344 171.491 38.2564 171.808C38.3783 172.117 38.4393 172.479 38.4393 172.893Z" fill="#3F4252"/>
<path d="M268.207 362.227V354.983H265.743V354.214H271.56V354.983H269.109V362.227H268.207ZM272.941 362.227V356.312H273.819V362.227H272.941ZM273.392 355.044C273.221 355.044 273.075 354.987 272.953 354.873C272.839 354.759 272.782 354.609 272.782 354.422C272.782 354.243 272.839 354.101 272.953 353.995C273.075 353.881 273.221 353.824 273.392 353.824C273.571 353.824 273.717 353.881 273.831 353.995C273.945 354.101 274.002 354.243 274.002 354.422C274.002 354.609 273.945 354.759 273.831 354.873C273.717 354.987 273.571 355.044 273.392 355.044ZM277.687 362.373C277.077 362.373 276.65 362.194 276.406 361.836C276.171 361.479 276.053 361.015 276.053 360.446V357.044H275.162V356.373L276.089 356.312L276.199 354.641H276.943V356.312H278.565V357.044H276.943V360.47C276.943 360.836 277.008 361.125 277.138 361.336C277.276 361.54 277.524 361.641 277.882 361.641C277.988 361.641 278.102 361.625 278.223 361.592C278.354 361.56 278.467 361.523 278.565 361.483L278.748 362.153C278.585 362.21 278.41 362.259 278.223 362.3C278.036 362.349 277.858 362.373 277.687 362.373ZM280.895 362.373C280.675 362.373 280.492 362.324 280.346 362.227C280.2 362.137 280.094 362.003 280.029 361.824C279.964 361.637 279.931 361.409 279.931 361.141V353.519H280.81V361.214C280.81 361.361 280.838 361.466 280.895 361.531C280.952 361.596 281.017 361.629 281.09 361.629C281.114 361.629 281.143 361.629 281.175 361.629C281.208 361.621 281.253 361.613 281.31 361.605L281.431 362.288C281.366 362.304 281.289 362.32 281.2 362.336C281.118 362.361 281.017 362.373 280.895 362.373ZM285.322 362.373C284.809 362.373 284.338 362.251 283.907 362.007C283.484 361.755 283.147 361.401 282.895 360.946C282.643 360.483 282.517 359.926 282.517 359.275C282.517 358.633 282.643 358.08 282.895 357.617C283.147 357.153 283.472 356.796 283.87 356.544C284.277 356.292 284.708 356.166 285.163 356.166C285.651 356.166 286.07 356.279 286.419 356.507C286.769 356.735 287.033 357.056 287.212 357.47C287.399 357.877 287.492 358.365 287.492 358.934C287.492 359.031 287.488 359.129 287.48 359.227C287.48 359.316 287.472 359.397 287.456 359.47H283.212L283.2 358.824H286.7C286.7 358.19 286.566 357.71 286.297 357.385C286.029 357.052 285.655 356.885 285.175 356.885C284.883 356.885 284.598 356.97 284.322 357.141C284.045 357.312 283.818 357.572 283.639 357.922C283.46 358.271 283.37 358.722 283.37 359.275C283.37 359.804 283.464 360.243 283.651 360.592C283.838 360.942 284.086 361.206 284.395 361.385C284.712 361.564 285.057 361.653 285.431 361.653C285.732 361.653 286.001 361.609 286.236 361.519C286.48 361.43 286.712 361.316 286.931 361.178L287.261 361.763C287.009 361.926 286.724 362.068 286.407 362.19C286.098 362.312 285.736 362.373 285.322 362.373Z" fill="black"/>
<rect x="172.633" y="61.8789" width="131.86" height="10.6707" fill="#0072B2"/>
<rect x="103.273" y="75.5977" width="201.22" height="10.6707" fill="#0072B2"/>
<rect x="133.762" y="89.3164" width="170.732" height="10.6707" fill="#0072B2"/>
<rect x="124.615" y="103.039" width="179.878" height="10.6707" fill="#0072B2"/>
<rect x="155.104" y="116.758" width="149.39" height="10.6707" fill="#0072B2"/>
<rect x="172.633" y="130.477" width="131.86" height="10.6707" fill="#0072B2"/>
<rect x="190.926" y="144.195" width="113.567" height="10.6707" fill="#0072B2"/>
<rect x="206.932" y="157.914" width="97.561" height="10.6707" fill="#0072B2"/>
<rect x="190.926" y="171.637" width="113.567" height="10.6707" fill="#0072B2"/>
<rect x="190.926" y="185.355" width="113.567" height="10.6707" fill="#0072B2"/>
<rect x="172.633" y="199.074" width="131.86" height="10.6707" fill="#0072B2"/>
<rect x="155.104" y="212.793" width="149.39" height="10.6707" fill="#0072B2"/>
<rect x="163.486" y="226.512" width="141.006" height="10.6707" fill="#0072B2"/>
<rect x="140.621" y="240.234" width="163.872" height="10.6707" fill="#0072B2"/>
<rect x="149.768" y="253.953" width="154.726" height="10.6707" fill="#0072B2"/>
<rect x="163.486" y="267.672" width="141.006" height="10.6707" fill="#0072B2"/>
<rect x="228.273" y="281.391" width="76.2195" height="10.6707" fill="#0072B2"/>
<rect x="140.621" y="295.109" width="163.872" height="10.6707" fill="#0072B2"/>
<rect x="155.104" y="308.832" width="149.39" height="10.6707" fill="#0072B2"/>
<rect x="306.781" y="61.8789" width="41.1585" height="10.6707" fill="#D55E00"/>
<rect x="306.781" y="75.5977" width="64.0244" height="10.6707" fill="#D55E00"/>
<rect x="306.781" y="89.3164" width="103.659" height="10.6707" fill="#D55E00"/>
<rect x="306.781" y="103.039" width="103.659" height="10.6707" fill="#D55E00"/>
<rect x="306.781" y="116.758" width="126.524" height="10.6707" fill="#D55E00"/>
<rect x="306.781" y="130.477" width="131.86" height="10.6707" fill="#D55E00"/>
<rect x="306.781" y="144.195" width="22.1037" height="10.6707" fill="#D55E00"/>
<rect x="306.781" y="157.914" width="35.061" height="10.6707" fill="#D55E00"/>
<rect x="306.781" y="171.637" width="113.567" height="10.6707" fill="#D55E00"/>
<rect x="306.781" y="185.355" width="113.567" height="10.6707" fill="#D55E00"/>
<rect x="306.781" y="199.074" width="131.86" height="10.6707" fill="#D55E00"/>
<rect x="306.781" y="212.793" width="99.8476" height="10.6707" fill="#D55E00"/>
<rect x="306.781" y="226.512" width="44.2073" height="10.6707" fill="#D55E00"/>
<rect x="306.781" y="240.234" width="76.2195" height="10.6707" fill="#D55E00"/>
<rect x="306.781" y="253.953" width="95.2744" height="10.6707" fill="#D55E00"/>
<rect x="306.781" y="267.672" width="105.945" height="10.6707" fill="#D55E00"/>
<rect x="306.781" y="281.391" width="138.72" height="10.6707" fill="#D55E00"/>
<rect x="306.781" y="295.109" width="131.86" height="10.6707" fill="#D55E00"/>
<rect x="306.781" y="308.832" width="149.39" height="10.6707" fill="#D55E00"/>
<path d="M183.066 33.1463C182.4 33.1463 181.806 32.9837 181.286 32.6585C180.765 32.3252 180.355 31.8496 180.054 31.2317C179.753 30.6057 179.603 29.8618 179.603 29C179.603 28.3496 179.688 27.7724 179.859 27.2683C180.038 26.7561 180.286 26.3171 180.603 25.9512C180.928 25.5854 181.302 25.3089 181.725 25.122C182.156 24.935 182.623 24.8415 183.127 24.8415C183.615 24.8415 184.042 24.9431 184.408 25.1463C184.782 25.3415 185.079 25.565 185.298 25.8171L184.798 26.4146C184.587 26.1789 184.343 25.9919 184.066 25.8537C183.798 25.7073 183.489 25.6341 183.139 25.6341C182.619 25.6341 182.164 25.7724 181.774 26.0488C181.383 26.3171 181.079 26.7033 180.859 27.2073C180.648 27.7033 180.542 28.2927 180.542 28.9756C180.542 29.6667 180.644 30.2642 180.847 30.7683C181.058 31.2724 181.355 31.6626 181.737 31.939C182.127 32.2154 182.583 32.3537 183.103 32.3537C183.501 32.3537 183.851 32.2724 184.152 32.1098C184.461 31.9472 184.745 31.7195 185.005 31.4268L185.505 31.9878C185.196 32.3537 184.843 32.6382 184.444 32.8415C184.046 33.0447 183.587 33.1463 183.066 33.1463ZM189.205 33.1463C188.725 33.1463 188.278 33.0244 187.863 32.7805C187.448 32.5366 187.115 32.187 186.863 31.7317C186.611 31.2683 186.485 30.7073 186.485 30.0488C186.485 29.3902 186.611 28.8293 186.863 28.3659C187.115 27.9024 187.448 27.5488 187.863 27.3049C188.278 27.061 188.725 26.939 189.205 26.939C189.684 26.939 190.127 27.061 190.534 27.3049C190.948 27.5488 191.282 27.9024 191.534 28.3659C191.794 28.8293 191.924 29.3902 191.924 30.0488C191.924 30.7073 191.794 31.2683 191.534 31.7317C191.282 32.187 190.948 32.5366 190.534 32.7805C190.127 33.0244 189.684 33.1463 189.205 33.1463ZM189.205 32.4024C189.562 32.4024 189.875 32.3049 190.144 32.1098C190.42 31.9146 190.631 31.6423 190.778 31.2927C190.932 30.935 191.009 30.5203 191.009 30.0488C191.009 29.5854 190.932 29.1748 190.778 28.8171C190.631 28.4593 190.42 28.1829 190.144 27.9878C189.875 27.7846 189.562 27.6829 189.205 27.6829C188.855 27.6829 188.542 27.7846 188.266 27.9878C187.997 28.1829 187.786 28.4593 187.631 28.8171C187.485 29.1748 187.412 29.5854 187.412 30.0488C187.412 30.5203 187.485 30.935 187.631 31.2927C187.786 31.6423 187.997 31.9146 188.266 32.1098C188.542 32.3049 188.855 32.4024 189.205 32.4024ZM193.534 33V27.0854H194.266L194.339 27.9634H194.376C194.66 27.6707 194.961 27.4268 195.278 27.2317C195.603 27.0366 195.965 26.939 196.364 26.939C196.99 26.939 197.445 27.1341 197.729 27.5244C198.022 27.9146 198.168 28.4878 198.168 29.2439V33H197.278V29.3537C197.278 28.7846 197.185 28.3699 196.998 28.1098C196.819 27.8496 196.522 27.7195 196.107 27.7195C195.799 27.7195 195.518 27.8008 195.266 27.9634C195.014 28.1179 194.729 28.3537 194.412 28.6707V33H193.534ZM202.144 33.1463C201.404 33.1463 200.814 32.878 200.375 32.3415C199.936 31.7967 199.717 31.0325 199.717 30.0488C199.717 29.4146 199.835 28.8659 200.071 28.4024C200.314 27.939 200.631 27.5813 201.022 27.3293C201.412 27.0691 201.835 26.939 202.29 26.939C202.64 26.939 202.94 27 203.192 27.122C203.444 27.2439 203.705 27.4146 203.973 27.6341L203.936 26.6098V24.2927H204.814V33H204.083L204.01 32.2805H203.973C203.745 32.5163 203.473 32.7195 203.156 32.8902C202.847 33.061 202.51 33.1463 202.144 33.1463ZM202.339 32.3902C202.623 32.3902 202.896 32.3211 203.156 32.1829C203.416 32.0366 203.676 31.8252 203.936 31.5488V28.3415C203.668 28.1057 203.412 27.939 203.168 27.8415C202.924 27.7439 202.676 27.6951 202.424 27.6951C202.091 27.6951 201.786 27.7967 201.51 28C201.241 28.1951 201.026 28.4715 200.863 28.8293C200.709 29.1789 200.631 29.5854 200.631 30.0488C200.631 30.7724 200.778 31.3455 201.071 31.7683C201.371 32.1829 201.794 32.3902 202.339 32.3902ZM206.885 33V27.0854H207.763V33H206.885ZM207.336 25.8171C207.165 25.8171 207.019 25.7602 206.897 25.6463C206.783 25.5325 206.726 25.3821 206.726 25.1951C206.726 25.0163 206.783 24.874 206.897 24.7683C207.019 24.6545 207.165 24.5976 207.336 24.5976C207.515 24.5976 207.661 24.6545 207.775 24.7683C207.889 24.874 207.946 25.0163 207.946 25.1951C207.946 25.3821 207.889 25.5325 207.775 25.6463C207.661 25.7602 207.515 25.8171 207.336 25.8171ZM211.631 33.1463C211.021 33.1463 210.594 32.9675 210.35 32.6098C210.115 32.252 209.997 31.7886 209.997 31.2195V27.8171H209.106V27.1463L210.033 27.0854L210.143 25.4146H210.887V27.0854H212.509V27.8171H210.887V31.2439C210.887 31.6098 210.952 31.8984 211.082 32.1098C211.22 32.313 211.468 32.4146 211.826 32.4146C211.932 32.4146 212.045 32.3984 212.167 32.3659C212.297 32.3333 212.411 32.2967 212.509 32.2561L212.692 32.9268C212.529 32.9837 212.354 33.0325 212.167 33.0732C211.98 33.122 211.802 33.1463 211.631 33.1463ZM213.875 33V27.0854H214.753V33H213.875ZM214.327 25.8171C214.156 25.8171 214.01 25.7602 213.888 25.6463C213.774 25.5325 213.717 25.3821 213.717 25.1951C213.717 25.0163 213.774 24.874 213.888 24.7683C214.01 24.6545 214.156 24.5976 214.327 24.5976C214.505 24.5976 214.652 24.6545 214.766 24.7683C214.879 24.874 214.936 25.0163 214.936 25.1951C214.936 25.3821 214.879 25.5325 214.766 25.6463C214.652 25.7602 214.505 25.8171 214.327 25.8171ZM219.085 33.1463C218.605 33.1463 218.158 33.0244 217.744 32.7805C217.329 32.5366 216.996 32.187 216.744 31.7317C216.491 31.2683 216.365 30.7073 216.365 30.0488C216.365 29.3902 216.491 28.8293 216.744 28.3659C216.996 27.9024 217.329 27.5488 217.744 27.3049C218.158 27.061 218.605 26.939 219.085 26.939C219.565 26.939 220.008 27.061 220.414 27.3049C220.829 27.5488 221.162 27.9024 221.414 28.3659C221.674 28.8293 221.804 29.3902 221.804 30.0488C221.804 30.7073 221.674 31.2683 221.414 31.7317C221.162 32.187 220.829 32.5366 220.414 32.7805C220.008 33.0244 219.565 33.1463 219.085 33.1463ZM219.085 32.4024C219.443 32.4024 219.756 32.3049 220.024 32.1098C220.3 31.9146 220.512 31.6423 220.658 31.2927C220.813 30.935 220.89 30.5203 220.89 30.0488C220.89 29.5854 220.813 29.1748 220.658 28.8171C220.512 28.4593 220.3 28.1829 220.024 27.9878C219.756 27.7846 219.443 27.6829 219.085 27.6829C218.735 27.6829 218.422 27.7846 218.146 27.9878C217.878 28.1829 217.666 28.4593 217.512 28.8171C217.365 29.1748 217.292 29.5854 217.292 30.0488C217.292 30.5203 217.365 30.935 217.512 31.2927C217.666 31.6423 217.878 31.9146 218.146 32.1098C218.422 32.3049 218.735 32.4024 219.085 32.4024ZM223.415 33V27.0854H224.146L224.22 27.9634H224.256C224.541 27.6707 224.842 27.4268 225.159 27.2317C225.484 27.0366 225.846 26.939 226.244 26.939C226.87 26.939 227.325 27.1341 227.61 27.5244C227.903 27.9146 228.049 28.4878 228.049 29.2439V33H227.159V29.3537C227.159 28.7846 227.065 28.3699 226.878 28.1098C226.699 27.8496 226.403 27.7195 225.988 27.7195C225.679 27.7195 225.398 27.8008 225.146 27.9634C224.894 28.1179 224.61 28.3537 224.293 28.6707V33H223.415ZM232.039 33V32.2561H233.831V26.3415H232.417V25.7683C232.766 25.7114 233.071 25.6382 233.331 25.5488C233.592 25.4512 233.827 25.3415 234.039 25.2195H234.722V32.2561H236.344V33H232.039Z" fill="black"/>
<rect x="243.066" y="22.9023" width="12.1951" height="12.1951" fill="#0072B2"/>
<path d="M355.396 33.1463C354.73 33.1463 354.136 32.9837 353.616 32.6585C353.096 32.3252 352.685 31.8496 352.384 31.2317C352.083 30.6057 351.933 29.8618 351.933 29C351.933 28.3496 352.018 27.7724 352.189 27.2683C352.368 26.7561 352.616 26.3171 352.933 25.9512C353.258 25.5854 353.632 25.3089 354.055 25.122C354.486 24.935 354.953 24.8415 355.457 24.8415C355.945 24.8415 356.372 24.9431 356.738 25.1463C357.112 25.3415 357.409 25.565 357.628 25.8171L357.128 26.4146C356.917 26.1789 356.673 25.9919 356.396 25.8537C356.128 25.7073 355.819 25.6341 355.47 25.6341C354.949 25.6341 354.494 25.7724 354.104 26.0488C353.713 26.3171 353.409 26.7033 353.189 27.2073C352.978 27.7033 352.872 28.2927 352.872 28.9756C352.872 29.6667 352.974 30.2642 353.177 30.7683C353.388 31.2724 353.685 31.6626 354.067 31.939C354.457 32.2154 354.913 32.3537 355.433 32.3537C355.831 32.3537 356.181 32.2724 356.482 32.1098C356.791 31.9472 357.075 31.7195 357.335 31.4268L357.835 31.9878C357.526 32.3537 357.173 32.6382 356.774 32.8415C356.376 33.0447 355.917 33.1463 355.396 33.1463ZM361.535 33.1463C361.055 33.1463 360.608 33.0244 360.193 32.7805C359.779 32.5366 359.445 32.187 359.193 31.7317C358.941 31.2683 358.815 30.7073 358.815 30.0488C358.815 29.3902 358.941 28.8293 359.193 28.3659C359.445 27.9024 359.779 27.5488 360.193 27.3049C360.608 27.061 361.055 26.939 361.535 26.939C362.014 26.939 362.457 27.061 362.864 27.3049C363.279 27.5488 363.612 27.9024 363.864 28.3659C364.124 28.8293 364.254 29.3902 364.254 30.0488C364.254 30.7073 364.124 31.2683 363.864 31.7317C363.612 32.187 363.279 32.5366 362.864 32.7805C362.457 33.0244 362.014 33.1463 361.535 33.1463ZM361.535 32.4024C361.892 32.4024 362.205 32.3049 362.474 32.1098C362.75 31.9146 362.961 31.6423 363.108 31.2927C363.262 30.935 363.34 30.5203 363.34 30.0488C363.34 29.5854 363.262 29.1748 363.108 28.8171C362.961 28.4593 362.75 28.1829 362.474 27.9878C362.205 27.7846 361.892 27.6829 361.535 27.6829C361.185 27.6829 360.872 27.7846 360.596 27.9878C360.327 28.1829 360.116 28.4593 359.961 28.8171C359.815 29.1748 359.742 29.5854 359.742 30.0488C359.742 30.5203 359.815 30.935 359.961 31.2927C360.116 31.6423 360.327 31.9146 360.596 32.1098C360.872 32.3049 361.185 32.4024 361.535 32.4024ZM365.864 33V27.0854H366.596L366.669 27.9634H366.706C366.99 27.6707 367.291 27.4268 367.608 27.2317C367.933 27.0366 368.295 26.939 368.694 26.939C369.32 26.939 369.775 27.1341 370.059 27.5244C370.352 27.9146 370.499 28.4878 370.499 29.2439V33H369.608V29.3537C369.608 28.7846 369.515 28.3699 369.328 28.1098C369.149 27.8496 368.852 27.7195 368.438 27.7195C368.129 27.7195 367.848 27.8008 367.596 27.9634C367.344 28.1179 367.059 28.3537 366.742 28.6707V33H365.864ZM374.474 33.1463C373.734 33.1463 373.144 32.878 372.705 32.3415C372.266 31.7967 372.047 31.0325 372.047 30.0488C372.047 29.4146 372.165 28.8659 372.401 28.4024C372.644 27.939 372.962 27.5813 373.352 27.3293C373.742 27.0691 374.165 26.939 374.62 26.939C374.97 26.939 375.271 27 375.523 27.122C375.775 27.2439 376.035 27.4146 376.303 27.6341L376.266 26.6098V24.2927H377.144V33H376.413L376.34 32.2805H376.303C376.075 32.5163 375.803 32.7195 375.486 32.8902C375.177 33.061 374.84 33.1463 374.474 33.1463ZM374.669 32.3902C374.953 32.3902 375.226 32.3211 375.486 32.1829C375.746 32.0366 376.006 31.8252 376.266 31.5488V28.3415C375.998 28.1057 375.742 27.939 375.498 27.8415C375.254 27.7439 375.006 27.6951 374.754 27.6951C374.421 27.6951 374.116 27.7967 373.84 28C373.571 28.1951 373.356 28.4715 373.193 28.8293C373.039 29.1789 372.962 29.5854 372.962 30.0488C372.962 30.7724 373.108 31.3455 373.401 31.7683C373.701 32.1829 374.124 32.3902 374.669 32.3902ZM379.215 33V27.0854H380.093V33H379.215ZM379.666 25.8171C379.495 25.8171 379.349 25.7602 379.227 25.6463C379.113 25.5325 379.056 25.3821 379.056 25.1951C379.056 25.0163 379.113 24.874 379.227 24.7683C379.349 24.6545 379.495 24.5976 379.666 24.5976C379.845 24.5976 379.991 24.6545 380.105 24.7683C380.219 24.874 380.276 25.0163 380.276 25.1951C380.276 25.3821 380.219 25.5325 380.105 25.6463C379.991 25.7602 379.845 25.8171 379.666 25.8171ZM383.961 33.1463C383.351 33.1463 382.924 32.9675 382.68 32.6098C382.445 32.252 382.327 31.7886 382.327 31.2195V27.8171H381.436V27.1463L382.363 27.0854L382.473 25.4146H383.217V27.0854H384.839V27.8171H383.217V31.2439C383.217 31.6098 383.282 31.8984 383.412 32.1098C383.55 32.313 383.798 32.4146 384.156 32.4146C384.262 32.4146 384.376 32.3984 384.497 32.3659C384.628 32.3333 384.741 32.2967 384.839 32.2561L385.022 32.9268C384.859 32.9837 384.684 33.0325 384.497 33.0732C384.31 33.122 384.132 33.1463 383.961 33.1463ZM386.205 33V27.0854H387.084V33H386.205ZM386.657 25.8171C386.486 25.8171 386.34 25.7602 386.218 25.6463C386.104 25.5325 386.047 25.3821 386.047 25.1951C386.047 25.0163 386.104 24.874 386.218 24.7683C386.34 24.6545 386.486 24.5976 386.657 24.5976C386.836 24.5976 386.982 24.6545 387.096 24.7683C387.21 24.874 387.266 25.0163 387.266 25.1951C387.266 25.3821 387.21 25.5325 387.096 25.6463C386.982 25.7602 386.836 25.8171 386.657 25.8171ZM391.415 33.1463C390.935 33.1463 390.488 33.0244 390.074 32.7805C389.659 32.5366 389.326 32.187 389.074 31.7317C388.822 31.2683 388.696 30.7073 388.696 30.0488C388.696 29.3902 388.822 28.8293 389.074 28.3659C389.326 27.9024 389.659 27.5488 390.074 27.3049C390.488 27.061 390.935 26.939 391.415 26.939C391.895 26.939 392.338 27.061 392.744 27.3049C393.159 27.5488 393.492 27.9024 393.744 28.3659C394.004 28.8293 394.135 29.3902 394.135 30.0488C394.135 30.7073 394.004 31.2683 393.744 31.7317C393.492 32.187 393.159 32.5366 392.744 32.7805C392.338 33.0244 391.895 33.1463 391.415 33.1463ZM391.415 32.4024C391.773 32.4024 392.086 32.3049 392.354 32.1098C392.631 31.9146 392.842 31.6423 392.988 31.2927C393.143 30.935 393.22 30.5203 393.22 30.0488C393.22 29.5854 393.143 29.1748 392.988 28.8171C392.842 28.4593 392.631 28.1829 392.354 27.9878C392.086 27.7846 391.773 27.6829 391.415 27.6829C391.065 27.6829 390.752 27.7846 390.476 27.9878C390.208 28.1829 389.996 28.4593 389.842 28.8171C389.696 29.1748 389.622 29.5854 389.622 30.0488C389.622 30.5203 389.696 30.935 389.842 31.2927C389.996 31.6423 390.208 31.9146 390.476 32.1098C390.752 32.3049 391.065 32.4024 391.415 32.4024ZM395.745 33V27.0854H396.477L396.55 27.9634H396.586C396.871 27.6707 397.172 27.4268 397.489 27.2317C397.814 27.0366 398.176 26.939 398.574 26.939C399.2 26.939 399.655 27.1341 399.94 27.5244C400.233 27.9146 400.379 28.4878 400.379 29.2439V33H399.489V29.3537C399.489 28.7846 399.395 28.3699 399.208 28.1098C399.029 27.8496 398.733 27.7195 398.318 27.7195C398.009 27.7195 397.729 27.8008 397.477 27.9634C397.224 28.1179 396.94 28.3537 396.623 28.6707V33H395.745ZM404.259 33V32.4756C405.056 31.6707 405.731 30.9675 406.283 30.3659C406.836 29.7561 407.255 29.2114 407.539 28.7317C407.824 28.252 407.966 27.7967 407.966 27.3659C407.966 26.9106 407.84 26.5366 407.588 26.2439C407.344 25.9512 406.958 25.8049 406.43 25.8049C406.105 25.8049 405.796 25.8943 405.503 26.0732C405.218 26.252 404.962 26.4797 404.735 26.7561L404.21 26.2439C404.535 25.8943 404.881 25.6138 405.247 25.4024C405.613 25.1829 406.044 25.0732 406.539 25.0732C407.011 25.0732 407.418 25.1667 407.759 25.3537C408.109 25.5407 408.377 25.8049 408.564 26.1463C408.751 26.4797 408.844 26.874 408.844 27.3293C408.844 27.8252 408.702 28.3252 408.418 28.8293C408.141 29.3333 407.755 29.8699 407.259 30.439C406.771 31 406.206 31.6179 405.564 32.2927C405.775 32.2764 405.995 32.2642 406.222 32.2561C406.45 32.2398 406.666 32.2317 406.869 32.2317H409.222V33H404.259Z" fill="black"/>
<rect x="416.396" y="22.9023" width="12.1951" height="12.1951" fill="#D55E00"/>
<defs>
<filter id="filter0_d_958_20853" x="0.378049" y="0.140244" width="515.244" height="404.724" filterUnits="userSpaceOnUse" color-interpolation-filters="sRGB">
<feFlood flood-opacity="0" result="BackgroundImageFix"/>
<feColorMatrix in="SourceAlpha" type="matrix" values="0 0 0 0 0 0 0 0 0 0 0 0 0 0 0 0 0 0 127 0" result="hardAlpha"/>
<feOffset dy="0.762195"/>
<feGaussianBlur stdDeviation="3.81098"/>
<feColorMatrix type="matrix" values="0 0 0 0 0 0 0 0 0 0 0 0 0 0 0 0 0 0 0.07 0"/>
<feBlend mode="normal" in2="BackgroundImageFix" result="effect1_dropShadow_958_20853"/>
<feBlend mode="normal" in="SourceGraphic" in2="effect1_dropShadow_958_20853" result="shape"/>
</filter>
<clipPath id="clip0_958_20853">
<rect x="8" y="7" width="500" height="389.482" rx="6.09756" fill="white"/>
</clipPath>
</defs>
</svg>
