<svg width="464" height="372" viewBox="0 0 464 372" fill="none" xmlns="http://www.w3.org/2000/svg">
<g filter="url(#filter0_d_958_19631)">
<g clip-path="url(#clip0_958_19631)">
<rect x="7" y="7" width="450" height="356.707" rx="5.4878" fill="white"/>
<rect x="7" y="7" width="450" height="356.707" rx="5.4878" fill="white"/>
</g>
</g>
<line x1="64.9641" y1="29.9812" x2="434.705" y2="29.9812" stroke="#D3D6DF" stroke-width="0.685976" stroke-linecap="square" stroke-dasharray="1.37 1.37"/>
<line x1="64.9641" y1="75.9422" x2="434.705" y2="75.9422" stroke="#D3D6DF" stroke-width="0.685976" stroke-linecap="square" stroke-dasharray="1.37 1.37"/>
<line x1="64.9641" y1="121.903" x2="434.705" y2="121.903" stroke="#D3D6DF" stroke-width="0.685976" stroke-linecap="square" stroke-dasharray="1.37 1.37"/>
<line x1="64.9641" y1="167.864" x2="434.705" y2="167.864" stroke="#D3D6DF" stroke-width="0.685976" stroke-linecap="square" stroke-dasharray="1.37 1.37"/>
<line x1="64.9641" y1="213.821" x2="434.705" y2="213.821" stroke="#D3D6DF" stroke-width="0.685976" stroke-linecap="square" stroke-dasharray="1.37 1.37"/>
<line x1="64.9641" y1="259.782" x2="434.705" y2="259.782" stroke="#D3D6DF" stroke-width="0.685976" stroke-linecap="square" stroke-dasharray="1.37 1.37"/>
<line x1="64.6211" y1="305.743" x2="435.048" y2="305.743" stroke="#3347E6" stroke-width="0.685976"/>
<line x1="86.9153" y1="30.6672" x2="86.9153" y2="305.057" stroke="#D3D6DF" stroke-width="0.685976" stroke-linecap="square" stroke-dasharray="1.37 1.37"/>
<line x1="133.562" y1="30.6672" x2="133.562" y2="305.057" stroke="#D3D6DF" stroke-width="0.685976" stroke-linecap="square" stroke-dasharray="1.37 1.37"/>
<line x1="180.208" y1="30.6672" x2="180.208" y2="305.057" stroke="#D3D6DF" stroke-width="0.685976" stroke-linecap="square" stroke-dasharray="1.37 1.37"/>
<line x1="226.855" y1="30.6672" x2="226.855" y2="305.057" stroke="#D3D6DF" stroke-width="0.685976" stroke-linecap="square" stroke-dasharray="1.37 1.37"/>
<line x1="273.501" y1="30.6672" x2="273.501" y2="305.057" stroke="#D3D6DF" stroke-width="0.685976" stroke-linecap="square" stroke-dasharray="1.37 1.37"/>
<line x1="320.148" y1="30.6672" x2="320.148" y2="305.057" stroke="#D3D6DF" stroke-width="0.685976" stroke-linecap="square" stroke-dasharray="1.37 1.37"/>
<line x1="366.794" y1="30.6672" x2="366.794" y2="305.057" stroke="#D3D6DF" stroke-width="0.685976" stroke-linecap="square" stroke-dasharray="1.37 1.37"/>
<line x1="413.439" y1="30.6672" x2="413.439" y2="305.057" stroke="#D3D6DF" stroke-width="0.685976" stroke-linecap="square" stroke-dasharray="1.37 1.37"/>
<path d="M81.6218 324.32V323.651H83.2352V318.328H81.962V317.812C82.2767 317.761 82.5511 317.695 82.7852 317.614C83.0194 317.526 83.2315 317.428 83.4218 317.318H84.0364V323.651H85.4962V324.32H81.6218ZM88.7359 324.452C88.0481 324.452 87.5066 324.137 87.1115 323.508C86.7237 322.872 86.5298 321.968 86.5298 320.797C86.5298 319.619 86.7237 318.723 87.1115 318.108C87.5066 317.493 88.0481 317.186 88.7359 317.186C89.431 317.186 89.9725 317.497 90.3603 318.119C90.7481 318.734 90.942 319.626 90.942 320.797C90.942 321.968 90.7481 322.872 90.3603 323.508C89.9725 324.137 89.431 324.452 88.7359 324.452ZM88.7359 323.804C89.0212 323.804 89.27 323.698 89.4822 323.486C89.7017 323.274 89.87 322.945 89.9871 322.498C90.1042 322.052 90.1627 321.485 90.1627 320.797C90.1627 320.102 90.1042 319.539 89.9871 319.107C89.87 318.668 89.7017 318.346 89.4822 318.141C89.27 317.936 89.0212 317.834 88.7359 317.834C88.4505 317.834 88.2017 317.936 87.9895 318.141C87.7773 318.346 87.609 318.668 87.4847 319.107C87.3676 319.539 87.309 320.102 87.309 320.797C87.309 321.485 87.3676 322.052 87.4847 322.498C87.609 322.945 87.7773 323.274 87.9895 323.486C88.2017 323.698 88.4505 323.804 88.7359 323.804Z" fill="#222539"/>
<path d="M128.193 324.32V323.848C128.91 323.124 129.517 322.491 130.015 321.95C130.512 321.401 130.889 320.911 131.145 320.479C131.401 320.047 131.53 319.637 131.53 319.25C131.53 318.84 131.416 318.503 131.189 318.24C130.97 317.976 130.622 317.845 130.147 317.845C129.854 317.845 129.576 317.925 129.312 318.086C129.056 318.247 128.826 318.452 128.621 318.701L128.149 318.24C128.442 317.925 128.753 317.673 129.082 317.483C129.411 317.285 129.799 317.186 130.245 317.186C130.67 317.186 131.036 317.27 131.343 317.439C131.658 317.607 131.899 317.845 132.067 318.152C132.236 318.452 132.32 318.807 132.32 319.217C132.32 319.663 132.192 320.113 131.936 320.567C131.687 321.02 131.339 321.503 130.893 322.015C130.454 322.52 129.945 323.076 129.367 323.684C129.558 323.669 129.755 323.658 129.96 323.651C130.165 323.636 130.359 323.629 130.542 323.629H132.66V324.32H128.193ZM135.856 324.452C135.168 324.452 134.627 324.137 134.232 323.508C133.844 322.872 133.65 321.968 133.65 320.797C133.65 319.619 133.844 318.723 134.232 318.108C134.627 317.493 135.168 317.186 135.856 317.186C136.551 317.186 137.093 317.497 137.48 318.119C137.868 318.734 138.062 319.626 138.062 320.797C138.062 321.968 137.868 322.872 137.48 323.508C137.093 324.137 136.551 324.452 135.856 324.452ZM135.856 323.804C136.141 323.804 136.39 323.698 136.602 323.486C136.822 323.274 136.99 322.945 137.107 322.498C137.224 322.052 137.283 321.485 137.283 320.797C137.283 320.102 137.224 319.539 137.107 319.107C136.99 318.668 136.822 318.346 136.602 318.141C136.39 317.936 136.141 317.834 135.856 317.834C135.571 317.834 135.322 317.936 135.11 318.141C134.897 318.346 134.729 318.668 134.605 319.107C134.488 319.539 134.429 320.102 134.429 320.797C134.429 321.485 134.488 322.052 134.605 322.498C134.729 322.945 134.897 323.274 135.11 323.486C135.322 323.698 135.571 323.804 135.856 323.804Z" fill="#222539"/>
<path d="M177.005 324.452C176.632 324.452 176.303 324.404 176.017 324.309C175.732 324.214 175.483 324.093 175.271 323.947C175.059 323.793 174.876 323.633 174.722 323.464L175.128 322.937C175.34 323.157 175.589 323.354 175.875 323.53C176.167 323.698 176.529 323.783 176.961 323.783C177.4 323.783 177.759 323.662 178.037 323.42C178.322 323.172 178.465 322.842 178.465 322.433C178.465 322.147 178.388 321.895 178.234 321.675C178.088 321.456 177.847 321.287 177.51 321.17C177.181 321.046 176.734 320.984 176.171 320.984V320.358C176.676 320.358 177.075 320.3 177.367 320.183C177.667 320.058 177.883 319.893 178.015 319.689C178.147 319.484 178.212 319.253 178.212 318.997C178.212 318.646 178.099 318.368 177.872 318.163C177.645 317.951 177.338 317.845 176.95 317.845C176.65 317.845 176.372 317.914 176.116 318.053C175.86 318.185 175.629 318.357 175.425 318.569L174.986 318.053C175.256 317.804 175.553 317.6 175.875 317.439C176.197 317.27 176.562 317.186 176.972 317.186C177.367 317.186 177.718 317.256 178.026 317.395C178.333 317.534 178.575 317.735 178.75 317.998C178.933 318.254 179.025 318.569 179.025 318.942C179.025 319.374 178.904 319.729 178.662 320.007C178.428 320.278 178.117 320.483 177.729 320.622V320.665C178.015 320.731 178.275 320.845 178.509 321.006C178.743 321.159 178.929 321.361 179.068 321.609C179.207 321.851 179.277 322.133 179.277 322.454C179.277 322.872 179.175 323.23 178.97 323.53C178.765 323.823 178.49 324.05 178.147 324.211C177.803 324.372 177.422 324.452 177.005 324.452ZM182.528 324.452C181.84 324.452 181.299 324.137 180.903 323.508C180.516 322.872 180.322 321.968 180.322 320.797C180.322 319.619 180.516 318.723 180.903 318.108C181.299 317.493 181.84 317.186 182.528 317.186C183.223 317.186 183.764 317.497 184.152 318.119C184.54 318.734 184.734 319.626 184.734 320.797C184.734 321.968 184.54 322.872 184.152 323.508C183.764 324.137 183.223 324.452 182.528 324.452ZM182.528 323.804C182.813 323.804 183.062 323.698 183.274 323.486C183.494 323.274 183.662 322.945 183.779 322.498C183.896 322.052 183.955 321.485 183.955 320.797C183.955 320.102 183.896 319.539 183.779 319.107C183.662 318.668 183.494 318.346 183.274 318.141C183.062 317.936 182.813 317.834 182.528 317.834C182.242 317.834 181.994 317.936 181.781 318.141C181.569 318.346 181.401 318.668 181.277 319.107C181.16 319.539 181.101 320.102 181.101 320.797C181.101 321.485 181.16 322.052 181.277 322.498C181.401 322.945 181.569 323.274 181.781 323.486C181.994 323.698 182.242 323.804 182.528 323.804Z" fill="#222539"/>
<path d="M224.443 324.32V319.535C224.443 319.352 224.451 319.133 224.465 318.876C224.48 318.62 224.491 318.401 224.498 318.218H224.454C224.366 318.379 224.275 318.536 224.18 318.69C224.085 318.843 223.986 319.008 223.884 319.184L222.138 321.708H226.177V322.345H221.282V321.829L224.344 317.318H225.201V324.32H224.443ZM229.198 324.452C228.51 324.452 227.968 324.137 227.573 323.508C227.186 322.872 226.992 321.968 226.992 320.797C226.992 319.619 227.186 318.723 227.573 318.108C227.968 317.493 228.51 317.186 229.198 317.186C229.893 317.186 230.434 317.497 230.822 318.119C231.21 318.734 231.404 319.626 231.404 320.797C231.404 321.968 231.21 322.872 230.822 323.508C230.434 324.137 229.893 324.452 229.198 324.452ZM229.198 323.804C229.483 323.804 229.732 323.698 229.944 323.486C230.164 323.274 230.332 322.945 230.449 322.498C230.566 322.052 230.625 321.485 230.625 320.797C230.625 320.102 230.566 319.539 230.449 319.107C230.332 318.668 230.164 318.346 229.944 318.141C229.732 317.936 229.483 317.834 229.198 317.834C228.912 317.834 228.664 317.936 228.451 318.141C228.239 318.346 228.071 318.668 227.947 319.107C227.829 319.539 227.771 320.102 227.771 320.797C227.771 321.485 227.829 322.052 227.947 322.498C228.071 322.945 228.239 323.274 228.451 323.486C228.664 323.698 228.912 323.804 229.198 323.804Z" fill="#222539"/>
<path d="M270.314 324.452C269.941 324.452 269.611 324.408 269.326 324.32C269.048 324.225 268.803 324.104 268.591 323.958C268.386 323.812 268.203 323.658 268.042 323.497L268.448 322.97C268.66 323.175 268.905 323.362 269.183 323.53C269.469 323.698 269.824 323.783 270.248 323.783C270.541 323.783 270.808 323.713 271.049 323.574C271.291 323.435 271.481 323.241 271.62 322.992C271.759 322.743 271.829 322.451 271.829 322.114C271.829 321.609 271.69 321.218 271.411 320.94C271.133 320.654 270.76 320.512 270.292 320.512C270.043 320.512 269.827 320.548 269.644 320.622C269.469 320.695 269.275 320.801 269.063 320.94L268.624 320.665L268.854 317.318H272.29V318.009H269.557L269.359 320.193C269.535 320.098 269.71 320.025 269.886 319.974C270.061 319.915 270.259 319.886 270.479 319.886C270.881 319.886 271.243 319.967 271.565 320.128C271.894 320.281 272.154 320.519 272.344 320.841C272.542 321.163 272.641 321.576 272.641 322.081C272.641 322.586 272.531 323.018 272.311 323.376C272.092 323.728 271.803 323.995 271.444 324.178C271.093 324.361 270.716 324.452 270.314 324.452ZM275.87 324.452C275.182 324.452 274.64 324.137 274.245 323.508C273.857 322.872 273.664 321.968 273.664 320.797C273.664 319.619 273.857 318.723 274.245 318.108C274.64 317.493 275.182 317.186 275.87 317.186C276.565 317.186 277.106 317.497 277.494 318.119C277.882 318.734 278.076 319.626 278.076 320.797C278.076 321.968 277.882 322.872 277.494 323.508C277.106 324.137 276.565 324.452 275.87 324.452ZM275.87 323.804C276.155 323.804 276.404 323.698 276.616 323.486C276.835 323.274 277.004 322.945 277.121 322.498C277.238 322.052 277.296 321.485 277.296 320.797C277.296 320.102 277.238 319.539 277.121 319.107C277.004 318.668 276.835 318.346 276.616 318.141C276.404 317.936 276.155 317.834 275.87 317.834C275.584 317.834 275.335 317.936 275.123 318.141C274.911 318.346 274.743 318.668 274.618 319.107C274.501 319.539 274.443 320.102 274.443 320.797C274.443 321.485 274.501 322.052 274.618 322.498C274.743 322.945 274.911 323.274 275.123 323.486C275.335 323.698 275.584 323.804 275.87 323.804Z" fill="#222539"/>
<path d="M317.357 324.452C317.013 324.452 316.695 324.383 316.402 324.243C316.109 324.104 315.857 323.896 315.645 323.618C315.44 323.333 315.275 322.981 315.151 322.564C315.034 322.14 314.975 321.653 314.975 321.104C314.975 320.387 315.048 319.78 315.195 319.283C315.341 318.785 315.535 318.383 315.777 318.075C316.025 317.768 316.307 317.545 316.622 317.406C316.944 317.259 317.277 317.186 317.62 317.186C317.986 317.186 318.301 317.256 318.564 317.395C318.835 317.526 319.066 317.698 319.256 317.911L318.806 318.415C318.659 318.24 318.484 318.104 318.279 318.009C318.081 317.907 317.869 317.856 317.642 317.856C317.298 317.856 316.98 317.958 316.687 318.163C316.402 318.368 316.172 318.708 315.996 319.184C315.82 319.652 315.733 320.292 315.733 321.104C315.733 321.675 315.795 322.165 315.919 322.575C316.044 322.978 316.227 323.285 316.468 323.497C316.709 323.709 317.009 323.815 317.368 323.815C317.602 323.815 317.814 323.75 318.005 323.618C318.202 323.479 318.356 323.289 318.466 323.047C318.575 322.806 318.63 322.531 318.63 322.224C318.63 321.909 318.579 321.635 318.477 321.401C318.381 321.167 318.235 320.987 318.037 320.863C317.84 320.731 317.587 320.665 317.28 320.665C317.046 320.665 316.79 320.742 316.512 320.896C316.234 321.05 315.967 321.313 315.711 321.686L315.689 321.028C315.916 320.728 316.183 320.49 316.49 320.314C316.797 320.139 317.105 320.051 317.412 320.051C317.814 320.051 318.162 320.135 318.455 320.303C318.755 320.464 318.985 320.706 319.146 321.028C319.307 321.342 319.387 321.741 319.387 322.224C319.387 322.663 319.296 323.051 319.113 323.387C318.93 323.717 318.685 323.976 318.378 324.167C318.07 324.357 317.73 324.452 317.357 324.452ZM322.54 324.452C321.852 324.452 321.31 324.137 320.915 323.508C320.527 322.872 320.333 321.968 320.333 320.797C320.333 319.619 320.527 318.723 320.915 318.108C321.31 317.493 321.852 317.186 322.54 317.186C323.235 317.186 323.776 317.497 324.164 318.119C324.552 318.734 324.746 319.626 324.746 320.797C324.746 321.968 324.552 322.872 324.164 323.508C323.776 324.137 323.235 324.452 322.54 324.452ZM322.54 323.804C322.825 323.804 323.074 323.698 323.286 323.486C323.505 323.274 323.674 322.945 323.791 322.498C323.908 322.052 323.966 321.485 323.966 320.797C323.966 320.102 323.908 319.539 323.791 319.107C323.674 318.668 323.505 318.346 323.286 318.141C323.074 317.936 322.825 317.834 322.54 317.834C322.254 317.834 322.005 317.936 321.793 318.141C321.581 318.346 321.413 318.668 321.288 319.107C321.171 319.539 321.113 320.102 321.113 320.797C321.113 321.485 321.171 322.052 321.288 322.498C321.413 322.945 321.581 323.274 321.793 323.486C322.005 323.698 322.254 323.804 322.54 323.804Z" fill="#222539"/>
<path d="M363.083 324.32C363.12 323.428 363.211 322.626 363.357 321.917C363.504 321.207 363.72 320.541 364.005 319.919C364.29 319.29 364.664 318.653 365.124 318.009H361.59V317.318H366.046V317.801C365.629 318.335 365.289 318.851 365.026 319.348C364.762 319.839 364.554 320.336 364.4 320.841C364.254 321.346 364.144 321.88 364.071 322.443C363.998 323.007 363.943 323.633 363.906 324.32H363.083ZM369.209 324.452C368.522 324.452 367.98 324.137 367.585 323.508C367.197 322.872 367.003 321.968 367.003 320.797C367.003 319.619 367.197 318.723 367.585 318.108C367.98 317.493 368.522 317.186 369.209 317.186C369.905 317.186 370.446 317.497 370.834 318.119C371.222 318.734 371.416 319.626 371.416 320.797C371.416 321.968 371.222 322.872 370.834 323.508C370.446 324.137 369.905 324.452 369.209 324.452ZM369.209 323.804C369.495 323.804 369.744 323.698 369.956 323.486C370.175 323.274 370.344 322.945 370.461 322.498C370.578 322.052 370.636 321.485 370.636 320.797C370.636 320.102 370.578 319.539 370.461 319.107C370.344 318.668 370.175 318.346 369.956 318.141C369.744 317.936 369.495 317.834 369.209 317.834C368.924 317.834 368.675 317.936 368.463 318.141C368.251 318.346 368.083 318.668 367.958 319.107C367.841 319.539 367.783 320.102 367.783 320.797C367.783 321.485 367.841 322.052 367.958 322.498C368.083 322.945 368.251 323.274 368.463 323.486C368.675 323.698 368.924 323.804 369.209 323.804Z" fill="#222539"/>
<path d="M410.501 324.452C410.07 324.452 409.682 324.372 409.338 324.211C408.994 324.042 408.723 323.812 408.526 323.519C408.328 323.226 408.229 322.897 408.229 322.531C408.229 322.224 408.295 321.95 408.427 321.708C408.559 321.467 408.727 321.254 408.932 321.072C409.137 320.889 409.349 320.739 409.568 320.622V320.578C409.312 320.395 409.082 320.172 408.877 319.908C408.679 319.645 408.581 319.33 408.581 318.964C408.581 318.606 408.665 318.295 408.833 318.031C409.009 317.761 409.243 317.552 409.535 317.406C409.828 317.259 410.157 317.186 410.523 317.186C411.138 317.186 411.617 317.362 411.961 317.713C412.312 318.057 412.488 318.5 412.488 319.041C412.488 319.29 412.433 319.524 412.323 319.743C412.221 319.956 412.093 320.15 411.939 320.325C411.793 320.501 411.65 320.643 411.511 320.753V320.797C411.716 320.922 411.91 321.064 412.093 321.225C412.283 321.379 412.437 321.569 412.554 321.796C412.671 322.015 412.729 322.279 412.729 322.586C412.729 322.937 412.638 323.252 412.455 323.53C412.272 323.808 412.012 324.031 411.676 324.2C411.339 324.368 410.948 324.452 410.501 324.452ZM410.523 323.848C410.809 323.848 411.057 323.793 411.27 323.684C411.489 323.574 411.657 323.424 411.774 323.234C411.899 323.036 411.961 322.817 411.961 322.575C411.961 322.253 411.87 321.993 411.687 321.796C411.504 321.598 411.262 321.43 410.962 321.291C410.67 321.152 410.348 321.013 409.996 320.874C409.704 321.064 409.455 321.291 409.25 321.554C409.052 321.818 408.954 322.122 408.954 322.465C408.954 322.729 409.02 322.967 409.151 323.179C409.29 323.384 409.477 323.548 409.711 323.673C409.952 323.79 410.223 323.848 410.523 323.848ZM410.995 320.545C411.251 320.318 411.445 320.084 411.577 319.842C411.716 319.601 411.785 319.345 411.785 319.074C411.785 318.84 411.734 318.628 411.632 318.437C411.537 318.24 411.394 318.083 411.204 317.965C411.013 317.848 410.783 317.79 410.512 317.79C410.168 317.79 409.883 317.9 409.656 318.119C409.437 318.331 409.327 318.613 409.327 318.964C409.327 319.257 409.404 319.498 409.557 319.689C409.718 319.879 409.927 320.04 410.183 320.172C410.439 320.303 410.71 320.428 410.995 320.545ZM415.881 324.452C415.194 324.452 414.652 324.137 414.257 323.508C413.869 322.872 413.675 321.968 413.675 320.797C413.675 319.619 413.869 318.723 414.257 318.108C414.652 317.493 415.194 317.186 415.881 317.186C416.576 317.186 417.118 317.497 417.506 318.119C417.894 318.734 418.087 319.626 418.087 320.797C418.087 321.968 417.894 322.872 417.506 323.508C417.118 324.137 416.576 324.452 415.881 324.452ZM415.881 323.804C416.167 323.804 416.416 323.698 416.628 323.486C416.847 323.274 417.016 322.945 417.133 322.498C417.25 322.052 417.308 321.485 417.308 320.797C417.308 320.102 417.25 319.539 417.133 319.107C417.016 318.668 416.847 318.346 416.628 318.141C416.416 317.936 416.167 317.834 415.881 317.834C415.596 317.834 415.347 317.936 415.135 318.141C414.923 318.346 414.755 318.668 414.63 319.107C414.513 319.539 414.455 320.102 414.455 320.797C414.455 321.485 414.513 322.052 414.63 322.498C414.755 322.945 414.923 323.274 415.135 323.486C415.347 323.698 415.596 323.804 415.881 323.804Z" fill="#222539"/>
<line x1="86.9168" y1="311.574" x2="86.9168" y2="306.086" stroke="#3347E6" stroke-width="0.685976"/>
<line x1="133.563" y1="311.574" x2="133.563" y2="306.086" stroke="#3347E6" stroke-width="0.685976"/>
<line x1="180.21" y1="311.574" x2="180.21" y2="306.086" stroke="#3347E6" stroke-width="0.685976"/>
<line x1="226.856" y1="311.574" x2="226.856" y2="306.086" stroke="#3347E6" stroke-width="0.685976"/>
<line x1="273.503" y1="311.574" x2="273.503" y2="306.086" stroke="#3347E6" stroke-width="0.685976"/>
<line x1="320.149" y1="311.574" x2="320.149" y2="306.086" stroke="#3347E6" stroke-width="0.685976"/>
<line x1="366.796" y1="311.574" x2="366.796" y2="306.086" stroke="#3347E6" stroke-width="0.685976"/>
<line x1="413.44" y1="311.574" x2="413.44" y2="306.086" stroke="#3347E6" stroke-width="0.685976"/>
<path d="M242.214 348.641V342.121H239.997V341.43H245.232V342.121H243.026V348.641H242.214ZM246.475 348.641V343.317H247.265V348.641H246.475ZM246.881 342.176C246.727 342.176 246.595 342.125 246.486 342.022C246.383 341.92 246.332 341.785 246.332 341.616C246.332 341.455 246.383 341.327 246.486 341.232C246.595 341.13 246.727 341.078 246.881 341.078C247.042 341.078 247.174 341.13 247.276 341.232C247.378 341.327 247.43 341.455 247.43 341.616C247.43 341.785 247.378 341.92 247.276 342.022C247.174 342.125 247.042 342.176 246.881 342.176ZM250.746 348.772C250.198 348.772 249.813 348.611 249.594 348.289C249.382 347.967 249.276 347.55 249.276 347.038V343.976H248.474V343.372L249.309 343.317L249.407 341.814H250.077V343.317H251.537V343.976H250.077V347.06C250.077 347.389 250.135 347.649 250.252 347.839C250.377 348.022 250.6 348.114 250.922 348.114C251.017 348.114 251.119 348.099 251.229 348.07C251.346 348.041 251.449 348.008 251.537 347.971L251.701 348.575C251.555 348.626 251.398 348.67 251.229 348.706C251.061 348.75 250.9 348.772 250.746 348.772ZM253.633 348.772C253.436 348.772 253.271 348.728 253.14 348.641C253.008 348.56 252.913 348.439 252.854 348.278C252.796 348.11 252.766 347.905 252.766 347.664V340.804H253.557V347.73C253.557 347.861 253.582 347.956 253.633 348.015C253.685 348.074 253.743 348.103 253.809 348.103C253.831 348.103 253.857 348.103 253.886 348.103C253.915 348.096 253.955 348.088 254.007 348.081L254.116 348.696C254.058 348.71 253.988 348.725 253.908 348.739C253.835 348.761 253.743 348.772 253.633 348.772ZM257.618 348.772C257.157 348.772 256.732 348.663 256.344 348.443C255.964 348.216 255.66 347.898 255.433 347.488C255.207 347.071 255.093 346.57 255.093 345.985C255.093 345.406 255.207 344.909 255.433 344.492C255.66 344.075 255.953 343.753 256.312 343.526C256.677 343.299 257.065 343.186 257.475 343.186C257.914 343.186 258.291 343.288 258.605 343.493C258.92 343.698 259.158 343.987 259.319 344.36C259.487 344.726 259.571 345.165 259.571 345.677C259.571 345.765 259.568 345.853 259.56 345.941C259.56 346.021 259.553 346.094 259.538 346.16H255.719L255.708 345.578H258.858C258.858 345.008 258.737 344.576 258.496 344.283C258.254 343.983 257.918 343.833 257.486 343.833C257.223 343.833 256.966 343.91 256.718 344.064C256.469 344.217 256.264 344.452 256.103 344.766C255.942 345.081 255.862 345.487 255.862 345.985C255.862 346.46 255.946 346.855 256.114 347.17C256.282 347.485 256.505 347.722 256.783 347.883C257.069 348.044 257.38 348.125 257.716 348.125C257.987 348.125 258.229 348.085 258.441 348.004C258.66 347.924 258.869 347.821 259.066 347.697L259.363 348.224C259.136 348.37 258.88 348.498 258.594 348.608C258.316 348.717 257.991 348.772 257.618 348.772Z" fill="#3F4252"/>
<path d="M50.2407 34C50.2772 33.1073 50.3687 32.3061 50.5151 31.5963C50.6614 30.8866 50.8772 30.2207 51.1626 29.5988C51.448 28.9695 51.8212 28.3329 52.2821 27.689H48.748V26.9976H53.2041V27.4805C52.787 28.0146 52.4468 28.5305 52.1833 29.028C51.9199 29.5183 51.7114 30.0159 51.5577 30.5207C51.4114 31.0256 51.3016 31.5598 51.2285 32.1232C51.1553 32.6866 51.1004 33.3122 51.0638 34H50.2407ZM56.3671 34.1317C55.6793 34.1317 55.1378 33.8171 54.7427 33.1878C54.3549 32.5512 54.161 31.6476 54.161 30.4768C54.161 29.2988 54.3549 28.4024 54.7427 27.7878C55.1378 27.1732 55.6793 26.8659 56.3671 26.8659C57.0622 26.8659 57.6037 27.1768 57.9915 27.7988C58.3793 28.4134 58.5732 29.3061 58.5732 30.4768C58.5732 31.6476 58.3793 32.5512 57.9915 33.1878C57.6037 33.8171 57.0622 34.1317 56.3671 34.1317ZM56.3671 33.4841C56.6525 33.4841 56.9013 33.378 57.1135 33.1659C57.333 32.9537 57.5013 32.6244 57.6183 32.178C57.7354 31.7317 57.7939 31.1646 57.7939 30.4768C57.7939 29.7817 57.7354 29.2183 57.6183 28.7866C57.5013 28.3476 57.333 28.0256 57.1135 27.8207C56.9013 27.6159 56.6525 27.5134 56.3671 27.5134C56.0817 27.5134 55.833 27.6159 55.6208 27.8207C55.4086 28.0256 55.2403 28.3476 55.1159 28.7866C54.9988 29.2183 54.9403 29.7817 54.9403 30.4768C54.9403 31.1646 54.9988 31.7317 55.1159 32.178C55.2403 32.6244 55.4086 32.9537 55.6208 33.1659C55.833 33.378 56.0817 33.4841 56.3671 33.4841ZM51.1846 80.1317C50.8407 80.1317 50.5224 80.0622 50.2297 79.9232C49.937 79.7841 49.6846 79.5756 49.4724 79.2976C49.2675 79.0122 49.1029 78.661 48.9785 78.2439C48.8614 77.8195 48.8029 77.3329 48.8029 76.7841C48.8029 76.0671 48.876 75.4598 49.0224 74.9622C49.1687 74.4646 49.3626 74.0622 49.6041 73.7549C49.8529 73.4476 50.1346 73.2244 50.4492 73.0854C50.7712 72.939 51.1041 72.8659 51.448 72.8659C51.8138 72.8659 52.1285 72.9354 52.3919 73.0744C52.6626 73.2061 52.8931 73.378 53.0833 73.5902L52.6333 74.0951C52.487 73.9195 52.3114 73.7841 52.1065 73.689C51.909 73.5866 51.6968 73.5354 51.4699 73.5354C51.126 73.5354 50.8077 73.6378 50.5151 73.8427C50.2297 74.0476 49.9992 74.3878 49.8236 74.8634C49.648 75.3317 49.5602 75.972 49.5602 76.7841C49.5602 77.3549 49.6224 77.8451 49.7468 78.2549C49.8712 78.6573 50.0541 78.9646 50.2955 79.1768C50.537 79.389 50.837 79.4951 51.1955 79.4951C51.4297 79.4951 51.6419 79.4293 51.8321 79.2976C52.0297 79.1585 52.1833 78.9683 52.2931 78.7268C52.4029 78.4854 52.4577 78.211 52.4577 77.9037C52.4577 77.589 52.4065 77.3146 52.3041 77.0805C52.209 76.8463 52.0626 76.6671 51.8651 76.5427C51.6675 76.411 51.4151 76.3451 51.1077 76.3451C50.8736 76.3451 50.6175 76.422 50.3394 76.5756C50.0614 76.7293 49.7943 76.9927 49.5382 77.3659L49.5163 76.7073C49.7431 76.4073 50.0102 76.1695 50.3175 75.9939C50.6248 75.8183 50.9321 75.7305 51.2394 75.7305C51.6419 75.7305 51.9894 75.8146 52.2821 75.9829C52.5821 76.1439 52.8126 76.3854 52.9736 76.7073C53.1346 77.022 53.2151 77.4207 53.2151 77.9037C53.2151 78.3427 53.1236 78.7305 52.9407 79.0671C52.7577 79.3963 52.5126 79.6561 52.2053 79.8463C51.898 80.0366 51.5577 80.1317 51.1846 80.1317ZM56.3671 80.1317C55.6793 80.1317 55.1378 79.8171 54.7427 79.1878C54.3549 78.5512 54.161 77.6476 54.161 76.4768C54.161 75.2988 54.3549 74.4024 54.7427 73.7878C55.1378 73.1732 55.6793 72.8659 56.3671 72.8659C57.0622 72.8659 57.6037 73.1768 57.9915 73.7988C58.3793 74.4134 58.5732 75.3061 58.5732 76.4768C58.5732 77.6476 58.3793 78.5512 57.9915 79.1878C57.6037 79.8171 57.0622 80.1317 56.3671 80.1317ZM56.3671 79.4841C56.6525 79.4841 56.9013 79.378 57.1135 79.1659C57.333 78.9537 57.5013 78.6244 57.6183 78.178C57.7354 77.7317 57.7939 77.1646 57.7939 76.4768C57.7939 75.7817 57.7354 75.2183 57.6183 74.7866C57.5013 74.3476 57.333 74.0256 57.1135 73.8207C56.9013 73.6159 56.6525 73.5134 56.3671 73.5134C56.0817 73.5134 55.833 73.6159 55.6208 73.8207C55.4086 74.0256 55.2403 74.3476 55.1159 74.7866C54.9988 75.2183 54.9403 75.7817 54.9403 76.4768C54.9403 77.1646 54.9988 77.7317 55.1159 78.178C55.2403 78.6244 55.4086 78.9537 55.6208 79.1659C55.833 79.378 56.0817 79.4841 56.3671 79.4841ZM50.8114 126.132C50.4382 126.132 50.109 126.088 49.8236 126C49.5455 125.905 49.3004 125.784 49.0882 125.638C48.8833 125.491 48.7004 125.338 48.5394 125.177L48.9455 124.65C49.1577 124.855 49.4029 125.041 49.6809 125.21C49.9663 125.378 50.3212 125.462 50.7455 125.462C51.0382 125.462 51.3053 125.393 51.5468 125.254C51.7882 125.115 51.9785 124.921 52.1175 124.672C52.2565 124.423 52.326 124.13 52.326 123.794C52.326 123.289 52.187 122.898 51.909 122.62C51.6309 122.334 51.2577 122.191 50.7894 122.191C50.5407 122.191 50.3248 122.228 50.1419 122.301C49.9663 122.374 49.7724 122.48 49.5602 122.62L49.1212 122.345L49.3516 118.998H52.787V119.689H50.0541L49.8565 121.873C50.0321 121.778 50.2077 121.705 50.3833 121.654C50.559 121.595 50.7565 121.566 50.976 121.566C51.3785 121.566 51.7407 121.646 52.0626 121.807C52.3919 121.961 52.6516 122.199 52.8419 122.521C53.0394 122.843 53.1382 123.256 53.1382 123.761C53.1382 124.266 53.0285 124.698 52.809 125.056C52.5894 125.407 52.3004 125.674 51.9419 125.857C51.5907 126.04 51.2138 126.132 50.8114 126.132ZM56.3671 126.132C55.6793 126.132 55.1378 125.817 54.7427 125.188C54.3549 124.551 54.161 123.648 54.161 122.477C54.161 121.299 54.3549 120.402 54.7427 119.788C55.1378 119.173 55.6793 118.866 56.3671 118.866C57.0622 118.866 57.6037 119.177 57.9915 119.799C58.3793 120.413 58.5732 121.306 58.5732 122.477C58.5732 123.648 58.3793 124.551 57.9915 125.188C57.6037 125.817 57.0622 126.132 56.3671 126.132ZM56.3671 125.484C56.6525 125.484 56.9013 125.378 57.1135 125.166C57.333 124.954 57.5013 124.624 57.6183 124.178C57.7354 123.732 57.7939 123.165 57.7939 122.477C57.7939 121.782 57.7354 121.218 57.6183 120.787C57.5013 120.348 57.333 120.026 57.1135 119.821C56.9013 119.616 56.6525 119.513 56.3671 119.513C56.0817 119.513 55.833 119.616 55.6208 119.821C55.4086 120.026 55.2403 120.348 55.1159 120.787C54.9988 121.218 54.9403 121.782 54.9403 122.477C54.9403 123.165 54.9988 123.732 55.1159 124.178C55.2403 124.624 55.4086 124.954 55.6208 125.166C55.833 125.378 56.0817 125.484 56.3671 125.484ZM51.6126 172V167.215C51.6126 167.032 51.6199 166.812 51.6346 166.556C51.6492 166.3 51.6602 166.08 51.6675 165.898H51.6236C51.5358 166.059 51.4443 166.216 51.3492 166.37C51.2541 166.523 51.1553 166.688 51.0529 166.863L49.3077 169.388H53.3468V170.024H48.4516V169.509L51.5138 164.998H52.3699V172H51.6126ZM56.3671 172.132C55.6793 172.132 55.1378 171.817 54.7427 171.188C54.3549 170.551 54.161 169.648 54.161 168.477C54.161 167.299 54.3549 166.402 54.7427 165.788C55.1378 165.173 55.6793 164.866 56.3671 164.866C57.0622 164.866 57.6037 165.177 57.9915 165.799C58.3793 166.413 58.5732 167.306 58.5732 168.477C58.5732 169.648 58.3793 170.551 57.9915 171.188C57.6037 171.817 57.0622 172.132 56.3671 172.132ZM56.3671 171.484C56.6525 171.484 56.9013 171.378 57.1135 171.166C57.333 170.954 57.5013 170.624 57.6183 170.178C57.7354 169.732 57.7939 169.165 57.7939 168.477C57.7939 167.782 57.7354 167.218 57.6183 166.787C57.5013 166.348 57.333 166.026 57.1135 165.821C56.9013 165.616 56.6525 165.513 56.3671 165.513C56.0817 165.513 55.833 165.616 55.6208 165.821C55.4086 166.026 55.2403 166.348 55.1159 166.787C54.9988 167.218 54.9403 167.782 54.9403 168.477C54.9403 169.165 54.9988 169.732 55.1159 170.178C55.2403 170.624 55.4086 170.954 55.6208 171.166C55.833 171.378 56.0817 171.484 56.3671 171.484ZM50.8443 218.132C50.4712 218.132 50.1419 218.084 49.8565 217.989C49.5712 217.894 49.3224 217.773 49.1102 217.627C48.898 217.473 48.7151 217.312 48.5614 217.144L48.9675 216.617C49.1797 216.837 49.4285 217.034 49.7138 217.21C50.0065 217.378 50.3687 217.462 50.8004 217.462C51.2394 217.462 51.598 217.341 51.876 217.1C52.1614 216.851 52.3041 216.522 52.3041 216.112C52.3041 215.827 52.2272 215.574 52.0736 215.355C51.9272 215.135 51.6858 214.967 51.3492 214.85C51.0199 214.726 50.5736 214.663 50.0102 214.663V214.038C50.5151 214.038 50.9138 213.979 51.2065 213.862C51.5065 213.738 51.7224 213.573 51.8541 213.368C51.9858 213.163 52.0516 212.933 52.0516 212.677C52.0516 212.326 51.9382 212.048 51.7114 211.843C51.4846 211.63 51.1772 211.524 50.7894 211.524C50.4894 211.524 50.2114 211.594 49.9553 211.733C49.6992 211.865 49.4687 212.037 49.2638 212.249L48.8248 211.733C49.0955 211.484 49.3919 211.279 49.7138 211.118C50.0358 210.95 50.4016 210.866 50.8114 210.866C51.2065 210.866 51.5577 210.935 51.8651 211.074C52.1724 211.213 52.4138 211.415 52.5894 211.678C52.7724 211.934 52.8638 212.249 52.8638 212.622C52.8638 213.054 52.7431 213.409 52.5016 213.687C52.2675 213.957 51.9565 214.162 51.5687 214.301V214.345C51.8541 214.411 52.1138 214.524 52.348 214.685C52.5821 214.839 52.7687 215.04 52.9077 215.289C53.0468 215.53 53.1163 215.812 53.1163 216.134C53.1163 216.551 53.0138 216.91 52.809 217.21C52.6041 217.502 52.3297 217.729 51.9858 217.89C51.6419 218.051 51.2614 218.132 50.8443 218.132ZM56.3671 218.132C55.6793 218.132 55.1378 217.817 54.7427 217.188C54.3549 216.551 54.161 215.648 54.161 214.477C54.161 213.299 54.3549 212.402 54.7427 211.788C55.1378 211.173 55.6793 210.866 56.3671 210.866C57.0622 210.866 57.6037 211.177 57.9915 211.799C58.3793 212.413 58.5732 213.306 58.5732 214.477C58.5732 215.648 58.3793 216.551 57.9915 217.188C57.6037 217.817 57.0622 218.132 56.3671 218.132ZM56.3671 217.484C56.6525 217.484 56.9013 217.378 57.1135 217.166C57.333 216.954 57.5013 216.624 57.6183 216.178C57.7354 215.732 57.7939 215.165 57.7939 214.477C57.7939 213.782 57.7354 213.218 57.6183 212.787C57.5013 212.348 57.333 212.026 57.1135 211.821C56.9013 211.616 56.6525 211.513 56.3671 211.513C56.0817 211.513 55.833 211.616 55.6208 211.821C55.4086 212.026 55.2403 212.348 55.1159 212.787C54.9988 213.218 54.9403 213.782 54.9403 214.477C54.9403 215.165 54.9988 215.732 55.1159 216.178C55.2403 216.624 55.4086 216.954 55.6208 217.166C55.833 217.378 56.0817 217.484 56.3671 217.484ZM48.7041 264V263.528C49.4212 262.804 50.0285 262.171 50.526 261.629C51.0236 261.08 51.4004 260.59 51.6565 260.159C51.9126 259.727 52.0407 259.317 52.0407 258.929C52.0407 258.52 51.9272 258.183 51.7004 257.92C51.4809 257.656 51.1333 257.524 50.6577 257.524C50.3651 257.524 50.087 257.605 49.8236 257.766C49.5675 257.927 49.337 258.132 49.1321 258.38L48.6602 257.92C48.9529 257.605 49.2638 257.352 49.5931 257.162C49.9224 256.965 50.3102 256.866 50.7565 256.866C51.1809 256.866 51.5468 256.95 51.8541 257.118C52.1687 257.287 52.4102 257.524 52.5785 257.832C52.7468 258.132 52.8309 258.487 52.8309 258.896C52.8309 259.343 52.7029 259.793 52.4468 260.246C52.198 260.7 51.8504 261.183 51.4041 261.695C50.9651 262.2 50.4565 262.756 49.8785 263.363C50.0687 263.349 50.2663 263.338 50.4712 263.33C50.676 263.316 50.8699 263.309 51.0529 263.309H53.1712V264H48.7041ZM56.3671 264.132C55.6793 264.132 55.1378 263.817 54.7427 263.188C54.3549 262.551 54.161 261.648 54.161 260.477C54.161 259.299 54.3549 258.402 54.7427 257.788C55.1378 257.173 55.6793 256.866 56.3671 256.866C57.0622 256.866 57.6037 257.177 57.9915 257.799C58.3793 258.413 58.5732 259.306 58.5732 260.477C58.5732 261.648 58.3793 262.551 57.9915 263.188C57.6037 263.817 57.0622 264.132 56.3671 264.132ZM56.3671 263.484C56.6525 263.484 56.9013 263.378 57.1135 263.166C57.333 262.954 57.5013 262.624 57.6183 262.178C57.7354 261.732 57.7939 261.165 57.7939 260.477C57.7939 259.782 57.7354 259.218 57.6183 258.787C57.5013 258.348 57.333 258.026 57.1135 257.821C56.9013 257.616 56.6525 257.513 56.3671 257.513C56.0817 257.513 55.833 257.616 55.6208 257.821C55.4086 258.026 55.2403 258.348 55.1159 258.787C54.9988 259.218 54.9403 259.782 54.9403 260.477C54.9403 261.165 54.9988 261.732 55.1159 262.178C55.2403 262.624 55.4086 262.954 55.6208 263.166C55.833 263.378 56.0817 263.484 56.3671 263.484ZM49.253 310V309.33H50.8664V304.007H49.5933V303.491C49.9079 303.44 50.1823 303.374 50.4164 303.294C50.6506 303.206 50.8628 303.107 51.053 302.998H51.6677V309.33H53.1274V310H49.253ZM56.3671 310.132C55.6793 310.132 55.1378 309.817 54.7427 309.188C54.3549 308.551 54.161 307.648 54.161 306.477C54.161 305.299 54.3549 304.402 54.7427 303.788C55.1378 303.173 55.6793 302.866 56.3671 302.866C57.0622 302.866 57.6037 303.177 57.9915 303.799C58.3793 304.413 58.5732 305.306 58.5732 306.477C58.5732 307.648 58.3793 308.551 57.9915 309.188C57.6037 309.817 57.0622 310.132 56.3671 310.132ZM56.3671 309.484C56.6525 309.484 56.9013 309.378 57.1135 309.166C57.333 308.954 57.5013 308.624 57.6183 308.178C57.7354 307.732 57.7939 307.165 57.7939 306.477C57.7939 305.782 57.7354 305.218 57.6183 304.787C57.5013 304.348 57.333 304.026 57.1135 303.821C56.9013 303.616 56.6525 303.513 56.3671 303.513C56.0817 303.513 55.833 303.616 55.6208 303.821C55.4086 304.026 55.2403 304.348 55.1159 304.787C54.9988 305.218 54.9403 305.782 54.9403 306.477C54.9403 307.165 54.9988 307.732 55.1159 308.178C55.2403 308.624 55.4086 308.954 55.6208 309.166C55.833 309.378 56.0817 309.484 56.3671 309.484Z" fill="#222539"/>
<path d="M34.4629 154.556H27.9434V156.773H27.2519V151.538H27.9434V153.744H34.4629V154.556ZM34.4629 150.296H29.1397V149.505H34.4629V150.296ZM27.9983 149.889C27.9983 150.043 27.947 150.175 27.8446 150.285C27.7422 150.387 27.6068 150.438 27.4385 150.438C27.2775 150.438 27.1495 150.387 27.0544 150.285C26.9519 150.175 26.9007 150.043 26.9007 149.889C26.9007 149.728 26.9519 149.597 27.0544 149.494C27.1495 149.392 27.2775 149.341 27.4385 149.341C27.6068 149.341 27.7422 149.392 27.8446 149.494C27.947 149.597 27.9983 149.728 27.9983 149.889ZM34.5946 146.024C34.5946 146.573 34.4336 146.957 34.1117 147.176C33.7897 147.389 33.3726 147.495 32.8605 147.495H29.7983V148.296H29.1946L29.1397 147.462L27.6361 147.363V146.694H29.1397V145.234H29.7983V146.694H32.8824C33.2117 146.694 33.4714 146.635 33.6617 146.518C33.8446 146.394 33.9361 146.17 33.9361 145.848C33.9361 145.753 33.9214 145.651 33.8922 145.541C33.8629 145.424 33.83 145.322 33.7934 145.234L34.397 145.069C34.4483 145.215 34.4922 145.373 34.5287 145.541C34.5726 145.709 34.5946 145.87 34.5946 146.024ZM34.5946 143.137C34.5946 143.334 34.5507 143.499 34.4629 143.631C34.3824 143.762 34.2617 143.858 34.1007 143.916C33.9324 143.975 33.7275 144.004 33.4861 144.004H26.6263V143.214H33.5519C33.6836 143.214 33.7787 143.188 33.8373 143.137C33.8958 143.086 33.9251 143.027 33.9251 142.961C33.9251 142.939 33.9251 142.914 33.9251 142.884C33.9178 142.855 33.9105 142.815 33.9031 142.764L34.5178 142.654C34.5324 142.712 34.547 142.782 34.5617 142.862C34.5836 142.936 34.5946 143.027 34.5946 143.137ZM34.5946 139.153C34.5946 139.614 34.4848 140.038 34.2653 140.426C34.0385 140.806 33.7202 141.11 33.3105 141.337C32.8934 141.564 32.3922 141.677 31.8068 141.677C31.2287 141.677 30.7312 141.564 30.3141 141.337C29.897 141.11 29.5751 140.817 29.3483 140.459C29.1214 140.093 29.008 139.705 29.008 139.295C29.008 138.856 29.1105 138.479 29.3153 138.165C29.5202 137.85 29.8092 137.612 30.1824 137.451C30.5483 137.283 30.9873 137.199 31.4995 137.199C31.5873 137.199 31.6751 137.203 31.7629 137.21C31.8434 137.21 31.9165 137.217 31.9824 137.232V141.051L31.4007 141.062V137.912C30.83 137.912 30.3983 138.033 30.1056 138.275C29.8056 138.516 29.6556 138.853 29.6556 139.284C29.6556 139.548 29.7324 139.804 29.8861 140.053C30.0397 140.301 30.2739 140.506 30.5885 140.667C30.9031 140.828 31.3092 140.909 31.8068 140.909C32.2824 140.909 32.6775 140.825 32.9922 140.656C33.3068 140.488 33.5446 140.265 33.7056 139.987C33.8665 139.701 33.947 139.39 33.947 139.054C33.947 138.783 33.9068 138.542 33.8263 138.329C33.7458 138.11 33.6434 137.901 33.519 137.704L34.0458 137.408C34.1922 137.634 34.3202 137.89 34.43 138.176C34.5397 138.454 34.5946 138.779 34.5946 139.153Z" fill="#3F4252"/>
<path opacity="0.8" d="M74.2246 286.187L120.185 191.523L168.889 204.556L218.965 176.431L261.496 127.727L201.816 271.096L267.67 226.508L305.398 230.623L346.557 142.819L404.865 48.8398" stroke="#CC79A7" stroke-width="2.05793"/>
<circle cx="74.2244" cy="286.873" r="2.7439" fill="#CC79A7"/>
<circle cx="120.183" cy="191.525" r="2.7439" fill="#CC79A7"/>
<circle cx="168.89" cy="204.56" r="2.7439" fill="#CC79A7"/>
<circle cx="218.965" cy="176.435" r="2.7439" fill="#CC79A7"/>
<circle cx="260.808" cy="128.416" r="2.7439" fill="#CC79A7"/>
<circle cx="201.129" cy="271.783" r="2.7439" fill="#CC79A7"/>
<circle cx="267.67" cy="227.197" r="2.7439" fill="#CC79A7"/>
<circle cx="304.713" cy="229.939" r="2.7439" fill="#CC79A7"/>
<circle cx="347.242" cy="142.135" r="2.7439" fill="#CC79A7"/>
<circle cx="404.865" cy="48.8416" r="2.7439" fill="#CC79A7"/>
<g filter="url(#filter1_d_958_19631)">
<rect x="79.9004" y="281.5" width="26.1" height="15.3" rx="2.7439" fill="#222539" shape-rendering="crispEdges"/>
<path d="M83.2042 293.188V292.54C83.8773 291.881 84.4517 291.296 84.9273 290.784C85.4103 290.272 85.7798 289.811 86.0359 289.401C86.292 288.984 86.42 288.592 86.42 288.227C86.42 287.839 86.3176 287.531 86.1127 287.305C85.9078 287.07 85.6005 286.953 85.1907 286.953C84.9127 286.953 84.6529 287.03 84.4115 287.184C84.1773 287.338 83.9651 287.528 83.7749 287.755L83.1493 287.14C83.4566 286.803 83.7785 286.54 84.1151 286.35C84.459 286.159 84.8651 286.064 85.3334 286.064C85.7724 286.064 86.1529 286.152 86.4749 286.328C86.7968 286.496 87.0456 286.741 87.2212 287.063C87.4042 287.378 87.4956 287.747 87.4956 288.172C87.4956 288.596 87.3749 289.028 87.1334 289.467C86.8993 289.898 86.5773 290.348 86.1676 290.817C85.7651 291.285 85.3151 291.783 84.8176 292.309C85.0005 292.295 85.1981 292.28 85.4103 292.266C85.6224 292.251 85.8163 292.244 85.992 292.244H87.8359V293.188H83.2042ZM91.105 293.319C90.388 293.319 89.8209 293.005 89.4038 292.375C88.9941 291.746 88.7892 290.842 88.7892 289.664C88.7892 288.486 88.9941 287.594 89.4038 286.986C89.8209 286.372 90.388 286.064 91.105 286.064C91.8148 286.064 92.3782 286.372 92.7953 286.986C93.2124 287.601 93.4209 288.494 93.4209 289.664C93.4209 290.842 93.2124 291.746 92.7953 292.375C92.3782 293.005 91.8148 293.319 91.105 293.319ZM91.105 292.441C91.3465 292.441 91.5624 292.35 91.7526 292.167C91.9429 291.984 92.0892 291.691 92.1916 291.289C92.3014 290.879 92.3563 290.338 92.3563 289.664C92.3563 288.991 92.3014 288.457 92.1916 288.062C92.0892 287.659 91.9429 287.374 91.7526 287.206C91.5624 287.03 91.3465 286.942 91.105 286.942C90.8563 286.942 90.6368 287.03 90.4465 287.206C90.2636 287.374 90.1172 287.659 90.0075 288.062C89.905 288.457 89.8538 288.991 89.8538 289.664C89.8538 290.338 89.905 290.879 90.0075 291.289C90.1172 291.691 90.2636 291.984 90.4465 292.167C90.6368 292.35 90.8563 292.441 91.105 292.441ZM94.3742 293.188V292.277H95.9547V287.447H94.6706V286.745C95.0072 286.679 95.2998 286.602 95.5486 286.514C95.7974 286.427 96.0242 286.32 96.2291 286.196H97.0633V292.277H98.4681V293.188H94.3742ZM99.3889 293.188V292.54C100.062 291.881 100.636 291.296 101.112 290.784C101.595 290.272 101.964 289.811 102.221 289.401C102.477 288.984 102.605 288.592 102.605 288.227C102.605 287.839 102.502 287.531 102.297 287.305C102.093 287.07 101.785 286.953 101.375 286.953C101.097 286.953 100.838 287.03 100.596 287.184C100.362 287.338 100.15 287.528 99.9596 287.755L99.334 287.14C99.6413 286.803 99.9633 286.54 100.3 286.35C100.644 286.159 101.05 286.064 101.518 286.064C101.957 286.064 102.338 286.152 102.66 286.328C102.982 286.496 103.23 286.741 103.406 287.063C103.589 287.378 103.68 287.747 103.68 288.172C103.68 288.596 103.56 289.028 103.318 289.467C103.084 289.898 102.762 290.348 102.352 290.817C101.95 291.285 101.5 291.783 101.002 292.309C101.185 292.295 101.383 292.28 101.595 292.266C101.807 292.251 102.001 292.244 102.177 292.244H104.021V293.188H99.3889Z" fill="white"/>
</g>
<g filter="url(#filter2_d_958_19631)">
<rect x="106" y="170.801" width="27.9" height="16.2" rx="2.7439" fill="#222539" shape-rendering="crispEdges"/>
<path d="M109.304 182.488V181.841C109.977 181.182 110.551 180.597 111.027 180.085C111.51 179.572 111.879 179.111 112.135 178.702C112.392 178.285 112.52 177.893 112.52 177.527C112.52 177.14 112.417 176.832 112.212 176.605C112.007 176.371 111.7 176.254 111.29 176.254C111.012 176.254 110.753 176.331 110.511 176.485C110.277 176.638 110.065 176.829 109.874 177.055L109.249 176.441C109.556 176.104 109.878 175.841 110.215 175.65C110.559 175.46 110.965 175.365 111.433 175.365C111.872 175.365 112.253 175.453 112.574 175.629C112.896 175.797 113.145 176.042 113.321 176.364C113.504 176.679 113.595 177.048 113.595 177.472C113.595 177.897 113.474 178.329 113.233 178.768C112.999 179.199 112.677 179.649 112.267 180.118C111.865 180.586 111.415 181.083 110.917 181.61C111.1 181.596 111.298 181.581 111.51 181.566C111.722 181.552 111.916 181.544 112.092 181.544H113.935V182.488H109.304ZM117.205 182.62C116.488 182.62 115.921 182.305 115.503 181.676C115.094 181.047 114.889 180.143 114.889 178.965C114.889 177.787 115.094 176.894 115.503 176.287C115.921 175.672 116.488 175.365 117.205 175.365C117.914 175.365 118.478 175.672 118.895 176.287C119.312 176.902 119.521 177.794 119.521 178.965C119.521 180.143 119.312 181.047 118.895 181.676C118.478 182.305 117.914 182.62 117.205 182.62ZM117.205 181.742C117.446 181.742 117.662 181.65 117.852 181.468C118.042 181.285 118.189 180.992 118.291 180.59C118.401 180.18 118.456 179.638 118.456 178.965C118.456 178.292 118.401 177.758 118.291 177.363C118.189 176.96 118.042 176.675 117.852 176.507C117.662 176.331 117.446 176.243 117.205 176.243C116.956 176.243 116.736 176.331 116.546 176.507C116.363 176.675 116.217 176.96 116.107 177.363C116.005 177.758 115.953 178.292 115.953 178.965C115.953 179.638 116.005 180.18 116.107 180.59C116.217 180.992 116.363 181.285 116.546 181.468C116.736 181.65 116.956 181.742 117.205 181.742ZM120.474 182.488V181.577H122.054V176.748H120.77V176.046C121.107 175.98 121.399 175.903 121.648 175.815C121.897 175.727 122.124 175.621 122.329 175.497H123.163V181.577H124.568V182.488H120.474ZM127.673 182.62C127.299 182.62 126.967 182.576 126.674 182.488C126.381 182.393 126.125 182.272 125.906 182.126C125.686 181.972 125.496 181.808 125.335 181.632L125.873 180.919C126.085 181.131 126.326 181.318 126.597 181.479C126.875 181.632 127.204 181.709 127.585 181.709C127.987 181.709 128.313 181.607 128.562 181.402C128.818 181.197 128.946 180.915 128.946 180.557C128.946 180.3 128.88 180.077 128.748 179.887C128.624 179.697 128.404 179.55 128.09 179.448C127.782 179.338 127.358 179.283 126.817 179.283V178.46C127.292 178.46 127.665 178.409 127.936 178.307C128.214 178.197 128.412 178.054 128.529 177.879C128.646 177.696 128.704 177.491 128.704 177.264C128.704 176.949 128.606 176.704 128.408 176.529C128.21 176.346 127.94 176.254 127.596 176.254C127.318 176.254 127.058 176.316 126.817 176.441C126.582 176.565 126.363 176.73 126.158 176.935L125.576 176.243C125.869 175.98 126.18 175.768 126.509 175.607C126.846 175.446 127.223 175.365 127.64 175.365C128.064 175.365 128.441 175.438 128.77 175.585C129.099 175.724 129.356 175.929 129.538 176.199C129.729 176.463 129.824 176.788 129.824 177.176C129.824 177.579 129.71 177.915 129.484 178.186C129.264 178.457 128.964 178.665 128.584 178.811V178.855C128.862 178.921 129.11 179.035 129.33 179.196C129.557 179.349 129.736 179.547 129.868 179.788C129.999 180.022 130.065 180.297 130.065 180.611C130.065 181.036 129.956 181.398 129.736 181.698C129.524 181.991 129.235 182.218 128.869 182.379C128.51 182.54 128.112 182.62 127.673 182.62Z" fill="white"/>
</g>
<g filter="url(#filter3_d_958_19631)">
<rect x="154.484" y="210.047" width="17.1494" height="15.7774" rx="2.7439" fill="#222539" shape-rendering="crispEdges"/>
<path d="M157.788 221.734V221.087C158.461 220.428 159.036 219.843 159.511 219.331C159.994 218.819 160.364 218.358 160.62 217.948C160.876 217.531 161.004 217.139 161.004 216.773C161.004 216.386 160.902 216.078 160.697 215.851C160.492 215.617 160.184 215.5 159.775 215.5C159.497 215.5 159.237 215.577 158.995 215.731C158.761 215.884 158.549 216.075 158.359 216.301L157.733 215.687C158.041 215.35 158.363 215.087 158.699 214.897C159.043 214.706 159.449 214.611 159.917 214.611C160.356 214.611 160.737 214.699 161.059 214.875C161.381 215.043 161.63 215.288 161.805 215.61C161.988 215.925 162.08 216.294 162.08 216.719C162.08 217.143 161.959 217.575 161.717 218.014C161.483 218.445 161.161 218.895 160.752 219.364C160.349 219.832 159.899 220.329 159.402 220.856C159.584 220.842 159.782 220.827 159.994 220.812C160.206 220.798 160.4 220.79 160.576 220.79H162.42V221.734H157.788ZM165.689 221.866C164.972 221.866 164.405 221.551 163.988 220.922C163.578 220.293 163.373 219.389 163.373 218.211C163.373 217.033 163.578 216.14 163.988 215.533C164.405 214.919 164.972 214.611 165.689 214.611C166.399 214.611 166.962 214.919 167.379 215.533C167.796 216.148 168.005 217.04 168.005 218.211C168.005 219.389 167.796 220.293 167.379 220.922C166.962 221.551 166.399 221.866 165.689 221.866ZM165.689 220.988C165.93 220.988 166.146 220.897 166.337 220.714C166.527 220.531 166.673 220.238 166.776 219.836C166.885 219.426 166.94 218.884 166.94 218.211C166.94 217.538 166.885 217.004 166.776 216.609C166.673 216.206 166.527 215.921 166.337 215.753C166.146 215.577 165.93 215.489 165.689 215.489C165.44 215.489 165.221 215.577 165.03 215.753C164.848 215.921 164.701 216.206 164.591 216.609C164.489 217.004 164.438 217.538 164.438 218.211C164.438 218.884 164.489 219.426 164.591 219.836C164.701 220.238 164.848 220.531 165.03 220.714C165.221 220.897 165.44 220.988 165.689 220.988ZM168.958 221.734V220.823H170.539V215.994H169.255V215.292C169.591 215.226 169.884 215.149 170.133 215.061C170.381 214.973 170.608 214.867 170.813 214.743H171.647V220.823H173.052V221.734H168.958ZM176.848 221.734V217.234C176.848 217.037 176.856 216.803 176.87 216.532C176.885 216.254 176.896 216.02 176.903 215.829H176.859C176.772 215.998 176.68 216.17 176.585 216.345C176.49 216.514 176.391 216.689 176.289 216.872L174.862 219.012H178.802V219.879H173.742V219.133L176.607 214.743H177.891V221.734H176.848Z" fill="white"/>
</g>
<g filter="url(#filter4_d_958_19631)">
<rect x="205" y="181.602" width="27.9" height="16.2" rx="2.7439" fill="#222539" shape-rendering="crispEdges"/>
<path d="M208.304 193.289V192.642C208.977 191.983 209.551 191.398 210.027 190.885C210.51 190.373 210.879 189.912 211.135 189.502C211.392 189.085 211.52 188.694 211.52 188.328C211.52 187.94 211.417 187.633 211.212 187.406C211.007 187.172 210.7 187.055 210.29 187.055C210.012 187.055 209.753 187.132 209.511 187.285C209.277 187.439 209.065 187.629 208.874 187.856L208.249 187.242C208.556 186.905 208.878 186.642 209.215 186.451C209.559 186.261 209.965 186.166 210.433 186.166C210.872 186.166 211.253 186.254 211.574 186.429C211.896 186.598 212.145 186.843 212.321 187.165C212.504 187.479 212.595 187.849 212.595 188.273C212.595 188.698 212.474 189.129 212.233 189.568C211.999 190 211.677 190.45 211.267 190.918C210.865 191.387 210.415 191.884 209.917 192.411C210.1 192.396 210.298 192.382 210.51 192.367C210.722 192.352 210.916 192.345 211.092 192.345H212.935V193.289H208.304ZM216.205 193.421C215.488 193.421 214.921 193.106 214.503 192.477C214.094 191.848 213.889 190.944 213.889 189.766C213.889 188.588 214.094 187.695 214.503 187.088C214.921 186.473 215.488 186.166 216.205 186.166C216.914 186.166 217.478 186.473 217.895 187.088C218.312 187.702 218.521 188.595 218.521 189.766C218.521 190.944 218.312 191.848 217.895 192.477C217.478 193.106 216.914 193.421 216.205 193.421ZM216.205 192.543C216.446 192.543 216.662 192.451 216.852 192.268C217.042 192.085 217.189 191.793 217.291 191.39C217.401 190.981 217.456 190.439 217.456 189.766C217.456 189.093 217.401 188.559 217.291 188.163C217.189 187.761 217.042 187.476 216.852 187.307C216.662 187.132 216.446 187.044 216.205 187.044C215.956 187.044 215.736 187.132 215.546 187.307C215.363 187.476 215.217 187.761 215.107 188.163C215.005 188.559 214.953 189.093 214.953 189.766C214.953 190.439 215.005 190.981 215.107 191.39C215.217 191.793 215.363 192.085 215.546 192.268C215.736 192.451 215.956 192.543 216.205 192.543ZM219.474 193.289V192.378H221.054V187.549H219.77V186.846C220.107 186.781 220.399 186.704 220.648 186.616C220.897 186.528 221.124 186.422 221.329 186.298H222.163V192.378H223.568V193.289H219.474ZM226.673 193.421C226.292 193.421 225.956 193.377 225.663 193.289C225.378 193.194 225.125 193.073 224.906 192.927C224.686 192.781 224.492 192.623 224.324 192.455L224.851 191.742C225.063 191.946 225.301 192.126 225.564 192.279C225.835 192.433 226.16 192.51 226.541 192.51C226.812 192.51 227.053 192.451 227.265 192.334C227.485 192.217 227.657 192.052 227.781 191.84C227.906 191.621 227.968 191.361 227.968 191.061C227.968 190.615 227.843 190.271 227.595 190.029C227.346 189.781 227.013 189.656 226.596 189.656C226.369 189.656 226.171 189.689 226.003 189.755C225.842 189.821 225.656 189.923 225.443 190.062L224.895 189.711L225.114 186.298H228.747V187.242H226.08L225.915 189.096C226.069 189.016 226.223 188.954 226.376 188.91C226.53 188.866 226.706 188.844 226.903 188.844C227.298 188.844 227.66 188.924 227.99 189.085C228.326 189.239 228.593 189.477 228.791 189.799C228.988 190.121 229.087 190.531 229.087 191.028C229.087 191.54 228.974 191.976 228.747 192.334C228.52 192.685 228.22 192.956 227.847 193.146C227.481 193.329 227.09 193.421 226.673 193.421Z" fill="white"/>
</g>
<g filter="url(#filter5_d_958_19631)">
<rect x="248.199" y="106.898" width="27.9" height="16.2" rx="2.7439" fill="#222539" shape-rendering="crispEdges"/>
<path d="M251.503 118.586V117.938C252.176 117.28 252.751 116.694 253.226 116.182C253.709 115.67 254.079 115.209 254.335 114.799C254.591 114.382 254.719 113.991 254.719 113.625C254.719 113.237 254.616 112.93 254.412 112.703C254.207 112.469 253.899 112.352 253.49 112.352C253.212 112.352 252.952 112.429 252.71 112.582C252.476 112.736 252.264 112.926 252.074 113.153L251.448 112.538C251.755 112.202 252.077 111.938 252.414 111.748C252.758 111.558 253.164 111.463 253.632 111.463C254.071 111.463 254.452 111.551 254.774 111.726C255.096 111.894 255.344 112.14 255.52 112.462C255.703 112.776 255.794 113.146 255.794 113.57C255.794 113.994 255.674 114.426 255.432 114.865C255.198 115.297 254.876 115.747 254.466 116.215C254.064 116.683 253.614 117.181 253.116 117.708C253.299 117.693 253.497 117.679 253.709 117.664C253.921 117.649 254.115 117.642 254.291 117.642H256.135V118.586H251.503ZM259.404 118.718C258.687 118.718 258.12 118.403 257.703 117.774C257.293 117.144 257.088 116.241 257.088 115.063C257.088 113.885 257.293 112.992 257.703 112.385C258.12 111.77 258.687 111.463 259.404 111.463C260.114 111.463 260.677 111.77 261.094 112.385C261.511 112.999 261.72 113.892 261.72 115.063C261.72 116.241 261.511 117.144 261.094 117.774C260.677 118.403 260.114 118.718 259.404 118.718ZM259.404 117.84C259.645 117.84 259.861 117.748 260.051 117.565C260.242 117.382 260.388 117.09 260.49 116.687C260.6 116.277 260.655 115.736 260.655 115.063C260.655 114.39 260.6 113.855 260.49 113.46C260.388 113.058 260.242 112.773 260.051 112.604C259.861 112.429 259.645 112.341 259.404 112.341C259.155 112.341 258.936 112.429 258.745 112.604C258.562 112.773 258.416 113.058 258.306 113.46C258.204 113.855 258.153 114.39 258.153 115.063C258.153 115.736 258.204 116.277 258.306 116.687C258.416 117.09 258.562 117.382 258.745 117.565C258.936 117.748 259.155 117.84 259.404 117.84ZM262.673 118.586V117.675H264.254V112.846H262.969V112.143C263.306 112.077 263.599 112.001 263.847 111.913C264.096 111.825 264.323 111.719 264.528 111.594H265.362V117.675H266.767V118.586H262.673ZM270.245 118.718C269.901 118.718 269.579 118.648 269.279 118.509C268.979 118.37 268.716 118.162 268.489 117.883C268.269 117.605 268.094 117.254 267.962 116.83C267.83 116.405 267.765 115.904 267.765 115.326C267.765 114.638 267.838 114.049 267.984 113.559C268.138 113.069 268.339 112.67 268.588 112.363C268.844 112.055 269.133 111.829 269.455 111.682C269.777 111.536 270.117 111.463 270.476 111.463C270.878 111.463 271.226 111.536 271.518 111.682C271.811 111.829 272.06 112.012 272.265 112.231L271.661 112.912C271.522 112.751 271.35 112.623 271.145 112.527C270.947 112.425 270.743 112.374 270.53 112.374C270.216 112.374 269.927 112.469 269.663 112.659C269.4 112.842 269.188 113.149 269.027 113.581C268.873 114.005 268.796 114.587 268.796 115.326C268.796 115.904 268.855 116.38 268.972 116.753C269.089 117.126 269.254 117.404 269.466 117.587C269.685 117.77 269.941 117.862 270.234 117.862C270.439 117.862 270.626 117.807 270.794 117.697C270.969 117.58 271.105 117.415 271.2 117.203C271.302 116.991 271.354 116.738 271.354 116.446C271.354 116.16 271.306 115.919 271.211 115.721C271.123 115.516 270.991 115.363 270.816 115.26C270.64 115.151 270.424 115.096 270.168 115.096C269.956 115.096 269.726 115.165 269.477 115.304C269.228 115.443 268.997 115.681 268.785 116.018L268.741 115.205C268.954 114.92 269.206 114.697 269.499 114.536C269.799 114.368 270.088 114.283 270.366 114.283C270.768 114.283 271.119 114.364 271.419 114.525C271.727 114.686 271.965 114.927 272.133 115.249C272.301 115.564 272.385 115.963 272.385 116.446C272.385 116.907 272.286 117.305 272.089 117.642C271.891 117.979 271.632 118.242 271.31 118.432C270.988 118.623 270.633 118.718 270.245 118.718Z" fill="white"/>
</g>
<g filter="url(#filter6_d_958_19631)">
<rect x="186.1" y="277" width="26.1" height="16.2" rx="2.7439" fill="#222539" shape-rendering="crispEdges"/>
<path d="M189.403 288.688V288.04C190.077 287.381 190.651 286.796 191.127 286.284C191.609 285.772 191.979 285.311 192.235 284.901C192.491 284.484 192.619 284.092 192.619 283.727C192.619 283.339 192.517 283.031 192.312 282.805C192.107 282.57 191.8 282.453 191.39 282.453C191.112 282.453 190.852 282.53 190.611 282.684C190.377 282.838 190.164 283.028 189.974 283.255L189.348 282.64C189.656 282.303 189.978 282.04 190.314 281.85C190.658 281.659 191.064 281.564 191.533 281.564C191.972 281.564 192.352 281.652 192.674 281.828C192.996 281.996 193.245 282.241 193.42 282.563C193.603 282.878 193.695 283.247 193.695 283.672C193.695 284.096 193.574 284.528 193.333 284.967C193.098 285.398 192.777 285.848 192.367 286.317C191.964 286.785 191.514 287.283 191.017 287.809C191.2 287.795 191.397 287.78 191.609 287.766C191.822 287.751 192.016 287.744 192.191 287.744H194.035V288.688H189.403ZM197.304 288.819C196.587 288.819 196.02 288.505 195.603 287.875C195.193 287.246 194.988 286.342 194.988 285.164C194.988 283.986 195.193 283.094 195.603 282.486C196.02 281.872 196.587 281.564 197.304 281.564C198.014 281.564 198.577 281.872 198.995 282.486C199.412 283.101 199.62 283.994 199.62 285.164C199.62 286.342 199.412 287.246 198.995 287.875C198.577 288.505 198.014 288.819 197.304 288.819ZM197.304 287.941C197.546 287.941 197.762 287.85 197.952 287.667C198.142 287.484 198.288 287.191 198.391 286.789C198.501 286.379 198.555 285.838 198.555 285.164C198.555 284.491 198.501 283.957 198.391 283.562C198.288 283.159 198.142 282.874 197.952 282.706C197.762 282.53 197.546 282.442 197.304 282.442C197.055 282.442 196.836 282.53 196.646 282.706C196.463 282.874 196.316 283.159 196.207 283.562C196.104 283.957 196.053 284.491 196.053 285.164C196.053 285.838 196.104 286.379 196.207 286.789C196.316 287.191 196.463 287.484 196.646 287.667C196.836 287.85 197.055 287.941 197.304 287.941ZM200.573 288.688V287.777H202.154V282.947H200.87V282.245C201.206 282.179 201.499 282.102 201.748 282.014C201.997 281.927 202.223 281.82 202.428 281.696H203.262V287.777H204.667V288.688H200.573ZM207.048 288.688C207.092 287.839 207.18 287.078 207.311 286.405C207.45 285.731 207.655 285.095 207.926 284.495C208.204 283.888 208.57 283.269 209.023 282.64H205.643V281.696H210.253V282.377C209.836 282.889 209.499 283.383 209.243 283.858C208.987 284.327 208.786 284.802 208.639 285.285C208.5 285.768 208.394 286.284 208.321 286.833C208.255 287.381 208.208 288 208.178 288.688H207.048Z" fill="white"/>
</g>
<g filter="url(#filter7_d_958_19631)">
<rect x="253.6" y="205.898" width="27" height="16.2" rx="2.7439" fill="#222539" shape-rendering="crispEdges"/>
<path d="M256.903 217.586V216.938C257.577 216.28 258.151 215.694 258.627 215.182C259.109 214.67 259.479 214.209 259.735 213.799C259.991 213.382 260.119 212.991 260.119 212.625C260.119 212.237 260.017 211.93 259.812 211.703C259.607 211.469 259.3 211.352 258.89 211.352C258.612 211.352 258.352 211.429 258.111 211.582C257.877 211.736 257.664 211.926 257.474 212.153L256.848 211.538C257.156 211.202 257.478 210.938 257.814 210.748C258.158 210.558 258.564 210.463 259.033 210.463C259.472 210.463 259.852 210.551 260.174 210.726C260.496 210.894 260.745 211.14 260.92 211.462C261.103 211.776 261.195 212.146 261.195 212.57C261.195 212.994 261.074 213.426 260.833 213.865C260.598 214.297 260.277 214.747 259.867 215.215C259.464 215.683 259.014 216.181 258.517 216.708C258.7 216.693 258.897 216.679 259.109 216.664C259.322 216.649 259.516 216.642 259.691 216.642H261.535V217.586H256.903ZM264.804 217.718C264.087 217.718 263.52 217.403 263.103 216.774C262.693 216.144 262.488 215.241 262.488 214.063C262.488 212.885 262.693 211.992 263.103 211.385C263.52 210.77 264.087 210.463 264.804 210.463C265.514 210.463 266.077 210.77 266.495 211.385C266.912 211.999 267.12 212.892 267.12 214.063C267.12 215.241 266.912 216.144 266.495 216.774C266.077 217.403 265.514 217.718 264.804 217.718ZM264.804 216.84C265.046 216.84 265.262 216.748 265.452 216.565C265.642 216.382 265.788 216.09 265.891 215.687C266.001 215.277 266.055 214.736 266.055 214.063C266.055 213.39 266.001 212.855 265.891 212.46C265.788 212.058 265.642 211.773 265.452 211.604C265.262 211.429 265.046 211.341 264.804 211.341C264.555 211.341 264.336 211.429 264.146 211.604C263.963 211.773 263.816 212.058 263.707 212.46C263.604 212.855 263.553 213.39 263.553 214.063C263.553 214.736 263.604 215.277 263.707 215.687C263.816 216.09 263.963 216.382 264.146 216.565C264.336 216.748 264.555 216.84 264.804 216.84ZM268.073 217.586V216.675H269.654V211.846H268.37V211.143C268.706 211.077 268.999 211.001 269.248 210.913C269.497 210.825 269.723 210.719 269.928 210.594H270.762V216.675H272.167V217.586H268.073ZM275.448 217.718C275.002 217.718 274.599 217.637 274.241 217.476C273.889 217.308 273.611 217.081 273.406 216.796C273.209 216.503 273.11 216.17 273.11 215.797C273.11 215.497 273.172 215.233 273.297 215.007C273.421 214.773 273.578 214.571 273.769 214.403C273.966 214.227 274.175 214.081 274.394 213.964V213.92C274.138 213.73 273.911 213.503 273.714 213.24C273.523 212.976 273.428 212.662 273.428 212.296C273.428 211.923 273.516 211.601 273.692 211.33C273.875 211.052 274.12 210.84 274.427 210.693C274.734 210.54 275.086 210.463 275.481 210.463C276.103 210.463 276.593 210.638 276.952 210.99C277.317 211.333 277.5 211.783 277.5 212.34C277.5 212.574 277.449 212.797 277.347 213.009C277.252 213.221 277.131 213.412 276.984 213.58C276.845 213.741 276.699 213.876 276.545 213.986V214.03C276.758 214.147 276.955 214.286 277.138 214.447C277.328 214.608 277.478 214.802 277.588 215.029C277.705 215.255 277.764 215.523 277.764 215.83C277.764 216.188 277.665 216.51 277.467 216.796C277.277 217.074 277.006 217.297 276.655 217.465C276.311 217.633 275.909 217.718 275.448 217.718ZM275.47 216.916C275.711 216.916 275.927 216.873 276.117 216.785C276.308 216.69 276.454 216.558 276.556 216.39C276.666 216.221 276.721 216.024 276.721 215.797C276.721 215.519 276.641 215.292 276.48 215.116C276.319 214.941 276.103 214.791 275.832 214.666C275.561 214.542 275.265 214.414 274.943 214.282C274.702 214.451 274.497 214.655 274.328 214.897C274.167 215.131 274.087 215.394 274.087 215.687C274.087 215.929 274.145 216.144 274.262 216.335C274.387 216.518 274.552 216.66 274.756 216.763C274.969 216.865 275.206 216.916 275.47 216.916ZM275.92 213.701C276.132 213.503 276.293 213.298 276.403 213.086C276.512 212.866 276.567 212.64 276.567 212.405C276.567 212.186 276.523 211.992 276.436 211.824C276.355 211.648 276.231 211.513 276.062 211.418C275.894 211.315 275.693 211.264 275.459 211.264C275.166 211.264 274.921 211.355 274.723 211.538C274.526 211.721 274.427 211.974 274.427 212.296C274.427 212.544 274.493 212.757 274.625 212.932C274.764 213.101 274.947 213.247 275.173 213.371C275.4 213.488 275.649 213.598 275.92 213.701Z" fill="white"/>
</g>
<g filter="url(#filter8_d_958_19631)">
<rect x="291.4" y="235.602" width="28.8" height="15.3" rx="2.7439" fill="#222539" shape-rendering="crispEdges"/>
<path d="M294.704 247.289V246.642C295.377 245.983 295.952 245.398 296.427 244.885C296.91 244.373 297.28 243.912 297.536 243.502C297.792 243.085 297.92 242.694 297.92 242.328C297.92 241.94 297.818 241.633 297.613 241.406C297.408 241.172 297.1 241.055 296.691 241.055C296.413 241.055 296.153 241.132 295.911 241.285C295.677 241.439 295.465 241.629 295.275 241.856L294.649 241.242C294.957 240.905 295.279 240.642 295.615 240.451C295.959 240.261 296.365 240.166 296.833 240.166C297.272 240.166 297.653 240.254 297.975 240.429C298.297 240.598 298.546 240.843 298.721 241.165C298.904 241.479 298.996 241.849 298.996 242.273C298.996 242.698 298.875 243.129 298.633 243.568C298.399 244 298.077 244.45 297.668 244.918C297.265 245.387 296.815 245.884 296.318 246.411C296.5 246.396 296.698 246.382 296.91 246.367C297.122 246.352 297.316 246.345 297.492 246.345H299.336V247.289H294.704ZM302.605 247.421C301.888 247.421 301.321 247.106 300.904 246.477C300.494 245.848 300.289 244.944 300.289 243.766C300.289 242.588 300.494 241.695 300.904 241.088C301.321 240.473 301.888 240.166 302.605 240.166C303.315 240.166 303.878 240.473 304.295 241.088C304.712 241.702 304.921 242.595 304.921 243.766C304.921 244.944 304.712 245.848 304.295 246.477C303.878 247.106 303.315 247.421 302.605 247.421ZM302.605 246.543C302.847 246.543 303.062 246.451 303.253 246.268C303.443 246.085 303.589 245.793 303.692 245.39C303.801 244.981 303.856 244.439 303.856 243.766C303.856 243.093 303.801 242.559 303.692 242.163C303.589 241.761 303.443 241.476 303.253 241.307C303.062 241.132 302.847 241.044 302.605 241.044C302.356 241.044 302.137 241.132 301.947 241.307C301.764 241.476 301.617 241.761 301.507 242.163C301.405 242.559 301.354 243.093 301.354 243.766C301.354 244.439 301.405 244.981 301.507 245.39C301.617 245.793 301.764 246.085 301.947 246.268C302.137 246.451 302.356 246.543 302.605 246.543ZM305.874 247.289V246.378H307.455V241.549H306.171V240.846C306.507 240.781 306.8 240.704 307.049 240.616C307.297 240.528 307.524 240.422 307.729 240.298H308.563V246.378H309.968V247.289H305.874ZM312.788 247.421C312.385 247.421 312.038 247.348 311.745 247.201C311.452 247.048 311.204 246.865 310.999 246.652L311.602 245.972C311.734 246.133 311.902 246.265 312.107 246.367C312.312 246.462 312.521 246.51 312.733 246.51C313.047 246.51 313.336 246.418 313.6 246.235C313.863 246.045 314.072 245.738 314.225 245.313C314.386 244.882 314.467 244.296 314.467 243.557C314.467 242.979 314.408 242.504 314.291 242.131C314.174 241.757 314.006 241.479 313.786 241.296C313.574 241.113 313.322 241.022 313.029 241.022C312.817 241.022 312.627 241.081 312.458 241.198C312.29 241.307 312.155 241.468 312.052 241.681C311.957 241.885 311.91 242.138 311.91 242.438C311.91 242.723 311.954 242.968 312.041 243.173C312.136 243.371 312.272 243.524 312.447 243.634C312.623 243.737 312.839 243.788 313.095 243.788C313.307 243.788 313.538 243.718 313.786 243.579C314.035 243.44 314.266 243.202 314.478 242.866L314.522 243.678C314.317 243.956 314.064 244.179 313.764 244.348C313.464 244.516 313.175 244.6 312.897 244.6C312.495 244.6 312.14 244.52 311.833 244.359C311.533 244.198 311.299 243.96 311.13 243.645C310.962 243.323 310.878 242.921 310.878 242.438C310.878 241.977 310.973 241.578 311.163 241.242C311.361 240.898 311.621 240.634 311.943 240.451C312.272 240.261 312.63 240.166 313.018 240.166C313.362 240.166 313.684 240.235 313.984 240.374C314.284 240.506 314.544 240.715 314.763 241C314.99 241.278 315.169 241.629 315.301 242.054C315.433 242.478 315.499 242.979 315.499 243.557C315.499 244.245 315.422 244.834 315.268 245.324C315.122 245.815 314.921 246.213 314.664 246.521C314.416 246.828 314.127 247.055 313.797 247.201C313.475 247.348 313.139 247.421 312.788 247.421Z" fill="white"/>
</g>
<g filter="url(#filter9_d_958_19631)">
<rect x="332.801" y="147.398" width="27.9" height="16.2" rx="2.7439" fill="#222539" shape-rendering="crispEdges"/>
<path d="M336.369 159.086V158.438C337.042 157.78 337.616 157.194 338.092 156.682C338.575 156.17 338.944 155.709 339.2 155.299C339.457 154.882 339.585 154.491 339.585 154.125C339.585 153.737 339.482 153.43 339.277 153.203C339.072 152.969 338.765 152.852 338.355 152.852C338.077 152.852 337.818 152.929 337.576 153.082C337.342 153.236 337.13 153.426 336.939 153.653L336.314 153.038C336.621 152.702 336.943 152.438 337.28 152.248C337.624 152.058 338.03 151.963 338.498 151.963C338.937 151.963 339.318 152.051 339.639 152.226C339.961 152.394 340.21 152.64 340.386 152.962C340.569 153.276 340.66 153.646 340.66 154.07C340.66 154.494 340.539 154.926 340.298 155.365C340.064 155.797 339.742 156.247 339.332 156.715C338.93 157.183 338.48 157.681 337.982 158.208C338.165 158.193 338.363 158.179 338.575 158.164C338.787 158.149 338.981 158.142 339.157 158.142H341V159.086H336.369ZM344.27 159.218C343.553 159.218 342.985 158.903 342.568 158.274C342.159 157.644 341.954 156.741 341.954 155.563C341.954 154.385 342.159 153.492 342.568 152.885C342.985 152.27 343.553 151.963 344.27 151.963C344.979 151.963 345.543 152.27 345.96 152.885C346.377 153.499 346.585 154.392 346.585 155.563C346.585 156.741 346.377 157.644 345.96 158.274C345.543 158.903 344.979 159.218 344.27 159.218ZM344.27 158.34C344.511 158.34 344.727 158.248 344.917 158.065C345.107 157.882 345.254 157.59 345.356 157.187C345.466 156.777 345.521 156.236 345.521 155.563C345.521 154.89 345.466 154.355 345.356 153.96C345.254 153.558 345.107 153.273 344.917 153.104C344.727 152.929 344.511 152.841 344.27 152.841C344.021 152.841 343.801 152.929 343.611 153.104C343.428 153.273 343.282 153.558 343.172 153.96C343.07 154.355 343.018 154.89 343.018 155.563C343.018 156.236 343.07 156.777 343.172 157.187C343.282 157.59 343.428 157.882 343.611 158.065C343.801 158.248 344.021 158.34 344.27 158.34ZM347.473 159.086V158.438C348.146 157.78 348.721 157.194 349.196 156.682C349.679 156.17 350.049 155.709 350.305 155.299C350.561 154.882 350.689 154.491 350.689 154.125C350.689 153.737 350.586 153.43 350.382 153.203C350.177 152.969 349.869 152.852 349.46 152.852C349.182 152.852 348.922 152.929 348.68 153.082C348.446 153.236 348.234 153.426 348.044 153.653L347.418 153.038C347.725 152.702 348.047 152.438 348.384 152.248C348.728 152.058 349.134 151.963 349.602 151.963C350.041 151.963 350.422 152.051 350.744 152.226C351.066 152.394 351.314 152.64 351.49 152.962C351.673 153.276 351.764 153.646 351.764 154.07C351.764 154.494 351.644 154.926 351.402 155.365C351.168 155.797 350.846 156.247 350.436 156.715C350.034 157.183 349.584 157.681 349.086 158.208C349.269 158.193 349.467 158.179 349.679 158.164C349.891 158.149 350.085 158.142 350.261 158.142H352.105V159.086H347.473ZM355.374 159.218C354.657 159.218 354.09 158.903 353.673 158.274C353.263 157.644 353.058 156.741 353.058 155.563C353.058 154.385 353.263 153.492 353.673 152.885C354.09 152.27 354.657 151.963 355.374 151.963C356.084 151.963 356.647 152.27 357.064 152.885C357.481 153.499 357.69 154.392 357.69 155.563C357.69 156.741 357.481 157.644 357.064 158.274C356.647 158.903 356.084 159.218 355.374 159.218ZM355.374 158.34C355.615 158.34 355.831 158.248 356.021 158.065C356.212 157.882 356.358 157.59 356.46 157.187C356.57 156.777 356.625 156.236 356.625 155.563C356.625 154.89 356.57 154.355 356.46 153.96C356.358 153.558 356.212 153.273 356.021 153.104C355.831 152.929 355.615 152.841 355.374 152.841C355.125 152.841 354.906 152.929 354.715 153.104C354.532 153.273 354.386 153.558 354.276 153.96C354.174 154.355 354.123 154.89 354.123 155.563C354.123 156.236 354.174 156.777 354.276 157.187C354.386 157.59 354.532 157.882 354.715 158.065C354.906 158.248 355.125 158.34 355.374 158.34Z" fill="white"/>
</g>
<g filter="url(#filter10_d_958_19631)">
<rect x="390.4" y="54.6992" width="28.8" height="15.3" rx="2.7439" fill="#222539" shape-rendering="crispEdges"/>
<path d="M393.704 66.3867V65.7392C394.377 65.0806 394.952 64.4953 395.427 63.9831C395.91 63.4709 396.28 63.0099 396.536 62.6001C396.792 62.1831 396.92 61.7916 396.92 61.4257C396.92 61.0379 396.818 60.7306 396.613 60.5038C396.408 60.2696 396.1 60.1526 395.691 60.1526C395.413 60.1526 395.153 60.2294 394.911 60.3831C394.677 60.5367 394.465 60.727 394.275 60.9538L393.649 60.3392C393.957 60.0026 394.279 59.7392 394.615 59.5489C394.959 59.3587 395.365 59.2635 395.833 59.2635C396.272 59.2635 396.653 59.3514 396.975 59.527C397.297 59.6953 397.546 59.9404 397.721 60.2623C397.904 60.577 397.996 60.9465 397.996 61.3709C397.996 61.7953 397.875 62.227 397.633 62.666C397.399 63.0977 397.077 63.5477 396.668 64.016C396.265 64.4843 395.815 64.9818 395.318 65.5087C395.5 65.494 395.698 65.4794 395.91 65.4648C396.122 65.4501 396.316 65.4428 396.492 65.4428H398.336V66.3867H393.704ZM401.605 66.5184C400.888 66.5184 400.321 66.2038 399.904 65.5745C399.494 64.9453 399.289 64.0416 399.289 62.8635C399.289 61.6855 399.494 60.7928 399.904 60.1855C400.321 59.5709 400.888 59.2635 401.605 59.2635C402.315 59.2635 402.878 59.5709 403.295 60.1855C403.712 60.8001 403.921 61.6928 403.921 62.8635C403.921 64.0416 403.712 64.9453 403.295 65.5745C402.878 66.2038 402.315 66.5184 401.605 66.5184ZM401.605 65.6404C401.847 65.6404 402.062 65.5489 402.253 65.366C402.443 65.1831 402.589 64.8904 402.692 64.4879C402.801 64.0782 402.856 63.5367 402.856 62.8635C402.856 62.1904 402.801 61.6562 402.692 61.2611C402.589 60.8587 402.443 60.5733 402.253 60.405C402.062 60.2294 401.847 60.1416 401.605 60.1416C401.356 60.1416 401.137 60.2294 400.947 60.405C400.764 60.5733 400.617 60.8587 400.507 61.2611C400.405 61.6562 400.354 62.1904 400.354 62.8635C400.354 63.5367 400.405 64.0782 400.507 64.4879C400.617 64.8904 400.764 65.1831 400.947 65.366C401.137 65.5489 401.356 65.6404 401.605 65.6404ZM404.808 66.3867V65.7392C405.482 65.0806 406.056 64.4953 406.532 63.9831C407.014 63.4709 407.384 63.0099 407.64 62.6001C407.896 62.1831 408.024 61.7916 408.024 61.4257C408.024 61.0379 407.922 60.7306 407.717 60.5038C407.512 60.2696 407.205 60.1526 406.795 60.1526C406.517 60.1526 406.257 60.2294 406.016 60.3831C405.782 60.5367 405.569 60.727 405.379 60.9538L404.754 60.3392C405.061 60.0026 405.383 59.7392 405.719 59.5489C406.063 59.3587 406.469 59.2635 406.938 59.2635C407.377 59.2635 407.757 59.3514 408.079 59.527C408.401 59.6953 408.65 59.9404 408.825 60.2623C409.008 60.577 409.1 60.9465 409.1 61.3709C409.1 61.7953 408.979 62.227 408.738 62.666C408.504 63.0977 408.182 63.5477 407.772 64.016C407.369 64.4843 406.919 64.9818 406.422 65.5087C406.605 65.494 406.802 65.4794 407.014 65.4648C407.227 65.4501 407.421 65.4428 407.596 65.4428H409.44V66.3867H404.808ZM410.426 66.3867V65.4757H412.007V60.6465H410.723V59.944C411.059 59.8782 411.352 59.8014 411.601 59.7135C411.85 59.6257 412.076 59.5196 412.281 59.3953H413.115V65.4757H414.52V66.3867H410.426Z" fill="white"/>
</g>
<defs>
<filter id="filter0_d_958_19631" x="0.140244" y="0.82622" width="463.72" height="370.427" filterUnits="userSpaceOnUse" color-interpolation-filters="sRGB">
<feFlood flood-opacity="0" result="BackgroundImageFix"/>
<feColorMatrix in="SourceAlpha" type="matrix" values="0 0 0 0 0 0 0 0 0 0 0 0 0 0 0 0 0 0 127 0" result="hardAlpha"/>
<feOffset dy="0.685976"/>
<feGaussianBlur stdDeviation="3.42988"/>
<feColorMatrix type="matrix" values="0 0 0 0 0 0 0 0 0 0 0 0 0 0 0 0 0 0 0.07 0"/>
<feBlend mode="normal" in2="BackgroundImageFix" result="effect1_dropShadow_958_19631"/>
<feBlend mode="normal" in="SourceGraphic" in2="effect1_dropShadow_958_19631" result="shape"/>
</filter>
<filter id="filter1_d_958_19631" x="75.9004" y="278.5" width="34.0996" height="23.3008" filterUnits="userSpaceOnUse" color-interpolation-filters="sRGB">
<feFlood flood-opacity="0" result="BackgroundImageFix"/>
<feColorMatrix in="SourceAlpha" type="matrix" values="0 0 0 0 0 0 0 0 0 0 0 0 0 0 0 0 0 0 127 0" result="hardAlpha"/>
<feOffset dy="1"/>
<feGaussianBlur stdDeviation="2"/>
<feComposite in2="hardAlpha" operator="out"/>
<feColorMatrix type="matrix" values="0 0 0 0 0 0 0 0 0 0 0 0 0 0 0 0 0 0 0.25 0"/>
<feBlend mode="normal" in2="BackgroundImageFix" result="effect1_dropShadow_958_19631"/>
<feBlend mode="normal" in="SourceGraphic" in2="effect1_dropShadow_958_19631" result="shape"/>
</filter>
<filter id="filter2_d_958_19631" x="102" y="167.801" width="35.9004" height="24.1992" filterUnits="userSpaceOnUse" color-interpolation-filters="sRGB">
<feFlood flood-opacity="0" result="BackgroundImageFix"/>
<feColorMatrix in="SourceAlpha" type="matrix" values="0 0 0 0 0 0 0 0 0 0 0 0 0 0 0 0 0 0 127 0" result="hardAlpha"/>
<feOffset dy="1"/>
<feGaussianBlur stdDeviation="2"/>
<feComposite in2="hardAlpha" operator="out"/>
<feColorMatrix type="matrix" values="0 0 0 0 0 0 0 0 0 0 0 0 0 0 0 0 0 0 0.25 0"/>
<feBlend mode="normal" in2="BackgroundImageFix" result="effect1_dropShadow_958_19631"/>
<feBlend mode="normal" in="SourceGraphic" in2="effect1_dropShadow_958_19631" result="shape"/>
</filter>
<filter id="filter3_d_958_19631" x="150.484" y="207.047" width="32.3184" height="23.7773" filterUnits="userSpaceOnUse" color-interpolation-filters="sRGB">
<feFlood flood-opacity="0" result="BackgroundImageFix"/>
<feColorMatrix in="SourceAlpha" type="matrix" values="0 0 0 0 0 0 0 0 0 0 0 0 0 0 0 0 0 0 127 0" result="hardAlpha"/>
<feOffset dy="1"/>
<feGaussianBlur stdDeviation="2"/>
<feComposite in2="hardAlpha" operator="out"/>
<feColorMatrix type="matrix" values="0 0 0 0 0 0 0 0 0 0 0 0 0 0 0 0 0 0 0.25 0"/>
<feBlend mode="normal" in2="BackgroundImageFix" result="effect1_dropShadow_958_19631"/>
<feBlend mode="normal" in="SourceGraphic" in2="effect1_dropShadow_958_19631" result="shape"/>
</filter>
<filter id="filter4_d_958_19631" x="201" y="178.602" width="35.9004" height="24.1992" filterUnits="userSpaceOnUse" color-interpolation-filters="sRGB">
<feFlood flood-opacity="0" result="BackgroundImageFix"/>
<feColorMatrix in="SourceAlpha" type="matrix" values="0 0 0 0 0 0 0 0 0 0 0 0 0 0 0 0 0 0 127 0" result="hardAlpha"/>
<feOffset dy="1"/>
<feGaussianBlur stdDeviation="2"/>
<feComposite in2="hardAlpha" operator="out"/>
<feColorMatrix type="matrix" values="0 0 0 0 0 0 0 0 0 0 0 0 0 0 0 0 0 0 0.25 0"/>
<feBlend mode="normal" in2="BackgroundImageFix" result="effect1_dropShadow_958_19631"/>
<feBlend mode="normal" in="SourceGraphic" in2="effect1_dropShadow_958_19631" result="shape"/>
</filter>
<filter id="filter5_d_958_19631" x="244.199" y="103.898" width="35.9004" height="24.1992" filterUnits="userSpaceOnUse" color-interpolation-filters="sRGB">
<feFlood flood-opacity="0" result="BackgroundImageFix"/>
<feColorMatrix in="SourceAlpha" type="matrix" values="0 0 0 0 0 0 0 0 0 0 0 0 0 0 0 0 0 0 127 0" result="hardAlpha"/>
<feOffset dy="1"/>
<feGaussianBlur stdDeviation="2"/>
<feComposite in2="hardAlpha" operator="out"/>
<feColorMatrix type="matrix" values="0 0 0 0 0 0 0 0 0 0 0 0 0 0 0 0 0 0 0.25 0"/>
<feBlend mode="normal" in2="BackgroundImageFix" result="effect1_dropShadow_958_19631"/>
<feBlend mode="normal" in="SourceGraphic" in2="effect1_dropShadow_958_19631" result="shape"/>
</filter>
<filter id="filter6_d_958_19631" x="182.1" y="274" width="34.0996" height="24.1992" filterUnits="userSpaceOnUse" color-interpolation-filters="sRGB">
<feFlood flood-opacity="0" result="BackgroundImageFix"/>
<feColorMatrix in="SourceAlpha" type="matrix" values="0 0 0 0 0 0 0 0 0 0 0 0 0 0 0 0 0 0 127 0" result="hardAlpha"/>
<feOffset dy="1"/>
<feGaussianBlur stdDeviation="2"/>
<feComposite in2="hardAlpha" operator="out"/>
<feColorMatrix type="matrix" values="0 0 0 0 0 0 0 0 0 0 0 0 0 0 0 0 0 0 0.25 0"/>
<feBlend mode="normal" in2="BackgroundImageFix" result="effect1_dropShadow_958_19631"/>
<feBlend mode="normal" in="SourceGraphic" in2="effect1_dropShadow_958_19631" result="shape"/>
</filter>
<filter id="filter7_d_958_19631" x="249.6" y="202.898" width="35" height="24.1992" filterUnits="userSpaceOnUse" color-interpolation-filters="sRGB">
<feFlood flood-opacity="0" result="BackgroundImageFix"/>
<feColorMatrix in="SourceAlpha" type="matrix" values="0 0 0 0 0 0 0 0 0 0 0 0 0 0 0 0 0 0 127 0" result="hardAlpha"/>
<feOffset dy="1"/>
<feGaussianBlur stdDeviation="2"/>
<feComposite in2="hardAlpha" operator="out"/>
<feColorMatrix type="matrix" values="0 0 0 0 0 0 0 0 0 0 0 0 0 0 0 0 0 0 0.25 0"/>
<feBlend mode="normal" in2="BackgroundImageFix" result="effect1_dropShadow_958_19631"/>
<feBlend mode="normal" in="SourceGraphic" in2="effect1_dropShadow_958_19631" result="shape"/>
</filter>
<filter id="filter8_d_958_19631" x="287.4" y="232.602" width="36.8008" height="23.3008" filterUnits="userSpaceOnUse" color-interpolation-filters="sRGB">
<feFlood flood-opacity="0" result="BackgroundImageFix"/>
<feColorMatrix in="SourceAlpha" type="matrix" values="0 0 0 0 0 0 0 0 0 0 0 0 0 0 0 0 0 0 127 0" result="hardAlpha"/>
<feOffset dy="1"/>
<feGaussianBlur stdDeviation="2"/>
<feComposite in2="hardAlpha" operator="out"/>
<feColorMatrix type="matrix" values="0 0 0 0 0 0 0 0 0 0 0 0 0 0 0 0 0 0 0.25 0"/>
<feBlend mode="normal" in2="BackgroundImageFix" result="effect1_dropShadow_958_19631"/>
<feBlend mode="normal" in="SourceGraphic" in2="effect1_dropShadow_958_19631" result="shape"/>
</filter>
<filter id="filter9_d_958_19631" x="328.801" y="144.398" width="35.9004" height="24.1992" filterUnits="userSpaceOnUse" color-interpolation-filters="sRGB">
<feFlood flood-opacity="0" result="BackgroundImageFix"/>
<feColorMatrix in="SourceAlpha" type="matrix" values="0 0 0 0 0 0 0 0 0 0 0 0 0 0 0 0 0 0 127 0" result="hardAlpha"/>
<feOffset dy="1"/>
<feGaussianBlur stdDeviation="2"/>
<feComposite in2="hardAlpha" operator="out"/>
<feColorMatrix type="matrix" values="0 0 0 0 0 0 0 0 0 0 0 0 0 0 0 0 0 0 0.25 0"/>
<feBlend mode="normal" in2="BackgroundImageFix" result="effect1_dropShadow_958_19631"/>
<feBlend mode="normal" in="SourceGraphic" in2="effect1_dropShadow_958_19631" result="shape"/>
</filter>
<filter id="filter10_d_958_19631" x="386.4" y="51.6992" width="36.8008" height="23.3008" filterUnits="userSpaceOnUse" color-interpolation-filters="sRGB">
<feFlood flood-opacity="0" result="BackgroundImageFix"/>
<feColorMatrix in="SourceAlpha" type="matrix" values="0 0 0 0 0 0 0 0 0 0 0 0 0 0 0 0 0 0 127 0" result="hardAlpha"/>
<feOffset dy="1"/>
<feGaussianBlur stdDeviation="2"/>
<feComposite in2="hardAlpha" operator="out"/>
<feColorMatrix type="matrix" values="0 0 0 0 0 0 0 0 0 0 0 0 0 0 0 0 0 0 0.25 0"/>
<feBlend mode="normal" in2="BackgroundImageFix" result="effect1_dropShadow_958_19631"/>
<feBlend mode="normal" in="SourceGraphic" in2="effect1_dropShadow_958_19631" result="shape"/>
</filter>
<clipPath id="clip0_958_19631">
<rect x="7" y="7" width="450" height="356.707" rx="5.4878" fill="white"/>
</clipPath>
</defs>
</svg>
