<svg width="500" height="296" viewBox="0 0 500 296" fill="none" xmlns="http://www.w3.org/2000/svg">
<rect width="500" height="296" rx="20" fill="white"/>
<path d="M63.5898 174.801C63.5898 179.219 67.1716 182.801 71.5898 182.801C76.0081 182.801 79.5898 179.219 79.5898 174.801C79.5898 170.383 76.0081 166.801 71.5898 166.801C67.1716 166.801 63.5898 170.383 63.5898 174.801ZM188.59 174.801C188.59 179.219 192.172 182.801 196.59 182.801C201.008 182.801 204.59 179.219 204.59 174.801C204.59 170.383 201.008 166.801 196.59 166.801C192.172 166.801 188.59 170.383 188.59 174.801ZM71.5898 176.301H196.59V173.301H71.5898V176.301Z" fill="#2A26F1"/>
<ellipse cx="196.589" cy="174.8" rx="9.09091" ry="7.89333" fill="#FF4848"/>
<path d="M67 102.133C67 106.551 70.5817 110.133 75 110.133C79.4183 110.133 83 106.551 83 102.133C83 97.7145 79.4183 94.1328 75 94.1328C70.5817 94.1328 67 97.7145 67 102.133ZM248.818 102.133C248.818 106.551 252.4 110.133 256.818 110.133C261.236 110.133 264.818 106.551 264.818 102.133C264.818 97.7145 261.236 94.1328 256.818 94.1328C252.4 94.1328 248.818 97.7145 248.818 102.133ZM75 103.633H256.818V100.633H75V103.633Z" fill="#2A26F1"/>
<ellipse cx="256.817" cy="102.026" rx="9.09091" ry="7.89333" fill="#FF4848"/>
<path d="M97.6816 142.242C97.6816 146.66 101.263 150.242 105.682 150.242C110.1 150.242 113.682 146.66 113.682 142.242C113.682 137.824 110.1 134.242 105.682 134.242C101.263 134.242 97.6816 137.824 97.6816 142.242ZM140.863 142.242C140.863 146.66 144.445 150.242 148.863 150.242C153.282 150.242 156.863 146.66 156.863 142.242C156.863 137.824 153.282 134.242 148.863 134.242C144.445 134.242 140.863 137.824 140.863 142.242ZM105.682 143.742H148.863V140.742H105.682V143.742Z" fill="#2A26F1"/>
<ellipse cx="148.864" cy="142.241" rx="9.09091" ry="7.89333" fill="#FF4848"/>
<path d="M354.5 171.84C354.5 176.258 358.082 179.84 362.5 179.84C366.918 179.84 370.5 176.258 370.5 171.84C370.5 167.422 366.918 163.84 362.5 163.84C358.082 163.84 354.5 167.422 354.5 171.84ZM411.318 171.84C411.318 176.258 414.9 179.84 419.318 179.84C423.736 179.84 427.318 176.258 427.318 171.84C427.318 167.422 423.736 163.84 419.318 163.84C414.9 163.84 411.318 167.422 411.318 171.84ZM362.5 173.34H419.318V170.34H362.5V173.34Z" fill="#2A26F1"/>
<ellipse cx="419.317" cy="171.839" rx="9.09091" ry="7.89333" fill="#FF4848"/>
<path d="M245.396 133.363C245.396 137.782 248.978 141.363 253.396 141.363C257.815 141.363 261.396 137.782 261.396 133.363C261.396 128.945 257.815 125.363 253.396 125.363C248.978 125.363 245.396 128.945 245.396 133.363ZM360.192 133.363C360.192 137.782 363.773 141.363 368.192 141.363C372.61 141.363 376.192 137.782 376.192 133.363C376.192 128.945 372.61 125.363 368.192 125.363C363.773 125.363 360.192 128.945 360.192 133.363ZM253.396 134.863H368.192V131.863H253.396V134.863Z" fill="#2A26F1"/>
<ellipse cx="368.181" cy="133.362" rx="9.09091" ry="7.89333" fill="#FF4848"/>
<path d="M342 93.8945C342 98.3128 345.582 101.895 350 101.895C354.418 101.895 358 98.3128 358 93.8945C358 89.4763 354.418 85.8945 350 85.8945C345.582 85.8945 342 89.4763 342 93.8945ZM411.318 93.8945C411.318 98.3128 414.9 101.895 419.318 101.895C423.736 101.895 427.318 98.3128 427.318 93.8945C427.318 89.4763 423.736 85.8945 419.318 85.8945C414.9 85.8945 411.318 89.4763 411.318 93.8945ZM350 95.3945H419.318V92.3945H350V95.3945Z" fill="#2A26F1"/>
<ellipse cx="419.317" cy="93.8933" rx="9.09091" ry="7.89333" fill="#FF4848"/>
<path d="M213.021 201.934C213.021 206.352 216.603 209.934 221.021 209.934C225.44 209.934 229.021 206.352 229.021 201.934C229.021 197.515 225.44 193.934 221.021 193.934C216.603 193.934 213.021 197.515 213.021 201.934ZM249.385 201.934C249.385 206.352 252.967 209.934 257.385 209.934C261.803 209.934 265.385 206.352 265.385 201.934C265.385 197.515 261.803 193.934 257.385 193.934C252.967 193.934 249.385 197.515 249.385 201.934ZM221.021 203.434H257.385V200.434H221.021V203.434Z" fill="#2A26F1"/>
<ellipse cx="257.386" cy="201.934" rx="9.65909" ry="8.38667" fill="#FF4848"/>
</svg>
