<svg width="520" height="376" viewBox="0 0 520 376" fill="none" xmlns="http://www.w3.org/2000/svg">
<g clip-path="url(#clip0_954_4899)">
<rect width="520" height="376" fill="white"/>
<path d="M433 103.199H441V119.199H429L431.9 116.399" stroke="#D9D9D9"/>
<path d="M446.125 113.969C446.625 114.258 447.164 114.402 447.742 114.402C448.555 114.402 449.184 114.082 449.629 113.441C450.078 112.801 450.303 111.891 450.303 110.711L450.291 110.717L450.279 110.711C449.881 111.469 449.211 111.848 448.27 111.848C447.508 111.848 446.877 111.586 446.377 111.062C445.877 110.539 445.627 109.859 445.627 109.023C445.627 108.133 445.9 107.402 446.447 106.832C446.994 106.258 447.703 105.971 448.574 105.971C449.477 105.971 450.182 106.326 450.689 107.037C451.197 107.744 451.451 108.775 451.451 110.131C451.451 111.807 451.123 113.096 450.467 113.998C449.811 114.9 448.902 115.352 447.742 115.352C447.105 115.352 446.566 115.248 446.125 115.041V113.969ZM446.787 108.877C446.787 109.486 446.943 109.971 447.256 110.33C447.568 110.686 448 110.863 448.551 110.863C449.027 110.863 449.428 110.701 449.752 110.377C450.076 110.049 450.238 109.652 450.238 109.188C450.238 108.535 450.076 107.996 449.752 107.57C449.432 107.141 449.008 106.926 448.48 106.926C447.992 106.926 447.588 107.111 447.268 107.482C446.947 107.854 446.787 108.318 446.787 108.877ZM452.611 110.84C452.611 109.238 452.877 108.027 453.408 107.207C453.939 106.383 454.709 105.971 455.717 105.971C457.639 105.971 458.6 107.521 458.6 110.623C458.6 112.154 458.328 113.326 457.785 114.139C457.246 114.947 456.488 115.352 455.512 115.352C454.59 115.352 453.875 114.967 453.367 114.197C452.863 113.428 452.611 112.309 452.611 110.84ZM453.783 110.787C453.783 113.197 454.395 114.402 455.617 114.402C456.82 114.402 457.422 113.178 457.422 110.729C457.422 108.193 456.832 106.926 455.652 106.926C454.406 106.926 453.783 108.213 453.783 110.787ZM459.824 114.596C459.824 114.385 459.896 114.207 460.041 114.062C460.186 113.918 460.365 113.846 460.58 113.846C460.799 113.846 460.98 113.92 461.125 114.068C461.27 114.213 461.342 114.389 461.342 114.596C461.342 114.799 461.27 114.975 461.125 115.123C460.98 115.268 460.797 115.34 460.574 115.34C460.359 115.34 460.18 115.268 460.035 115.123C459.895 114.975 459.824 114.799 459.824 114.596ZM465.361 115.199V107.436C465.182 107.615 464.877 107.816 464.447 108.039C464.021 108.262 463.627 108.418 463.264 108.508V107.383C463.744 107.25 464.258 107.039 464.805 106.75C465.352 106.457 465.771 106.182 466.064 105.924H466.498V115.199H465.361ZM475.24 112.398C475.24 113.285 474.945 114 474.355 114.543C473.77 115.086 472.98 115.357 471.988 115.357C471.137 115.357 470.502 115.23 470.084 114.977V113.805C470.697 114.203 471.322 114.402 471.959 114.402C472.592 114.402 473.102 114.229 473.488 113.881C473.879 113.529 474.074 113.064 474.074 112.486C474.074 111.908 473.871 111.459 473.465 111.139C473.062 110.814 472.492 110.652 471.754 110.652C471.184 110.652 470.67 110.678 470.213 110.729L470.547 106.123H474.789V107.131H471.514L471.326 109.703L472.152 109.668C473.113 109.668 473.867 109.908 474.414 110.389C474.965 110.865 475.24 111.535 475.24 112.398ZM476.617 108.414C476.617 107.672 476.814 107.082 477.209 106.645C477.607 106.207 478.143 105.988 478.814 105.988C479.459 105.988 479.961 106.189 480.32 106.592C480.684 106.994 480.865 107.555 480.865 108.273C480.865 108.988 480.666 109.568 480.268 110.014C479.869 110.459 479.34 110.682 478.68 110.682C478.055 110.682 477.555 110.475 477.18 110.061C476.805 109.646 476.617 109.098 476.617 108.414ZM477.52 108.355C477.52 108.859 477.629 109.248 477.848 109.521C478.066 109.795 478.365 109.932 478.744 109.932C479.135 109.932 479.436 109.791 479.646 109.51C479.861 109.225 479.969 108.824 479.969 108.309C479.969 107.805 479.863 107.416 479.652 107.143C479.445 106.865 479.152 106.727 478.773 106.727C478.387 106.727 478.08 106.871 477.854 107.16C477.631 107.445 477.52 107.844 477.52 108.355ZM484.82 106.123L478.99 115.258H478.012L483.842 106.123H484.82ZM482.055 113.072C482.055 112.33 482.252 111.738 482.646 111.297C483.045 110.852 483.578 110.629 484.246 110.629C484.887 110.629 485.389 110.832 485.752 111.238C486.115 111.641 486.297 112.209 486.297 112.943C486.297 113.654 486.096 114.232 485.693 114.678C485.291 115.119 484.766 115.34 484.117 115.34C483.488 115.34 482.986 115.131 482.611 114.713C482.24 114.291 482.055 113.744 482.055 113.072ZM482.951 113.02C482.951 113.512 483.061 113.896 483.279 114.174C483.498 114.447 483.797 114.584 484.176 114.584C484.566 114.584 484.867 114.441 485.078 114.156C485.293 113.871 485.4 113.473 485.4 112.961C485.4 112.453 485.293 112.064 485.078 111.795C484.867 111.525 484.576 111.391 484.205 111.391C483.807 111.391 483.498 111.535 483.279 111.824C483.061 112.109 482.951 112.508 482.951 113.02Z" fill="#8C8C8C"/>
<path d="M374.699 154.398H382.699V170.398H370.699L373.499 167.598" stroke="#D9D9D9"/>
<path d="M392.834 163.598C392.834 164.484 392.539 165.199 391.949 165.742C391.363 166.285 390.574 166.557 389.582 166.557C388.73 166.557 388.096 166.43 387.678 166.176V165.004C388.291 165.402 388.916 165.602 389.553 165.602C390.186 165.602 390.695 165.428 391.082 165.08C391.473 164.729 391.668 164.264 391.668 163.686C391.668 163.107 391.465 162.658 391.059 162.338C390.656 162.014 390.086 161.852 389.348 161.852C388.777 161.852 388.264 161.877 387.807 161.928L388.141 157.322H392.383V158.33H389.107L388.92 160.902L389.746 160.867C390.707 160.867 391.461 161.107 392.008 161.588C392.559 162.064 392.834 162.734 392.834 163.598ZM394.785 165.168C395.285 165.457 395.824 165.602 396.402 165.602C397.215 165.602 397.844 165.281 398.289 164.641C398.738 164 398.963 163.09 398.963 161.91L398.951 161.916L398.939 161.91C398.541 162.668 397.871 163.047 396.93 163.047C396.168 163.047 395.537 162.785 395.037 162.262C394.537 161.738 394.287 161.059 394.287 160.223C394.287 159.332 394.561 158.602 395.107 158.031C395.654 157.457 396.363 157.17 397.234 157.17C398.137 157.17 398.842 157.525 399.35 158.236C399.857 158.943 400.111 159.975 400.111 161.33C400.111 163.006 399.783 164.295 399.127 165.197C398.471 166.1 397.562 166.551 396.402 166.551C395.766 166.551 395.227 166.447 394.785 166.24V165.168ZM395.447 160.076C395.447 160.686 395.604 161.17 395.916 161.529C396.229 161.885 396.66 162.062 397.211 162.062C397.688 162.062 398.088 161.9 398.412 161.576C398.736 161.248 398.898 160.852 398.898 160.387C398.898 159.734 398.736 159.195 398.412 158.77C398.092 158.34 397.668 158.125 397.141 158.125C396.652 158.125 396.248 158.311 395.928 158.682C395.607 159.053 395.447 159.518 395.447 160.076ZM401.441 165.795C401.441 165.584 401.514 165.406 401.658 165.262C401.803 165.117 401.982 165.045 402.197 165.045C402.416 165.045 402.598 165.119 402.742 165.268C402.887 165.412 402.959 165.588 402.959 165.795C402.959 165.998 402.887 166.174 402.742 166.322C402.598 166.467 402.414 166.539 402.191 166.539C401.977 166.539 401.797 166.467 401.652 166.322C401.512 166.174 401.441 165.998 401.441 165.795ZM404.477 164.881C405.098 165.361 405.799 165.602 406.58 165.602C407.205 165.602 407.699 165.449 408.062 165.145C408.43 164.836 408.613 164.424 408.613 163.908C408.613 162.76 407.791 162.186 406.146 162.186H405.391V161.236H406.111C407.568 161.236 408.297 160.697 408.297 159.619C408.297 158.623 407.74 158.125 406.627 158.125C405.99 158.125 405.391 158.34 404.828 158.77V157.686C405.422 157.342 406.115 157.17 406.908 157.17C407.682 157.17 408.303 157.373 408.771 157.779C409.24 158.182 409.475 158.705 409.475 159.35C409.475 160.537 408.869 161.301 407.658 161.641V161.664C408.314 161.734 408.832 161.967 409.211 162.361C409.594 162.752 409.785 163.24 409.785 163.826C409.785 164.643 409.49 165.301 408.9 165.801C408.314 166.301 407.533 166.551 406.557 166.551C405.697 166.551 405.004 166.391 404.477 166.07V164.881ZM411.256 163.867C411.256 163.344 411.412 162.861 411.725 162.42C412.037 161.979 412.439 161.664 412.932 161.477C412.537 161.254 412.225 160.969 411.994 160.621C411.764 160.273 411.648 159.896 411.648 159.49C411.648 159.061 411.758 158.668 411.977 158.312C412.199 157.957 412.506 157.678 412.896 157.475C413.291 157.271 413.725 157.17 414.197 157.17C414.674 157.17 415.109 157.271 415.504 157.475C415.898 157.674 416.205 157.951 416.424 158.307C416.643 158.662 416.752 159.057 416.752 159.49C416.752 159.889 416.639 160.264 416.412 160.615C416.189 160.963 415.879 161.25 415.48 161.477C415.973 161.668 416.373 161.984 416.682 162.426C416.99 162.867 417.145 163.348 417.145 163.867C417.145 164.383 417.021 164.846 416.775 165.256C416.529 165.662 416.18 165.979 415.727 166.205C415.273 166.432 414.764 166.545 414.197 166.545C413.635 166.545 413.129 166.432 412.68 166.205C412.23 165.979 411.881 165.66 411.631 165.25C411.381 164.84 411.256 164.379 411.256 163.867ZM412.381 163.814C412.381 164.354 412.547 164.785 412.879 165.109C413.211 165.434 413.652 165.596 414.203 165.596C414.742 165.596 415.182 165.432 415.521 165.104C415.865 164.771 416.037 164.342 416.037 163.814C416.037 163.314 415.863 162.895 415.516 162.555C415.172 162.211 414.734 162.039 414.203 162.039C413.676 162.039 413.24 162.207 412.896 162.543C412.553 162.875 412.381 163.299 412.381 163.814ZM412.709 159.584C412.709 159.99 412.854 160.34 413.143 160.633C413.432 160.922 413.785 161.066 414.203 161.066C414.613 161.066 414.967 160.92 415.264 160.627C415.564 160.334 415.715 159.986 415.715 159.584C415.715 159.174 415.57 158.826 415.281 158.541C414.996 158.256 414.637 158.113 414.203 158.113C413.773 158.113 413.416 158.254 413.131 158.535C412.85 158.812 412.709 159.162 412.709 159.584ZM418.234 159.613C418.234 158.871 418.432 158.281 418.826 157.844C419.225 157.406 419.76 157.188 420.432 157.188C421.076 157.188 421.578 157.389 421.938 157.791C422.301 158.193 422.482 158.754 422.482 159.473C422.482 160.188 422.283 160.768 421.885 161.213C421.486 161.658 420.957 161.881 420.297 161.881C419.672 161.881 419.172 161.674 418.797 161.26C418.422 160.846 418.234 160.297 418.234 159.613ZM419.137 159.555C419.137 160.059 419.246 160.447 419.465 160.721C419.684 160.994 419.982 161.131 420.361 161.131C420.752 161.131 421.053 160.99 421.264 160.709C421.479 160.424 421.586 160.023 421.586 159.508C421.586 159.004 421.48 158.615 421.27 158.342C421.062 158.064 420.77 157.926 420.391 157.926C420.004 157.926 419.697 158.07 419.471 158.359C419.248 158.645 419.137 159.043 419.137 159.555ZM426.438 157.322L420.607 166.457H419.629L425.459 157.322H426.438ZM423.672 164.271C423.672 163.529 423.869 162.938 424.264 162.496C424.662 162.051 425.195 161.828 425.863 161.828C426.504 161.828 427.006 162.031 427.369 162.438C427.732 162.84 427.914 163.408 427.914 164.143C427.914 164.854 427.713 165.432 427.311 165.877C426.908 166.318 426.383 166.539 425.734 166.539C425.105 166.539 424.604 166.33 424.229 165.912C423.857 165.49 423.672 164.943 423.672 164.271ZM424.568 164.219C424.568 164.711 424.678 165.096 424.896 165.373C425.115 165.646 425.414 165.783 425.793 165.783C426.184 165.783 426.484 165.641 426.695 165.355C426.91 165.07 427.018 164.672 427.018 164.16C427.018 163.652 426.91 163.264 426.695 162.994C426.484 162.725 426.193 162.59 425.822 162.59C425.424 162.59 425.115 162.734 424.896 163.023C424.678 163.309 424.568 163.707 424.568 164.219Z" fill="#8C8C8C"/>
<path d="M339.801 205.602H347.801V221.602H335.801L338.601 218.802" stroke="#D9D9D9"/>
<path d="M357.771 209.691C357.299 209.449 356.805 209.328 356.289 209.328C355.504 209.328 354.873 209.67 354.396 210.354C353.92 211.037 353.678 211.971 353.67 213.154H353.699C354.129 212.322 354.814 211.906 355.756 211.906C356.541 211.906 357.168 212.162 357.637 212.674C358.105 213.186 358.34 213.865 358.34 214.713C358.34 215.6 358.068 216.328 357.525 216.898C356.986 217.469 356.297 217.754 355.457 217.754C354.535 217.754 353.811 217.395 353.283 216.676C352.76 215.953 352.498 214.93 352.498 213.605C352.498 212.004 352.842 210.732 353.529 209.791C354.221 208.846 355.129 208.373 356.254 208.373C356.898 208.373 357.404 208.461 357.771 208.637V209.691ZM353.74 214.631C353.74 215.229 353.898 215.74 354.215 216.166C354.535 216.592 354.959 216.805 355.486 216.805C355.986 216.805 356.393 216.621 356.705 216.254C357.018 215.887 357.174 215.414 357.174 214.836C357.174 214.211 357.025 213.725 356.729 213.377C356.436 213.029 356.018 212.855 355.475 212.855C354.959 212.855 354.541 213.031 354.221 213.383C353.9 213.734 353.74 214.15 353.74 214.631ZM359.934 216.371C360.434 216.66 360.973 216.805 361.551 216.805C362.363 216.805 362.992 216.484 363.438 215.844C363.887 215.203 364.111 214.293 364.111 213.113L364.1 213.119L364.088 213.113C363.689 213.871 363.02 214.25 362.078 214.25C361.316 214.25 360.686 213.988 360.186 213.465C359.686 212.941 359.436 212.262 359.436 211.426C359.436 210.535 359.709 209.805 360.256 209.234C360.803 208.66 361.512 208.373 362.383 208.373C363.285 208.373 363.99 208.729 364.498 209.439C365.006 210.146 365.26 211.178 365.26 212.533C365.26 214.209 364.932 215.498 364.275 216.4C363.619 217.303 362.711 217.754 361.551 217.754C360.914 217.754 360.375 217.65 359.934 217.443V216.371ZM360.596 211.279C360.596 211.889 360.752 212.373 361.064 212.732C361.377 213.088 361.809 213.266 362.359 213.266C362.836 213.266 363.236 213.104 363.561 212.779C363.885 212.451 364.047 212.055 364.047 211.59C364.047 210.938 363.885 210.398 363.561 209.973C363.24 209.543 362.816 209.328 362.289 209.328C361.801 209.328 361.396 209.514 361.076 209.885C360.756 210.256 360.596 210.721 360.596 211.279ZM366.59 216.998C366.59 216.787 366.662 216.609 366.807 216.465C366.951 216.32 367.131 216.248 367.346 216.248C367.564 216.248 367.746 216.322 367.891 216.471C368.035 216.615 368.107 216.791 368.107 216.998C368.107 217.201 368.035 217.377 367.891 217.525C367.746 217.67 367.562 217.742 367.34 217.742C367.125 217.742 366.945 217.67 366.801 217.525C366.66 217.377 366.59 217.201 366.59 216.998ZM369.361 215.07C369.361 214.547 369.518 214.064 369.83 213.623C370.143 213.182 370.545 212.867 371.037 212.68C370.643 212.457 370.33 212.172 370.1 211.824C369.869 211.477 369.754 211.1 369.754 210.693C369.754 210.264 369.863 209.871 370.082 209.516C370.305 209.16 370.611 208.881 371.002 208.678C371.396 208.475 371.83 208.373 372.303 208.373C372.779 208.373 373.215 208.475 373.609 208.678C374.004 208.877 374.311 209.154 374.529 209.51C374.748 209.865 374.857 210.26 374.857 210.693C374.857 211.092 374.744 211.467 374.518 211.818C374.295 212.166 373.984 212.453 373.586 212.68C374.078 212.871 374.479 213.188 374.787 213.629C375.096 214.07 375.25 214.551 375.25 215.07C375.25 215.586 375.127 216.049 374.881 216.459C374.635 216.865 374.285 217.182 373.832 217.408C373.379 217.635 372.869 217.748 372.303 217.748C371.74 217.748 371.234 217.635 370.785 217.408C370.336 217.182 369.986 216.863 369.736 216.453C369.486 216.043 369.361 215.582 369.361 215.07ZM370.486 215.018C370.486 215.557 370.652 215.988 370.984 216.312C371.316 216.637 371.758 216.799 372.309 216.799C372.848 216.799 373.287 216.635 373.627 216.307C373.971 215.975 374.143 215.545 374.143 215.018C374.143 214.518 373.969 214.098 373.621 213.758C373.277 213.414 372.84 213.242 372.309 213.242C371.781 213.242 371.346 213.41 371.002 213.746C370.658 214.078 370.486 214.502 370.486 215.018ZM370.814 210.787C370.814 211.193 370.959 211.543 371.248 211.836C371.537 212.125 371.891 212.27 372.309 212.27C372.719 212.27 373.072 212.123 373.369 211.83C373.67 211.537 373.82 211.189 373.82 210.787C373.82 210.377 373.676 210.029 373.387 209.744C373.102 209.459 372.742 209.316 372.309 209.316C371.879 209.316 371.521 209.457 371.236 209.738C370.955 210.016 370.814 210.365 370.814 210.787ZM376.357 213.242C376.357 211.641 376.623 210.43 377.154 209.609C377.686 208.785 378.455 208.373 379.463 208.373C381.385 208.373 382.346 209.924 382.346 213.025C382.346 214.557 382.074 215.729 381.531 216.541C380.992 217.35 380.234 217.754 379.258 217.754C378.336 217.754 377.621 217.369 377.113 216.6C376.609 215.83 376.357 214.711 376.357 213.242ZM377.529 213.189C377.529 215.6 378.141 216.805 379.363 216.805C380.566 216.805 381.168 215.58 381.168 213.131C381.168 210.596 380.578 209.328 379.398 209.328C378.152 209.328 377.529 210.615 377.529 213.189ZM383.383 210.816C383.383 210.074 383.58 209.484 383.975 209.047C384.373 208.609 384.908 208.391 385.58 208.391C386.225 208.391 386.727 208.592 387.086 208.994C387.449 209.396 387.631 209.957 387.631 210.676C387.631 211.391 387.432 211.971 387.033 212.416C386.635 212.861 386.105 213.084 385.445 213.084C384.82 213.084 384.32 212.877 383.945 212.463C383.57 212.049 383.383 211.5 383.383 210.816ZM384.285 210.758C384.285 211.262 384.395 211.65 384.613 211.924C384.832 212.197 385.131 212.334 385.51 212.334C385.9 212.334 386.201 212.193 386.412 211.912C386.627 211.627 386.734 211.227 386.734 210.711C386.734 210.207 386.629 209.818 386.418 209.545C386.211 209.268 385.918 209.129 385.539 209.129C385.152 209.129 384.846 209.273 384.619 209.562C384.396 209.848 384.285 210.246 384.285 210.758ZM391.586 208.525L385.756 217.66H384.777L390.607 208.525H391.586ZM388.82 215.475C388.82 214.732 389.018 214.141 389.412 213.699C389.811 213.254 390.344 213.031 391.012 213.031C391.652 213.031 392.154 213.234 392.518 213.641C392.881 214.043 393.062 214.611 393.062 215.346C393.062 216.057 392.861 216.635 392.459 217.08C392.057 217.521 391.531 217.742 390.883 217.742C390.254 217.742 389.752 217.533 389.377 217.115C389.006 216.693 388.82 216.146 388.82 215.475ZM389.717 215.422C389.717 215.914 389.826 216.299 390.045 216.576C390.264 216.85 390.562 216.986 390.941 216.986C391.332 216.986 391.633 216.844 391.844 216.559C392.059 216.273 392.166 215.875 392.166 215.363C392.166 214.855 392.059 214.467 391.844 214.197C391.633 213.928 391.342 213.793 390.971 213.793C390.572 213.793 390.264 213.938 390.045 214.227C389.826 214.512 389.717 214.91 389.717 215.422Z" fill="#8C8C8C"/>
<path d="M286.301 256.801H294.301V272.801H282.301L285.101 270.001" stroke="#D9D9D9"/>
<path d="M301.654 268.801V261.037C301.475 261.217 301.17 261.418 300.74 261.641C300.314 261.863 299.92 262.02 299.557 262.109V260.984C300.037 260.852 300.551 260.641 301.098 260.352C301.645 260.059 302.064 259.783 302.357 259.525H302.791V268.801H301.654ZM306.195 267.283C306.816 267.764 307.518 268.004 308.299 268.004C308.924 268.004 309.418 267.852 309.781 267.547C310.148 267.238 310.332 266.826 310.332 266.311C310.332 265.162 309.51 264.588 307.865 264.588H307.109V263.639H307.83C309.287 263.639 310.016 263.1 310.016 262.021C310.016 261.025 309.459 260.527 308.346 260.527C307.709 260.527 307.109 260.742 306.547 261.172V260.088C307.141 259.744 307.834 259.572 308.627 259.572C309.4 259.572 310.021 259.775 310.49 260.182C310.959 260.584 311.193 261.107 311.193 261.752C311.193 262.939 310.588 263.703 309.377 264.043V264.066C310.033 264.137 310.551 264.369 310.93 264.764C311.312 265.154 311.504 265.643 311.504 266.229C311.504 267.045 311.209 267.703 310.619 268.203C310.033 268.703 309.252 268.953 308.275 268.953C307.416 268.953 306.723 268.793 306.195 268.473V267.283ZM313.098 268.197C313.098 267.986 313.17 267.809 313.314 267.664C313.459 267.52 313.639 267.447 313.854 267.447C314.072 267.447 314.254 267.521 314.398 267.67C314.543 267.814 314.615 267.99 314.615 268.197C314.615 268.4 314.543 268.576 314.398 268.725C314.254 268.869 314.07 268.941 313.848 268.941C313.633 268.941 313.453 268.869 313.309 268.725C313.168 268.576 313.098 268.4 313.098 268.197ZM321.711 260.434C320.758 262.098 320.008 263.639 319.461 265.057C318.918 266.471 318.582 267.719 318.453 268.801H317.258C317.402 267.734 317.744 266.518 318.283 265.15C318.822 263.783 319.543 262.312 320.445 260.738H315.945V259.725H321.711V260.434ZM328.514 266C328.514 266.887 328.219 267.602 327.629 268.145C327.043 268.688 326.254 268.959 325.262 268.959C324.41 268.959 323.775 268.832 323.357 268.578V267.406C323.971 267.805 324.596 268.004 325.232 268.004C325.865 268.004 326.375 267.83 326.762 267.482C327.152 267.131 327.348 266.666 327.348 266.088C327.348 265.51 327.145 265.061 326.738 264.74C326.336 264.416 325.766 264.254 325.027 264.254C324.457 264.254 323.943 264.279 323.486 264.33L323.82 259.725H328.062V260.732H324.787L324.6 263.305L325.426 263.27C326.387 263.27 327.141 263.51 327.688 263.99C328.238 264.467 328.514 265.137 328.514 266ZM329.891 262.016C329.891 261.273 330.088 260.684 330.482 260.246C330.881 259.809 331.416 259.59 332.088 259.59C332.732 259.59 333.234 259.791 333.594 260.193C333.957 260.596 334.139 261.156 334.139 261.875C334.139 262.59 333.939 263.17 333.541 263.615C333.143 264.061 332.613 264.283 331.953 264.283C331.328 264.283 330.828 264.076 330.453 263.662C330.078 263.248 329.891 262.699 329.891 262.016ZM330.793 261.957C330.793 262.461 330.902 262.85 331.121 263.123C331.34 263.396 331.639 263.533 332.018 263.533C332.408 263.533 332.709 263.393 332.92 263.111C333.135 262.826 333.242 262.426 333.242 261.91C333.242 261.406 333.137 261.018 332.926 260.744C332.719 260.467 332.426 260.328 332.047 260.328C331.66 260.328 331.354 260.473 331.127 260.762C330.904 261.047 330.793 261.445 330.793 261.957ZM338.094 259.725L332.264 268.859H331.285L337.115 259.725H338.094ZM335.328 266.674C335.328 265.932 335.525 265.34 335.92 264.898C336.318 264.453 336.852 264.23 337.52 264.23C338.16 264.23 338.662 264.434 339.025 264.84C339.389 265.242 339.57 265.811 339.57 266.545C339.57 267.256 339.369 267.834 338.967 268.279C338.564 268.721 338.039 268.941 337.391 268.941C336.762 268.941 336.26 268.732 335.885 268.314C335.514 267.893 335.328 267.346 335.328 266.674ZM336.225 266.621C336.225 267.113 336.334 267.498 336.553 267.775C336.771 268.049 337.07 268.186 337.449 268.186C337.84 268.186 338.141 268.043 338.352 267.758C338.566 267.473 338.674 267.074 338.674 266.562C338.674 266.055 338.566 265.666 338.352 265.396C338.141 265.127 337.85 264.992 337.479 264.992C337.08 264.992 336.771 265.137 336.553 265.426C336.334 265.711 336.225 266.109 336.225 266.621Z" fill="#8C8C8C"/>
<path d="M72 60H62V316H152L140.7 304.7" stroke="#D9D9D9"/>
<path d="M39 176H86C86.5304 176 87.0391 176.211 87.4142 176.586C87.7893 176.961 88 177.47 88 178V198C88 198.53 87.7893 199.039 87.4142 199.414C87.0391 199.789 86.5304 200 86 200H39C38.4696 200 37.9609 199.789 37.5858 199.414C37.2107 199.039 37 198.53 37 198V178C37 177.47 37.2107 176.961 37.5858 176.586C37.9609 176.211 38.4696 176 39 176Z" fill="#F0F2F5"/>
<path d="M50.8262 189.199C50.8262 190.086 50.5312 190.801 49.9414 191.344C49.3555 191.887 48.5664 192.158 47.5742 192.158C46.7227 192.158 46.0879 192.031 45.6699 191.777V190.605C46.2832 191.004 46.9082 191.203 47.5449 191.203C48.1777 191.203 48.6875 191.029 49.0742 190.682C49.4648 190.33 49.6602 189.865 49.6602 189.287C49.6602 188.709 49.457 188.26 49.0508 187.939C48.6484 187.615 48.0781 187.453 47.3398 187.453C46.7695 187.453 46.2559 187.479 45.7988 187.529L46.1328 182.924H50.375V183.932H47.0996L46.9121 186.504L47.7383 186.469C48.6992 186.469 49.4531 186.709 50 187.189C50.5508 187.666 50.8262 188.336 50.8262 189.199ZM52.3906 191.396C52.3906 191.186 52.4629 191.008 52.6074 190.863C52.752 190.719 52.9316 190.646 53.1465 190.646C53.3652 190.646 53.5469 190.721 53.6914 190.869C53.8359 191.014 53.9082 191.189 53.9082 191.396C53.9082 191.6 53.8359 191.775 53.6914 191.924C53.5469 192.068 53.3633 192.141 53.1406 192.141C52.9258 192.141 52.7461 192.068 52.6016 191.924C52.4609 191.775 52.3906 191.6 52.3906 191.396ZM57.9277 192V184.236C57.748 184.416 57.4434 184.617 57.0137 184.84C56.5879 185.062 56.1934 185.219 55.8301 185.309V184.184C56.3105 184.051 56.8242 183.84 57.3711 183.551C57.918 183.258 58.3379 182.982 58.6309 182.725H59.0645V192H57.9277ZM67.0801 182.924V188.918H68.4395V189.867H67.0801V192H65.9668V189.867H61.7305V188.971C62.4844 188.123 63.2422 187.146 64.0039 186.041C64.7656 184.936 65.3945 183.896 65.8906 182.924H67.0801ZM63.0195 188.918H65.9668V184.594C65.5605 185.324 65.125 186.033 64.6602 186.721C64.1953 187.404 63.6484 188.137 63.0195 188.918ZM69.1836 185.215C69.1836 184.473 69.3809 183.883 69.7754 183.445C70.1738 183.008 70.709 182.789 71.3809 182.789C72.0254 182.789 72.5273 182.99 72.8867 183.393C73.25 183.795 73.4316 184.355 73.4316 185.074C73.4316 185.789 73.2324 186.369 72.834 186.814C72.4355 187.26 71.9062 187.482 71.2461 187.482C70.6211 187.482 70.1211 187.275 69.7461 186.861C69.3711 186.447 69.1836 185.898 69.1836 185.215ZM70.0859 185.156C70.0859 185.66 70.1953 186.049 70.4141 186.322C70.6328 186.596 70.9316 186.732 71.3105 186.732C71.7012 186.732 72.002 186.592 72.2129 186.311C72.4277 186.025 72.5352 185.625 72.5352 185.109C72.5352 184.605 72.4297 184.217 72.2188 183.943C72.0117 183.666 71.7188 183.527 71.3398 183.527C70.9531 183.527 70.6465 183.672 70.4199 183.961C70.1973 184.246 70.0859 184.645 70.0859 185.156ZM77.3867 182.924L71.5566 192.059H70.5781L76.4082 182.924H77.3867ZM74.6211 189.873C74.6211 189.131 74.8184 188.539 75.2129 188.098C75.6113 187.652 76.1445 187.43 76.8125 187.43C77.4531 187.43 77.9551 187.633 78.3184 188.039C78.6816 188.441 78.8633 189.01 78.8633 189.744C78.8633 190.455 78.6621 191.033 78.2598 191.479C77.8574 191.92 77.332 192.141 76.6836 192.141C76.0547 192.141 75.5527 191.932 75.1777 191.514C74.8066 191.092 74.6211 190.545 74.6211 189.873ZM75.5176 189.82C75.5176 190.312 75.627 190.697 75.8457 190.975C76.0645 191.248 76.3633 191.385 76.7422 191.385C77.1328 191.385 77.4336 191.242 77.6445 190.957C77.8594 190.672 77.9668 190.273 77.9668 189.762C77.9668 189.254 77.8594 188.865 77.6445 188.596C77.4336 188.326 77.1426 188.191 76.7715 188.191C76.373 188.191 76.0645 188.336 75.8457 188.625C75.627 188.91 75.5176 189.309 75.5176 189.82Z" fill="#8C8C8C"/>
<path d="M80 60H440L422.3 111.2H97.7L80 60Z" fill="#294680" stroke="white" stroke-linejoin="round"/>
<path d="M250.699 264.801H269.299L259.999 316.001L250.699 264.801Z" fill="#376DF7" stroke="white" stroke-linejoin="round"/>
<path d="M192.699 213.602H327.299L269.299 264.802H250.699L192.699 213.602Z" fill="#53B997" stroke="white" stroke-linejoin="round"/>
<path d="M163.6 162.398H356.4L327.3 213.598H192.7L163.6 162.398Z" fill="#6750AA" stroke="white" stroke-linejoin="round"/>
<path d="M97.6992 111.199H422.299L356.399 162.399H163.599L97.6992 111.199Z" fill="#F8C541" stroke="white" stroke-linejoin="round"/>
<path d="M245.035 87.8965C245.312 88.1387 245.684 88.3379 246.148 88.4941C246.613 88.6504 247.055 88.7285 247.473 88.7285C248.746 88.7285 249.383 88.2754 249.383 87.3691C249.383 87.1152 249.314 86.8867 249.178 86.6836C249.041 86.4805 248.854 86.3008 248.615 86.1445C248.377 85.9883 247.93 85.748 247.273 85.4238C246.363 84.9707 245.764 84.5508 245.475 84.1641C245.186 83.7734 245.041 83.3281 245.041 82.8281C245.041 82.0742 245.344 81.4766 245.949 81.0352C246.555 80.5938 247.318 80.373 248.24 80.373C249.143 80.373 249.805 80.4824 250.227 80.7012V81.9785C249.68 81.5996 248.988 81.4102 248.152 81.4102C247.598 81.4102 247.145 81.5273 246.793 81.7617C246.445 81.9922 246.271 82.3145 246.271 82.7285C246.271 83.0957 246.393 83.3945 246.635 83.625C246.877 83.8555 247.402 84.1699 248.211 84.5684C249.102 84.9941 249.725 85.4199 250.08 85.8457C250.436 86.2715 250.613 86.75 250.613 87.2812C250.613 88.0781 250.324 88.6895 249.746 89.1152C249.168 89.541 248.365 89.7539 247.338 89.7539C246.979 89.7539 246.559 89.7031 246.078 89.6016C245.602 89.5039 245.254 89.3809 245.035 89.2324V87.8965ZM257.709 89.6016H256.566V85.875C256.566 84.5703 256.082 83.918 255.113 83.918C254.617 83.918 254.205 84.1094 253.877 84.4922C253.549 84.8711 253.385 85.3496 253.385 85.9277V89.6016H252.236V80.0098H253.385V84.1875H253.408C253.904 83.375 254.609 82.9688 255.523 82.9688C256.98 82.9688 257.709 83.8496 257.709 85.6113V89.6016ZM259.197 86.4316C259.197 85.3613 259.496 84.5176 260.094 83.9004C260.691 83.2793 261.502 82.9688 262.525 82.9688C263.498 82.9688 264.26 83.2676 264.811 83.8652C265.365 84.459 265.643 85.2812 265.643 86.332C265.643 87.3555 265.348 88.1816 264.758 88.8105C264.168 89.4395 263.377 89.7539 262.385 89.7539C261.416 89.7539 260.643 89.4492 260.064 88.8398C259.486 88.2305 259.197 87.4277 259.197 86.4316ZM260.369 86.3965C260.369 87.1426 260.557 87.7305 260.932 88.1602C261.311 88.5898 261.818 88.8047 262.455 88.8047C263.111 88.8047 263.611 88.5957 263.955 88.1777C264.299 87.7559 264.471 87.1523 264.471 86.3672C264.471 85.5781 264.299 84.9727 263.955 84.5508C263.611 84.1289 263.111 83.918 262.455 83.918C261.811 83.918 261.301 84.1387 260.926 84.5801C260.555 85.0215 260.369 85.627 260.369 86.3965ZM275.562 83.1211L273.629 89.6016H272.434L271.145 85.0547C271.09 84.8594 271.055 84.6523 271.039 84.4336H271.016C271.004 84.5977 270.959 84.8008 270.881 85.043L269.486 89.6016H268.326L266.381 83.1211H267.576L268.871 87.9258C268.91 88.0703 268.939 88.2676 268.959 88.5176H269.006C269.021 88.3027 269.059 88.0996 269.117 87.9082L270.512 83.1211H271.572L272.932 87.9316C272.971 88.0723 273.002 88.2715 273.025 88.5293H273.078C273.086 88.3574 273.121 88.1582 273.184 87.9316L274.449 83.1211H275.562Z" fill="#EEEEEE"/>
<path d="M256.234 285.322L252.9 294.398H251.6L248.33 285.322H249.631L252.074 292.418C252.156 292.652 252.217 292.924 252.256 293.232H252.285C252.316 292.963 252.385 292.688 252.49 292.406L254.98 285.322H256.234ZM257.23 285.633C257.23 285.43 257.299 285.26 257.436 285.123C257.576 284.982 257.748 284.912 257.951 284.912C258.158 284.912 258.332 284.98 258.473 285.117C258.617 285.254 258.689 285.426 258.689 285.633C258.689 285.836 258.617 286.006 258.473 286.143C258.332 286.275 258.158 286.342 257.951 286.342C257.744 286.342 257.572 286.275 257.436 286.143C257.299 286.006 257.23 285.836 257.23 285.633ZM257.365 294.398V287.918H258.514V294.398H257.365ZM260.207 292.998C260.785 293.416 261.408 293.625 262.076 293.625C262.971 293.625 263.418 293.332 263.418 292.746C263.418 292.496 263.32 292.291 263.125 292.131C262.93 291.967 262.533 291.773 261.936 291.551C261.217 291.262 260.75 290.977 260.535 290.695C260.32 290.41 260.213 290.066 260.213 289.664C260.213 289.09 260.455 288.631 260.939 288.287C261.428 287.939 262.027 287.766 262.738 287.766C263.289 287.766 263.801 287.861 264.273 288.053V289.16C263.789 288.848 263.24 288.691 262.627 288.691C262.26 288.691 261.961 288.771 261.73 288.932C261.5 289.092 261.385 289.303 261.385 289.564C261.385 289.822 261.467 290.023 261.631 290.168C261.799 290.312 262.168 290.498 262.738 290.725C263.461 290.994 263.949 291.273 264.203 291.562C264.457 291.852 264.584 292.209 264.584 292.635C264.584 293.229 264.34 293.697 263.852 294.041C263.367 294.381 262.738 294.551 261.965 294.551C261.293 294.551 260.707 294.424 260.207 294.17V292.998ZM265.984 285.633C265.984 285.43 266.053 285.26 266.189 285.123C266.33 284.982 266.502 284.912 266.705 284.912C266.912 284.912 267.086 284.98 267.227 285.117C267.371 285.254 267.443 285.426 267.443 285.633C267.443 285.836 267.371 286.006 267.227 286.143C267.086 286.275 266.912 286.342 266.705 286.342C266.498 286.342 266.326 286.275 266.189 286.143C266.053 286.006 265.984 285.836 265.984 285.633ZM266.119 294.398V287.918H267.268V294.398H266.119ZM272.436 294.334C272.186 294.471 271.848 294.539 271.422 294.539C270.262 294.539 269.682 293.896 269.682 292.611V288.867H268.568V287.918H269.682V286.359L270.824 285.996V287.918H272.436V288.867H270.824V292.406C270.824 292.832 270.896 293.137 271.041 293.32C271.186 293.504 271.426 293.596 271.762 293.596C272.02 293.596 272.244 293.523 272.436 293.379V294.334Z" fill="#EEEEEE"/>
<path d="M242.781 234.123V243.199H241.609V234.123H242.781ZM250.469 243.199H249.326V239.514C249.326 238.182 248.84 237.516 247.867 237.516C247.363 237.516 246.949 237.703 246.625 238.078C246.301 238.453 246.139 238.928 246.139 239.502V243.199H244.99V236.719H246.139V237.791H246.162C246.65 236.975 247.359 236.566 248.289 236.566C249 236.566 249.541 236.795 249.912 237.252C250.283 237.705 250.469 238.367 250.469 239.238V243.199ZM258.01 246.182H256.861V242.109H256.838C256.385 242.938 255.654 243.352 254.646 243.352C253.83 243.352 253.176 243.064 252.684 242.49C252.195 241.912 251.951 241.119 251.951 240.111C251.951 239.037 252.221 238.178 252.76 237.533C253.299 236.889 254.021 236.566 254.928 236.566C255.803 236.566 256.439 236.91 256.838 237.598H256.861V236.719H258.01V246.182ZM256.861 239.367C256.865 238.855 256.701 238.42 256.369 238.061C256.041 237.697 255.611 237.516 255.08 237.516C254.471 237.516 253.992 237.742 253.645 238.195C253.297 238.648 253.123 239.277 253.123 240.082C253.123 240.809 253.289 241.377 253.621 241.787C253.957 242.197 254.396 242.402 254.939 242.402C255.533 242.402 256.002 242.199 256.346 241.793C256.693 241.383 256.865 240.873 256.861 240.264V239.367ZM265.41 243.199H264.256V242.18H264.232C263.799 242.961 263.133 243.352 262.234 243.352C260.699 243.352 259.932 242.434 259.932 240.598V236.719H261.068V240.428C261.068 241.744 261.572 242.402 262.58 242.402C263.08 242.402 263.484 242.219 263.793 241.852C264.102 241.48 264.256 241.014 264.256 240.451V236.719H265.41V243.199ZM267.314 234.434C267.314 234.23 267.383 234.061 267.52 233.924C267.66 233.783 267.832 233.713 268.035 233.713C268.242 233.713 268.416 233.781 268.557 233.918C268.701 234.055 268.773 234.227 268.773 234.434C268.773 234.637 268.701 234.807 268.557 234.943C268.416 235.076 268.242 235.143 268.035 235.143C267.828 235.143 267.656 235.076 267.52 234.943C267.383 234.807 267.314 234.637 267.314 234.434ZM267.449 243.199V236.719H268.598V243.199H267.449ZM274.129 237.855C273.938 237.719 273.674 237.65 273.338 237.65C272.893 237.65 272.525 237.859 272.236 238.277C271.947 238.691 271.803 239.238 271.803 239.918V243.199H270.654V236.719H271.803V238.037H271.826C272.154 237.084 272.721 236.607 273.525 236.607C273.787 236.607 273.988 236.637 274.129 236.695V237.855ZM280.51 236.719L277.568 244.178C277.021 245.561 276.25 246.252 275.254 246.252C274.969 246.252 274.725 246.221 274.521 246.158V245.15C274.744 245.236 274.959 245.279 275.166 245.279C275.686 245.279 276.074 244.975 276.332 244.365L276.83 243.188L274.287 236.719H275.559L277.252 241.588L277.393 242.121H277.422C277.445 242 277.492 241.826 277.562 241.6L279.332 236.719H280.51Z" fill="#333333"/>
<path d="M243.869 187.57C243.869 186.105 244.266 184.939 245.059 184.072C245.852 183.205 246.926 182.771 248.281 182.771C249.543 182.771 250.559 183.195 251.328 184.043C252.098 184.891 252.482 185.994 252.482 187.354C252.482 188.826 252.088 189.994 251.299 190.857C250.51 191.721 249.455 192.152 248.135 192.152C246.846 192.152 245.812 191.729 245.035 190.881C244.258 190.033 243.869 188.93 243.869 187.57ZM245.1 187.477C245.1 188.574 245.379 189.455 245.938 190.119C246.5 190.779 247.232 191.109 248.135 191.109C249.104 191.109 249.863 190.793 250.414 190.16C250.969 189.523 251.246 188.635 251.246 187.494C251.246 186.322 250.975 185.418 250.432 184.781C249.893 184.145 249.152 183.826 248.211 183.826C247.285 183.826 246.535 184.162 245.961 184.834C245.387 185.506 245.1 186.387 245.1 187.477ZM257.568 186.656C257.377 186.52 257.113 186.451 256.777 186.451C256.332 186.451 255.965 186.66 255.676 187.078C255.387 187.492 255.242 188.039 255.242 188.719V192H254.094V185.52H255.242V186.838H255.266C255.594 185.885 256.16 185.408 256.965 185.408C257.227 185.408 257.428 185.438 257.568 185.496V186.656ZM264.301 192H263.152V190.922H263.129C262.656 191.742 261.922 192.152 260.926 192.152C260.105 192.152 259.453 191.861 258.969 191.279C258.484 190.693 258.242 189.904 258.242 188.912C258.242 187.842 258.516 186.984 259.062 186.34C259.609 185.691 260.324 185.367 261.207 185.367C262.09 185.367 262.73 185.711 263.129 186.398H263.152V182.408H264.301V192ZM263.158 188.145C263.158 187.625 262.986 187.191 262.643 186.844C262.303 186.492 261.883 186.316 261.383 186.316C260.773 186.316 260.293 186.545 259.941 187.002C259.59 187.455 259.414 188.074 259.414 188.859C259.414 189.582 259.582 190.154 259.918 190.576C260.258 190.994 260.709 191.203 261.271 191.203C261.826 191.203 262.279 190.998 262.631 190.588C262.982 190.174 263.158 189.66 263.158 189.047V188.145ZM271.631 189.053H267.096C267.115 189.744 267.305 190.279 267.664 190.658C268.023 191.033 268.525 191.221 269.17 191.221C269.896 191.221 270.562 190.988 271.168 190.523V191.549C270.598 191.951 269.842 192.152 268.9 192.152C267.963 192.152 267.23 191.855 266.703 191.262C266.18 190.668 265.918 189.844 265.918 188.789C265.918 187.797 266.205 186.979 266.779 186.334C267.357 185.689 268.074 185.367 268.93 185.367C269.777 185.367 270.439 185.641 270.916 186.188C271.393 186.73 271.631 187.492 271.631 188.473V189.053ZM270.482 188.133C270.479 187.547 270.34 187.094 270.066 186.773C269.793 186.453 269.408 186.293 268.912 186.293C268.455 186.293 268.059 186.463 267.723 186.803C267.391 187.143 267.182 187.586 267.096 188.133H270.482ZM276.635 186.656C276.443 186.52 276.18 186.451 275.844 186.451C275.398 186.451 275.031 186.66 274.742 187.078C274.453 187.492 274.309 188.039 274.309 188.719V192H273.16V185.52H274.309V186.838H274.332C274.66 185.885 275.227 185.408 276.031 185.408C276.293 185.408 276.494 185.438 276.635 185.496V186.656Z" fill="#EEEEEE"/>
<path d="M254.389 140.426C253.721 140.777 252.883 140.953 251.875 140.953C250.574 140.953 249.535 140.541 248.758 139.717C247.98 138.889 247.592 137.795 247.592 136.436C247.592 134.975 248.029 133.799 248.904 132.908C249.779 132.018 250.891 131.572 252.238 131.572C253.105 131.572 253.822 131.695 254.389 131.941V133.166C253.74 132.807 253.027 132.627 252.25 132.627C251.238 132.627 250.414 132.965 249.777 133.641C249.141 134.312 248.822 135.221 248.822 136.365C248.822 137.451 249.119 138.314 249.713 138.955C250.307 139.592 251.084 139.91 252.045 139.91C252.943 139.91 253.725 139.707 254.389 139.301V140.426ZM256.053 140.801V131.209H257.201V140.801H256.053ZM259.117 132.035C259.117 131.832 259.186 131.662 259.322 131.525C259.463 131.385 259.635 131.314 259.838 131.314C260.045 131.314 260.219 131.383 260.359 131.52C260.504 131.656 260.576 131.828 260.576 132.035C260.576 132.238 260.504 132.408 260.359 132.545C260.219 132.678 260.045 132.744 259.838 132.744C259.631 132.744 259.459 132.678 259.322 132.545C259.186 132.408 259.117 132.238 259.117 132.035ZM259.252 140.801V134.32H260.4V140.801H259.252ZM266.934 140.508C266.438 140.805 265.84 140.953 265.141 140.953C264.203 140.953 263.449 140.652 262.879 140.051C262.309 139.449 262.023 138.67 262.023 137.713C262.023 136.65 262.33 135.795 262.943 135.146C263.561 134.494 264.385 134.168 265.416 134.168C266.01 134.168 266.518 134.273 266.939 134.484V135.621C266.482 135.285 265.975 135.117 265.416 135.117C264.76 135.117 264.225 135.346 263.811 135.803C263.4 136.256 263.195 136.861 263.195 137.619C263.195 138.365 263.389 138.949 263.775 139.371C264.166 139.793 264.691 140.004 265.352 140.004C265.91 140.004 266.438 139.82 266.934 139.453V140.508ZM273.988 140.801H272.424L269.652 137.678H269.629V140.801H268.48V131.209H269.629V137.291H269.652L272.283 134.32H273.76L270.83 137.438L273.988 140.801Z" fill="#333333"/>
<path d="M101.596 7H109.596C110.126 7 110.635 7.21071 111.01 7.58579C111.385 7.96086 111.596 8.46957 111.596 9V13C111.596 13.5304 111.385 14.0391 111.01 14.4142C110.635 14.7893 110.126 15 109.596 15H101.596C101.065 15 100.557 14.7893 100.181 14.4142C99.8064 14.0391 99.5957 13.5304 99.5957 13V9C99.5957 8.46957 99.8064 7.96086 100.181 7.58579C100.557 7.21071 101.065 7 101.596 7Z" fill="#376DF7"/>
<path d="M127.605 5.92383L124.271 15H122.971L119.701 5.92383H121.002L123.445 13.0195C123.527 13.2539 123.588 13.5254 123.627 13.834H123.656C123.688 13.5645 123.756 13.2891 123.861 13.0078L126.352 5.92383H127.605ZM128.602 6.23438C128.602 6.03125 128.67 5.86133 128.807 5.72461C128.947 5.58398 129.119 5.51367 129.322 5.51367C129.529 5.51367 129.703 5.58203 129.844 5.71875C129.988 5.85547 130.061 6.02734 130.061 6.23438C130.061 6.4375 129.988 6.60742 129.844 6.74414C129.703 6.87695 129.529 6.94336 129.322 6.94336C129.115 6.94336 128.943 6.87695 128.807 6.74414C128.67 6.60742 128.602 6.4375 128.602 6.23438ZM128.736 15V8.51953H129.885V15H128.736ZM131.578 13.5996C132.156 14.0176 132.779 14.2266 133.447 14.2266C134.342 14.2266 134.789 13.9336 134.789 13.3477C134.789 13.0977 134.691 12.8926 134.496 12.7324C134.301 12.5684 133.904 12.375 133.307 12.1523C132.588 11.8633 132.121 11.5781 131.906 11.2969C131.691 11.0117 131.584 10.668 131.584 10.2656C131.584 9.69141 131.826 9.23242 132.311 8.88867C132.799 8.54102 133.398 8.36719 134.109 8.36719C134.66 8.36719 135.172 8.46289 135.645 8.6543V9.76172C135.16 9.44922 134.611 9.29297 133.998 9.29297C133.631 9.29297 133.332 9.37305 133.102 9.5332C132.871 9.69336 132.756 9.9043 132.756 10.166C132.756 10.4238 132.838 10.625 133.002 10.7695C133.17 10.9141 133.539 11.0996 134.109 11.3262C134.832 11.5957 135.32 11.875 135.574 12.1641C135.828 12.4531 135.955 12.8105 135.955 13.2363C135.955 13.8301 135.711 14.2988 135.223 14.6426C134.738 14.9824 134.109 15.1523 133.336 15.1523C132.664 15.1523 132.078 15.0254 131.578 14.7715V13.5996ZM137.355 6.23438C137.355 6.03125 137.424 5.86133 137.561 5.72461C137.701 5.58398 137.873 5.51367 138.076 5.51367C138.283 5.51367 138.457 5.58203 138.598 5.71875C138.742 5.85547 138.814 6.02734 138.814 6.23438C138.814 6.4375 138.742 6.60742 138.598 6.74414C138.457 6.87695 138.283 6.94336 138.076 6.94336C137.869 6.94336 137.697 6.87695 137.561 6.74414C137.424 6.60742 137.355 6.4375 137.355 6.23438ZM137.49 15V8.51953H138.639V15H137.49ZM143.807 14.9355C143.557 15.0723 143.219 15.1406 142.793 15.1406C141.633 15.1406 141.053 14.498 141.053 13.2129V9.46875H139.939V8.51953H141.053V6.96094L142.195 6.59766V8.51953H143.807V9.46875H142.195V13.0078C142.195 13.4336 142.268 13.7383 142.412 13.9219C142.557 14.1055 142.797 14.1973 143.133 14.1973C143.391 14.1973 143.615 14.125 143.807 13.9805V14.9355Z" fill="#2C3542" fill-opacity="0.65"/>
<path d="M162.123 7H170.123C170.653 7 171.162 7.21071 171.537 7.58579C171.912 7.96086 172.123 8.46957 172.123 9V13C172.123 13.5304 171.912 14.0391 171.537 14.4142C171.162 14.7893 170.653 15 170.123 15H162.123C161.593 15 161.084 14.7893 160.709 14.4142C160.334 14.0391 160.123 13.5304 160.123 13V9C160.123 8.46957 160.334 7.96086 160.709 7.58579C161.084 7.21071 161.593 7 162.123 7Z" fill="#53B997"/>
<path d="M182.467 5.92383V15H181.295V5.92383H182.467ZM190.154 15H189.012V11.3145C189.012 9.98242 188.525 9.31641 187.553 9.31641C187.049 9.31641 186.635 9.50391 186.311 9.87891C185.986 10.2539 185.824 10.7285 185.824 11.3027V15H184.676V8.51953H185.824V9.5918H185.848C186.336 8.77539 187.045 8.36719 187.975 8.36719C188.686 8.36719 189.227 8.5957 189.598 9.05273C189.969 9.50586 190.154 10.168 190.154 11.0391V15ZM197.695 17.9824H196.547V13.9102H196.523C196.07 14.7383 195.34 15.1523 194.332 15.1523C193.516 15.1523 192.861 14.8652 192.369 14.291C191.881 13.7129 191.637 12.9199 191.637 11.9121C191.637 10.8379 191.906 9.97852 192.445 9.33398C192.984 8.68945 193.707 8.36719 194.613 8.36719C195.488 8.36719 196.125 8.71094 196.523 9.39844H196.547V8.51953H197.695V17.9824ZM196.547 11.168C196.551 10.6562 196.387 10.2207 196.055 9.86133C195.727 9.49805 195.297 9.31641 194.766 9.31641C194.156 9.31641 193.678 9.54297 193.33 9.99609C192.982 10.4492 192.809 11.0781 192.809 11.8828C192.809 12.6094 192.975 13.1777 193.307 13.5879C193.643 13.998 194.082 14.2031 194.625 14.2031C195.219 14.2031 195.688 14 196.031 13.5938C196.379 13.1836 196.551 12.6738 196.547 12.0645V11.168ZM205.096 15H203.941V13.9805H203.918C203.484 14.7617 202.818 15.1523 201.92 15.1523C200.385 15.1523 199.617 14.2344 199.617 12.3984V8.51953H200.754V12.2285C200.754 13.5449 201.258 14.2031 202.266 14.2031C202.766 14.2031 203.17 14.0195 203.479 13.6523C203.787 13.2812 203.941 12.8145 203.941 12.252V8.51953H205.096V15ZM207 6.23438C207 6.03125 207.068 5.86133 207.205 5.72461C207.346 5.58398 207.518 5.51367 207.721 5.51367C207.928 5.51367 208.102 5.58203 208.242 5.71875C208.387 5.85547 208.459 6.02734 208.459 6.23438C208.459 6.4375 208.387 6.60742 208.242 6.74414C208.102 6.87695 207.928 6.94336 207.721 6.94336C207.514 6.94336 207.342 6.87695 207.205 6.74414C207.068 6.60742 207 6.4375 207 6.23438ZM207.135 15V8.51953H208.283V15H207.135ZM213.814 9.65625C213.623 9.51953 213.359 9.45117 213.023 9.45117C212.578 9.45117 212.211 9.66016 211.922 10.0781C211.633 10.4922 211.488 11.0391 211.488 11.7188V15H210.34V8.51953H211.488V9.83789H211.512C211.84 8.88477 212.406 8.4082 213.211 8.4082C213.473 8.4082 213.674 8.4375 213.814 8.49609V9.65625ZM220.195 8.51953L217.254 15.9785C216.707 17.3613 215.936 18.0527 214.939 18.0527C214.654 18.0527 214.41 18.0215 214.207 17.959V16.9512C214.43 17.0371 214.645 17.0801 214.852 17.0801C215.371 17.0801 215.76 16.7754 216.018 16.166L216.516 14.9883L213.973 8.51953H215.244L216.938 13.3887L217.078 13.9219H217.107C217.131 13.8008 217.178 13.627 217.248 13.4004L219.018 8.51953H220.195Z" fill="#2C3542" fill-opacity="0.65"/>
<path d="M238.764 7H246.764C247.294 7 247.803 7.21071 248.178 7.58579C248.553 7.96086 248.764 8.46957 248.764 9V13C248.764 13.5304 248.553 14.0391 248.178 14.4142C247.803 14.7893 247.294 15 246.764 15H238.764C238.233 15 237.725 14.7893 237.349 14.4142C236.974 14.0391 236.764 13.5304 236.764 13V9C236.764 8.46957 236.974 7.96086 237.349 7.58579C237.725 7.21071 238.233 7 238.764 7Z" fill="#6750AA"/>
<path d="M257.35 10.5703C257.35 9.10547 257.746 7.93945 258.539 7.07227C259.332 6.20508 260.406 5.77148 261.762 5.77148C263.023 5.77148 264.039 6.19531 264.809 7.04297C265.578 7.89062 265.963 8.99414 265.963 10.3535C265.963 11.8262 265.568 12.9941 264.779 13.8574C263.99 14.7207 262.936 15.1523 261.615 15.1523C260.326 15.1523 259.293 14.7285 258.516 13.8809C257.738 13.0332 257.35 11.9297 257.35 10.5703ZM258.58 10.4766C258.58 11.5742 258.859 12.4551 259.418 13.1191C259.98 13.7793 260.713 14.1094 261.615 14.1094C262.584 14.1094 263.344 13.793 263.895 13.1602C264.449 12.5234 264.727 11.6348 264.727 10.4941C264.727 9.32227 264.455 8.41797 263.912 7.78125C263.373 7.14453 262.633 6.82617 261.691 6.82617C260.766 6.82617 260.016 7.16211 259.441 7.83398C258.867 8.50586 258.58 9.38672 258.58 10.4766ZM271.049 9.65625C270.857 9.51953 270.594 9.45117 270.258 9.45117C269.812 9.45117 269.445 9.66016 269.156 10.0781C268.867 10.4922 268.723 11.0391 268.723 11.7188V15H267.574V8.51953H268.723V9.83789H268.746C269.074 8.88477 269.641 8.4082 270.445 8.4082C270.707 8.4082 270.908 8.4375 271.049 8.49609V9.65625ZM277.781 15H276.633V13.9219H276.609C276.137 14.7422 275.402 15.1523 274.406 15.1523C273.586 15.1523 272.934 14.8613 272.449 14.2793C271.965 13.6934 271.723 12.9043 271.723 11.9121C271.723 10.8418 271.996 9.98438 272.543 9.33984C273.09 8.69141 273.805 8.36719 274.688 8.36719C275.57 8.36719 276.211 8.71094 276.609 9.39844H276.633V5.4082H277.781V15ZM276.639 11.1445C276.639 10.625 276.467 10.1914 276.123 9.84375C275.783 9.49219 275.363 9.31641 274.863 9.31641C274.254 9.31641 273.773 9.54492 273.422 10.002C273.07 10.4551 272.895 11.0742 272.895 11.8594C272.895 12.582 273.062 13.1543 273.398 13.5762C273.738 13.9941 274.189 14.2031 274.752 14.2031C275.307 14.2031 275.76 13.998 276.111 13.5879C276.463 13.1738 276.639 12.6602 276.639 12.0469V11.1445ZM285.111 12.0527H280.576C280.596 12.7441 280.785 13.2793 281.145 13.6582C281.504 14.0332 282.006 14.2207 282.65 14.2207C283.377 14.2207 284.043 13.9883 284.648 13.5234V14.5488C284.078 14.9512 283.322 15.1523 282.381 15.1523C281.443 15.1523 280.711 14.8555 280.184 14.2617C279.66 13.668 279.398 12.8438 279.398 11.7891C279.398 10.7969 279.686 9.97852 280.26 9.33398C280.838 8.68945 281.555 8.36719 282.41 8.36719C283.258 8.36719 283.92 8.64062 284.396 9.1875C284.873 9.73047 285.111 10.4922 285.111 11.4727V12.0527ZM283.963 11.1328C283.959 10.5469 283.82 10.0938 283.547 9.77344C283.273 9.45312 282.889 9.29297 282.393 9.29297C281.936 9.29297 281.539 9.46289 281.203 9.80273C280.871 10.1426 280.662 10.5859 280.576 11.1328H283.963ZM290.115 9.65625C289.924 9.51953 289.66 9.45117 289.324 9.45117C288.879 9.45117 288.512 9.66016 288.223 10.0781C287.934 10.4922 287.789 11.0391 287.789 11.7188V15H286.641V8.51953H287.789V9.83789H287.812C288.141 8.88477 288.707 8.4082 289.512 8.4082C289.773 8.4082 289.975 8.4375 290.115 8.49609V9.65625Z" fill="#2C3542" fill-opacity="0.65"/>
<path d="M308.021 7H316.021C316.552 7 317.061 7.21071 317.436 7.58579C317.811 7.96086 318.021 8.46957 318.021 9V13C318.021 13.5304 317.811 14.0391 317.436 14.4142C317.061 14.7893 316.552 15 316.021 15H308.021C307.491 15 306.982 14.7893 306.607 14.4142C306.232 14.0391 306.021 13.5304 306.021 13V9C306.021 8.46957 306.232 7.96086 306.607 7.58579C306.982 7.21071 307.491 7 308.021 7Z" fill="#F8C541"/>
<path d="M333.404 14.625C332.736 14.9766 331.898 15.1523 330.891 15.1523C329.59 15.1523 328.551 14.7402 327.773 13.916C326.996 13.0879 326.607 11.9941 326.607 10.6348C326.607 9.17383 327.045 7.99805 327.92 7.10742C328.795 6.2168 329.906 5.77148 331.254 5.77148C332.121 5.77148 332.838 5.89453 333.404 6.14062V7.36523C332.756 7.00586 332.043 6.82617 331.266 6.82617C330.254 6.82617 329.43 7.16406 328.793 7.83984C328.156 8.51172 327.838 9.41992 327.838 10.5645C327.838 11.6504 328.135 12.5137 328.729 13.1543C329.322 13.791 330.1 14.1094 331.061 14.1094C331.959 14.1094 332.74 13.9062 333.404 13.5V14.625ZM335.068 15V5.4082H336.217V15H335.068ZM338.133 6.23438C338.133 6.03125 338.201 5.86133 338.338 5.72461C338.479 5.58398 338.65 5.51367 338.854 5.51367C339.061 5.51367 339.234 5.58203 339.375 5.71875C339.52 5.85547 339.592 6.02734 339.592 6.23438C339.592 6.4375 339.52 6.60742 339.375 6.74414C339.234 6.87695 339.061 6.94336 338.854 6.94336C338.646 6.94336 338.475 6.87695 338.338 6.74414C338.201 6.60742 338.133 6.4375 338.133 6.23438ZM338.268 15V8.51953H339.416V15H338.268ZM345.949 14.707C345.453 15.0039 344.855 15.1523 344.156 15.1523C343.219 15.1523 342.465 14.8516 341.895 14.25C341.324 13.6484 341.039 12.8691 341.039 11.9121C341.039 10.8496 341.346 9.99414 341.959 9.3457C342.576 8.69336 343.4 8.36719 344.432 8.36719C345.025 8.36719 345.533 8.47266 345.955 8.68359V9.82031C345.498 9.48438 344.99 9.31641 344.432 9.31641C343.775 9.31641 343.24 9.54492 342.826 10.002C342.416 10.4551 342.211 11.0605 342.211 11.8184C342.211 12.5645 342.404 13.1484 342.791 13.5703C343.182 13.9922 343.707 14.2031 344.367 14.2031C344.926 14.2031 345.453 14.0195 345.949 13.6523V14.707ZM353.004 15H351.439L348.668 11.877H348.645V15H347.496V5.4082H348.645V11.4902H348.668L351.299 8.51953H352.775L349.846 11.6367L353.004 15Z" fill="#2C3542" fill-opacity="0.65"/>
<path d="M370.986 7H378.986C379.517 7 380.025 7.21071 380.401 7.58579C380.776 7.96086 380.986 8.46957 380.986 9V13C380.986 13.5304 380.776 14.0391 380.401 14.4142C380.025 14.7893 379.517 15 378.986 15H370.986C370.456 15 369.947 14.7893 369.572 14.4142C369.197 14.0391 368.986 13.5304 368.986 13V9C368.986 8.46957 369.197 7.96086 369.572 7.58579C369.947 7.21071 370.456 7 370.986 7Z" fill="#294680"/>
<path d="M389.736 13.2949C390.014 13.5371 390.385 13.7363 390.85 13.8926C391.314 14.0488 391.756 14.127 392.174 14.127C393.447 14.127 394.084 13.6738 394.084 12.7676C394.084 12.5137 394.016 12.2852 393.879 12.082C393.742 11.8789 393.555 11.6992 393.316 11.543C393.078 11.3867 392.631 11.1465 391.975 10.8223C391.064 10.3691 390.465 9.94922 390.176 9.5625C389.887 9.17188 389.742 8.72656 389.742 8.22656C389.742 7.47266 390.045 6.875 390.65 6.43359C391.256 5.99219 392.02 5.77148 392.941 5.77148C393.844 5.77148 394.506 5.88086 394.928 6.09961V7.37695C394.381 6.99805 393.689 6.80859 392.854 6.80859C392.299 6.80859 391.846 6.92578 391.494 7.16016C391.146 7.39062 390.973 7.71289 390.973 8.12695C390.973 8.49414 391.094 8.79297 391.336 9.02344C391.578 9.25391 392.104 9.56836 392.912 9.9668C393.803 10.3926 394.426 10.8184 394.781 11.2441C395.137 11.6699 395.314 12.1484 395.314 12.6797C395.314 13.4766 395.025 14.0879 394.447 14.5137C393.869 14.9395 393.066 15.1523 392.039 15.1523C391.68 15.1523 391.26 15.1016 390.779 15C390.303 14.9023 389.955 14.7793 389.736 14.6309V13.2949ZM402.41 15H401.268V11.2734C401.268 9.96875 400.783 9.31641 399.814 9.31641C399.318 9.31641 398.906 9.50781 398.578 9.89062C398.25 10.2695 398.086 10.748 398.086 11.3262V15H396.938V5.4082H398.086V9.58594H398.109C398.605 8.77344 399.311 8.36719 400.225 8.36719C401.682 8.36719 402.41 9.24805 402.41 11.0098V15ZM403.898 11.8301C403.898 10.7598 404.197 9.91602 404.795 9.29883C405.393 8.67773 406.203 8.36719 407.227 8.36719C408.199 8.36719 408.961 8.66602 409.512 9.26367C410.066 9.85742 410.344 10.6797 410.344 11.7305C410.344 12.7539 410.049 13.5801 409.459 14.209C408.869 14.8379 408.078 15.1523 407.086 15.1523C406.117 15.1523 405.344 14.8477 404.766 14.2383C404.188 13.6289 403.898 12.8262 403.898 11.8301ZM405.07 11.7949C405.07 12.541 405.258 13.1289 405.633 13.5586C406.012 13.9883 406.52 14.2031 407.156 14.2031C407.812 14.2031 408.312 13.9941 408.656 13.5762C409 13.1543 409.172 12.5508 409.172 11.7656C409.172 10.9766 409 10.3711 408.656 9.94922C408.312 9.52734 407.812 9.31641 407.156 9.31641C406.512 9.31641 406.002 9.53711 405.627 9.97852C405.256 10.4199 405.07 11.0254 405.07 11.7949ZM420.264 8.51953L418.33 15H417.135L415.846 10.4531C415.791 10.2578 415.756 10.0508 415.74 9.83203H415.717C415.705 9.99609 415.66 10.1992 415.582 10.4414L414.188 15H413.027L411.082 8.51953H412.277L413.572 13.3242C413.611 13.4688 413.641 13.666 413.66 13.916H413.707C413.723 13.7012 413.76 13.498 413.818 13.3066L415.213 8.51953H416.273L417.633 13.3301C417.672 13.4707 417.703 13.6699 417.727 13.9277H417.779C417.787 13.7559 417.822 13.5566 417.885 13.3301L419.15 8.51953H420.264Z" fill="#2C3542" fill-opacity="0.65"/>
</g>
<defs>
<clipPath id="clip0_954_4899">
<rect width="520" height="376" fill="white"/>
</clipPath>
</defs>
</svg>
