<svg width="464" height="418" viewBox="0 0 464 418" fill="none" xmlns="http://www.w3.org/2000/svg">
<g filter="url(#filter0_d_1004_39646)">
<g clip-path="url(#clip0_1004_39646)">
<rect x="7" y="7" width="450" height="403.354" rx="5.4878" fill="white"/>
<rect x="7" y="7" width="450" height="403.354" rx="5.4878" fill="white"/>
</g>
</g>
<rect x="413.1" y="227.195" width="16.4634" height="16.4634" transform="rotate(-90 413.1 227.195)" fill="#440154"/>
<rect x="413.1" y="207.984" width="16.4634" height="16.4634" transform="rotate(-90 413.1 207.984)" fill="#365C8D"/>
<rect x="413.1" y="188.781" width="16.4634" height="16.4634" transform="rotate(-90 413.1 188.781)" fill="#1FA187"/>
<path d="M435.589 183.688V183.018H437.202V177.695H435.929V177.179C436.243 177.128 436.518 177.062 436.752 176.981C436.986 176.894 437.198 176.795 437.389 176.685H438.003V183.018H439.463V183.688H435.589Z" fill="#222539"/>
<path d="M435.49 203.547V203.075C436.207 202.351 436.814 201.718 437.312 201.176C437.809 200.627 438.186 200.137 438.442 199.705C438.698 199.274 438.826 198.864 438.826 198.476C438.826 198.066 438.713 197.73 438.486 197.466C438.267 197.203 437.919 197.071 437.443 197.071C437.151 197.071 436.873 197.152 436.609 197.313C436.353 197.474 436.123 197.679 435.918 197.927L435.446 197.466C435.739 197.152 436.05 196.899 436.379 196.709C436.708 196.512 437.096 196.413 437.542 196.413C437.967 196.413 438.332 196.497 438.64 196.665C438.954 196.833 439.196 197.071 439.364 197.379C439.532 197.679 439.617 198.033 439.617 198.443C439.617 198.89 439.489 199.34 439.232 199.793C438.984 200.247 438.636 200.73 438.19 201.242C437.751 201.747 437.242 202.303 436.664 202.91C436.854 202.896 437.052 202.885 437.257 202.877C437.462 202.863 437.656 202.855 437.839 202.855H439.957V203.547H435.49Z" fill="#222539"/>
<path d="M437.63 223.538C437.257 223.538 436.928 223.49 436.642 223.395C436.357 223.3 436.108 223.179 435.896 223.033C435.684 222.879 435.501 222.718 435.347 222.55L435.753 222.023C435.965 222.243 436.214 222.44 436.5 222.616C436.792 222.784 437.154 222.868 437.586 222.868C438.025 222.868 438.384 222.748 438.662 222.506C438.947 222.257 439.09 221.928 439.09 221.518C439.09 221.233 439.013 220.981 438.859 220.761C438.713 220.542 438.472 220.373 438.135 220.256C437.806 220.132 437.359 220.07 436.796 220.07V219.444C437.301 219.444 437.7 219.386 437.992 219.268C438.292 219.144 438.508 218.979 438.64 218.775C438.772 218.57 438.837 218.339 438.837 218.083C438.837 217.732 438.724 217.454 438.497 217.249C438.27 217.037 437.963 216.931 437.575 216.931C437.275 216.931 436.997 217 436.741 217.139C436.485 217.271 436.254 217.443 436.05 217.655L435.611 217.139C435.881 216.89 436.178 216.686 436.5 216.525C436.822 216.356 437.187 216.272 437.597 216.272C437.992 216.272 438.343 216.342 438.651 216.481C438.958 216.62 439.2 216.821 439.375 217.084C439.558 217.34 439.65 217.655 439.65 218.028C439.65 218.46 439.529 218.815 439.287 219.093C439.053 219.364 438.742 219.568 438.354 219.707V219.751C438.64 219.817 438.9 219.931 439.134 220.092C439.368 220.245 439.554 220.446 439.693 220.695C439.832 220.937 439.902 221.218 439.902 221.54C439.902 221.957 439.8 222.316 439.595 222.616C439.39 222.909 439.115 223.136 438.772 223.296C438.428 223.457 438.047 223.538 437.63 223.538Z" fill="#222539"/>
<line x1="63.5969" y1="65.6414" x2="394.923" y2="65.6414" stroke="#D3D6DF" stroke-width="0.685976" stroke-linecap="square" stroke-dasharray="1.37 1.37"/>
<line x1="63.5969" y1="92.3914" x2="394.923" y2="92.3914" stroke="#D3D6DF" stroke-width="0.685976" stroke-linecap="square" stroke-dasharray="1.37 1.37"/>
<line x1="63.5969" y1="119.149" x2="394.923" y2="119.149" stroke="#D3D6DF" stroke-width="0.685976" stroke-linecap="square" stroke-dasharray="1.37 1.37"/>
<line x1="63.5969" y1="145.899" x2="394.923" y2="145.899" stroke="#D3D6DF" stroke-width="0.685976" stroke-linecap="square" stroke-dasharray="1.37 1.37"/>
<line x1="63.5969" y1="172.657" x2="394.923" y2="172.657" stroke="#D3D6DF" stroke-width="0.685976" stroke-linecap="square" stroke-dasharray="1.37 1.37"/>
<line x1="63.5969" y1="199.407" x2="394.923" y2="199.407" stroke="#D3D6DF" stroke-width="0.685976" stroke-linecap="square" stroke-dasharray="1.37 1.37"/>
<line x1="63.5969" y1="226.157" x2="394.923" y2="226.157" stroke="#D3D6DF" stroke-width="0.685976" stroke-linecap="square" stroke-dasharray="1.37 1.37"/>
<line x1="63.5969" y1="252.915" x2="394.923" y2="252.915" stroke="#D3D6DF" stroke-width="0.685976" stroke-linecap="square" stroke-dasharray="1.37 1.37"/>
<line x1="63.5969" y1="279.665" x2="394.923" y2="279.665" stroke="#D3D6DF" stroke-width="0.685976" stroke-linecap="square" stroke-dasharray="1.37 1.37"/>
<line x1="63.5969" y1="306.423" x2="394.923" y2="306.423" stroke="#D3D6DF" stroke-width="0.685976" stroke-linecap="square" stroke-dasharray="1.37 1.37"/>
<line x1="63.2539" y1="333.173" x2="395.266" y2="333.173" stroke="#3347E6" stroke-width="0.685976"/>
<line x1="78.6863" y1="339" x2="78.6863" y2="333.512" stroke="#3347E6" stroke-width="0.685976"/>
<line x1="112.3" y1="339" x2="112.3" y2="333.512" stroke="#3347E6" stroke-width="0.685976"/>
<line x1="145.913" y1="339" x2="145.913" y2="333.512" stroke="#3347E6" stroke-width="0.685976"/>
<line x1="179.524" y1="339" x2="179.524" y2="333.512" stroke="#3347E6" stroke-width="0.685976"/>
<line x1="213.137" y1="339" x2="213.137" y2="333.512" stroke="#3347E6" stroke-width="0.685976"/>
<line x1="246.751" y1="339" x2="246.751" y2="333.512" stroke="#3347E6" stroke-width="0.685976"/>
<line x1="280.364" y1="339" x2="280.364" y2="333.512" stroke="#3347E6" stroke-width="0.685976"/>
<line x1="313.975" y1="339" x2="313.975" y2="333.512" stroke="#3347E6" stroke-width="0.685976"/>
<line x1="347.589" y1="339" x2="347.589" y2="333.512" stroke="#3347E6" stroke-width="0.685976"/>
<line x1="381.202" y1="339" x2="381.202" y2="333.512" stroke="#3347E6" stroke-width="0.685976"/>
<path d="M74.0788 354.492V353.823H75.6922V348.5H74.4191V347.984C74.7337 347.932 75.0081 347.867 75.2422 347.786C75.4764 347.698 75.6886 347.6 75.8788 347.49H76.4935V353.823H77.9532V354.492H74.0788ZM81.1929 354.624C80.5051 354.624 79.9636 354.309 79.5685 353.68C79.1807 353.043 78.9868 352.14 78.9868 350.969C78.9868 349.791 79.1807 348.895 79.5685 348.28C79.9636 347.665 80.5051 347.358 81.1929 347.358C81.888 347.358 82.4295 347.669 82.8173 348.291C83.2051 348.906 83.399 349.798 83.399 350.969C83.399 352.14 83.2051 353.043 82.8173 353.68C82.4295 354.309 81.888 354.624 81.1929 354.624ZM81.1929 353.976C81.4783 353.976 81.727 353.87 81.9392 353.658C82.1588 353.446 82.327 353.117 82.4441 352.67C82.5612 352.224 82.6197 351.657 82.6197 350.969C82.6197 350.274 82.5612 349.71 82.4441 349.279C82.327 348.84 82.1588 348.518 81.9392 348.313C81.727 348.108 81.4783 348.006 81.1929 348.006C80.9075 348.006 80.6588 348.108 80.4466 348.313C80.2344 348.518 80.0661 348.84 79.9417 349.279C79.8246 349.71 79.7661 350.274 79.7661 350.969C79.7661 351.657 79.8246 352.224 79.9417 352.67C80.0661 353.117 80.2344 353.446 80.4466 353.658C80.6588 353.87 80.9075 353.976 81.1929 353.976Z" fill="#222539"/>
<path d="M107.617 354.492V354.02C108.334 353.296 108.941 352.663 109.439 352.121C109.936 351.573 110.313 351.082 110.569 350.651C110.825 350.219 110.953 349.809 110.953 349.421C110.953 349.012 110.84 348.675 110.613 348.412C110.394 348.148 110.046 348.017 109.57 348.017C109.278 348.017 109 348.097 108.736 348.258C108.48 348.419 108.25 348.624 108.045 348.873L107.573 348.412C107.866 348.097 108.177 347.845 108.506 347.654C108.835 347.457 109.223 347.358 109.669 347.358C110.094 347.358 110.459 347.442 110.767 347.61C111.081 347.779 111.323 348.017 111.491 348.324C111.659 348.624 111.744 348.979 111.744 349.389C111.744 349.835 111.616 350.285 111.359 350.739C111.111 351.192 110.763 351.675 110.317 352.187C109.878 352.692 109.369 353.248 108.791 353.856C108.981 353.841 109.179 353.83 109.384 353.823C109.589 353.808 109.783 353.801 109.966 353.801H112.084V354.492H107.617ZM115.28 354.624C114.592 354.624 114.051 354.309 113.655 353.68C113.268 353.043 113.074 352.14 113.074 350.969C113.074 349.791 113.268 348.895 113.655 348.28C114.051 347.665 114.592 347.358 115.28 347.358C115.975 347.358 116.516 347.669 116.904 348.291C117.292 348.906 117.486 349.798 117.486 350.969C117.486 352.14 117.292 353.043 116.904 353.68C116.516 354.309 115.975 354.624 115.28 354.624ZM115.28 353.976C115.565 353.976 115.814 353.87 116.026 353.658C116.246 353.446 116.414 353.117 116.531 352.67C116.648 352.224 116.707 351.657 116.707 350.969C116.707 350.274 116.648 349.71 116.531 349.279C116.414 348.84 116.246 348.518 116.026 348.313C115.814 348.108 115.565 348.006 115.28 348.006C114.994 348.006 114.746 348.108 114.533 348.313C114.321 348.518 114.153 348.84 114.029 349.279C113.911 349.71 113.853 350.274 113.853 350.969C113.853 351.657 113.911 352.224 114.029 352.67C114.153 353.117 114.321 353.446 114.533 353.658C114.746 353.87 114.994 353.976 115.28 353.976Z" fill="#222539"/>
<path d="M143.394 354.624C143.021 354.624 142.691 354.576 142.406 354.481C142.121 354.386 141.872 354.265 141.66 354.119C141.447 353.965 141.264 353.804 141.111 353.636L141.517 353.109C141.729 353.329 141.978 353.526 142.263 353.702C142.556 353.87 142.918 353.954 143.35 353.954C143.789 353.954 144.147 353.834 144.425 353.592C144.711 353.343 144.853 353.014 144.853 352.604C144.853 352.319 144.777 352.067 144.623 351.847C144.477 351.628 144.235 351.459 143.899 351.342C143.569 351.218 143.123 351.156 142.56 351.156V350.53C143.064 350.53 143.463 350.471 143.756 350.354C144.056 350.23 144.272 350.065 144.403 349.86C144.535 349.656 144.601 349.425 144.601 349.169C144.601 348.818 144.488 348.54 144.261 348.335C144.034 348.123 143.727 348.017 143.339 348.017C143.039 348.017 142.761 348.086 142.505 348.225C142.249 348.357 142.018 348.529 141.813 348.741L141.374 348.225C141.645 347.976 141.941 347.771 142.263 347.61C142.585 347.442 142.951 347.358 143.361 347.358C143.756 347.358 144.107 347.428 144.414 347.567C144.722 347.706 144.963 347.907 145.139 348.17C145.322 348.426 145.413 348.741 145.413 349.114C145.413 349.546 145.293 349.901 145.051 350.179C144.817 350.45 144.506 350.654 144.118 350.793V350.837C144.403 350.903 144.663 351.017 144.897 351.178C145.132 351.331 145.318 351.532 145.457 351.781C145.596 352.023 145.666 352.304 145.666 352.626C145.666 353.043 145.563 353.402 145.358 353.702C145.153 353.995 144.879 354.221 144.535 354.382C144.191 354.543 143.811 354.624 143.394 354.624ZM148.917 354.624C148.229 354.624 147.687 354.309 147.292 353.68C146.904 353.043 146.71 352.14 146.71 350.969C146.71 349.791 146.904 348.895 147.292 348.28C147.687 347.665 148.229 347.358 148.917 347.358C149.612 347.358 150.153 347.669 150.541 348.291C150.929 348.906 151.123 349.798 151.123 350.969C151.123 352.14 150.929 353.043 150.541 353.68C150.153 354.309 149.612 354.624 148.917 354.624ZM148.917 353.976C149.202 353.976 149.451 353.87 149.663 353.658C149.882 353.446 150.051 353.117 150.168 352.67C150.285 352.224 150.343 351.657 150.343 350.969C150.343 350.274 150.285 349.71 150.168 349.279C150.051 348.84 149.882 348.518 149.663 348.313C149.451 348.108 149.202 348.006 148.917 348.006C148.631 348.006 148.382 348.108 148.17 348.313C147.958 348.518 147.79 348.84 147.665 349.279C147.548 349.71 147.49 350.274 147.49 350.969C147.49 351.657 147.548 352.224 147.665 352.67C147.79 353.117 147.958 353.446 148.17 353.658C148.382 353.87 148.631 353.976 148.917 353.976Z" fill="#222539"/>
<path d="M177.801 354.492V349.707C177.801 349.524 177.808 349.304 177.823 349.048C177.837 348.792 177.848 348.573 177.856 348.39H177.812C177.724 348.551 177.632 348.708 177.537 348.862C177.442 349.015 177.343 349.18 177.241 349.356L175.496 351.88H179.535V352.517H174.64V352.001L177.702 347.49H178.558V354.492H177.801ZM182.555 354.624C181.867 354.624 181.326 354.309 180.931 353.68C180.543 353.043 180.349 352.14 180.349 350.969C180.349 349.791 180.543 348.895 180.931 348.28C181.326 347.665 181.867 347.358 182.555 347.358C183.25 347.358 183.792 347.669 184.18 348.291C184.567 348.906 184.761 349.798 184.761 350.969C184.761 352.14 184.567 353.043 184.18 353.68C183.792 354.309 183.25 354.624 182.555 354.624ZM182.555 353.976C182.841 353.976 183.089 353.87 183.302 353.658C183.521 353.446 183.689 353.117 183.806 352.67C183.923 352.224 183.982 351.657 183.982 350.969C183.982 350.274 183.923 349.71 183.806 349.279C183.689 348.84 183.521 348.518 183.302 348.313C183.089 348.108 182.841 348.006 182.555 348.006C182.27 348.006 182.021 348.108 181.809 348.313C181.597 348.518 181.428 348.84 181.304 349.279C181.187 349.71 181.128 350.274 181.128 350.969C181.128 351.657 181.187 352.224 181.304 352.67C181.428 353.117 181.597 353.446 181.809 353.658C182.021 353.87 182.27 353.976 182.555 353.976Z" fill="#222539"/>
<path d="M210.636 354.624C210.263 354.624 209.934 354.58 209.648 354.492C209.37 354.397 209.125 354.276 208.913 354.13C208.708 353.984 208.525 353.83 208.364 353.669L208.77 353.142C208.983 353.347 209.228 353.534 209.506 353.702C209.791 353.87 210.146 353.954 210.57 353.954C210.863 353.954 211.13 353.885 211.372 353.746C211.613 353.607 211.803 353.413 211.942 353.164C212.081 352.915 212.151 352.623 212.151 352.286C212.151 351.781 212.012 351.39 211.734 351.112C211.456 350.826 211.083 350.684 210.614 350.684C210.365 350.684 210.15 350.72 209.967 350.793C209.791 350.867 209.597 350.973 209.385 351.112L208.946 350.837L209.176 347.49H212.612V348.181H209.879L209.681 350.365C209.857 350.27 210.033 350.197 210.208 350.146C210.384 350.087 210.581 350.058 210.801 350.058C211.203 350.058 211.565 350.139 211.887 350.3C212.217 350.453 212.476 350.691 212.667 351.013C212.864 351.335 212.963 351.748 212.963 352.253C212.963 352.758 212.853 353.19 212.634 353.548C212.414 353.9 212.125 354.167 211.767 354.35C211.415 354.532 211.039 354.624 210.636 354.624ZM216.192 354.624C215.504 354.624 214.963 354.309 214.568 353.68C214.18 353.043 213.986 352.14 213.986 350.969C213.986 349.791 214.18 348.895 214.568 348.28C214.963 347.665 215.504 347.358 216.192 347.358C216.887 347.358 217.428 347.669 217.816 348.291C218.204 348.906 218.398 349.798 218.398 350.969C218.398 352.14 218.204 353.043 217.816 353.68C217.428 354.309 216.887 354.624 216.192 354.624ZM216.192 353.976C216.477 353.976 216.726 353.87 216.938 353.658C217.158 353.446 217.326 353.117 217.443 352.67C217.56 352.224 217.619 351.657 217.619 350.969C217.619 350.274 217.56 349.71 217.443 349.279C217.326 348.84 217.158 348.518 216.938 348.313C216.726 348.108 216.477 348.006 216.192 348.006C215.907 348.006 215.658 348.108 215.446 348.313C215.233 348.518 215.065 348.84 214.941 349.279C214.824 349.71 214.765 350.274 214.765 350.969C214.765 351.657 214.824 352.224 214.941 352.67C215.065 353.117 215.233 353.446 215.446 353.658C215.658 353.87 215.907 353.976 216.192 353.976Z" fill="#222539"/>
<path d="M244.646 354.624C244.302 354.624 243.984 354.554 243.691 354.415C243.399 354.276 243.146 354.068 242.934 353.79C242.729 353.504 242.564 353.153 242.44 352.736C242.323 352.312 242.264 351.825 242.264 351.276C242.264 350.559 242.338 349.952 242.484 349.454C242.63 348.957 242.824 348.554 243.066 348.247C243.314 347.94 243.596 347.717 243.911 347.578C244.233 347.431 244.566 347.358 244.909 347.358C245.275 347.358 245.59 347.428 245.853 347.567C246.124 347.698 246.355 347.87 246.545 348.082L246.095 348.587C245.949 348.412 245.773 348.276 245.568 348.181C245.37 348.079 245.158 348.028 244.931 348.028C244.588 348.028 244.269 348.13 243.977 348.335C243.691 348.54 243.461 348.88 243.285 349.356C243.109 349.824 243.022 350.464 243.022 351.276C243.022 351.847 243.084 352.337 243.208 352.747C243.333 353.15 243.516 353.457 243.757 353.669C243.999 353.881 244.299 353.987 244.657 353.987C244.891 353.987 245.103 353.921 245.294 353.79C245.491 353.651 245.645 353.46 245.755 353.219C245.864 352.978 245.919 352.703 245.919 352.396C245.919 352.081 245.868 351.807 245.766 351.573C245.67 351.339 245.524 351.159 245.327 351.035C245.129 350.903 244.877 350.837 244.569 350.837C244.335 350.837 244.079 350.914 243.801 351.068C243.523 351.221 243.256 351.485 243 351.858L242.978 351.2C243.205 350.9 243.472 350.662 243.779 350.486C244.086 350.31 244.394 350.223 244.701 350.223C245.103 350.223 245.451 350.307 245.744 350.475C246.044 350.636 246.274 350.878 246.435 351.2C246.596 351.514 246.677 351.913 246.677 352.396C246.677 352.835 246.585 353.223 246.402 353.559C246.219 353.889 245.974 354.148 245.667 354.339C245.359 354.529 245.019 354.624 244.646 354.624ZM249.829 354.624C249.141 354.624 248.599 354.309 248.204 353.68C247.816 353.043 247.623 352.14 247.623 350.969C247.623 349.791 247.816 348.895 248.204 348.28C248.599 347.665 249.141 347.358 249.829 347.358C250.524 347.358 251.065 347.669 251.453 348.291C251.841 348.906 252.035 349.798 252.035 350.969C252.035 352.14 251.841 353.043 251.453 353.68C251.065 354.309 250.524 354.624 249.829 354.624ZM249.829 353.976C250.114 353.976 250.363 353.87 250.575 353.658C250.794 353.446 250.963 353.117 251.08 352.67C251.197 352.224 251.255 351.657 251.255 350.969C251.255 350.274 251.197 349.71 251.08 349.279C250.963 348.84 250.794 348.518 250.575 348.313C250.363 348.108 250.114 348.006 249.829 348.006C249.543 348.006 249.294 348.108 249.082 348.313C248.87 348.518 248.702 348.84 248.577 349.279C248.46 349.71 248.402 350.274 248.402 350.969C248.402 351.657 248.46 352.224 248.577 352.67C248.702 353.117 248.87 353.446 249.082 353.658C249.294 353.87 249.543 353.976 249.829 353.976Z" fill="#222539"/>
<path d="M277.339 354.492C277.375 353.6 277.467 352.798 277.613 352.089C277.76 351.379 277.975 350.713 278.261 350.091C278.546 349.462 278.919 348.825 279.38 348.181H275.846V347.49H280.302V347.973C279.885 348.507 279.545 349.023 279.282 349.52C279.018 350.01 278.81 350.508 278.656 351.013C278.51 351.518 278.4 352.052 278.327 352.615C278.254 353.179 278.199 353.804 278.162 354.492H277.339ZM283.465 354.624C282.778 354.624 282.236 354.309 281.841 353.68C281.453 353.043 281.259 352.14 281.259 350.969C281.259 349.791 281.453 348.895 281.841 348.28C282.236 347.665 282.778 347.358 283.465 347.358C284.16 347.358 284.702 347.669 285.09 348.291C285.478 348.906 285.671 349.798 285.671 350.969C285.671 352.14 285.478 353.043 285.09 353.68C284.702 354.309 284.16 354.624 283.465 354.624ZM283.465 353.976C283.751 353.976 283.999 353.87 284.212 353.658C284.431 353.446 284.599 353.117 284.717 352.67C284.834 352.224 284.892 351.657 284.892 350.969C284.892 350.274 284.834 349.71 284.717 349.279C284.599 348.84 284.431 348.518 284.212 348.313C283.999 348.108 283.751 348.006 283.465 348.006C283.18 348.006 282.931 348.108 282.719 348.313C282.507 348.518 282.339 348.84 282.214 349.279C282.097 349.71 282.039 350.274 282.039 350.969C282.039 351.657 282.097 352.224 282.214 352.67C282.339 353.117 282.507 353.446 282.719 353.658C282.931 353.87 283.18 353.976 283.465 353.976Z" fill="#222539"/>
<path d="M311.724 354.624C311.292 354.624 310.904 354.543 310.56 354.382C310.217 354.214 309.946 353.984 309.748 353.691C309.551 353.398 309.452 353.069 309.452 352.703C309.452 352.396 309.518 352.121 309.65 351.88C309.781 351.639 309.95 351.426 310.154 351.243C310.359 351.06 310.571 350.91 310.791 350.793V350.75C310.535 350.567 310.304 350.343 310.1 350.08C309.902 349.817 309.803 349.502 309.803 349.136C309.803 348.778 309.887 348.467 310.056 348.203C310.231 347.932 310.465 347.724 310.758 347.578C311.051 347.431 311.38 347.358 311.746 347.358C312.36 347.358 312.84 347.534 313.184 347.885C313.535 348.229 313.71 348.671 313.71 349.213C313.71 349.462 313.656 349.696 313.546 349.915C313.443 350.128 313.315 350.321 313.162 350.497C313.015 350.673 312.873 350.815 312.734 350.925V350.969C312.939 351.093 313.132 351.236 313.315 351.397C313.506 351.551 313.659 351.741 313.776 351.968C313.893 352.187 313.952 352.451 313.952 352.758C313.952 353.109 313.86 353.424 313.678 353.702C313.495 353.98 313.235 354.203 312.898 354.371C312.562 354.54 312.17 354.624 311.724 354.624ZM311.746 354.02C312.031 354.02 312.28 353.965 312.492 353.856C312.712 353.746 312.88 353.596 312.997 353.406C313.121 353.208 313.184 352.989 313.184 352.747C313.184 352.425 313.092 352.165 312.909 351.968C312.726 351.77 312.485 351.602 312.185 351.463C311.892 351.324 311.57 351.185 311.219 351.046C310.926 351.236 310.678 351.463 310.473 351.726C310.275 351.99 310.176 352.293 310.176 352.637C310.176 352.901 310.242 353.139 310.374 353.351C310.513 353.556 310.7 353.72 310.934 353.845C311.175 353.962 311.446 354.02 311.746 354.02ZM312.218 350.717C312.474 350.49 312.668 350.256 312.8 350.014C312.939 349.773 313.008 349.517 313.008 349.246C313.008 349.012 312.957 348.8 312.854 348.609C312.759 348.412 312.617 348.254 312.426 348.137C312.236 348.02 312.006 347.962 311.735 347.962C311.391 347.962 311.106 348.071 310.879 348.291C310.659 348.503 310.55 348.785 310.55 349.136C310.55 349.429 310.626 349.67 310.78 349.86C310.941 350.051 311.15 350.212 311.406 350.343C311.662 350.475 311.932 350.6 312.218 350.717ZM317.104 354.624C316.416 354.624 315.875 354.309 315.48 353.68C315.092 353.043 314.898 352.14 314.898 350.969C314.898 349.791 315.092 348.895 315.48 348.28C315.875 347.665 316.416 347.358 317.104 347.358C317.799 347.358 318.341 347.669 318.728 348.291C319.116 348.906 319.31 349.798 319.31 350.969C319.31 352.14 319.116 353.043 318.728 353.68C318.341 354.309 317.799 354.624 317.104 354.624ZM317.104 353.976C317.389 353.976 317.638 353.87 317.85 353.658C318.07 353.446 318.238 353.117 318.355 352.67C318.472 352.224 318.531 351.657 318.531 350.969C318.531 350.274 318.472 349.71 318.355 349.279C318.238 348.84 318.07 348.518 317.85 348.313C317.638 348.108 317.389 348.006 317.104 348.006C316.819 348.006 316.57 348.108 316.358 348.313C316.145 348.518 315.977 348.84 315.853 349.279C315.736 349.71 315.677 350.274 315.677 350.969C315.677 351.657 315.736 352.224 315.853 352.67C315.977 353.117 316.145 353.446 316.358 353.658C316.57 353.87 316.819 353.976 317.104 353.976Z" fill="#222539"/>
<path d="M344.856 354.624C344.49 354.624 344.172 354.554 343.901 354.415C343.63 354.276 343.403 354.104 343.22 353.9L343.67 353.395C343.817 353.57 343.992 353.709 344.197 353.812C344.402 353.907 344.611 353.954 344.823 353.954C345.174 353.954 345.492 353.852 345.778 353.647C346.07 353.442 346.301 353.102 346.469 352.626C346.645 352.151 346.733 351.51 346.733 350.706C346.733 350.135 346.67 349.648 346.546 349.246C346.429 348.836 346.25 348.525 346.008 348.313C345.767 348.101 345.467 347.995 345.108 347.995C344.874 347.995 344.662 348.064 344.472 348.203C344.281 348.335 344.128 348.521 344.011 348.763C343.901 348.997 343.846 349.271 343.846 349.586C343.846 349.901 343.894 350.175 343.989 350.409C344.091 350.643 344.241 350.826 344.439 350.958C344.636 351.082 344.889 351.145 345.196 351.145C345.43 351.145 345.686 351.068 345.964 350.914C346.242 350.753 346.509 350.486 346.766 350.113L346.787 350.782C346.568 351.075 346.301 351.313 345.986 351.496C345.679 351.671 345.372 351.759 345.064 351.759C344.662 351.759 344.311 351.679 344.011 351.518C343.711 351.35 343.48 351.104 343.319 350.782C343.158 350.46 343.078 350.062 343.078 349.586C343.078 349.147 343.169 348.759 343.352 348.423C343.542 348.086 343.791 347.826 344.098 347.643C344.406 347.453 344.742 347.358 345.108 347.358C345.459 347.358 345.778 347.428 346.063 347.567C346.356 347.706 346.608 347.918 346.82 348.203C347.033 348.481 347.197 348.832 347.314 349.257C347.439 349.674 347.501 350.157 347.501 350.706C347.501 351.415 347.428 352.023 347.281 352.528C347.135 353.025 346.937 353.428 346.689 353.735C346.44 354.042 346.158 354.269 345.844 354.415C345.529 354.554 345.2 354.624 344.856 354.624ZM350.741 354.624C350.053 354.624 349.511 354.309 349.116 353.68C348.729 353.043 348.535 352.14 348.535 350.969C348.535 349.791 348.729 348.895 349.116 348.28C349.511 347.665 350.053 347.358 350.741 347.358C351.436 347.358 351.977 347.669 352.365 348.291C352.753 348.906 352.947 349.798 352.947 350.969C352.947 352.14 352.753 353.043 352.365 353.68C351.977 354.309 351.436 354.624 350.741 354.624ZM350.741 353.976C351.026 353.976 351.275 353.87 351.487 353.658C351.707 353.446 351.875 353.117 351.992 352.67C352.109 352.224 352.168 351.657 352.168 350.969C352.168 350.274 352.109 349.71 351.992 349.279C351.875 348.84 351.707 348.518 351.487 348.313C351.275 348.108 351.026 348.006 350.741 348.006C350.455 348.006 350.207 348.108 349.994 348.313C349.782 348.518 349.614 348.84 349.49 349.279C349.372 349.71 349.314 350.274 349.314 350.969C349.314 351.657 349.372 352.224 349.49 352.67C349.614 353.117 349.782 353.446 349.994 353.658C350.207 353.87 350.455 353.976 350.741 353.976Z" fill="#222539"/>
<path d="M376.813 354.492V353.823H378.427V348.5H377.153V347.984C377.468 347.932 377.742 347.867 377.977 347.786C378.211 347.698 378.423 347.6 378.613 347.49H379.228V353.823H380.688V354.492H376.813ZM383.927 354.624C383.239 354.624 382.698 354.309 382.303 353.68C381.915 353.043 381.721 352.14 381.721 350.969C381.721 349.791 381.915 348.895 382.303 348.28C382.698 347.665 383.239 347.358 383.927 347.358C384.622 347.358 385.164 347.669 385.552 348.291C385.939 348.906 386.133 349.798 386.133 350.969C386.133 352.14 385.939 353.043 385.552 353.68C385.164 354.309 384.622 354.624 383.927 354.624ZM383.927 353.976C384.213 353.976 384.461 353.87 384.674 353.658C384.893 353.446 385.061 353.117 385.178 352.67C385.296 352.224 385.354 351.657 385.354 350.969C385.354 350.274 385.296 349.71 385.178 349.279C385.061 348.84 384.893 348.518 384.674 348.313C384.461 348.108 384.213 348.006 383.927 348.006C383.642 348.006 383.393 348.108 383.181 348.313C382.969 348.518 382.8 348.84 382.676 349.279C382.559 349.71 382.5 350.274 382.5 350.969C382.5 351.657 382.559 352.224 382.676 352.67C382.8 353.117 382.969 353.446 383.181 353.658C383.393 353.87 383.642 353.976 383.927 353.976ZM389.329 354.624C388.642 354.624 388.1 354.309 387.705 353.68C387.317 353.043 387.123 352.14 387.123 350.969C387.123 349.791 387.317 348.895 387.705 348.28C388.1 347.665 388.642 347.358 389.329 347.358C390.024 347.358 390.566 347.669 390.954 348.291C391.342 348.906 391.535 349.798 391.535 350.969C391.535 352.14 391.342 353.043 390.954 353.68C390.566 354.309 390.024 354.624 389.329 354.624ZM389.329 353.976C389.615 353.976 389.863 353.87 390.076 353.658C390.295 353.446 390.463 353.117 390.581 352.67C390.698 352.224 390.756 351.657 390.756 350.969C390.756 350.274 390.698 349.71 390.581 349.279C390.463 348.84 390.295 348.518 390.076 348.313C389.863 348.108 389.615 348.006 389.329 348.006C389.044 348.006 388.795 348.108 388.583 348.313C388.371 348.518 388.203 348.84 388.078 349.279C387.961 349.71 387.903 350.274 387.903 350.969C387.903 351.657 387.961 352.224 388.078 352.67C388.203 353.117 388.371 353.446 388.583 353.658C388.795 353.87 389.044 353.976 389.329 353.976Z" fill="#222539"/>
<path d="M42.4799 70.6406V69.9711H44.0933V64.6479H42.8201V64.1321C43.1348 64.0809 43.4091 64.015 43.6433 63.9345C43.8774 63.8467 44.0896 63.7479 44.2799 63.6382H44.8945V69.9711H46.3543V70.6406H42.4799ZM49.594 70.7723C48.9062 70.7723 48.3647 70.4577 47.9696 69.8284C47.5818 69.1918 47.3879 68.2882 47.3879 67.1175C47.3879 65.9394 47.5818 65.0431 47.9696 64.4284C48.3647 63.8138 48.9062 63.5065 49.594 63.5065C50.2891 63.5065 50.8305 63.8175 51.2184 64.4394C51.6062 65.054 51.8001 65.9467 51.8001 67.1175C51.8001 68.2882 51.6062 69.1918 51.2184 69.8284C50.8305 70.4577 50.2891 70.7723 49.594 70.7723ZM49.594 70.1248C49.8793 70.1248 50.1281 70.0187 50.3403 69.8065C50.5598 69.5943 50.7281 69.265 50.8452 68.8187C50.9623 68.3723 51.0208 67.8053 51.0208 67.1175C51.0208 66.4223 50.9623 65.8589 50.8452 65.4272C50.7281 64.9882 50.5598 64.6662 50.3403 64.4614C50.1281 64.2565 49.8793 64.154 49.594 64.154C49.3086 64.154 49.0598 64.2565 48.8476 64.4614C48.6354 64.6662 48.4671 64.9882 48.3427 65.4272C48.2257 65.8589 48.1671 66.4223 48.1671 67.1175C48.1671 67.8053 48.2257 68.3723 48.3427 68.8187C48.4671 69.265 48.6354 69.5943 48.8476 69.8065C49.0598 70.0187 49.3086 70.1248 49.594 70.1248ZM54.996 70.7723C54.3082 70.7723 53.7668 70.4577 53.3716 69.8284C52.9838 69.1918 52.7899 68.2882 52.7899 67.1175C52.7899 65.9394 52.9838 65.0431 53.3716 64.4284C53.7668 63.8138 54.3082 63.5065 54.996 63.5065C55.6911 63.5065 56.2326 63.8175 56.6204 64.4394C57.0082 65.054 57.2021 65.9467 57.2021 67.1175C57.2021 68.2882 57.0082 69.1918 56.6204 69.8284C56.2326 70.4577 55.6911 70.7723 54.996 70.7723ZM54.996 70.1248C55.2814 70.1248 55.5302 70.0187 55.7424 69.8065C55.9619 69.5943 56.1302 69.265 56.2472 68.8187C56.3643 68.3723 56.4228 67.8053 56.4228 67.1175C56.4228 66.4223 56.3643 65.8589 56.2472 65.4272C56.1302 64.9882 55.9619 64.6662 55.7424 64.4614C55.5302 64.2565 55.2814 64.154 54.996 64.154C54.7107 64.154 54.4619 64.2565 54.2497 64.4614C54.0375 64.6662 53.8692 64.9882 53.7448 65.4272C53.6277 65.8589 53.5692 66.4223 53.5692 67.1175C53.5692 67.8053 53.6277 68.3723 53.7448 68.8187C53.8692 69.265 54.0375 69.5943 54.2497 69.8065C54.4619 70.0187 54.7107 70.1248 54.996 70.1248ZM49.111 97.7723C48.7452 97.7723 48.4269 97.7028 48.1562 97.5638C47.8854 97.4248 47.6586 97.2528 47.4757 97.0479L47.9257 96.5431C48.072 96.7187 48.2476 96.8577 48.4525 96.9601C48.6574 97.0553 48.8659 97.1028 49.0781 97.1028C49.4293 97.1028 49.7476 97.0004 50.033 96.7955C50.3257 96.5906 50.5562 96.2504 50.7244 95.7748C50.9001 95.2992 50.9879 94.6589 50.9879 93.854C50.9879 93.2833 50.9257 92.7967 50.8013 92.3943C50.6842 91.9845 50.5049 91.6736 50.2635 91.4614C50.022 91.2492 49.722 91.1431 49.3635 91.1431C49.1293 91.1431 48.9171 91.2126 48.7269 91.3516C48.5366 91.4833 48.383 91.6699 48.2659 91.9114C48.1562 92.1455 48.1013 92.4199 48.1013 92.7345C48.1013 93.0492 48.1488 93.3236 48.244 93.5577C48.3464 93.7918 48.4964 93.9748 48.694 94.1065C48.8915 94.2309 49.144 94.2931 49.4513 94.2931C49.6854 94.2931 49.9415 94.2162 50.2196 94.0626C50.4976 93.9016 50.7647 93.6345 51.0208 93.2614L51.0427 93.9309C50.8232 94.2236 50.5562 94.4614 50.2415 94.6443C49.9342 94.8199 49.6269 94.9077 49.3196 94.9077C48.9171 94.9077 48.5659 94.8272 48.2659 94.6662C47.9659 94.4979 47.7354 94.2528 47.5744 93.9309C47.4135 93.6089 47.333 93.2101 47.333 92.7345C47.333 92.2955 47.4244 91.9077 47.6074 91.5711C47.7976 91.2345 48.0464 90.9748 48.3537 90.7918C48.661 90.6016 48.9976 90.5065 49.3635 90.5065C49.7147 90.5065 50.033 90.576 50.3184 90.715C50.611 90.854 50.8635 91.0662 51.0757 91.3516C51.2879 91.6296 51.4525 91.9809 51.5696 92.4053C51.694 92.8223 51.7562 93.3053 51.7562 93.854C51.7562 94.5638 51.683 95.1711 51.5366 95.676C51.3903 96.1736 51.1927 96.576 50.944 96.8833C50.6952 97.1906 50.4135 97.4175 50.0988 97.5638C49.7842 97.7028 49.4549 97.7723 49.111 97.7723ZM54.996 97.7723C54.3082 97.7723 53.7668 97.4577 53.3716 96.8284C52.9838 96.1918 52.7899 95.2882 52.7899 94.1175C52.7899 92.9394 52.9838 92.0431 53.3716 91.4284C53.7668 90.8138 54.3082 90.5065 54.996 90.5065C55.6911 90.5065 56.2326 90.8175 56.6204 91.4394C57.0082 92.054 57.2021 92.9467 57.2021 94.1175C57.2021 95.2882 57.0082 96.1918 56.6204 96.8284C56.2326 97.4577 55.6911 97.7723 54.996 97.7723ZM54.996 97.1248C55.2814 97.1248 55.5302 97.0187 55.7424 96.8065C55.9619 96.5943 56.1302 96.265 56.2472 95.8187C56.3643 95.3723 56.4228 94.8053 56.4228 94.1175C56.4228 93.4223 56.3643 92.8589 56.2472 92.4272C56.1302 91.9882 55.9619 91.6662 55.7424 91.4614C55.5302 91.2565 55.2814 91.154 54.996 91.154C54.7107 91.154 54.4619 91.2565 54.2497 91.4614C54.0375 91.6662 53.8692 91.9882 53.7448 92.4272C53.6277 92.8589 53.5692 93.4223 53.5692 94.1175C53.5692 94.8053 53.6277 95.3723 53.7448 95.8187C53.8692 96.265 54.0375 96.5943 54.2497 96.8065C54.4619 97.0187 54.7107 97.1248 54.996 97.1248ZM49.6159 123.772C49.1842 123.772 48.7964 123.692 48.4525 123.531C48.1086 123.363 47.8379 123.132 47.6403 122.839C47.4427 122.547 47.344 122.217 47.344 121.852C47.344 121.544 47.4098 121.27 47.5415 121.028C47.6732 120.787 47.8415 120.575 48.0464 120.392C48.2513 120.209 48.4635 120.059 48.683 119.942V119.898C48.4269 119.715 48.1964 119.492 47.9915 119.228C47.794 118.965 47.6952 118.65 47.6952 118.285C47.6952 117.926 47.7793 117.615 47.9476 117.352C48.1232 117.081 48.3574 116.872 48.6501 116.726C48.9427 116.58 49.272 116.506 49.6379 116.506C50.2525 116.506 50.7318 116.682 51.0757 117.033C51.4269 117.377 51.6025 117.82 51.6025 118.361C51.6025 118.61 51.5476 118.844 51.4379 119.064C51.3354 119.276 51.2074 119.47 51.0537 119.646C50.9074 119.821 50.7647 119.964 50.6257 120.074V120.117C50.8305 120.242 51.0244 120.385 51.2074 120.546C51.3976 120.699 51.5513 120.889 51.6684 121.116C51.7854 121.336 51.844 121.599 51.844 121.906C51.844 122.258 51.7525 122.572 51.5696 122.85C51.3866 123.128 51.1269 123.352 50.7903 123.52C50.4537 123.688 50.0623 123.772 49.6159 123.772ZM49.6379 123.169C49.9232 123.169 50.172 123.114 50.3842 123.004C50.6037 122.894 50.772 122.744 50.8891 122.554C51.0135 122.356 51.0757 122.137 51.0757 121.896C51.0757 121.574 50.9842 121.314 50.8013 121.116C50.6184 120.919 50.3769 120.75 50.0769 120.611C49.7842 120.472 49.4623 120.333 49.111 120.194C48.8184 120.385 48.5696 120.611 48.3647 120.875C48.1671 121.138 48.0684 121.442 48.0684 121.786C48.0684 122.049 48.1342 122.287 48.2659 122.499C48.4049 122.704 48.5915 122.869 48.8257 122.993C49.0671 123.11 49.3379 123.169 49.6379 123.169ZM50.1098 119.865C50.3659 119.638 50.5598 119.404 50.6915 119.163C50.8305 118.921 50.9001 118.665 50.9001 118.394C50.9001 118.16 50.8488 117.948 50.7464 117.758C50.6513 117.56 50.5086 117.403 50.3184 117.286C50.1281 117.169 49.8976 117.11 49.6269 117.11C49.283 117.11 48.9976 117.22 48.7708 117.439C48.5513 117.652 48.4415 117.933 48.4415 118.285C48.4415 118.577 48.5184 118.819 48.672 119.009C48.833 119.199 49.0415 119.36 49.2976 119.492C49.5537 119.624 49.8244 119.748 50.1098 119.865ZM54.996 123.772C54.3082 123.772 53.7668 123.458 53.3716 122.828C52.9838 122.192 52.7899 121.288 52.7899 120.117C52.7899 118.939 52.9838 118.043 53.3716 117.428C53.7668 116.814 54.3082 116.506 54.996 116.506C55.6911 116.506 56.2326 116.817 56.6204 117.439C57.0082 118.054 57.2021 118.947 57.2021 120.117C57.2021 121.288 57.0082 122.192 56.6204 122.828C56.2326 123.458 55.6911 123.772 54.996 123.772ZM54.996 123.125C55.2814 123.125 55.5302 123.019 55.7424 122.806C55.9619 122.594 56.1302 122.265 56.2472 121.819C56.3643 121.372 56.4228 120.805 56.4228 120.117C56.4228 119.422 56.3643 118.859 56.2472 118.427C56.1302 117.988 55.9619 117.666 55.7424 117.461C55.5302 117.256 55.2814 117.154 54.996 117.154C54.7107 117.154 54.4619 117.256 54.2497 117.461C54.0375 117.666 53.8692 117.988 53.7448 118.427C53.6277 118.859 53.5692 119.422 53.5692 120.117C53.5692 120.805 53.6277 121.372 53.7448 121.819C53.8692 122.265 54.0375 122.594 54.2497 122.806C54.4619 123.019 54.7107 123.125 54.996 123.125ZM48.8696 149.641C48.9062 148.748 48.9976 147.947 49.144 147.237C49.2903 146.527 49.5062 145.861 49.7915 145.239C50.0769 144.61 50.4501 143.974 50.911 143.33H47.3769V142.638H51.833V143.121C51.4159 143.655 51.0757 144.171 50.8123 144.669C50.5488 145.159 50.3403 145.656 50.1866 146.161C50.0403 146.666 49.9305 147.2 49.8574 147.764C49.7842 148.327 49.7293 148.953 49.6927 149.641H48.8696ZM54.996 149.772C54.3082 149.772 53.7668 149.458 53.3716 148.828C52.9838 148.192 52.7899 147.288 52.7899 146.117C52.7899 144.939 52.9838 144.043 53.3716 143.428C53.7668 142.814 54.3082 142.506 54.996 142.506C55.6911 142.506 56.2326 142.817 56.6204 143.439C57.0082 144.054 57.2021 144.947 57.2021 146.117C57.2021 147.288 57.0082 148.192 56.6204 148.828C56.2326 149.458 55.6911 149.772 54.996 149.772ZM54.996 149.125C55.2814 149.125 55.5302 149.019 55.7424 148.806C55.9619 148.594 56.1302 148.265 56.2472 147.819C56.3643 147.372 56.4228 146.805 56.4228 146.117C56.4228 145.422 56.3643 144.859 56.2472 144.427C56.1302 143.988 55.9619 143.666 55.7424 143.461C55.5302 143.256 55.2814 143.154 54.996 143.154C54.7107 143.154 54.4619 143.256 54.2497 143.461C54.0375 143.666 53.8692 143.988 53.7448 144.427C53.6277 144.859 53.5692 145.422 53.5692 146.117C53.5692 146.805 53.6277 147.372 53.7448 147.819C53.8692 148.265 54.0375 148.594 54.2497 148.806C54.4619 149.019 54.7107 149.125 54.996 149.125ZM49.8135 176.772C49.4696 176.772 49.1513 176.703 48.8586 176.564C48.5659 176.425 48.3135 176.216 48.1013 175.938C47.8964 175.653 47.7318 175.302 47.6074 174.885C47.4903 174.46 47.4318 173.974 47.4318 173.425C47.4318 172.708 47.5049 172.1 47.6513 171.603C47.7976 171.105 47.9915 170.703 48.233 170.396C48.4818 170.088 48.7635 169.865 49.0781 169.726C49.4001 169.58 49.733 169.506 50.0769 169.506C50.4427 169.506 50.7574 169.576 51.0208 169.715C51.2915 169.847 51.522 170.019 51.7123 170.231L51.2623 170.736C51.1159 170.56 50.9403 170.425 50.7354 170.33C50.5379 170.227 50.3257 170.176 50.0988 170.176C49.7549 170.176 49.4366 170.278 49.144 170.483C48.8586 170.688 48.6281 171.028 48.4525 171.504C48.2769 171.972 48.1891 172.613 48.1891 173.425C48.1891 173.996 48.2513 174.486 48.3757 174.896C48.5001 175.298 48.683 175.605 48.9244 175.817C49.1659 176.03 49.4659 176.136 49.8244 176.136C50.0586 176.136 50.2708 176.07 50.461 175.938C50.6586 175.799 50.8123 175.609 50.922 175.367C51.0318 175.126 51.0866 174.852 51.0866 174.544C51.0866 174.23 51.0354 173.955 50.933 173.721C50.8379 173.487 50.6915 173.308 50.494 173.183C50.2964 173.052 50.044 172.986 49.7366 172.986C49.5025 172.986 49.2464 173.063 48.9684 173.216C48.6903 173.37 48.4232 173.633 48.1671 174.006L48.1452 173.348C48.372 173.048 48.6391 172.81 48.9464 172.635C49.2537 172.459 49.561 172.371 49.8684 172.371C50.2708 172.371 50.6184 172.455 50.911 172.624C51.211 172.785 51.4415 173.026 51.6025 173.348C51.7635 173.663 51.844 174.061 51.844 174.544C51.844 174.983 51.7525 175.371 51.5696 175.708C51.3866 176.037 51.1415 176.297 50.8342 176.487C50.5269 176.677 50.1866 176.772 49.8135 176.772ZM54.996 176.772C54.3082 176.772 53.7668 176.458 53.3716 175.828C52.9838 175.192 52.7899 174.288 52.7899 173.117C52.7899 171.939 52.9838 171.043 53.3716 170.428C53.7668 169.814 54.3082 169.506 54.996 169.506C55.6911 169.506 56.2326 169.817 56.6204 170.439C57.0082 171.054 57.2021 171.947 57.2021 173.117C57.2021 174.288 57.0082 175.192 56.6204 175.828C56.2326 176.458 55.6911 176.772 54.996 176.772ZM54.996 176.125C55.2814 176.125 55.5302 176.019 55.7424 175.806C55.9619 175.594 56.1302 175.265 56.2472 174.819C56.3643 174.372 56.4228 173.805 56.4228 173.117C56.4228 172.422 56.3643 171.859 56.2472 171.427C56.1302 170.988 55.9619 170.666 55.7424 170.461C55.5302 170.256 55.2814 170.154 54.996 170.154C54.7107 170.154 54.4619 170.256 54.2497 170.461C54.0375 170.666 53.8692 170.988 53.7448 171.427C53.6277 171.859 53.5692 172.422 53.5692 173.117C53.5692 173.805 53.6277 174.372 53.7448 174.819C53.8692 175.265 54.0375 175.594 54.2497 175.806C54.4619 176.019 54.7107 176.125 54.996 176.125ZM49.4403 202.772C49.0671 202.772 48.7379 202.728 48.4525 202.641C48.1744 202.546 47.9293 202.425 47.7171 202.278C47.5123 202.132 47.3293 201.978 47.1684 201.817L47.5744 201.291C47.7866 201.496 48.0318 201.682 48.3098 201.85C48.5952 202.019 48.9501 202.103 49.3744 202.103C49.6671 202.103 49.9342 202.033 50.1757 201.894C50.4171 201.755 50.6074 201.561 50.7464 201.313C50.8854 201.064 50.9549 200.771 50.9549 200.435C50.9549 199.93 50.8159 199.538 50.5379 199.26C50.2598 198.975 49.8866 198.832 49.4184 198.832C49.1696 198.832 48.9537 198.869 48.7708 198.942C48.5952 199.015 48.4013 199.121 48.1891 199.26L47.7501 198.986L47.9805 195.638H51.4159V196.33H48.683L48.4854 198.514C48.661 198.419 48.8366 198.346 49.0123 198.294C49.1879 198.236 49.3854 198.206 49.6049 198.206C50.0074 198.206 50.3696 198.287 50.6915 198.448C51.0208 198.602 51.2805 198.839 51.4708 199.161C51.6684 199.483 51.7671 199.897 51.7671 200.402C51.7671 200.906 51.6574 201.338 51.4379 201.697C51.2184 202.048 50.9293 202.315 50.5708 202.498C50.2196 202.681 49.8427 202.772 49.4403 202.772ZM54.996 202.772C54.3082 202.772 53.7668 202.458 53.3716 201.828C52.9838 201.192 52.7899 200.288 52.7899 199.117C52.7899 197.939 52.9838 197.043 53.3716 196.428C53.7668 195.814 54.3082 195.506 54.996 195.506C55.6911 195.506 56.2326 195.817 56.6204 196.439C57.0082 197.054 57.2021 197.947 57.2021 199.117C57.2021 200.288 57.0082 201.192 56.6204 201.828C56.2326 202.458 55.6911 202.772 54.996 202.772ZM54.996 202.125C55.2814 202.125 55.5302 202.019 55.7424 201.806C55.9619 201.594 56.1302 201.265 56.2472 200.819C56.3643 200.372 56.4228 199.805 56.4228 199.117C56.4228 198.422 56.3643 197.859 56.2472 197.427C56.1302 196.988 55.9619 196.666 55.7424 196.461C55.5302 196.256 55.2814 196.154 54.996 196.154C54.7107 196.154 54.4619 196.256 54.2497 196.461C54.0375 196.666 53.8692 196.988 53.7448 197.427C53.6277 197.859 53.5692 198.422 53.5692 199.117C53.5692 199.805 53.6277 200.372 53.7448 200.819C53.8692 201.265 54.0375 201.594 54.2497 201.806C54.4619 202.019 54.7107 202.125 54.996 202.125ZM50.2415 229.641V224.855C50.2415 224.672 50.2488 224.453 50.2635 224.197C50.2781 223.941 50.2891 223.721 50.2964 223.538H50.2525C50.1647 223.699 50.0732 223.856 49.9781 224.01C49.883 224.164 49.7842 224.328 49.6818 224.504L47.9366 227.028H51.9757V227.665H47.0805V227.149L50.1427 222.638H50.9988V229.641H50.2415ZM54.996 229.772C54.3082 229.772 53.7668 229.458 53.3716 228.828C52.9838 228.192 52.7899 227.288 52.7899 226.117C52.7899 224.939 52.9838 224.043 53.3716 223.428C53.7668 222.814 54.3082 222.506 54.996 222.506C55.6911 222.506 56.2326 222.817 56.6204 223.439C57.0082 224.054 57.2021 224.947 57.2021 226.117C57.2021 227.288 57.0082 228.192 56.6204 228.828C56.2326 229.458 55.6911 229.772 54.996 229.772ZM54.996 229.125C55.2814 229.125 55.5302 229.019 55.7424 228.806C55.9619 228.594 56.1302 228.265 56.2472 227.819C56.3643 227.372 56.4228 226.805 56.4228 226.117C56.4228 225.422 56.3643 224.859 56.2472 224.427C56.1302 223.988 55.9619 223.666 55.7424 223.461C55.5302 223.256 55.2814 223.154 54.996 223.154C54.7107 223.154 54.4619 223.256 54.2497 223.461C54.0375 223.666 53.8692 223.988 53.7448 224.427C53.6277 224.859 53.5692 225.422 53.5692 226.117C53.5692 226.805 53.6277 227.372 53.7448 227.819C53.8692 228.265 54.0375 228.594 54.2497 228.806C54.4619 229.019 54.7107 229.125 54.996 229.125ZM49.4732 255.772C49.1001 255.772 48.7708 255.725 48.4854 255.63C48.2001 255.535 47.9513 255.414 47.7391 255.267C47.5269 255.114 47.344 254.953 47.1903 254.785L47.5964 254.258C47.8086 254.477 48.0574 254.675 48.3427 254.85C48.6354 255.019 48.9976 255.103 49.4293 255.103C49.8684 255.103 50.2269 254.982 50.5049 254.741C50.7903 254.492 50.933 254.163 50.933 253.753C50.933 253.467 50.8562 253.215 50.7025 252.996C50.5562 252.776 50.3147 252.608 49.9781 252.491C49.6488 252.366 49.2025 252.304 48.6391 252.304V251.678C49.144 251.678 49.5427 251.62 49.8354 251.503C50.1354 251.378 50.3513 251.214 50.483 251.009C50.6147 250.804 50.6805 250.574 50.6805 250.317C50.6805 249.966 50.5671 249.688 50.3403 249.483C50.1135 249.271 49.8062 249.165 49.4184 249.165C49.1184 249.165 48.8403 249.235 48.5842 249.374C48.3281 249.505 48.0976 249.677 47.8927 249.889L47.4537 249.374C47.7244 249.125 48.0208 248.92 48.3427 248.759C48.6647 248.591 49.0305 248.506 49.4403 248.506C49.8354 248.506 50.1866 248.576 50.494 248.715C50.8013 248.854 51.0427 249.055 51.2184 249.319C51.4013 249.575 51.4927 249.889 51.4927 250.263C51.4927 250.694 51.372 251.049 51.1305 251.327C50.8964 251.598 50.5854 251.803 50.1976 251.942V251.986C50.483 252.052 50.7427 252.165 50.9769 252.326C51.211 252.48 51.3976 252.681 51.5366 252.93C51.6757 253.171 51.7452 253.453 51.7452 253.775C51.7452 254.192 51.6427 254.55 51.4379 254.85C51.233 255.143 50.9586 255.37 50.6147 255.531C50.2708 255.692 49.8903 255.772 49.4732 255.772ZM54.996 255.772C54.3082 255.772 53.7668 255.458 53.3716 254.828C52.9838 254.192 52.7899 253.288 52.7899 252.117C52.7899 250.939 52.9838 250.043 53.3716 249.428C53.7668 248.814 54.3082 248.506 54.996 248.506C55.6911 248.506 56.2326 248.817 56.6204 249.439C57.0082 250.054 57.2021 250.947 57.2021 252.117C57.2021 253.288 57.0082 254.192 56.6204 254.828C56.2326 255.458 55.6911 255.772 54.996 255.772ZM54.996 255.125C55.2814 255.125 55.5302 255.019 55.7424 254.806C55.9619 254.594 56.1302 254.265 56.2472 253.819C56.3643 253.372 56.4228 252.805 56.4228 252.117C56.4228 251.422 56.3643 250.859 56.2472 250.427C56.1302 249.988 55.9619 249.666 55.7424 249.461C55.5302 249.256 55.2814 249.154 54.996 249.154C54.7107 249.154 54.4619 249.256 54.2497 249.461C54.0375 249.666 53.8692 249.988 53.7448 250.427C53.6277 250.859 53.5692 251.422 53.5692 252.117C53.5692 252.805 53.6277 253.372 53.7448 253.819C53.8692 254.265 54.0375 254.594 54.2497 254.806C54.4619 255.019 54.7107 255.125 54.996 255.125ZM47.333 282.641V282.169C48.0501 281.444 48.6574 280.811 49.1549 280.27C49.6525 279.721 50.0293 279.231 50.2854 278.799C50.5415 278.367 50.6696 277.958 50.6696 277.57C50.6696 277.16 50.5562 276.824 50.3293 276.56C50.1098 276.297 49.7623 276.165 49.2866 276.165C48.994 276.165 48.7159 276.246 48.4525 276.406C48.1964 276.567 47.9659 276.772 47.761 277.021L47.2891 276.56C47.5818 276.246 47.8927 275.993 48.222 275.803C48.5513 275.605 48.9391 275.506 49.3854 275.506C49.8098 275.506 50.1757 275.591 50.483 275.759C50.7976 275.927 51.0391 276.165 51.2074 276.472C51.3757 276.772 51.4598 277.127 51.4598 277.537C51.4598 277.983 51.3318 278.433 51.0757 278.887C50.8269 279.341 50.4793 279.824 50.033 280.336C49.594 280.841 49.0854 281.397 48.5074 282.004C48.6976 281.989 48.8952 281.978 49.1001 281.971C49.3049 281.956 49.4988 281.949 49.6818 281.949H51.8001V282.641H47.333ZM54.996 282.772C54.3082 282.772 53.7668 282.458 53.3716 281.828C52.9838 281.192 52.7899 280.288 52.7899 279.117C52.7899 277.939 52.9838 277.043 53.3716 276.428C53.7668 275.814 54.3082 275.506 54.996 275.506C55.6911 275.506 56.2326 275.817 56.6204 276.439C57.0082 277.054 57.2021 277.947 57.2021 279.117C57.2021 280.288 57.0082 281.192 56.6204 281.828C56.2326 282.458 55.6911 282.772 54.996 282.772ZM54.996 282.125C55.2814 282.125 55.5302 282.019 55.7424 281.806C55.9619 281.594 56.1302 281.265 56.2472 280.819C56.3643 280.372 56.4228 279.805 56.4228 279.117C56.4228 278.422 56.3643 277.859 56.2472 277.427C56.1302 276.988 55.9619 276.666 55.7424 276.461C55.5302 276.256 55.2814 276.154 54.996 276.154C54.7107 276.154 54.4619 276.256 54.2497 276.461C54.0375 276.666 53.8692 276.988 53.7448 277.427C53.6277 277.859 53.5692 278.422 53.5692 279.117C53.5692 279.805 53.6277 280.372 53.7448 280.819C53.8692 281.265 54.0375 281.594 54.2497 281.806C54.4619 282.019 54.7107 282.125 54.996 282.125ZM47.8819 308.641V307.971H49.4954V302.648H48.2222V302.132C48.5368 302.081 48.8112 302.015 49.0454 301.935C49.2795 301.847 49.4917 301.748 49.6819 301.638H50.2966V307.971H51.7563V308.641H47.8819ZM54.996 308.772C54.3082 308.772 53.7668 308.458 53.3716 307.828C52.9838 307.192 52.7899 306.288 52.7899 305.117C52.7899 303.939 52.9838 303.043 53.3716 302.428C53.7668 301.814 54.3082 301.506 54.996 301.506C55.6911 301.506 56.2326 301.817 56.6204 302.439C57.0082 303.054 57.2021 303.947 57.2021 305.117C57.2021 306.288 57.0082 307.192 56.6204 307.828C56.2326 308.458 55.6911 308.772 54.996 308.772ZM54.996 308.125C55.2814 308.125 55.5302 308.019 55.7424 307.806C55.9619 307.594 56.1302 307.265 56.2472 306.819C56.3643 306.372 56.4228 305.805 56.4228 305.117C56.4228 304.422 56.3643 303.859 56.2472 303.427C56.1302 302.988 55.9619 302.666 55.7424 302.461C55.5302 302.256 55.2814 302.154 54.996 302.154C54.7107 302.154 54.4619 302.256 54.2497 302.461C54.0375 302.666 53.8692 302.988 53.7448 303.427C53.6277 303.859 53.5692 304.422 53.5692 305.117C53.5692 305.805 53.6277 306.372 53.7448 306.819C53.8692 307.265 54.0375 307.594 54.2497 307.806C54.4619 308.019 54.7107 308.125 54.996 308.125ZM54.996 334.772C54.3082 334.772 53.7668 334.458 53.3716 333.828C52.9838 333.192 52.7899 332.288 52.7899 331.117C52.7899 329.939 52.9838 329.043 53.3716 328.428C53.7668 327.814 54.3082 327.506 54.996 327.506C55.6911 327.506 56.2326 327.817 56.6204 328.439C57.0082 329.054 57.2021 329.947 57.2021 331.117C57.2021 332.288 57.0082 333.192 56.6204 333.828C56.2326 334.458 55.6911 334.772 54.996 334.772ZM54.996 334.125C55.2814 334.125 55.5302 334.019 55.7424 333.806C55.9619 333.594 56.1302 333.265 56.2472 332.819C56.3643 332.372 56.4228 331.805 56.4228 331.117C56.4228 330.422 56.3643 329.859 56.2472 329.427C56.1302 328.988 55.9619 328.666 55.7424 328.461C55.5302 328.256 55.2814 328.154 54.996 328.154C54.7107 328.154 54.4619 328.256 54.2497 328.461C54.0375 328.666 53.8692 328.988 53.7448 329.427C53.6277 329.859 53.5692 330.422 53.5692 331.117C53.5692 331.805 53.6277 332.372 53.7448 332.819C53.8692 333.265 54.0375 333.594 54.2497 333.806C54.4619 334.019 54.7107 334.125 54.996 334.125Z" fill="#222539"/>
<path d="M33.0938 206.83H26.5742V209.047H25.8828V203.811H26.5742V206.017H33.0938V206.83ZM33.0938 202.569H27.7706V201.779H33.0938V202.569ZM26.6291 202.163C26.6291 202.316 26.5779 202.448 26.4755 202.558C26.373 202.66 26.2377 202.712 26.0694 202.712C25.9084 202.712 25.7803 202.66 25.6852 202.558C25.5828 202.448 25.5316 202.316 25.5316 202.163C25.5316 202.002 25.5828 201.87 25.6852 201.768C25.7803 201.665 25.9084 201.614 26.0694 201.614C26.2377 201.614 26.373 201.665 26.4755 201.768C26.5779 201.87 26.6291 202.002 26.6291 202.163ZM33.2255 198.297C33.2255 198.846 33.0645 199.23 32.7425 199.45C32.4206 199.662 32.0035 199.768 31.4913 199.768H28.4291V200.569H27.8255L27.7706 199.735L26.2669 199.636V198.967H27.7706V197.507H28.4291V198.967H31.5133C31.8425 198.967 32.1023 198.908 32.2925 198.791C32.4755 198.667 32.5669 198.444 32.5669 198.122C32.5669 198.027 32.5523 197.924 32.523 197.814C32.4938 197.697 32.4608 197.595 32.4242 197.507L33.0279 197.342C33.0791 197.489 33.123 197.646 33.1596 197.814C33.2035 197.983 33.2255 198.144 33.2255 198.297ZM33.2255 195.41C33.2255 195.608 33.1816 195.772 33.0938 195.904C33.0133 196.036 32.8925 196.131 32.7316 196.189C32.5633 196.248 32.3584 196.277 32.1169 196.277H25.2572V195.487H32.1828C32.3145 195.487 32.4096 195.461 32.4681 195.41C32.5267 195.359 32.5559 195.3 32.5559 195.235C32.5559 195.213 32.5559 195.187 32.5559 195.158C32.5486 195.128 32.5413 195.088 32.534 195.037L33.1486 194.927C33.1633 194.986 33.1779 195.055 33.1925 195.136C33.2145 195.209 33.2255 195.3 33.2255 195.41ZM33.2255 191.426C33.2255 191.887 33.1157 192.311 32.8962 192.699C32.6694 193.08 32.3511 193.383 31.9413 193.61C31.5242 193.837 31.023 193.95 30.4377 193.95C29.8596 193.95 29.362 193.837 28.945 193.61C28.5279 193.383 28.2059 193.091 27.9791 192.732C27.7523 192.366 27.6389 191.978 27.6389 191.569C27.6389 191.13 27.7413 190.753 27.9462 190.438C28.1511 190.124 28.4401 189.886 28.8133 189.725C29.1791 189.556 29.6181 189.472 30.1303 189.472C30.2181 189.472 30.3059 189.476 30.3938 189.483C30.4742 189.483 30.5474 189.491 30.6133 189.505V193.325L30.0316 193.336V190.186C29.4608 190.186 29.0291 190.306 28.7364 190.548C28.4364 190.789 28.2864 191.126 28.2864 191.558C28.2864 191.821 28.3633 192.077 28.5169 192.326C28.6706 192.575 28.9047 192.78 29.2194 192.941C29.534 193.102 29.9401 193.182 30.4377 193.182C30.9133 193.182 31.3084 193.098 31.623 192.93C31.9377 192.761 32.1755 192.538 32.3364 192.26C32.4974 191.975 32.5779 191.664 32.5779 191.327C32.5779 191.056 32.5377 190.815 32.4572 190.603C32.3767 190.383 32.2742 190.175 32.1498 189.977L32.6767 189.681C32.823 189.908 32.9511 190.164 33.0608 190.449C33.1706 190.727 33.2255 191.053 33.2255 191.426ZM33.0938 186.329H32.4242V184.716H27.1011V185.989H26.5852C26.534 185.674 26.4681 185.4 26.3877 185.166C26.2998 184.932 26.2011 184.719 26.0913 184.529L26.0913 183.914H32.4242V182.455H33.0938V186.329Z" fill="#3F4252"/>
<path d="M192.116 378.82V372.301H189.899V371.609H195.134V372.301H192.928V378.82H192.116ZM196.376 378.82V373.497H197.167V378.82H196.376ZM196.783 372.356C196.629 372.356 196.497 372.304 196.387 372.202C196.285 372.1 196.234 371.964 196.234 371.796C196.234 371.635 196.285 371.507 196.387 371.412C196.497 371.309 196.629 371.258 196.783 371.258C196.944 371.258 197.075 371.309 197.178 371.412C197.28 371.507 197.331 371.635 197.331 371.796C197.331 371.964 197.28 372.1 197.178 372.202C197.075 372.304 196.944 372.356 196.783 372.356ZM200.648 378.952C200.099 378.952 199.715 378.791 199.496 378.469C199.283 378.147 199.177 377.73 199.177 377.218V374.156H198.376V373.552L199.21 373.497L199.309 371.993H199.979V373.497H201.438V374.156H199.979V377.24C199.979 377.569 200.037 377.829 200.154 378.019C200.279 378.202 200.502 378.293 200.824 378.293C200.919 378.293 201.021 378.279 201.131 378.25C201.248 378.22 201.35 378.187 201.438 378.151L201.603 378.754C201.457 378.806 201.299 378.85 201.131 378.886C200.963 378.93 200.802 378.952 200.648 378.952ZM203.535 378.952C203.338 378.952 203.173 378.908 203.041 378.82C202.91 378.74 202.814 378.619 202.756 378.458C202.697 378.29 202.668 378.085 202.668 377.843V370.984H203.458V377.909C203.458 378.041 203.484 378.136 203.535 378.195C203.586 378.253 203.645 378.283 203.711 378.283C203.733 378.283 203.758 378.283 203.788 378.283C203.817 378.275 203.857 378.268 203.908 378.261L204.018 378.875C203.96 378.89 203.89 378.904 203.81 378.919C203.736 378.941 203.645 378.952 203.535 378.952ZM207.519 378.952C207.058 378.952 206.634 378.842 206.246 378.623C205.866 378.396 205.562 378.078 205.335 377.668C205.108 377.251 204.995 376.75 204.995 376.164C204.995 375.586 205.108 375.089 205.335 374.672C205.562 374.254 205.855 373.933 206.213 373.706C206.579 373.479 206.967 373.365 207.377 373.365C207.816 373.365 208.193 373.468 208.507 373.673C208.822 373.878 209.06 374.167 209.221 374.54C209.389 374.906 209.473 375.345 209.473 375.857C209.473 375.945 209.469 376.033 209.462 376.12C209.462 376.201 209.455 376.274 209.44 376.34H205.621L205.61 375.758H208.76C208.76 375.187 208.639 374.756 208.397 374.463C208.156 374.163 207.819 374.013 207.388 374.013C207.124 374.013 206.868 374.09 206.619 374.243C206.371 374.397 206.166 374.631 206.005 374.946C205.844 375.261 205.763 375.667 205.763 376.164C205.763 376.64 205.847 377.035 206.016 377.35C206.184 377.664 206.407 377.902 206.685 378.063C206.971 378.224 207.282 378.304 207.618 378.304C207.889 378.304 208.13 378.264 208.343 378.184C208.562 378.103 208.771 378.001 208.968 377.876L209.265 378.403C209.038 378.55 208.782 378.678 208.496 378.787C208.218 378.897 207.893 378.952 207.519 378.952ZM212.517 378.82V378.348C213.235 377.624 213.842 376.991 214.339 376.45C214.837 375.901 215.214 375.411 215.47 374.979C215.726 374.547 215.854 374.137 215.854 373.75C215.854 373.34 215.741 373.003 215.514 372.74C215.294 372.476 214.947 372.345 214.471 372.345C214.178 372.345 213.9 372.425 213.637 372.586C213.381 372.747 213.15 372.952 212.946 373.201L212.474 372.74C212.766 372.425 213.077 372.173 213.407 371.983C213.736 371.785 214.124 371.686 214.57 371.686C214.994 371.686 215.36 371.77 215.667 371.939C215.982 372.107 216.224 372.345 216.392 372.652C216.56 372.952 216.644 373.307 216.644 373.717C216.644 374.163 216.516 374.613 216.26 375.067C216.011 375.52 215.664 376.003 215.217 376.515C214.778 377.02 214.27 377.576 213.692 378.184C213.882 378.169 214.08 378.158 214.285 378.151C214.489 378.136 214.683 378.129 214.866 378.129H216.985V378.82H212.517Z" fill="black"/>
<rect x="65.3066" y="68.0469" width="66.5396" height="70.6555" fill="#440154"/>
<rect x="134.59" y="68.0469" width="96.0366" height="111.128" fill="#440154"/>
<rect x="233.371" y="68.0469" width="159.146" height="129.649" fill="#440154"/>
<rect x="65.3066" y="229.25" width="66.5396" height="102.21" fill="#35B779"/>
<rect x="65.3066" y="141.445" width="66.5396" height="85.061" fill="#31688E"/>
<rect x="134.59" y="181.922" width="96.0366" height="83.0031" fill="#31688E"/>
<rect x="233.371" y="200.438" width="159.146" height="115.93" fill="#31688E"/>
<rect x="233.371" y="319.109" width="159.146" height="12.3476" fill="#35B779"/>
<rect x="134.59" y="267.664" width="96.0366" height="63.7957" fill="#35B779"/>
<defs>
<filter id="filter0_d_1004_39646" x="0.140244" y="0.82622" width="463.72" height="417.071" filterUnits="userSpaceOnUse" color-interpolation-filters="sRGB">
<feFlood flood-opacity="0" result="BackgroundImageFix"/>
<feColorMatrix in="SourceAlpha" type="matrix" values="0 0 0 0 0 0 0 0 0 0 0 0 0 0 0 0 0 0 127 0" result="hardAlpha"/>
<feOffset dy="0.685976"/>
<feGaussianBlur stdDeviation="3.42988"/>
<feColorMatrix type="matrix" values="0 0 0 0 0 0 0 0 0 0 0 0 0 0 0 0 0 0 0.07 0"/>
<feBlend mode="normal" in2="BackgroundImageFix" result="effect1_dropShadow_1004_39646"/>
<feBlend mode="normal" in="SourceGraphic" in2="effect1_dropShadow_1004_39646" result="shape"/>
</filter>
<clipPath id="clip0_1004_39646">
<rect x="7" y="7" width="450" height="403.354" rx="5.4878" fill="white"/>
</clipPath>
</defs>
</svg>
