<svg width="500" height="348" viewBox="0 0 500 348" fill="none" xmlns="http://www.w3.org/2000/svg">
<rect width="500" height="347.573" transform="translate(0 0.078125)" fill="white"/>
<path d="M89.75 36.1974C89.108 36.1974 88.5611 36.0227 88.1094 35.6733C87.6577 35.321 87.3125 34.8111 87.0739 34.1435C86.8352 33.473 86.7159 32.6634 86.7159 31.7145C86.7159 30.7713 86.8352 29.9659 87.0739 29.2983C87.3153 28.6278 87.6619 28.1165 88.1136 27.7642C88.5682 27.4091 89.1136 27.2315 89.75 27.2315C90.3864 27.2315 90.9304 27.4091 91.3821 27.7642C91.8366 28.1165 92.1832 28.6278 92.4219 29.2983C92.6634 29.9659 92.7841 30.7713 92.7841 31.7145C92.7841 32.6634 92.6648 33.473 92.4261 34.1435C92.1875 34.8111 91.8423 35.321 91.3906 35.6733C90.9389 36.0227 90.392 36.1974 89.75 36.1974ZM89.75 35.2599C90.3864 35.2599 90.8807 34.9531 91.233 34.3395C91.5852 33.7259 91.7614 32.8509 91.7614 31.7145C91.7614 30.9588 91.6804 30.3153 91.5185 29.7841C91.3594 29.2528 91.1293 28.848 90.8281 28.5696C90.5298 28.2912 90.1705 28.152 89.75 28.152C89.1193 28.152 88.6264 28.4631 88.2713 29.0852C87.9162 29.7045 87.7386 30.581 87.7386 31.7145C87.7386 32.4702 87.8182 33.1122 87.9773 33.6406C88.1364 34.169 88.3651 34.571 88.6634 34.8466C88.9645 35.1222 89.3267 35.2599 89.75 35.2599Z" fill="black" fill-opacity="0.7"/>
<path d="M122.071 27.3509V36.0781H121.014V28.4588H120.963L118.833 29.8736V28.7997L121.014 27.3509H122.071ZM127.428 36.1974C126.786 36.1974 126.239 36.0227 125.787 35.6733C125.335 35.321 124.99 34.8111 124.752 34.1435C124.513 33.473 124.394 32.6634 124.394 31.7145C124.394 30.7713 124.513 29.9659 124.752 29.2983C124.993 28.6278 125.34 28.1165 125.791 27.7642C126.246 27.4091 126.791 27.2315 127.428 27.2315C128.064 27.2315 128.608 27.4091 129.06 27.7642C129.514 28.1165 129.861 28.6278 130.1 29.2983C130.341 29.9659 130.462 30.7713 130.462 31.7145C130.462 32.6634 130.343 33.473 130.104 34.1435C129.865 34.8111 129.52 35.321 129.068 35.6733C128.617 36.0227 128.07 36.1974 127.428 36.1974ZM127.428 35.2599C128.064 35.2599 128.558 34.9531 128.911 34.3395C129.263 33.7259 129.439 32.8509 129.439 31.7145C129.439 30.9588 129.358 30.3153 129.196 29.7841C129.037 29.2528 128.807 28.848 128.506 28.5696C128.208 28.2912 127.848 28.152 127.428 28.152C126.797 28.152 126.304 28.4631 125.949 29.0852C125.594 29.7045 125.416 30.581 125.416 31.7145C125.416 32.4702 125.496 33.1122 125.655 33.6406C125.814 34.169 126.043 34.571 126.341 34.8466C126.642 35.1222 127.004 35.2599 127.428 35.2599Z" fill="black" fill-opacity="0.7"/>
<path d="M157.103 36.0781V35.3111L159.983 32.1577C160.321 31.7884 160.6 31.4673 160.819 31.1946C161.037 30.919 161.199 30.6605 161.304 30.419C161.412 30.1747 161.466 29.919 161.466 29.652C161.466 29.3452 161.392 29.0795 161.245 28.8551C161.1 28.6307 160.901 28.4574 160.648 28.3352C160.395 28.2131 160.111 28.152 159.796 28.152C159.461 28.152 159.168 28.2216 158.918 28.3608C158.671 28.4972 158.479 28.6889 158.343 28.9361C158.209 29.1832 158.142 29.473 158.142 29.8054H157.137C157.137 29.294 157.255 28.8452 157.49 28.4588C157.726 28.0724 158.047 27.7713 158.453 27.5554C158.863 27.3395 159.321 27.2315 159.83 27.2315C160.341 27.2315 160.794 27.3395 161.189 27.5554C161.584 27.7713 161.894 28.0625 162.118 28.429C162.343 28.7955 162.455 29.2031 162.455 29.652C162.455 29.973 162.397 30.2869 162.28 30.5938C162.167 30.8977 161.968 31.2372 161.684 31.6122C161.402 31.9844 161.012 32.4389 160.512 32.9759L158.551 35.0724V35.1406H162.608V36.0781H157.103ZM167.215 36.1974C166.573 36.1974 166.026 36.0227 165.574 35.6733C165.123 35.321 164.777 34.8111 164.539 34.1435C164.3 33.473 164.181 32.6634 164.181 31.7145C164.181 30.7713 164.3 29.9659 164.539 29.2983C164.78 28.6278 165.127 28.1165 165.578 27.7642C166.033 27.4091 166.578 27.2315 167.215 27.2315C167.851 27.2315 168.395 27.4091 168.847 27.7642C169.301 28.1165 169.648 28.6278 169.887 29.2983C170.128 29.9659 170.249 30.7713 170.249 31.7145C170.249 32.6634 170.13 33.473 169.891 34.1435C169.652 34.8111 169.307 35.321 168.855 35.6733C168.404 36.0227 167.857 36.1974 167.215 36.1974ZM167.215 35.2599C167.851 35.2599 168.346 34.9531 168.698 34.3395C169.05 33.7259 169.226 32.8509 169.226 31.7145C169.226 30.9588 169.145 30.3153 168.983 29.7841C168.824 29.2528 168.594 28.848 168.293 28.5696C167.995 28.2912 167.635 28.152 167.215 28.152C166.584 28.152 166.091 28.4631 165.736 29.0852C165.381 29.7045 165.203 30.581 165.203 31.7145C165.203 32.4702 165.283 33.1122 165.442 33.6406C165.601 34.169 165.83 34.571 166.128 34.8466C166.429 35.1222 166.792 35.2599 167.215 35.2599Z" fill="black" fill-opacity="0.7"/>
<path d="M199.153 36.1974C198.591 36.1974 198.089 36.1009 197.649 35.9077C197.211 35.7145 196.863 35.446 196.605 35.1023C196.349 34.7557 196.21 34.3537 196.187 33.8963H197.261C197.284 34.1776 197.38 34.4205 197.551 34.625C197.721 34.8267 197.944 34.983 198.22 35.0938C198.495 35.2045 198.801 35.2599 199.136 35.2599C199.511 35.2599 199.843 35.1946 200.133 35.0639C200.423 34.9332 200.65 34.7514 200.815 34.5185C200.98 34.2855 201.062 34.0156 201.062 33.7088C201.062 33.3878 200.983 33.1051 200.824 32.8608C200.664 32.6136 200.431 32.4205 200.125 32.2812C199.818 32.142 199.443 32.0724 199 32.0724H198.301V31.1349H199C199.346 31.1349 199.65 31.0724 199.912 30.9474C200.176 30.8224 200.382 30.6463 200.529 30.419C200.68 30.1918 200.755 29.9247 200.755 29.6179C200.755 29.3224 200.69 29.0653 200.559 28.8466C200.429 28.6278 200.244 28.4574 200.005 28.3352C199.77 28.2131 199.491 28.152 199.17 28.152C198.869 28.152 198.585 28.2074 198.318 28.3182C198.054 28.4261 197.838 28.5838 197.67 28.7912C197.502 28.9957 197.412 29.2429 197.397 29.5327H196.375C196.392 29.0753 196.529 28.6747 196.788 28.331C197.047 27.9844 197.385 27.7145 197.802 27.5213C198.223 27.3281 198.684 27.2315 199.187 27.2315C199.727 27.2315 200.19 27.3409 200.576 27.5597C200.963 27.7756 201.26 28.0611 201.467 28.4162C201.674 28.7713 201.778 29.1548 201.778 29.5668C201.778 30.0582 201.649 30.4773 201.39 30.8239C201.135 31.1705 200.787 31.4105 200.346 31.544V31.6122C200.897 31.7031 201.328 31.9375 201.637 32.3153C201.947 32.6903 202.102 33.1548 202.102 33.7088C202.102 34.1832 201.973 34.6094 201.714 34.9872C201.458 35.3622 201.109 35.6577 200.666 35.8736C200.223 36.0895 199.718 36.1974 199.153 36.1974ZM206.691 36.1974C206.049 36.1974 205.502 36.0227 205.051 35.6733C204.599 35.321 204.254 34.8111 204.015 34.1435C203.777 33.473 203.657 32.6634 203.657 31.7145C203.657 30.7713 203.777 29.9659 204.015 29.2983C204.257 28.6278 204.603 28.1165 205.055 27.7642C205.51 27.4091 206.055 27.2315 206.691 27.2315C207.328 27.2315 207.872 27.4091 208.324 27.7642C208.778 28.1165 209.125 28.6278 209.363 29.2983C209.605 29.9659 209.725 30.7713 209.725 31.7145C209.725 32.6634 209.606 33.473 209.368 34.1435C209.129 34.8111 208.784 35.321 208.332 35.6733C207.88 36.0227 207.333 36.1974 206.691 36.1974ZM206.691 35.2599C207.328 35.2599 207.822 34.9531 208.174 34.3395C208.527 33.7259 208.703 32.8509 208.703 31.7145C208.703 30.9588 208.622 30.3153 208.46 29.7841C208.301 29.2528 208.071 28.848 207.77 28.5696C207.471 28.2912 207.112 28.152 206.691 28.152C206.061 28.152 205.568 28.4631 205.213 29.0852C204.858 29.7045 204.68 30.581 204.68 31.7145C204.68 32.4702 204.76 33.1122 204.919 33.6406C205.078 34.169 205.306 34.571 205.605 34.8466C205.906 35.1222 206.268 35.2599 206.691 35.2599Z" fill="black" fill-opacity="0.7"/>
<path d="M236.099 34.2884V33.419L239.934 27.3509H240.565V28.6974H240.139L237.241 33.2827V33.3509H242.406V34.2884H236.099ZM240.207 36.0781V34.0241V33.6193V27.3509H241.213V36.0781H240.207ZM246.85 36.1974C246.208 36.1974 245.661 36.0227 245.209 35.6733C244.757 35.321 244.412 34.8111 244.173 34.1435C243.935 33.473 243.816 32.6634 243.816 31.7145C243.816 30.7713 243.935 29.9659 244.173 29.2983C244.415 28.6278 244.762 28.1165 245.213 27.7642C245.668 27.4091 246.213 27.2315 246.85 27.2315C247.486 27.2315 248.03 27.4091 248.482 27.7642C248.936 28.1165 249.283 28.6278 249.521 29.2983C249.763 29.9659 249.884 30.7713 249.884 31.7145C249.884 32.6634 249.764 33.473 249.526 34.1435C249.287 34.8111 248.942 35.321 248.49 35.6733C248.039 36.0227 247.492 36.1974 246.85 36.1974ZM246.85 35.2599C247.486 35.2599 247.98 34.9531 248.333 34.3395C248.685 33.7259 248.861 32.8509 248.861 31.7145C248.861 30.9588 248.78 30.3153 248.618 29.7841C248.459 29.2528 248.229 28.848 247.928 28.5696C247.629 28.2912 247.27 28.152 246.85 28.152C246.219 28.152 245.726 28.4631 245.371 29.0852C245.016 29.7045 244.838 30.581 244.838 31.7145C244.838 32.4702 244.918 33.1122 245.077 33.6406C245.236 34.169 245.465 34.571 245.763 34.8466C246.064 35.1222 246.426 35.2599 246.85 35.2599Z" fill="black" fill-opacity="0.7"/>
<path d="M279.131 36.1974C278.631 36.1974 278.18 36.098 277.78 35.8991C277.379 35.7003 277.058 35.4276 276.817 35.081C276.575 34.7344 276.443 34.3395 276.42 33.8963H277.443C277.483 34.2912 277.662 34.6179 277.98 34.8764C278.301 35.1321 278.685 35.2599 279.131 35.2599C279.489 35.2599 279.807 35.1761 280.085 35.0085C280.366 34.8409 280.587 34.6108 280.746 34.3182C280.908 34.0227 280.989 33.6889 280.989 33.3168C280.989 32.9361 280.905 32.5966 280.737 32.2983C280.572 31.9972 280.345 31.7599 280.055 31.5866C279.766 31.4134 279.435 31.3253 279.062 31.3224C278.795 31.3196 278.521 31.3608 278.24 31.446C277.959 31.5284 277.727 31.6349 277.545 31.7656L276.557 31.6463L277.085 27.3509H281.619V28.2884H277.972L277.665 30.8622H277.716C277.895 30.7202 278.119 30.6023 278.389 30.5085C278.659 30.4148 278.94 30.3679 279.233 30.3679C279.767 30.3679 280.243 30.4957 280.661 30.7514C281.081 31.0043 281.411 31.3509 281.649 31.7912C281.891 32.2315 282.011 32.7344 282.011 33.2997C282.011 33.8565 281.886 34.3537 281.636 34.7912C281.389 35.2259 281.048 35.5696 280.614 35.8224C280.179 36.0724 279.685 36.1974 279.131 36.1974ZM286.551 36.1974C285.909 36.1974 285.362 36.0227 284.91 35.6733C284.458 35.321 284.113 34.8111 283.875 34.1435C283.636 33.473 283.517 32.6634 283.517 31.7145C283.517 30.7713 283.636 29.9659 283.875 29.2983C284.116 28.6278 284.463 28.1165 284.914 27.7642C285.369 27.4091 285.914 27.2315 286.551 27.2315C287.187 27.2315 287.731 27.4091 288.183 27.7642C288.637 28.1165 288.984 28.6278 289.223 29.2983C289.464 29.9659 289.585 30.7713 289.585 31.7145C289.585 32.6634 289.466 33.473 289.227 34.1435C288.988 34.8111 288.643 35.321 288.191 35.6733C287.74 36.0227 287.193 36.1974 286.551 36.1974ZM286.551 35.2599C287.187 35.2599 287.681 34.9531 288.034 34.3395C288.386 33.7259 288.562 32.8509 288.562 31.7145C288.562 30.9588 288.481 30.3153 288.319 29.7841C288.16 29.2528 287.93 28.848 287.629 28.5696C287.331 28.2912 286.971 28.152 286.551 28.152C285.92 28.152 285.427 28.4631 285.072 29.0852C284.717 29.7045 284.539 30.581 284.539 31.7145C284.539 32.4702 284.619 33.1122 284.778 33.6406C284.937 34.169 285.166 34.571 285.464 34.8466C285.765 35.1222 286.127 35.2599 286.551 35.2599Z" fill="black" fill-opacity="0.7"/>
<path d="M318.401 36.1974C318.043 36.1918 317.685 36.1236 317.327 35.9929C316.969 35.8622 316.642 35.642 316.347 35.3324C316.051 35.0199 315.814 34.598 315.635 34.0668C315.456 33.5327 315.367 32.8622 315.367 32.0554C315.367 31.2827 315.439 30.598 315.584 30.0014C315.729 29.402 315.939 28.8977 316.215 28.4886C316.49 28.0767 316.823 27.7642 317.212 27.5511C317.604 27.3381 318.046 27.2315 318.537 27.2315C319.026 27.2315 319.46 27.3295 319.841 27.5256C320.225 27.7187 320.537 27.9886 320.779 28.3352C321.02 28.6818 321.176 29.081 321.247 29.5327H320.208C320.111 29.1406 319.923 28.8153 319.645 28.5568C319.367 28.2983 318.997 28.169 318.537 28.169C317.861 28.169 317.328 28.4631 316.939 29.0511C316.553 29.6392 316.358 30.4645 316.355 31.527H316.423C316.583 31.2855 316.771 31.0795 316.99 30.9091C317.212 30.7358 317.456 30.6023 317.723 30.5085C317.99 30.4148 318.273 30.3679 318.571 30.3679C319.071 30.3679 319.529 30.4929 319.943 30.7429C320.358 30.9901 320.691 31.3324 320.941 31.7699C321.191 32.2045 321.316 32.7031 321.316 33.2656C321.316 33.8054 321.195 34.2997 320.953 34.7486C320.712 35.1946 320.372 35.5497 319.935 35.8139C319.5 36.0753 318.989 36.2031 318.401 36.1974ZM318.401 35.2599C318.759 35.2599 319.08 35.1705 319.364 34.9915C319.651 34.8125 319.877 34.5724 320.041 34.2713C320.209 33.9702 320.293 33.6349 320.293 33.2656C320.293 32.9048 320.212 32.5767 320.05 32.2812C319.891 31.983 319.671 31.7457 319.389 31.5696C319.111 31.3935 318.793 31.3054 318.435 31.3054C318.165 31.3054 317.914 31.3594 317.681 31.4673C317.448 31.5724 317.243 31.7173 317.067 31.902C316.894 32.0866 316.757 32.2983 316.658 32.5369C316.558 32.7727 316.509 33.0213 316.509 33.2827C316.509 33.6293 316.59 33.9531 316.752 34.2543C316.916 34.5554 317.141 34.7983 317.425 34.983C317.712 35.1676 318.037 35.2599 318.401 35.2599ZM325.838 36.1974C325.196 36.1974 324.649 36.0227 324.197 35.6733C323.746 35.321 323.4 34.8111 323.162 34.1435C322.923 33.473 322.804 32.6634 322.804 31.7145C322.804 30.7713 322.923 29.9659 323.162 29.2983C323.403 28.6278 323.75 28.1165 324.202 27.7642C324.656 27.4091 325.202 27.2315 325.838 27.2315C326.474 27.2315 327.018 27.4091 327.47 27.7642C327.925 28.1165 328.271 28.6278 328.51 29.2983C328.751 29.9659 328.872 30.7713 328.872 31.7145C328.872 32.6634 328.753 33.473 328.514 34.1435C328.275 34.8111 327.93 35.321 327.479 35.6733C327.027 36.0227 326.48 36.1974 325.838 36.1974ZM325.838 35.2599C326.474 35.2599 326.969 34.9531 327.321 34.3395C327.673 33.7259 327.849 32.8509 327.849 31.7145C327.849 30.9588 327.768 30.3153 327.606 29.7841C327.447 29.2528 327.217 28.848 326.916 28.5696C326.618 28.2912 326.258 28.152 325.838 28.152C325.207 28.152 324.714 28.4631 324.359 29.0852C324.004 29.7045 323.827 30.581 323.827 31.7145C323.827 32.4702 323.906 33.1122 324.065 33.6406C324.224 34.169 324.453 34.571 324.751 34.8466C325.052 35.1222 325.415 35.2599 325.838 35.2599Z" fill="black" fill-opacity="0.7"/>
<path d="M354.875 36.0781L358.779 28.3565V28.2884H354.279V27.3509H359.87V28.3395L355.983 36.0781H354.875ZM364.117 36.1974C363.475 36.1974 362.928 36.0227 362.477 35.6733C362.025 35.321 361.68 34.8111 361.441 34.1435C361.202 33.473 361.083 32.6634 361.083 31.7145C361.083 30.7713 361.202 29.9659 361.441 29.2983C361.683 28.6278 362.029 28.1165 362.481 27.7642C362.935 27.4091 363.481 27.2315 364.117 27.2315C364.754 27.2315 365.298 27.4091 365.749 27.7642C366.204 28.1165 366.55 28.6278 366.789 29.2983C367.031 29.9659 367.151 30.7713 367.151 31.7145C367.151 32.6634 367.032 33.473 366.793 34.1435C366.555 34.8111 366.21 35.321 365.758 35.6733C365.306 36.0227 364.759 36.1974 364.117 36.1974ZM364.117 35.2599C364.754 35.2599 365.248 34.9531 365.6 34.3395C365.952 33.7259 366.129 32.8509 366.129 31.7145C366.129 30.9588 366.048 30.3153 365.886 29.7841C365.727 29.2528 365.496 28.848 365.195 28.5696C364.897 28.2912 364.538 28.152 364.117 28.152C363.487 28.152 362.994 28.4631 362.638 29.0852C362.283 29.7045 362.106 30.581 362.106 31.7145C362.106 32.4702 362.185 33.1122 362.344 33.6406C362.504 34.169 362.732 34.571 363.031 34.8466C363.332 35.1222 363.694 35.2599 364.117 35.2599Z" fill="black" fill-opacity="0.7"/>
<path d="M396.5 36.1974C395.914 36.1974 395.397 36.0938 394.949 35.8864C394.502 35.6761 394.154 35.3878 393.904 35.0213C393.654 34.652 393.531 34.2315 393.534 33.7599C393.531 33.3906 393.603 33.0497 393.751 32.7372C393.899 32.4219 394.1 32.1591 394.356 31.9489C394.615 31.7358 394.903 31.6009 395.221 31.544V31.4929C394.804 31.3849 394.471 31.1506 394.224 30.7898C393.977 30.4261 393.855 30.0128 393.858 29.5497C393.855 29.1065 393.967 28.7102 394.194 28.3608C394.422 28.0114 394.734 27.7358 395.132 27.5341C395.532 27.3324 395.988 27.2315 396.5 27.2315C397.005 27.2315 397.457 27.3324 397.855 27.5341C398.252 27.7358 398.565 28.0114 398.792 28.3608C399.022 28.7102 399.139 29.1065 399.142 29.5497C399.139 30.0128 399.012 30.4261 398.762 30.7898C398.515 31.1506 398.187 31.3849 397.778 31.4929V31.544C398.093 31.6009 398.377 31.7358 398.63 31.9489C398.883 32.1591 399.085 32.4219 399.235 32.7372C399.386 33.0497 399.463 33.3906 399.466 33.7599C399.463 34.2315 399.335 34.652 399.082 35.0213C398.832 35.3878 398.484 35.6761 398.038 35.8864C397.595 36.0938 397.082 36.1974 396.5 36.1974ZM396.5 35.2599C396.895 35.2599 397.235 35.196 397.522 35.0682C397.809 34.9403 398.031 34.7599 398.187 34.527C398.343 34.294 398.423 34.0213 398.426 33.7088C398.423 33.3793 398.338 33.0881 398.17 32.8352C398.002 32.5824 397.774 32.3835 397.484 32.2386C397.197 32.0937 396.869 32.0213 396.5 32.0213C396.127 32.0213 395.795 32.0937 395.502 32.2386C395.213 32.3835 394.984 32.5824 394.816 32.8352C394.652 33.0881 394.571 33.3793 394.574 33.7088C394.571 34.0213 394.646 34.294 394.799 34.527C394.956 34.7599 395.179 34.9403 395.468 35.0682C395.758 35.196 396.102 35.2599 396.5 35.2599ZM396.5 31.1179C396.812 31.1179 397.089 31.0554 397.331 30.9304C397.575 30.8054 397.767 30.6307 397.906 30.4062C398.045 30.1818 398.116 29.919 398.119 29.6179C398.116 29.3224 398.047 29.0653 397.91 28.8466C397.774 28.625 397.585 28.4545 397.343 28.3352C397.102 28.2131 396.821 28.152 396.5 28.152C396.173 28.152 395.887 28.2131 395.643 28.3352C395.399 28.4545 395.21 28.625 395.076 28.8466C394.943 29.0653 394.877 29.3224 394.88 29.6179C394.877 29.919 394.944 30.1818 395.081 30.4062C395.22 30.6307 395.412 30.8054 395.656 30.9304C395.9 31.0554 396.181 31.1179 396.5 31.1179ZM403.945 36.1974C403.303 36.1974 402.756 36.0227 402.305 35.6733C401.853 35.321 401.508 34.8111 401.269 34.1435C401.031 33.473 400.911 32.6634 400.911 31.7145C400.911 30.7713 401.031 29.9659 401.269 29.2983C401.511 28.6278 401.857 28.1165 402.309 27.7642C402.763 27.4091 403.309 27.2315 403.945 27.2315C404.582 27.2315 405.126 27.4091 405.577 27.7642C406.032 28.1165 406.379 28.6278 406.617 29.2983C406.859 29.9659 406.979 30.7713 406.979 31.7145C406.979 32.6634 406.86 33.473 406.621 34.1435C406.383 34.8111 406.038 35.321 405.586 35.6733C405.134 36.0227 404.587 36.1974 403.945 36.1974ZM403.945 35.2599C404.582 35.2599 405.076 34.9531 405.428 34.3395C405.781 33.7259 405.957 32.8509 405.957 31.7145C405.957 30.9588 405.876 30.3153 405.714 29.7841C405.555 29.2528 405.325 28.848 405.023 28.5696C404.725 28.2912 404.366 28.152 403.945 28.152C403.315 28.152 402.822 28.4631 402.467 29.0852C402.112 29.7045 401.934 30.581 401.934 31.7145C401.934 32.4702 402.013 33.1122 402.173 33.6406C402.332 34.169 402.56 34.571 402.859 34.8466C403.16 35.1222 403.522 35.2599 403.945 35.2599Z" fill="black" fill-opacity="0.7"/>
<path d="M435.582 27.2315C435.94 27.2344 436.298 27.3026 436.656 27.4361C437.014 27.5696 437.341 27.7912 437.636 28.1009C437.932 28.4077 438.169 28.8267 438.348 29.358C438.527 29.8892 438.616 30.5554 438.616 31.3565C438.616 32.1321 438.542 32.821 438.395 33.4233C438.25 34.0227 438.04 34.5284 437.764 34.9403C437.491 35.3523 437.159 35.6648 436.767 35.8778C436.378 36.0909 435.937 36.1974 435.446 36.1974C434.957 36.1974 434.521 36.1009 434.138 35.9077C433.757 35.7116 433.444 35.4403 433.2 35.0938C432.959 34.7443 432.804 34.3395 432.736 33.8793H433.775C433.869 34.2798 434.055 34.6108 434.334 34.8722C434.615 35.1307 434.986 35.2599 435.446 35.2599C436.119 35.2599 436.65 34.9659 437.04 34.3778C437.432 33.7898 437.628 32.9588 437.628 31.8849H437.559C437.4 32.1236 437.211 32.3295 436.993 32.5028C436.774 32.6761 436.531 32.8097 436.264 32.9034C435.997 32.9972 435.713 33.044 435.412 33.044C434.912 33.044 434.453 32.9205 434.035 32.6733C433.621 32.4233 433.288 32.081 433.038 31.6463C432.791 31.2088 432.667 30.7088 432.667 30.1463C432.667 29.6122 432.787 29.1236 433.025 28.6804C433.267 28.2344 433.605 27.8793 434.04 27.6151C434.477 27.3509 434.991 27.223 435.582 27.2315ZM435.582 28.169C435.224 28.169 434.902 28.2585 434.615 28.4375C434.331 28.6136 434.105 28.8523 433.937 29.1534C433.773 29.4517 433.69 29.7827 433.69 30.1463C433.69 30.5099 433.77 30.8409 433.929 31.1392C434.091 31.4347 434.311 31.6705 434.589 31.8466C434.871 32.0199 435.19 32.1065 435.548 32.1065C435.818 32.1065 436.069 32.054 436.302 31.9489C436.535 31.8409 436.738 31.6946 436.912 31.5099C437.088 31.3224 437.226 31.1108 437.325 30.875C437.425 30.6364 437.474 30.3878 437.474 30.1293C437.474 29.7884 437.392 29.4687 437.227 29.1705C437.065 28.8722 436.841 28.6307 436.554 28.446C436.27 28.2614 435.946 28.169 435.582 28.169ZM443.139 36.1974C442.497 36.1974 441.95 36.0227 441.498 35.6733C441.046 35.321 440.701 34.8111 440.463 34.1435C440.224 33.473 440.105 32.6634 440.105 31.7145C440.105 30.7713 440.224 29.9659 440.463 29.2983C440.704 28.6278 441.051 28.1165 441.502 27.7642C441.957 27.4091 442.502 27.2315 443.139 27.2315C443.775 27.2315 444.319 27.4091 444.771 27.7642C445.225 28.1165 445.572 28.6278 445.811 29.2983C446.052 29.9659 446.173 30.7713 446.173 31.7145C446.173 32.6634 446.053 33.473 445.815 34.1435C445.576 34.8111 445.231 35.321 444.779 35.6733C444.328 36.0227 443.781 36.1974 443.139 36.1974ZM443.139 35.2599C443.775 35.2599 444.269 34.9531 444.622 34.3395C444.974 33.7259 445.15 32.8509 445.15 31.7145C445.15 30.9588 445.069 30.3153 444.907 29.7841C444.748 29.2528 444.518 28.848 444.217 28.5696C443.919 28.2912 443.559 28.152 443.139 28.152C442.508 28.152 442.015 28.4631 441.66 29.0852C441.305 29.7045 441.127 30.581 441.127 31.7145C441.127 32.4702 441.207 33.1122 441.366 33.6406C441.525 34.169 441.754 34.571 442.052 34.8466C442.353 35.1222 442.715 35.2599 443.139 35.2599Z" fill="black" fill-opacity="0.7"/>
<path d="M474.972 27.3509V36.0781H473.915V28.4588H473.864L471.733 29.8736V28.7997L473.915 27.3509H474.972ZM480.328 36.1974C479.686 36.1974 479.139 36.0227 478.688 35.6733C478.236 35.321 477.891 34.8111 477.652 34.1435C477.413 33.473 477.294 32.6634 477.294 31.7145C477.294 30.7713 477.413 29.9659 477.652 29.2983C477.893 28.6278 478.24 28.1165 478.692 27.7642C479.146 27.4091 479.692 27.2315 480.328 27.2315C480.964 27.2315 481.509 27.4091 481.96 27.7642C482.415 28.1165 482.761 28.6278 483 29.2983C483.241 29.9659 483.362 30.7713 483.362 31.7145C483.362 32.6634 483.243 33.473 483.004 34.1435C482.766 34.8111 482.42 35.321 481.969 35.6733C481.517 36.0227 480.97 36.1974 480.328 36.1974ZM480.328 35.2599C480.964 35.2599 481.459 34.9531 481.811 34.3395C482.163 33.7259 482.339 32.8509 482.339 31.7145C482.339 30.9588 482.259 30.3153 482.097 29.7841C481.938 29.2528 481.707 28.848 481.406 28.5696C481.108 28.2912 480.749 28.152 480.328 28.152C479.697 28.152 479.205 28.4631 478.849 29.0852C478.494 29.7045 478.317 30.581 478.317 31.7145C478.317 32.4702 478.396 33.1122 478.555 33.6406C478.714 34.169 478.943 34.571 479.241 34.8466C479.543 35.1222 479.905 35.2599 480.328 35.2599ZM487.828 36.1974C487.186 36.1974 486.639 36.0227 486.188 35.6733C485.736 35.321 485.391 34.8111 485.152 34.1435C484.913 33.473 484.794 32.6634 484.794 31.7145C484.794 30.7713 484.913 29.9659 485.152 29.2983C485.393 28.6278 485.74 28.1165 486.192 27.7642C486.646 27.4091 487.192 27.2315 487.828 27.2315C488.464 27.2315 489.009 27.4091 489.46 27.7642C489.915 28.1165 490.261 28.6278 490.5 29.2983C490.741 29.9659 490.862 30.7713 490.862 31.7145C490.862 32.6634 490.743 33.473 490.504 34.1435C490.266 34.8111 489.92 35.321 489.469 35.6733C489.017 36.0227 488.47 36.1974 487.828 36.1974ZM487.828 35.2599C488.464 35.2599 488.959 34.9531 489.311 34.3395C489.663 33.7259 489.839 32.8509 489.839 31.7145C489.839 30.9588 489.759 30.3153 489.597 29.7841C489.438 29.2528 489.207 28.848 488.906 28.5696C488.608 28.2912 488.249 28.152 487.828 28.152C487.197 28.152 486.705 28.4631 486.349 29.0852C485.994 29.7045 485.817 30.581 485.817 31.7145C485.817 32.4702 485.896 33.1122 486.055 33.6406C486.214 34.169 486.443 34.571 486.741 34.8466C487.043 35.1222 487.405 35.2599 487.828 35.2599Z" fill="black" fill-opacity="0.7"/>
<path d="M452.045 15.402V11.5327H453.051V18.0781H452.045V16.9702H451.977C451.824 17.3026 451.585 17.5852 451.261 17.8182C450.938 18.0483 450.528 18.1634 450.034 18.1634C449.625 18.1634 449.261 18.0739 448.943 17.8949C448.625 17.7131 448.375 17.4403 448.193 17.0767C448.011 16.7102 447.92 16.2486 447.92 15.6918V11.5327H448.926V15.6236C448.926 16.1009 449.06 16.4815 449.327 16.7656C449.597 17.0497 449.94 17.1918 450.358 17.1918C450.608 17.1918 450.862 17.1278 451.121 17C451.382 16.8722 451.601 16.6761 451.777 16.4119C451.956 16.1477 452.045 15.8111 452.045 15.402ZM455.899 14.1406V18.0781H454.893V11.5327H455.865V12.5554H455.95C456.103 12.223 456.336 11.956 456.649 11.7543C456.961 11.5497 457.365 11.4474 457.859 11.4474C458.302 11.4474 458.69 11.5384 459.022 11.7202C459.355 11.8991 459.613 12.1719 459.798 12.5384C459.983 12.902 460.075 13.3622 460.075 13.919V18.0781H459.069V13.9872C459.069 13.473 458.936 13.0724 458.669 12.7855C458.402 12.4957 458.035 12.3509 457.569 12.3509C457.248 12.3509 456.961 12.4205 456.708 12.5597C456.458 12.6989 456.261 12.902 456.116 13.169C455.971 13.4361 455.899 13.7599 455.899 14.1406ZM461.913 18.0781V11.5327H462.918V18.0781H461.913ZM462.424 10.4418C462.228 10.4418 462.059 10.375 461.917 10.2415C461.778 10.108 461.708 9.94744 461.708 9.75994C461.708 9.57244 461.778 9.41193 461.917 9.27841C462.059 9.14489 462.228 9.07812 462.424 9.07812C462.62 9.07812 462.788 9.14489 462.927 9.27841C463.069 9.41193 463.14 9.57244 463.14 9.75994C463.14 9.94744 463.069 10.108 462.927 10.2415C462.788 10.375 462.62 10.4418 462.424 10.4418ZM467.607 11.5327V12.3849H464.215V11.5327H467.607ZM465.203 9.96449H466.209V16.2031C466.209 16.4872 466.25 16.7003 466.333 16.8423C466.418 16.9815 466.526 17.0753 466.657 17.1236C466.79 17.169 466.931 17.1918 467.078 17.1918C467.189 17.1918 467.28 17.1861 467.351 17.1747C467.422 17.1605 467.479 17.1491 467.522 17.1406L467.726 18.044C467.658 18.0696 467.563 18.0952 467.441 18.1207C467.319 18.1491 467.164 18.1634 466.976 18.1634C466.692 18.1634 466.414 18.1023 466.141 17.9801C465.871 17.858 465.647 17.6719 465.468 17.4219C465.292 17.1719 465.203 16.8565 465.203 16.4759V9.96449ZM469.853 18.1463C469.642 18.1463 469.462 18.071 469.311 17.9205C469.161 17.7699 469.086 17.5895 469.086 17.3793C469.086 17.169 469.161 16.9886 469.311 16.8381C469.462 16.6875 469.642 16.6122 469.853 16.6122C470.063 16.6122 470.243 16.6875 470.394 16.8381C470.544 16.9886 470.62 17.169 470.62 17.3793C470.62 17.5185 470.584 17.6463 470.513 17.7628C470.445 17.8793 470.353 17.973 470.236 18.044C470.123 18.1122 469.995 18.1463 469.853 18.1463ZM469.853 13.2884C469.642 13.2884 469.462 13.2131 469.311 13.0625C469.161 12.9119 469.086 12.7315 469.086 12.5213C469.086 12.3111 469.161 12.1307 469.311 11.9801C469.462 11.8295 469.642 11.7543 469.853 11.7543C470.063 11.7543 470.243 11.8295 470.394 11.9801C470.544 12.1307 470.62 12.3111 470.62 12.5213C470.62 12.6605 470.584 12.7884 470.513 12.9048C470.445 13.0213 470.353 13.1151 470.236 13.1861C470.123 13.2543 469.995 13.2884 469.853 13.2884ZM476.737 15.6918L476.72 14.4474H476.924L479.788 11.5327H481.032L477.981 14.6179H477.896L476.737 15.6918ZM475.799 18.0781V9.35085H476.805V18.0781H475.799ZM479.958 18.0781L477.402 14.8395L478.118 14.1406L481.237 18.0781H479.958ZM482.327 18.0781V11.5327H483.298V12.5554H483.384C483.52 12.206 483.74 11.9347 484.044 11.7415C484.348 11.5455 484.713 11.4474 485.139 11.4474C485.571 11.4474 485.93 11.5455 486.217 11.7415C486.507 11.9347 486.733 12.206 486.895 12.5554H486.963C487.131 12.2173 487.382 11.9489 487.717 11.75C488.053 11.5483 488.455 11.4474 488.923 11.4474C489.509 11.4474 489.987 11.6307 490.359 11.9972C490.732 12.3608 490.918 12.9276 490.918 13.6974V18.0781H489.912V13.6974C489.912 13.2145 489.78 12.8693 489.516 12.6619C489.251 12.4545 488.94 12.3509 488.582 12.3509C488.122 12.3509 487.766 12.4901 487.513 12.7685C487.26 13.044 487.134 13.3935 487.134 13.8168V18.0781H486.111V13.5952C486.111 13.223 485.99 12.9233 485.749 12.696C485.507 12.4659 485.196 12.3509 484.815 12.3509C484.554 12.3509 484.31 12.4205 484.082 12.5597C483.858 12.6989 483.676 12.892 483.537 13.1392C483.401 13.3835 483.332 13.6662 483.332 13.9872V18.0781H482.327Z" fill="black" fill-opacity="0.7"/>
<path d="M18.5795 58.1712V57.2337H25.125V58.1712H22.3807V65.9609H21.3239V58.1712H18.5795ZM28.4148 66.0973C27.7841 66.0973 27.2401 65.9581 26.7827 65.6797C26.3281 65.3984 25.9773 65.0064 25.7301 64.5036C25.4858 63.9979 25.3636 63.4098 25.3636 62.7393C25.3636 62.0689 25.4858 61.478 25.7301 60.9666C25.9773 60.4524 26.321 60.0518 26.7614 59.7649C27.2045 59.4751 27.7216 59.3303 28.3125 59.3303C28.6534 59.3303 28.9901 59.3871 29.3224 59.5007C29.6548 59.6143 29.9574 59.799 30.2301 60.0547C30.5028 60.3075 30.7202 60.6428 30.8821 61.0604C31.044 61.478 31.125 61.9922 31.125 62.603V63.0291H26.0795V62.1598H30.1023C30.1023 61.7905 30.0284 61.4609 29.8807 61.1712C29.7358 60.8814 29.5284 60.6527 29.2585 60.4851C28.9915 60.3175 28.6761 60.2337 28.3125 60.2337C27.9119 60.2337 27.5653 60.3331 27.2727 60.532C26.983 60.728 26.7599 60.9837 26.6037 61.299C26.4474 61.6143 26.3693 61.9524 26.3693 62.3132V62.8928C26.3693 63.3871 26.4545 63.8061 26.625 64.1499C26.7983 64.4908 27.0384 64.7507 27.3452 64.9297C27.652 65.1058 28.0085 65.1939 28.4148 65.1939C28.679 65.1939 28.9176 65.157 29.1307 65.0831C29.3466 65.0064 29.5327 64.8928 29.6889 64.7422C29.8452 64.5888 29.9659 64.3984 30.0511 64.1712L31.0227 64.4439C30.9205 64.7734 30.7486 65.0632 30.5071 65.3132C30.2656 65.5604 29.9673 65.7536 29.6122 65.8928C29.2571 66.0291 28.858 66.0973 28.4148 66.0973ZM35.3139 66.0973C34.7003 66.0973 34.1719 65.9524 33.7287 65.6626C33.2855 65.3729 32.9446 64.9737 32.706 64.4652C32.4673 63.9567 32.348 63.3757 32.348 62.7223C32.348 62.0575 32.4702 61.4709 32.7145 60.9624C32.9616 60.451 33.3054 60.0518 33.7457 59.7649C34.1889 59.4751 34.706 59.3303 35.2969 59.3303C35.7571 59.3303 36.1719 59.4155 36.5412 59.5859C36.9105 59.7564 37.2131 59.995 37.4489 60.3018C37.6847 60.6087 37.831 60.9666 37.8878 61.3757H36.8821C36.8054 61.0774 36.6349 60.8132 36.3707 60.5831C36.1094 60.3501 35.7571 60.2337 35.3139 60.2337C34.9219 60.2337 34.5781 60.3359 34.2827 60.5405C33.9901 60.7422 33.7614 61.0277 33.5966 61.397C33.4347 61.7635 33.3537 62.1939 33.3537 62.6882C33.3537 63.1939 33.4332 63.6342 33.5923 64.0092C33.7543 64.3842 33.9815 64.6754 34.2741 64.8828C34.5696 65.0902 34.9162 65.1939 35.3139 65.1939C35.5753 65.1939 35.8125 65.1484 36.0256 65.0575C36.2386 64.9666 36.419 64.8359 36.5668 64.6655C36.7145 64.495 36.8196 64.2905 36.8821 64.0518H37.8878C37.831 64.4382 37.6903 64.7862 37.4659 65.0959C37.2443 65.4027 36.9503 65.647 36.5838 65.8288C36.2202 66.0078 35.7969 66.0973 35.3139 66.0973ZM40.3636 62.0234V65.9609H39.358V57.2337H40.3636V60.4382H40.4489C40.6023 60.1001 40.8324 59.8317 41.1392 59.6328C41.4489 59.4311 41.8608 59.3303 42.375 59.3303C42.821 59.3303 43.2116 59.4197 43.5469 59.5987C43.8821 59.7749 44.142 60.0462 44.3267 60.4126C44.5142 60.7763 44.608 61.2393 44.608 61.8018V65.9609H43.6023V61.87C43.6023 61.3501 43.4673 60.9482 43.1974 60.6641C42.9304 60.3771 42.5597 60.2337 42.0852 60.2337C41.7557 60.2337 41.4602 60.3033 41.1989 60.4425C40.9403 60.5817 40.7358 60.7848 40.5852 61.0518C40.4375 61.3189 40.3636 61.6428 40.3636 62.0234ZM47.4535 62.0234V65.9609H46.4478V59.4155H47.4194V60.4382H47.5046C47.658 60.1058 47.891 59.8388 48.2035 59.6371C48.516 59.4325 48.9194 59.3303 49.4137 59.3303C49.8569 59.3303 50.2447 59.4212 50.5771 59.603C50.9094 59.782 51.168 60.0547 51.3526 60.4212C51.5373 60.7848 51.6296 61.245 51.6296 61.8018V65.9609H50.6239V61.87C50.6239 61.3558 50.4904 60.9553 50.2234 60.6683C49.9563 60.3786 49.5898 60.2337 49.1239 60.2337C48.8029 60.2337 48.516 60.3033 48.2631 60.4425C48.0131 60.5817 47.8157 60.7848 47.6708 61.0518C47.5259 61.3189 47.4535 61.6428 47.4535 62.0234ZM56.1264 66.0973C55.5355 66.0973 55.017 65.9567 54.571 65.6754C54.1278 65.3942 53.7812 65.0007 53.5312 64.495C53.2841 63.9893 53.1605 63.3984 53.1605 62.7223C53.1605 62.0405 53.2841 61.4453 53.5312 60.9368C53.7812 60.4283 54.1278 60.0334 54.571 59.7521C55.017 59.4709 55.5355 59.3303 56.1264 59.3303C56.7173 59.3303 57.2344 59.4709 57.6776 59.7521C58.1236 60.0334 58.4702 60.4283 58.7173 60.9368C58.9673 61.4453 59.0923 62.0405 59.0923 62.7223C59.0923 63.3984 58.9673 63.9893 58.7173 64.495C58.4702 65.0007 58.1236 65.3942 57.6776 65.6754C57.2344 65.9567 56.7173 66.0973 56.1264 66.0973ZM56.1264 65.1939C56.5753 65.1939 56.9446 65.0788 57.2344 64.8487C57.5241 64.6186 57.7386 64.3161 57.8778 63.9411C58.017 63.5661 58.0866 63.1598 58.0866 62.7223C58.0866 62.2848 58.017 61.8771 57.8778 61.4993C57.7386 61.1214 57.5241 60.8161 57.2344 60.5831C56.9446 60.3501 56.5753 60.2337 56.1264 60.2337C55.6776 60.2337 55.3082 60.3501 55.0185 60.5831C54.7287 60.8161 54.5142 61.1214 54.375 61.4993C54.2358 61.8771 54.1662 62.2848 54.1662 62.7223C54.1662 63.1598 54.2358 63.5661 54.375 63.9411C54.5142 64.3161 54.7287 64.6186 55.0185 64.8487C55.3082 65.0788 55.6776 65.1939 56.1264 65.1939ZM61.6332 57.2337V65.9609H60.6275V57.2337H61.6332ZM66.1342 66.0973C65.5433 66.0973 65.0249 65.9567 64.5788 65.6754C64.1357 65.3942 63.7891 65.0007 63.5391 64.495C63.2919 63.9893 63.1683 63.3984 63.1683 62.7223C63.1683 62.0405 63.2919 61.4453 63.5391 60.9368C63.7891 60.4283 64.1357 60.0334 64.5788 59.7521C65.0249 59.4709 65.5433 59.3303 66.1342 59.3303C66.7251 59.3303 67.2422 59.4709 67.6854 59.7521C68.1314 60.0334 68.478 60.4283 68.7251 60.9368C68.9751 61.4453 69.1001 62.0405 69.1001 62.7223C69.1001 63.3984 68.9751 63.9893 68.7251 64.495C68.478 65.0007 68.1314 65.3942 67.6854 65.6754C67.2422 65.9567 66.7251 66.0973 66.1342 66.0973ZM66.1342 65.1939C66.5831 65.1939 66.9524 65.0788 67.2422 64.8487C67.532 64.6186 67.7464 64.3161 67.8857 63.9411C68.0249 63.5661 68.0945 63.1598 68.0945 62.7223C68.0945 62.2848 68.0249 61.8771 67.8857 61.4993C67.7464 61.1214 67.532 60.8161 67.2422 60.5831C66.9524 60.3501 66.5831 60.2337 66.1342 60.2337C65.6854 60.2337 65.3161 60.3501 65.0263 60.5831C64.7365 60.8161 64.522 61.1214 64.3828 61.4993C64.2436 61.8771 64.174 62.2848 64.174 62.7223C64.174 63.1598 64.2436 63.5661 64.3828 63.9411C64.522 64.3161 64.7365 64.6186 65.0263 64.8487C65.3161 65.0788 65.6854 65.1939 66.1342 65.1939ZM73.2773 68.5518C72.7915 68.5518 72.3739 68.4893 72.0245 68.3643C71.6751 68.2422 71.3839 68.0803 71.1509 67.8786C70.9208 67.6797 70.7376 67.4666 70.6012 67.2393L71.4023 66.6768C71.4933 66.7962 71.6083 66.9325 71.7475 67.0859C71.8867 67.2422 72.0771 67.3771 72.3185 67.4908C72.5629 67.6072 72.8825 67.6655 73.2773 67.6655C73.8058 67.6655 74.2418 67.5376 74.5856 67.282C74.9293 67.0263 75.1012 66.6257 75.1012 66.0803V64.7507H75.016C74.9421 64.87 74.837 65.0178 74.7006 65.1939C74.5671 65.3672 74.3739 65.522 74.1211 65.6584C73.8711 65.7919 73.533 65.8587 73.1069 65.8587C72.5785 65.8587 72.104 65.7337 71.6836 65.4837C71.266 65.2337 70.935 64.87 70.6907 64.3928C70.4492 63.9155 70.3285 63.3359 70.3285 62.6541C70.3285 61.9837 70.4464 61.3999 70.6822 60.9027C70.918 60.4027 71.2461 60.0163 71.6665 59.7436C72.087 59.468 72.5728 59.3303 73.1239 59.3303C73.5501 59.3303 73.8881 59.4013 74.1381 59.5433C74.391 59.6825 74.5842 59.8416 74.7177 60.0206C74.854 60.1967 74.9592 60.3416 75.033 60.4553H75.1353V59.4155H76.1069V66.1484C76.1069 66.7109 75.979 67.1683 75.7234 67.5206C75.4705 67.8757 75.1296 68.1357 74.7006 68.3004C74.2745 68.468 73.8001 68.5518 73.2773 68.5518ZM73.2433 64.9553C73.6467 64.9553 73.9876 64.8629 74.266 64.6783C74.5444 64.4936 74.756 64.228 74.9009 63.8814C75.0458 63.5348 75.1183 63.12 75.1183 62.6371C75.1183 62.1655 75.0472 61.7493 74.9052 61.3885C74.7631 61.0277 74.5529 60.745 74.2745 60.5405C73.9961 60.3359 73.6523 60.2337 73.2433 60.2337C72.8171 60.2337 72.462 60.3416 72.1779 60.5575C71.8967 60.7734 71.685 61.0632 71.543 61.4268C71.4038 61.7905 71.3342 62.1939 71.3342 62.6371C71.3342 63.0916 71.4052 63.4936 71.5472 63.843C71.6921 64.1896 71.9052 64.4624 72.1864 64.6612C72.4705 64.8572 72.8228 64.9553 73.2433 64.9553ZM78.5955 68.4155C78.4251 68.4155 78.2731 68.4013 78.1396 68.3729C78.006 68.3473 77.9137 68.3217 77.8626 68.2962L78.1183 67.4098C78.3626 67.4723 78.5785 67.495 78.766 67.478C78.9535 67.4609 79.1197 67.3771 79.2646 67.2266C79.4123 67.0788 79.5472 66.8388 79.6694 66.5064L79.8569 65.995L77.4364 59.4155H78.5273L80.3342 64.6314H80.4023L82.2092 59.4155H83.3001L80.5217 66.9155C80.3967 67.2536 80.2418 67.5334 80.0572 67.755C79.8725 67.9794 79.658 68.1456 79.4137 68.2536C79.1722 68.3615 78.8995 68.4155 78.5955 68.4155Z" fill="black" fill-opacity="0.7"/>
<path d="M28.0795 104.723H27.0227C26.9602 104.419 26.8509 104.152 26.6946 103.922C26.5412 103.691 26.3537 103.498 26.1321 103.342C25.9134 103.183 25.6705 103.064 25.4034 102.984C25.1364 102.904 24.858 102.865 24.5682 102.865C24.0398 102.865 23.5611 102.998 23.1321 103.265C22.706 103.532 22.3665 103.926 22.1136 104.446C21.8636 104.966 21.7386 105.603 21.7386 106.359C21.7386 107.115 21.8636 107.752 22.1136 108.272C22.3665 108.792 22.706 109.186 23.1321 109.453C23.5611 109.72 24.0398 109.853 24.5682 109.853C24.858 109.853 25.1364 109.814 25.4034 109.734C25.6705 109.654 25.9134 109.537 26.1321 109.38C26.3537 109.221 26.5412 109.027 26.6946 108.797C26.8509 108.564 26.9602 108.297 27.0227 107.995H28.0795C28 108.441 27.8551 108.841 27.6449 109.193C27.4347 109.545 27.1733 109.845 26.8608 110.092C26.5483 110.336 26.1974 110.522 25.8082 110.65C25.4219 110.778 25.0085 110.842 24.5682 110.842C23.8239 110.842 23.1619 110.66 22.5824 110.297C22.0028 109.933 21.5469 109.416 21.2145 108.745C20.8821 108.075 20.7159 107.279 20.7159 106.359C20.7159 105.439 20.8821 104.643 21.2145 103.973C21.5469 103.302 22.0028 102.785 22.5824 102.422C23.1619 102.058 23.8239 101.876 24.5682 101.876C25.0085 101.876 25.4219 101.94 25.8082 102.068C26.1974 102.196 26.5483 102.383 26.8608 102.63C27.1733 102.875 27.4347 103.173 27.6449 103.525C27.8551 103.875 28 104.274 28.0795 104.723ZM31.5771 110.876C31.1623 110.876 30.7859 110.798 30.4478 110.642C30.1097 110.483 29.8413 110.254 29.6424 109.956C29.4435 109.654 29.3441 109.291 29.3441 108.865C29.3441 108.49 29.418 108.186 29.5657 107.953C29.7134 107.717 29.9109 107.532 30.158 107.399C30.4052 107.265 30.6779 107.166 30.9762 107.1C31.2773 107.032 31.5799 106.978 31.8839 106.939C32.2816 106.887 32.604 106.849 32.8512 106.824C33.1012 106.795 33.283 106.748 33.3967 106.683C33.5131 106.618 33.5714 106.504 33.5714 106.342V106.308C33.5714 105.887 33.4563 105.561 33.2262 105.328C32.9989 105.095 32.6538 104.978 32.1907 104.978C31.7106 104.978 31.3342 105.083 31.0614 105.294C30.7887 105.504 30.5969 105.728 30.4862 105.967L29.5316 105.626C29.7021 105.228 29.9293 104.919 30.2134 104.697C30.5004 104.473 30.8129 104.316 31.1509 104.228C31.4918 104.137 31.8271 104.092 32.1566 104.092C32.3668 104.092 32.6083 104.118 32.881 104.169C33.1566 104.217 33.4222 104.318 33.6779 104.471C33.9364 104.625 34.1509 104.856 34.3214 105.166C34.4918 105.475 34.5771 105.89 34.5771 106.41V110.723H33.5714V109.836H33.5202C33.4521 109.978 33.3384 110.13 33.1793 110.292C33.0202 110.454 32.8086 110.592 32.5444 110.706C32.2802 110.819 31.9577 110.876 31.5771 110.876ZM31.7305 109.973C32.1282 109.973 32.4634 109.895 32.7362 109.738C33.0117 109.582 33.2191 109.38 33.3583 109.133C33.5004 108.886 33.5714 108.626 33.5714 108.353V107.433C33.5288 107.484 33.435 107.531 33.2901 107.574C33.1481 107.613 32.9833 107.649 32.7958 107.68C32.6112 107.708 32.4308 107.734 32.2546 107.757C32.0813 107.777 31.9407 107.794 31.8327 107.808C31.5714 107.842 31.3271 107.897 31.0998 107.974C30.8754 108.048 30.6935 108.16 30.5543 108.311C30.418 108.458 30.3498 108.66 30.3498 108.916C30.3498 109.265 30.479 109.529 30.7376 109.708C30.9989 109.885 31.3299 109.973 31.7305 109.973ZM36.4126 110.723V104.177H37.3842V105.166H37.4524C37.5717 104.842 37.7876 104.579 38.1001 104.377C38.4126 104.176 38.7649 104.075 39.157 104.075C39.2308 104.075 39.3232 104.076 39.4339 104.079C39.5447 104.082 39.6286 104.086 39.6854 104.092V105.115C39.6513 105.106 39.5732 105.093 39.451 105.076C39.3317 105.056 39.2053 105.047 39.0717 105.047C38.7536 105.047 38.4695 105.113 38.2195 105.247C37.9723 105.377 37.7763 105.559 37.6314 105.792C37.4893 106.022 37.4183 106.285 37.4183 106.581V110.723H36.4126ZM44.3888 110.723V101.995H47.44C48.0479 101.995 48.5494 102.1 48.9442 102.311C49.3391 102.518 49.6332 102.798 49.8263 103.15C50.0195 103.5 50.1161 103.887 50.1161 104.314C50.1161 104.689 50.0494 104.998 49.9158 105.243C49.7852 105.487 49.6119 105.68 49.396 105.822C49.1829 105.964 48.9513 106.069 48.7013 106.137V106.223C48.9684 106.24 49.2369 106.333 49.5067 106.504C49.7766 106.674 50.0025 106.919 50.1843 107.237C50.3661 107.555 50.457 107.944 50.457 108.404C50.457 108.842 50.3576 109.235 50.1587 109.585C49.9599 109.934 49.646 110.211 49.217 110.416C48.788 110.62 48.2298 110.723 47.5423 110.723H44.3888ZM45.4457 109.785H47.5423C48.2326 109.785 48.7227 109.652 49.0124 109.385C49.305 109.115 49.4513 108.788 49.4513 108.404C49.4513 108.109 49.3761 107.836 49.2255 107.586C49.0749 107.333 48.8604 107.132 48.582 106.981C48.3036 106.828 47.9741 106.751 47.5934 106.751H45.4457V109.785ZM45.4457 105.831H47.4059C47.7241 105.831 48.011 105.768 48.2667 105.643C48.5252 105.518 48.7298 105.342 48.8803 105.115C49.0337 104.887 49.1104 104.62 49.1104 104.314C49.1104 103.93 48.9769 103.605 48.7099 103.338C48.4428 103.068 48.0195 102.933 47.44 102.933H45.4457V105.831ZM52.0572 110.723V104.177H53.0288V105.166H53.0969C53.2163 104.842 53.4322 104.579 53.7447 104.377C54.0572 104.176 54.4094 104.075 54.8015 104.075C54.8754 104.075 54.9677 104.076 55.0785 104.079C55.1893 104.082 55.2731 104.086 55.3299 104.092V105.115C55.2958 105.106 55.2177 105.093 55.0955 105.076C54.9762 105.056 54.8498 105.047 54.7163 105.047C54.3981 105.047 54.114 105.113 53.864 105.247C53.6168 105.377 53.4208 105.559 53.2759 105.792C53.1339 106.022 53.0629 106.285 53.0629 106.581V110.723H52.0572ZM58.4482 110.876C58.0334 110.876 57.657 110.798 57.3189 110.642C56.9808 110.483 56.7124 110.254 56.5135 109.956C56.3146 109.654 56.2152 109.291 56.2152 108.865C56.2152 108.49 56.2891 108.186 56.4368 107.953C56.5845 107.717 56.782 107.532 57.0291 107.399C57.2763 107.265 57.549 107.166 57.8473 107.1C58.1484 107.032 58.451 106.978 58.755 106.939C59.1527 106.887 59.4751 106.849 59.7223 106.824C59.9723 106.795 60.1541 106.748 60.2678 106.683C60.3842 106.618 60.4425 106.504 60.4425 106.342V106.308C60.4425 105.887 60.3274 105.561 60.0973 105.328C59.87 105.095 59.5249 104.978 59.0618 104.978C58.5817 104.978 58.2053 105.083 57.9325 105.294C57.6598 105.504 57.468 105.728 57.3572 105.967L56.4027 105.626C56.5732 105.228 56.8004 104.919 57.0845 104.697C57.3714 104.473 57.6839 104.316 58.022 104.228C58.3629 104.137 58.6982 104.092 59.0277 104.092C59.2379 104.092 59.4794 104.118 59.7521 104.169C60.0277 104.217 60.2933 104.318 60.549 104.471C60.8075 104.625 61.022 104.856 61.1925 105.166C61.3629 105.475 61.4482 105.89 61.4482 106.41V110.723H60.4425V109.836H60.3913C60.3232 109.978 60.2095 110.13 60.0504 110.292C59.8913 110.454 59.6797 110.592 59.4155 110.706C59.1513 110.819 58.8288 110.876 58.4482 110.876ZM58.6016 109.973C58.9993 109.973 59.3345 109.895 59.6072 109.738C59.8828 109.582 60.0902 109.38 60.2294 109.133C60.3714 108.886 60.4425 108.626 60.4425 108.353V107.433C60.3999 107.484 60.3061 107.531 60.1612 107.574C60.0192 107.613 59.8544 107.649 59.6669 107.68C59.4822 107.708 59.3018 107.734 59.1257 107.757C58.9524 107.777 58.8118 107.794 58.7038 107.808C58.4425 107.842 58.1982 107.897 57.9709 107.974C57.7464 108.048 57.5646 108.16 57.4254 108.311C57.2891 108.458 57.2209 108.66 57.2209 108.916C57.2209 109.265 57.3501 109.529 57.6087 109.708C57.87 109.885 58.201 109.973 58.6016 109.973ZM64.2894 106.785V110.723H63.2837V104.177H64.2553V105.2H64.3406C64.494 104.868 64.7269 104.6 65.0394 104.399C65.3519 104.194 65.7553 104.092 66.2496 104.092C66.6928 104.092 67.0806 104.183 67.413 104.365C67.7454 104.544 68.0039 104.816 68.1886 105.183C68.3732 105.547 68.4656 106.007 68.4656 106.564V110.723H67.4599V106.632C67.4599 106.118 67.3263 105.717 67.0593 105.43C66.7923 105.14 66.4258 104.995 65.9599 104.995C65.6388 104.995 65.3519 105.065 65.0991 105.204C64.8491 105.343 64.6516 105.547 64.5067 105.814C64.3619 106.081 64.2894 106.404 64.2894 106.785ZM72.7749 110.859C72.2294 110.859 71.7479 110.721 71.3303 110.446C70.9126 110.167 70.5859 109.775 70.3501 109.27C70.1143 108.761 69.9964 108.16 69.9964 107.467C69.9964 106.779 70.1143 106.183 70.3501 105.677C70.5859 105.172 70.9141 104.781 71.3345 104.505C71.755 104.23 72.2408 104.092 72.7919 104.092C73.218 104.092 73.5547 104.163 73.8018 104.305C74.0518 104.444 74.2422 104.603 74.3729 104.782C74.5064 104.958 74.6101 105.103 74.6839 105.217H74.7692V101.995H75.7749V110.723H74.8033V109.717H74.6839C74.6101 109.836 74.505 109.987 74.3686 110.169C74.2322 110.348 74.0376 110.508 73.7848 110.65C73.532 110.789 73.1953 110.859 72.7749 110.859ZM72.9112 109.956C73.3146 109.956 73.6555 109.85 73.9339 109.64C74.2124 109.427 74.424 109.133 74.5689 108.758C74.7138 108.38 74.7862 107.944 74.7862 107.45C74.7862 106.961 74.7152 106.534 74.5732 106.167C74.4311 105.798 74.2209 105.511 73.9425 105.306C73.6641 105.099 73.3203 104.995 72.9112 104.995C72.4851 104.995 72.13 105.105 71.8459 105.324C71.5646 105.539 71.353 105.833 71.2109 106.206C71.0717 106.575 71.0021 106.99 71.0021 107.45C71.0021 107.916 71.0732 108.339 71.2152 108.72C71.3601 109.098 71.5732 109.399 71.8544 109.623C72.1385 109.845 72.4908 109.956 72.9112 109.956ZM82.3928 105.643L81.4893 105.899C81.4325 105.748 81.3487 105.602 81.2379 105.46C81.13 105.315 80.9822 105.196 80.7947 105.102C80.6072 105.008 80.3672 104.961 80.0746 104.961C79.674 104.961 79.3402 105.054 79.0732 105.238C78.8089 105.42 78.6768 105.652 78.6768 105.933C78.6768 106.183 78.7678 106.38 78.9496 106.525C79.1314 106.67 79.4155 106.791 79.8018 106.887L80.7734 107.126C81.3587 107.268 81.7947 107.485 82.0817 107.778C82.3686 108.068 82.5121 108.441 82.5121 108.899C82.5121 109.274 82.4041 109.609 82.1882 109.904C81.9751 110.2 81.6768 110.433 81.2933 110.603C80.9098 110.774 80.4638 110.859 79.9553 110.859C79.2876 110.859 78.7351 110.714 78.2976 110.424C77.8601 110.135 77.5831 109.711 77.4666 109.154L78.4212 108.916C78.5121 109.268 78.6839 109.532 78.9368 109.708C79.1925 109.885 79.5263 109.973 79.9382 109.973C80.407 109.973 80.7791 109.873 81.0547 109.674C81.3331 109.473 81.4723 109.231 81.4723 108.95C81.4723 108.723 81.3928 108.532 81.2337 108.379C81.0746 108.223 80.8303 108.106 80.5007 108.029L79.4098 107.774C78.8104 107.632 78.37 107.412 78.0888 107.113C77.8104 106.812 77.6712 106.436 77.6712 105.984C77.6712 105.615 77.7749 105.288 77.9822 105.004C78.1925 104.72 78.478 104.497 78.8388 104.335C79.2024 104.173 79.6143 104.092 80.0746 104.092C80.7223 104.092 81.2308 104.234 81.6001 104.518C81.9723 104.802 82.2365 105.177 82.3928 105.643Z" fill="black" fill-opacity="0.7"/>
<path d="M43.4148 155.484H42.3068L45.5114 146.757H46.6023L49.8068 155.484H48.6989L46.0909 148.138H46.0227L43.4148 155.484ZM43.8239 152.075H48.2898V153.013H43.8239V152.075ZM51.1001 155.484V148.939H52.1058V155.484H51.1001ZM51.6115 147.848C51.4155 147.848 51.2464 147.781 51.1044 147.648C50.9652 147.514 50.8956 147.354 50.8956 147.166C50.8956 146.979 50.9652 146.818 51.1044 146.685C51.2464 146.551 51.4155 146.484 51.6115 146.484C51.8075 146.484 51.9751 146.551 52.1143 146.685C52.2564 146.818 52.3274 146.979 52.3274 147.166C52.3274 147.354 52.2564 147.514 52.1143 147.648C51.9751 147.781 51.8075 147.848 51.6115 147.848ZM53.9478 155.484V148.939H54.9194V149.928H54.9876C55.1069 149.604 55.3228 149.341 55.6353 149.139C55.9478 148.937 56.3001 148.837 56.6921 148.837C56.766 148.837 56.8583 148.838 56.9691 148.841C57.0799 148.844 57.1637 148.848 57.2205 148.854V149.876C57.1864 149.868 57.1083 149.855 56.9862 149.838C56.8668 149.818 56.7404 149.808 56.6069 149.808C56.2887 149.808 56.0046 149.875 55.7546 150.009C55.5075 150.139 55.3114 150.321 55.1665 150.554C55.0245 150.784 54.9535 151.047 54.9535 151.342V155.484H53.9478ZM59.4183 146.757V155.484H58.4126V146.757H59.4183ZM61.2603 155.484V148.939H62.266V155.484H61.2603ZM61.7717 147.848C61.5756 147.848 61.4066 147.781 61.2646 147.648C61.1254 147.514 61.0558 147.354 61.0558 147.166C61.0558 146.979 61.1254 146.818 61.2646 146.685C61.4066 146.551 61.5756 146.484 61.7717 146.484C61.9677 146.484 62.1353 146.551 62.2745 146.685C62.4165 146.818 62.4876 146.979 62.4876 147.166C62.4876 147.354 62.4165 147.514 62.2745 147.648C62.1353 147.781 61.9677 147.848 61.7717 147.848ZM65.1136 151.547V155.484H64.108V148.939H65.0795V149.962H65.1648C65.3182 149.629 65.5511 149.362 65.8636 149.161C66.1761 148.956 66.5795 148.854 67.0739 148.854C67.517 148.854 67.9048 148.945 68.2372 149.126C68.5696 149.305 68.8281 149.578 69.0128 149.945C69.1974 150.308 69.2898 150.768 69.2898 151.325V155.484H68.2841V151.393C68.2841 150.879 68.1506 150.479 67.8835 150.192C67.6165 149.902 67.25 149.757 66.7841 149.757C66.4631 149.757 66.1761 149.827 65.9233 149.966C65.6733 150.105 65.4759 150.308 65.331 150.575C65.1861 150.842 65.1136 151.166 65.1136 151.547ZM73.8718 155.621C73.2411 155.621 72.6971 155.482 72.2397 155.203C71.7852 154.922 71.4343 154.53 71.1871 154.027C70.9428 153.521 70.8207 152.933 70.8207 152.263C70.8207 151.592 70.9428 151.001 71.1871 150.49C71.4343 149.976 71.7781 149.575 72.2184 149.288C72.6616 148.999 73.1786 148.854 73.7695 148.854C74.1104 148.854 74.4471 148.911 74.7795 149.024C75.1119 149.138 75.4144 149.322 75.6871 149.578C75.9599 149.831 76.1772 150.166 76.3391 150.584C76.5011 151.001 76.582 151.516 76.582 152.126V152.553H71.5366V151.683H75.5593C75.5593 151.314 75.4854 150.984 75.3377 150.695C75.1928 150.405 74.9854 150.176 74.7156 150.009C74.4485 149.841 74.1332 149.757 73.7695 149.757C73.369 149.757 73.0224 149.857 72.7298 150.055C72.44 150.251 72.217 150.507 72.0607 150.822C71.9045 151.138 71.8263 151.476 71.8263 151.837V152.416C71.8263 152.911 71.9116 153.33 72.082 153.673C72.2553 154.014 72.4954 154.274 72.8022 154.453C73.109 154.629 73.4656 154.717 73.8718 154.717C74.136 154.717 74.3746 154.68 74.5877 154.607C74.8036 154.53 74.9897 154.416 75.146 154.266C75.3022 154.112 75.4229 153.922 75.5082 153.695L76.4798 153.967C76.3775 154.297 76.2056 154.587 75.9641 154.837C75.7227 155.084 75.4244 155.277 75.0692 155.416C74.7141 155.553 74.315 155.621 73.8718 155.621ZM82.7482 150.405L81.8448 150.661C81.788 150.51 81.7042 150.364 81.5934 150.222C81.4854 150.077 81.3377 149.957 81.1502 149.864C80.9627 149.77 80.7227 149.723 80.43 149.723C80.0295 149.723 79.6957 149.815 79.4286 150C79.1644 150.182 79.0323 150.413 79.0323 150.695C79.0323 150.945 79.1232 151.142 79.305 151.287C79.4869 151.432 79.771 151.553 80.1573 151.649L81.1289 151.888C81.7141 152.03 82.1502 152.247 82.4371 152.54C82.7241 152.83 82.8675 153.203 82.8675 153.661C82.8675 154.036 82.7596 154.371 82.5437 154.666C82.3306 154.962 82.0323 155.195 81.6488 155.365C81.2653 155.536 80.8192 155.621 80.3107 155.621C79.6431 155.621 79.0906 155.476 78.6531 155.186C78.2156 154.896 77.9386 154.473 77.8221 153.916L78.7766 153.678C78.8675 154.03 79.0394 154.294 79.2923 154.47C79.5479 154.646 79.8817 154.734 80.2937 154.734C80.7624 154.734 81.1346 154.635 81.4102 154.436C81.6886 154.234 81.8278 153.993 81.8278 153.712C81.8278 153.484 81.7482 153.294 81.5891 153.141C81.43 152.984 81.1857 152.868 80.8562 152.791L79.7653 152.536C79.1658 152.393 78.7255 152.173 78.4442 151.875C78.1658 151.574 78.0266 151.197 78.0266 150.746C78.0266 150.376 78.1303 150.05 78.3377 149.766C78.5479 149.482 78.8335 149.259 79.1942 149.097C79.5579 148.935 79.9698 148.854 80.43 148.854C81.0778 148.854 81.5863 148.996 81.9556 149.28C82.3278 149.564 82.592 149.939 82.7482 150.405Z" fill="black" fill-opacity="0.7"/>
<path d="M45.0568 200.246V191.519H50.3239V192.456H46.1136V195.405H50.0511V196.343H46.1136V199.309H50.392V200.246H45.0568ZM53.098 196.309V200.246H52.0923V193.701H53.0639V194.723H53.1491C53.3026 194.391 53.5355 194.124 53.848 193.922C54.1605 193.718 54.5639 193.615 55.0582 193.615C55.5014 193.615 55.8892 193.706 56.2216 193.888C56.554 194.067 56.8125 194.34 56.9972 194.706C57.1818 195.07 57.2741 195.53 57.2741 196.087V200.246H56.2685V196.155C56.2685 195.641 56.1349 195.24 55.8679 194.953C55.6009 194.664 55.2344 194.519 54.7685 194.519C54.4474 194.519 54.1605 194.588 53.9077 194.728C53.6577 194.867 53.4602 195.07 53.3153 195.337C53.1705 195.604 53.098 195.928 53.098 196.309ZM61.8562 200.382C61.2255 200.382 60.6815 200.243 60.2241 199.965C59.7695 199.684 59.4187 199.292 59.1715 198.789C58.9272 198.283 58.805 197.695 58.805 197.025C58.805 196.354 58.9272 195.763 59.1715 195.252C59.4187 194.738 59.7624 194.337 60.2028 194.05C60.646 193.76 61.163 193.615 61.7539 193.615C62.0948 193.615 62.4315 193.672 62.7638 193.786C63.0962 193.9 63.3988 194.084 63.6715 194.34C63.9442 194.593 64.1616 194.928 64.3235 195.346C64.4854 195.763 64.5664 196.277 64.5664 196.888V197.314H59.521V196.445H63.5437C63.5437 196.076 63.4698 195.746 63.3221 195.456C63.1772 195.167 62.9698 194.938 62.6999 194.77C62.4329 194.603 62.1175 194.519 61.7539 194.519C61.3533 194.519 61.0067 194.618 60.7141 194.817C60.4244 195.013 60.2013 195.269 60.0451 195.584C59.8888 195.9 59.8107 196.238 59.8107 196.598V197.178C59.8107 197.672 59.896 198.091 60.0664 198.435C60.2397 198.776 60.4798 199.036 60.7866 199.215C61.0934 199.391 61.4499 199.479 61.8562 199.479C62.1204 199.479 62.359 199.442 62.5721 199.368C62.788 199.292 62.9741 199.178 63.1303 199.027C63.2866 198.874 63.4073 198.684 63.4925 198.456L64.4641 198.729C64.3619 199.059 64.19 199.348 63.9485 199.598C63.707 199.846 63.4087 200.039 63.0536 200.178C62.6985 200.314 62.2994 200.382 61.8562 200.382ZM66.0962 200.246V193.701H67.0678V194.689H67.136C67.2553 194.365 67.4712 194.103 67.7837 193.901C68.0962 193.699 68.4485 193.598 68.8406 193.598C68.9144 193.598 69.0067 193.6 69.1175 193.603C69.2283 193.605 69.3121 193.61 69.369 193.615V194.638C69.3349 194.63 69.2567 194.617 69.1346 194.6C69.0153 194.58 68.8888 194.57 68.7553 194.57C68.4371 194.57 68.1531 194.637 67.9031 194.77C67.6559 194.901 67.4599 195.083 67.315 195.316C67.1729 195.546 67.1019 195.809 67.1019 196.104V200.246H66.0962ZM73.0039 202.837C72.5181 202.837 72.1005 202.775 71.7511 202.65C71.4016 202.527 71.1104 202.365 70.8775 202.164C70.6474 201.965 70.4641 201.752 70.3278 201.525L71.1289 200.962C71.2198 201.081 71.3349 201.218 71.4741 201.371C71.6133 201.527 71.8036 201.662 72.0451 201.776C72.2894 201.892 72.609 201.951 73.0039 201.951C73.5323 201.951 73.9684 201.823 74.3121 201.567C74.6559 201.311 74.8278 200.911 74.8278 200.365V199.036H74.7425C74.6687 199.155 74.5636 199.303 74.4272 199.479C74.2937 199.652 74.1005 199.807 73.8477 199.944C73.5977 200.077 73.2596 200.144 72.8335 200.144C72.305 200.144 71.8306 200.019 71.4102 199.769C70.9925 199.519 70.6616 199.155 70.4173 198.678C70.1758 198.201 70.055 197.621 70.055 196.939C70.055 196.269 70.1729 195.685 70.4087 195.188C70.6445 194.688 70.9727 194.301 71.3931 194.029C71.8136 193.753 72.2994 193.615 72.8505 193.615C73.2766 193.615 73.6147 193.686 73.8647 193.828C74.1175 193.968 74.3107 194.127 74.4442 194.306C74.5806 194.482 74.6857 194.627 74.7596 194.74H74.8619V193.701H75.8335V200.434C75.8335 200.996 75.7056 201.453 75.4499 201.806C75.1971 202.161 74.8562 202.421 74.4272 202.586C74.0011 202.753 73.5266 202.837 73.0039 202.837ZM72.9698 199.24C73.3732 199.24 73.7141 199.148 73.9925 198.963C74.271 198.779 74.4826 198.513 74.6275 198.167C74.7724 197.82 74.8448 197.405 74.8448 196.922C74.8448 196.451 74.7738 196.034 74.6317 195.674C74.4897 195.313 74.2795 195.03 74.0011 194.826C73.7227 194.621 73.3789 194.519 72.9698 194.519C72.5437 194.519 72.1886 194.627 71.9045 194.843C71.6232 195.059 71.4116 195.348 71.2695 195.712C71.1303 196.076 71.0607 196.479 71.0607 196.922C71.0607 197.377 71.1317 197.779 71.2738 198.128C71.4187 198.475 71.6317 198.748 71.913 198.946C72.1971 199.142 72.5494 199.24 72.9698 199.24ZM78.3221 202.701C78.1516 202.701 77.9996 202.686 77.8661 202.658C77.7326 202.632 77.6403 202.607 77.5891 202.581L77.8448 201.695C78.0891 201.757 78.305 201.78 78.4925 201.763C78.68 201.746 78.8462 201.662 78.9911 201.512C79.1388 201.364 79.2738 201.124 79.396 200.792L79.5835 200.28L77.163 193.701H78.2539L80.0607 198.917H80.1289L81.9357 193.701H83.0266L80.2482 201.201C80.1232 201.539 79.9684 201.819 79.7837 202.04C79.5991 202.265 79.3846 202.431 79.1403 202.539C78.8988 202.647 78.6261 202.701 78.3221 202.701Z" fill="black" fill-opacity="0.7"/>
<path d="M18.5795 237.218V236.281H25.125V237.218H22.3807V245.008H21.3239V237.218H18.5795ZM28.4148 245.144C27.7841 245.144 27.2401 245.005 26.7827 244.727C26.3281 244.445 25.9773 244.053 25.7301 243.55C25.4858 243.045 25.3636 242.457 25.3636 241.786C25.3636 241.116 25.4858 240.525 25.7301 240.013C25.9773 239.499 26.321 239.099 26.7614 238.812C27.2045 238.522 27.7216 238.377 28.3125 238.377C28.6534 238.377 28.9901 238.434 29.3224 238.548C29.6548 238.661 29.9574 238.846 30.2301 239.102C30.5028 239.354 30.7202 239.69 30.8821 240.107C31.044 240.525 31.125 241.039 31.125 241.65V242.076H26.0795V241.207H30.1023C30.1023 240.837 30.0284 240.508 29.8807 240.218C29.7358 239.928 29.5284 239.7 29.2585 239.532C28.9915 239.364 28.6761 239.281 28.3125 239.281C27.9119 239.281 27.5653 239.38 27.2727 239.579C26.983 239.775 26.7599 240.031 26.6037 240.346C26.4474 240.661 26.3693 240.999 26.3693 241.36V241.94C26.3693 242.434 26.4545 242.853 26.625 243.197C26.7983 243.538 27.0384 243.798 27.3452 243.977C27.652 244.153 28.0085 244.241 28.4148 244.241C28.679 244.241 28.9176 244.204 29.1307 244.13C29.3466 244.053 29.5327 243.94 29.6889 243.789C29.8452 243.636 29.9659 243.445 30.0511 243.218L31.0227 243.491C30.9205 243.82 30.7486 244.11 30.5071 244.36C30.2656 244.607 29.9673 244.8 29.6122 244.94C29.2571 245.076 28.858 245.144 28.4148 245.144ZM35.3139 245.144C34.7003 245.144 34.1719 244.999 33.7287 244.71C33.2855 244.42 32.9446 244.021 32.706 243.512C32.4673 243.004 32.348 242.423 32.348 241.769C32.348 241.104 32.4702 240.518 32.7145 240.009C32.9616 239.498 33.3054 239.099 33.7457 238.812C34.1889 238.522 34.706 238.377 35.2969 238.377C35.7571 238.377 36.1719 238.462 36.5412 238.633C36.9105 238.803 37.2131 239.042 37.4489 239.349C37.6847 239.656 37.831 240.013 37.8878 240.423H36.8821C36.8054 240.124 36.6349 239.86 36.3707 239.63C36.1094 239.397 35.7571 239.281 35.3139 239.281C34.9219 239.281 34.5781 239.383 34.2827 239.587C33.9901 239.789 33.7614 240.075 33.5966 240.444C33.4347 240.81 33.3537 241.241 33.3537 241.735C33.3537 242.241 33.4332 242.681 33.5923 243.056C33.7543 243.431 33.9815 243.722 34.2741 243.93C34.5696 244.137 34.9162 244.241 35.3139 244.241C35.5753 244.241 35.8125 244.195 36.0256 244.104C36.2386 244.013 36.419 243.883 36.5668 243.712C36.7145 243.542 36.8196 243.337 36.8821 243.099H37.8878C37.831 243.485 37.6903 243.833 37.4659 244.143C37.2443 244.45 36.9503 244.694 36.5838 244.876C36.2202 245.055 35.7969 245.144 35.3139 245.144ZM40.3636 241.07V245.008H39.358V236.281H40.3636V239.485H40.4489C40.6023 239.147 40.8324 238.879 41.1392 238.68C41.4489 238.478 41.8608 238.377 42.375 238.377C42.821 238.377 43.2116 238.467 43.5469 238.646C43.8821 238.822 44.142 239.093 44.3267 239.46C44.5142 239.823 44.608 240.286 44.608 240.849V245.008H43.6023V240.917C43.6023 240.397 43.4673 239.995 43.1974 239.711C42.9304 239.424 42.5597 239.281 42.0852 239.281C41.7557 239.281 41.4602 239.35 41.1989 239.489C40.9403 239.629 40.7358 239.832 40.5852 240.099C40.4375 240.366 40.3636 240.69 40.3636 241.07ZM47.4535 241.07V245.008H46.4478V238.462H47.4194V239.485H47.5046C47.658 239.153 47.891 238.886 48.2035 238.684C48.516 238.479 48.9194 238.377 49.4137 238.377C49.8569 238.377 50.2447 238.468 50.5771 238.65C50.9094 238.829 51.168 239.102 51.3526 239.468C51.5373 239.832 51.6296 240.292 51.6296 240.849V245.008H50.6239V240.917C50.6239 240.403 50.4904 240.002 50.2234 239.715C49.9563 239.425 49.5898 239.281 49.1239 239.281C48.8029 239.281 48.516 239.35 48.2631 239.489C48.0131 239.629 47.8157 239.832 47.6708 240.099C47.5259 240.366 47.4535 240.69 47.4535 241.07ZM56.1264 245.144C55.5355 245.144 55.017 245.004 54.571 244.722C54.1278 244.441 53.7812 244.048 53.5312 243.542C53.2841 243.036 53.1605 242.445 53.1605 241.769C53.1605 241.087 53.2841 240.492 53.5312 239.984C53.7812 239.475 54.1278 239.08 54.571 238.799C55.017 238.518 55.5355 238.377 56.1264 238.377C56.7173 238.377 57.2344 238.518 57.6776 238.799C58.1236 239.08 58.4702 239.475 58.7173 239.984C58.9673 240.492 59.0923 241.087 59.0923 241.769C59.0923 242.445 58.9673 243.036 58.7173 243.542C58.4702 244.048 58.1236 244.441 57.6776 244.722C57.2344 245.004 56.7173 245.144 56.1264 245.144ZM56.1264 244.241C56.5753 244.241 56.9446 244.126 57.2344 243.896C57.5241 243.665 57.7386 243.363 57.8778 242.988C58.017 242.613 58.0866 242.207 58.0866 241.769C58.0866 241.332 58.017 240.924 57.8778 240.546C57.7386 240.168 57.5241 239.863 57.2344 239.63C56.9446 239.397 56.5753 239.281 56.1264 239.281C55.6776 239.281 55.3082 239.397 55.0185 239.63C54.7287 239.863 54.5142 240.168 54.375 240.546C54.2358 240.924 54.1662 241.332 54.1662 241.769C54.1662 242.207 54.2358 242.613 54.375 242.988C54.5142 243.363 54.7287 243.665 55.0185 243.896C55.3082 244.126 55.6776 244.241 56.1264 244.241ZM61.6332 236.281V245.008H60.6275V236.281H61.6332ZM66.1342 245.144C65.5433 245.144 65.0249 245.004 64.5788 244.722C64.1357 244.441 63.7891 244.048 63.5391 243.542C63.2919 243.036 63.1683 242.445 63.1683 241.769C63.1683 241.087 63.2919 240.492 63.5391 239.984C63.7891 239.475 64.1357 239.08 64.5788 238.799C65.0249 238.518 65.5433 238.377 66.1342 238.377C66.7251 238.377 67.2422 238.518 67.6854 238.799C68.1314 239.08 68.478 239.475 68.7251 239.984C68.9751 240.492 69.1001 241.087 69.1001 241.769C69.1001 242.445 68.9751 243.036 68.7251 243.542C68.478 244.048 68.1314 244.441 67.6854 244.722C67.2422 245.004 66.7251 245.144 66.1342 245.144ZM66.1342 244.241C66.5831 244.241 66.9524 244.126 67.2422 243.896C67.532 243.665 67.7464 243.363 67.8857 242.988C68.0249 242.613 68.0945 242.207 68.0945 241.769C68.0945 241.332 68.0249 240.924 67.8857 240.546C67.7464 240.168 67.532 239.863 67.2422 239.63C66.9524 239.397 66.5831 239.281 66.1342 239.281C65.6854 239.281 65.3161 239.397 65.0263 239.63C64.7365 239.863 64.522 240.168 64.3828 240.546C64.2436 240.924 64.174 241.332 64.174 241.769C64.174 242.207 64.2436 242.613 64.3828 242.988C64.522 243.363 64.7365 243.665 65.0263 243.896C65.3161 244.126 65.6854 244.241 66.1342 244.241ZM73.2773 247.599C72.7915 247.599 72.3739 247.536 72.0245 247.411C71.6751 247.289 71.3839 247.127 71.1509 246.925C70.9208 246.727 70.7376 246.513 70.6012 246.286L71.4023 245.724C71.4933 245.843 71.6083 245.979 71.7475 246.133C71.8867 246.289 72.0771 246.424 72.3185 246.538C72.5629 246.654 72.8825 246.712 73.2773 246.712C73.8058 246.712 74.2418 246.585 74.5856 246.329C74.9293 246.073 75.1012 245.673 75.1012 245.127V243.798H75.016C74.9421 243.917 74.837 244.065 74.7006 244.241C74.5671 244.414 74.3739 244.569 74.1211 244.705C73.8711 244.839 73.533 244.906 73.1069 244.906C72.5785 244.906 72.104 244.781 71.6836 244.531C71.266 244.281 70.935 243.917 70.6907 243.44C70.4492 242.962 70.3285 242.383 70.3285 241.701C70.3285 241.031 70.4464 240.447 70.6822 239.95C70.918 239.45 71.2461 239.063 71.6665 238.79C72.087 238.515 72.5728 238.377 73.1239 238.377C73.5501 238.377 73.8881 238.448 74.1381 238.59C74.391 238.729 74.5842 238.888 74.7177 239.067C74.854 239.244 74.9592 239.388 75.033 239.502H75.1353V238.462H76.1069V245.195C76.1069 245.758 75.979 246.215 75.7234 246.567C75.4705 246.923 75.1296 247.183 74.7006 247.347C74.2745 247.515 73.8001 247.599 73.2773 247.599ZM73.2433 244.002C73.6467 244.002 73.9876 243.91 74.266 243.725C74.5444 243.54 74.756 243.275 74.9009 242.928C75.0458 242.582 75.1183 242.167 75.1183 241.684C75.1183 241.212 75.0472 240.796 74.9052 240.435C74.7631 240.075 74.5529 239.792 74.2745 239.587C73.9961 239.383 73.6523 239.281 73.2433 239.281C72.8171 239.281 72.462 239.388 72.1779 239.604C71.8967 239.82 71.685 240.11 71.543 240.474C71.4038 240.837 71.3342 241.241 71.3342 241.684C71.3342 242.138 71.4052 242.54 71.5472 242.89C71.6921 243.237 71.9052 243.509 72.1864 243.708C72.4705 243.904 72.8228 244.002 73.2433 244.002ZM78.5955 247.462C78.4251 247.462 78.2731 247.448 78.1396 247.42C78.006 247.394 77.9137 247.369 77.8626 247.343L78.1183 246.457C78.3626 246.519 78.5785 246.542 78.766 246.525C78.9535 246.508 79.1197 246.424 79.2646 246.273C79.4123 246.126 79.5472 245.886 79.6694 245.553L79.8569 245.042L77.4364 238.462H78.5273L80.3342 243.678H80.4023L82.2092 238.462H83.3001L80.5217 245.962C80.3967 246.3 80.2418 246.58 80.0572 246.802C79.8725 247.026 79.658 247.192 79.4137 247.3C79.1722 247.408 78.8995 247.462 78.5955 247.462Z" fill="black" fill-opacity="0.7"/>
<path d="M28.0795 283.773H27.0227C26.9602 283.469 26.8509 283.202 26.6946 282.972C26.5412 282.742 26.3537 282.549 26.1321 282.393C25.9134 282.234 25.6705 282.114 25.4034 282.035C25.1364 281.955 24.858 281.915 24.5682 281.915C24.0398 281.915 23.5611 282.049 23.1321 282.316C22.706 282.583 22.3665 282.977 22.1136 283.496C21.8636 284.016 21.7386 284.654 21.7386 285.41C21.7386 286.165 21.8636 286.803 22.1136 287.323C22.3665 287.843 22.706 288.237 23.1321 288.504C23.5611 288.771 24.0398 288.904 24.5682 288.904C24.858 288.904 25.1364 288.864 25.4034 288.785C25.6705 288.705 25.9134 288.587 26.1321 288.431C26.3537 288.272 26.5412 288.077 26.6946 287.847C26.8509 287.614 26.9602 287.347 27.0227 287.046H28.0795C28 287.492 27.8551 287.891 27.6449 288.244C27.4347 288.596 27.1733 288.896 26.8608 289.143C26.5483 289.387 26.1974 289.573 25.8082 289.701C25.4219 289.829 25.0085 289.893 24.5682 289.893C23.8239 289.893 23.1619 289.711 22.5824 289.347C22.0028 288.984 21.5469 288.467 21.2145 287.796C20.8821 287.126 20.7159 286.33 20.7159 285.41C20.7159 284.489 20.8821 283.694 21.2145 283.023C21.5469 282.353 22.0028 281.836 22.5824 281.472C23.1619 281.109 23.8239 280.927 24.5682 280.927C25.0085 280.927 25.4219 280.991 25.8082 281.119C26.1974 281.246 26.5483 281.434 26.8608 281.681C27.1733 281.925 27.4347 282.224 27.6449 282.576C27.8551 282.925 28 283.325 28.0795 283.773ZM31.5771 289.927C31.1623 289.927 30.7859 289.849 30.4478 289.692C30.1097 289.533 29.8413 289.305 29.6424 289.006C29.4435 288.705 29.3441 288.342 29.3441 287.915C29.3441 287.54 29.418 287.237 29.5657 287.004C29.7134 286.768 29.9109 286.583 30.158 286.45C30.4052 286.316 30.6779 286.217 30.9762 286.151C31.2773 286.083 31.5799 286.029 31.8839 285.989C32.2816 285.938 32.604 285.9 32.8512 285.874C33.1012 285.846 33.283 285.799 33.3967 285.734C33.5131 285.668 33.5714 285.555 33.5714 285.393V285.359C33.5714 284.938 33.4563 284.612 33.2262 284.379C32.9989 284.146 32.6538 284.029 32.1907 284.029C31.7106 284.029 31.3342 284.134 31.0614 284.344C30.7887 284.555 30.5969 284.779 30.4862 285.018L29.5316 284.677C29.7021 284.279 29.9293 283.969 30.2134 283.748C30.5004 283.523 30.8129 283.367 31.1509 283.279C31.4918 283.188 31.8271 283.143 32.1566 283.143C32.3668 283.143 32.6083 283.168 32.881 283.219C33.1566 283.268 33.4222 283.369 33.6779 283.522C33.9364 283.675 34.1509 283.907 34.3214 284.217C34.4918 284.526 34.5771 284.941 34.5771 285.461V289.773H33.5714V288.887H33.5202C33.4521 289.029 33.3384 289.181 33.1793 289.343C33.0202 289.505 32.8086 289.643 32.5444 289.756C32.2802 289.87 31.9577 289.927 31.5771 289.927ZM31.7305 289.023C32.1282 289.023 32.4634 288.945 32.7362 288.789C33.0117 288.633 33.2191 288.431 33.3583 288.184C33.5004 287.937 33.5714 287.677 33.5714 287.404V286.484C33.5288 286.535 33.435 286.582 33.2901 286.624C33.1481 286.664 32.9833 286.7 32.7958 286.731C32.6112 286.759 32.4308 286.785 32.2546 286.808C32.0813 286.827 31.9407 286.844 31.8327 286.859C31.5714 286.893 31.3271 286.948 31.0998 287.025C30.8754 287.099 30.6935 287.211 30.5543 287.362C30.418 287.509 30.3498 287.711 30.3498 287.967C30.3498 288.316 30.479 288.58 30.7376 288.759C30.9989 288.935 31.3299 289.023 31.7305 289.023ZM36.4126 289.773V283.228H37.3842V284.217H37.4524C37.5717 283.893 37.7876 283.63 38.1001 283.428C38.4126 283.227 38.7649 283.126 39.157 283.126C39.2308 283.126 39.3232 283.127 39.4339 283.13C39.5447 283.133 39.6286 283.137 39.6854 283.143V284.165C39.6513 284.157 39.5732 284.144 39.451 284.127C39.3317 284.107 39.2053 284.097 39.0717 284.097C38.7536 284.097 38.4695 284.164 38.2195 284.298C37.9723 284.428 37.7763 284.61 37.6314 284.843C37.4893 285.073 37.4183 285.336 37.4183 285.631V289.773H36.4126ZM44.3888 289.773V281.046H47.44C48.0479 281.046 48.5494 281.151 48.9442 281.362C49.3391 281.569 49.6332 281.849 49.8263 282.201C50.0195 282.55 50.1161 282.938 50.1161 283.364C50.1161 283.739 50.0494 284.049 49.9158 284.293C49.7852 284.538 49.6119 284.731 49.396 284.873C49.1829 285.015 48.9513 285.12 48.7013 285.188V285.273C48.9684 285.29 49.2369 285.384 49.5067 285.555C49.7766 285.725 50.0025 285.969 50.1843 286.288C50.3661 286.606 50.457 286.995 50.457 287.455C50.457 287.893 50.3576 288.286 50.1587 288.636C49.9599 288.985 49.646 289.262 49.217 289.467C48.788 289.671 48.2298 289.773 47.5423 289.773H44.3888ZM45.4457 288.836H47.5423C48.2326 288.836 48.7227 288.702 49.0124 288.435C49.305 288.165 49.4513 287.839 49.4513 287.455C49.4513 287.16 49.3761 286.887 49.2255 286.637C49.0749 286.384 48.8604 286.183 48.582 286.032C48.3036 285.879 47.9741 285.802 47.5934 285.802H45.4457V288.836ZM45.4457 284.881H47.4059C47.7241 284.881 48.011 284.819 48.2667 284.694C48.5252 284.569 48.7298 284.393 48.8803 284.165C49.0337 283.938 49.1104 283.671 49.1104 283.364C49.1104 282.981 48.9769 282.656 48.7099 282.388C48.4428 282.119 48.0195 281.984 47.44 281.984H45.4457V284.881ZM52.0572 289.773V283.228H53.0288V284.217H53.0969C53.2163 283.893 53.4322 283.63 53.7447 283.428C54.0572 283.227 54.4094 283.126 54.8015 283.126C54.8754 283.126 54.9677 283.127 55.0785 283.13C55.1893 283.133 55.2731 283.137 55.3299 283.143V284.165C55.2958 284.157 55.2177 284.144 55.0955 284.127C54.9762 284.107 54.8498 284.097 54.7163 284.097C54.3981 284.097 54.114 284.164 53.864 284.298C53.6168 284.428 53.4208 284.61 53.2759 284.843C53.1339 285.073 53.0629 285.336 53.0629 285.631V289.773H52.0572ZM58.4482 289.927C58.0334 289.927 57.657 289.849 57.3189 289.692C56.9808 289.533 56.7124 289.305 56.5135 289.006C56.3146 288.705 56.2152 288.342 56.2152 287.915C56.2152 287.54 56.2891 287.237 56.4368 287.004C56.5845 286.768 56.782 286.583 57.0291 286.45C57.2763 286.316 57.549 286.217 57.8473 286.151C58.1484 286.083 58.451 286.029 58.755 285.989C59.1527 285.938 59.4751 285.9 59.7223 285.874C59.9723 285.846 60.1541 285.799 60.2678 285.734C60.3842 285.668 60.4425 285.555 60.4425 285.393V285.359C60.4425 284.938 60.3274 284.612 60.0973 284.379C59.87 284.146 59.5249 284.029 59.0618 284.029C58.5817 284.029 58.2053 284.134 57.9325 284.344C57.6598 284.555 57.468 284.779 57.3572 285.018L56.4027 284.677C56.5732 284.279 56.8004 283.969 57.0845 283.748C57.3714 283.523 57.6839 283.367 58.022 283.279C58.3629 283.188 58.6982 283.143 59.0277 283.143C59.2379 283.143 59.4794 283.168 59.7521 283.219C60.0277 283.268 60.2933 283.369 60.549 283.522C60.8075 283.675 61.022 283.907 61.1925 284.217C61.3629 284.526 61.4482 284.941 61.4482 285.461V289.773H60.4425V288.887H60.3913C60.3232 289.029 60.2095 289.181 60.0504 289.343C59.8913 289.505 59.6797 289.643 59.4155 289.756C59.1513 289.87 58.8288 289.927 58.4482 289.927ZM58.6016 289.023C58.9993 289.023 59.3345 288.945 59.6072 288.789C59.8828 288.633 60.0902 288.431 60.2294 288.184C60.3714 287.937 60.4425 287.677 60.4425 287.404V286.484C60.3999 286.535 60.3061 286.582 60.1612 286.624C60.0192 286.664 59.8544 286.7 59.6669 286.731C59.4822 286.759 59.3018 286.785 59.1257 286.808C58.9524 286.827 58.8118 286.844 58.7038 286.859C58.4425 286.893 58.1982 286.948 57.9709 287.025C57.7464 287.099 57.5646 287.211 57.4254 287.362C57.2891 287.509 57.2209 287.711 57.2209 287.967C57.2209 288.316 57.3501 288.58 57.6087 288.759C57.87 288.935 58.201 289.023 58.6016 289.023ZM64.2894 285.836V289.773H63.2837V283.228H64.2553V284.251H64.3406C64.494 283.918 64.7269 283.651 65.0394 283.45C65.3519 283.245 65.7553 283.143 66.2496 283.143C66.6928 283.143 67.0806 283.234 67.413 283.415C67.7454 283.594 68.0039 283.867 68.1886 284.234C68.3732 284.597 68.4656 285.058 68.4656 285.614V289.773H67.4599V285.683C67.4599 285.168 67.3263 284.768 67.0593 284.481C66.7923 284.191 66.4258 284.046 65.9599 284.046C65.6388 284.046 65.3519 284.116 65.0991 284.255C64.8491 284.394 64.6516 284.597 64.5067 284.864C64.3619 285.131 64.2894 285.455 64.2894 285.836ZM72.7749 289.91C72.2294 289.91 71.7479 289.772 71.3303 289.496C70.9126 289.218 70.5859 288.826 70.3501 288.32C70.1143 287.812 69.9964 287.211 69.9964 286.518C69.9964 285.83 70.1143 285.234 70.3501 284.728C70.5859 284.222 70.9141 283.832 71.3345 283.556C71.755 283.281 72.2408 283.143 72.7919 283.143C73.218 283.143 73.5547 283.214 73.8018 283.356C74.0518 283.495 74.2422 283.654 74.3729 283.833C74.5064 284.009 74.6101 284.154 74.6839 284.268H74.7692V281.046H75.7749V289.773H74.8033V288.768H74.6839C74.6101 288.887 74.505 289.038 74.3686 289.219C74.2322 289.398 74.0376 289.559 73.7848 289.701C73.532 289.84 73.1953 289.91 72.7749 289.91ZM72.9112 289.006C73.3146 289.006 73.6555 288.901 73.9339 288.691C74.2124 288.478 74.424 288.184 74.5689 287.809C74.7138 287.431 74.7862 286.995 74.7862 286.501C74.7862 286.012 74.7152 285.585 74.5732 285.218C74.4311 284.849 74.2209 284.562 73.9425 284.357C73.6641 284.15 73.3203 284.046 72.9112 284.046C72.4851 284.046 72.13 284.156 71.8459 284.374C71.5646 284.59 71.353 284.884 71.2109 285.256C71.0717 285.626 71.0021 286.04 71.0021 286.501C71.0021 286.967 71.0732 287.39 71.2152 287.771C71.3601 288.148 71.5732 288.45 71.8544 288.674C72.1385 288.896 72.4908 289.006 72.9112 289.006ZM82.3928 284.694L81.4893 284.95C81.4325 284.799 81.3487 284.653 81.2379 284.511C81.13 284.366 80.9822 284.246 80.7947 284.153C80.6072 284.059 80.3672 284.012 80.0746 284.012C79.674 284.012 79.3402 284.104 79.0732 284.289C78.8089 284.471 78.6768 284.702 78.6768 284.984C78.6768 285.234 78.7678 285.431 78.9496 285.576C79.1314 285.721 79.4155 285.842 79.8018 285.938L80.7734 286.177C81.3587 286.319 81.7947 286.536 82.0817 286.829C82.3686 287.119 82.5121 287.492 82.5121 287.95C82.5121 288.325 82.4041 288.66 82.1882 288.955C81.9751 289.251 81.6768 289.484 81.2933 289.654C80.9098 289.825 80.4638 289.91 79.9553 289.91C79.2876 289.91 78.7351 289.765 78.2976 289.475C77.8601 289.185 77.5831 288.762 77.4666 288.205L78.4212 287.967C78.5121 288.319 78.6839 288.583 78.9368 288.759C79.1925 288.935 79.5263 289.023 79.9382 289.023C80.407 289.023 80.7791 288.924 81.0547 288.725C81.3331 288.523 81.4723 288.282 81.4723 288.001C81.4723 287.773 81.3928 287.583 81.2337 287.43C81.0746 287.273 80.8303 287.157 80.5007 287.08L79.4098 286.825C78.8104 286.683 78.37 286.462 78.0888 286.164C77.8104 285.863 77.6712 285.487 77.6712 285.035C77.6712 284.665 77.7749 284.339 77.9822 284.055C78.1925 283.771 78.478 283.548 78.8388 283.386C79.2024 283.224 79.6143 283.143 80.0746 283.143C80.7223 283.143 81.2308 283.285 81.6001 283.569C81.9723 283.853 82.2365 284.228 82.3928 284.694Z" fill="black" fill-opacity="0.7"/>
<line x1="483.5" y1="40.0781" x2="483.5" y2="307.078" stroke="black" stroke-opacity="0.15" stroke-dasharray="2"/>
<line x1="444.1" y1="40.0781" x2="444.1" y2="307.078" stroke="black" stroke-opacity="0.15" stroke-dasharray="2"/>
<line x1="404.699" y1="40.0781" x2="404.699" y2="307.078" stroke="black" stroke-opacity="0.15" stroke-dasharray="2"/>
<line x1="365.301" y1="40.0781" x2="365.301" y2="307.078" stroke="black" stroke-opacity="0.15" stroke-dasharray="2"/>
<line x1="325.9" y1="40.0781" x2="325.9" y2="307.078" stroke="black" stroke-opacity="0.15" stroke-dasharray="2"/>
<line x1="286.5" y1="40.0781" x2="286.5" y2="307.078" stroke="black" stroke-opacity="0.15" stroke-dasharray="2"/>
<line x1="247.1" y1="40.0781" x2="247.1" y2="307.078" stroke="black" stroke-opacity="0.15" stroke-dasharray="2"/>
<line x1="207.699" y1="40.0781" x2="207.699" y2="307.078" stroke="black" stroke-opacity="0.15" stroke-dasharray="2"/>
<line x1="168.301" y1="40.0781" x2="168.301" y2="307.078" stroke="black" stroke-opacity="0.15" stroke-dasharray="2"/>
<line x1="128.9" y1="40.0781" x2="128.9" y2="307.078" stroke="black" stroke-opacity="0.15" stroke-dasharray="2"/>
<line x1="89.5" y1="40.0781" x2="89.5" y2="307.078" stroke="black" stroke-opacity="0.3"/>
<line x1="89" y1="39.5781" x2="483" y2="39.5781" stroke="black" stroke-opacity="0.15" stroke-dasharray="2"/>
<line x1="89" y1="84.0781" x2="483" y2="84.0781" stroke="black" stroke-opacity="0.15" stroke-dasharray="2"/>
<line x1="89" y1="128.578" x2="483" y2="128.578" stroke="black" stroke-opacity="0.15" stroke-dasharray="2"/>
<line x1="89" y1="173.078" x2="483" y2="173.078" stroke="black" stroke-opacity="0.15" stroke-dasharray="2"/>
<line x1="89" y1="217.578" x2="483" y2="217.578" stroke="black" stroke-opacity="0.15" stroke-dasharray="2"/>
<line x1="89" y1="262.078" x2="483" y2="262.078" stroke="black" stroke-opacity="0.15" stroke-dasharray="2"/>
<line x1="89" y1="306.578" x2="483" y2="306.578" stroke="black" stroke-opacity="0.15" stroke-dasharray="2"/>
<path d="M145.16 106.329L196.38 61.4961L90.0002 61.4961V285.663H287V240.829L342.16 195.996L255.48 151.163L145.16 106.329Z" fill="url(#paint0_linear_836_3327)"/>
<path d="M196.38 61.4961L145.16 106.329L255.48 151.163L342.16 195.996L287 240.829V285.663M287 285.663V285.663Z" stroke="#EDD088"/>
<path d="M298.819 106.329L156.979 61.4961H89.9991V285.663H164.859L192.439 240.829L188.499 195.996L448.539 151.163L298.819 106.329Z" fill="url(#paint1_linear_836_3327)" stroke="#516B75"/>
<path d="M156.979 61.4961L298.819 106.329L448.539 151.163L188.499 195.996L192.439 240.829L164.859 285.663M164.859 285.663V285.663Z" stroke="#516B75"/>
<path d="M216.08 106.329V61.4961L90.0003 61.4961V285.663H227.9L397.32 240.829L310.64 195.996L298.82 151.163L216.08 106.329Z" fill="url(#paint2_linear_836_3327)"/>
<path d="M216.08 61.4961V106.329L298.82 151.163L310.64 195.996L397.32 240.829L227.9 285.663M227.9 285.663V285.663Z" stroke="#55B1A5"/>
<g clip-path="url(#clip0_836_3327)">
<g clip-path="url(#clip1_836_3327)">
<rect x="159" y="326.652" width="16" height="2" fill="#8979FF"/>
<path d="M179.903 332.152V331.385L182.784 328.232C183.122 327.863 183.401 327.542 183.619 327.269C183.838 326.993 184 326.735 184.105 326.493C184.213 326.249 184.267 325.993 184.267 325.726C184.267 325.419 184.193 325.154 184.045 324.929C183.901 324.705 183.702 324.532 183.449 324.409C183.196 324.287 182.912 324.226 182.597 324.226C182.261 324.226 181.969 324.296 181.719 324.435C181.472 324.571 181.28 324.763 181.143 325.01C181.01 325.257 180.943 325.547 180.943 325.88H179.938C179.938 325.368 180.055 324.919 180.291 324.533C180.527 324.147 180.848 323.846 181.254 323.63C181.663 323.414 182.122 323.306 182.631 323.306C183.142 323.306 183.595 323.414 183.99 323.63C184.385 323.846 184.695 324.137 184.919 324.503C185.143 324.87 185.256 325.277 185.256 325.726C185.256 326.047 185.197 326.361 185.081 326.668C184.967 326.972 184.768 327.311 184.484 327.686C184.203 328.059 183.812 328.513 183.312 329.05L181.352 331.147V331.215H185.409V332.152H179.903ZM190.016 332.272C189.374 332.272 188.827 332.097 188.375 331.748C187.923 331.395 187.578 330.885 187.339 330.218C187.101 329.547 186.982 328.738 186.982 327.789C186.982 326.846 187.101 326.04 187.339 325.373C187.581 324.702 187.928 324.191 188.379 323.838C188.834 323.483 189.379 323.306 190.016 323.306C190.652 323.306 191.196 323.483 191.648 323.838C192.102 324.191 192.449 324.702 192.688 325.373C192.929 326.04 193.05 326.846 193.05 327.789C193.05 328.738 192.93 329.547 192.692 330.218C192.453 330.885 192.108 331.395 191.656 331.748C191.205 332.097 190.658 332.272 190.016 332.272ZM190.016 331.334C190.652 331.334 191.146 331.027 191.499 330.414C191.851 329.8 192.027 328.925 192.027 327.789C192.027 327.033 191.946 326.39 191.784 325.858C191.625 325.327 191.395 324.922 191.094 324.644C190.795 324.365 190.436 324.226 190.016 324.226C189.385 324.226 188.892 324.537 188.537 325.159C188.182 325.779 188.004 326.655 188.004 327.789C188.004 328.544 188.084 329.186 188.243 329.715C188.402 330.243 188.631 330.645 188.929 330.921C189.23 331.196 189.592 331.334 190.016 331.334ZM194.669 332.152V331.385L197.55 328.232C197.888 327.863 198.166 327.542 198.385 327.269C198.604 326.993 198.766 326.735 198.871 326.493C198.979 326.249 199.033 325.993 199.033 325.726C199.033 325.419 198.959 325.154 198.811 324.929C198.666 324.705 198.467 324.532 198.214 324.409C197.962 324.287 197.678 324.226 197.362 324.226C197.027 324.226 196.734 324.296 196.484 324.435C196.237 324.571 196.045 324.763 195.909 325.01C195.776 325.257 195.709 325.547 195.709 325.88H194.703C194.703 325.368 194.821 324.919 195.057 324.533C195.293 324.147 195.614 323.846 196.02 323.63C196.429 323.414 196.888 323.306 197.396 323.306C197.908 323.306 198.361 323.414 198.756 323.63C199.151 323.846 199.46 324.137 199.685 324.503C199.909 324.87 200.021 325.277 200.021 325.726C200.021 326.047 199.963 326.361 199.847 326.668C199.733 326.972 199.534 327.311 199.25 327.686C198.969 328.059 198.578 328.513 198.078 329.05L196.118 331.147V331.215H200.175V332.152H194.669ZM201.935 332.152V331.385L204.815 328.232C205.153 327.863 205.432 327.542 205.651 327.269C205.869 326.993 206.031 326.735 206.136 326.493C206.244 326.249 206.298 325.993 206.298 325.726C206.298 325.419 206.224 325.154 206.077 324.929C205.932 324.705 205.733 324.532 205.48 324.409C205.227 324.287 204.943 324.226 204.628 324.226C204.293 324.226 204 324.296 203.75 324.435C203.503 324.571 203.311 324.763 203.175 325.01C203.041 325.257 202.974 325.547 202.974 325.88H201.969C201.969 325.368 202.087 324.919 202.322 324.533C202.558 324.147 202.879 323.846 203.286 323.63C203.695 323.414 204.153 323.306 204.662 323.306C205.173 323.306 205.626 323.414 206.021 323.63C206.416 323.846 206.726 324.137 206.95 324.503C207.175 324.87 207.287 325.277 207.287 325.726C207.287 326.047 207.229 326.361 207.112 326.668C206.999 326.972 206.8 327.311 206.516 327.686C206.234 328.059 205.844 328.513 205.344 329.05L203.384 331.147V331.215H207.44V332.152H201.935Z" fill="black" fill-opacity="0.7"/>
<rect x="225" y="326.652" width="16" height="2" fill="#FF928A"/>
<path d="M245.903 332.152V331.385L248.784 328.232C249.122 327.863 249.401 327.542 249.619 327.269C249.838 326.993 250 326.735 250.105 326.493C250.213 326.249 250.267 325.993 250.267 325.726C250.267 325.419 250.193 325.154 250.045 324.929C249.901 324.705 249.702 324.532 249.449 324.409C249.196 324.287 248.912 324.226 248.597 324.226C248.261 324.226 247.969 324.296 247.719 324.435C247.472 324.571 247.28 324.763 247.143 325.01C247.01 325.257 246.943 325.547 246.943 325.88H245.938C245.938 325.368 246.055 324.919 246.291 324.533C246.527 324.147 246.848 323.846 247.254 323.63C247.663 323.414 248.122 323.306 248.631 323.306C249.142 323.306 249.595 323.414 249.99 323.63C250.385 323.846 250.695 324.137 250.919 324.503C251.143 324.87 251.256 325.277 251.256 325.726C251.256 326.047 251.197 326.361 251.081 326.668C250.967 326.972 250.768 327.311 250.484 327.686C250.203 328.059 249.812 328.513 249.312 329.05L247.352 331.147V331.215H251.409V332.152H245.903ZM256.016 332.272C255.374 332.272 254.827 332.097 254.375 331.748C253.923 331.395 253.578 330.885 253.339 330.218C253.101 329.547 252.982 328.738 252.982 327.789C252.982 326.846 253.101 326.04 253.339 325.373C253.581 324.702 253.928 324.191 254.379 323.838C254.834 323.483 255.379 323.306 256.016 323.306C256.652 323.306 257.196 323.483 257.648 323.838C258.102 324.191 258.449 324.702 258.688 325.373C258.929 326.04 259.05 326.846 259.05 327.789C259.05 328.738 258.93 329.547 258.692 330.218C258.453 330.885 258.108 331.395 257.656 331.748C257.205 332.097 256.658 332.272 256.016 332.272ZM256.016 331.334C256.652 331.334 257.146 331.027 257.499 330.414C257.851 329.8 258.027 328.925 258.027 327.789C258.027 327.033 257.946 326.39 257.784 325.858C257.625 325.327 257.395 324.922 257.094 324.644C256.795 324.365 256.436 324.226 256.016 324.226C255.385 324.226 254.892 324.537 254.537 325.159C254.182 325.779 254.004 326.655 254.004 327.789C254.004 328.544 254.084 329.186 254.243 329.715C254.402 330.243 254.631 330.645 254.929 330.921C255.23 331.196 255.592 331.334 256.016 331.334ZM260.669 332.152V331.385L263.55 328.232C263.888 327.863 264.166 327.542 264.385 327.269C264.604 326.993 264.766 326.735 264.871 326.493C264.979 326.249 265.033 325.993 265.033 325.726C265.033 325.419 264.959 325.154 264.811 324.929C264.666 324.705 264.467 324.532 264.214 324.409C263.962 324.287 263.678 324.226 263.362 324.226C263.027 324.226 262.734 324.296 262.484 324.435C262.237 324.571 262.045 324.763 261.909 325.01C261.776 325.257 261.709 325.547 261.709 325.88H260.703C260.703 325.368 260.821 324.919 261.057 324.533C261.293 324.147 261.614 323.846 262.02 323.63C262.429 323.414 262.888 323.306 263.396 323.306C263.908 323.306 264.361 323.414 264.756 323.63C265.151 323.846 265.46 324.137 265.685 324.503C265.909 324.87 266.021 325.277 266.021 325.726C266.021 326.047 265.963 326.361 265.847 326.668C265.733 326.972 265.534 327.311 265.25 327.686C264.969 328.059 264.578 328.513 264.078 329.05L262.118 331.147V331.215H266.175V332.152H260.669ZM270.884 332.272C270.321 332.272 269.82 332.175 269.379 331.982C268.942 331.789 268.594 331.52 268.335 331.176C268.08 330.83 267.94 330.428 267.918 329.971H268.991C269.014 330.252 269.111 330.495 269.281 330.699C269.452 330.901 269.675 331.057 269.95 331.168C270.226 331.279 270.531 331.334 270.866 331.334C271.241 331.334 271.574 331.269 271.864 331.138C272.153 331.007 272.381 330.826 272.545 330.593C272.71 330.36 272.793 330.09 272.793 329.783C272.793 329.462 272.713 329.179 272.554 328.935C272.395 328.688 272.162 328.495 271.855 328.355C271.548 328.216 271.173 328.147 270.73 328.147H270.031V327.209H270.73C271.077 327.209 271.381 327.147 271.642 327.022C271.906 326.897 272.112 326.721 272.26 326.493C272.411 326.266 272.486 325.999 272.486 325.692C272.486 325.397 272.42 325.14 272.29 324.921C272.159 324.702 271.974 324.532 271.736 324.409C271.5 324.287 271.222 324.226 270.901 324.226C270.599 324.226 270.315 324.282 270.048 324.392C269.784 324.5 269.568 324.658 269.401 324.865C269.233 325.07 269.142 325.317 269.128 325.607H268.105C268.122 325.15 268.26 324.749 268.518 324.405C268.777 324.059 269.115 323.789 269.533 323.596C269.953 323.402 270.415 323.306 270.918 323.306C271.457 323.306 271.92 323.415 272.307 323.634C272.693 323.85 272.99 324.135 273.197 324.49C273.405 324.846 273.509 325.229 273.509 325.641C273.509 326.132 273.379 326.551 273.121 326.898C272.865 327.245 272.517 327.485 272.077 327.618V327.686C272.628 327.777 273.058 328.012 273.368 328.39C273.678 328.765 273.832 329.229 273.832 329.783C273.832 330.257 273.703 330.684 273.445 331.061C273.189 331.436 272.839 331.732 272.396 331.948C271.953 332.164 271.449 332.272 270.884 332.272Z" fill="black" fill-opacity="0.7"/>
<rect x="291" y="326.652" width="16" height="2" fill="#E9C46A"/>
<path d="M311.903 332.152V331.385L314.784 328.232C315.122 327.863 315.401 327.542 315.619 327.269C315.838 326.993 316 326.735 316.105 326.493C316.213 326.249 316.267 325.993 316.267 325.726C316.267 325.419 316.193 325.154 316.045 324.929C315.901 324.705 315.702 324.532 315.449 324.409C315.196 324.287 314.912 324.226 314.597 324.226C314.261 324.226 313.969 324.296 313.719 324.435C313.472 324.571 313.28 324.763 313.143 325.01C313.01 325.257 312.943 325.547 312.943 325.88H311.938C311.938 325.368 312.055 324.919 312.291 324.533C312.527 324.147 312.848 323.846 313.254 323.63C313.663 323.414 314.122 323.306 314.631 323.306C315.142 323.306 315.595 323.414 315.99 323.63C316.385 323.846 316.695 324.137 316.919 324.503C317.143 324.87 317.256 325.277 317.256 325.726C317.256 326.047 317.197 326.361 317.081 326.668C316.967 326.972 316.768 327.311 316.484 327.686C316.203 328.059 315.812 328.513 315.312 329.05L313.352 331.147V331.215H317.409V332.152H311.903ZM322.016 332.272C321.374 332.272 320.827 332.097 320.375 331.748C319.923 331.395 319.578 330.885 319.339 330.218C319.101 329.547 318.982 328.738 318.982 327.789C318.982 326.846 319.101 326.04 319.339 325.373C319.581 324.702 319.928 324.191 320.379 323.838C320.834 323.483 321.379 323.306 322.016 323.306C322.652 323.306 323.196 323.483 323.648 323.838C324.102 324.191 324.449 324.702 324.688 325.373C324.929 326.04 325.05 326.846 325.05 327.789C325.05 328.738 324.93 329.547 324.692 330.218C324.453 330.885 324.108 331.395 323.656 331.748C323.205 332.097 322.658 332.272 322.016 332.272ZM322.016 331.334C322.652 331.334 323.146 331.027 323.499 330.414C323.851 329.8 324.027 328.925 324.027 327.789C324.027 327.033 323.946 326.39 323.784 325.858C323.625 325.327 323.395 324.922 323.094 324.644C322.795 324.365 322.436 324.226 322.016 324.226C321.385 324.226 320.892 324.537 320.537 325.159C320.182 325.779 320.004 326.655 320.004 327.789C320.004 328.544 320.084 329.186 320.243 329.715C320.402 330.243 320.631 330.645 320.929 330.921C321.23 331.196 321.592 331.334 322.016 331.334ZM326.669 332.152V331.385L329.55 328.232C329.888 327.863 330.166 327.542 330.385 327.269C330.604 326.993 330.766 326.735 330.871 326.493C330.979 326.249 331.033 325.993 331.033 325.726C331.033 325.419 330.959 325.154 330.811 324.929C330.666 324.705 330.467 324.532 330.214 324.409C329.962 324.287 329.678 324.226 329.362 324.226C329.027 324.226 328.734 324.296 328.484 324.435C328.237 324.571 328.045 324.763 327.909 325.01C327.776 325.257 327.709 325.547 327.709 325.88H326.703C326.703 325.368 326.821 324.919 327.057 324.533C327.293 324.147 327.614 323.846 328.02 323.63C328.429 323.414 328.888 323.306 329.396 323.306C329.908 323.306 330.361 323.414 330.756 323.63C331.151 323.846 331.46 324.137 331.685 324.503C331.909 324.87 332.021 325.277 332.021 325.726C332.021 326.047 331.963 326.361 331.847 326.668C331.733 326.972 331.534 327.311 331.25 327.686C330.969 328.059 330.578 328.513 330.078 329.05L328.118 331.147V331.215H332.175V332.152H326.669ZM333.543 330.363V329.493L337.378 323.425H338.009V324.772H337.582L334.685 329.357V329.425H339.849V330.363H333.543ZM337.651 332.152V330.098V329.694V323.425H338.656V332.152H337.651Z" fill="black" fill-opacity="0.7"/>
</g>
</g>
<defs>
<linearGradient id="paint0_linear_836_3327" x1="342.16" y1="173.579" x2="90.0002" y2="173.579" gradientUnits="userSpaceOnUse">
<stop stop-color="#E9C46A" stop-opacity="0.3"/>
<stop offset="1" stop-color="#E9C46A" stop-opacity="0.05"/>
</linearGradient>
<linearGradient id="paint1_linear_836_3327" x1="448.539" y1="173.579" x2="89.9991" y2="173.579" gradientUnits="userSpaceOnUse">
<stop stop-color="#516B75" stop-opacity="0.3"/>
<stop offset="1" stop-color="#516B75" stop-opacity="0.05"/>
</linearGradient>
<linearGradient id="paint2_linear_836_3327" x1="397.32" y1="173.579" x2="90.0003" y2="173.579" gradientUnits="userSpaceOnUse">
<stop stop-color="#55B1A5" stop-opacity="0.3"/>
<stop offset="1" stop-color="#55B1A5" stop-opacity="0.05"/>
</linearGradient>
<clipPath id="clip0_836_3327">
<rect width="484" height="24" fill="white" transform="translate(8 315.652)"/>
</clipPath>
<clipPath id="clip1_836_3327">
<rect width="206" height="24" fill="white" transform="translate(147 315.652)"/>
</clipPath>
</defs>
</svg>
