<svg width="446" height="364" viewBox="0 0 446 364" fill="none" xmlns="http://www.w3.org/2000/svg">
<g filter="url(#filter0_d_927_3082)">
<g clip-path="url(#clip0_927_3082)">
<rect x="7" y="6.16406" width="431.465" height="350" rx="5.26177" fill="white"/>
<rect x="7" y="6.16406" width="431.465" height="350" rx="5.26177" fill="white"/>
</g>
</g>
<line x1="62.5769" y1="42.9993" x2="417.089" y2="42.9993" stroke="#D3D6DF" stroke-width="0.657722" stroke-linecap="square" stroke-dasharray="1.32 1.32"/>
<line x1="62.5769" y1="86.4094" x2="417.089" y2="86.4094" stroke="#D3D6DF" stroke-width="0.657722" stroke-linecap="square" stroke-dasharray="1.32 1.32"/>
<line x1="62.5769" y1="129.816" x2="417.089" y2="129.816" stroke="#D3D6DF" stroke-width="0.657722" stroke-linecap="square" stroke-dasharray="1.32 1.32"/>
<line x1="62.5769" y1="173.226" x2="417.089" y2="173.226" stroke="#D3D6DF" stroke-width="0.657722" stroke-linecap="square" stroke-dasharray="1.32 1.32"/>
<line x1="62.5769" y1="216.636" x2="417.089" y2="216.636" stroke="#D3D6DF" stroke-width="0.657722" stroke-linecap="square" stroke-dasharray="1.32 1.32"/>
<line x1="62.5769" y1="260.046" x2="417.089" y2="260.046" stroke="#D3D6DF" stroke-width="0.657722" stroke-linecap="square" stroke-dasharray="1.32 1.32"/>
<line x1="62.5769" y1="303.456" x2="417.089" y2="303.456" stroke="#D3D6DF" stroke-width="0.657722" stroke-linecap="square" stroke-dasharray="1.32 1.32"/>
<line x1="66.5242" y1="65.4226" x2="66.5242" y2="331.142" stroke="#D3D6DF" stroke-width="0.657722" stroke-linecap="square" stroke-dasharray="1.32 1.32"/>
<line x1="115.854" y1="65.4226" x2="115.854" y2="331.142" stroke="#D3D6DF" stroke-width="0.657722" stroke-linecap="square" stroke-dasharray="1.32 1.32"/>
<line x1="165.182" y1="65.4226" x2="165.182" y2="331.142" stroke="#D3D6DF" stroke-width="0.657722" stroke-linecap="square" stroke-dasharray="1.32 1.32"/>
<line x1="214.512" y1="65.4226" x2="214.512" y2="331.142" stroke="#D3D6DF" stroke-width="0.657722" stroke-linecap="square" stroke-dasharray="1.32 1.32"/>
<line x1="263.841" y1="65.4226" x2="263.841" y2="331.142" stroke="#D3D6DF" stroke-width="0.657722" stroke-linecap="square" stroke-dasharray="1.32 1.32"/>
<line x1="313.171" y1="65.4226" x2="313.171" y2="331.142" stroke="#D3D6DF" stroke-width="0.657722" stroke-linecap="square" stroke-dasharray="1.32 1.32"/>
<line x1="362.499" y1="65.4226" x2="362.499" y2="331.142" stroke="#D3D6DF" stroke-width="0.657722" stroke-linecap="square" stroke-dasharray="1.32 1.32"/>
<line x1="411.829" y1="65.4226" x2="411.829" y2="331.142" stroke="#D3D6DF" stroke-width="0.657722" stroke-linecap="square" stroke-dasharray="1.32 1.32"/>
<path d="M103.007 320.925C102.586 320.925 102.217 320.869 101.902 320.757C101.586 320.645 101.34 320.487 101.165 320.283C100.99 320.08 100.902 319.834 100.902 319.547C100.902 319.322 100.969 319.108 101.102 318.905C101.235 318.701 101.418 318.522 101.649 318.368V318.326C101.523 318.242 101.414 318.133 101.323 318C101.239 317.859 101.197 317.691 101.197 317.495C101.197 317.277 101.256 317.088 101.375 316.926C101.502 316.765 101.628 316.639 101.754 316.547V316.505C101.593 316.372 101.442 316.186 101.302 315.948C101.168 315.709 101.102 315.439 101.102 315.137C101.102 314.765 101.186 314.446 101.354 314.18C101.53 313.906 101.758 313.696 102.038 313.548C102.326 313.394 102.642 313.317 102.986 313.317C103.126 313.317 103.256 313.331 103.375 313.359C103.501 313.38 103.606 313.408 103.691 313.443H105.459V314.043H104.375C104.508 314.169 104.617 314.327 104.701 314.516C104.785 314.706 104.827 314.916 104.827 315.148C104.827 315.513 104.743 315.828 104.575 316.095C104.413 316.361 104.192 316.568 103.912 316.716C103.638 316.856 103.329 316.926 102.986 316.926C102.859 316.926 102.726 316.912 102.586 316.884C102.452 316.849 102.326 316.803 102.207 316.747C102.109 316.825 102.024 316.912 101.954 317.01C101.891 317.109 101.86 317.231 101.86 317.379C101.86 317.547 101.923 317.687 102.049 317.8C102.182 317.905 102.421 317.958 102.765 317.958H103.785C104.375 317.958 104.813 318.056 105.101 318.252C105.395 318.442 105.543 318.747 105.543 319.168C105.543 319.476 105.438 319.764 105.227 320.031C105.024 320.297 104.732 320.511 104.354 320.673C103.975 320.841 103.526 320.925 103.007 320.925ZM103.112 320.378C103.449 320.378 103.74 320.325 103.985 320.22C104.238 320.115 104.434 319.978 104.575 319.81C104.715 319.641 104.785 319.462 104.785 319.273C104.785 319.027 104.694 318.856 104.511 318.757C104.336 318.659 104.073 318.61 103.722 318.61H102.786C102.708 318.61 102.61 318.603 102.491 318.589C102.379 318.575 102.259 318.554 102.133 318.526C101.937 318.666 101.793 318.813 101.702 318.968C101.617 319.129 101.575 319.287 101.575 319.441C101.575 319.729 101.712 319.957 101.986 320.125C102.259 320.294 102.635 320.378 103.112 320.378ZM102.986 316.4C103.189 316.4 103.375 316.347 103.543 316.242C103.719 316.137 103.859 315.99 103.964 315.8C104.069 315.611 104.122 315.39 104.122 315.137C104.122 314.878 104.069 314.657 103.964 314.474C103.866 314.285 103.729 314.141 103.554 314.043C103.385 313.938 103.196 313.885 102.986 313.885C102.67 313.885 102.4 313.997 102.175 314.222C101.951 314.439 101.838 314.744 101.838 315.137C101.838 315.39 101.891 315.611 101.996 315.8C102.102 315.99 102.242 316.137 102.417 316.242C102.593 316.347 102.782 316.4 102.986 316.4ZM106.564 318.547V313.443H107.195L107.258 314.38H107.29C107.465 314.057 107.676 313.801 107.921 313.611C108.174 313.415 108.447 313.317 108.742 313.317C108.847 313.317 108.942 313.327 109.026 313.348C109.11 313.362 109.191 313.387 109.268 313.422L109.121 314.095C109.037 314.067 108.959 314.046 108.889 314.032C108.826 314.018 108.742 314.011 108.637 314.011C108.419 314.011 108.191 314.102 107.953 314.285C107.714 314.46 107.504 314.772 107.321 315.221V318.547H106.564ZM112.087 318.673C111.673 318.673 111.287 318.568 110.929 318.357C110.571 318.147 110.284 317.845 110.066 317.452C109.849 317.053 109.74 316.568 109.74 316C109.74 315.432 109.849 314.948 110.066 314.548C110.284 314.148 110.571 313.843 110.929 313.632C111.287 313.422 111.673 313.317 112.087 313.317C112.501 313.317 112.883 313.422 113.234 313.632C113.592 313.843 113.879 314.148 114.097 314.548C114.321 314.948 114.434 315.432 114.434 316C114.434 316.568 114.321 317.053 114.097 317.452C113.879 317.845 113.592 318.147 113.234 318.357C112.883 318.568 112.501 318.673 112.087 318.673ZM112.087 318.031C112.395 318.031 112.666 317.947 112.897 317.779C113.136 317.61 113.318 317.375 113.444 317.074C113.578 316.765 113.644 316.407 113.644 316C113.644 315.6 113.578 315.246 113.444 314.937C113.318 314.629 113.136 314.39 112.897 314.222C112.666 314.046 112.395 313.959 112.087 313.959C111.785 313.959 111.515 314.046 111.276 314.222C111.045 314.39 110.863 314.629 110.729 314.937C110.603 315.246 110.54 315.6 110.54 316C110.54 316.407 110.603 316.765 110.729 317.074C110.863 317.375 111.045 317.61 111.276 317.779C111.515 317.947 111.785 318.031 112.087 318.031ZM117.296 318.673C116.77 318.673 116.381 318.505 116.128 318.168C115.876 317.831 115.749 317.337 115.749 316.684V313.443H116.507V316.589C116.507 317.081 116.588 317.442 116.749 317.673C116.91 317.898 117.17 318.01 117.528 318.01C117.794 318.01 118.036 317.94 118.254 317.8C118.471 317.652 118.706 317.421 118.959 317.105V313.443H119.727V318.547H119.085L119.022 317.737H118.991C118.752 318.017 118.5 318.245 118.233 318.421C117.966 318.589 117.654 318.673 117.296 318.673ZM121.506 320.736V313.443H122.138L122.201 314.053H122.232C122.464 313.85 122.72 313.678 123.001 313.538C123.288 313.39 123.583 313.317 123.884 313.317C124.326 313.317 124.698 313.425 125 313.643C125.302 313.853 125.526 314.155 125.673 314.548C125.828 314.934 125.905 315.39 125.905 315.916C125.905 316.498 125.8 316.996 125.589 317.41C125.386 317.817 125.116 318.129 124.779 318.347C124.442 318.564 124.081 318.673 123.695 318.673C123.464 318.673 123.225 318.621 122.979 318.515C122.734 318.41 122.488 318.263 122.243 318.073L122.264 318.978V320.736H121.506ZM123.569 318.021C123.87 318.021 124.137 317.937 124.369 317.768C124.6 317.6 124.782 317.358 124.916 317.042C125.049 316.726 125.116 316.354 125.116 315.927C125.116 315.541 125.067 315.2 124.968 314.906C124.877 314.611 124.726 314.383 124.516 314.222C124.312 314.053 124.042 313.969 123.706 313.969C123.481 313.969 123.25 314.032 123.011 314.159C122.78 314.278 122.53 314.46 122.264 314.706V317.463C122.516 317.666 122.755 317.81 122.979 317.894C123.204 317.979 123.4 318.021 123.569 318.021ZM129.041 318.547V317.905H130.587V312.801H129.367V312.306C129.668 312.257 129.932 312.194 130.156 312.117C130.381 312.033 130.584 311.938 130.766 311.833H131.356V317.905H132.755V318.547H129.041Z" fill="#222539"/>
<path d="M151.463 320.925C151.042 320.925 150.673 320.869 150.358 320.757C150.042 320.645 149.796 320.487 149.621 320.283C149.446 320.08 149.358 319.834 149.358 319.547C149.358 319.322 149.425 319.108 149.558 318.905C149.691 318.701 149.874 318.522 150.105 318.368V318.326C149.979 318.242 149.87 318.133 149.779 318C149.695 317.859 149.653 317.691 149.653 317.495C149.653 317.277 149.712 317.088 149.831 316.926C149.958 316.765 150.084 316.639 150.21 316.547V316.505C150.049 316.372 149.898 316.186 149.758 315.948C149.625 315.709 149.558 315.439 149.558 315.137C149.558 314.765 149.642 314.446 149.81 314.18C149.986 313.906 150.214 313.696 150.494 313.548C150.782 313.394 151.098 313.317 151.442 313.317C151.582 313.317 151.712 313.331 151.831 313.359C151.957 313.38 152.062 313.408 152.147 313.443H153.915V314.043H152.831C152.964 314.169 153.073 314.327 153.157 314.516C153.241 314.706 153.283 314.916 153.283 315.148C153.283 315.513 153.199 315.828 153.031 316.095C152.869 316.361 152.648 316.568 152.368 316.716C152.094 316.856 151.785 316.926 151.442 316.926C151.315 316.926 151.182 316.912 151.042 316.884C150.908 316.849 150.782 316.803 150.663 316.747C150.565 316.825 150.48 316.912 150.41 317.01C150.347 317.109 150.316 317.231 150.316 317.379C150.316 317.547 150.379 317.687 150.505 317.8C150.638 317.905 150.877 317.958 151.221 317.958H152.241C152.831 317.958 153.269 318.056 153.557 318.252C153.851 318.442 153.999 318.747 153.999 319.168C153.999 319.476 153.894 319.764 153.683 320.031C153.48 320.297 153.189 320.511 152.81 320.673C152.431 320.841 151.982 320.925 151.463 320.925ZM151.568 320.378C151.905 320.378 152.196 320.325 152.441 320.22C152.694 320.115 152.89 319.978 153.031 319.81C153.171 319.641 153.241 319.462 153.241 319.273C153.241 319.027 153.15 318.856 152.968 318.757C152.792 318.659 152.529 318.61 152.178 318.61H151.242C151.164 318.61 151.066 318.603 150.947 318.589C150.835 318.575 150.715 318.554 150.589 318.526C150.393 318.666 150.249 318.813 150.158 318.968C150.074 319.129 150.031 319.287 150.031 319.441C150.031 319.729 150.168 319.957 150.442 320.125C150.715 320.294 151.091 320.378 151.568 320.378ZM151.442 316.4C151.645 316.4 151.831 316.347 151.999 316.242C152.175 316.137 152.315 315.99 152.42 315.8C152.526 315.611 152.578 315.39 152.578 315.137C152.578 314.878 152.526 314.657 152.42 314.474C152.322 314.285 152.185 314.141 152.01 314.043C151.841 313.938 151.652 313.885 151.442 313.885C151.126 313.885 150.856 313.997 150.631 314.222C150.407 314.439 150.295 314.744 150.295 315.137C150.295 315.39 150.347 315.611 150.452 315.8C150.558 315.99 150.698 316.137 150.873 316.242C151.049 316.347 151.238 316.4 151.442 316.4ZM155.02 318.547V313.443H155.651L155.714 314.38H155.746C155.921 314.057 156.132 313.801 156.377 313.611C156.63 313.415 156.903 313.317 157.198 313.317C157.303 313.317 157.398 313.327 157.482 313.348C157.566 313.362 157.647 313.387 157.724 313.422L157.577 314.095C157.493 314.067 157.415 314.046 157.345 314.032C157.282 314.018 157.198 314.011 157.093 314.011C156.875 314.011 156.647 314.102 156.409 314.285C156.17 314.46 155.96 314.772 155.777 315.221V318.547H155.02ZM160.543 318.673C160.129 318.673 159.743 318.568 159.385 318.357C159.027 318.147 158.74 317.845 158.522 317.452C158.305 317.053 158.196 316.568 158.196 316C158.196 315.432 158.305 314.948 158.522 314.548C158.74 314.148 159.027 313.843 159.385 313.632C159.743 313.422 160.129 313.317 160.543 313.317C160.957 313.317 161.339 313.422 161.69 313.632C162.048 313.843 162.335 314.148 162.553 314.548C162.777 314.948 162.89 315.432 162.89 316C162.89 316.568 162.777 317.053 162.553 317.452C162.335 317.845 162.048 318.147 161.69 318.357C161.339 318.568 160.957 318.673 160.543 318.673ZM160.543 318.031C160.852 318.031 161.122 317.947 161.353 317.779C161.592 317.61 161.774 317.375 161.9 317.074C162.034 316.765 162.1 316.407 162.1 316C162.1 315.6 162.034 315.246 161.9 314.937C161.774 314.629 161.592 314.39 161.353 314.222C161.122 314.046 160.852 313.959 160.543 313.959C160.241 313.959 159.971 314.046 159.733 314.222C159.501 314.39 159.319 314.629 159.185 314.937C159.059 315.246 158.996 315.6 158.996 316C158.996 316.407 159.059 316.765 159.185 317.074C159.319 317.375 159.501 317.61 159.733 317.779C159.971 317.947 160.241 318.031 160.543 318.031ZM165.752 318.673C165.226 318.673 164.837 318.505 164.584 318.168C164.332 317.831 164.205 317.337 164.205 316.684V313.443H164.963V316.589C164.963 317.081 165.044 317.442 165.205 317.673C165.367 317.898 165.626 318.01 165.984 318.01C166.251 318.01 166.493 317.94 166.71 317.8C166.928 317.652 167.163 317.421 167.415 317.105V313.443H168.183V318.547H167.541L167.478 317.737H167.447C167.208 318.017 166.956 318.245 166.689 318.421C166.422 318.589 166.11 318.673 165.752 318.673ZM169.962 320.736V313.443H170.594L170.657 314.053H170.688C170.92 313.85 171.176 313.678 171.457 313.538C171.744 313.39 172.039 313.317 172.341 313.317C172.783 313.317 173.154 313.425 173.456 313.643C173.758 313.853 173.982 314.155 174.13 314.548C174.284 314.934 174.361 315.39 174.361 315.916C174.361 316.498 174.256 316.996 174.045 317.41C173.842 317.817 173.572 318.129 173.235 318.347C172.898 318.564 172.537 318.673 172.151 318.673C171.92 318.673 171.681 318.621 171.436 318.515C171.19 318.41 170.944 318.263 170.699 318.073L170.72 318.978V320.736H169.962ZM172.025 318.021C172.327 318.021 172.593 317.937 172.825 317.768C173.056 317.6 173.239 317.358 173.372 317.042C173.505 316.726 173.572 316.354 173.572 315.927C173.572 315.541 173.523 315.2 173.424 314.906C173.333 314.611 173.182 314.383 172.972 314.222C172.768 314.053 172.498 313.969 172.162 313.969C171.937 313.969 171.706 314.032 171.467 314.159C171.236 314.278 170.987 314.46 170.72 314.706V317.463C170.972 317.666 171.211 317.81 171.436 317.894C171.66 317.979 171.856 318.021 172.025 318.021ZM177.402 318.547V318.094C178.089 317.4 178.672 316.793 179.149 316.274C179.626 315.748 179.987 315.278 180.233 314.864C180.478 314.45 180.601 314.057 180.601 313.685C180.601 313.292 180.492 312.969 180.275 312.717C180.064 312.464 179.731 312.338 179.275 312.338C178.994 312.338 178.728 312.415 178.475 312.57C178.23 312.724 178.009 312.92 177.812 313.159L177.36 312.717C177.64 312.415 177.939 312.173 178.254 311.991C178.57 311.801 178.942 311.707 179.37 311.707C179.777 311.707 180.127 311.787 180.422 311.949C180.724 312.11 180.955 312.338 181.117 312.633C181.278 312.92 181.359 313.261 181.359 313.653C181.359 314.081 181.236 314.513 180.99 314.948C180.752 315.383 180.419 315.846 179.991 316.337C179.57 316.821 179.082 317.354 178.528 317.937C178.71 317.922 178.9 317.912 179.096 317.905C179.293 317.891 179.479 317.884 179.654 317.884H181.685V318.547H177.402Z" fill="#222539"/>
<path d="M200.135 320.925C199.714 320.925 199.345 320.869 199.03 320.757C198.714 320.645 198.468 320.487 198.293 320.283C198.118 320.08 198.03 319.834 198.03 319.547C198.03 319.322 198.096 319.108 198.23 318.905C198.363 318.701 198.545 318.522 198.777 318.368V318.326C198.651 318.242 198.542 318.133 198.451 318C198.367 317.859 198.324 317.691 198.324 317.495C198.324 317.277 198.384 317.088 198.503 316.926C198.63 316.765 198.756 316.639 198.882 316.547V316.505C198.721 316.372 198.57 316.186 198.43 315.948C198.296 315.709 198.23 315.439 198.23 315.137C198.23 314.765 198.314 314.446 198.482 314.18C198.658 313.906 198.886 313.696 199.166 313.548C199.454 313.394 199.77 313.317 200.113 313.317C200.254 313.317 200.384 313.331 200.503 313.359C200.629 313.38 200.734 313.408 200.819 313.443H202.587V314.043H201.503C201.636 314.169 201.745 314.327 201.829 314.516C201.913 314.706 201.955 314.916 201.955 315.148C201.955 315.513 201.871 315.828 201.703 316.095C201.541 316.361 201.32 316.568 201.04 316.716C200.766 316.856 200.457 316.926 200.113 316.926C199.987 316.926 199.854 316.912 199.714 316.884C199.58 316.849 199.454 316.803 199.335 316.747C199.237 316.825 199.152 316.912 199.082 317.01C199.019 317.109 198.987 317.231 198.987 317.379C198.987 317.547 199.051 317.687 199.177 317.8C199.31 317.905 199.549 317.958 199.892 317.958H200.913C201.503 317.958 201.941 318.056 202.229 318.252C202.523 318.442 202.671 318.747 202.671 319.168C202.671 319.476 202.565 319.764 202.355 320.031C202.152 320.297 201.86 320.511 201.482 320.673C201.103 320.841 200.654 320.925 200.135 320.925ZM200.24 320.378C200.577 320.378 200.868 320.325 201.113 320.22C201.366 320.115 201.562 319.978 201.703 319.81C201.843 319.641 201.913 319.462 201.913 319.273C201.913 319.027 201.822 318.856 201.639 318.757C201.464 318.659 201.201 318.61 200.85 318.61H199.914C199.836 318.61 199.738 318.603 199.619 318.589C199.507 318.575 199.387 318.554 199.261 318.526C199.065 318.666 198.921 318.813 198.83 318.968C198.745 319.129 198.703 319.287 198.703 319.441C198.703 319.729 198.84 319.957 199.114 320.125C199.387 320.294 199.763 320.378 200.24 320.378ZM200.113 316.4C200.317 316.4 200.503 316.347 200.671 316.242C200.847 316.137 200.987 315.99 201.092 315.8C201.197 315.611 201.25 315.39 201.25 315.137C201.25 314.878 201.197 314.657 201.092 314.474C200.994 314.285 200.857 314.141 200.682 314.043C200.513 313.938 200.324 313.885 200.113 313.885C199.798 313.885 199.528 313.997 199.303 314.222C199.079 314.439 198.966 314.744 198.966 315.137C198.966 315.39 199.019 315.611 199.124 315.8C199.229 315.99 199.37 316.137 199.545 316.242C199.721 316.347 199.91 316.4 200.113 316.4ZM203.691 318.547V313.443H204.323L204.386 314.38H204.418C204.593 314.057 204.803 313.801 205.049 313.611C205.302 313.415 205.575 313.317 205.87 313.317C205.975 313.317 206.07 313.327 206.154 313.348C206.238 313.362 206.319 313.387 206.396 313.422L206.249 314.095C206.165 314.067 206.087 314.046 206.017 314.032C205.954 314.018 205.87 314.011 205.765 314.011C205.547 314.011 205.319 314.102 205.081 314.285C204.842 314.46 204.632 314.772 204.449 315.221V318.547H203.691ZM209.215 318.673C208.801 318.673 208.415 318.568 208.057 318.357C207.699 318.147 207.412 317.845 207.194 317.452C206.977 317.053 206.868 316.568 206.868 316C206.868 315.432 206.977 314.948 207.194 314.548C207.412 314.148 207.699 313.843 208.057 313.632C208.415 313.422 208.801 313.317 209.215 313.317C209.629 313.317 210.011 313.422 210.362 313.632C210.72 313.843 211.007 314.148 211.225 314.548C211.449 314.948 211.561 315.432 211.561 316C211.561 316.568 211.449 317.053 211.225 317.452C211.007 317.845 210.72 318.147 210.362 318.357C210.011 318.568 209.629 318.673 209.215 318.673ZM209.215 318.031C209.523 318.031 209.793 317.947 210.025 317.779C210.264 317.61 210.446 317.375 210.572 317.074C210.706 316.765 210.772 316.407 210.772 316C210.772 315.6 210.706 315.246 210.572 314.937C210.446 314.629 210.264 314.39 210.025 314.222C209.793 314.046 209.523 313.959 209.215 313.959C208.913 313.959 208.643 314.046 208.404 314.222C208.173 314.39 207.99 314.629 207.857 314.937C207.731 315.246 207.668 315.6 207.668 316C207.668 316.407 207.731 316.765 207.857 317.074C207.99 317.375 208.173 317.61 208.404 317.779C208.643 317.947 208.913 318.031 209.215 318.031ZM214.424 318.673C213.898 318.673 213.509 318.505 213.256 318.168C213.004 317.831 212.877 317.337 212.877 316.684V313.443H213.635V316.589C213.635 317.081 213.716 317.442 213.877 317.673C214.038 317.898 214.298 318.01 214.656 318.01C214.922 318.01 215.164 317.94 215.382 317.8C215.599 317.652 215.834 317.421 216.087 317.105V313.443H216.855V318.547H216.213L216.15 317.737H216.119C215.88 318.017 215.627 318.245 215.361 318.421C215.094 318.589 214.782 318.673 214.424 318.673ZM218.634 320.736V313.443H219.266L219.329 314.053H219.36C219.592 313.85 219.848 313.678 220.128 313.538C220.416 313.39 220.711 313.317 221.012 313.317C221.454 313.317 221.826 313.425 222.128 313.643C222.43 313.853 222.654 314.155 222.801 314.548C222.956 314.934 223.033 315.39 223.033 315.916C223.033 316.498 222.928 316.996 222.717 317.41C222.514 317.817 222.244 318.129 221.907 318.347C221.57 318.564 221.209 318.673 220.823 318.673C220.591 318.673 220.353 318.621 220.107 318.515C219.862 318.41 219.616 318.263 219.371 318.073L219.392 318.978V320.736H218.634ZM220.697 318.021C220.998 318.021 221.265 317.937 221.496 317.768C221.728 317.6 221.91 317.358 222.044 317.042C222.177 316.726 222.244 316.354 222.244 315.927C222.244 315.541 222.195 315.2 222.096 314.906C222.005 314.611 221.854 314.383 221.644 314.222C221.44 314.053 221.17 313.969 220.834 313.969C220.609 313.969 220.377 314.032 220.139 314.159C219.907 314.278 219.658 314.46 219.392 314.706V317.463C219.644 317.666 219.883 317.81 220.107 317.894C220.332 317.979 220.528 318.021 220.697 318.021ZM228.126 318.673C227.768 318.673 227.452 318.628 227.179 318.536C226.905 318.445 226.667 318.329 226.463 318.189C226.26 318.042 226.084 317.887 225.937 317.726L226.326 317.221C226.53 317.431 226.768 317.621 227.042 317.789C227.323 317.951 227.67 318.031 228.084 318.031C228.505 318.031 228.848 317.915 229.115 317.684C229.389 317.445 229.525 317.13 229.525 316.737C229.525 316.463 229.452 316.221 229.304 316.011C229.164 315.8 228.933 315.639 228.61 315.527C228.294 315.407 227.866 315.348 227.326 315.348V314.748C227.81 314.748 228.192 314.692 228.473 314.579C228.761 314.46 228.968 314.302 229.094 314.106C229.22 313.909 229.283 313.689 229.283 313.443C229.283 313.106 229.175 312.84 228.957 312.643C228.74 312.44 228.445 312.338 228.073 312.338C227.786 312.338 227.519 312.405 227.273 312.538C227.028 312.664 226.807 312.829 226.61 313.033L226.19 312.538C226.449 312.299 226.733 312.103 227.042 311.949C227.351 311.787 227.701 311.707 228.094 311.707C228.473 311.707 228.81 311.773 229.105 311.907C229.399 312.04 229.631 312.233 229.799 312.485C229.974 312.731 230.062 313.033 230.062 313.39C230.062 313.804 229.946 314.145 229.715 314.411C229.49 314.671 229.192 314.867 228.82 315V315.043C229.094 315.106 229.343 315.214 229.568 315.369C229.792 315.516 229.971 315.709 230.104 315.948C230.238 316.179 230.304 316.449 230.304 316.758C230.304 317.158 230.206 317.502 230.01 317.789C229.813 318.07 229.55 318.287 229.22 318.442C228.891 318.596 228.526 318.673 228.126 318.673Z" fill="#222539"/>
<path d="M248.804 320.925C248.384 320.925 248.015 320.869 247.699 320.757C247.384 320.645 247.138 320.487 246.963 320.283C246.787 320.08 246.7 319.834 246.7 319.547C246.7 319.322 246.766 319.108 246.9 318.905C247.033 318.701 247.215 318.522 247.447 318.368V318.326C247.321 318.242 247.212 318.133 247.121 318C247.036 317.859 246.994 317.691 246.994 317.495C246.994 317.277 247.054 317.088 247.173 316.926C247.3 316.765 247.426 316.639 247.552 316.547V316.505C247.391 316.372 247.24 316.186 247.1 315.948C246.966 315.709 246.9 315.439 246.9 315.137C246.9 314.765 246.984 314.446 247.152 314.18C247.328 313.906 247.556 313.696 247.836 313.548C248.124 313.394 248.44 313.317 248.783 313.317C248.924 313.317 249.054 313.331 249.173 313.359C249.299 313.38 249.404 313.408 249.488 313.443H251.256V314.043H250.173C250.306 314.169 250.415 314.327 250.499 314.516C250.583 314.706 250.625 314.916 250.625 315.148C250.625 315.513 250.541 315.828 250.372 316.095C250.211 316.361 249.99 316.568 249.709 316.716C249.436 316.856 249.127 316.926 248.783 316.926C248.657 316.926 248.524 316.912 248.384 316.884C248.25 316.849 248.124 316.803 248.005 316.747C247.906 316.825 247.822 316.912 247.752 317.01C247.689 317.109 247.657 317.231 247.657 317.379C247.657 317.547 247.721 317.687 247.847 317.8C247.98 317.905 248.219 317.958 248.562 317.958H249.583C250.173 317.958 250.611 318.056 250.899 318.252C251.193 318.442 251.341 318.747 251.341 319.168C251.341 319.476 251.235 319.764 251.025 320.031C250.821 320.297 250.53 320.511 250.151 320.673C249.773 320.841 249.324 320.925 248.804 320.925ZM248.91 320.378C249.246 320.378 249.538 320.325 249.783 320.22C250.036 320.115 250.232 319.978 250.372 319.81C250.513 319.641 250.583 319.462 250.583 319.273C250.583 319.027 250.492 318.856 250.309 318.757C250.134 318.659 249.871 318.61 249.52 318.61H248.583C248.506 318.61 248.408 318.603 248.289 318.589C248.177 318.575 248.057 318.554 247.931 318.526C247.735 318.666 247.591 318.813 247.5 318.968C247.415 319.129 247.373 319.287 247.373 319.441C247.373 319.729 247.51 319.957 247.784 320.125C248.057 320.294 248.433 320.378 248.91 320.378ZM248.783 316.4C248.987 316.4 249.173 316.347 249.341 316.242C249.517 316.137 249.657 315.99 249.762 315.8C249.867 315.611 249.92 315.39 249.92 315.137C249.92 314.878 249.867 314.657 249.762 314.474C249.664 314.285 249.527 314.141 249.352 314.043C249.183 313.938 248.994 313.885 248.783 313.885C248.468 313.885 248.198 313.997 247.973 314.222C247.749 314.439 247.636 314.744 247.636 315.137C247.636 315.39 247.689 315.611 247.794 315.8C247.899 315.99 248.04 316.137 248.215 316.242C248.391 316.347 248.58 316.4 248.783 316.4ZM252.361 318.547V313.443H252.993L253.056 314.38H253.088C253.263 314.057 253.473 313.801 253.719 313.611C253.972 313.415 254.245 313.317 254.54 313.317C254.645 313.317 254.74 313.327 254.824 313.348C254.908 313.362 254.989 313.387 255.066 313.422L254.919 314.095C254.834 314.067 254.757 314.046 254.687 314.032C254.624 314.018 254.54 314.011 254.435 314.011C254.217 314.011 253.989 314.102 253.751 314.285C253.512 314.46 253.302 314.772 253.119 315.221V318.547H252.361ZM257.885 318.673C257.471 318.673 257.085 318.568 256.727 318.357C256.369 318.147 256.082 317.845 255.864 317.452C255.647 317.053 255.538 316.568 255.538 316C255.538 315.432 255.647 314.948 255.864 314.548C256.082 314.148 256.369 313.843 256.727 313.632C257.085 313.422 257.471 313.317 257.885 313.317C258.299 313.317 258.681 313.422 259.032 313.632C259.389 313.843 259.677 314.148 259.895 314.548C260.119 314.948 260.231 315.432 260.231 316C260.231 316.568 260.119 317.053 259.895 317.452C259.677 317.845 259.389 318.147 259.032 318.357C258.681 318.568 258.299 318.673 257.885 318.673ZM257.885 318.031C258.193 318.031 258.463 317.947 258.695 317.779C258.933 317.61 259.116 317.375 259.242 317.074C259.375 316.765 259.442 316.407 259.442 316C259.442 315.6 259.375 315.246 259.242 314.937C259.116 314.629 258.933 314.39 258.695 314.222C258.463 314.046 258.193 313.959 257.885 313.959C257.583 313.959 257.313 314.046 257.074 314.222C256.843 314.39 256.66 314.629 256.527 314.937C256.401 315.246 256.338 315.6 256.338 316C256.338 316.407 256.401 316.765 256.527 317.074C256.66 317.375 256.843 317.61 257.074 317.779C257.313 317.947 257.583 318.031 257.885 318.031ZM263.094 318.673C262.568 318.673 262.179 318.505 261.926 318.168C261.674 317.831 261.547 317.337 261.547 316.684V313.443H262.305V316.589C262.305 317.081 262.386 317.442 262.547 317.673C262.708 317.898 262.968 318.01 263.326 318.01C263.592 318.01 263.834 317.94 264.052 317.8C264.269 317.652 264.504 317.421 264.757 317.105V313.443H265.525V318.547H264.883L264.82 317.737H264.788C264.55 318.017 264.297 318.245 264.031 318.421C263.764 318.589 263.452 318.673 263.094 318.673ZM267.304 320.736V313.443H267.935L267.999 314.053H268.03C268.262 313.85 268.518 313.678 268.798 313.538C269.086 313.39 269.381 313.317 269.682 313.317C270.124 313.317 270.496 313.425 270.798 313.643C271.1 313.853 271.324 314.155 271.471 314.548C271.626 314.934 271.703 315.39 271.703 315.916C271.703 316.498 271.598 316.996 271.387 317.41C271.184 317.817 270.914 318.129 270.577 318.347C270.24 318.564 269.879 318.673 269.493 318.673C269.261 318.673 269.023 318.621 268.777 318.515C268.532 318.41 268.286 318.263 268.041 318.073L268.062 318.978V320.736H267.304ZM269.367 318.021C269.668 318.021 269.935 317.937 270.166 317.768C270.398 317.6 270.58 317.358 270.714 317.042C270.847 316.726 270.914 316.354 270.914 315.927C270.914 315.541 270.864 315.2 270.766 314.906C270.675 314.611 270.524 314.383 270.314 314.222C270.11 314.053 269.84 313.969 269.503 313.969C269.279 313.969 269.047 314.032 268.809 314.159C268.577 314.278 268.328 314.46 268.062 314.706V317.463C268.314 317.666 268.553 317.81 268.777 317.894C269.002 317.979 269.198 318.021 269.367 318.021ZM277.532 318.547V313.959C277.532 313.783 277.539 313.573 277.553 313.327C277.567 313.082 277.578 312.871 277.585 312.696H277.543C277.459 312.85 277.371 313.001 277.28 313.148C277.189 313.296 277.094 313.453 276.996 313.622L275.322 316.042H279.195V316.653H274.502V316.158L277.438 311.833H278.259V318.547H277.532Z" fill="#222539"/>
<path d="M297.476 320.925C297.055 320.925 296.687 320.869 296.371 320.757C296.056 320.645 295.81 320.487 295.635 320.283C295.459 320.08 295.372 319.834 295.372 319.547C295.372 319.322 295.438 319.108 295.572 318.905C295.705 318.701 295.887 318.522 296.119 318.368V318.326C295.992 318.242 295.884 318.133 295.793 318C295.708 317.859 295.666 317.691 295.666 317.495C295.666 317.277 295.726 317.088 295.845 316.926C295.971 316.765 296.098 316.639 296.224 316.547V316.505C296.063 316.372 295.912 316.186 295.772 315.948C295.638 315.709 295.572 315.439 295.572 315.137C295.572 314.765 295.656 314.446 295.824 314.18C296 313.906 296.228 313.696 296.508 313.548C296.796 313.394 297.112 313.317 297.455 313.317C297.596 313.317 297.725 313.331 297.845 313.359C297.971 313.38 298.076 313.408 298.16 313.443H299.928V314.043H298.844C298.978 314.169 299.086 314.327 299.171 314.516C299.255 314.706 299.297 314.916 299.297 315.148C299.297 315.513 299.213 315.828 299.044 316.095C298.883 316.361 298.662 316.568 298.381 316.716C298.108 316.856 297.799 316.926 297.455 316.926C297.329 316.926 297.196 316.912 297.055 316.884C296.922 316.849 296.796 316.803 296.677 316.747C296.578 316.825 296.494 316.912 296.424 317.01C296.361 317.109 296.329 317.231 296.329 317.379C296.329 317.547 296.392 317.687 296.519 317.8C296.652 317.905 296.891 317.958 297.234 317.958H298.255C298.844 317.958 299.283 318.056 299.571 318.252C299.865 318.442 300.012 318.747 300.012 319.168C300.012 319.476 299.907 319.764 299.697 320.031C299.493 320.297 299.202 320.511 298.823 320.673C298.444 320.841 297.995 320.925 297.476 320.925ZM297.582 320.378C297.918 320.378 298.209 320.325 298.455 320.22C298.708 320.115 298.904 319.978 299.044 319.81C299.185 319.641 299.255 319.462 299.255 319.273C299.255 319.027 299.164 318.856 298.981 318.757C298.806 318.659 298.543 318.61 298.192 318.61H297.255C297.178 318.61 297.08 318.603 296.961 318.589C296.848 318.575 296.729 318.554 296.603 318.526C296.406 318.666 296.263 318.813 296.171 318.968C296.087 319.129 296.045 319.287 296.045 319.441C296.045 319.729 296.182 319.957 296.456 320.125C296.729 320.294 297.104 320.378 297.582 320.378ZM297.455 316.4C297.659 316.4 297.845 316.347 298.013 316.242C298.188 316.137 298.329 315.99 298.434 315.8C298.539 315.611 298.592 315.39 298.592 315.137C298.592 314.878 298.539 314.657 298.434 314.474C298.336 314.285 298.199 314.141 298.024 314.043C297.855 313.938 297.666 313.885 297.455 313.885C297.14 313.885 296.869 313.997 296.645 314.222C296.42 314.439 296.308 314.744 296.308 315.137C296.308 315.39 296.361 315.611 296.466 315.8C296.571 315.99 296.712 316.137 296.887 316.242C297.062 316.347 297.252 316.4 297.455 316.4ZM301.033 318.547V313.443H301.665L301.728 314.38H301.759C301.935 314.057 302.145 313.801 302.391 313.611C302.643 313.415 302.917 313.317 303.212 313.317C303.317 313.317 303.412 313.327 303.496 313.348C303.58 313.362 303.661 313.387 303.738 313.422L303.59 314.095C303.506 314.067 303.429 314.046 303.359 314.032C303.296 314.018 303.212 314.011 303.106 314.011C302.889 314.011 302.661 314.102 302.422 314.285C302.184 314.46 301.973 314.772 301.791 315.221V318.547H301.033ZM306.556 318.673C306.143 318.673 305.757 318.568 305.399 318.357C305.041 318.147 304.753 317.845 304.536 317.452C304.318 317.053 304.21 316.568 304.21 316C304.21 315.432 304.318 314.948 304.536 314.548C304.753 314.148 305.041 313.843 305.399 313.632C305.757 313.422 306.143 313.317 306.556 313.317C306.97 313.317 307.353 313.422 307.704 313.632C308.061 313.843 308.349 314.148 308.566 314.548C308.791 314.948 308.903 315.432 308.903 316C308.903 316.568 308.791 317.053 308.566 317.452C308.349 317.845 308.061 318.147 307.704 318.357C307.353 318.568 306.97 318.673 306.556 318.673ZM306.556 318.031C306.865 318.031 307.135 317.947 307.367 317.779C307.605 317.61 307.788 317.375 307.914 317.074C308.047 316.765 308.114 316.407 308.114 316C308.114 315.6 308.047 315.246 307.914 314.937C307.788 314.629 307.605 314.39 307.367 314.222C307.135 314.046 306.865 313.959 306.556 313.959C306.255 313.959 305.985 314.046 305.746 314.222C305.515 314.39 305.332 314.629 305.199 314.937C305.073 315.246 305.01 315.6 305.01 316C305.01 316.407 305.073 316.765 305.199 317.074C305.332 317.375 305.515 317.61 305.746 317.779C305.985 317.947 306.255 318.031 306.556 318.031ZM311.766 318.673C311.24 318.673 310.851 318.505 310.598 318.168C310.345 317.831 310.219 317.337 310.219 316.684V313.443H310.977V316.589C310.977 317.081 311.057 317.442 311.219 317.673C311.38 317.898 311.64 318.01 311.998 318.01C312.264 318.01 312.506 317.94 312.724 317.8C312.941 317.652 313.176 317.421 313.429 317.105V313.443H314.197V318.547H313.555L313.492 317.737H313.46C313.222 318.017 312.969 318.245 312.703 318.421C312.436 318.589 312.124 318.673 311.766 318.673ZM315.976 320.736V313.443H316.607L316.67 314.053H316.702C316.934 313.85 317.19 313.678 317.47 313.538C317.758 313.39 318.053 313.317 318.354 313.317C318.796 313.317 319.168 313.425 319.47 313.643C319.771 313.853 319.996 314.155 320.143 314.548C320.298 314.934 320.375 315.39 320.375 315.916C320.375 316.498 320.269 316.996 320.059 317.41C319.856 317.817 319.585 318.129 319.249 318.347C318.912 318.564 318.551 318.673 318.165 318.673C317.933 318.673 317.695 318.621 317.449 318.515C317.204 318.41 316.958 318.263 316.713 318.073L316.734 318.978V320.736H315.976ZM318.039 318.021C318.34 318.021 318.607 317.937 318.838 317.768C319.07 317.6 319.252 317.358 319.386 317.042C319.519 316.726 319.585 316.354 319.585 315.927C319.585 315.541 319.536 315.2 319.438 314.906C319.347 314.611 319.196 314.383 318.986 314.222C318.782 314.053 318.512 313.969 318.175 313.969C317.951 313.969 317.719 314.032 317.481 314.159C317.249 314.278 317 314.46 316.734 314.706V317.463C316.986 317.666 317.225 317.81 317.449 317.894C317.674 317.979 317.87 318.021 318.039 318.021ZM325.436 318.673C325.078 318.673 324.763 318.631 324.489 318.547C324.222 318.456 323.987 318.34 323.784 318.2C323.587 318.059 323.412 317.912 323.258 317.758L323.647 317.252C323.851 317.449 324.086 317.628 324.352 317.789C324.626 317.951 324.966 318.031 325.373 318.031C325.654 318.031 325.91 317.965 326.141 317.831C326.373 317.698 326.555 317.512 326.688 317.274C326.822 317.035 326.888 316.754 326.888 316.432C326.888 315.948 326.755 315.572 326.488 315.306C326.222 315.032 325.864 314.895 325.415 314.895C325.176 314.895 324.97 314.93 324.794 315C324.626 315.071 324.44 315.172 324.236 315.306L323.815 315.043L324.036 311.833H327.33V312.496H324.71L324.521 314.59C324.689 314.499 324.857 314.429 325.026 314.38C325.194 314.323 325.383 314.295 325.594 314.295C325.98 314.295 326.327 314.373 326.636 314.527C326.951 314.674 327.201 314.902 327.383 315.211C327.572 315.52 327.667 315.916 327.667 316.4C327.667 316.884 327.562 317.298 327.351 317.642C327.141 317.979 326.864 318.235 326.52 318.41C326.183 318.585 325.822 318.673 325.436 318.673Z" fill="#222539"/>
<path d="M346.148 320.925C345.727 320.925 345.359 320.869 345.043 320.757C344.728 320.645 344.482 320.487 344.307 320.283C344.131 320.08 344.043 319.834 344.043 319.547C344.043 319.322 344.11 319.108 344.243 318.905C344.377 318.701 344.559 318.522 344.791 318.368V318.326C344.664 318.242 344.556 318.133 344.464 318C344.38 317.859 344.338 317.691 344.338 317.495C344.338 317.277 344.398 317.088 344.517 316.926C344.643 316.765 344.77 316.639 344.896 316.547V316.505C344.735 316.372 344.584 316.186 344.443 315.948C344.31 315.709 344.243 315.439 344.243 315.137C344.243 314.765 344.328 314.446 344.496 314.18C344.671 313.906 344.899 313.696 345.18 313.548C345.468 313.394 345.783 313.317 346.127 313.317C346.267 313.317 346.397 313.331 346.517 313.359C346.643 313.38 346.748 313.408 346.832 313.443H348.6V314.043H347.516C347.65 314.169 347.758 314.327 347.842 314.516C347.927 314.706 347.969 314.916 347.969 315.148C347.969 315.513 347.885 315.828 347.716 316.095C347.555 316.361 347.334 316.568 347.053 316.716C346.78 316.856 346.471 316.926 346.127 316.926C346.001 316.926 345.868 316.912 345.727 316.884C345.594 316.849 345.468 316.803 345.348 316.747C345.25 316.825 345.166 316.912 345.096 317.01C345.033 317.109 345.001 317.231 345.001 317.379C345.001 317.547 345.064 317.687 345.191 317.8C345.324 317.905 345.562 317.958 345.906 317.958H346.927C347.516 317.958 347.955 318.056 348.242 318.252C348.537 318.442 348.684 318.747 348.684 319.168C348.684 319.476 348.579 319.764 348.369 320.031C348.165 320.297 347.874 320.511 347.495 320.673C347.116 320.841 346.667 320.925 346.148 320.925ZM346.253 320.378C346.59 320.378 346.881 320.325 347.127 320.22C347.379 320.115 347.576 319.978 347.716 319.81C347.857 319.641 347.927 319.462 347.927 319.273C347.927 319.027 347.835 318.856 347.653 318.757C347.478 318.659 347.215 318.61 346.864 318.61H345.927C345.85 318.61 345.752 318.603 345.633 318.589C345.52 318.575 345.401 318.554 345.275 318.526C345.078 318.666 344.934 318.813 344.843 318.968C344.759 319.129 344.717 319.287 344.717 319.441C344.717 319.729 344.854 319.957 345.127 320.125C345.401 320.294 345.776 320.378 346.253 320.378ZM346.127 316.4C346.331 316.4 346.517 316.347 346.685 316.242C346.86 316.137 347.001 315.99 347.106 315.8C347.211 315.611 347.264 315.39 347.264 315.137C347.264 314.878 347.211 314.657 347.106 314.474C347.008 314.285 346.871 314.141 346.695 314.043C346.527 313.938 346.338 313.885 346.127 313.885C345.811 313.885 345.541 313.997 345.317 314.222C345.092 314.439 344.98 314.744 344.98 315.137C344.98 315.39 345.033 315.611 345.138 315.8C345.243 315.99 345.383 316.137 345.559 316.242C345.734 316.347 345.924 316.4 346.127 316.4ZM349.705 318.547V313.443H350.337L350.4 314.38H350.431C350.607 314.057 350.817 313.801 351.063 313.611C351.315 313.415 351.589 313.317 351.884 313.317C351.989 313.317 352.083 313.327 352.168 313.348C352.252 313.362 352.333 313.387 352.41 313.422L352.262 314.095C352.178 314.067 352.101 314.046 352.031 314.032C351.968 314.018 351.884 314.011 351.778 314.011C351.561 314.011 351.333 314.102 351.094 314.285C350.856 314.46 350.645 314.772 350.463 315.221V318.547H349.705ZM355.228 318.673C354.814 318.673 354.429 318.568 354.071 318.357C353.713 318.147 353.425 317.845 353.208 317.452C352.99 317.053 352.882 316.568 352.882 316C352.882 315.432 352.99 314.948 353.208 314.548C353.425 314.148 353.713 313.843 354.071 313.632C354.429 313.422 354.814 313.317 355.228 313.317C355.642 313.317 356.025 313.422 356.375 313.632C356.733 313.843 357.021 314.148 357.238 314.548C357.463 314.948 357.575 315.432 357.575 316C357.575 316.568 357.463 317.053 357.238 317.452C357.021 317.845 356.733 318.147 356.375 318.357C356.025 318.568 355.642 318.673 355.228 318.673ZM355.228 318.031C355.537 318.031 355.807 317.947 356.039 317.779C356.277 317.61 356.46 317.375 356.586 317.074C356.719 316.765 356.786 316.407 356.786 316C356.786 315.6 356.719 315.246 356.586 314.937C356.46 314.629 356.277 314.39 356.039 314.222C355.807 314.046 355.537 313.959 355.228 313.959C354.927 313.959 354.657 314.046 354.418 314.222C354.187 314.39 354.004 314.629 353.871 314.937C353.745 315.246 353.681 315.6 353.681 316C353.681 316.407 353.745 316.765 353.871 317.074C354.004 317.375 354.187 317.61 354.418 317.779C354.657 317.947 354.927 318.031 355.228 318.031ZM360.438 318.673C359.912 318.673 359.522 318.505 359.27 318.168C359.017 317.831 358.891 317.337 358.891 316.684V313.443H359.649V316.589C359.649 317.081 359.729 317.442 359.891 317.673C360.052 317.898 360.312 318.01 360.669 318.01C360.936 318.01 361.178 317.94 361.396 317.8C361.613 317.652 361.848 317.421 362.101 317.105V313.443H362.869V318.547H362.227L362.164 317.737H362.132C361.894 318.017 361.641 318.245 361.375 318.421C361.108 318.589 360.796 318.673 360.438 318.673ZM364.648 320.736V313.443H365.279L365.342 314.053H365.374C365.605 313.85 365.861 313.678 366.142 313.538C366.43 313.39 366.724 313.317 367.026 313.317C367.468 313.317 367.84 313.425 368.142 313.643C368.443 313.853 368.668 314.155 368.815 314.548C368.969 314.934 369.047 315.39 369.047 315.916C369.047 316.498 368.941 316.996 368.731 317.41C368.527 317.817 368.257 318.129 367.921 318.347C367.584 318.564 367.223 318.673 366.837 318.673C366.605 318.673 366.367 318.621 366.121 318.515C365.876 318.41 365.63 318.263 365.384 318.073L365.405 318.978V320.736H364.648ZM366.71 318.021C367.012 318.021 367.279 317.937 367.51 317.768C367.742 317.6 367.924 317.358 368.057 317.042C368.191 316.726 368.257 316.354 368.257 315.927C368.257 315.541 368.208 315.2 368.11 314.906C368.019 314.611 367.868 314.383 367.657 314.222C367.454 314.053 367.184 313.969 366.847 313.969C366.623 313.969 366.391 314.032 366.153 314.159C365.921 314.278 365.672 314.46 365.405 314.706V317.463C365.658 317.666 365.897 317.81 366.121 317.894C366.346 317.979 366.542 318.021 366.71 318.021ZM374.466 318.673C374.136 318.673 373.831 318.607 373.55 318.473C373.27 318.34 373.028 318.14 372.824 317.873C372.628 317.6 372.47 317.263 372.351 316.863C372.238 316.456 372.182 315.99 372.182 315.463C372.182 314.776 372.252 314.194 372.393 313.717C372.533 313.239 372.719 312.854 372.95 312.559C373.189 312.264 373.459 312.05 373.761 311.917C374.069 311.777 374.389 311.707 374.718 311.707C375.069 311.707 375.371 311.773 375.623 311.907C375.883 312.033 376.104 312.198 376.286 312.401L375.855 312.885C375.715 312.717 375.546 312.587 375.35 312.496C375.16 312.398 374.957 312.349 374.739 312.349C374.41 312.349 374.104 312.447 373.824 312.643C373.55 312.84 373.329 313.166 373.161 313.622C372.992 314.071 372.908 314.685 372.908 315.463C372.908 316.011 372.968 316.481 373.087 316.874C373.206 317.259 373.382 317.554 373.613 317.758C373.845 317.961 374.132 318.063 374.476 318.063C374.701 318.063 374.904 318 375.087 317.873C375.276 317.74 375.423 317.558 375.529 317.326C375.634 317.095 375.686 316.832 375.686 316.537C375.686 316.235 375.637 315.972 375.539 315.748C375.448 315.523 375.308 315.351 375.118 315.232C374.929 315.106 374.687 315.043 374.392 315.043C374.168 315.043 373.922 315.116 373.655 315.264C373.389 315.411 373.133 315.663 372.887 316.021L372.866 315.39C373.084 315.102 373.34 314.874 373.634 314.706C373.929 314.537 374.224 314.453 374.518 314.453C374.904 314.453 375.237 314.534 375.518 314.695C375.806 314.85 376.027 315.081 376.181 315.39C376.335 315.691 376.413 316.074 376.413 316.537C376.413 316.958 376.325 317.33 376.15 317.652C375.974 317.968 375.739 318.217 375.444 318.4C375.15 318.582 374.824 318.673 374.466 318.673Z" fill="#222539"/>
<path d="M49.3632 44.3568C49.0335 44.3568 48.7283 44.2901 48.4477 44.1568C48.1671 44.0235 47.925 43.8236 47.7216 43.557C47.5251 43.2833 47.3673 42.9466 47.248 42.5467C47.1358 42.1398 47.0796 41.6732 47.0796 41.1471C47.0796 40.4595 47.1498 39.8772 47.2901 39.4002C47.4304 38.9231 47.6163 38.5372 47.8479 38.2426C48.0864 37.9479 48.3565 37.7339 48.6582 37.6006C48.9669 37.4603 49.2861 37.3902 49.6158 37.3902C49.9666 37.3902 50.2683 37.4568 50.5208 37.5901C50.7804 37.7164 51.0014 37.8813 51.1838 38.0847L50.7524 38.5688C50.612 38.4004 50.4437 38.2706 50.2472 38.1794C50.0578 38.0812 49.8543 38.0321 49.6369 38.0321C49.3071 38.0321 49.0019 38.1303 48.7213 38.3268C48.4477 38.5232 48.2267 38.8494 48.0583 39.3054C47.8899 39.7545 47.8058 40.3683 47.8058 41.1471C47.8058 41.6943 47.8654 42.1643 47.9847 42.5572C48.1039 42.9431 48.2793 43.2377 48.5108 43.4412C48.7424 43.6447 49.03 43.7464 49.3738 43.7464C49.5983 43.7464 49.8017 43.6832 49.9841 43.557C50.1736 43.4237 50.3209 43.2413 50.4261 43.0097C50.5314 42.7782 50.584 42.5151 50.584 42.2205C50.584 41.9188 50.5349 41.6557 50.4366 41.4312C50.3454 41.2067 50.2051 41.0348 50.0157 40.9156C49.8263 40.7893 49.5842 40.7261 49.2896 40.7261C49.0651 40.7261 48.8195 40.7998 48.5529 40.9471C48.2863 41.0945 48.0303 41.347 47.7847 41.7048L47.7637 41.0734C47.9812 40.7858 48.2372 40.5578 48.5319 40.3894C48.8265 40.221 49.1212 40.1368 49.4159 40.1368C49.8017 40.1368 50.135 40.2175 50.4156 40.3789C50.7032 40.5332 50.9242 40.7647 51.0786 41.0734C51.2329 41.3751 51.3101 41.7574 51.3101 42.2205C51.3101 42.6414 51.2224 43.0132 51.047 43.336C50.8716 43.6517 50.6366 43.9007 50.3419 44.0831C50.0473 44.2655 49.721 44.3568 49.3632 44.3568ZM54.3323 44.3568C53.6729 44.3568 53.1537 44.0551 52.7748 43.4517C52.403 42.8414 52.2171 41.9749 52.2171 40.8524C52.2171 39.7229 52.403 38.8635 52.7748 38.2741C53.1537 37.6848 53.6729 37.3902 54.3323 37.3902C54.9988 37.3902 55.518 37.6883 55.8898 38.2847C56.2616 38.874 56.4476 39.7299 56.4476 40.8524C56.4476 41.9749 56.2616 42.8414 55.8898 43.4517C55.518 44.0551 54.9988 44.3568 54.3323 44.3568ZM54.3323 43.7359C54.6059 43.7359 54.8445 43.6341 55.0479 43.4307C55.2584 43.2272 55.4198 42.9115 55.532 42.4836C55.6443 42.0556 55.7004 41.5119 55.7004 40.8524C55.7004 40.1859 55.6443 39.6457 55.532 39.2318C55.4198 38.8108 55.2584 38.5022 55.0479 38.3057C54.8445 38.1093 54.6059 38.0111 54.3323 38.0111C54.0587 38.0111 53.8202 38.1093 53.6167 38.3057C53.4133 38.5022 53.2519 38.8108 53.1326 39.2318C53.0204 39.6457 52.9643 40.1859 52.9643 40.8524C52.9643 41.5119 53.0204 42.0556 53.1326 42.4836C53.2519 42.9115 53.4133 43.2272 53.6167 43.4307C53.8202 43.6341 54.0587 43.7359 54.3323 43.7359ZM49.0054 88.3568C48.6476 88.3568 48.3319 88.3147 48.0583 88.2305C47.7917 88.1393 47.5567 88.0235 47.3532 87.8832C47.1568 87.7429 46.9814 87.5955 46.8271 87.4412L47.2164 86.9361C47.4199 87.1325 47.6549 87.3114 47.9215 87.4728C48.1951 87.6341 48.5354 87.7148 48.9423 87.7148C49.2229 87.7148 49.479 87.6482 49.7105 87.5149C49.942 87.3816 50.1244 87.1957 50.2577 86.9571C50.391 86.7186 50.4577 86.438 50.4577 86.1152C50.4577 85.6312 50.3244 85.2558 50.0578 84.9892C49.7912 84.7156 49.4334 84.5788 48.9844 84.5788C48.7459 84.5788 48.5389 84.6139 48.3635 84.684C48.1951 84.7542 48.0092 84.8559 47.8058 84.9892L47.3848 84.7261L47.6058 81.5164H50.8997V82.1794H48.2793L48.0899 84.2736C48.2583 84.1824 48.4266 84.1123 48.595 84.0631C48.7634 84.007 48.9528 83.979 49.1633 83.979C49.5492 83.979 49.8964 84.0561 50.2051 84.2105C50.5208 84.3578 50.7699 84.5858 50.9523 84.8945C51.1417 85.2032 51.2364 85.5996 51.2364 86.0837C51.2364 86.5677 51.1312 86.9817 50.9207 87.3254C50.7103 87.6622 50.4331 87.9183 50.0894 88.0937C49.7526 88.2691 49.3913 88.3568 49.0054 88.3568ZM54.3323 88.3568C53.6729 88.3568 53.1537 88.0551 52.7748 87.4517C52.403 86.8414 52.2171 85.9749 52.2171 84.8524C52.2171 83.7229 52.403 82.8635 52.7748 82.2741C53.1537 81.6848 53.6729 81.3902 54.3323 81.3902C54.9988 81.3902 55.518 81.6883 55.8898 82.2847C56.2616 82.874 56.4476 83.7299 56.4476 84.8524C56.4476 85.9749 56.2616 86.8414 55.8898 87.4517C55.518 88.0551 54.9988 88.3568 54.3323 88.3568ZM54.3323 87.7359C54.6059 87.7359 54.8445 87.6341 55.0479 87.4307C55.2584 87.2272 55.4198 86.9115 55.532 86.4836C55.6443 86.0556 55.7004 85.5119 55.7004 84.8524C55.7004 84.1859 55.6443 83.6457 55.532 83.2318C55.4198 82.8108 55.2584 82.5022 55.0479 82.3057C54.8445 82.1093 54.6059 82.0111 54.3323 82.0111C54.0587 82.0111 53.8202 82.1093 53.6167 82.3057C53.4133 82.5022 53.2519 82.8108 53.1326 83.2318C53.0204 83.6457 52.9643 84.1859 52.9643 84.8524C52.9643 85.5119 53.0204 86.0556 53.1326 86.4836C53.2519 86.9115 53.4133 87.2272 53.6167 87.4307C53.8202 87.6341 54.0587 87.7359 54.3323 87.7359ZM49.7737 131.23V126.642C49.7737 126.467 49.7807 126.256 49.7947 126.011C49.8087 125.765 49.8193 125.555 49.8263 125.379H49.7842C49.7 125.534 49.6123 125.685 49.5211 125.832C49.4299 125.979 49.3352 126.137 49.237 126.305L47.5637 128.726H51.4364V129.336H46.7429V128.842L49.6789 124.516H50.4998V131.23H49.7737ZM54.3323 131.357C53.6729 131.357 53.1537 131.055 52.7748 130.452C52.403 129.841 52.2171 128.975 52.2171 127.852C52.2171 126.723 52.403 125.863 52.7748 125.274C53.1537 124.685 53.6729 124.39 54.3323 124.39C54.9988 124.39 55.518 124.688 55.8898 125.285C56.2616 125.874 56.4476 126.73 56.4476 127.852C56.4476 128.975 56.2616 129.841 55.8898 130.452C55.518 131.055 54.9988 131.357 54.3323 131.357ZM54.3323 130.736C54.6059 130.736 54.8445 130.634 55.0479 130.431C55.2584 130.227 55.4198 129.912 55.532 129.484C55.6443 129.056 55.7004 128.512 55.7004 127.852C55.7004 127.186 55.6443 126.646 55.532 126.232C55.4198 125.811 55.2584 125.502 55.0479 125.306C54.8445 125.109 54.6059 125.011 54.3323 125.011C54.0587 125.011 53.8202 125.109 53.6167 125.306C53.4133 125.502 53.2519 125.811 53.1326 126.232C53.0204 126.646 52.9643 127.186 52.9643 127.852C52.9643 128.512 53.0204 129.056 53.1326 129.484C53.2519 129.912 53.4133 130.227 53.6167 130.431C53.8202 130.634 54.0587 130.736 54.3323 130.736ZM49.037 175.357C48.6792 175.357 48.3635 175.311 48.0899 175.22C47.8163 175.129 47.5777 175.013 47.3743 174.873C47.1708 174.725 46.9954 174.571 46.8481 174.41L47.2375 173.905C47.4409 174.115 47.6795 174.304 47.9531 174.473C48.2337 174.634 48.581 174.715 48.9949 174.715C49.4159 174.715 49.7596 174.599 50.0262 174.368C50.2998 174.129 50.4366 173.813 50.4366 173.42C50.4366 173.147 50.363 172.905 50.2157 172.694C50.0753 172.484 49.8438 172.322 49.5211 172.21C49.2054 172.091 48.7774 172.031 48.2372 172.031V171.431C48.7213 171.431 49.1037 171.375 49.3843 171.263C49.6719 171.144 49.8789 170.986 50.0052 170.79C50.1315 170.593 50.1946 170.372 50.1946 170.127C50.1946 169.79 50.0859 169.523 49.8684 169.327C49.6509 169.123 49.3562 169.022 48.9844 169.022C48.6968 169.022 48.4302 169.088 48.1846 169.222C47.9391 169.348 47.7181 169.513 47.5216 169.716L47.1007 169.222C47.3603 168.983 47.6444 168.787 47.9531 168.632C48.2618 168.471 48.6126 168.39 49.0054 168.39C49.3843 168.39 49.721 168.457 50.0157 168.59C50.3104 168.723 50.5419 168.916 50.7103 169.169C50.8857 169.414 50.9733 169.716 50.9733 170.074C50.9733 170.488 50.8576 170.828 50.6261 171.095C50.4016 171.354 50.1034 171.551 49.7316 171.684V171.726C50.0052 171.789 50.2542 171.898 50.4787 172.052C50.7032 172.2 50.8821 172.393 51.0154 172.631C51.1487 172.863 51.2154 173.133 51.2154 173.441C51.2154 173.841 51.1172 174.185 50.9207 174.473C50.7243 174.753 50.4612 174.971 50.1315 175.125C49.8017 175.28 49.4369 175.357 49.037 175.357ZM54.3323 175.357C53.6729 175.357 53.1537 175.055 52.7748 174.452C52.403 173.841 52.2171 172.975 52.2171 171.852C52.2171 170.723 52.403 169.863 52.7748 169.274C53.1537 168.685 53.6729 168.39 54.3323 168.39C54.9988 168.39 55.518 168.688 55.8898 169.285C56.2616 169.874 56.4476 170.73 56.4476 171.852C56.4476 172.975 56.2616 173.841 55.8898 174.452C55.518 175.055 54.9988 175.357 54.3323 175.357ZM54.3323 174.736C54.6059 174.736 54.8445 174.634 55.0479 174.431C55.2584 174.227 55.4198 173.912 55.532 173.484C55.6443 173.056 55.7004 172.512 55.7004 171.852C55.7004 171.186 55.6443 170.646 55.532 170.232C55.4198 169.811 55.2584 169.502 55.0479 169.306C54.8445 169.109 54.6059 169.011 54.3323 169.011C54.0587 169.011 53.8202 169.109 53.6167 169.306C53.4133 169.502 53.2519 169.811 53.1326 170.232C53.0204 170.646 52.9643 171.186 52.9643 171.852C52.9643 172.512 53.0204 173.056 53.1326 173.484C53.2519 173.912 53.4133 174.227 53.6167 174.431C53.8202 174.634 54.0587 174.736 54.3323 174.736ZM46.9849 218.23V217.778C47.6725 217.083 48.2548 216.477 48.7318 215.957C49.2089 215.431 49.5702 214.961 49.8158 214.547C50.0613 214.133 50.1841 213.74 50.1841 213.369C50.1841 212.976 50.0753 212.653 49.8579 212.4C49.6474 212.148 49.3141 212.022 48.8581 212.022C48.5775 212.022 48.3109 212.099 48.0583 212.253C47.8128 212.407 47.5918 212.604 47.3953 212.842L46.9428 212.4C47.2235 212.099 47.5216 211.857 47.8373 211.674C48.153 211.485 48.5249 211.39 48.9528 211.39C49.3597 211.39 49.7105 211.471 50.0052 211.632C50.3069 211.794 50.5384 212.022 50.6997 212.316C50.8611 212.604 50.9418 212.944 50.9418 213.337C50.9418 213.765 50.819 214.196 50.5735 214.631C50.3349 215.066 50.0017 215.529 49.5737 216.021C49.1528 216.505 48.6652 217.038 48.1109 217.62C48.2933 217.606 48.4828 217.596 48.6792 217.589C48.8757 217.575 49.0616 217.567 49.237 217.567H51.268V218.23H46.9849ZM54.3323 218.357C53.6729 218.357 53.1537 218.055 52.7748 217.452C52.403 216.841 52.2171 215.975 52.2171 214.852C52.2171 213.723 52.403 212.863 52.7748 212.274C53.1537 211.685 53.6729 211.39 54.3323 211.39C54.9988 211.39 55.518 211.688 55.8898 212.285C56.2616 212.874 56.4476 213.73 56.4476 214.852C56.4476 215.975 56.2616 216.841 55.8898 217.452C55.518 218.055 54.9988 218.357 54.3323 218.357ZM54.3323 217.736C54.6059 217.736 54.8445 217.634 55.0479 217.431C55.2584 217.227 55.4198 216.912 55.532 216.484C55.6443 216.056 55.7004 215.512 55.7004 214.852C55.7004 214.186 55.6443 213.646 55.532 213.232C55.4198 212.811 55.2584 212.502 55.0479 212.306C54.8445 212.109 54.6059 212.011 54.3323 212.011C54.0587 212.011 53.8202 212.109 53.6167 212.306C53.4133 212.502 53.2519 212.811 53.1326 213.232C53.0204 213.646 52.9643 214.186 52.9643 214.852C52.9643 215.512 53.0204 216.056 53.1326 216.484C53.2519 216.912 53.4133 217.227 53.6167 217.431C53.8202 217.634 54.0587 217.736 54.3323 217.736ZM47.5113 261.23V260.589H49.0582V255.485H47.8375V254.99C48.1392 254.941 48.4023 254.878 48.6268 254.801C48.8513 254.716 49.0547 254.622 49.2371 254.516H49.8264V260.589H51.2261V261.23H47.5113ZM54.3323 261.357C53.6729 261.357 53.1537 261.055 52.7748 260.452C52.403 259.841 52.2171 258.975 52.2171 257.852C52.2171 256.723 52.403 255.863 52.7748 255.274C53.1537 254.685 53.6729 254.39 54.3323 254.39C54.9988 254.39 55.518 254.688 55.8898 255.285C56.2616 255.874 56.4476 256.73 56.4476 257.852C56.4476 258.975 56.2616 259.841 55.8898 260.452C55.518 261.055 54.9988 261.357 54.3323 261.357ZM54.3323 260.736C54.6059 260.736 54.8445 260.634 55.0479 260.431C55.2584 260.227 55.4198 259.912 55.532 259.484C55.6443 259.056 55.7004 258.512 55.7004 257.852C55.7004 257.186 55.6443 256.646 55.532 256.232C55.4198 255.811 55.2584 255.502 55.0479 255.306C54.8445 255.109 54.6059 255.011 54.3323 255.011C54.0587 255.011 53.8202 255.109 53.6167 255.306C53.4133 255.502 53.2519 255.811 53.1326 256.232C53.0204 256.646 52.9643 257.186 52.9643 257.852C52.9643 258.512 53.0204 259.056 53.1326 259.484C53.2519 259.912 53.4133 260.227 53.6167 260.431C53.8202 260.634 54.0587 260.736 54.3323 260.736ZM54.3323 305.357C53.6729 305.357 53.1537 305.055 52.7748 304.452C52.403 303.841 52.2171 302.975 52.2171 301.852C52.2171 300.723 52.403 299.863 52.7748 299.274C53.1537 298.685 53.6729 298.39 54.3323 298.39C54.9988 298.39 55.518 298.688 55.8898 299.285C56.2616 299.874 56.4476 300.73 56.4476 301.852C56.4476 302.975 56.2616 303.841 55.8898 304.452C55.518 305.055 54.9988 305.357 54.3323 305.357ZM54.3323 304.736C54.6059 304.736 54.8445 304.634 55.0479 304.431C55.2584 304.227 55.4198 303.912 55.532 303.484C55.6443 303.056 55.7004 302.512 55.7004 301.852C55.7004 301.186 55.6443 300.646 55.532 300.232C55.4198 299.811 55.2584 299.502 55.0479 299.306C54.8445 299.109 54.6059 299.011 54.3323 299.011C54.0587 299.011 53.8202 299.109 53.6167 299.306C53.4133 299.502 53.2519 299.811 53.1326 300.232C53.0204 300.646 52.9643 301.186 52.9643 301.852C52.9643 302.512 53.0204 303.056 53.1326 303.484C53.2519 303.912 53.4133 304.227 53.6167 304.431C53.8202 304.634 54.0587 304.736 54.3323 304.736Z" fill="#222539"/>
<path d="M32.7852 195.615H26.5342V197.741H25.8712V192.721H26.5342V194.837H32.7852V195.615ZM32.7852 191.53H27.6812V190.772H32.7852V191.53ZM26.5868 191.141C26.5868 191.288 26.5377 191.414 26.4395 191.519C26.3412 191.618 26.2114 191.667 26.0501 191.667C25.8957 191.667 25.773 191.618 25.6818 191.519C25.5835 191.414 25.5344 191.288 25.5344 191.141C25.5344 190.986 25.5835 190.86 25.6818 190.762C25.773 190.664 25.8957 190.614 26.0501 190.614C26.2114 190.614 26.3412 190.664 26.4395 190.762C26.5377 190.86 26.5868 190.986 26.5868 191.141ZM32.9114 187.434C32.9114 187.961 32.7571 188.329 32.4484 188.539C32.1397 188.743 31.7398 188.845 31.2487 188.845H28.3126V189.613H27.7339L27.6812 188.813L26.2395 188.718V188.076H27.6812V186.677H28.3126V188.076H31.2698C31.5855 188.076 31.8345 188.02 32.0169 187.908C32.1923 187.789 32.28 187.575 32.28 187.266C32.28 187.175 32.266 187.077 32.2379 186.971C32.2099 186.859 32.1783 186.761 32.1432 186.677L32.722 186.519C32.7711 186.659 32.8132 186.81 32.8483 186.971C32.8904 187.133 32.9114 187.287 32.9114 187.434ZM32.9114 184.666C32.9114 184.856 32.8693 185.013 32.7852 185.14C32.708 185.266 32.5922 185.357 32.4379 185.413C32.2765 185.469 32.0801 185.497 31.8486 185.497H25.2713V184.74H31.9117C32.038 184.74 32.1292 184.715 32.1853 184.666C32.2414 184.617 32.2695 184.561 32.2695 184.498C32.2695 184.477 32.2695 184.452 32.2695 184.424C32.2625 184.396 32.2555 184.357 32.2485 184.308L32.8378 184.203C32.8518 184.259 32.8658 184.326 32.8799 184.403C32.9009 184.473 32.9114 184.561 32.9114 184.666ZM32.9114 180.846C32.9114 181.288 32.8062 181.695 32.5957 182.067C32.3782 182.432 32.0731 182.723 31.6802 182.94C31.2803 183.158 30.7997 183.266 30.2385 183.266C29.6842 183.266 29.2072 183.158 28.8073 182.94C28.4074 182.723 28.0987 182.442 27.8812 182.098C27.6637 181.748 27.555 181.376 27.555 180.983C27.555 180.562 27.6532 180.201 27.8496 179.899C28.0461 179.597 28.3232 179.369 28.681 179.215C29.0318 179.054 29.4527 178.973 29.9438 178.973C30.028 178.973 30.1122 178.976 30.1964 178.983C30.2735 178.983 30.3437 178.99 30.4068 179.004V182.667L29.8491 182.677V179.657C29.3019 179.657 28.8879 179.773 28.6073 180.004C28.3197 180.236 28.1758 180.558 28.1758 180.972C28.1758 181.225 28.2495 181.47 28.3968 181.709C28.5442 181.948 28.7687 182.144 29.0703 182.298C29.372 182.453 29.7614 182.53 30.2385 182.53C30.6945 182.53 31.0733 182.449 31.375 182.288C31.6767 182.126 31.9047 181.912 32.059 181.646C32.2134 181.372 32.2905 181.074 32.2905 180.751C32.2905 180.492 32.252 180.26 32.1748 180.057C32.0976 179.846 31.9994 179.646 31.8801 179.457L32.3853 179.173C32.5256 179.39 32.6484 179.636 32.7536 179.909C32.8588 180.176 32.9114 180.488 32.9114 180.846Z" fill="#3F4252"/>
<path d="M231.541 338.781V332.53H229.415V331.867H234.435V332.53H232.319V338.781H231.541ZM235.626 338.781V333.677H236.384V338.781H235.626ZM236.015 332.583C235.868 332.583 235.742 332.534 235.636 332.436C235.538 332.337 235.489 332.208 235.489 332.046C235.489 331.892 235.538 331.769 235.636 331.678C235.742 331.58 235.868 331.531 236.015 331.531C236.17 331.531 236.296 331.58 236.394 331.678C236.492 331.769 236.541 331.892 236.541 332.046C236.541 332.208 236.492 332.337 236.394 332.436C236.296 332.534 236.17 332.583 236.015 332.583ZM239.722 338.908C239.195 338.908 238.827 338.753 238.617 338.444C238.413 338.136 238.311 337.736 238.311 337.245V334.309H237.543V333.73L238.343 333.677L238.438 332.236H239.08V333.677H240.479V334.309H239.08V337.266C239.08 337.582 239.136 337.831 239.248 338.013C239.367 338.188 239.581 338.276 239.89 338.276C239.981 338.276 240.079 338.262 240.185 338.234C240.297 338.206 240.395 338.174 240.479 338.139L240.637 338.718C240.497 338.767 240.346 338.809 240.185 338.844C240.023 338.886 239.869 338.908 239.722 338.908ZM242.49 338.908C242.3 338.908 242.143 338.865 242.016 338.781C241.89 338.704 241.799 338.588 241.743 338.434C241.687 338.273 241.658 338.076 241.658 337.845V331.267H242.416V337.908C242.416 338.034 242.441 338.125 242.49 338.181C242.539 338.238 242.595 338.266 242.658 338.266C242.679 338.266 242.704 338.266 242.732 338.266C242.76 338.259 242.798 338.252 242.848 338.245L242.953 338.834C242.897 338.848 242.83 338.862 242.753 338.876C242.683 338.897 242.595 338.908 242.49 338.908ZM246.31 338.908C245.868 338.908 245.461 338.802 245.089 338.592C244.724 338.374 244.433 338.069 244.216 337.676C243.998 337.276 243.889 336.796 243.889 336.235C243.889 335.68 243.998 335.203 244.216 334.803C244.433 334.403 244.714 334.095 245.058 333.877C245.408 333.66 245.78 333.551 246.173 333.551C246.594 333.551 246.955 333.649 247.257 333.846C247.559 334.042 247.787 334.319 247.941 334.677C248.102 335.028 248.183 335.449 248.183 335.94C248.183 336.024 248.18 336.108 248.173 336.192C248.173 336.27 248.166 336.34 248.151 336.403H244.489L244.479 335.845H247.499C247.499 335.298 247.383 334.884 247.152 334.603C246.92 334.316 246.598 334.172 246.184 334.172C245.931 334.172 245.685 334.246 245.447 334.393C245.208 334.54 245.012 334.765 244.858 335.066C244.703 335.368 244.626 335.757 244.626 336.235C244.626 336.691 244.707 337.069 244.868 337.371C245.029 337.673 245.243 337.901 245.51 338.055C245.784 338.209 246.082 338.287 246.405 338.287C246.664 338.287 246.896 338.248 247.099 338.171C247.31 338.094 247.51 337.995 247.699 337.876L247.983 338.381C247.766 338.522 247.52 338.644 247.246 338.75C246.98 338.855 246.668 338.908 246.31 338.908Z" fill="black"/>
<rect x="94.4766" y="158.844" width="42.0942" height="18.4162" fill="#46327E"/>
<rect x="114.537" y="177.262" width="1.97316" height="10.5235" fill="#46327E"/>
<rect x="108.617" y="187.785" width="13.8122" height="1.97316" fill="#46327E"/>
<rect x="94.4766" y="168.051" width="42.0942" height="1.31544" fill="white"/>
<rect x="143.809" y="171.996" width="42.0942" height="23.0203" fill="#365C8D"/>
<rect x="163.869" y="195.016" width="1.97316" height="10.5235" fill="#365C8D"/>
<rect x="157.949" y="205.539" width="13.8122" height="1.97316" fill="#365C8D"/>
<rect x="143.809" y="183.18" width="42.0942" height="1.31544" fill="white"/>
<circle cx="165.185" cy="217.052" r="2.30203" fill="#365C8D"/>
<rect x="207.277" y="202.25" width="13.8122" height="1.97316" fill="#277F8E"/>
<rect x="213.197" y="204.223" width="1.97316" height="19.7316" fill="#277F8E"/>
<rect x="193.137" y="223.953" width="42.0942" height="23.0203" fill="#277F8E"/>
<rect x="213.197" y="246.977" width="1.97316" height="10.5235" fill="#277F8E"/>
<rect x="207.277" y="257.5" width="13.8122" height="1.97316" fill="#277F8E"/>
<rect x="193.137" y="235.141" width="42.0942" height="1.31544" fill="white"/>
<circle cx="214.513" cy="265.068" r="2.30203" fill="#277F8E"/>
<circle cx="214.513" cy="186.138" r="2.30203" fill="#277F8E"/>
<rect x="305.934" y="140.422" width="13.8122" height="1.97316" fill="#4AC16D"/>
<rect x="311.854" y="142.395" width="1.97316" height="19.7316" fill="#4AC16D"/>
<rect x="291.793" y="162.125" width="42.0942" height="23.0203" fill="#4AC16D"/>
<rect x="311.854" y="185.148" width="1.97316" height="23.678" fill="#4AC16D"/>
<rect x="305.934" y="208.828" width="13.8122" height="1.97316" fill="#4AC16D"/>
<rect x="291.793" y="173.305" width="42.0942" height="1.31544" fill="white"/>
<rect x="355.262" y="128.586" width="13.8122" height="1.97316" fill="#A0DA39"/>
<rect x="361.182" y="130.559" width="1.97316" height="19.7316" fill="#A0DA39"/>
<rect x="341.121" y="150.289" width="42.0942" height="30.9129" fill="#A0DA39"/>
<rect x="361.182" y="181.203" width="1.97316" height="23.678" fill="#A0DA39"/>
<rect x="355.262" y="204.883" width="13.8122" height="1.97316" fill="#A0DA39"/>
<rect x="341.121" y="168.051" width="42.0942" height="1.31544" fill="white"/>
<circle cx="362.497" cy="217.712" r="2.30203" fill="#A0DA39"/>
<circle cx="362.497" cy="112.478" r="2.30203" fill="#A0DA39"/>
<circle cx="362.497" cy="86.8255" r="2.30203" fill="#A0DA39"/>
<circle cx="362.497" cy="73.6692" r="2.30203" fill="#A0DA39"/>
<rect x="242.465" y="180.543" width="42.0942" height="1.31544" fill="white"/>
<rect x="256.605" y="108.195" width="13.8122" height="1.97316" fill="#1FA187"/>
<rect x="262.525" y="110.168" width="1.97316" height="19.7316" fill="#1FA187"/>
<rect x="242.465" y="129.898" width="42.0942" height="82.2152" fill="#1FA187"/>
<rect x="262.525" y="212.117" width="1.97316" height="43.4096" fill="#1FA187"/>
<rect x="256.605" y="255.527" width="13.8122" height="1.97316" fill="#1FA187"/>
<rect x="242.465" y="185.148" width="42.0942" height="1.31544" fill="white"/>
<circle cx="263.841" cy="276.24" r="2.30203" fill="#277F8E"/>
<circle cx="263.841" cy="98.6575" r="2.30203" fill="#277F8E"/>
<circle cx="263.841" cy="72.3489" r="2.30203" fill="#277F8E"/>
<defs>
<filter id="filter0_d_927_3082" x="0.422784" y="0.244568" width="444.619" height="363.154" filterUnits="userSpaceOnUse" color-interpolation-filters="sRGB">
<feFlood flood-opacity="0" result="BackgroundImageFix"/>
<feColorMatrix in="SourceAlpha" type="matrix" values="0 0 0 0 0 0 0 0 0 0 0 0 0 0 0 0 0 0 127 0" result="hardAlpha"/>
<feOffset dy="0.657722"/>
<feGaussianBlur stdDeviation="3.28861"/>
<feColorMatrix type="matrix" values="0 0 0 0 0 0 0 0 0 0 0 0 0 0 0 0 0 0 0.07 0"/>
<feBlend mode="normal" in2="BackgroundImageFix" result="effect1_dropShadow_927_3082"/>
<feBlend mode="normal" in="SourceGraphic" in2="effect1_dropShadow_927_3082" result="shape"/>
</filter>
<clipPath id="clip0_927_3082">
<rect x="7" y="6.16406" width="431.465" height="350" rx="5.26177" fill="white"/>
</clipPath>
</defs>
</svg>
