<svg width="500" height="348" viewBox="0 0 500 348" fill="none" xmlns="http://www.w3.org/2000/svg">
<rect width="500" height="347.573" transform="translate(0 0.078125)" fill="white"/>
<path d="M89.75 36.1974C89.108 36.1974 88.5611 36.0227 88.1094 35.6733C87.6577 35.321 87.3125 34.8111 87.0739 34.1435C86.8352 33.473 86.7159 32.6634 86.7159 31.7145C86.7159 30.7713 86.8352 29.9659 87.0739 29.2983C87.3153 28.6278 87.6619 28.1165 88.1136 27.7642C88.5682 27.4091 89.1136 27.2315 89.75 27.2315C90.3864 27.2315 90.9304 27.4091 91.3821 27.7642C91.8366 28.1165 92.1832 28.6278 92.4219 29.2983C92.6634 29.9659 92.7841 30.7713 92.7841 31.7145C92.7841 32.6634 92.6648 33.473 92.4261 34.1435C92.1875 34.8111 91.8423 35.321 91.3906 35.6733C90.9389 36.0227 90.392 36.1974 89.75 36.1974ZM89.75 35.2599C90.3864 35.2599 90.8807 34.9531 91.233 34.3395C91.5852 33.7259 91.7614 32.8509 91.7614 31.7145C91.7614 30.9588 91.6804 30.3153 91.5185 29.7841C91.3594 29.2528 91.1293 28.848 90.8281 28.5696C90.5298 28.2912 90.1705 28.152 89.75 28.152C89.1193 28.152 88.6264 28.4631 88.2713 29.0852C87.9162 29.7045 87.7386 30.581 87.7386 31.7145C87.7386 32.4702 87.8182 33.1122 87.9773 33.6406C88.1364 34.169 88.3651 34.571 88.6634 34.8466C88.9645 35.1222 89.3267 35.2599 89.75 35.2599Z" fill="black" fill-opacity="0.7"/>
<path d="M122.071 27.3509V36.0781H121.014V28.4588H120.963L118.833 29.8736V28.7997L121.014 27.3509H122.071ZM127.428 36.1974C126.786 36.1974 126.239 36.0227 125.787 35.6733C125.335 35.321 124.99 34.8111 124.752 34.1435C124.513 33.473 124.394 32.6634 124.394 31.7145C124.394 30.7713 124.513 29.9659 124.752 29.2983C124.993 28.6278 125.34 28.1165 125.791 27.7642C126.246 27.4091 126.791 27.2315 127.428 27.2315C128.064 27.2315 128.608 27.4091 129.06 27.7642C129.514 28.1165 129.861 28.6278 130.1 29.2983C130.341 29.9659 130.462 30.7713 130.462 31.7145C130.462 32.6634 130.343 33.473 130.104 34.1435C129.865 34.8111 129.52 35.321 129.068 35.6733C128.617 36.0227 128.07 36.1974 127.428 36.1974ZM127.428 35.2599C128.064 35.2599 128.558 34.9531 128.911 34.3395C129.263 33.7259 129.439 32.8509 129.439 31.7145C129.439 30.9588 129.358 30.3153 129.196 29.7841C129.037 29.2528 128.807 28.848 128.506 28.5696C128.208 28.2912 127.848 28.152 127.428 28.152C126.797 28.152 126.304 28.4631 125.949 29.0852C125.594 29.7045 125.416 30.581 125.416 31.7145C125.416 32.4702 125.496 33.1122 125.655 33.6406C125.814 34.169 126.043 34.571 126.341 34.8466C126.642 35.1222 127.004 35.2599 127.428 35.2599Z" fill="black" fill-opacity="0.7"/>
<path d="M157.103 36.0781V35.3111L159.983 32.1577C160.321 31.7884 160.6 31.4673 160.819 31.1946C161.037 30.919 161.199 30.6605 161.304 30.419C161.412 30.1747 161.466 29.919 161.466 29.652C161.466 29.3452 161.392 29.0795 161.245 28.8551C161.1 28.6307 160.901 28.4574 160.648 28.3352C160.395 28.2131 160.111 28.152 159.796 28.152C159.461 28.152 159.168 28.2216 158.918 28.3608C158.671 28.4972 158.479 28.6889 158.343 28.9361C158.209 29.1832 158.142 29.473 158.142 29.8054H157.137C157.137 29.294 157.255 28.8452 157.49 28.4588C157.726 28.0724 158.047 27.7713 158.453 27.5554C158.863 27.3395 159.321 27.2315 159.83 27.2315C160.341 27.2315 160.794 27.3395 161.189 27.5554C161.584 27.7713 161.894 28.0625 162.118 28.429C162.343 28.7955 162.455 29.2031 162.455 29.652C162.455 29.973 162.397 30.2869 162.28 30.5938C162.167 30.8977 161.968 31.2372 161.684 31.6122C161.402 31.9844 161.012 32.4389 160.512 32.9759L158.551 35.0724V35.1406H162.608V36.0781H157.103ZM167.215 36.1974C166.573 36.1974 166.026 36.0227 165.574 35.6733C165.123 35.321 164.777 34.8111 164.539 34.1435C164.3 33.473 164.181 32.6634 164.181 31.7145C164.181 30.7713 164.3 29.9659 164.539 29.2983C164.78 28.6278 165.127 28.1165 165.578 27.7642C166.033 27.4091 166.578 27.2315 167.215 27.2315C167.851 27.2315 168.395 27.4091 168.847 27.7642C169.301 28.1165 169.648 28.6278 169.887 29.2983C170.128 29.9659 170.249 30.7713 170.249 31.7145C170.249 32.6634 170.13 33.473 169.891 34.1435C169.652 34.8111 169.307 35.321 168.855 35.6733C168.404 36.0227 167.857 36.1974 167.215 36.1974ZM167.215 35.2599C167.851 35.2599 168.346 34.9531 168.698 34.3395C169.05 33.7259 169.226 32.8509 169.226 31.7145C169.226 30.9588 169.145 30.3153 168.983 29.7841C168.824 29.2528 168.594 28.848 168.293 28.5696C167.995 28.2912 167.635 28.152 167.215 28.152C166.584 28.152 166.091 28.4631 165.736 29.0852C165.381 29.7045 165.203 30.581 165.203 31.7145C165.203 32.4702 165.283 33.1122 165.442 33.6406C165.601 34.169 165.83 34.571 166.128 34.8466C166.429 35.1222 166.792 35.2599 167.215 35.2599Z" fill="black" fill-opacity="0.7"/>
<path d="M199.153 36.1974C198.591 36.1974 198.089 36.1009 197.649 35.9077C197.211 35.7145 196.863 35.446 196.605 35.1023C196.349 34.7557 196.21 34.3537 196.187 33.8963H197.261C197.284 34.1776 197.38 34.4205 197.551 34.625C197.721 34.8267 197.944 34.983 198.22 35.0938C198.495 35.2045 198.801 35.2599 199.136 35.2599C199.511 35.2599 199.843 35.1946 200.133 35.0639C200.423 34.9332 200.65 34.7514 200.815 34.5185C200.98 34.2855 201.062 34.0156 201.062 33.7088C201.062 33.3878 200.983 33.1051 200.824 32.8608C200.664 32.6136 200.431 32.4205 200.125 32.2812C199.818 32.142 199.443 32.0724 199 32.0724H198.301V31.1349H199C199.346 31.1349 199.65 31.0724 199.912 30.9474C200.176 30.8224 200.382 30.6463 200.529 30.419C200.68 30.1918 200.755 29.9247 200.755 29.6179C200.755 29.3224 200.69 29.0653 200.559 28.8466C200.429 28.6278 200.244 28.4574 200.005 28.3352C199.77 28.2131 199.491 28.152 199.17 28.152C198.869 28.152 198.585 28.2074 198.318 28.3182C198.054 28.4261 197.838 28.5838 197.67 28.7912C197.502 28.9957 197.412 29.2429 197.397 29.5327H196.375C196.392 29.0753 196.529 28.6747 196.788 28.331C197.047 27.9844 197.385 27.7145 197.802 27.5213C198.223 27.3281 198.684 27.2315 199.187 27.2315C199.727 27.2315 200.19 27.3409 200.576 27.5597C200.963 27.7756 201.26 28.0611 201.467 28.4162C201.674 28.7713 201.778 29.1548 201.778 29.5668C201.778 30.0582 201.649 30.4773 201.39 30.8239C201.135 31.1705 200.787 31.4105 200.346 31.544V31.6122C200.897 31.7031 201.328 31.9375 201.637 32.3153C201.947 32.6903 202.102 33.1548 202.102 33.7088C202.102 34.1832 201.973 34.6094 201.714 34.9872C201.458 35.3622 201.109 35.6577 200.666 35.8736C200.223 36.0895 199.718 36.1974 199.153 36.1974ZM206.691 36.1974C206.049 36.1974 205.502 36.0227 205.051 35.6733C204.599 35.321 204.254 34.8111 204.015 34.1435C203.777 33.473 203.657 32.6634 203.657 31.7145C203.657 30.7713 203.777 29.9659 204.015 29.2983C204.257 28.6278 204.603 28.1165 205.055 27.7642C205.51 27.4091 206.055 27.2315 206.691 27.2315C207.328 27.2315 207.872 27.4091 208.324 27.7642C208.778 28.1165 209.125 28.6278 209.363 29.2983C209.605 29.9659 209.725 30.7713 209.725 31.7145C209.725 32.6634 209.606 33.473 209.368 34.1435C209.129 34.8111 208.784 35.321 208.332 35.6733C207.88 36.0227 207.333 36.1974 206.691 36.1974ZM206.691 35.2599C207.328 35.2599 207.822 34.9531 208.174 34.3395C208.527 33.7259 208.703 32.8509 208.703 31.7145C208.703 30.9588 208.622 30.3153 208.46 29.7841C208.301 29.2528 208.071 28.848 207.77 28.5696C207.471 28.2912 207.112 28.152 206.691 28.152C206.061 28.152 205.568 28.4631 205.213 29.0852C204.858 29.7045 204.68 30.581 204.68 31.7145C204.68 32.4702 204.76 33.1122 204.919 33.6406C205.078 34.169 205.306 34.571 205.605 34.8466C205.906 35.1222 206.268 35.2599 206.691 35.2599Z" fill="black" fill-opacity="0.7"/>
<path d="M236.099 34.2884V33.419L239.934 27.3509H240.565V28.6974H240.139L237.241 33.2827V33.3509H242.406V34.2884H236.099ZM240.207 36.0781V34.0241V33.6193V27.3509H241.213V36.0781H240.207ZM246.85 36.1974C246.208 36.1974 245.661 36.0227 245.209 35.6733C244.757 35.321 244.412 34.8111 244.173 34.1435C243.935 33.473 243.816 32.6634 243.816 31.7145C243.816 30.7713 243.935 29.9659 244.173 29.2983C244.415 28.6278 244.762 28.1165 245.213 27.7642C245.668 27.4091 246.213 27.2315 246.85 27.2315C247.486 27.2315 248.03 27.4091 248.482 27.7642C248.936 28.1165 249.283 28.6278 249.521 29.2983C249.763 29.9659 249.884 30.7713 249.884 31.7145C249.884 32.6634 249.764 33.473 249.526 34.1435C249.287 34.8111 248.942 35.321 248.49 35.6733C248.039 36.0227 247.492 36.1974 246.85 36.1974ZM246.85 35.2599C247.486 35.2599 247.98 34.9531 248.333 34.3395C248.685 33.7259 248.861 32.8509 248.861 31.7145C248.861 30.9588 248.78 30.3153 248.618 29.7841C248.459 29.2528 248.229 28.848 247.928 28.5696C247.629 28.2912 247.27 28.152 246.85 28.152C246.219 28.152 245.726 28.4631 245.371 29.0852C245.016 29.7045 244.838 30.581 244.838 31.7145C244.838 32.4702 244.918 33.1122 245.077 33.6406C245.236 34.169 245.465 34.571 245.763 34.8466C246.064 35.1222 246.426 35.2599 246.85 35.2599Z" fill="black" fill-opacity="0.7"/>
<path d="M279.131 36.1974C278.631 36.1974 278.18 36.098 277.78 35.8991C277.379 35.7003 277.058 35.4276 276.817 35.081C276.575 34.7344 276.443 34.3395 276.42 33.8963H277.443C277.483 34.2912 277.662 34.6179 277.98 34.8764C278.301 35.1321 278.685 35.2599 279.131 35.2599C279.489 35.2599 279.807 35.1761 280.085 35.0085C280.366 34.8409 280.587 34.6108 280.746 34.3182C280.908 34.0227 280.989 33.6889 280.989 33.3168C280.989 32.9361 280.905 32.5966 280.737 32.2983C280.572 31.9972 280.345 31.7599 280.055 31.5866C279.766 31.4134 279.435 31.3253 279.062 31.3224C278.795 31.3196 278.521 31.3608 278.24 31.446C277.959 31.5284 277.727 31.6349 277.545 31.7656L276.557 31.6463L277.085 27.3509H281.619V28.2884H277.972L277.665 30.8622H277.716C277.895 30.7202 278.119 30.6023 278.389 30.5085C278.659 30.4148 278.94 30.3679 279.233 30.3679C279.767 30.3679 280.243 30.4957 280.661 30.7514C281.081 31.0043 281.411 31.3509 281.649 31.7912C281.891 32.2315 282.011 32.7344 282.011 33.2997C282.011 33.8565 281.886 34.3537 281.636 34.7912C281.389 35.2259 281.048 35.5696 280.614 35.8224C280.179 36.0724 279.685 36.1974 279.131 36.1974ZM286.551 36.1974C285.909 36.1974 285.362 36.0227 284.91 35.6733C284.458 35.321 284.113 34.8111 283.875 34.1435C283.636 33.473 283.517 32.6634 283.517 31.7145C283.517 30.7713 283.636 29.9659 283.875 29.2983C284.116 28.6278 284.463 28.1165 284.914 27.7642C285.369 27.4091 285.914 27.2315 286.551 27.2315C287.187 27.2315 287.731 27.4091 288.183 27.7642C288.637 28.1165 288.984 28.6278 289.223 29.2983C289.464 29.9659 289.585 30.7713 289.585 31.7145C289.585 32.6634 289.466 33.473 289.227 34.1435C288.988 34.8111 288.643 35.321 288.191 35.6733C287.74 36.0227 287.193 36.1974 286.551 36.1974ZM286.551 35.2599C287.187 35.2599 287.681 34.9531 288.034 34.3395C288.386 33.7259 288.562 32.8509 288.562 31.7145C288.562 30.9588 288.481 30.3153 288.319 29.7841C288.16 29.2528 287.93 28.848 287.629 28.5696C287.331 28.2912 286.971 28.152 286.551 28.152C285.92 28.152 285.427 28.4631 285.072 29.0852C284.717 29.7045 284.539 30.581 284.539 31.7145C284.539 32.4702 284.619 33.1122 284.778 33.6406C284.937 34.169 285.166 34.571 285.464 34.8466C285.765 35.1222 286.127 35.2599 286.551 35.2599Z" fill="black" fill-opacity="0.7"/>
<path d="M318.401 36.1974C318.043 36.1918 317.685 36.1236 317.327 35.9929C316.969 35.8622 316.642 35.642 316.347 35.3324C316.051 35.0199 315.814 34.598 315.635 34.0668C315.456 33.5327 315.367 32.8622 315.367 32.0554C315.367 31.2827 315.439 30.598 315.584 30.0014C315.729 29.402 315.939 28.8977 316.215 28.4886C316.49 28.0767 316.823 27.7642 317.212 27.5511C317.604 27.3381 318.046 27.2315 318.537 27.2315C319.026 27.2315 319.46 27.3295 319.841 27.5256C320.225 27.7187 320.537 27.9886 320.779 28.3352C321.02 28.6818 321.176 29.081 321.247 29.5327H320.208C320.111 29.1406 319.923 28.8153 319.645 28.5568C319.367 28.2983 318.997 28.169 318.537 28.169C317.861 28.169 317.328 28.4631 316.939 29.0511C316.553 29.6392 316.358 30.4645 316.355 31.527H316.423C316.583 31.2855 316.771 31.0795 316.99 30.9091C317.212 30.7358 317.456 30.6023 317.723 30.5085C317.99 30.4148 318.273 30.3679 318.571 30.3679C319.071 30.3679 319.529 30.4929 319.943 30.7429C320.358 30.9901 320.691 31.3324 320.941 31.7699C321.191 32.2045 321.316 32.7031 321.316 33.2656C321.316 33.8054 321.195 34.2997 320.953 34.7486C320.712 35.1946 320.372 35.5497 319.935 35.8139C319.5 36.0753 318.989 36.2031 318.401 36.1974ZM318.401 35.2599C318.759 35.2599 319.08 35.1705 319.364 34.9915C319.651 34.8125 319.877 34.5724 320.041 34.2713C320.209 33.9702 320.293 33.6349 320.293 33.2656C320.293 32.9048 320.212 32.5767 320.05 32.2812C319.891 31.983 319.671 31.7457 319.389 31.5696C319.111 31.3935 318.793 31.3054 318.435 31.3054C318.165 31.3054 317.914 31.3594 317.681 31.4673C317.448 31.5724 317.243 31.7173 317.067 31.902C316.894 32.0866 316.757 32.2983 316.658 32.5369C316.558 32.7727 316.509 33.0213 316.509 33.2827C316.509 33.6293 316.59 33.9531 316.752 34.2543C316.916 34.5554 317.141 34.7983 317.425 34.983C317.712 35.1676 318.037 35.2599 318.401 35.2599ZM325.838 36.1974C325.196 36.1974 324.649 36.0227 324.197 35.6733C323.746 35.321 323.4 34.8111 323.162 34.1435C322.923 33.473 322.804 32.6634 322.804 31.7145C322.804 30.7713 322.923 29.9659 323.162 29.2983C323.403 28.6278 323.75 28.1165 324.202 27.7642C324.656 27.4091 325.202 27.2315 325.838 27.2315C326.474 27.2315 327.018 27.4091 327.47 27.7642C327.925 28.1165 328.271 28.6278 328.51 29.2983C328.751 29.9659 328.872 30.7713 328.872 31.7145C328.872 32.6634 328.753 33.473 328.514 34.1435C328.275 34.8111 327.93 35.321 327.479 35.6733C327.027 36.0227 326.48 36.1974 325.838 36.1974ZM325.838 35.2599C326.474 35.2599 326.969 34.9531 327.321 34.3395C327.673 33.7259 327.849 32.8509 327.849 31.7145C327.849 30.9588 327.768 30.3153 327.606 29.7841C327.447 29.2528 327.217 28.848 326.916 28.5696C326.618 28.2912 326.258 28.152 325.838 28.152C325.207 28.152 324.714 28.4631 324.359 29.0852C324.004 29.7045 323.827 30.581 323.827 31.7145C323.827 32.4702 323.906 33.1122 324.065 33.6406C324.224 34.169 324.453 34.571 324.751 34.8466C325.052 35.1222 325.415 35.2599 325.838 35.2599Z" fill="black" fill-opacity="0.7"/>
<path d="M354.875 36.0781L358.779 28.3565V28.2884H354.279V27.3509H359.87V28.3395L355.983 36.0781H354.875ZM364.117 36.1974C363.475 36.1974 362.928 36.0227 362.477 35.6733C362.025 35.321 361.68 34.8111 361.441 34.1435C361.202 33.473 361.083 32.6634 361.083 31.7145C361.083 30.7713 361.202 29.9659 361.441 29.2983C361.683 28.6278 362.029 28.1165 362.481 27.7642C362.935 27.4091 363.481 27.2315 364.117 27.2315C364.754 27.2315 365.298 27.4091 365.749 27.7642C366.204 28.1165 366.55 28.6278 366.789 29.2983C367.031 29.9659 367.151 30.7713 367.151 31.7145C367.151 32.6634 367.032 33.473 366.793 34.1435C366.555 34.8111 366.21 35.321 365.758 35.6733C365.306 36.0227 364.759 36.1974 364.117 36.1974ZM364.117 35.2599C364.754 35.2599 365.248 34.9531 365.6 34.3395C365.952 33.7259 366.129 32.8509 366.129 31.7145C366.129 30.9588 366.048 30.3153 365.886 29.7841C365.727 29.2528 365.496 28.848 365.195 28.5696C364.897 28.2912 364.538 28.152 364.117 28.152C363.487 28.152 362.994 28.4631 362.638 29.0852C362.283 29.7045 362.106 30.581 362.106 31.7145C362.106 32.4702 362.185 33.1122 362.344 33.6406C362.504 34.169 362.732 34.571 363.031 34.8466C363.332 35.1222 363.694 35.2599 364.117 35.2599Z" fill="black" fill-opacity="0.7"/>
<path d="M396.5 36.1974C395.914 36.1974 395.397 36.0938 394.949 35.8864C394.502 35.6761 394.154 35.3878 393.904 35.0213C393.654 34.652 393.531 34.2315 393.534 33.7599C393.531 33.3906 393.603 33.0497 393.751 32.7372C393.899 32.4219 394.1 32.1591 394.356 31.9489C394.615 31.7358 394.903 31.6009 395.221 31.544V31.4929C394.804 31.3849 394.471 31.1506 394.224 30.7898C393.977 30.4261 393.855 30.0128 393.858 29.5497C393.855 29.1065 393.967 28.7102 394.194 28.3608C394.422 28.0114 394.734 27.7358 395.132 27.5341C395.532 27.3324 395.988 27.2315 396.5 27.2315C397.005 27.2315 397.457 27.3324 397.855 27.5341C398.252 27.7358 398.565 28.0114 398.792 28.3608C399.022 28.7102 399.139 29.1065 399.142 29.5497C399.139 30.0128 399.012 30.4261 398.762 30.7898C398.515 31.1506 398.187 31.3849 397.778 31.4929V31.544C398.093 31.6009 398.377 31.7358 398.63 31.9489C398.883 32.1591 399.085 32.4219 399.235 32.7372C399.386 33.0497 399.463 33.3906 399.466 33.7599C399.463 34.2315 399.335 34.652 399.082 35.0213C398.832 35.3878 398.484 35.6761 398.038 35.8864C397.595 36.0938 397.082 36.1974 396.5 36.1974ZM396.5 35.2599C396.895 35.2599 397.235 35.196 397.522 35.0682C397.809 34.9403 398.031 34.7599 398.187 34.527C398.343 34.294 398.423 34.0213 398.426 33.7088C398.423 33.3793 398.338 33.0881 398.17 32.8352C398.002 32.5824 397.774 32.3835 397.484 32.2386C397.197 32.0937 396.869 32.0213 396.5 32.0213C396.127 32.0213 395.795 32.0937 395.502 32.2386C395.213 32.3835 394.984 32.5824 394.816 32.8352C394.652 33.0881 394.571 33.3793 394.574 33.7088C394.571 34.0213 394.646 34.294 394.799 34.527C394.956 34.7599 395.179 34.9403 395.468 35.0682C395.758 35.196 396.102 35.2599 396.5 35.2599ZM396.5 31.1179C396.812 31.1179 397.089 31.0554 397.331 30.9304C397.575 30.8054 397.767 30.6307 397.906 30.4062C398.045 30.1818 398.116 29.919 398.119 29.6179C398.116 29.3224 398.047 29.0653 397.91 28.8466C397.774 28.625 397.585 28.4545 397.343 28.3352C397.102 28.2131 396.821 28.152 396.5 28.152C396.173 28.152 395.887 28.2131 395.643 28.3352C395.399 28.4545 395.21 28.625 395.076 28.8466C394.943 29.0653 394.877 29.3224 394.88 29.6179C394.877 29.919 394.944 30.1818 395.081 30.4062C395.22 30.6307 395.412 30.8054 395.656 30.9304C395.9 31.0554 396.181 31.1179 396.5 31.1179ZM403.945 36.1974C403.303 36.1974 402.756 36.0227 402.305 35.6733C401.853 35.321 401.508 34.8111 401.269 34.1435C401.031 33.473 400.911 32.6634 400.911 31.7145C400.911 30.7713 401.031 29.9659 401.269 29.2983C401.511 28.6278 401.857 28.1165 402.309 27.7642C402.763 27.4091 403.309 27.2315 403.945 27.2315C404.582 27.2315 405.126 27.4091 405.577 27.7642C406.032 28.1165 406.379 28.6278 406.617 29.2983C406.859 29.9659 406.979 30.7713 406.979 31.7145C406.979 32.6634 406.86 33.473 406.621 34.1435C406.383 34.8111 406.038 35.321 405.586 35.6733C405.134 36.0227 404.587 36.1974 403.945 36.1974ZM403.945 35.2599C404.582 35.2599 405.076 34.9531 405.428 34.3395C405.781 33.7259 405.957 32.8509 405.957 31.7145C405.957 30.9588 405.876 30.3153 405.714 29.7841C405.555 29.2528 405.325 28.848 405.023 28.5696C404.725 28.2912 404.366 28.152 403.945 28.152C403.315 28.152 402.822 28.4631 402.467 29.0852C402.112 29.7045 401.934 30.581 401.934 31.7145C401.934 32.4702 402.013 33.1122 402.173 33.6406C402.332 34.169 402.56 34.571 402.859 34.8466C403.16 35.1222 403.522 35.2599 403.945 35.2599Z" fill="black" fill-opacity="0.7"/>
<path d="M435.582 27.2315C435.94 27.2344 436.298 27.3026 436.656 27.4361C437.014 27.5696 437.341 27.7912 437.636 28.1009C437.932 28.4077 438.169 28.8267 438.348 29.358C438.527 29.8892 438.616 30.5554 438.616 31.3565C438.616 32.1321 438.542 32.821 438.395 33.4233C438.25 34.0227 438.04 34.5284 437.764 34.9403C437.491 35.3523 437.159 35.6648 436.767 35.8778C436.378 36.0909 435.937 36.1974 435.446 36.1974C434.957 36.1974 434.521 36.1009 434.138 35.9077C433.757 35.7116 433.444 35.4403 433.2 35.0938C432.959 34.7443 432.804 34.3395 432.736 33.8793H433.775C433.869 34.2798 434.055 34.6108 434.334 34.8722C434.615 35.1307 434.986 35.2599 435.446 35.2599C436.119 35.2599 436.65 34.9659 437.04 34.3778C437.432 33.7898 437.628 32.9588 437.628 31.8849H437.559C437.4 32.1236 437.211 32.3295 436.993 32.5028C436.774 32.6761 436.531 32.8097 436.264 32.9034C435.997 32.9972 435.713 33.044 435.412 33.044C434.912 33.044 434.453 32.9205 434.035 32.6733C433.621 32.4233 433.288 32.081 433.038 31.6463C432.791 31.2088 432.667 30.7088 432.667 30.1463C432.667 29.6122 432.787 29.1236 433.025 28.6804C433.267 28.2344 433.605 27.8793 434.04 27.6151C434.477 27.3509 434.991 27.223 435.582 27.2315ZM435.582 28.169C435.224 28.169 434.902 28.2585 434.615 28.4375C434.331 28.6136 434.105 28.8523 433.937 29.1534C433.773 29.4517 433.69 29.7827 433.69 30.1463C433.69 30.5099 433.77 30.8409 433.929 31.1392C434.091 31.4347 434.311 31.6705 434.589 31.8466C434.871 32.0199 435.19 32.1065 435.548 32.1065C435.818 32.1065 436.069 32.054 436.302 31.9489C436.535 31.8409 436.738 31.6946 436.912 31.5099C437.088 31.3224 437.226 31.1108 437.325 30.875C437.425 30.6364 437.474 30.3878 437.474 30.1293C437.474 29.7884 437.392 29.4687 437.227 29.1705C437.065 28.8722 436.841 28.6307 436.554 28.446C436.27 28.2614 435.946 28.169 435.582 28.169ZM443.139 36.1974C442.497 36.1974 441.95 36.0227 441.498 35.6733C441.046 35.321 440.701 34.8111 440.463 34.1435C440.224 33.473 440.105 32.6634 440.105 31.7145C440.105 30.7713 440.224 29.9659 440.463 29.2983C440.704 28.6278 441.051 28.1165 441.502 27.7642C441.957 27.4091 442.502 27.2315 443.139 27.2315C443.775 27.2315 444.319 27.4091 444.771 27.7642C445.225 28.1165 445.572 28.6278 445.811 29.2983C446.052 29.9659 446.173 30.7713 446.173 31.7145C446.173 32.6634 446.053 33.473 445.815 34.1435C445.576 34.8111 445.231 35.321 444.779 35.6733C444.328 36.0227 443.781 36.1974 443.139 36.1974ZM443.139 35.2599C443.775 35.2599 444.269 34.9531 444.622 34.3395C444.974 33.7259 445.15 32.8509 445.15 31.7145C445.15 30.9588 445.069 30.3153 444.907 29.7841C444.748 29.2528 444.518 28.848 444.217 28.5696C443.919 28.2912 443.559 28.152 443.139 28.152C442.508 28.152 442.015 28.4631 441.66 29.0852C441.305 29.7045 441.127 30.581 441.127 31.7145C441.127 32.4702 441.207 33.1122 441.366 33.6406C441.525 34.169 441.754 34.571 442.052 34.8466C442.353 35.1222 442.715 35.2599 443.139 35.2599Z" fill="black" fill-opacity="0.7"/>
<path d="M474.972 27.3509V36.0781H473.915V28.4588H473.864L471.733 29.8736V28.7997L473.915 27.3509H474.972ZM480.328 36.1974C479.686 36.1974 479.139 36.0227 478.688 35.6733C478.236 35.321 477.891 34.8111 477.652 34.1435C477.413 33.473 477.294 32.6634 477.294 31.7145C477.294 30.7713 477.413 29.9659 477.652 29.2983C477.893 28.6278 478.24 28.1165 478.692 27.7642C479.146 27.4091 479.692 27.2315 480.328 27.2315C480.964 27.2315 481.509 27.4091 481.96 27.7642C482.415 28.1165 482.761 28.6278 483 29.2983C483.241 29.9659 483.362 30.7713 483.362 31.7145C483.362 32.6634 483.243 33.473 483.004 34.1435C482.766 34.8111 482.42 35.321 481.969 35.6733C481.517 36.0227 480.97 36.1974 480.328 36.1974ZM480.328 35.2599C480.964 35.2599 481.459 34.9531 481.811 34.3395C482.163 33.7259 482.339 32.8509 482.339 31.7145C482.339 30.9588 482.259 30.3153 482.097 29.7841C481.938 29.2528 481.707 28.848 481.406 28.5696C481.108 28.2912 480.749 28.152 480.328 28.152C479.697 28.152 479.205 28.4631 478.849 29.0852C478.494 29.7045 478.317 30.581 478.317 31.7145C478.317 32.4702 478.396 33.1122 478.555 33.6406C478.714 34.169 478.943 34.571 479.241 34.8466C479.543 35.1222 479.905 35.2599 480.328 35.2599ZM487.828 36.1974C487.186 36.1974 486.639 36.0227 486.188 35.6733C485.736 35.321 485.391 34.8111 485.152 34.1435C484.913 33.473 484.794 32.6634 484.794 31.7145C484.794 30.7713 484.913 29.9659 485.152 29.2983C485.393 28.6278 485.74 28.1165 486.192 27.7642C486.646 27.4091 487.192 27.2315 487.828 27.2315C488.464 27.2315 489.009 27.4091 489.46 27.7642C489.915 28.1165 490.261 28.6278 490.5 29.2983C490.741 29.9659 490.862 30.7713 490.862 31.7145C490.862 32.6634 490.743 33.473 490.504 34.1435C490.266 34.8111 489.92 35.321 489.469 35.6733C489.017 36.0227 488.47 36.1974 487.828 36.1974ZM487.828 35.2599C488.464 35.2599 488.959 34.9531 489.311 34.3395C489.663 33.7259 489.839 32.8509 489.839 31.7145C489.839 30.9588 489.759 30.3153 489.597 29.7841C489.438 29.2528 489.207 28.848 488.906 28.5696C488.608 28.2912 488.249 28.152 487.828 28.152C487.197 28.152 486.705 28.4631 486.349 29.0852C485.994 29.7045 485.817 30.581 485.817 31.7145C485.817 32.4702 485.896 33.1122 486.055 33.6406C486.214 34.169 486.443 34.571 486.741 34.8466C487.043 35.1222 487.405 35.2599 487.828 35.2599Z" fill="black" fill-opacity="0.7"/>
<path d="M452.045 15.402V11.5327H453.051V18.0781H452.045V16.9702H451.977C451.824 17.3026 451.585 17.5852 451.261 17.8182C450.938 18.0483 450.528 18.1634 450.034 18.1634C449.625 18.1634 449.261 18.0739 448.943 17.8949C448.625 17.7131 448.375 17.4403 448.193 17.0767C448.011 16.7102 447.92 16.2486 447.92 15.6918V11.5327H448.926V15.6236C448.926 16.1009 449.06 16.4815 449.327 16.7656C449.597 17.0497 449.94 17.1918 450.358 17.1918C450.608 17.1918 450.862 17.1278 451.121 17C451.382 16.8722 451.601 16.6761 451.777 16.4119C451.956 16.1477 452.045 15.8111 452.045 15.402ZM455.899 14.1406V18.0781H454.893V11.5327H455.865V12.5554H455.95C456.103 12.223 456.336 11.956 456.649 11.7543C456.961 11.5497 457.365 11.4474 457.859 11.4474C458.302 11.4474 458.69 11.5384 459.022 11.7202C459.355 11.8991 459.613 12.1719 459.798 12.5384C459.983 12.902 460.075 13.3622 460.075 13.919V18.0781H459.069V13.9872C459.069 13.473 458.936 13.0724 458.669 12.7855C458.402 12.4957 458.035 12.3509 457.569 12.3509C457.248 12.3509 456.961 12.4205 456.708 12.5597C456.458 12.6989 456.261 12.902 456.116 13.169C455.971 13.4361 455.899 13.7599 455.899 14.1406ZM461.913 18.0781V11.5327H462.918V18.0781H461.913ZM462.424 10.4418C462.228 10.4418 462.059 10.375 461.917 10.2415C461.778 10.108 461.708 9.94744 461.708 9.75994C461.708 9.57244 461.778 9.41193 461.917 9.27841C462.059 9.14489 462.228 9.07812 462.424 9.07812C462.62 9.07812 462.788 9.14489 462.927 9.27841C463.069 9.41193 463.14 9.57244 463.14 9.75994C463.14 9.94744 463.069 10.108 462.927 10.2415C462.788 10.375 462.62 10.4418 462.424 10.4418ZM467.607 11.5327V12.3849H464.215V11.5327H467.607ZM465.203 9.96449H466.209V16.2031C466.209 16.4872 466.25 16.7003 466.333 16.8423C466.418 16.9815 466.526 17.0753 466.657 17.1236C466.79 17.169 466.931 17.1918 467.078 17.1918C467.189 17.1918 467.28 17.1861 467.351 17.1747C467.422 17.1605 467.479 17.1491 467.522 17.1406L467.726 18.044C467.658 18.0696 467.563 18.0952 467.441 18.1207C467.319 18.1491 467.164 18.1634 466.976 18.1634C466.692 18.1634 466.414 18.1023 466.141 17.9801C465.871 17.858 465.647 17.6719 465.468 17.4219C465.292 17.1719 465.203 16.8565 465.203 16.4759V9.96449ZM469.853 18.1463C469.642 18.1463 469.462 18.071 469.311 17.9205C469.161 17.7699 469.086 17.5895 469.086 17.3793C469.086 17.169 469.161 16.9886 469.311 16.8381C469.462 16.6875 469.642 16.6122 469.853 16.6122C470.063 16.6122 470.243 16.6875 470.394 16.8381C470.544 16.9886 470.62 17.169 470.62 17.3793C470.62 17.5185 470.584 17.6463 470.513 17.7628C470.445 17.8793 470.353 17.973 470.236 18.044C470.123 18.1122 469.995 18.1463 469.853 18.1463ZM469.853 13.2884C469.642 13.2884 469.462 13.2131 469.311 13.0625C469.161 12.9119 469.086 12.7315 469.086 12.5213C469.086 12.3111 469.161 12.1307 469.311 11.9801C469.462 11.8295 469.642 11.7543 469.853 11.7543C470.063 11.7543 470.243 11.8295 470.394 11.9801C470.544 12.1307 470.62 12.3111 470.62 12.5213C470.62 12.6605 470.584 12.7884 470.513 12.9048C470.445 13.0213 470.353 13.1151 470.236 13.1861C470.123 13.2543 469.995 13.2884 469.853 13.2884ZM476.737 15.6918L476.72 14.4474H476.924L479.788 11.5327H481.032L477.981 14.6179H477.896L476.737 15.6918ZM475.799 18.0781V9.35085H476.805V18.0781H475.799ZM479.958 18.0781L477.402 14.8395L478.118 14.1406L481.237 18.0781H479.958ZM482.327 18.0781V11.5327H483.298V12.5554H483.384C483.52 12.206 483.74 11.9347 484.044 11.7415C484.348 11.5455 484.713 11.4474 485.139 11.4474C485.571 11.4474 485.93 11.5455 486.217 11.7415C486.507 11.9347 486.733 12.206 486.895 12.5554H486.963C487.131 12.2173 487.382 11.9489 487.717 11.75C488.053 11.5483 488.455 11.4474 488.923 11.4474C489.509 11.4474 489.987 11.6307 490.359 11.9972C490.732 12.3608 490.918 12.9276 490.918 13.6974V18.0781H489.912V13.6974C489.912 13.2145 489.78 12.8693 489.516 12.6619C489.251 12.4545 488.94 12.3509 488.582 12.3509C488.122 12.3509 487.766 12.4901 487.513 12.7685C487.26 13.044 487.134 13.3935 487.134 13.8168V18.0781H486.111V13.5952C486.111 13.223 485.99 12.9233 485.749 12.696C485.507 12.4659 485.196 12.3509 484.815 12.3509C484.554 12.3509 484.31 12.4205 484.082 12.5597C483.858 12.6989 483.676 12.892 483.537 13.1392C483.401 13.3835 483.332 13.6662 483.332 13.9872V18.0781H482.327Z" fill="black" fill-opacity="0.7"/>
<path d="M18.5795 58.1692V57.2317H25.125V58.1692H22.3807V65.959H21.3239V58.1692H18.5795ZM28.4148 66.0953C27.7841 66.0953 27.2401 65.9561 26.7827 65.6777C26.3281 65.3965 25.9773 65.0044 25.7301 64.5016C25.4858 63.9959 25.3636 63.4078 25.3636 62.7374C25.3636 62.0669 25.4858 61.476 25.7301 60.9647C25.9773 60.4505 26.321 60.0499 26.7614 59.763C27.2045 59.4732 27.7216 59.3283 28.3125 59.3283C28.6534 59.3283 28.9901 59.3851 29.3224 59.4988C29.6548 59.6124 29.9574 59.7971 30.2301 60.0527C30.5028 60.3056 30.7202 60.6408 30.8821 61.0584C31.044 61.476 31.125 61.9902 31.125 62.601V63.0272H26.0795V62.1578H30.1023C30.1023 61.7885 30.0284 61.459 29.8807 61.1692C29.7358 60.8794 29.5284 60.6507 29.2585 60.4831C28.9915 60.3155 28.6761 60.2317 28.3125 60.2317C27.9119 60.2317 27.5653 60.3311 27.2727 60.53C26.983 60.726 26.7599 60.9817 26.6037 61.2971C26.4474 61.6124 26.3693 61.9505 26.3693 62.3113V62.8908C26.3693 63.3851 26.4545 63.8042 26.625 64.1479C26.7983 64.4888 27.0384 64.7488 27.3452 64.9277C27.652 65.1039 28.0085 65.1919 28.4148 65.1919C28.679 65.1919 28.9176 65.155 29.1307 65.0811C29.3466 65.0044 29.5327 64.8908 29.6889 64.7402C29.8452 64.5868 29.9659 64.3965 30.0511 64.1692L31.0227 64.4419C30.9205 64.7715 30.7486 65.0613 30.5071 65.3113C30.2656 65.5584 29.9673 65.7516 29.6122 65.8908C29.2571 66.0272 28.858 66.0953 28.4148 66.0953ZM35.3139 66.0953C34.7003 66.0953 34.1719 65.9505 33.7287 65.6607C33.2855 65.3709 32.9446 64.9718 32.706 64.4632C32.4673 63.9547 32.348 63.3738 32.348 62.7203C32.348 62.0556 32.4702 61.4689 32.7145 60.9604C32.9616 60.449 33.3054 60.0499 33.7457 59.763C34.1889 59.4732 34.706 59.3283 35.2969 59.3283C35.7571 59.3283 36.1719 59.4135 36.5412 59.584C36.9105 59.7544 37.2131 59.9931 37.4489 60.2999C37.6847 60.6067 37.831 60.9647 37.8878 61.3738H36.8821C36.8054 61.0755 36.6349 60.8113 36.3707 60.5811C36.1094 60.3482 35.7571 60.2317 35.3139 60.2317C34.9219 60.2317 34.5781 60.334 34.2827 60.5385C33.9901 60.7402 33.7614 61.0257 33.5966 61.3951C33.4347 61.7615 33.3537 62.1919 33.3537 62.6863C33.3537 63.1919 33.4332 63.6323 33.5923 64.0073C33.7543 64.3823 33.9815 64.6735 34.2741 64.8809C34.5696 65.0882 34.9162 65.1919 35.3139 65.1919C35.5753 65.1919 35.8125 65.1465 36.0256 65.0556C36.2386 64.9647 36.419 64.834 36.5668 64.6635C36.7145 64.4931 36.8196 64.2885 36.8821 64.0499H37.8878C37.831 64.4363 37.6903 64.7843 37.4659 65.0939C37.2443 65.4007 36.9503 65.6451 36.5838 65.8269C36.2202 66.0059 35.7969 66.0953 35.3139 66.0953ZM40.3636 62.0215V65.959H39.358V57.2317H40.3636V60.4363H40.4489C40.6023 60.0982 40.8324 59.8297 41.1392 59.6309C41.4489 59.4292 41.8608 59.3283 42.375 59.3283C42.821 59.3283 43.2116 59.4178 43.5469 59.5968C43.8821 59.7729 44.142 60.0442 44.3267 60.4107C44.5142 60.7743 44.608 61.2374 44.608 61.7999V65.959H43.6023V61.8681C43.6023 61.3482 43.4673 60.9462 43.1974 60.6621C42.9304 60.3752 42.5597 60.2317 42.0852 60.2317C41.7557 60.2317 41.4602 60.3013 41.1989 60.4405C40.9403 60.5797 40.7358 60.7828 40.5852 61.0499C40.4375 61.3169 40.3636 61.6408 40.3636 62.0215ZM47.4535 62.0215V65.959H46.4478V59.4135H47.4194V60.4363H47.5046C47.658 60.1039 47.891 59.8368 48.2035 59.6351C48.516 59.4306 48.9194 59.3283 49.4137 59.3283C49.8569 59.3283 50.2447 59.4192 50.5771 59.601C50.9094 59.78 51.168 60.0527 51.3526 60.4192C51.5373 60.7828 51.6296 61.2431 51.6296 61.7999V65.959H50.6239V61.8681C50.6239 61.3539 50.4904 60.9533 50.2234 60.6664C49.9563 60.3766 49.5898 60.2317 49.1239 60.2317C48.8029 60.2317 48.516 60.3013 48.2631 60.4405C48.0131 60.5797 47.8157 60.7828 47.6708 61.0499C47.5259 61.3169 47.4535 61.6408 47.4535 62.0215ZM56.1264 66.0953C55.5355 66.0953 55.017 65.9547 54.571 65.6735C54.1278 65.3922 53.7812 64.9988 53.5312 64.4931C53.2841 63.9874 53.1605 63.3965 53.1605 62.7203C53.1605 62.0385 53.2841 61.4434 53.5312 60.9348C53.7812 60.4263 54.1278 60.0314 54.571 59.7502C55.017 59.4689 55.5355 59.3283 56.1264 59.3283C56.7173 59.3283 57.2344 59.4689 57.6776 59.7502C58.1236 60.0314 58.4702 60.4263 58.7173 60.9348C58.9673 61.4434 59.0923 62.0385 59.0923 62.7203C59.0923 63.3965 58.9673 63.9874 58.7173 64.4931C58.4702 64.9988 58.1236 65.3922 57.6776 65.6735C57.2344 65.9547 56.7173 66.0953 56.1264 66.0953ZM56.1264 65.1919C56.5753 65.1919 56.9446 65.0769 57.2344 64.8468C57.5241 64.6167 57.7386 64.3141 57.8778 63.9391C58.017 63.5641 58.0866 63.1578 58.0866 62.7203C58.0866 62.2828 58.017 61.8752 57.8778 61.4973C57.7386 61.1195 57.5241 60.8141 57.2344 60.5811C56.9446 60.3482 56.5753 60.2317 56.1264 60.2317C55.6776 60.2317 55.3082 60.3482 55.0185 60.5811C54.7287 60.8141 54.5142 61.1195 54.375 61.4973C54.2358 61.8752 54.1662 62.2828 54.1662 62.7203C54.1662 63.1578 54.2358 63.5641 54.375 63.9391C54.5142 64.3141 54.7287 64.6167 55.0185 64.8468C55.3082 65.0769 55.6776 65.1919 56.1264 65.1919ZM61.6332 57.2317V65.959H60.6275V57.2317H61.6332ZM66.1342 66.0953C65.5433 66.0953 65.0249 65.9547 64.5788 65.6735C64.1357 65.3922 63.7891 64.9988 63.5391 64.4931C63.2919 63.9874 63.1683 63.3965 63.1683 62.7203C63.1683 62.0385 63.2919 61.4434 63.5391 60.9348C63.7891 60.4263 64.1357 60.0314 64.5788 59.7502C65.0249 59.4689 65.5433 59.3283 66.1342 59.3283C66.7251 59.3283 67.2422 59.4689 67.6854 59.7502C68.1314 60.0314 68.478 60.4263 68.7251 60.9348C68.9751 61.4434 69.1001 62.0385 69.1001 62.7203C69.1001 63.3965 68.9751 63.9874 68.7251 64.4931C68.478 64.9988 68.1314 65.3922 67.6854 65.6735C67.2422 65.9547 66.7251 66.0953 66.1342 66.0953ZM66.1342 65.1919C66.5831 65.1919 66.9524 65.0769 67.2422 64.8468C67.532 64.6167 67.7464 64.3141 67.8857 63.9391C68.0249 63.5641 68.0945 63.1578 68.0945 62.7203C68.0945 62.2828 68.0249 61.8752 67.8857 61.4973C67.7464 61.1195 67.532 60.8141 67.2422 60.5811C66.9524 60.3482 66.5831 60.2317 66.1342 60.2317C65.6854 60.2317 65.3161 60.3482 65.0263 60.5811C64.7365 60.8141 64.522 61.1195 64.3828 61.4973C64.2436 61.8752 64.174 62.2828 64.174 62.7203C64.174 63.1578 64.2436 63.5641 64.3828 63.9391C64.522 64.3141 64.7365 64.6167 65.0263 64.8468C65.3161 65.0769 65.6854 65.1919 66.1342 65.1919ZM73.2773 68.5499C72.7915 68.5499 72.3739 68.4874 72.0245 68.3624C71.6751 68.2402 71.3839 68.0783 71.1509 67.8766C70.9208 67.6777 70.7376 67.4647 70.6012 67.2374L71.4023 66.6749C71.4933 66.7942 71.6083 66.9306 71.7475 67.084C71.8867 67.2402 72.0771 67.3752 72.3185 67.4888C72.5629 67.6053 72.8825 67.6635 73.2773 67.6635C73.8058 67.6635 74.2418 67.5357 74.5856 67.28C74.9293 67.0243 75.1012 66.6238 75.1012 66.0783V64.7488H75.016C74.9421 64.8681 74.837 65.0158 74.7006 65.1919C74.5671 65.3652 74.3739 65.5201 74.1211 65.6564C73.8711 65.79 73.533 65.8567 73.1069 65.8567C72.5785 65.8567 72.104 65.7317 71.6836 65.4817C71.266 65.2317 70.935 64.8681 70.6907 64.3908C70.4492 63.9135 70.3285 63.334 70.3285 62.6522C70.3285 61.9817 70.4464 61.3979 70.6822 60.9007C70.918 60.4007 71.2461 60.0144 71.6665 59.7417C72.087 59.4661 72.5728 59.3283 73.1239 59.3283C73.5501 59.3283 73.8881 59.3993 74.1381 59.5414C74.391 59.6806 74.5842 59.8397 74.7177 60.0186C74.854 60.1948 74.9592 60.3397 75.033 60.4533H75.1353V59.4135H76.1069V66.1465C76.1069 66.709 75.979 67.1664 75.7234 67.5186C75.4705 67.8738 75.1296 68.1337 74.7006 68.2985C74.2745 68.4661 73.8001 68.5499 73.2773 68.5499ZM73.2433 64.9533C73.6467 64.9533 73.9876 64.861 74.266 64.6763C74.5444 64.4917 74.756 64.226 74.9009 63.8794C75.0458 63.5328 75.1183 63.1181 75.1183 62.6351C75.1183 62.1635 75.0472 61.7473 74.9052 61.3865C74.7631 61.0257 74.5529 60.7431 74.2745 60.5385C73.9961 60.334 73.6523 60.2317 73.2433 60.2317C72.8171 60.2317 72.462 60.3397 72.1779 60.5556C71.8967 60.7715 71.685 61.0613 71.543 61.4249C71.4038 61.7885 71.3342 62.1919 71.3342 62.6351C71.3342 63.0897 71.4052 63.4917 71.5472 63.8411C71.6921 64.1877 71.9052 64.4604 72.1864 64.6593C72.4705 64.8553 72.8228 64.9533 73.2433 64.9533ZM78.5955 68.4135C78.4251 68.4135 78.2731 68.3993 78.1396 68.3709C78.006 68.3453 77.9137 68.3198 77.8626 68.2942L78.1183 67.4078C78.3626 67.4703 78.5785 67.4931 78.766 67.476C78.9535 67.459 79.1197 67.3752 79.2646 67.2246C79.4123 67.0769 79.5472 66.8368 79.6694 66.5044L79.8569 65.9931L77.4364 59.4135H78.5273L80.3342 64.6294H80.4023L82.2092 59.4135H83.3001L80.5217 66.9135C80.3967 67.2516 80.2418 67.5314 80.0572 67.753C79.8725 67.9775 79.658 68.1436 79.4137 68.2516C79.1722 68.3596 78.8995 68.4135 78.5955 68.4135Z" fill="black" fill-opacity="0.7"/>
<path d="M28.0795 104.721H27.0227C26.9602 104.417 26.8509 104.15 26.6946 103.92C26.5412 103.689 26.3537 103.496 26.1321 103.34C25.9134 103.181 25.6705 103.062 25.4034 102.982C25.1364 102.903 24.858 102.863 24.5682 102.863C24.0398 102.863 23.5611 102.996 23.1321 103.263C22.706 103.53 22.3665 103.924 22.1136 104.444C21.8636 104.964 21.7386 105.601 21.7386 106.357C21.7386 107.113 21.8636 107.751 22.1136 108.27C22.3665 108.79 22.706 109.184 23.1321 109.451C23.5611 109.718 24.0398 109.851 24.5682 109.851C24.858 109.851 25.1364 109.812 25.4034 109.732C25.6705 109.653 25.9134 109.535 26.1321 109.378C26.3537 109.219 26.5412 109.025 26.6946 108.795C26.8509 108.562 26.9602 108.295 27.0227 107.993H28.0795C28 108.439 27.8551 108.839 27.6449 109.191C27.4347 109.543 27.1733 109.843 26.8608 110.09C26.5483 110.334 26.1974 110.52 25.8082 110.648C25.4219 110.776 25.0085 110.84 24.5682 110.84C23.8239 110.84 23.1619 110.658 22.5824 110.295C22.0028 109.931 21.5469 109.414 21.2145 108.743C20.8821 108.073 20.7159 107.278 20.7159 106.357C20.7159 105.437 20.8821 104.641 21.2145 103.971C21.5469 103.3 22.0028 102.783 22.5824 102.42C23.1619 102.056 23.8239 101.874 24.5682 101.874C25.0085 101.874 25.4219 101.938 25.8082 102.066C26.1974 102.194 26.5483 102.381 26.8608 102.628C27.1733 102.873 27.4347 103.171 27.6449 103.523C27.8551 103.873 28 104.272 28.0795 104.721ZM31.5771 110.874C31.1623 110.874 30.7859 110.796 30.4478 110.64C30.1097 110.481 29.8413 110.252 29.6424 109.954C29.4435 109.653 29.3441 109.289 29.3441 108.863C29.3441 108.488 29.418 108.184 29.5657 107.951C29.7134 107.715 29.9109 107.53 30.158 107.397C30.4052 107.263 30.6779 107.164 30.9762 107.099C31.2773 107.03 31.5799 106.976 31.8839 106.937C32.2816 106.885 32.604 106.847 32.8512 106.822C33.1012 106.793 33.283 106.746 33.3967 106.681C33.5131 106.616 33.5714 106.502 33.5714 106.34V106.306C33.5714 105.885 33.4563 105.559 33.2262 105.326C32.9989 105.093 32.6538 104.976 32.1907 104.976C31.7106 104.976 31.3342 105.081 31.0614 105.292C30.7887 105.502 30.5969 105.726 30.4862 105.965L29.5316 105.624C29.7021 105.226 29.9293 104.917 30.2134 104.695C30.5004 104.471 30.8129 104.314 31.1509 104.226C31.4918 104.135 31.8271 104.09 32.1566 104.09C32.3668 104.09 32.6083 104.116 32.881 104.167C33.1566 104.215 33.4222 104.316 33.6779 104.469C33.9364 104.623 34.1509 104.854 34.3214 105.164C34.4918 105.474 34.5771 105.888 34.5771 106.408V110.721H33.5714V109.834H33.5202C33.4521 109.976 33.3384 110.128 33.1793 110.29C33.0202 110.452 32.8086 110.59 32.5444 110.704C32.2802 110.817 31.9577 110.874 31.5771 110.874ZM31.7305 109.971C32.1282 109.971 32.4634 109.893 32.7362 109.736C33.0117 109.58 33.2191 109.378 33.3583 109.131C33.5004 108.884 33.5714 108.624 33.5714 108.351V107.431C33.5288 107.482 33.435 107.529 33.2901 107.572C33.1481 107.611 32.9833 107.647 32.7958 107.678C32.6112 107.706 32.4308 107.732 32.2546 107.755C32.0813 107.775 31.9407 107.792 31.8327 107.806C31.5714 107.84 31.3271 107.895 31.0998 107.972C30.8754 108.046 30.6935 108.158 30.5543 108.309C30.418 108.456 30.3498 108.658 30.3498 108.914C30.3498 109.263 30.479 109.528 30.7376 109.706C30.9989 109.883 31.3299 109.971 31.7305 109.971ZM36.4126 110.721V104.175H37.3842V105.164H37.4524C37.5717 104.84 37.7876 104.577 38.1001 104.376C38.4126 104.174 38.7649 104.073 39.157 104.073C39.2308 104.073 39.3232 104.074 39.4339 104.077C39.5447 104.08 39.6286 104.084 39.6854 104.09V105.113C39.6513 105.104 39.5732 105.091 39.451 105.074C39.3317 105.055 39.2053 105.045 39.0717 105.045C38.7536 105.045 38.4695 105.111 38.2195 105.245C37.9723 105.376 37.7763 105.557 37.6314 105.79C37.4893 106.02 37.4183 106.283 37.4183 106.579V110.721H36.4126ZM44.3888 110.721V101.993H47.44C48.0479 101.993 48.5494 102.099 48.9442 102.309C49.3391 102.516 49.6332 102.796 49.8263 103.148C50.0195 103.498 50.1161 103.885 50.1161 104.312C50.1161 104.687 50.0494 104.996 49.9158 105.241C49.7852 105.485 49.6119 105.678 49.396 105.82C49.1829 105.962 48.9513 106.067 48.7013 106.135V106.221C48.9684 106.238 49.2369 106.331 49.5067 106.502C49.7766 106.672 50.0025 106.917 50.1843 107.235C50.3661 107.553 50.457 107.942 50.457 108.403C50.457 108.84 50.3576 109.233 50.1587 109.583C49.9599 109.932 49.646 110.209 49.217 110.414C48.788 110.618 48.2298 110.721 47.5423 110.721H44.3888ZM45.4457 109.783H47.5423C48.2326 109.783 48.7227 109.65 49.0124 109.383C49.305 109.113 49.4513 108.786 49.4513 108.403C49.4513 108.107 49.3761 107.834 49.2255 107.584C49.0749 107.331 48.8604 107.13 48.582 106.979C48.3036 106.826 47.9741 106.749 47.5934 106.749H45.4457V109.783ZM45.4457 105.829H47.4059C47.7241 105.829 48.011 105.766 48.2667 105.641C48.5252 105.516 48.7298 105.34 48.8803 105.113C49.0337 104.885 49.1104 104.618 49.1104 104.312C49.1104 103.928 48.9769 103.603 48.7099 103.336C48.4428 103.066 48.0195 102.931 47.44 102.931H45.4457V105.829ZM52.0572 110.721V104.175H53.0288V105.164H53.0969C53.2163 104.84 53.4322 104.577 53.7447 104.376C54.0572 104.174 54.4094 104.073 54.8015 104.073C54.8754 104.073 54.9677 104.074 55.0785 104.077C55.1893 104.08 55.2731 104.084 55.3299 104.09V105.113C55.2958 105.104 55.2177 105.091 55.0955 105.074C54.9762 105.055 54.8498 105.045 54.7163 105.045C54.3981 105.045 54.114 105.111 53.864 105.245C53.6168 105.376 53.4208 105.557 53.2759 105.79C53.1339 106.02 53.0629 106.283 53.0629 106.579V110.721H52.0572ZM58.4482 110.874C58.0334 110.874 57.657 110.796 57.3189 110.64C56.9808 110.481 56.7124 110.252 56.5135 109.954C56.3146 109.653 56.2152 109.289 56.2152 108.863C56.2152 108.488 56.2891 108.184 56.4368 107.951C56.5845 107.715 56.782 107.53 57.0291 107.397C57.2763 107.263 57.549 107.164 57.8473 107.099C58.1484 107.03 58.451 106.976 58.755 106.937C59.1527 106.885 59.4751 106.847 59.7223 106.822C59.9723 106.793 60.1541 106.746 60.2678 106.681C60.3842 106.616 60.4425 106.502 60.4425 106.34V106.306C60.4425 105.885 60.3274 105.559 60.0973 105.326C59.87 105.093 59.5249 104.976 59.0618 104.976C58.5817 104.976 58.2053 105.081 57.9325 105.292C57.6598 105.502 57.468 105.726 57.3572 105.965L56.4027 105.624C56.5732 105.226 56.8004 104.917 57.0845 104.695C57.3714 104.471 57.6839 104.314 58.022 104.226C58.3629 104.135 58.6982 104.09 59.0277 104.09C59.2379 104.09 59.4794 104.116 59.7521 104.167C60.0277 104.215 60.2933 104.316 60.549 104.469C60.8075 104.623 61.022 104.854 61.1925 105.164C61.3629 105.474 61.4482 105.888 61.4482 106.408V110.721H60.4425V109.834H60.3913C60.3232 109.976 60.2095 110.128 60.0504 110.29C59.8913 110.452 59.6797 110.59 59.4155 110.704C59.1513 110.817 58.8288 110.874 58.4482 110.874ZM58.6016 109.971C58.9993 109.971 59.3345 109.893 59.6072 109.736C59.8828 109.58 60.0902 109.378 60.2294 109.131C60.3714 108.884 60.4425 108.624 60.4425 108.351V107.431C60.3999 107.482 60.3061 107.529 60.1612 107.572C60.0192 107.611 59.8544 107.647 59.6669 107.678C59.4822 107.706 59.3018 107.732 59.1257 107.755C58.9524 107.775 58.8118 107.792 58.7038 107.806C58.4425 107.84 58.1982 107.895 57.9709 107.972C57.7464 108.046 57.5646 108.158 57.4254 108.309C57.2891 108.456 57.2209 108.658 57.2209 108.914C57.2209 109.263 57.3501 109.528 57.6087 109.706C57.87 109.883 58.201 109.971 58.6016 109.971ZM64.2894 106.783V110.721H63.2837V104.175H64.2553V105.198H64.3406C64.494 104.866 64.7269 104.599 65.0394 104.397C65.3519 104.192 65.7553 104.09 66.2496 104.09C66.6928 104.09 67.0806 104.181 67.413 104.363C67.7454 104.542 68.0039 104.814 68.1886 105.181C68.3732 105.545 68.4656 106.005 68.4656 106.562V110.721H67.4599V106.63C67.4599 106.116 67.3263 105.715 67.0593 105.428C66.7923 105.138 66.4258 104.993 65.9599 104.993C65.6388 104.993 65.3519 105.063 65.0991 105.202C64.8491 105.341 64.6516 105.545 64.5067 105.812C64.3619 106.079 64.2894 106.403 64.2894 106.783ZM72.7749 110.857C72.2294 110.857 71.7479 110.719 71.3303 110.444C70.9126 110.165 70.5859 109.773 70.3501 109.268C70.1143 108.759 69.9964 108.158 69.9964 107.465C69.9964 106.778 70.1143 106.181 70.3501 105.675C70.5859 105.17 70.9141 104.779 71.3345 104.503C71.755 104.228 72.2408 104.09 72.7919 104.09C73.218 104.09 73.5547 104.161 73.8018 104.303C74.0518 104.442 74.2422 104.601 74.3729 104.78C74.5064 104.956 74.6101 105.101 74.6839 105.215H74.7692V101.993H75.7749V110.721H74.8033V109.715H74.6839C74.6101 109.834 74.505 109.985 74.3686 110.167C74.2322 110.346 74.0376 110.506 73.7848 110.648C73.532 110.787 73.1953 110.857 72.7749 110.857ZM72.9112 109.954C73.3146 109.954 73.6555 109.849 73.9339 109.638C74.2124 109.425 74.424 109.131 74.5689 108.756C74.7138 108.378 74.7862 107.942 74.7862 107.448C74.7862 106.959 74.7152 106.532 74.5732 106.165C74.4311 105.796 74.2209 105.509 73.9425 105.305C73.6641 105.097 73.3203 104.993 72.9112 104.993C72.4851 104.993 72.13 105.103 71.8459 105.322C71.5646 105.537 71.353 105.831 71.2109 106.204C71.0717 106.573 71.0021 106.988 71.0021 107.448C71.0021 107.914 71.0732 108.337 71.2152 108.718C71.3601 109.096 71.5732 109.397 71.8544 109.621C72.1385 109.843 72.4908 109.954 72.9112 109.954ZM82.3928 105.641L81.4893 105.897C81.4325 105.746 81.3487 105.6 81.2379 105.458C81.13 105.313 80.9822 105.194 80.7947 105.1C80.6072 105.006 80.3672 104.959 80.0746 104.959C79.674 104.959 79.3402 105.052 79.0732 105.236C78.8089 105.418 78.6768 105.65 78.6768 105.931C78.6768 106.181 78.7678 106.378 78.9496 106.523C79.1314 106.668 79.4155 106.789 79.8018 106.885L80.7734 107.124C81.3587 107.266 81.7947 107.483 82.0817 107.776C82.3686 108.066 82.5121 108.439 82.5121 108.897C82.5121 109.272 82.4041 109.607 82.1882 109.903C81.9751 110.198 81.6768 110.431 81.2933 110.601C80.9098 110.772 80.4638 110.857 79.9553 110.857C79.2876 110.857 78.7351 110.712 78.2976 110.422C77.8601 110.133 77.5831 109.709 77.4666 109.153L78.4212 108.914C78.5121 109.266 78.6839 109.53 78.9368 109.706C79.1925 109.883 79.5263 109.971 79.9382 109.971C80.407 109.971 80.7791 109.871 81.0547 109.672C81.3331 109.471 81.4723 109.229 81.4723 108.948C81.4723 108.721 81.3928 108.53 81.2337 108.377C81.0746 108.221 80.8303 108.104 80.5007 108.028L79.4098 107.772C78.8104 107.63 78.37 107.41 78.0888 107.111C77.8104 106.81 77.6712 106.434 77.6712 105.982C77.6712 105.613 77.7749 105.286 77.9822 105.002C78.1925 104.718 78.478 104.495 78.8388 104.333C79.2024 104.171 79.6143 104.09 80.0746 104.09C80.7223 104.09 81.2308 104.232 81.6001 104.516C81.9723 104.8 82.2365 105.175 82.3928 105.641Z" fill="black" fill-opacity="0.7"/>
<path d="M43.4148 155.482H42.3068L45.5114 146.755H46.6023L49.8068 155.482H48.6989L46.0909 148.136H46.0227L43.4148 155.482ZM43.8239 152.073H48.2898V153.011H43.8239V152.073ZM51.1001 155.482V148.937H52.1058V155.482H51.1001ZM51.6115 147.846C51.4155 147.846 51.2464 147.779 51.1044 147.646C50.9652 147.512 50.8956 147.352 50.8956 147.164C50.8956 146.977 50.9652 146.816 51.1044 146.683C51.2464 146.549 51.4155 146.482 51.6115 146.482C51.8075 146.482 51.9751 146.549 52.1143 146.683C52.2564 146.816 52.3274 146.977 52.3274 147.164C52.3274 147.352 52.2564 147.512 52.1143 147.646C51.9751 147.779 51.8075 147.846 51.6115 147.846ZM53.9478 155.482V148.937H54.9194V149.926H54.9876C55.1069 149.602 55.3228 149.339 55.6353 149.137C55.9478 148.936 56.3001 148.835 56.6921 148.835C56.766 148.835 56.8583 148.836 56.9691 148.839C57.0799 148.842 57.1637 148.846 57.2205 148.852V149.874C57.1864 149.866 57.1083 149.853 56.9862 149.836C56.8668 149.816 56.7404 149.806 56.6069 149.806C56.2887 149.806 56.0046 149.873 55.7546 150.007C55.5075 150.137 55.3114 150.319 55.1665 150.552C55.0245 150.782 54.9535 151.045 54.9535 151.34V155.482H53.9478ZM59.4183 146.755V155.482H58.4126V146.755H59.4183ZM61.2603 155.482V148.937H62.266V155.482H61.2603ZM61.7717 147.846C61.5756 147.846 61.4066 147.779 61.2646 147.646C61.1254 147.512 61.0558 147.352 61.0558 147.164C61.0558 146.977 61.1254 146.816 61.2646 146.683C61.4066 146.549 61.5756 146.482 61.7717 146.482C61.9677 146.482 62.1353 146.549 62.2745 146.683C62.4165 146.816 62.4876 146.977 62.4876 147.164C62.4876 147.352 62.4165 147.512 62.2745 147.646C62.1353 147.779 61.9677 147.846 61.7717 147.846ZM65.1136 151.545V155.482H64.108V148.937H65.0795V149.96H65.1648C65.3182 149.627 65.5511 149.36 65.8636 149.159C66.1761 148.954 66.5795 148.852 67.0739 148.852C67.517 148.852 67.9048 148.943 68.2372 149.124C68.5696 149.303 68.8281 149.576 69.0128 149.943C69.1974 150.306 69.2898 150.767 69.2898 151.323V155.482H68.2841V151.392C68.2841 150.877 68.1506 150.477 67.8835 150.19C67.6165 149.9 67.25 149.755 66.7841 149.755C66.4631 149.755 66.1761 149.825 65.9233 149.964C65.6733 150.103 65.4759 150.306 65.331 150.573C65.1861 150.84 65.1136 151.164 65.1136 151.545ZM73.8718 155.619C73.2411 155.619 72.6971 155.48 72.2397 155.201C71.7852 154.92 71.4343 154.528 71.1871 154.025C70.9428 153.519 70.8207 152.931 70.8207 152.261C70.8207 151.59 70.9428 150.999 71.1871 150.488C71.4343 149.974 71.7781 149.573 72.2184 149.286C72.6616 148.997 73.1786 148.852 73.7695 148.852C74.1104 148.852 74.4471 148.909 74.7795 149.022C75.1119 149.136 75.4144 149.32 75.6871 149.576C75.9599 149.829 76.1772 150.164 76.3391 150.582C76.5011 150.999 76.582 151.514 76.582 152.124V152.551H71.5366V151.681H75.5593C75.5593 151.312 75.4854 150.982 75.3377 150.693C75.1928 150.403 74.9854 150.174 74.7156 150.007C74.4485 149.839 74.1332 149.755 73.7695 149.755C73.369 149.755 73.0224 149.855 72.7298 150.053C72.44 150.249 72.217 150.505 72.0607 150.82C71.9045 151.136 71.8263 151.474 71.8263 151.835V152.414C71.8263 152.909 71.9116 153.328 72.082 153.671C72.2553 154.012 72.4954 154.272 72.8022 154.451C73.109 154.627 73.4656 154.715 73.8718 154.715C74.136 154.715 74.3746 154.678 74.5877 154.605C74.8036 154.528 74.9897 154.414 75.146 154.264C75.3022 154.11 75.4229 153.92 75.5082 153.693L76.4798 153.965C76.3775 154.295 76.2056 154.585 75.9641 154.835C75.7227 155.082 75.4244 155.275 75.0692 155.414C74.7141 155.551 74.315 155.619 73.8718 155.619ZM82.7482 150.403L81.8448 150.659C81.788 150.508 81.7042 150.362 81.5934 150.22C81.4854 150.075 81.3377 149.955 81.1502 149.862C80.9627 149.768 80.7227 149.721 80.43 149.721C80.0295 149.721 79.6957 149.813 79.4286 149.998C79.1644 150.18 79.0323 150.411 79.0323 150.693C79.0323 150.943 79.1232 151.14 79.305 151.285C79.4869 151.43 79.771 151.551 80.1573 151.647L81.1289 151.886C81.7141 152.028 82.1502 152.245 82.4371 152.538C82.7241 152.828 82.8675 153.201 82.8675 153.659C82.8675 154.034 82.7596 154.369 82.5437 154.664C82.3306 154.96 82.0323 155.193 81.6488 155.363C81.2653 155.534 80.8192 155.619 80.3107 155.619C79.6431 155.619 79.0906 155.474 78.6531 155.184C78.2156 154.894 77.9386 154.471 77.8221 153.914L78.7766 153.676C78.8675 154.028 79.0394 154.292 79.2923 154.468C79.5479 154.644 79.8817 154.732 80.2937 154.732C80.7624 154.732 81.1346 154.633 81.4102 154.434C81.6886 154.232 81.8278 153.991 81.8278 153.71C81.8278 153.482 81.7482 153.292 81.5891 153.139C81.43 152.982 81.1857 152.866 80.8562 152.789L79.7653 152.534C79.1658 152.392 78.7255 152.171 78.4442 151.873C78.1658 151.572 78.0266 151.195 78.0266 150.744C78.0266 150.374 78.1303 150.048 78.3377 149.764C78.5479 149.48 78.8335 149.257 79.1942 149.095C79.5579 148.933 79.9698 148.852 80.43 148.852C81.0778 148.852 81.5863 148.994 81.9556 149.278C82.3278 149.562 82.592 149.937 82.7482 150.403Z" fill="black" fill-opacity="0.7"/>
<path d="M45.0568 200.246V191.519H50.3239V192.456H46.1136V195.405H50.0511V196.343H46.1136V199.309H50.392V200.246H45.0568ZM53.098 196.309V200.246H52.0923V193.701H53.0639V194.723H53.1491C53.3026 194.391 53.5355 194.124 53.848 193.922C54.1605 193.718 54.5639 193.615 55.0582 193.615C55.5014 193.615 55.8892 193.706 56.2216 193.888C56.554 194.067 56.8125 194.34 56.9972 194.706C57.1818 195.07 57.2741 195.53 57.2741 196.087V200.246H56.2685V196.155C56.2685 195.641 56.1349 195.24 55.8679 194.953C55.6009 194.664 55.2344 194.519 54.7685 194.519C54.4474 194.519 54.1605 194.588 53.9077 194.728C53.6577 194.867 53.4602 195.07 53.3153 195.337C53.1705 195.604 53.098 195.928 53.098 196.309ZM61.8562 200.382C61.2255 200.382 60.6815 200.243 60.2241 199.965C59.7695 199.684 59.4187 199.292 59.1715 198.789C58.9272 198.283 58.805 197.695 58.805 197.025C58.805 196.354 58.9272 195.763 59.1715 195.252C59.4187 194.738 59.7624 194.337 60.2028 194.05C60.646 193.76 61.163 193.615 61.7539 193.615C62.0948 193.615 62.4315 193.672 62.7638 193.786C63.0962 193.9 63.3988 194.084 63.6715 194.34C63.9442 194.593 64.1616 194.928 64.3235 195.346C64.4854 195.763 64.5664 196.277 64.5664 196.888V197.314H59.521V196.445H63.5437C63.5437 196.076 63.4698 195.746 63.3221 195.456C63.1772 195.167 62.9698 194.938 62.6999 194.77C62.4329 194.603 62.1175 194.519 61.7539 194.519C61.3533 194.519 61.0067 194.618 60.7141 194.817C60.4244 195.013 60.2013 195.269 60.0451 195.584C59.8888 195.9 59.8107 196.238 59.8107 196.598V197.178C59.8107 197.672 59.896 198.091 60.0664 198.435C60.2397 198.776 60.4798 199.036 60.7866 199.215C61.0934 199.391 61.4499 199.479 61.8562 199.479C62.1204 199.479 62.359 199.442 62.5721 199.368C62.788 199.292 62.9741 199.178 63.1303 199.027C63.2866 198.874 63.4073 198.684 63.4925 198.456L64.4641 198.729C64.3619 199.059 64.19 199.348 63.9485 199.598C63.707 199.846 63.4087 200.039 63.0536 200.178C62.6985 200.314 62.2994 200.382 61.8562 200.382ZM66.0962 200.246V193.701H67.0678V194.689H67.136C67.2553 194.365 67.4712 194.103 67.7837 193.901C68.0962 193.699 68.4485 193.598 68.8406 193.598C68.9144 193.598 69.0067 193.6 69.1175 193.603C69.2283 193.605 69.3121 193.61 69.369 193.615V194.638C69.3349 194.63 69.2567 194.617 69.1346 194.6C69.0153 194.58 68.8888 194.57 68.7553 194.57C68.4371 194.57 68.1531 194.637 67.9031 194.77C67.6559 194.901 67.4599 195.083 67.315 195.316C67.1729 195.546 67.1019 195.809 67.1019 196.104V200.246H66.0962ZM73.0039 202.837C72.5181 202.837 72.1005 202.775 71.7511 202.65C71.4016 202.527 71.1104 202.365 70.8775 202.164C70.6474 201.965 70.4641 201.752 70.3278 201.525L71.1289 200.962C71.2198 201.081 71.3349 201.218 71.4741 201.371C71.6133 201.527 71.8036 201.662 72.0451 201.776C72.2894 201.892 72.609 201.951 73.0039 201.951C73.5323 201.951 73.9684 201.823 74.3121 201.567C74.6559 201.311 74.8278 200.911 74.8278 200.365V199.036H74.7425C74.6687 199.155 74.5636 199.303 74.4272 199.479C74.2937 199.652 74.1005 199.807 73.8477 199.944C73.5977 200.077 73.2596 200.144 72.8335 200.144C72.305 200.144 71.8306 200.019 71.4102 199.769C70.9925 199.519 70.6616 199.155 70.4173 198.678C70.1758 198.201 70.055 197.621 70.055 196.939C70.055 196.269 70.1729 195.685 70.4087 195.188C70.6445 194.688 70.9727 194.301 71.3931 194.029C71.8136 193.753 72.2994 193.615 72.8505 193.615C73.2766 193.615 73.6147 193.686 73.8647 193.828C74.1175 193.968 74.3107 194.127 74.4442 194.306C74.5806 194.482 74.6857 194.627 74.7596 194.74H74.8619V193.701H75.8335V200.434C75.8335 200.996 75.7056 201.453 75.4499 201.806C75.1971 202.161 74.8562 202.421 74.4272 202.586C74.0011 202.753 73.5266 202.837 73.0039 202.837ZM72.9698 199.24C73.3732 199.24 73.7141 199.148 73.9925 198.963C74.271 198.779 74.4826 198.513 74.6275 198.167C74.7724 197.82 74.8448 197.405 74.8448 196.922C74.8448 196.451 74.7738 196.034 74.6317 195.674C74.4897 195.313 74.2795 195.03 74.0011 194.826C73.7227 194.621 73.3789 194.519 72.9698 194.519C72.5437 194.519 72.1886 194.627 71.9045 194.843C71.6232 195.059 71.4116 195.348 71.2695 195.712C71.1303 196.076 71.0607 196.479 71.0607 196.922C71.0607 197.377 71.1317 197.779 71.2738 198.128C71.4187 198.475 71.6317 198.748 71.913 198.946C72.1971 199.142 72.5494 199.24 72.9698 199.24ZM78.3221 202.701C78.1516 202.701 77.9996 202.686 77.8661 202.658C77.7326 202.632 77.6403 202.607 77.5891 202.581L77.8448 201.695C78.0891 201.757 78.305 201.78 78.4925 201.763C78.68 201.746 78.8462 201.662 78.9911 201.512C79.1388 201.364 79.2738 201.124 79.396 200.792L79.5835 200.28L77.163 193.701H78.2539L80.0607 198.917H80.1289L81.9357 193.701H83.0266L80.2482 201.201C80.1232 201.539 79.9684 201.819 79.7837 202.04C79.5991 202.265 79.3846 202.431 79.1403 202.539C78.8988 202.647 78.6261 202.701 78.3221 202.701Z" fill="black" fill-opacity="0.7"/>
<path d="M18.5795 237.218V236.281H25.125V237.218H22.3807V245.008H21.3239V237.218H18.5795ZM28.4148 245.144C27.7841 245.144 27.2401 245.005 26.7827 244.727C26.3281 244.445 25.9773 244.053 25.7301 243.55C25.4858 243.045 25.3636 242.457 25.3636 241.786C25.3636 241.116 25.4858 240.525 25.7301 240.013C25.9773 239.499 26.321 239.099 26.7614 238.812C27.2045 238.522 27.7216 238.377 28.3125 238.377C28.6534 238.377 28.9901 238.434 29.3224 238.548C29.6548 238.661 29.9574 238.846 30.2301 239.102C30.5028 239.354 30.7202 239.69 30.8821 240.107C31.044 240.525 31.125 241.039 31.125 241.65V242.076H26.0795V241.207H30.1023C30.1023 240.837 30.0284 240.508 29.8807 240.218C29.7358 239.928 29.5284 239.7 29.2585 239.532C28.9915 239.364 28.6761 239.281 28.3125 239.281C27.9119 239.281 27.5653 239.38 27.2727 239.579C26.983 239.775 26.7599 240.031 26.6037 240.346C26.4474 240.661 26.3693 240.999 26.3693 241.36V241.94C26.3693 242.434 26.4545 242.853 26.625 243.197C26.7983 243.538 27.0384 243.798 27.3452 243.977C27.652 244.153 28.0085 244.241 28.4148 244.241C28.679 244.241 28.9176 244.204 29.1307 244.13C29.3466 244.053 29.5327 243.94 29.6889 243.789C29.8452 243.636 29.9659 243.445 30.0511 243.218L31.0227 243.491C30.9205 243.82 30.7486 244.11 30.5071 244.36C30.2656 244.607 29.9673 244.8 29.6122 244.94C29.2571 245.076 28.858 245.144 28.4148 245.144ZM35.3139 245.144C34.7003 245.144 34.1719 244.999 33.7287 244.71C33.2855 244.42 32.9446 244.021 32.706 243.512C32.4673 243.004 32.348 242.423 32.348 241.769C32.348 241.104 32.4702 240.518 32.7145 240.009C32.9616 239.498 33.3054 239.099 33.7457 238.812C34.1889 238.522 34.706 238.377 35.2969 238.377C35.7571 238.377 36.1719 238.462 36.5412 238.633C36.9105 238.803 37.2131 239.042 37.4489 239.349C37.6847 239.656 37.831 240.013 37.8878 240.423H36.8821C36.8054 240.124 36.6349 239.86 36.3707 239.63C36.1094 239.397 35.7571 239.281 35.3139 239.281C34.9219 239.281 34.5781 239.383 34.2827 239.587C33.9901 239.789 33.7614 240.075 33.5966 240.444C33.4347 240.81 33.3537 241.241 33.3537 241.735C33.3537 242.241 33.4332 242.681 33.5923 243.056C33.7543 243.431 33.9815 243.722 34.2741 243.93C34.5696 244.137 34.9162 244.241 35.3139 244.241C35.5753 244.241 35.8125 244.195 36.0256 244.104C36.2386 244.013 36.419 243.883 36.5668 243.712C36.7145 243.542 36.8196 243.337 36.8821 243.099H37.8878C37.831 243.485 37.6903 243.833 37.4659 244.143C37.2443 244.45 36.9503 244.694 36.5838 244.876C36.2202 245.055 35.7969 245.144 35.3139 245.144ZM40.3636 241.07V245.008H39.358V236.281H40.3636V239.485H40.4489C40.6023 239.147 40.8324 238.879 41.1392 238.68C41.4489 238.478 41.8608 238.377 42.375 238.377C42.821 238.377 43.2116 238.467 43.5469 238.646C43.8821 238.822 44.142 239.093 44.3267 239.46C44.5142 239.823 44.608 240.286 44.608 240.849V245.008H43.6023V240.917C43.6023 240.397 43.4673 239.995 43.1974 239.711C42.9304 239.424 42.5597 239.281 42.0852 239.281C41.7557 239.281 41.4602 239.35 41.1989 239.489C40.9403 239.629 40.7358 239.832 40.5852 240.099C40.4375 240.366 40.3636 240.69 40.3636 241.07ZM47.4535 241.07V245.008H46.4478V238.462H47.4194V239.485H47.5046C47.658 239.153 47.891 238.886 48.2035 238.684C48.516 238.479 48.9194 238.377 49.4137 238.377C49.8569 238.377 50.2447 238.468 50.5771 238.65C50.9094 238.829 51.168 239.102 51.3526 239.468C51.5373 239.832 51.6296 240.292 51.6296 240.849V245.008H50.6239V240.917C50.6239 240.403 50.4904 240.002 50.2234 239.715C49.9563 239.425 49.5898 239.281 49.1239 239.281C48.8029 239.281 48.516 239.35 48.2631 239.489C48.0131 239.629 47.8157 239.832 47.6708 240.099C47.5259 240.366 47.4535 240.69 47.4535 241.07ZM56.1264 245.144C55.5355 245.144 55.017 245.004 54.571 244.722C54.1278 244.441 53.7812 244.048 53.5312 243.542C53.2841 243.036 53.1605 242.445 53.1605 241.769C53.1605 241.087 53.2841 240.492 53.5312 239.984C53.7812 239.475 54.1278 239.08 54.571 238.799C55.017 238.518 55.5355 238.377 56.1264 238.377C56.7173 238.377 57.2344 238.518 57.6776 238.799C58.1236 239.08 58.4702 239.475 58.7173 239.984C58.9673 240.492 59.0923 241.087 59.0923 241.769C59.0923 242.445 58.9673 243.036 58.7173 243.542C58.4702 244.048 58.1236 244.441 57.6776 244.722C57.2344 245.004 56.7173 245.144 56.1264 245.144ZM56.1264 244.241C56.5753 244.241 56.9446 244.126 57.2344 243.896C57.5241 243.665 57.7386 243.363 57.8778 242.988C58.017 242.613 58.0866 242.207 58.0866 241.769C58.0866 241.332 58.017 240.924 57.8778 240.546C57.7386 240.168 57.5241 239.863 57.2344 239.63C56.9446 239.397 56.5753 239.281 56.1264 239.281C55.6776 239.281 55.3082 239.397 55.0185 239.63C54.7287 239.863 54.5142 240.168 54.375 240.546C54.2358 240.924 54.1662 241.332 54.1662 241.769C54.1662 242.207 54.2358 242.613 54.375 242.988C54.5142 243.363 54.7287 243.665 55.0185 243.896C55.3082 244.126 55.6776 244.241 56.1264 244.241ZM61.6332 236.281V245.008H60.6275V236.281H61.6332ZM66.1342 245.144C65.5433 245.144 65.0249 245.004 64.5788 244.722C64.1357 244.441 63.7891 244.048 63.5391 243.542C63.2919 243.036 63.1683 242.445 63.1683 241.769C63.1683 241.087 63.2919 240.492 63.5391 239.984C63.7891 239.475 64.1357 239.08 64.5788 238.799C65.0249 238.518 65.5433 238.377 66.1342 238.377C66.7251 238.377 67.2422 238.518 67.6854 238.799C68.1314 239.08 68.478 239.475 68.7251 239.984C68.9751 240.492 69.1001 241.087 69.1001 241.769C69.1001 242.445 68.9751 243.036 68.7251 243.542C68.478 244.048 68.1314 244.441 67.6854 244.722C67.2422 245.004 66.7251 245.144 66.1342 245.144ZM66.1342 244.241C66.5831 244.241 66.9524 244.126 67.2422 243.896C67.532 243.665 67.7464 243.363 67.8857 242.988C68.0249 242.613 68.0945 242.207 68.0945 241.769C68.0945 241.332 68.0249 240.924 67.8857 240.546C67.7464 240.168 67.532 239.863 67.2422 239.63C66.9524 239.397 66.5831 239.281 66.1342 239.281C65.6854 239.281 65.3161 239.397 65.0263 239.63C64.7365 239.863 64.522 240.168 64.3828 240.546C64.2436 240.924 64.174 241.332 64.174 241.769C64.174 242.207 64.2436 242.613 64.3828 242.988C64.522 243.363 64.7365 243.665 65.0263 243.896C65.3161 244.126 65.6854 244.241 66.1342 244.241ZM73.2773 247.599C72.7915 247.599 72.3739 247.536 72.0245 247.411C71.6751 247.289 71.3839 247.127 71.1509 246.925C70.9208 246.727 70.7376 246.513 70.6012 246.286L71.4023 245.724C71.4933 245.843 71.6083 245.979 71.7475 246.133C71.8867 246.289 72.0771 246.424 72.3185 246.538C72.5629 246.654 72.8825 246.712 73.2773 246.712C73.8058 246.712 74.2418 246.585 74.5856 246.329C74.9293 246.073 75.1012 245.673 75.1012 245.127V243.798H75.016C74.9421 243.917 74.837 244.065 74.7006 244.241C74.5671 244.414 74.3739 244.569 74.1211 244.705C73.8711 244.839 73.533 244.906 73.1069 244.906C72.5785 244.906 72.104 244.781 71.6836 244.531C71.266 244.281 70.935 243.917 70.6907 243.44C70.4492 242.962 70.3285 242.383 70.3285 241.701C70.3285 241.031 70.4464 240.447 70.6822 239.95C70.918 239.45 71.2461 239.063 71.6665 238.79C72.087 238.515 72.5728 238.377 73.1239 238.377C73.5501 238.377 73.8881 238.448 74.1381 238.59C74.391 238.729 74.5842 238.888 74.7177 239.067C74.854 239.244 74.9592 239.388 75.033 239.502H75.1353V238.462H76.1069V245.195C76.1069 245.758 75.979 246.215 75.7234 246.567C75.4705 246.923 75.1296 247.183 74.7006 247.347C74.2745 247.515 73.8001 247.599 73.2773 247.599ZM73.2433 244.002C73.6467 244.002 73.9876 243.91 74.266 243.725C74.5444 243.54 74.756 243.275 74.9009 242.928C75.0458 242.582 75.1183 242.167 75.1183 241.684C75.1183 241.212 75.0472 240.796 74.9052 240.435C74.7631 240.075 74.5529 239.792 74.2745 239.587C73.9961 239.383 73.6523 239.281 73.2433 239.281C72.8171 239.281 72.462 239.388 72.1779 239.604C71.8967 239.82 71.685 240.11 71.543 240.474C71.4038 240.837 71.3342 241.241 71.3342 241.684C71.3342 242.138 71.4052 242.54 71.5472 242.89C71.6921 243.237 71.9052 243.509 72.1864 243.708C72.4705 243.904 72.8228 244.002 73.2433 244.002ZM78.5955 247.462C78.4251 247.462 78.2731 247.448 78.1396 247.42C78.006 247.394 77.9137 247.369 77.8626 247.343L78.1183 246.457C78.3626 246.519 78.5785 246.542 78.766 246.525C78.9535 246.508 79.1197 246.424 79.2646 246.273C79.4123 246.126 79.5472 245.886 79.6694 245.553L79.8569 245.042L77.4364 238.462H78.5273L80.3342 243.678H80.4023L82.2092 238.462H83.3001L80.5217 245.962C80.3967 246.3 80.2418 246.58 80.0572 246.802C79.8725 247.026 79.658 247.192 79.4137 247.3C79.1722 247.408 78.8995 247.462 78.5955 247.462Z" fill="black" fill-opacity="0.7"/>
<path d="M28.0795 283.77H27.0227C26.9602 283.466 26.8509 283.199 26.6946 282.968C26.5412 282.738 26.3537 282.545 26.1321 282.389C25.9134 282.23 25.6705 282.11 25.4034 282.031C25.1364 281.951 24.858 281.912 24.5682 281.912C24.0398 281.912 23.5611 282.045 23.1321 282.312C22.706 282.579 22.3665 282.973 22.1136 283.493C21.8636 284.012 21.7386 284.65 21.7386 285.406C21.7386 286.162 21.8636 286.799 22.1136 287.319C22.3665 287.839 22.706 288.233 23.1321 288.5C23.5611 288.767 24.0398 288.9 24.5682 288.9C24.858 288.9 25.1364 288.86 25.4034 288.781C25.6705 288.701 25.9134 288.583 26.1321 288.427C26.3537 288.268 26.5412 288.074 26.6946 287.843C26.8509 287.61 26.9602 287.343 27.0227 287.042H28.0795C28 287.488 27.8551 287.887 27.6449 288.24C27.4347 288.592 27.1733 288.892 26.8608 289.139C26.5483 289.383 26.1974 289.569 25.8082 289.697C25.4219 289.825 25.0085 289.889 24.5682 289.889C23.8239 289.889 23.1619 289.707 22.5824 289.343C22.0028 288.98 21.5469 288.463 21.2145 287.792C20.8821 287.122 20.7159 286.326 20.7159 285.406C20.7159 284.485 20.8821 283.69 21.2145 283.02C21.5469 282.349 22.0028 281.832 22.5824 281.468C23.1619 281.105 23.8239 280.923 24.5682 280.923C25.0085 280.923 25.4219 280.987 25.8082 281.115C26.1974 281.243 26.5483 281.43 26.8608 281.677C27.1733 281.922 27.4347 282.22 27.6449 282.572C27.8551 282.922 28 283.321 28.0795 283.77ZM31.5771 289.923C31.1623 289.923 30.7859 289.845 30.4478 289.689C30.1097 289.529 29.8413 289.301 29.6424 289.002C29.4435 288.701 29.3441 288.338 29.3441 287.912C29.3441 287.537 29.418 287.233 29.5657 287C29.7134 286.764 29.9109 286.579 30.158 286.446C30.4052 286.312 30.6779 286.213 30.9762 286.147C31.2773 286.079 31.5799 286.025 31.8839 285.985C32.2816 285.934 32.604 285.896 32.8512 285.87C33.1012 285.842 33.283 285.795 33.3967 285.73C33.5131 285.664 33.5714 285.551 33.5714 285.389V285.355C33.5714 284.934 33.4563 284.608 33.2262 284.375C32.9989 284.142 32.6538 284.025 32.1907 284.025C31.7106 284.025 31.3342 284.13 31.0614 284.341C30.7887 284.551 30.5969 284.775 30.4862 285.014L29.5316 284.673C29.7021 284.275 29.9293 283.966 30.2134 283.744C30.5004 283.52 30.8129 283.363 31.1509 283.275C31.4918 283.184 31.8271 283.139 32.1566 283.139C32.3668 283.139 32.6083 283.164 32.881 283.216C33.1566 283.264 33.4222 283.365 33.6779 283.518C33.9364 283.672 34.1509 283.903 34.3214 284.213C34.4918 284.522 34.5771 284.937 34.5771 285.457V289.77H33.5714V288.883H33.5202C33.4521 289.025 33.3384 289.177 33.1793 289.339C33.0202 289.501 32.8086 289.639 32.5444 289.752C32.2802 289.866 31.9577 289.923 31.5771 289.923ZM31.7305 289.02C32.1282 289.02 32.4634 288.941 32.7362 288.785C33.0117 288.629 33.2191 288.427 33.3583 288.18C33.5004 287.933 33.5714 287.673 33.5714 287.4V286.48C33.5288 286.531 33.435 286.578 33.2901 286.62C33.1481 286.66 32.9833 286.696 32.7958 286.727C32.6112 286.755 32.4308 286.781 32.2546 286.804C32.0813 286.824 31.9407 286.841 31.8327 286.855C31.5714 286.889 31.3271 286.944 31.0998 287.021C30.8754 287.095 30.6935 287.207 30.5543 287.358C30.418 287.505 30.3498 287.707 30.3498 287.963C30.3498 288.312 30.479 288.576 30.7376 288.755C30.9989 288.931 31.3299 289.02 31.7305 289.02ZM36.4126 289.77V283.224H37.3842V284.213H37.4524C37.5717 283.889 37.7876 283.626 38.1001 283.424C38.4126 283.223 38.7649 283.122 39.157 283.122C39.2308 283.122 39.3232 283.123 39.4339 283.126C39.5447 283.129 39.6286 283.133 39.6854 283.139V284.162C39.6513 284.153 39.5732 284.14 39.451 284.123C39.3317 284.103 39.2053 284.093 39.0717 284.093C38.7536 284.093 38.4695 284.16 38.2195 284.294C37.9723 284.424 37.7763 284.606 37.6314 284.839C37.4893 285.069 37.4183 285.332 37.4183 285.627V289.77H36.4126ZM44.3888 289.77V281.042H47.44C48.0479 281.042 48.5494 281.147 48.9442 281.358C49.3391 281.565 49.6332 281.845 49.8263 282.197C50.0195 282.547 50.1161 282.934 50.1161 283.36C50.1161 283.735 50.0494 284.045 49.9158 284.289C49.7852 284.534 49.6119 284.727 49.396 284.869C49.1829 285.011 48.9513 285.116 48.7013 285.184V285.27C48.9684 285.287 49.2369 285.38 49.5067 285.551C49.7766 285.721 50.0025 285.966 50.1843 286.284C50.3661 286.602 50.457 286.991 50.457 287.451C50.457 287.889 50.3576 288.282 50.1587 288.632C49.9599 288.981 49.646 289.258 49.217 289.463C48.788 289.667 48.2298 289.77 47.5423 289.77H44.3888ZM45.4457 288.832H47.5423C48.2326 288.832 48.7227 288.699 49.0124 288.431C49.305 288.162 49.4513 287.835 49.4513 287.451C49.4513 287.156 49.3761 286.883 49.2255 286.633C49.0749 286.38 48.8604 286.179 48.582 286.028C48.3036 285.875 47.9741 285.798 47.5934 285.798H45.4457V288.832ZM45.4457 284.877H47.4059C47.7241 284.877 48.011 284.815 48.2667 284.69C48.5252 284.565 48.7298 284.389 48.8803 284.162C49.0337 283.934 49.1104 283.667 49.1104 283.36C49.1104 282.977 48.9769 282.652 48.7099 282.385C48.4428 282.115 48.0195 281.98 47.44 281.98H45.4457V284.877ZM52.0572 289.77V283.224H53.0288V284.213H53.0969C53.2163 283.889 53.4322 283.626 53.7447 283.424C54.0572 283.223 54.4094 283.122 54.8015 283.122C54.8754 283.122 54.9677 283.123 55.0785 283.126C55.1893 283.129 55.2731 283.133 55.3299 283.139V284.162C55.2958 284.153 55.2177 284.14 55.0955 284.123C54.9762 284.103 54.8498 284.093 54.7163 284.093C54.3981 284.093 54.114 284.16 53.864 284.294C53.6168 284.424 53.4208 284.606 53.2759 284.839C53.1339 285.069 53.0629 285.332 53.0629 285.627V289.77H52.0572ZM58.4482 289.923C58.0334 289.923 57.657 289.845 57.3189 289.689C56.9808 289.529 56.7124 289.301 56.5135 289.002C56.3146 288.701 56.2152 288.338 56.2152 287.912C56.2152 287.537 56.2891 287.233 56.4368 287C56.5845 286.764 56.782 286.579 57.0291 286.446C57.2763 286.312 57.549 286.213 57.8473 286.147C58.1484 286.079 58.451 286.025 58.755 285.985C59.1527 285.934 59.4751 285.896 59.7223 285.87C59.9723 285.842 60.1541 285.795 60.2678 285.73C60.3842 285.664 60.4425 285.551 60.4425 285.389V285.355C60.4425 284.934 60.3274 284.608 60.0973 284.375C59.87 284.142 59.5249 284.025 59.0618 284.025C58.5817 284.025 58.2053 284.13 57.9325 284.341C57.6598 284.551 57.468 284.775 57.3572 285.014L56.4027 284.673C56.5732 284.275 56.8004 283.966 57.0845 283.744C57.3714 283.52 57.6839 283.363 58.022 283.275C58.3629 283.184 58.6982 283.139 59.0277 283.139C59.2379 283.139 59.4794 283.164 59.7521 283.216C60.0277 283.264 60.2933 283.365 60.549 283.518C60.8075 283.672 61.022 283.903 61.1925 284.213C61.3629 284.522 61.4482 284.937 61.4482 285.457V289.77H60.4425V288.883H60.3913C60.3232 289.025 60.2095 289.177 60.0504 289.339C59.8913 289.501 59.6797 289.639 59.4155 289.752C59.1513 289.866 58.8288 289.923 58.4482 289.923ZM58.6016 289.02C58.9993 289.02 59.3345 288.941 59.6072 288.785C59.8828 288.629 60.0902 288.427 60.2294 288.18C60.3714 287.933 60.4425 287.673 60.4425 287.4V286.48C60.3999 286.531 60.3061 286.578 60.1612 286.62C60.0192 286.66 59.8544 286.696 59.6669 286.727C59.4822 286.755 59.3018 286.781 59.1257 286.804C58.9524 286.824 58.8118 286.841 58.7038 286.855C58.4425 286.889 58.1982 286.944 57.9709 287.021C57.7464 287.095 57.5646 287.207 57.4254 287.358C57.2891 287.505 57.2209 287.707 57.2209 287.963C57.2209 288.312 57.3501 288.576 57.6087 288.755C57.87 288.931 58.201 289.02 58.6016 289.02ZM64.2894 285.832V289.77H63.2837V283.224H64.2553V284.247H64.3406C64.494 283.914 64.7269 283.647 65.0394 283.446C65.3519 283.241 65.7553 283.139 66.2496 283.139C66.6928 283.139 67.0806 283.23 67.413 283.412C67.7454 283.591 68.0039 283.863 68.1886 284.23C68.3732 284.593 68.4656 285.054 68.4656 285.61V289.77H67.4599V285.679C67.4599 285.164 67.3263 284.764 67.0593 284.477C66.7923 284.187 66.4258 284.042 65.9599 284.042C65.6388 284.042 65.3519 284.112 65.0991 284.251C64.8491 284.39 64.6516 284.593 64.5067 284.86C64.3619 285.127 64.2894 285.451 64.2894 285.832ZM72.7749 289.906C72.2294 289.906 71.7479 289.768 71.3303 289.493C70.9126 289.214 70.5859 288.822 70.3501 288.316C70.1143 287.808 69.9964 287.207 69.9964 286.514C69.9964 285.826 70.1143 285.23 70.3501 284.724C70.5859 284.218 70.9141 283.828 71.3345 283.552C71.755 283.277 72.2408 283.139 72.7919 283.139C73.218 283.139 73.5547 283.21 73.8018 283.352C74.0518 283.491 74.2422 283.65 74.3729 283.829C74.5064 284.005 74.6101 284.15 74.6839 284.264H74.7692V281.042H75.7749V289.77H74.8033V288.764H74.6839C74.6101 288.883 74.505 289.034 74.3686 289.216C74.2322 289.395 74.0376 289.555 73.7848 289.697C73.532 289.836 73.1953 289.906 72.7749 289.906ZM72.9112 289.002C73.3146 289.002 73.6555 288.897 73.9339 288.687C74.2124 288.474 74.424 288.18 74.5689 287.805C74.7138 287.427 74.7862 286.991 74.7862 286.497C74.7862 286.008 74.7152 285.581 74.5732 285.214C74.4311 284.845 74.2209 284.558 73.9425 284.353C73.6641 284.146 73.3203 284.042 72.9112 284.042C72.4851 284.042 72.13 284.152 71.8459 284.37C71.5646 284.586 71.353 284.88 71.2109 285.252C71.0717 285.622 71.0021 286.037 71.0021 286.497C71.0021 286.963 71.0732 287.386 71.2152 287.767C71.3601 288.145 71.5732 288.446 71.8544 288.67C72.1385 288.892 72.4908 289.002 72.9112 289.002ZM82.3928 284.69L81.4893 284.946C81.4325 284.795 81.3487 284.649 81.2379 284.507C81.13 284.362 80.9822 284.243 80.7947 284.149C80.6072 284.055 80.3672 284.008 80.0746 284.008C79.674 284.008 79.3402 284.1 79.0732 284.285C78.8089 284.467 78.6768 284.699 78.6768 284.98C78.6768 285.23 78.7678 285.427 78.9496 285.572C79.1314 285.717 79.4155 285.838 79.8018 285.934L80.7734 286.173C81.3587 286.315 81.7947 286.532 82.0817 286.825C82.3686 287.115 82.5121 287.488 82.5121 287.946C82.5121 288.321 82.4041 288.656 82.1882 288.951C81.9751 289.247 81.6768 289.48 81.2933 289.65C80.9098 289.821 80.4638 289.906 79.9553 289.906C79.2876 289.906 78.7351 289.761 78.2976 289.471C77.8601 289.181 77.5831 288.758 77.4666 288.201L78.4212 287.963C78.5121 288.315 78.6839 288.579 78.9368 288.755C79.1925 288.931 79.5263 289.02 79.9382 289.02C80.407 289.02 80.7791 288.92 81.0547 288.721C81.3331 288.52 81.4723 288.278 81.4723 287.997C81.4723 287.77 81.3928 287.579 81.2337 287.426C81.0746 287.27 80.8303 287.153 80.5007 287.076L79.4098 286.821C78.8104 286.679 78.37 286.458 78.0888 286.16C77.8104 285.859 77.6712 285.483 77.6712 285.031C77.6712 284.662 77.7749 284.335 77.9822 284.051C78.1925 283.767 78.478 283.544 78.8388 283.382C79.2024 283.22 79.6143 283.139 80.0746 283.139C80.7223 283.139 81.2308 283.281 81.6001 283.565C81.9723 283.849 82.2365 284.224 82.3928 284.69Z" fill="black" fill-opacity="0.7"/>
<line x1="483.5" y1="40.0781" x2="483.5" y2="307.078" stroke="black" stroke-opacity="0.15" stroke-dasharray="2"/>
<line x1="444.1" y1="40.0781" x2="444.1" y2="307.078" stroke="black" stroke-opacity="0.15" stroke-dasharray="2"/>
<line x1="404.699" y1="40.0781" x2="404.699" y2="307.078" stroke="black" stroke-opacity="0.15" stroke-dasharray="2"/>
<line x1="365.301" y1="40.0781" x2="365.301" y2="307.078" stroke="black" stroke-opacity="0.15" stroke-dasharray="2"/>
<line x1="325.9" y1="40.0781" x2="325.9" y2="307.078" stroke="black" stroke-opacity="0.15" stroke-dasharray="2"/>
<line x1="286.5" y1="40.0781" x2="286.5" y2="307.078" stroke="black" stroke-opacity="0.15" stroke-dasharray="2"/>
<line x1="247.1" y1="40.0781" x2="247.1" y2="307.078" stroke="black" stroke-opacity="0.15" stroke-dasharray="2"/>
<line x1="207.699" y1="40.0781" x2="207.699" y2="307.078" stroke="black" stroke-opacity="0.15" stroke-dasharray="2"/>
<line x1="168.301" y1="40.0781" x2="168.301" y2="307.078" stroke="black" stroke-opacity="0.15" stroke-dasharray="2"/>
<line x1="128.9" y1="40.0781" x2="128.9" y2="307.078" stroke="black" stroke-opacity="0.15" stroke-dasharray="2"/>
<line x1="89.5" y1="40.0781" x2="89.5" y2="307.078" stroke="black" stroke-opacity="0.3"/>
<line x1="89" y1="39.5781" x2="483" y2="39.5781" stroke="black" stroke-opacity="0.15" stroke-dasharray="2"/>
<line x1="89" y1="84.0781" x2="483" y2="84.0781" stroke="black" stroke-opacity="0.15" stroke-dasharray="2"/>
<line x1="89" y1="128.578" x2="483" y2="128.578" stroke="black" stroke-opacity="0.15" stroke-dasharray="2"/>
<line x1="89" y1="173.078" x2="483" y2="173.078" stroke="black" stroke-opacity="0.15" stroke-dasharray="2"/>
<line x1="89" y1="217.578" x2="483" y2="217.578" stroke="black" stroke-opacity="0.15" stroke-dasharray="2"/>
<line x1="89" y1="262.078" x2="483" y2="262.078" stroke="black" stroke-opacity="0.15" stroke-dasharray="2"/>
<line x1="89" y1="306.578" x2="483" y2="306.578" stroke="black" stroke-opacity="0.15" stroke-dasharray="2"/>
<path d="M220.021 61.4941L365.801 106.327L188.501 151.161L409.141 195.994L184.561 240.827L365.801 285.661M365.801 285.661V285.661Z" stroke="#55B1A5"/>
<circle cx="220.021" cy="61.4941" r="3.5" transform="rotate(90 220.021 61.4941)" fill="white" stroke="#55B1A5"/>
<circle cx="365.801" cy="106.328" r="3.5" transform="rotate(90 365.801 106.328)" fill="white" stroke="#55B1A5"/>
<circle cx="188.5" cy="151.16" r="3.5" transform="rotate(90 188.5 151.16)" fill="white" stroke="#55B1A5"/>
<circle cx="409.141" cy="195.994" r="3.5" transform="rotate(90 409.141 195.994)" fill="white" stroke="#55B1A5"/>
<circle cx="184.561" cy="240.828" r="3.5" transform="rotate(90 184.561 240.828)" fill="white" stroke="#55B1A5"/>
<circle cx="365.801" cy="285.66" r="3.5" transform="rotate(90 365.801 285.66)" fill="white" stroke="#55B1A5"/>
<path d="M393.381 61.4941L239.721 106.327L346.101 151.161L153.041 195.994L223.961 240.827L184.561 285.661M184.561 285.661V285.661Z" stroke="#EDD088"/>
<circle cx="393.381" cy="61.4941" r="3.5" transform="rotate(90 393.381 61.4941)" fill="white" stroke="#EDD088"/>
<circle cx="239.721" cy="106.328" r="3.5" transform="rotate(90 239.721 106.328)" fill="white" stroke="#EDD088"/>
<circle cx="346.102" cy="151.16" r="3.5" transform="rotate(90 346.102 151.16)" fill="white" stroke="#EDD088"/>
<circle cx="153.041" cy="195.994" r="3.5" transform="rotate(90 153.041 195.994)" fill="white" stroke="#EDD088"/>
<circle cx="223.961" cy="240.828" r="3.5" transform="rotate(90 223.961 240.828)" fill="white" stroke="#EDD088"/>
<circle cx="184.561" cy="285.66" r="3.5" transform="rotate(90 184.561 285.66)" fill="white" stroke="#EDD088"/>
<g clip-path="url(#clip0_815_3851)">
<g clip-path="url(#clip1_815_3851)">
<rect x="192" y="326.65" width="16" height="2" fill="#EDD088"/>
<circle cx="200" cy="327.65" r="3.5" fill="white" stroke="#EDD088"/>
<path d="M212.903 332.15V331.383L215.784 328.23C216.122 327.861 216.401 327.54 216.619 327.267C216.838 326.991 217 326.733 217.105 326.491C217.213 326.247 217.267 325.991 217.267 325.724C217.267 325.417 217.193 325.152 217.045 324.927C216.901 324.703 216.702 324.53 216.449 324.407C216.196 324.285 215.912 324.224 215.597 324.224C215.261 324.224 214.969 324.294 214.719 324.433C214.472 324.569 214.28 324.761 214.143 325.008C214.01 325.256 213.943 325.545 213.943 325.878H212.938C212.938 325.366 213.055 324.917 213.291 324.531C213.527 324.145 213.848 323.844 214.254 323.628C214.663 323.412 215.122 323.304 215.631 323.304C216.142 323.304 216.595 323.412 216.99 323.628C217.385 323.844 217.695 324.135 217.919 324.501C218.143 324.868 218.256 325.275 218.256 325.724C218.256 326.045 218.197 326.359 218.081 326.666C217.967 326.97 217.768 327.309 217.484 327.684C217.203 328.057 216.812 328.511 216.312 329.048L214.352 331.145V331.213H218.409V332.15H212.903ZM223.016 332.27C222.374 332.27 221.827 332.095 221.375 331.746C220.923 331.393 220.578 330.883 220.339 330.216C220.101 329.545 219.982 328.736 219.982 327.787C219.982 326.844 220.101 326.038 220.339 325.371C220.581 324.7 220.928 324.189 221.379 323.836C221.834 323.481 222.379 323.304 223.016 323.304C223.652 323.304 224.196 323.481 224.648 323.836C225.102 324.189 225.449 324.7 225.688 325.371C225.929 326.038 226.05 326.844 226.05 327.787C226.05 328.736 225.93 329.545 225.692 330.216C225.453 330.883 225.108 331.393 224.656 331.746C224.205 332.095 223.658 332.27 223.016 332.27ZM223.016 331.332C223.652 331.332 224.146 331.025 224.499 330.412C224.851 329.798 225.027 328.923 225.027 327.787C225.027 327.031 224.946 326.388 224.784 325.856C224.625 325.325 224.395 324.92 224.094 324.642C223.795 324.363 223.436 324.224 223.016 324.224C222.385 324.224 221.892 324.535 221.537 325.157C221.182 325.777 221.004 326.653 221.004 327.787C221.004 328.542 221.084 329.184 221.243 329.713C221.402 330.241 221.631 330.643 221.929 330.919C222.23 331.194 222.592 331.332 223.016 331.332ZM227.669 332.15V331.383L230.55 328.23C230.888 327.861 231.166 327.54 231.385 327.267C231.604 326.991 231.766 326.733 231.871 326.491C231.979 326.247 232.033 325.991 232.033 325.724C232.033 325.417 231.959 325.152 231.811 324.927C231.666 324.703 231.467 324.53 231.214 324.407C230.962 324.285 230.678 324.224 230.362 324.224C230.027 324.224 229.734 324.294 229.484 324.433C229.237 324.569 229.045 324.761 228.909 325.008C228.776 325.256 228.709 325.545 228.709 325.878H227.703C227.703 325.366 227.821 324.917 228.057 324.531C228.293 324.145 228.614 323.844 229.02 323.628C229.429 323.412 229.888 323.304 230.396 323.304C230.908 323.304 231.361 323.412 231.756 323.628C232.151 323.844 232.46 324.135 232.685 324.501C232.909 324.868 233.021 325.275 233.021 325.724C233.021 326.045 232.963 326.359 232.847 326.666C232.733 326.97 232.534 327.309 232.25 327.684C231.969 328.057 231.578 328.511 231.078 329.048L229.118 331.145V331.213H233.175V332.15H227.669ZM234.935 332.15V331.383L237.815 328.23C238.153 327.861 238.432 327.54 238.651 327.267C238.869 326.991 239.031 326.733 239.136 326.491C239.244 326.247 239.298 325.991 239.298 325.724C239.298 325.417 239.224 325.152 239.077 324.927C238.932 324.703 238.733 324.53 238.48 324.407C238.227 324.285 237.943 324.224 237.628 324.224C237.293 324.224 237 324.294 236.75 324.433C236.503 324.569 236.311 324.761 236.175 325.008C236.041 325.256 235.974 325.545 235.974 325.878H234.969C234.969 325.366 235.087 324.917 235.322 324.531C235.558 324.145 235.879 323.844 236.286 323.628C236.695 323.412 237.153 323.304 237.662 323.304C238.173 323.304 238.626 323.412 239.021 323.628C239.416 323.844 239.726 324.135 239.95 324.501C240.175 324.868 240.287 325.275 240.287 325.724C240.287 326.045 240.229 326.359 240.112 326.666C239.999 326.97 239.8 327.309 239.516 327.684C239.234 328.057 238.844 328.511 238.344 329.048L236.384 331.145V331.213H240.44V332.15H234.935Z" fill="black" fill-opacity="0.7"/>
<rect x="258" y="326.65" width="16" height="2" fill="#55B1A5"/>
<circle cx="266" cy="327.65" r="3.5" fill="white" stroke="#55B1A5"/>
<path d="M278.903 332.15V331.383L281.784 328.23C282.122 327.861 282.401 327.54 282.619 327.267C282.838 326.991 283 326.733 283.105 326.491C283.213 326.247 283.267 325.991 283.267 325.724C283.267 325.417 283.193 325.152 283.045 324.927C282.901 324.703 282.702 324.53 282.449 324.407C282.196 324.285 281.912 324.224 281.597 324.224C281.261 324.224 280.969 324.294 280.719 324.433C280.472 324.569 280.28 324.761 280.143 325.008C280.01 325.256 279.943 325.545 279.943 325.878H278.938C278.938 325.366 279.055 324.917 279.291 324.531C279.527 324.145 279.848 323.844 280.254 323.628C280.663 323.412 281.122 323.304 281.631 323.304C282.142 323.304 282.595 323.412 282.99 323.628C283.385 323.844 283.695 324.135 283.919 324.501C284.143 324.868 284.256 325.275 284.256 325.724C284.256 326.045 284.197 326.359 284.081 326.666C283.967 326.97 283.768 327.309 283.484 327.684C283.203 328.057 282.812 328.511 282.312 329.048L280.352 331.145V331.213H284.409V332.15H278.903ZM289.016 332.27C288.374 332.27 287.827 332.095 287.375 331.746C286.923 331.393 286.578 330.883 286.339 330.216C286.101 329.545 285.982 328.736 285.982 327.787C285.982 326.844 286.101 326.038 286.339 325.371C286.581 324.7 286.928 324.189 287.379 323.836C287.834 323.481 288.379 323.304 289.016 323.304C289.652 323.304 290.196 323.481 290.648 323.836C291.102 324.189 291.449 324.7 291.688 325.371C291.929 326.038 292.05 326.844 292.05 327.787C292.05 328.736 291.93 329.545 291.692 330.216C291.453 330.883 291.108 331.393 290.656 331.746C290.205 332.095 289.658 332.27 289.016 332.27ZM289.016 331.332C289.652 331.332 290.146 331.025 290.499 330.412C290.851 329.798 291.027 328.923 291.027 327.787C291.027 327.031 290.946 326.388 290.784 325.856C290.625 325.325 290.395 324.92 290.094 324.642C289.795 324.363 289.436 324.224 289.016 324.224C288.385 324.224 287.892 324.535 287.537 325.157C287.182 325.777 287.004 326.653 287.004 327.787C287.004 328.542 287.084 329.184 287.243 329.713C287.402 330.241 287.631 330.643 287.929 330.919C288.23 331.194 288.592 331.332 289.016 331.332ZM293.669 332.15V331.383L296.55 328.23C296.888 327.861 297.166 327.54 297.385 327.267C297.604 326.991 297.766 326.733 297.871 326.491C297.979 326.247 298.033 325.991 298.033 325.724C298.033 325.417 297.959 325.152 297.811 324.927C297.666 324.703 297.467 324.53 297.214 324.407C296.962 324.285 296.678 324.224 296.362 324.224C296.027 324.224 295.734 324.294 295.484 324.433C295.237 324.569 295.045 324.761 294.909 325.008C294.776 325.256 294.709 325.545 294.709 325.878H293.703C293.703 325.366 293.821 324.917 294.057 324.531C294.293 324.145 294.614 323.844 295.02 323.628C295.429 323.412 295.888 323.304 296.396 323.304C296.908 323.304 297.361 323.412 297.756 323.628C298.151 323.844 298.46 324.135 298.685 324.501C298.909 324.868 299.021 325.275 299.021 325.724C299.021 326.045 298.963 326.359 298.847 326.666C298.733 326.97 298.534 327.309 298.25 327.684C297.969 328.057 297.578 328.511 297.078 329.048L295.118 331.145V331.213H299.175V332.15H293.669ZM303.884 332.27C303.321 332.27 302.82 332.173 302.379 331.98C301.942 331.787 301.594 331.518 301.335 331.175C301.08 330.828 300.94 330.426 300.918 329.969H301.991C302.014 330.25 302.111 330.493 302.281 330.697C302.452 330.899 302.675 331.055 302.95 331.166C303.226 331.277 303.531 331.332 303.866 331.332C304.241 331.332 304.574 331.267 304.864 331.136C305.153 331.006 305.381 330.824 305.545 330.591C305.71 330.358 305.793 330.088 305.793 329.781C305.793 329.46 305.713 329.177 305.554 328.933C305.395 328.686 305.162 328.493 304.855 328.354C304.548 328.214 304.173 328.145 303.73 328.145H303.031V327.207H303.73C304.077 327.207 304.381 327.145 304.642 327.02C304.906 326.895 305.112 326.719 305.26 326.491C305.411 326.264 305.486 325.997 305.486 325.69C305.486 325.395 305.42 325.138 305.29 324.919C305.159 324.7 304.974 324.53 304.736 324.407C304.5 324.285 304.222 324.224 303.901 324.224C303.599 324.224 303.315 324.28 303.048 324.39C302.784 324.498 302.568 324.656 302.401 324.863C302.233 325.068 302.142 325.315 302.128 325.605H301.105C301.122 325.148 301.26 324.747 301.518 324.403C301.777 324.057 302.115 323.787 302.533 323.594C302.953 323.4 303.415 323.304 303.918 323.304C304.457 323.304 304.92 323.413 305.307 323.632C305.693 323.848 305.99 324.133 306.197 324.488C306.405 324.844 306.509 325.227 306.509 325.639C306.509 326.131 306.379 326.55 306.121 326.896C305.865 327.243 305.517 327.483 305.077 327.616V327.684C305.628 327.775 306.058 328.01 306.368 328.388C306.678 328.763 306.832 329.227 306.832 329.781C306.832 330.256 306.703 330.682 306.445 331.059C306.189 331.434 305.839 331.73 305.396 331.946C304.953 332.162 304.449 332.27 303.884 332.27Z" fill="black" fill-opacity="0.7"/>
</g>
</g>
<defs>
<clipPath id="clip0_815_3851">
<rect width="484" height="24" fill="white" transform="translate(8 315.65)"/>
</clipPath>
<clipPath id="clip1_815_3851">
<rect width="140" height="24" fill="white" transform="translate(180 315.65)"/>
</clipPath>
</defs>
</svg>
