<svg width="444" height="364" viewBox="0 0 444 364" fill="none" xmlns="http://www.w3.org/2000/svg">
<g filter="url(#filter0_d_927_2892)">
<g clip-path="url(#clip0_927_2892)">
<rect x="7" y="6" width="429.975" height="350" rx="5.2436" fill="white"/>
<rect x="7" y="6" width="429.975" height="350" rx="5.2436" fill="white"/>
</g>
</g>
<line x1="62.3844" y1="38.3207" x2="415.672" y2="38.3207" stroke="#D3D6DF" stroke-width="0.65545" stroke-linecap="square" stroke-dasharray="1.31 1.31"/>
<line x1="62.3844" y1="81.5785" x2="415.672" y2="81.5785" stroke="#D3D6DF" stroke-width="0.65545" stroke-linecap="square" stroke-dasharray="1.31 1.31"/>
<line x1="62.3844" y1="124.84" x2="415.672" y2="124.84" stroke="#D3D6DF" stroke-width="0.65545" stroke-linecap="square" stroke-dasharray="1.31 1.31"/>
<line x1="62.3844" y1="168.098" x2="415.672" y2="168.098" stroke="#D3D6DF" stroke-width="0.65545" stroke-linecap="square" stroke-dasharray="1.31 1.31"/>
<line x1="62.3844" y1="211.36" x2="415.672" y2="211.36" stroke="#D3D6DF" stroke-width="0.65545" stroke-linecap="square" stroke-dasharray="1.31 1.31"/>
<line x1="62.3844" y1="254.618" x2="415.672" y2="254.618" stroke="#D3D6DF" stroke-width="0.65545" stroke-linecap="square" stroke-dasharray="1.31 1.31"/>
<line x1="62.3844" y1="297.879" x2="415.672" y2="297.879" stroke="#D3D6DF" stroke-width="0.65545" stroke-linecap="square" stroke-dasharray="1.31 1.31"/>
<line x1="66.318" y1="35.6988" x2="66.318" y2="299.845" stroke="#D3D6DF" stroke-width="0.65545" stroke-linecap="square" stroke-dasharray="1.31 1.31"/>
<line x1="95.1578" y1="35.6988" x2="95.1578" y2="299.845" stroke="#D3D6DF" stroke-width="0.65545" stroke-linecap="square" stroke-dasharray="1.31 1.31"/>
<line x1="123.998" y1="35.6988" x2="123.998" y2="299.845" stroke="#D3D6DF" stroke-width="0.65545" stroke-linecap="square" stroke-dasharray="1.31 1.31"/>
<line x1="152.837" y1="35.6988" x2="152.837" y2="299.845" stroke="#D3D6DF" stroke-width="0.65545" stroke-linecap="square" stroke-dasharray="1.31 1.31"/>
<line x1="181.677" y1="35.6988" x2="181.677" y2="299.845" stroke="#D3D6DF" stroke-width="0.65545" stroke-linecap="square" stroke-dasharray="1.31 1.31"/>
<line x1="210.517" y1="35.6988" x2="210.517" y2="299.845" stroke="#D3D6DF" stroke-width="0.65545" stroke-linecap="square" stroke-dasharray="1.31 1.31"/>
<line x1="239.357" y1="35.6988" x2="239.357" y2="299.845" stroke="#D3D6DF" stroke-width="0.65545" stroke-linecap="square" stroke-dasharray="1.31 1.31"/>
<line x1="268.197" y1="35.6988" x2="268.197" y2="299.845" stroke="#D3D6DF" stroke-width="0.65545" stroke-linecap="square" stroke-dasharray="1.31 1.31"/>
<line x1="297.037" y1="35.6988" x2="297.037" y2="299.845" stroke="#D3D6DF" stroke-width="0.65545" stroke-linecap="square" stroke-dasharray="1.31 1.31"/>
<line x1="325.877" y1="35.6988" x2="325.877" y2="299.845" stroke="#D3D6DF" stroke-width="0.65545" stroke-linecap="square" stroke-dasharray="1.31 1.31"/>
<line x1="354.716" y1="35.6988" x2="354.716" y2="299.845" stroke="#D3D6DF" stroke-width="0.65545" stroke-linecap="square" stroke-dasharray="1.31 1.31"/>
<line x1="383.556" y1="35.6988" x2="383.556" y2="299.845" stroke="#D3D6DF" stroke-width="0.65545" stroke-linecap="square" stroke-dasharray="1.31 1.31"/>
<line x1="412.396" y1="35.6988" x2="412.396" y2="299.845" stroke="#D3D6DF" stroke-width="0.65545" stroke-linecap="square" stroke-dasharray="1.31 1.31"/>
<path d="M49.2179 40.829C48.8893 40.829 48.5851 40.7626 48.3055 40.6297C48.0258 40.4969 47.7846 40.2976 47.5819 40.0319C47.3861 39.7593 47.2288 39.4237 47.1099 39.0252C46.9981 38.6197 46.9421 38.1547 46.9421 37.6304C46.9421 36.9452 47.0121 36.3649 47.1519 35.8895C47.2917 35.4141 47.477 35.0295 47.7077 34.7359C47.9454 34.4423 48.2146 34.229 48.5152 34.0962C48.8229 33.9564 49.141 33.8864 49.4696 33.8864C49.8191 33.8864 50.1198 33.9529 50.3715 34.0857C50.6301 34.2115 50.8504 34.3758 51.0322 34.5786L50.6022 35.061C50.4623 34.8932 50.2946 34.7639 50.0988 34.673C49.91 34.5751 49.7073 34.5262 49.4905 34.5262C49.1619 34.5262 48.8578 34.624 48.5781 34.8198C48.3055 35.0156 48.0852 35.3407 47.9175 35.7951C47.7497 36.2426 47.6658 36.8543 47.6658 37.6304C47.6658 38.1757 47.7252 38.6441 47.844 39.0357C47.9629 39.4202 48.1377 39.7138 48.3684 39.9166C48.5991 40.1193 48.8858 40.2207 49.2284 40.2207C49.4521 40.2207 49.6548 40.1578 49.8366 40.0319C50.0254 39.8991 50.1722 39.7173 50.2771 39.4866C50.3819 39.2559 50.4344 38.9937 50.4344 38.7001C50.4344 38.3994 50.3854 38.1373 50.2876 37.9135C50.1967 37.6898 50.0568 37.5185 49.8681 37.3997C49.6793 37.2738 49.4381 37.2109 49.1445 37.2109C48.9207 37.2109 48.676 37.2843 48.4104 37.4311C48.1447 37.5779 47.8895 37.8296 47.6448 38.1862L47.6238 37.557C47.8405 37.2703 48.0957 37.0431 48.3894 36.8753C48.683 36.7075 48.9767 36.6236 49.2703 36.6236C49.6548 36.6236 49.9869 36.704 50.2666 36.8648C50.5532 37.0186 50.7735 37.2493 50.9273 37.557C51.0811 37.8576 51.158 38.2386 51.158 38.7001C51.158 39.1196 51.0706 39.4901 50.8958 39.8117C50.721 40.1263 50.4868 40.3745 50.1932 40.5563C49.8995 40.7381 49.5744 40.829 49.2179 40.829ZM54.1698 40.829C53.5126 40.829 52.9952 40.5283 52.6177 39.9271C52.2471 39.3188 52.0619 38.4554 52.0619 37.3367C52.0619 36.2111 52.2471 35.3546 52.6177 34.7674C52.9952 34.1801 53.5126 33.8864 54.1698 33.8864C54.834 33.8864 55.3514 34.1836 55.7219 34.7779C56.0925 35.3651 56.2777 36.2181 56.2777 37.3367C56.2777 38.4554 56.0925 39.3188 55.7219 39.9271C55.3514 40.5283 54.834 40.829 54.1698 40.829ZM54.1698 40.2102C54.4425 40.2102 54.6802 40.1088 54.8829 39.9061C55.0927 39.7033 55.2535 39.3887 55.3653 38.9622C55.4772 38.5358 55.5331 37.9939 55.5331 37.3367C55.5331 36.6725 55.4772 36.1342 55.3653 35.7217C55.2535 35.3022 55.0927 34.9946 54.8829 34.7988C54.6802 34.6031 54.4425 34.5052 54.1698 34.5052C53.8971 34.5052 53.6594 34.6031 53.4567 34.7988C53.2539 34.9946 53.0931 35.3022 52.9743 35.7217C52.8624 36.1342 52.8065 36.6725 52.8065 37.3367C52.8065 37.9939 52.8624 38.5358 52.9743 38.9622C53.0931 39.3887 53.2539 39.7033 53.4567 39.9061C53.6594 40.1088 53.8971 40.2102 54.1698 40.2102ZM48.8613 82.829C48.5047 82.829 48.1901 82.787 47.9175 82.7031C47.6518 82.6122 47.4176 82.4969 47.2148 82.357C47.0191 82.2172 46.8443 82.0704 46.6905 81.9166L47.0785 81.4132C47.2812 81.609 47.5154 81.7872 47.7811 81.948C48.0538 82.1088 48.3929 82.1893 48.7984 82.1893C49.078 82.1893 49.3332 82.1228 49.5639 81.99C49.7947 81.8572 49.9764 81.6719 50.1093 81.4342C50.2421 81.1965 50.3085 80.9168 50.3085 80.5952C50.3085 80.1128 50.1757 79.7387 49.91 79.4731C49.6443 79.2004 49.2878 79.0641 48.8403 79.0641C48.6026 79.0641 48.3964 79.099 48.2216 79.1689C48.0538 79.2389 47.8685 79.3402 47.6658 79.4731L47.2463 79.2109L47.4665 76.0123H50.749V76.673H48.1377L47.9489 78.7599C48.1167 78.669 48.2845 78.5991 48.4523 78.5502C48.6201 78.4943 48.8089 78.4663 49.0186 78.4663C49.4031 78.4663 49.7492 78.5432 50.0568 78.697C50.3715 78.8438 50.6197 79.0711 50.8014 79.3787C50.9902 79.6863 51.0846 80.0813 51.0846 80.5637C51.0846 81.0461 50.9797 81.4586 50.77 81.8012C50.5602 82.1368 50.2841 82.392 49.9415 82.5668C49.6059 82.7416 49.2458 82.829 48.8613 82.829ZM54.1698 82.829C53.5126 82.829 52.9952 82.5283 52.6177 81.9271C52.2471 81.3188 52.0619 80.4554 52.0619 79.3367C52.0619 78.2111 52.2471 77.3546 52.6177 76.7674C52.9952 76.1801 53.5126 75.8864 54.1698 75.8864C54.834 75.8864 55.3514 76.1836 55.7219 76.7779C56.0925 77.3651 56.2777 78.2181 56.2777 79.3367C56.2777 80.4554 56.0925 81.3188 55.7219 81.9271C55.3514 82.5283 54.834 82.829 54.1698 82.829ZM54.1698 82.2102C54.4425 82.2102 54.6802 82.1088 54.8829 81.9061C55.0927 81.7033 55.2535 81.3887 55.3653 80.9622C55.4772 80.5358 55.5331 79.9939 55.5331 79.3367C55.5331 78.6725 55.4772 78.1342 55.3653 77.7217C55.2535 77.3022 55.0927 76.9946 54.8829 76.7988C54.6802 76.6031 54.4425 76.5052 54.1698 76.5052C53.8971 76.5052 53.6594 76.6031 53.4567 76.7988C53.2539 76.9946 53.0931 77.3022 52.9743 77.7217C52.8624 78.1342 52.8065 78.6725 52.8065 79.3367C52.8065 79.9939 52.8624 80.5358 52.9743 80.9622C53.0931 81.3887 53.2539 81.7033 53.4567 81.9061C53.6594 82.1088 53.8971 82.2102 54.1698 82.2102ZM49.6269 124.703V120.131C49.6269 119.956 49.6339 119.746 49.6478 119.501C49.6618 119.257 49.6723 119.047 49.6793 118.872H49.6374C49.5535 119.026 49.4661 119.176 49.3752 119.323C49.2843 119.47 49.1899 119.627 49.092 119.795L47.4246 122.207H51.2838V122.815H46.6066V122.323L49.5325 118.012H50.3505V124.703H49.6269ZM54.1698 124.829C53.5126 124.829 52.9952 124.528 52.6177 123.927C52.2471 123.319 52.0619 122.455 52.0619 121.337C52.0619 120.211 52.2471 119.355 52.6177 118.767C52.9952 118.18 53.5126 117.886 54.1698 117.886C54.834 117.886 55.3514 118.184 55.7219 118.778C56.0925 119.365 56.2777 120.218 56.2777 121.337C56.2777 122.455 56.0925 123.319 55.7219 123.927C55.3514 124.528 54.834 124.829 54.1698 124.829ZM54.1698 124.21C54.4425 124.21 54.6802 124.109 54.8829 123.906C55.0927 123.703 55.2535 123.389 55.3653 122.962C55.4772 122.536 55.5331 121.994 55.5331 121.337C55.5331 120.673 55.4772 120.134 55.3653 119.722C55.2535 119.302 55.0927 118.995 54.8829 118.799C54.6802 118.603 54.4425 118.505 54.1698 118.505C53.8971 118.505 53.6594 118.603 53.4567 118.799C53.2539 118.995 53.0931 119.302 52.9743 119.722C52.8624 120.134 52.8065 120.673 52.8065 121.337C52.8065 121.994 52.8624 122.536 52.9743 122.962C53.0931 123.389 53.2539 123.703 53.4567 123.906C53.6594 124.109 53.8971 124.21 54.1698 124.21ZM48.8928 166.829C48.5362 166.829 48.2216 166.784 47.9489 166.693C47.6762 166.602 47.4385 166.486 47.2358 166.347C47.033 166.2 46.8582 166.046 46.7114 165.885L47.0995 165.382C47.3022 165.591 47.5399 165.78 47.8126 165.948C48.0922 166.109 48.4383 166.189 48.8508 166.189C49.2703 166.189 49.6129 166.074 49.8786 165.843C50.1512 165.605 50.2876 165.291 50.2876 164.899C50.2876 164.627 50.2142 164.385 50.0673 164.176C49.9275 163.966 49.6968 163.805 49.3752 163.693C49.0606 163.574 48.6341 163.515 48.0957 163.515V162.917C48.5781 162.917 48.9592 162.861 49.2388 162.749C49.5255 162.631 49.7317 162.473 49.8576 162.278C49.9834 162.082 50.0464 161.862 50.0464 161.617C50.0464 161.281 49.938 161.016 49.7213 160.82C49.5045 160.617 49.2109 160.516 48.8403 160.516C48.5537 160.516 48.288 160.582 48.0433 160.715C47.7986 160.841 47.5784 161.005 47.3826 161.208L46.9631 160.715C47.2218 160.477 47.505 160.281 47.8126 160.128C48.1202 159.967 48.4698 159.886 48.8613 159.886C49.2388 159.886 49.5744 159.953 49.8681 160.086C50.1617 160.219 50.3924 160.411 50.5602 160.662C50.735 160.907 50.8224 161.208 50.8224 161.564C50.8224 161.977 50.7071 162.316 50.4763 162.582C50.2526 162.84 49.9555 163.036 49.5849 163.169V163.211C49.8576 163.274 50.1058 163.382 50.3295 163.536C50.5532 163.683 50.7315 163.875 50.8644 164.113C50.9972 164.344 51.0636 164.613 51.0636 164.92C51.0636 165.319 50.9657 165.661 50.77 165.948C50.5742 166.228 50.312 166.444 49.9834 166.598C49.6548 166.752 49.2913 166.829 48.8928 166.829ZM54.1698 166.829C53.5126 166.829 52.9952 166.528 52.6177 165.927C52.2471 165.319 52.0619 164.455 52.0619 163.337C52.0619 162.211 52.2471 161.355 52.6177 160.767C52.9952 160.18 53.5126 159.886 54.1698 159.886C54.834 159.886 55.3514 160.184 55.7219 160.778C56.0925 161.365 56.2777 162.218 56.2777 163.337C56.2777 164.455 56.0925 165.319 55.7219 165.927C55.3514 166.528 54.834 166.829 54.1698 166.829ZM54.1698 166.21C54.4425 166.21 54.6802 166.109 54.8829 165.906C55.0927 165.703 55.2535 165.389 55.3653 164.962C55.4772 164.536 55.5331 163.994 55.5331 163.337C55.5331 162.673 55.4772 162.134 55.3653 161.722C55.2535 161.302 55.0927 160.995 54.8829 160.799C54.6802 160.603 54.4425 160.505 54.1698 160.505C53.8971 160.505 53.6594 160.603 53.4567 160.799C53.2539 160.995 53.0931 161.302 52.9743 161.722C52.8624 162.134 52.8065 162.673 52.8065 163.337C52.8065 163.994 52.8624 164.536 52.9743 164.962C53.0931 165.389 53.2539 165.703 53.4567 165.906C53.6594 166.109 53.8971 166.21 54.1698 166.21ZM46.8478 208.703V208.252C47.5329 207.56 48.1132 206.955 48.5886 206.438C49.0641 205.914 49.4241 205.445 49.6688 205.033C49.9135 204.62 50.0359 204.229 50.0359 203.858C50.0359 203.467 49.9275 203.145 49.7108 202.893C49.501 202.642 49.1689 202.516 48.7145 202.516C48.4348 202.516 48.1691 202.593 47.9175 202.746C47.6728 202.9 47.4525 203.096 47.2568 203.334L46.8058 202.893C47.0855 202.593 47.3826 202.351 47.6972 202.17C48.0118 201.981 48.3824 201.886 48.8089 201.886C49.2144 201.886 49.5639 201.967 49.8576 202.128C50.1582 202.288 50.3889 202.516 50.5497 202.809C50.7105 203.096 50.7909 203.435 50.7909 203.827C50.7909 204.253 50.6686 204.683 50.4239 205.117C50.1862 205.55 49.8541 206.011 49.4276 206.501C49.0081 206.983 48.5222 207.515 47.9699 208.095C48.1517 208.081 48.3404 208.07 48.5362 208.063C48.732 208.049 48.9172 208.042 49.092 208.042H51.1161V208.703H46.8478ZM54.1698 208.829C53.5126 208.829 52.9952 208.528 52.6177 207.927C52.2471 207.319 52.0619 206.455 52.0619 205.337C52.0619 204.211 52.2471 203.355 52.6177 202.767C52.9952 202.18 53.5126 201.886 54.1698 201.886C54.834 201.886 55.3514 202.184 55.7219 202.778C56.0925 203.365 56.2777 204.218 56.2777 205.337C56.2777 206.455 56.0925 207.319 55.7219 207.927C55.3514 208.528 54.834 208.829 54.1698 208.829ZM54.1698 208.21C54.4425 208.21 54.6802 208.109 54.8829 207.906C55.0927 207.703 55.2535 207.389 55.3653 206.962C55.4772 206.536 55.5331 205.994 55.5331 205.337C55.5331 204.673 55.4772 204.134 55.3653 203.722C55.2535 203.302 55.0927 202.995 54.8829 202.799C54.6802 202.603 54.4425 202.505 54.1698 202.505C53.8971 202.505 53.6594 202.603 53.4567 202.799C53.2539 202.995 53.0931 203.302 52.9743 203.722C52.8624 204.134 52.8065 204.673 52.8065 205.337C52.8065 205.994 52.8624 206.536 52.9743 206.962C53.0931 207.389 53.2539 207.703 53.4567 207.906C53.6594 208.109 53.8971 208.21 54.1698 208.21ZM47.3723 250.703V250.063H48.9139V244.977H47.6974V244.484C47.998 244.435 48.2602 244.372 48.4839 244.295C48.7077 244.212 48.9104 244.117 49.0922 244.012H49.6795V250.063H51.0743V250.703H47.3723ZM54.1698 250.829C53.5126 250.829 52.9952 250.528 52.6177 249.927C52.2471 249.319 52.0619 248.455 52.0619 247.337C52.0619 246.211 52.2471 245.355 52.6177 244.767C52.9952 244.18 53.5126 243.886 54.1698 243.886C54.834 243.886 55.3514 244.184 55.7219 244.778C56.0925 245.365 56.2777 246.218 56.2777 247.337C56.2777 248.455 56.0925 249.319 55.7219 249.927C55.3514 250.528 54.834 250.829 54.1698 250.829ZM54.1698 250.21C54.4425 250.21 54.6802 250.109 54.8829 249.906C55.0927 249.703 55.2535 249.389 55.3653 248.962C55.4772 248.536 55.5331 247.994 55.5331 247.337C55.5331 246.673 55.4772 246.134 55.3653 245.722C55.2535 245.302 55.0927 244.995 54.8829 244.799C54.6802 244.603 54.4425 244.505 54.1698 244.505C53.8971 244.505 53.6594 244.603 53.4567 244.799C53.2539 244.995 53.0931 245.302 52.9743 245.722C52.8624 246.134 52.8065 246.673 52.8065 247.337C52.8065 247.994 52.8624 248.536 52.9743 248.962C53.0931 249.389 53.2539 249.703 53.4567 249.906C53.6594 250.109 53.8971 250.21 54.1698 250.21ZM54.1698 292.829C53.5126 292.829 52.9952 292.528 52.6177 291.927C52.2471 291.319 52.0619 290.455 52.0619 289.337C52.0619 288.211 52.2471 287.355 52.6177 286.767C52.9952 286.18 53.5126 285.886 54.1698 285.886C54.834 285.886 55.3514 286.184 55.7219 286.778C56.0925 287.365 56.2777 288.218 56.2777 289.337C56.2777 290.455 56.0925 291.319 55.7219 291.927C55.3514 292.528 54.834 292.829 54.1698 292.829ZM54.1698 292.21C54.4425 292.21 54.6802 292.109 54.8829 291.906C55.0927 291.703 55.2535 291.389 55.3653 290.962C55.4772 290.536 55.5331 289.994 55.5331 289.337C55.5331 288.673 55.4772 288.134 55.3653 287.722C55.2535 287.302 55.0927 286.995 54.8829 286.799C54.6802 286.603 54.4425 286.505 54.1698 286.505C53.8971 286.505 53.6594 286.603 53.4567 286.799C53.2539 286.995 53.0931 287.302 52.9743 287.722C52.8624 288.134 52.8065 288.673 52.8065 289.337C52.8065 289.994 52.8624 290.536 52.9743 290.962C53.0931 291.389 53.2539 291.703 53.4567 291.906C53.6594 292.109 53.8971 292.21 54.1698 292.21Z" fill="#222539"/>
<path d="M32.7305 178.33H26.5011V180.448H25.8404V175.446H26.5011V177.554H32.7305V178.33ZM32.7305 174.259H27.6442V173.504H32.7305V174.259ZM26.5535 173.871C26.5535 174.017 26.5046 174.143 26.4067 174.248C26.3088 174.346 26.1795 174.395 26.0187 174.395C25.8648 174.395 25.7425 174.346 25.6516 174.248C25.5537 174.143 25.5048 174.017 25.5048 173.871C25.5048 173.717 25.5537 173.591 25.6516 173.493C25.7425 173.395 25.8648 173.346 26.0187 173.346C26.1795 173.346 26.3088 173.395 26.4067 173.493C26.5046 173.591 26.5535 173.717 26.5535 173.871ZM32.8563 170.177C32.8563 170.702 32.7025 171.069 32.3949 171.278C32.0873 171.481 31.6887 171.582 31.1993 171.582H28.2734V172.348H27.6966L27.6442 171.551L26.2074 171.457V170.817H27.6442V169.422H28.2734V170.817H31.2203C31.5349 170.817 31.7831 170.761 31.9649 170.649C32.1397 170.53 32.2271 170.317 32.2271 170.009C32.2271 169.919 32.2131 169.821 32.1851 169.716C32.1572 169.604 32.1257 169.506 32.0907 169.422L32.6675 169.265C32.7165 169.405 32.7584 169.555 32.7934 169.716C32.8353 169.877 32.8563 170.03 32.8563 170.177ZM32.8563 167.418C32.8563 167.607 32.8144 167.765 32.7305 167.89C32.6536 168.016 32.5382 168.107 32.3844 168.163C32.2236 168.219 32.0278 168.247 31.7971 168.247H25.2426V167.492H31.86C31.9859 167.492 32.0768 167.467 32.1327 167.418C32.1886 167.37 32.2166 167.314 32.2166 167.251C32.2166 167.23 32.2166 167.205 32.2166 167.177C32.2096 167.149 32.2026 167.111 32.1956 167.062L32.7829 166.957C32.7969 167.013 32.8109 167.079 32.8249 167.156C32.8458 167.226 32.8563 167.314 32.8563 167.418ZM32.8563 163.612C32.8563 164.052 32.7514 164.458 32.5417 164.828C32.325 165.192 32.0208 165.482 31.6293 165.699C31.2308 165.915 30.7519 166.024 30.1926 166.024C29.6402 166.024 29.1648 165.915 28.7663 165.699C28.3678 165.482 28.0602 165.202 27.8434 164.86C27.6267 164.51 27.5183 164.139 27.5183 163.748C27.5183 163.328 27.6162 162.968 27.812 162.668C28.0077 162.367 28.2839 162.14 28.6405 161.986C28.99 161.825 29.4095 161.745 29.8989 161.745C29.9828 161.745 30.0667 161.748 30.1506 161.755C30.2275 161.755 30.2974 161.762 30.3604 161.776V165.426L29.8045 165.436V162.427C29.2592 162.427 28.8467 162.542 28.567 162.773C28.2804 163.003 28.1371 163.325 28.1371 163.737C28.1371 163.989 28.2105 164.234 28.3573 164.472C28.5041 164.709 28.7279 164.905 29.0285 165.059C29.3291 165.213 29.7171 165.29 30.1926 165.29C30.647 165.29 31.0245 165.209 31.3252 165.048C31.6258 164.888 31.853 164.674 32.0069 164.409C32.1607 164.136 32.2376 163.839 32.2376 163.517C32.2376 163.259 32.1991 163.028 32.1222 162.825C32.0453 162.615 31.9474 162.416 31.8286 162.227L32.332 161.944C32.4718 162.161 32.5941 162.406 32.699 162.678C32.8039 162.944 32.8563 163.255 32.8563 163.612Z" fill="#3F4252"/>
<path d="M145.383 336.734V330.505H143.264V329.844H148.267V330.505H146.159V336.734H145.383ZM149.454 336.734V331.648H150.209V336.734H149.454ZM149.842 330.557C149.695 330.557 149.569 330.508 149.464 330.411C149.366 330.313 149.317 330.183 149.317 330.023C149.317 329.869 149.366 329.746 149.464 329.656C149.569 329.558 149.695 329.509 149.842 329.509C149.996 329.509 150.121 329.558 150.219 329.656C150.317 329.746 150.366 329.869 150.366 330.023C150.366 330.183 150.317 330.313 150.219 330.411C150.121 330.508 149.996 330.557 149.842 330.557ZM153.535 336.86C153.011 336.86 152.644 336.706 152.434 336.399C152.231 336.091 152.13 335.693 152.13 335.203V332.277H151.364V331.701L152.161 331.648L152.256 330.211H152.895V331.648H154.29V332.277H152.895V335.224C152.895 335.539 152.951 335.787 153.063 335.969C153.182 336.144 153.395 336.231 153.703 336.231C153.794 336.231 153.892 336.217 153.997 336.189C154.108 336.161 154.206 336.13 154.29 336.095L154.448 336.671C154.308 336.72 154.157 336.762 153.997 336.797C153.836 336.839 153.682 336.86 153.535 336.86ZM156.294 336.86C156.105 336.86 155.948 336.818 155.822 336.734C155.696 336.657 155.605 336.542 155.549 336.388C155.493 336.227 155.465 336.032 155.465 335.801V329.247H156.22V335.864C156.22 335.99 156.245 336.081 156.294 336.137C156.343 336.193 156.399 336.221 156.462 336.221C156.483 336.221 156.507 336.221 156.535 336.221C156.563 336.214 156.602 336.207 156.65 336.2L156.755 336.787C156.699 336.801 156.633 336.815 156.556 336.829C156.486 336.85 156.399 336.86 156.294 336.86ZM160.101 336.86C159.66 336.86 159.255 336.755 158.884 336.546C158.521 336.329 158.231 336.025 158.014 335.633C157.797 335.235 157.689 334.756 157.689 334.196C157.689 333.644 157.797 333.169 158.014 332.77C158.231 332.372 158.51 332.064 158.853 331.847C159.202 331.631 159.573 331.522 159.964 331.522C160.384 331.522 160.744 331.62 161.045 331.816C161.345 332.012 161.572 332.288 161.726 332.644C161.887 332.994 161.967 333.413 161.967 333.903C161.967 333.987 161.964 334.071 161.957 334.155C161.957 334.231 161.95 334.301 161.936 334.364H158.286L158.276 333.808H161.286C161.286 333.263 161.17 332.851 160.94 332.571C160.709 332.284 160.387 332.141 159.975 332.141C159.723 332.141 159.479 332.214 159.241 332.361C159.003 332.508 158.807 332.732 158.654 333.032C158.5 333.333 158.423 333.721 158.423 334.196C158.423 334.651 158.503 335.028 158.664 335.329C158.825 335.63 159.038 335.857 159.304 336.011C159.576 336.165 159.874 336.241 160.195 336.241C160.454 336.241 160.685 336.203 160.887 336.126C161.097 336.049 161.296 335.951 161.485 335.832L161.768 336.336C161.551 336.476 161.307 336.598 161.034 336.703C160.768 336.808 160.457 336.86 160.101 336.86ZM166.712 338.58C166.285 337.874 165.946 337.136 165.694 336.367C165.45 335.591 165.327 334.742 165.327 333.819C165.327 332.896 165.45 332.047 165.694 331.271C165.946 330.494 166.285 329.757 166.712 329.058L167.184 329.288C166.778 329.953 166.474 330.673 166.271 331.449C166.068 332.225 165.967 333.015 165.967 333.819C165.967 334.623 166.068 335.413 166.271 336.189C166.474 336.958 166.778 337.678 167.184 338.349L166.712 338.58ZM169.93 336.86C169.406 336.86 169.018 336.692 168.766 336.357C168.514 336.021 168.388 335.528 168.388 334.878V331.648H169.143V334.784C169.143 335.273 169.224 335.633 169.385 335.864C169.545 336.088 169.804 336.2 170.161 336.2C170.426 336.2 170.668 336.13 170.884 335.99C171.101 335.843 171.335 335.612 171.587 335.298V331.648H172.353V336.734H171.713L171.65 335.927H171.618C171.381 336.207 171.129 336.434 170.863 336.609C170.598 336.776 170.287 336.86 169.93 336.86ZM175.426 336.86C175.062 336.86 174.716 336.794 174.387 336.661C174.059 336.521 173.776 336.353 173.538 336.158L173.926 335.644C174.15 335.818 174.38 335.965 174.618 336.084C174.856 336.203 175.136 336.262 175.457 336.262C175.807 336.262 176.069 336.179 176.244 336.011C176.418 335.843 176.506 335.644 176.506 335.413C176.506 335.231 176.446 335.081 176.328 334.962C176.209 334.836 176.058 334.731 175.877 334.647C175.695 334.557 175.51 334.476 175.321 334.406C175.083 334.322 174.845 334.221 174.608 334.102C174.37 333.983 174.171 333.833 174.01 333.651C173.856 333.469 173.779 333.235 173.779 332.948C173.779 332.55 173.93 332.214 174.23 331.942C174.538 331.662 174.964 331.522 175.51 331.522C175.817 331.522 176.104 331.578 176.37 331.69C176.635 331.802 176.862 331.935 177.051 332.089L176.684 332.581C176.509 332.456 176.328 332.351 176.139 332.267C175.957 332.176 175.747 332.13 175.51 332.13C175.174 332.13 174.926 332.211 174.765 332.372C174.604 332.526 174.524 332.704 174.524 332.907C174.524 333.074 174.576 333.214 174.681 333.326C174.793 333.431 174.936 333.522 175.111 333.599C175.286 333.676 175.471 333.753 175.667 333.829C175.919 333.92 176.163 334.025 176.401 334.144C176.646 334.256 176.848 334.406 177.009 334.595C177.17 334.784 177.25 335.042 177.25 335.371C177.25 335.637 177.181 335.885 177.041 336.116C176.901 336.339 176.695 336.521 176.422 336.661C176.149 336.794 175.817 336.86 175.426 336.86ZM179.956 336.86C179.432 336.86 179.044 336.692 178.792 336.357C178.541 336.021 178.415 335.528 178.415 334.878V331.648H179.17V334.784C179.17 335.273 179.25 335.633 179.411 335.864C179.572 336.088 179.83 336.2 180.187 336.2C180.453 336.2 180.694 336.13 180.911 335.99C181.127 335.843 181.362 335.612 181.613 335.298V331.648H182.379V336.734H181.739L181.676 335.927H181.645C181.407 336.207 181.155 336.434 180.89 336.609C180.624 336.776 180.313 336.86 179.956 336.86ZM185.305 336.86C185.026 336.86 184.774 336.804 184.55 336.692C184.326 336.581 184.148 336.42 184.015 336.21C183.882 335.993 183.816 335.731 183.816 335.423C183.816 334.871 184.068 334.448 184.571 334.155C185.081 333.854 185.885 333.644 186.983 333.525C186.983 333.295 186.952 333.074 186.889 332.865C186.833 332.655 186.724 332.487 186.564 332.361C186.41 332.228 186.186 332.162 185.892 332.162C185.585 332.162 185.298 332.221 185.033 332.34C184.774 332.459 184.547 332.585 184.351 332.718L184.047 332.193C184.194 332.096 184.368 331.994 184.571 331.889C184.774 331.784 184.998 331.697 185.242 331.627C185.487 331.557 185.746 331.522 186.018 331.522C186.431 331.522 186.763 331.61 187.015 331.784C187.266 331.959 187.448 332.2 187.56 332.508C187.679 332.816 187.738 333.176 187.738 333.588V336.734H187.109L187.046 336.116H187.015C186.77 336.318 186.504 336.493 186.218 336.64C185.931 336.787 185.627 336.86 185.305 336.86ZM185.504 336.241C185.77 336.241 186.015 336.182 186.239 336.063C186.469 335.937 186.717 335.759 186.983 335.528V334.039C186.382 334.109 185.906 334.207 185.557 334.333C185.207 334.452 184.956 334.598 184.802 334.773C184.648 334.948 184.571 335.151 184.571 335.382C184.571 335.682 184.662 335.902 184.844 336.042C185.033 336.175 185.253 336.241 185.504 336.241ZM190.234 336.86C190.045 336.86 189.888 336.818 189.762 336.734C189.636 336.657 189.545 336.542 189.489 336.388C189.433 336.227 189.405 336.032 189.405 335.801V329.247H190.161V335.864C190.161 335.99 190.185 336.081 190.234 336.137C190.283 336.193 190.339 336.221 190.402 336.221C190.423 336.221 190.447 336.221 190.475 336.221C190.503 336.214 190.542 336.207 190.591 336.2L190.695 336.787C190.639 336.801 190.573 336.815 190.496 336.829C190.426 336.85 190.339 336.86 190.234 336.86ZM192.856 336.86C192.667 336.86 192.51 336.818 192.384 336.734C192.258 336.657 192.167 336.542 192.111 336.388C192.055 336.227 192.027 336.032 192.027 335.801V329.247H192.782V335.864C192.782 335.99 192.807 336.081 192.856 336.137C192.905 336.193 192.961 336.221 193.024 336.221C193.045 336.221 193.069 336.221 193.097 336.221C193.125 336.214 193.163 336.207 193.212 336.2L193.317 336.787C193.261 336.801 193.195 336.815 193.118 336.829C193.048 336.85 192.961 336.86 192.856 336.86ZM194.66 338.958C194.548 338.958 194.443 338.947 194.345 338.926C194.247 338.905 194.16 338.881 194.083 338.853L194.23 338.234C194.286 338.255 194.348 338.272 194.418 338.286C194.495 338.307 194.565 338.318 194.628 338.318C194.922 338.318 195.166 338.206 195.362 337.982C195.558 337.766 195.708 337.489 195.813 337.154L195.939 336.766L193.883 331.648H194.67L195.761 334.564C195.845 334.78 195.928 335.014 196.012 335.266C196.103 335.511 196.187 335.752 196.264 335.99H196.306C196.383 335.759 196.46 335.521 196.537 335.277C196.614 335.025 196.684 334.787 196.746 334.564L197.701 331.648H198.445L196.516 337.206C196.397 337.528 196.257 337.822 196.096 338.087C195.935 338.353 195.736 338.563 195.499 338.716C195.268 338.877 194.988 338.958 194.66 338.958ZM201.101 334.406V333.808H203.481V334.406H201.101ZM208.429 336.86C207.905 336.86 207.538 336.706 207.328 336.399C207.125 336.091 207.024 335.693 207.024 335.203V332.277H206.258V331.701L207.055 331.648L207.15 330.211H207.789V331.648H209.184V332.277H207.789V335.224C207.789 335.539 207.845 335.787 207.957 335.969C208.076 336.144 208.289 336.231 208.597 336.231C208.688 336.231 208.786 336.217 208.891 336.189C209.002 336.161 209.1 336.13 209.184 336.095L209.342 336.671C209.202 336.72 209.051 336.762 208.891 336.797C208.73 336.839 208.576 336.86 208.429 336.86ZM210.359 336.734V331.648H211.114V336.734H210.359ZM210.747 330.557C210.601 330.557 210.475 330.508 210.37 330.411C210.272 330.313 210.223 330.183 210.223 330.023C210.223 329.869 210.272 329.746 210.37 329.656C210.475 329.558 210.601 329.509 210.747 329.509C210.901 329.509 211.027 329.558 211.125 329.656C211.223 329.746 211.272 329.869 211.272 330.023C211.272 330.183 211.223 330.313 211.125 330.411C211.027 330.508 210.901 330.557 210.747 330.557ZM212.899 336.734V331.648H213.528L213.591 332.403H213.623C213.847 332.158 214.091 331.952 214.357 331.784C214.63 331.61 214.913 331.522 215.206 331.522C215.605 331.522 215.913 331.613 216.129 331.795C216.353 331.97 216.514 332.207 216.612 332.508C216.884 332.214 217.157 331.977 217.43 331.795C217.709 331.613 218 331.522 218.3 331.522C218.825 331.522 219.213 331.69 219.464 332.026C219.716 332.361 219.842 332.854 219.842 333.504V336.734H219.076V333.599C219.076 333.109 218.996 332.753 218.835 332.529C218.674 332.305 218.423 332.193 218.08 332.193C217.877 332.193 217.664 332.263 217.44 332.403C217.223 332.536 216.993 332.739 216.748 333.011V336.734H215.982V333.599C215.982 333.109 215.902 332.753 215.741 332.529C215.587 332.305 215.339 332.193 214.997 332.193C214.591 332.193 214.144 332.466 213.654 333.011V336.734H212.899ZM223.567 336.86C223.126 336.86 222.721 336.755 222.35 336.546C221.987 336.329 221.697 336.025 221.48 335.633C221.263 335.235 221.155 334.756 221.155 334.196C221.155 333.644 221.263 333.169 221.48 332.77C221.697 332.372 221.976 332.064 222.319 331.847C222.668 331.631 223.039 331.522 223.43 331.522C223.85 331.522 224.21 331.62 224.511 331.816C224.811 332.012 225.038 332.288 225.192 332.644C225.353 332.994 225.434 333.413 225.434 333.903C225.434 333.987 225.43 334.071 225.423 334.155C225.423 334.231 225.416 334.301 225.402 334.364H221.753L221.742 333.808H224.752C224.752 333.263 224.636 332.851 224.406 332.571C224.175 332.284 223.853 332.141 223.441 332.141C223.189 332.141 222.945 332.214 222.707 332.361C222.469 332.508 222.273 332.732 222.12 333.032C221.966 333.333 221.889 333.721 221.889 334.196C221.889 334.651 221.969 335.028 222.13 335.329C222.291 335.63 222.504 335.857 222.77 336.011C223.042 336.165 223.34 336.241 223.661 336.241C223.92 336.241 224.151 336.203 224.353 336.126C224.563 336.049 224.762 335.951 224.951 335.832L225.234 336.336C225.018 336.476 224.773 336.598 224.5 336.703C224.234 336.808 223.923 336.86 223.567 336.86ZM226.516 338.475L226.316 338.014C226.603 337.888 226.827 337.713 226.988 337.489C227.148 337.266 227.229 337.007 227.229 336.713L227.124 335.979L227.533 336.577C227.484 336.647 227.421 336.696 227.344 336.724C227.274 336.745 227.201 336.755 227.124 336.755C226.963 336.755 226.823 336.706 226.704 336.609C226.593 336.511 226.537 336.371 226.537 336.189C226.537 336.014 226.596 335.878 226.715 335.78C226.841 335.682 226.981 335.633 227.134 335.633C227.351 335.633 227.519 335.717 227.638 335.885C227.757 336.053 227.816 336.283 227.816 336.577C227.816 337.011 227.697 337.392 227.46 337.72C227.229 338.049 226.914 338.3 226.516 338.475ZM233.368 336.86C232.927 336.86 232.522 336.755 232.151 336.546C231.788 336.329 231.498 336.025 231.281 335.633C231.064 335.235 230.956 334.756 230.956 334.196C230.956 333.644 231.064 333.169 231.281 332.77C231.498 332.372 231.777 332.064 232.12 331.847C232.469 331.631 232.84 331.522 233.231 331.522C233.651 331.522 234.011 331.62 234.312 331.816C234.612 332.012 234.84 332.288 234.993 332.644C235.154 332.994 235.235 333.413 235.235 333.903C235.235 333.987 235.231 334.071 235.224 334.155C235.224 334.231 235.217 334.301 235.203 334.364H231.554L231.543 333.808H234.553C234.553 333.263 234.438 332.851 234.207 332.571C233.976 332.284 233.654 332.141 233.242 332.141C232.99 332.141 232.746 332.214 232.508 332.361C232.27 332.508 232.074 332.732 231.921 333.032C231.767 333.333 231.69 333.721 231.69 334.196C231.69 334.651 231.77 335.028 231.931 335.329C232.092 335.63 232.305 335.857 232.571 336.011C232.843 336.165 233.141 336.241 233.462 336.241C233.721 336.241 233.952 336.203 234.154 336.126C234.364 336.049 234.563 335.951 234.752 335.832L235.035 336.336C234.819 336.476 234.574 336.598 234.301 336.703C234.036 336.808 233.724 336.86 233.368 336.86ZM236.893 336.86C236.74 336.86 236.603 336.804 236.484 336.692C236.373 336.581 236.317 336.434 236.317 336.252C236.317 336.063 236.373 335.913 236.484 335.801C236.603 335.689 236.74 335.633 236.893 335.633C237.054 335.633 237.191 335.689 237.302 335.801C237.414 335.913 237.47 336.063 237.47 336.252C237.47 336.434 237.414 336.581 237.302 336.692C237.191 336.804 237.054 336.86 236.893 336.86ZM240.755 339.104C240.335 339.104 239.968 339.049 239.654 338.937C239.339 338.825 239.094 338.668 238.919 338.465C238.745 338.262 238.657 338.017 238.657 337.731C238.657 337.507 238.724 337.294 238.857 337.091C238.989 336.888 239.171 336.71 239.402 336.556V336.514C239.276 336.43 239.168 336.322 239.077 336.189C238.993 336.049 238.951 335.881 238.951 335.686C238.951 335.469 239.01 335.28 239.129 335.119C239.255 334.959 239.381 334.833 239.507 334.742V334.7C239.346 334.567 239.196 334.382 239.056 334.144C238.923 333.906 238.857 333.637 238.857 333.337C238.857 332.966 238.94 332.648 239.108 332.382C239.283 332.11 239.51 331.9 239.79 331.753C240.077 331.599 240.391 331.522 240.734 331.522C240.874 331.522 241.003 331.536 241.122 331.564C241.248 331.585 241.353 331.613 241.436 331.648H243.198V332.246H242.118C242.251 332.372 242.359 332.529 242.443 332.718C242.527 332.907 242.569 333.116 242.569 333.347C242.569 333.711 242.485 334.025 242.317 334.291C242.157 334.557 241.936 334.763 241.657 334.91C241.384 335.049 241.076 335.119 240.734 335.119C240.608 335.119 240.475 335.105 240.335 335.077C240.202 335.042 240.077 334.997 239.958 334.941C239.86 335.018 239.776 335.105 239.706 335.203C239.643 335.301 239.612 335.423 239.612 335.57C239.612 335.738 239.675 335.878 239.8 335.99C239.933 336.095 240.171 336.147 240.514 336.147H241.531C242.118 336.147 242.555 336.245 242.842 336.441C243.135 336.63 243.282 336.934 243.282 337.353C243.282 337.661 243.177 337.947 242.968 338.213C242.765 338.479 242.475 338.692 242.097 338.853C241.72 339.021 241.272 339.104 240.755 339.104ZM240.86 338.559C241.195 338.559 241.485 338.507 241.73 338.402C241.982 338.297 242.178 338.161 242.317 337.993C242.457 337.825 242.527 337.647 242.527 337.458C242.527 337.213 242.436 337.042 242.254 336.944C242.08 336.846 241.817 336.797 241.468 336.797H240.535C240.458 336.797 240.36 336.79 240.241 336.776C240.129 336.762 240.01 336.741 239.884 336.713C239.689 336.853 239.545 337 239.454 337.154C239.37 337.315 239.328 337.472 239.328 337.626C239.328 337.912 239.465 338.14 239.737 338.307C240.01 338.475 240.384 338.559 240.86 338.559ZM240.734 334.595C240.937 334.595 241.122 334.543 241.29 334.438C241.464 334.333 241.604 334.186 241.709 333.997C241.814 333.808 241.866 333.588 241.866 333.337C241.866 333.078 241.814 332.858 241.709 332.676C241.611 332.487 241.475 332.344 241.3 332.246C241.132 332.141 240.944 332.089 240.734 332.089C240.419 332.089 240.15 332.2 239.926 332.424C239.703 332.641 239.591 332.945 239.591 333.337C239.591 333.588 239.643 333.808 239.748 333.997C239.853 334.186 239.993 334.333 240.167 334.438C240.342 334.543 240.531 334.595 240.734 334.595ZM244.677 336.86C244.523 336.86 244.387 336.804 244.268 336.692C244.156 336.581 244.1 336.434 244.1 336.252C244.1 336.063 244.156 335.913 244.268 335.801C244.387 335.689 244.523 335.633 244.677 335.633C244.838 335.633 244.974 335.689 245.086 335.801C245.198 335.913 245.254 336.063 245.254 336.252C245.254 336.434 245.198 336.581 245.086 336.692C244.974 336.804 244.838 336.86 244.677 336.86ZM250.648 336.86C250.012 336.86 249.505 336.63 249.128 336.168C248.75 335.7 248.561 335.042 248.561 334.196C248.561 333.651 248.663 333.179 248.865 332.781C249.075 332.382 249.348 332.075 249.683 331.858C250.019 331.634 250.383 331.522 250.774 331.522C251.075 331.522 251.333 331.575 251.55 331.68C251.767 331.784 251.991 331.931 252.221 332.12L252.19 331.239V329.247H252.945V336.734H252.316L252.253 336.116H252.221C252.026 336.318 251.791 336.493 251.519 336.64C251.253 336.787 250.963 336.86 250.648 336.86ZM250.816 336.21C251.061 336.21 251.295 336.151 251.519 336.032C251.742 335.906 251.966 335.724 252.19 335.486V332.728C251.959 332.526 251.739 332.382 251.529 332.298C251.319 332.214 251.106 332.172 250.889 332.172C250.603 332.172 250.341 332.26 250.103 332.435C249.872 332.602 249.687 332.84 249.547 333.148C249.414 333.448 249.348 333.798 249.348 334.196C249.348 334.819 249.474 335.312 249.725 335.675C249.984 336.032 250.348 336.21 250.816 336.21ZM255.879 336.86C255.599 336.86 255.347 336.804 255.124 336.692C254.9 336.581 254.722 336.42 254.589 336.21C254.456 335.993 254.39 335.731 254.39 335.423C254.39 334.871 254.641 334.448 255.145 334.155C255.655 333.854 256.459 333.644 257.557 333.525C257.557 333.295 257.525 333.074 257.462 332.865C257.406 332.655 257.298 332.487 257.137 332.361C256.983 332.228 256.76 332.162 256.466 332.162C256.158 332.162 255.872 332.221 255.606 332.34C255.347 332.459 255.12 332.585 254.924 332.718L254.62 332.193C254.767 332.096 254.942 331.994 255.145 331.889C255.347 331.784 255.571 331.697 255.816 331.627C256.061 331.557 256.319 331.522 256.592 331.522C257.004 331.522 257.336 331.61 257.588 331.784C257.84 331.959 258.022 332.2 258.134 332.508C258.252 332.816 258.312 333.176 258.312 333.588V336.734H257.683L257.62 336.116H257.588C257.343 336.318 257.078 336.493 256.791 336.64C256.505 336.787 256.2 336.86 255.879 336.86ZM256.078 336.241C256.344 336.241 256.588 336.182 256.812 336.063C257.043 335.937 257.291 335.759 257.557 335.528V334.039C256.955 334.109 256.48 334.207 256.13 334.333C255.781 334.452 255.529 334.598 255.375 334.773C255.222 334.948 255.145 335.151 255.145 335.382C255.145 335.682 255.236 335.902 255.417 336.042C255.606 336.175 255.826 336.241 256.078 336.241ZM259.99 338.958C259.878 338.958 259.773 338.947 259.675 338.926C259.577 338.905 259.49 338.881 259.413 338.853L259.56 338.234C259.615 338.255 259.678 338.272 259.748 338.286C259.825 338.307 259.895 338.318 259.958 338.318C260.252 338.318 260.496 338.206 260.692 337.982C260.888 337.766 261.038 337.489 261.143 337.154L261.269 336.766L259.213 331.648H260L261.091 334.564C261.175 334.78 261.258 335.014 261.342 335.266C261.433 335.511 261.517 335.752 261.594 335.99H261.636C261.713 335.759 261.79 335.521 261.867 335.277C261.944 335.025 262.014 334.787 262.076 334.564L263.031 331.648H263.775L261.846 337.206C261.727 337.528 261.587 337.822 261.426 338.087C261.265 338.353 261.066 338.563 260.828 338.716C260.598 338.877 260.318 338.958 259.99 338.958ZM266.093 336.86C265.729 336.86 265.383 336.794 265.055 336.661C264.726 336.521 264.443 336.353 264.205 336.158L264.593 335.644C264.817 335.818 265.048 335.965 265.285 336.084C265.523 336.203 265.803 336.262 266.124 336.262C266.474 336.262 266.736 336.179 266.911 336.011C267.086 335.843 267.173 335.644 267.173 335.413C267.173 335.231 267.114 335.081 266.995 334.962C266.876 334.836 266.726 334.731 266.544 334.647C266.362 334.557 266.177 334.476 265.988 334.406C265.75 334.322 265.513 334.221 265.275 334.102C265.037 333.983 264.838 333.833 264.677 333.651C264.523 333.469 264.446 333.235 264.446 332.948C264.446 332.55 264.597 332.214 264.897 331.942C265.205 331.662 265.631 331.522 266.177 331.522C266.484 331.522 266.771 331.578 267.037 331.69C267.302 331.802 267.53 331.935 267.718 332.089L267.351 332.581C267.177 332.456 266.995 332.351 266.806 332.267C266.624 332.176 266.414 332.13 266.177 332.13C265.841 332.13 265.593 332.211 265.432 332.372C265.271 332.526 265.191 332.704 265.191 332.907C265.191 333.074 265.243 333.214 265.348 333.326C265.46 333.431 265.603 333.522 265.778 333.599C265.953 333.676 266.138 333.753 266.334 333.829C266.586 333.92 266.83 334.025 267.068 334.144C267.313 334.256 267.516 334.406 267.676 334.595C267.837 334.784 267.918 335.042 267.918 335.371C267.918 335.637 267.848 335.885 267.708 336.116C267.568 336.339 267.362 336.521 267.089 336.661C266.817 336.794 266.484 336.86 266.093 336.86ZM268.956 338.475L268.757 338.014C269.043 337.888 269.267 337.713 269.428 337.489C269.589 337.266 269.669 337.007 269.669 336.713L269.564 335.979L269.973 336.577C269.924 336.647 269.861 336.696 269.785 336.724C269.715 336.745 269.641 336.755 269.564 336.755C269.404 336.755 269.264 336.706 269.145 336.609C269.033 336.511 268.977 336.371 268.977 336.189C268.977 336.014 269.036 335.878 269.155 335.78C269.281 335.682 269.421 335.633 269.575 335.633C269.792 335.633 269.959 335.717 270.078 335.885C270.197 336.053 270.256 336.283 270.256 336.577C270.256 337.011 270.138 337.392 269.9 337.72C269.669 338.049 269.355 338.3 268.956 338.475ZM273.795 336.734V331.648H274.424L274.487 332.403H274.518C274.742 332.158 274.987 331.952 275.252 331.784C275.525 331.61 275.808 331.522 276.102 331.522C276.5 331.522 276.808 331.613 277.025 331.795C277.248 331.97 277.409 332.207 277.507 332.508C277.78 332.214 278.052 331.977 278.325 331.795C278.605 331.613 278.895 331.522 279.196 331.522C279.72 331.522 280.108 331.69 280.36 332.026C280.611 332.361 280.737 332.854 280.737 333.504V336.734H279.972V333.599C279.972 333.109 279.891 332.753 279.73 332.529C279.57 332.305 279.318 332.193 278.975 332.193C278.773 332.193 278.559 332.263 278.336 332.403C278.119 332.536 277.888 332.739 277.643 333.011V336.734H276.878V333.599C276.878 333.109 276.798 332.753 276.637 332.529C276.483 332.305 276.235 332.193 275.892 332.193C275.487 332.193 275.039 332.466 274.55 333.011V336.734H273.795ZM284.389 336.86C283.976 336.86 283.592 336.755 283.235 336.546C282.879 336.336 282.592 336.035 282.375 335.644C282.159 335.245 282.05 334.763 282.05 334.196C282.05 333.63 282.159 333.148 282.375 332.749C282.592 332.351 282.879 332.047 283.235 331.837C283.592 331.627 283.976 331.522 284.389 331.522C284.801 331.522 285.182 331.627 285.532 331.837C285.888 332.047 286.175 332.351 286.392 332.749C286.616 333.148 286.727 333.63 286.727 334.196C286.727 334.763 286.616 335.245 286.392 335.644C286.175 336.035 285.888 336.336 285.532 336.546C285.182 336.755 284.801 336.86 284.389 336.86ZM284.389 336.221C284.696 336.221 284.966 336.137 285.196 335.969C285.434 335.801 285.616 335.567 285.742 335.266C285.874 334.959 285.941 334.602 285.941 334.196C285.941 333.798 285.874 333.445 285.742 333.137C285.616 332.83 285.434 332.592 285.196 332.424C284.966 332.249 284.696 332.162 284.389 332.162C284.088 332.162 283.819 332.249 283.581 332.424C283.351 332.592 283.169 332.83 283.036 333.137C282.91 333.445 282.847 333.798 282.847 334.196C282.847 334.602 282.91 334.959 283.036 335.266C283.169 335.567 283.351 335.801 283.581 335.969C283.819 336.137 284.088 336.221 284.389 336.221ZM288.112 336.734V331.648H288.741L288.804 332.403H288.836C289.08 332.151 289.339 331.942 289.612 331.774C289.892 331.606 290.203 331.522 290.545 331.522C291.084 331.522 291.475 331.69 291.72 332.026C291.971 332.361 292.097 332.854 292.097 333.504V336.734H291.332V333.599C291.332 333.109 291.251 332.753 291.091 332.529C290.937 332.305 290.682 332.193 290.325 332.193C290.059 332.193 289.818 332.263 289.601 332.403C289.385 332.536 289.14 332.739 288.867 333.011V336.734H288.112ZM295.348 336.86C294.824 336.86 294.457 336.706 294.247 336.399C294.044 336.091 293.943 335.693 293.943 335.203V332.277H293.177V331.701L293.974 331.648L294.069 330.211H294.708V331.648H296.103V332.277H294.708V335.224C294.708 335.539 294.764 335.787 294.876 335.969C294.995 336.144 295.208 336.231 295.516 336.231C295.607 336.231 295.705 336.217 295.809 336.189C295.921 336.161 296.019 336.13 296.103 336.095L296.26 336.671C296.121 336.72 295.97 336.762 295.809 336.797C295.649 336.839 295.495 336.86 295.348 336.86ZM297.278 336.734V329.247H298.033V331.323L298.012 332.393C298.257 332.148 298.516 331.942 298.788 331.774C299.061 331.606 299.369 331.522 299.711 331.522C300.25 331.522 300.641 331.69 300.886 332.026C301.138 332.361 301.263 332.854 301.263 333.504V336.734H300.498V333.599C300.498 333.109 300.417 332.753 300.257 332.529C300.103 332.305 299.848 332.193 299.491 332.193C299.225 332.193 298.984 332.263 298.767 332.403C298.551 332.536 298.306 332.739 298.033 333.011V336.734H297.278ZM304.242 336.86C303.879 336.86 303.533 336.794 303.204 336.661C302.875 336.521 302.592 336.353 302.354 336.158L302.742 335.644C302.966 335.818 303.197 335.965 303.435 336.084C303.672 336.203 303.952 336.262 304.274 336.262C304.623 336.262 304.885 336.179 305.06 336.011C305.235 335.843 305.322 335.644 305.322 335.413C305.322 335.231 305.263 335.081 305.144 334.962C305.025 334.836 304.875 334.731 304.693 334.647C304.511 334.557 304.326 334.476 304.137 334.406C303.9 334.322 303.662 334.221 303.424 334.102C303.186 333.983 302.987 333.833 302.826 333.651C302.673 333.469 302.596 333.235 302.596 332.948C302.596 332.55 302.746 332.214 303.047 331.942C303.354 331.662 303.781 331.522 304.326 331.522C304.634 331.522 304.92 331.578 305.186 331.69C305.452 331.802 305.679 331.935 305.868 332.089L305.501 332.581C305.326 332.456 305.144 332.351 304.955 332.267C304.774 332.176 304.564 332.13 304.326 332.13C303.99 332.13 303.742 332.211 303.581 332.372C303.421 332.526 303.34 332.704 303.34 332.907C303.34 333.074 303.393 333.214 303.498 333.326C303.609 333.431 303.753 333.522 303.928 333.599C304.102 333.676 304.288 333.753 304.483 333.829C304.735 333.92 304.98 334.025 305.217 334.144C305.462 334.256 305.665 334.406 305.826 334.595C305.987 334.784 306.067 335.042 306.067 335.371C306.067 335.637 305.997 335.885 305.857 336.116C305.717 336.339 305.511 336.521 305.238 336.661C304.966 336.794 304.634 336.86 304.242 336.86ZM307.273 338.58L306.801 338.349C307.207 337.678 307.511 336.958 307.714 336.189C307.916 335.413 308.018 334.623 308.018 333.819C308.018 333.015 307.916 332.225 307.714 331.449C307.511 330.673 307.207 329.953 306.801 329.288L307.273 329.058C307.707 329.757 308.046 330.494 308.29 331.271C308.535 332.047 308.657 332.896 308.657 333.819C308.657 334.742 308.535 335.591 308.29 336.367C308.046 337.136 307.707 337.874 307.273 338.58Z" fill="black"/>
<path d="M92.9784 313.449V312.809H94.52V307.723H93.3035V307.23C93.6041 307.181 93.8663 307.118 94.09 307.042C94.3137 306.958 94.5165 306.863 94.6983 306.758H95.2855V312.809H96.6803V313.449H92.9784Z" fill="#222539"/>
<path d="M121.509 313.449V312.998C122.194 312.306 122.774 311.701 123.25 311.184C123.725 310.66 124.085 310.191 124.33 309.779C124.575 309.366 124.697 308.975 124.697 308.604C124.697 308.213 124.588 307.891 124.372 307.639C124.162 307.388 123.83 307.262 123.375 307.262C123.096 307.262 122.83 307.339 122.578 307.492C122.334 307.646 122.114 307.842 121.918 308.08L121.467 307.639C121.746 307.339 122.044 307.097 122.358 306.916C122.673 306.727 123.043 306.633 123.47 306.633C123.875 306.633 124.225 306.713 124.519 306.874C124.819 307.035 125.05 307.262 125.211 307.555C125.372 307.842 125.452 308.181 125.452 308.573C125.452 308.999 125.33 309.429 125.085 309.863C124.847 310.296 124.515 310.758 124.089 311.247C123.669 311.729 123.183 312.261 122.631 312.841C122.813 312.827 123.001 312.816 123.197 312.809C123.393 312.796 123.578 312.789 123.753 312.789H125.777V313.449H121.509Z" fill="#222539"/>
<path d="M152.394 313.575C152.037 313.575 151.722 313.53 151.45 313.439C151.177 313.348 150.939 313.232 150.737 313.093C150.534 312.946 150.359 312.792 150.212 312.631L150.6 312.128C150.803 312.338 151.041 312.526 151.313 312.694C151.593 312.855 151.939 312.935 152.352 312.935C152.771 312.935 153.114 312.82 153.379 312.589C153.652 312.352 153.788 312.037 153.788 311.645C153.788 311.373 153.715 311.132 153.568 310.922C153.428 310.712 153.198 310.551 152.876 310.439C152.561 310.321 152.135 310.261 151.597 310.261V309.663C152.079 309.663 152.46 309.607 152.74 309.496C153.026 309.377 153.233 309.219 153.358 309.024C153.484 308.828 153.547 308.608 153.547 308.363C153.547 308.027 153.439 307.762 153.222 307.566C153.005 307.363 152.712 307.262 152.341 307.262C152.055 307.262 151.789 307.328 151.544 307.461C151.299 307.587 151.079 307.751 150.883 307.954L150.464 307.461C150.723 307.223 151.006 307.028 151.313 306.874C151.621 306.713 151.971 306.633 152.362 306.633C152.74 306.633 153.075 306.699 153.369 306.832C153.663 306.965 153.893 307.157 154.061 307.409C154.236 307.653 154.323 307.954 154.323 308.31C154.323 308.723 154.208 309.062 153.977 309.328C153.753 309.586 153.456 309.782 153.086 309.915V309.957C153.358 310.02 153.607 310.128 153.83 310.282C154.054 310.429 154.232 310.621 154.365 310.859C154.498 311.09 154.564 311.359 154.564 311.666C154.564 312.065 154.467 312.407 154.271 312.694C154.075 312.974 153.813 313.191 153.484 313.344C153.156 313.498 152.792 313.575 152.394 313.575Z" fill="#222539"/>
<path d="M181.968 313.449V308.877C181.968 308.702 181.975 308.492 181.989 308.248C182.002 308.003 182.013 307.793 182.02 307.618H181.978C181.894 307.772 181.807 307.922 181.716 308.069C181.625 308.216 181.531 308.373 181.433 308.541L179.765 310.953H183.625V311.562H178.947V311.069L181.873 306.758H182.691V313.449H181.968Z" fill="#222539"/>
<path d="M210.042 313.575C209.685 313.575 209.371 313.533 209.098 313.449C208.832 313.358 208.598 313.243 208.395 313.103C208.2 312.963 208.025 312.816 207.871 312.663L208.259 312.159C208.462 312.355 208.696 312.533 208.962 312.694C209.234 312.855 209.573 312.935 209.979 312.935C210.259 312.935 210.514 312.869 210.744 312.736C210.975 312.603 211.157 312.418 211.29 312.18C211.423 311.943 211.489 311.663 211.489 311.341C211.489 310.859 211.356 310.485 211.091 310.219C210.825 309.946 210.468 309.81 210.021 309.81C209.783 309.81 209.577 309.845 209.402 309.915C209.234 309.985 209.049 310.086 208.846 310.219L208.427 309.957L208.647 306.758H211.93V307.419H209.318L209.129 309.506C209.297 309.415 209.465 309.345 209.633 309.296C209.801 309.24 209.989 309.212 210.199 309.212C210.584 309.212 210.93 309.289 211.237 309.443C211.552 309.59 211.8 309.817 211.982 310.125C212.171 310.432 212.265 310.827 212.265 311.31C212.265 311.792 212.16 312.205 211.95 312.547C211.741 312.883 211.465 313.138 211.122 313.313C210.786 313.488 210.426 313.575 210.042 313.575Z" fill="#222539"/>
<path d="M239.238 313.575C238.91 313.575 238.605 313.509 238.326 313.376C238.046 313.243 237.805 313.044 237.602 312.778C237.406 312.505 237.249 312.17 237.13 311.771C237.018 311.366 236.963 310.901 236.963 310.376C236.963 309.691 237.032 309.111 237.172 308.636C237.312 308.16 237.497 307.776 237.728 307.482C237.966 307.188 238.235 306.975 238.536 306.842C238.843 306.702 239.161 306.633 239.49 306.633C239.839 306.633 240.14 306.699 240.392 306.832C240.651 306.958 240.871 307.122 241.053 307.325L240.623 307.807C240.483 307.639 240.315 307.51 240.119 307.419C239.93 307.321 239.728 307.272 239.511 307.272C239.182 307.272 238.878 307.37 238.599 307.566C238.326 307.762 238.106 308.087 237.938 308.541C237.77 308.989 237.686 309.6 237.686 310.376C237.686 310.922 237.746 311.39 237.864 311.782C237.983 312.166 238.158 312.46 238.389 312.663C238.619 312.865 238.906 312.967 239.249 312.967C239.472 312.967 239.675 312.904 239.857 312.778C240.046 312.645 240.193 312.463 240.297 312.233C240.402 312.002 240.455 311.74 240.455 311.446C240.455 311.146 240.406 310.883 240.308 310.66C240.217 310.436 240.077 310.265 239.888 310.146C239.7 310.02 239.458 309.957 239.165 309.957C238.941 309.957 238.696 310.03 238.431 310.177C238.165 310.324 237.91 310.576 237.665 310.932L237.644 310.303C237.861 310.016 238.116 309.789 238.41 309.621C238.703 309.454 238.997 309.37 239.291 309.37C239.675 309.37 240.007 309.45 240.287 309.611C240.574 309.765 240.794 309.995 240.948 310.303C241.101 310.604 241.178 310.985 241.178 311.446C241.178 311.866 241.091 312.236 240.916 312.558C240.741 312.872 240.507 313.121 240.214 313.302C239.92 313.484 239.595 313.575 239.238 313.575Z" fill="#222539"/>
<path d="M267.176 313.449C267.211 312.596 267.299 311.831 267.438 311.153C267.578 310.474 267.784 309.838 268.057 309.244C268.33 308.643 268.686 308.034 269.127 307.419H265.75V306.758H270.008V307.22C269.609 307.73 269.284 308.223 269.032 308.699C268.781 309.167 268.581 309.642 268.435 310.125C268.295 310.607 268.19 311.118 268.12 311.656C268.05 312.194 267.998 312.792 267.963 313.449H267.176Z" fill="#222539"/>
<path d="M296.729 313.575C296.317 313.575 295.946 313.498 295.618 313.344C295.289 313.184 295.03 312.963 294.841 312.684C294.653 312.404 294.558 312.089 294.558 311.74C294.558 311.446 294.621 311.184 294.747 310.953C294.873 310.723 295.034 310.52 295.229 310.345C295.425 310.17 295.628 310.027 295.838 309.915V309.873C295.593 309.698 295.373 309.485 295.177 309.233C294.988 308.982 294.894 308.681 294.894 308.331C294.894 307.989 294.974 307.692 295.135 307.44C295.303 307.181 295.527 306.982 295.806 306.842C296.086 306.702 296.401 306.633 296.75 306.633C297.337 306.633 297.795 306.8 298.124 307.136C298.46 307.465 298.627 307.888 298.627 308.405C298.627 308.643 298.575 308.866 298.47 309.076C298.372 309.279 298.25 309.464 298.103 309.632C297.963 309.8 297.827 309.936 297.694 310.041V310.083C297.89 310.202 298.075 310.338 298.25 310.492C298.432 310.639 298.578 310.82 298.69 311.037C298.802 311.247 298.858 311.499 298.858 311.792C298.858 312.128 298.771 312.428 298.596 312.694C298.421 312.96 298.173 313.173 297.851 313.334C297.53 313.495 297.156 313.575 296.729 313.575ZM296.75 312.998C297.023 312.998 297.26 312.946 297.463 312.841C297.673 312.736 297.834 312.593 297.946 312.411C298.065 312.222 298.124 312.012 298.124 311.782C298.124 311.474 298.037 311.226 297.862 311.037C297.687 310.848 297.456 310.688 297.17 310.555C296.89 310.422 296.582 310.289 296.247 310.156C295.967 310.338 295.729 310.555 295.534 310.806C295.345 311.058 295.25 311.348 295.25 311.677C295.25 311.929 295.313 312.156 295.439 312.359C295.572 312.554 295.75 312.712 295.974 312.83C296.205 312.942 296.463 312.998 296.75 312.998ZM297.201 309.842C297.446 309.625 297.631 309.401 297.757 309.17C297.89 308.94 297.956 308.695 297.956 308.436C297.956 308.213 297.907 308.01 297.809 307.828C297.718 307.639 297.582 307.489 297.4 307.377C297.219 307.265 296.998 307.209 296.74 307.209C296.411 307.209 296.138 307.314 295.922 307.524C295.712 307.727 295.607 307.996 295.607 308.331C295.607 308.611 295.68 308.842 295.827 309.024C295.981 309.205 296.18 309.359 296.425 309.485C296.67 309.611 296.928 309.73 297.201 309.842Z" fill="#222539"/>
<path d="M325.087 313.575C324.737 313.575 324.433 313.509 324.174 313.376C323.916 313.243 323.699 313.079 323.524 312.883L323.954 312.4C324.094 312.568 324.262 312.701 324.457 312.799C324.653 312.89 324.852 312.935 325.055 312.935C325.391 312.935 325.695 312.837 325.968 312.642C326.247 312.446 326.467 312.121 326.628 311.666C326.796 311.212 326.88 310.6 326.88 309.831C326.88 309.286 326.82 308.821 326.702 308.436C326.59 308.045 326.418 307.748 326.188 307.545C325.957 307.342 325.67 307.241 325.328 307.241C325.104 307.241 324.901 307.307 324.72 307.44C324.538 307.566 324.391 307.744 324.279 307.975C324.174 308.199 324.122 308.461 324.122 308.761C324.122 309.062 324.167 309.324 324.258 309.548C324.356 309.772 324.499 309.946 324.688 310.072C324.877 310.191 325.118 310.251 325.412 310.251C325.635 310.251 325.88 310.177 326.146 310.03C326.411 309.877 326.667 309.621 326.911 309.265L326.932 309.905C326.723 310.184 326.467 310.411 326.167 310.586C325.873 310.754 325.579 310.838 325.286 310.838C324.901 310.838 324.566 310.761 324.279 310.607C323.992 310.446 323.772 310.212 323.618 309.905C323.465 309.597 323.388 309.216 323.388 308.761C323.388 308.342 323.475 307.971 323.65 307.65C323.832 307.328 324.069 307.08 324.363 306.905C324.657 306.723 324.978 306.633 325.328 306.633C325.663 306.633 325.968 306.699 326.24 306.832C326.52 306.965 326.761 307.167 326.964 307.44C327.167 307.706 327.324 308.041 327.436 308.447C327.555 308.845 327.614 309.307 327.614 309.831C327.614 310.509 327.544 311.09 327.404 311.572C327.264 312.047 327.076 312.432 326.838 312.726C326.6 313.019 326.331 313.236 326.03 313.376C325.73 313.509 325.415 313.575 325.087 313.575Z" fill="#222539"/>
<path d="M349.956 313.449V312.809H351.498V307.723H350.281V307.23C350.582 307.181 350.844 307.118 351.068 307.042C351.291 306.958 351.494 306.863 351.676 306.758H352.263V312.809H353.658V313.449H349.956ZM356.754 313.575C356.096 313.575 355.579 313.274 355.202 312.673C354.831 312.065 354.646 311.201 354.646 310.083C354.646 308.957 354.831 308.101 355.202 307.513C355.579 306.926 356.096 306.633 356.754 306.633C357.418 306.633 357.935 306.93 358.306 307.524C358.676 308.111 358.862 308.964 358.862 310.083C358.862 311.201 358.676 312.065 358.306 312.673C357.935 313.274 357.418 313.575 356.754 313.575ZM356.754 312.956C357.026 312.956 357.264 312.855 357.467 312.652C357.676 312.449 357.837 312.135 357.949 311.708C358.061 311.282 358.117 310.74 358.117 310.083C358.117 309.419 358.061 308.88 357.949 308.468C357.837 308.048 357.676 307.741 357.467 307.545C357.264 307.349 357.026 307.251 356.754 307.251C356.481 307.251 356.243 307.349 356.04 307.545C355.838 307.741 355.677 308.048 355.558 308.468C355.446 308.88 355.39 309.419 355.39 310.083C355.39 310.74 355.446 311.282 355.558 311.708C355.677 312.135 355.838 312.449 356.04 312.652C356.243 312.855 356.481 312.956 356.754 312.956Z" fill="#222539"/>
<path d="M379.011 313.449V312.809H380.553V307.723H379.336V307.23C379.637 307.181 379.899 307.118 380.123 307.042C380.346 306.958 380.549 306.863 380.731 306.758H381.318V312.809H382.713V313.449H379.011ZM383.743 313.449V312.809H385.284V307.723H384.068V307.23C384.368 307.181 384.63 307.118 384.854 307.042C385.078 306.958 385.281 306.863 385.462 306.758H386.05V312.809H387.445V313.449H383.743Z" fill="#222539"/>
<rect x="84.3418" y="152.039" width="20.9744" height="18.3526" fill="#0072B2"/>
<rect x="93.8457" y="170.391" width="1.96635" height="10.4872" fill="#0072B2"/>
<rect x="87.9473" y="180.879" width="13.7645" height="1.96635" fill="#0072B2"/>
<rect x="84.3418" y="161.215" width="20.9744" height="1.3109" fill="white"/>
<circle cx="95.1574" cy="201.525" r="2.29408" fill="#0072B2"/>
<rect x="116.783" y="145.48" width="13.7645" height="1.96635" fill="#0072B2"/>
<rect x="122.682" y="147.445" width="1.96635" height="19.6635" fill="#0072B2"/>
<rect x="113.178" y="167.109" width="20.9744" height="37.3607" fill="#0072B2"/>
<rect x="122.682" y="204.473" width="1.96635" height="10.4872" fill="#0072B2"/>
<rect x="116.783" y="214.961" width="13.7645" height="1.96635" fill="#0072B2"/>
<rect x="113.505" y="187.757" width="20.319" height="0.65545" fill="white" stroke="white" stroke-width="0.65545"/>
<rect x="145.629" y="146.797" width="13.7645" height="1.96635" fill="#0072B2"/>
<rect x="151.527" y="148.762" width="1.96635" height="19.6635" fill="#0072B2"/>
<rect x="142.023" y="168.426" width="20.9744" height="18.3526" fill="#0072B2"/>
<rect x="151.527" y="186.781" width="1.96635" height="10.4872" fill="#0072B2"/>
<rect x="145.629" y="197.27" width="13.7645" height="1.96635" fill="#0072B2"/>
<rect x="142.023" y="175.633" width="20.9744" height="1.3109" fill="white"/>
<rect x="170.859" y="156.625" width="20.9744" height="18.3526" fill="#0072B2"/>
<rect x="180.363" y="174.977" width="1.96635" height="10.4872" fill="#0072B2"/>
<rect x="174.465" y="185.465" width="13.7645" height="1.96635" fill="#0072B2"/>
<rect x="170.859" y="165.801" width="20.9744" height="1.3109" fill="white"/>
<rect x="203.307" y="162.195" width="13.7645" height="1.96635" fill="#0072B2"/>
<rect x="209.205" y="164.16" width="1.96635" height="7.20995" fill="#0072B2"/>
<rect x="199.701" y="171.371" width="20.9744" height="18.3526" fill="#0072B2"/>
<rect x="209.205" y="189.723" width="1.96635" height="25.5626" fill="#0072B2"/>
<rect x="203.307" y="215.285" width="13.7645" height="1.96635" fill="#0072B2"/>
<rect x="199.701" y="175.637" width="20.9744" height="1.3109" fill="white"/>
<circle cx="209.86" cy="154.989" r="2.29408" fill="#0072B2"/>
<rect x="228.541" y="110.094" width="20.9744" height="45.8815" fill="#0072B2"/>
<rect x="238.045" y="155.977" width="1.96635" height="10.4872" fill="#0072B2"/>
<rect x="232.146" y="166.465" width="13.7645" height="1.96635" fill="#0072B2"/>
<rect x="228.541" y="133.035" width="20.9744" height="1.3109" fill="white"/>
<rect x="257.383" y="102.879" width="20.9744" height="34.7389" fill="#0072B2"/>
<rect x="266.887" y="137.617" width="1.96635" height="24.2517" fill="#0072B2"/>
<rect x="260.988" y="161.867" width="13.7645" height="1.96635" fill="#0072B2"/>
<rect x="257.383" y="120.574" width="20.9744" height="1.3109" fill="white"/>
<circle cx="268.198" cy="172.685" r="2.29408" fill="#0072B2"/>
<rect x="289.826" y="67.8125" width="13.7645" height="1.96635" fill="#0072B2"/>
<rect x="295.725" y="69.7773" width="1.96635" height="19.6635" fill="#0072B2"/>
<rect x="286.221" y="89.4414" width="20.9744" height="34.0834" fill="#0072B2"/>
<rect x="295.725" y="123.527" width="1.96635" height="10.4872" fill="#0072B2"/>
<rect x="289.826" y="134.016" width="13.7645" height="1.96635" fill="#0072B2"/>
<rect x="286.221" y="115.332" width="20.9744" height="1.3109" fill="white"/>
<circle cx="297.036" cy="151.056" r="2.29408" fill="#0072B2"/>
<rect x="318.668" y="70.4375" width="13.7645" height="1.96635" fill="#0072B2"/>
<rect x="324.566" y="72.4023" width="1.96635" height="9.83175" fill="#0072B2"/>
<rect x="315.062" y="82.2344" width="20.9744" height="25.5626" fill="#0072B2"/>
<rect x="324.566" y="107.797" width="1.96635" height="10.4872" fill="#0072B2"/>
<rect x="318.668" y="118.285" width="13.7645" height="1.96635" fill="#0072B2"/>
<rect x="315.062" y="102.227" width="20.9744" height="1.3109" fill="white"/>
<circle cx="325.878" cy="58.6378" r="2.29408" fill="#0072B2"/>
<rect x="347.506" y="64.5391" width="13.7645" height="1.96635" fill="#0072B2"/>
<rect x="353.404" y="66.5039" width="1.96635" height="13.7645" fill="#0072B2"/>
<rect x="343.9" y="80.2695" width="20.9744" height="18.3526" fill="#0072B2"/>
<rect x="353.404" y="98.6211" width="1.96635" height="25.5626" fill="#0072B2"/>
<rect x="347.506" y="124.184" width="13.7645" height="1.96635" fill="#0072B2"/>
<rect x="343.9" y="89.1172" width="20.9744" height="1.3109" fill="white"/>
<circle cx="354.716" cy="151.712" r="2.29408" fill="#0072B2"/>
<rect x="376.346" y="57.3242" width="13.7645" height="1.96635" fill="#0072B2"/>
<rect x="382.244" y="59.2891" width="1.96635" height="19.6635" fill="#0072B2"/>
<rect x="372.74" y="78.9531" width="20.9744" height="25.5626" fill="#0072B2"/>
<rect x="382.244" y="104.516" width="1.96635" height="22.2853" fill="#0072B2"/>
<rect x="376.346" y="126.801" width="13.7645" height="1.96635" fill="#0072B2"/>
<rect x="372.74" y="93.375" width="20.9744" height="1.3109" fill="white"/>
<circle cx="383.556" cy="141.88" r="2.29408" fill="#0072B2"/>
<defs>
<filter id="filter0_d_927_2892" x="0.445497" y="0.100947" width="443.084" height="363.109" filterUnits="userSpaceOnUse" color-interpolation-filters="sRGB">
<feFlood flood-opacity="0" result="BackgroundImageFix"/>
<feColorMatrix in="SourceAlpha" type="matrix" values="0 0 0 0 0 0 0 0 0 0 0 0 0 0 0 0 0 0 127 0" result="hardAlpha"/>
<feOffset dy="0.65545"/>
<feGaussianBlur stdDeviation="3.27725"/>
<feColorMatrix type="matrix" values="0 0 0 0 0 0 0 0 0 0 0 0 0 0 0 0 0 0 0.07 0"/>
<feBlend mode="normal" in2="BackgroundImageFix" result="effect1_dropShadow_927_2892"/>
<feBlend mode="normal" in="SourceGraphic" in2="effect1_dropShadow_927_2892" result="shape"/>
</filter>
<clipPath id="clip0_927_2892">
<rect x="7" y="6" width="429.975" height="350" rx="5.2436" fill="white"/>
</clipPath>
</defs>
</svg>
