<svg width="500" height="305" viewBox="0 0 500 305" fill="none" xmlns="http://www.w3.org/2000/svg">
<rect width="500" height="305" fill="white"/>
<circle cx="29" cy="23" r="5" fill="#0FCA7A"/>
<path d="M44.262 28H43.098V19.402H44.262V28ZM48.3995 28.096C47.9195 28.096 47.5495 27.962 47.2895 27.694C47.0335 27.426 46.9055 27.04 46.9055 26.536V22.816H46.1735C46.1095 22.816 46.0555 22.798 46.0115 22.762C45.9675 22.722 45.9455 22.662 45.9455 22.582V22.156L46.9415 22.03L47.1875 20.152C47.1995 20.092 47.2255 20.044 47.2655 20.008C47.3095 19.968 47.3655 19.948 47.4335 19.948H47.9735V22.042H49.7315V22.816H47.9735V26.464C47.9735 26.72 48.0355 26.91 48.1595 27.034C48.2835 27.158 48.4435 27.22 48.6395 27.22C48.7515 27.22 48.8475 27.206 48.9275 27.178C49.0115 27.146 49.0835 27.112 49.1435 27.076C49.2035 27.04 49.2535 27.008 49.2935 26.98C49.3375 26.948 49.3755 26.932 49.4075 26.932C49.4635 26.932 49.5135 26.966 49.5575 27.034L49.8695 27.544C49.6855 27.716 49.4635 27.852 49.2035 27.952C48.9435 28.048 48.6755 28.096 48.3995 28.096ZM55.3671 24.298C55.3671 24.05 55.3311 23.824 55.2591 23.62C55.1911 23.412 55.0891 23.234 54.9531 23.086C54.8211 22.934 54.6591 22.818 54.4671 22.738C54.2751 22.654 54.0571 22.612 53.8131 22.612C53.3011 22.612 52.8951 22.762 52.5951 23.062C52.2991 23.358 52.1151 23.77 52.0431 24.298H55.3671ZM56.2311 27.148C56.0991 27.308 55.9411 27.448 55.7571 27.568C55.5731 27.684 55.3751 27.78 55.1631 27.856C54.9551 27.932 54.7391 27.988 54.5151 28.024C54.2911 28.064 54.0691 28.084 53.8491 28.084C53.4291 28.084 53.0411 28.014 52.6851 27.874C52.3331 27.73 52.0271 27.522 51.7671 27.25C51.5111 26.974 51.3111 26.634 51.1671 26.23C51.0231 25.826 50.9511 25.362 50.9511 24.838C50.9511 24.414 51.0151 24.018 51.1431 23.65C51.2751 23.282 51.4631 22.964 51.7071 22.696C51.9511 22.424 52.2491 22.212 52.6011 22.06C52.9531 21.904 53.3491 21.826 53.7891 21.826C54.1531 21.826 54.4891 21.888 54.7971 22.012C55.1091 22.132 55.3771 22.308 55.6011 22.54C55.8291 22.768 56.0071 23.052 56.1351 23.392C56.2631 23.728 56.3271 24.112 56.3271 24.544C56.3271 24.712 56.3091 24.824 56.2731 24.88C56.2371 24.936 56.1691 24.964 56.0691 24.964H52.0071C52.0191 25.348 52.0711 25.682 52.1631 25.966C52.2591 26.25 52.3911 26.488 52.5591 26.68C52.7271 26.868 52.9271 27.01 53.1591 27.106C53.3911 27.198 53.6511 27.244 53.9391 27.244C54.2071 27.244 54.4371 27.214 54.6291 27.154C54.8251 27.09 54.9931 27.022 55.1331 26.95C55.2731 26.878 55.3891 26.812 55.4811 26.752C55.5771 26.688 55.6591 26.656 55.7271 26.656C55.8151 26.656 55.8831 26.69 55.9311 26.758L56.2311 27.148ZM58.139 28V21.922H58.781C58.933 21.922 59.027 21.996 59.063 22.144L59.141 22.768C59.365 22.492 59.617 22.266 59.897 22.09C60.177 21.914 60.501 21.826 60.869 21.826C61.277 21.826 61.607 21.94 61.859 22.168C62.115 22.396 62.299 22.704 62.411 23.092C62.499 22.872 62.611 22.682 62.747 22.522C62.887 22.362 63.043 22.23 63.215 22.126C63.387 22.022 63.569 21.946 63.761 21.898C63.957 21.85 64.155 21.826 64.355 21.826C64.675 21.826 64.959 21.878 65.207 21.982C65.459 22.082 65.671 22.23 65.843 22.426C66.019 22.622 66.153 22.864 66.245 23.152C66.337 23.436 66.383 23.762 66.383 24.13V28H65.309V24.13C65.309 23.654 65.205 23.294 64.997 23.05C64.789 22.802 64.489 22.678 64.097 22.678C63.921 22.678 63.753 22.71 63.593 22.774C63.437 22.834 63.299 22.924 63.179 23.044C63.059 23.164 62.963 23.316 62.891 23.5C62.823 23.68 62.789 23.89 62.789 24.13V28H61.715V24.13C61.715 23.642 61.617 23.278 61.421 23.038C61.225 22.798 60.939 22.678 60.563 22.678C60.299 22.678 60.055 22.75 59.831 22.894C59.607 23.034 59.401 23.226 59.213 23.47V28H58.139Z" fill="#2D2D2D"/>
<path d="M38.8935 57.7376V66.4648H37.8366V58.8455H37.7855L35.6548 60.2603V59.1864L37.8366 57.7376H38.8935ZM44.25 66.5842C43.608 66.5842 43.0611 66.4094 42.6094 66.06C42.1577 65.7077 41.8125 65.1978 41.5739 64.5302C41.3352 63.8597 41.2159 63.0501 41.2159 62.1012C41.2159 61.158 41.3352 60.3526 41.5739 59.685C41.8153 59.0146 42.1619 58.5032 42.6136 58.1509C43.0682 57.7958 43.6136 57.6183 44.25 57.6183C44.8864 57.6183 45.4304 57.7958 45.8821 58.1509C46.3366 58.5032 46.6832 59.0146 46.9219 59.685C47.1634 60.3526 47.2841 61.158 47.2841 62.1012C47.2841 63.0501 47.1648 63.8597 46.9261 64.5302C46.6875 65.1978 46.3423 65.7077 45.8906 66.06C45.4389 66.4094 44.892 66.5842 44.25 66.5842ZM44.25 65.6467C44.8864 65.6467 45.3807 65.3398 45.733 64.7262C46.0852 64.1126 46.2614 63.2376 46.2614 62.1012C46.2614 61.3455 46.1804 60.7021 46.0185 60.1708C45.8594 59.6396 45.6293 59.2347 45.3281 58.9563C45.0298 58.6779 44.6705 58.5387 44.25 58.5387C43.6193 58.5387 43.1264 58.8498 42.7713 59.4719C42.4162 60.0913 42.2386 60.9677 42.2386 62.1012C42.2386 62.8569 42.3182 63.4989 42.4773 64.0273C42.6364 64.5558 42.8651 64.9577 43.1634 65.2333C43.4645 65.5089 43.8267 65.6467 44.25 65.6467ZM51.75 66.5842C51.108 66.5842 50.5611 66.4094 50.1094 66.06C49.6577 65.7077 49.3125 65.1978 49.0739 64.5302C48.8352 63.8597 48.7159 63.0501 48.7159 62.1012C48.7159 61.158 48.8352 60.3526 49.0739 59.685C49.3153 59.0146 49.6619 58.5032 50.1136 58.1509C50.5682 57.7958 51.1136 57.6183 51.75 57.6183C52.3864 57.6183 52.9304 57.7958 53.3821 58.1509C53.8366 58.5032 54.1832 59.0146 54.4219 59.685C54.6634 60.3526 54.7841 61.158 54.7841 62.1012C54.7841 63.0501 54.6648 63.8597 54.4261 64.5302C54.1875 65.1978 53.8423 65.7077 53.3906 66.06C52.9389 66.4094 52.392 66.5842 51.75 66.5842ZM51.75 65.6467C52.3864 65.6467 52.8807 65.3398 53.233 64.7262C53.5852 64.1126 53.7614 63.2376 53.7614 62.1012C53.7614 61.3455 53.6804 60.7021 53.5185 60.1708C53.3594 59.6396 53.1293 59.2347 52.8281 58.9563C52.5298 58.6779 52.1705 58.5387 51.75 58.5387C51.1193 58.5387 50.6264 58.8498 50.2713 59.4719C49.9162 60.0913 49.7386 60.9677 49.7386 62.1012C49.7386 62.8569 49.8182 63.4989 49.9773 64.0273C50.1364 64.5558 50.3651 64.9577 50.6634 65.2333C50.9645 65.5089 51.3267 65.6467 51.75 65.6467ZM59.25 66.5842C58.608 66.5842 58.0611 66.4094 57.6094 66.06C57.1577 65.7077 56.8125 65.1978 56.5739 64.5302C56.3352 63.8597 56.2159 63.0501 56.2159 62.1012C56.2159 61.158 56.3352 60.3526 56.5739 59.685C56.8153 59.0146 57.1619 58.5032 57.6136 58.1509C58.0682 57.7958 58.6136 57.6183 59.25 57.6183C59.8864 57.6183 60.4304 57.7958 60.8821 58.1509C61.3366 58.5032 61.6832 59.0146 61.9219 59.685C62.1634 60.3526 62.2841 61.158 62.2841 62.1012C62.2841 63.0501 62.1648 63.8597 61.9261 64.5302C61.6875 65.1978 61.3423 65.7077 60.8906 66.06C60.4389 66.4094 59.892 66.5842 59.25 66.5842ZM59.25 65.6467C59.8864 65.6467 60.3807 65.3398 60.733 64.7262C61.0852 64.1126 61.2614 63.2376 61.2614 62.1012C61.2614 61.3455 61.1804 60.7021 61.0185 60.1708C60.8594 59.6396 60.6293 59.2347 60.3281 58.9563C60.0298 58.6779 59.6705 58.5387 59.25 58.5387C58.6193 58.5387 58.1264 58.8498 57.7713 59.4719C57.4162 60.0913 57.2386 60.9677 57.2386 62.1012C57.2386 62.8569 57.3182 63.4989 57.4773 64.0273C57.6364 64.5558 57.8651 64.9577 58.1634 65.2333C58.4645 65.5089 58.8267 65.6467 59.25 65.6467Z" fill="#72777B"/>
<path d="M42.6371 98.3984L46.5405 90.6768V90.6087H42.0405V89.6712H47.6314V90.6598L43.745 98.3984H42.6371ZM51.8299 98.5178C51.3299 98.5178 50.8796 98.4183 50.479 98.2195C50.0785 98.0206 49.7575 97.7479 49.516 97.4013C49.2745 97.0547 49.1424 96.6598 49.1197 96.2166H50.1424C50.1822 96.6115 50.3612 96.9382 50.6793 97.1967C51.0004 97.4524 51.3839 97.5803 51.8299 97.5803C52.1879 97.5803 52.506 97.4964 52.7844 97.3288C53.0657 97.1612 53.2859 96.9311 53.445 96.6385C53.6069 96.343 53.6879 96.0092 53.6879 95.6371C53.6879 95.2564 53.604 94.9169 53.4364 94.6186C53.2717 94.3175 53.0444 94.0803 52.7546 93.907C52.4648 93.7337 52.1339 93.6456 51.7617 93.6428C51.4947 93.6399 51.2205 93.6811 50.9393 93.7663C50.658 93.8487 50.4265 93.9553 50.2447 94.0859L49.256 93.9666L49.7844 89.6712H54.3185V90.6087H50.6708L50.364 93.1825H50.4151C50.5941 93.0405 50.8185 92.9226 51.0884 92.8288C51.3583 92.7351 51.6396 92.6882 51.9322 92.6882C52.4663 92.6882 52.9421 92.8161 53.3597 93.0717C53.7802 93.3246 54.1097 93.6712 54.3484 94.1115C54.5898 94.5518 54.7106 95.0547 54.7106 95.62C54.7106 96.1768 54.5856 96.674 54.3356 97.1115C54.0884 97.5462 53.7475 97.8899 53.3129 98.1428C52.8782 98.3928 52.3839 98.5178 51.8299 98.5178ZM59.25 98.5178C58.608 98.5178 58.0611 98.343 57.6094 97.9936C57.1577 97.6413 56.8125 97.1314 56.5739 96.4638C56.3352 95.7933 56.2159 94.9837 56.2159 94.0348C56.2159 93.0916 56.3352 92.2862 56.5739 91.6186C56.8153 90.9482 57.1619 90.4368 57.6136 90.0845C58.0682 89.7294 58.6136 89.5518 59.25 89.5518C59.8864 89.5518 60.4304 89.7294 60.8821 90.0845C61.3366 90.4368 61.6832 90.9482 61.9219 91.6186C62.1634 92.2862 62.2841 93.0916 62.2841 94.0348C62.2841 94.9837 62.1648 95.7933 61.9261 96.4638C61.6875 97.1314 61.3423 97.6413 60.8906 97.9936C60.4389 98.343 59.892 98.5178 59.25 98.5178ZM59.25 97.5803C59.8864 97.5803 60.3807 97.2734 60.733 96.6598C61.0852 96.0462 61.2614 95.1712 61.2614 94.0348C61.2614 93.2791 61.1804 92.6357 61.0185 92.1044C60.8594 91.5732 60.6293 91.1683 60.3281 90.8899C60.0298 90.6115 59.6705 90.4723 59.25 90.4723C58.6193 90.4723 58.1264 90.7834 57.7713 91.4055C57.4162 92.0249 57.2386 92.9013 57.2386 94.0348C57.2386 94.7905 57.3182 95.4325 57.4773 95.9609C57.6364 96.4893 57.8651 96.8913 58.1634 97.1669C58.4645 97.4425 58.8267 97.5803 59.25 97.5803Z" fill="#72777B"/>
<path d="M71 93.8984H476" stroke="#E7EAEE"/>
<path d="M44.3299 130.451C43.8299 130.451 43.3796 130.352 42.979 130.153C42.5785 129.954 42.2575 129.681 42.016 129.335C41.7745 128.988 41.6424 128.593 41.6197 128.15H42.6424C42.6822 128.545 42.8612 128.872 43.1793 129.13C43.5004 129.386 43.8839 129.514 44.3299 129.514C44.6879 129.514 45.006 129.43 45.2844 129.262C45.5657 129.095 45.7859 128.865 45.945 128.572C46.1069 128.277 46.1879 127.943 46.1879 127.571C46.1879 127.19 46.104 126.85 45.9364 126.552C45.7717 126.251 45.5444 126.014 45.2546 125.841C44.9648 125.667 44.6339 125.579 44.2617 125.576C43.9947 125.574 43.7205 125.615 43.4393 125.7C43.158 125.782 42.9265 125.889 42.7447 126.02L41.756 125.9L42.2844 121.605H46.8185V122.542H43.1708L42.864 125.116H42.9151C43.0941 124.974 43.3185 124.856 43.5884 124.762C43.8583 124.669 44.1396 124.622 44.4322 124.622C44.9663 124.622 45.4421 124.75 45.8597 125.005C46.2802 125.258 46.6097 125.605 46.8484 126.045C47.0898 126.485 47.2106 126.988 47.2106 127.554C47.2106 128.11 47.0856 128.608 46.8356 129.045C46.5884 129.48 46.2475 129.824 45.8129 130.076C45.3782 130.326 44.8839 130.451 44.3299 130.451ZM51.75 130.451C51.108 130.451 50.5611 130.277 50.1094 129.927C49.6577 129.575 49.3125 129.065 49.0739 128.397C48.8352 127.727 48.7159 126.917 48.7159 125.968C48.7159 125.025 48.8352 124.22 49.0739 123.552C49.3153 122.882 49.6619 122.37 50.1136 122.018C50.5682 121.663 51.1136 121.485 51.75 121.485C52.3864 121.485 52.9304 121.663 53.3821 122.018C53.8366 122.37 54.1832 122.882 54.4219 123.552C54.6634 124.22 54.7841 125.025 54.7841 125.968C54.7841 126.917 54.6648 127.727 54.4261 128.397C54.1875 129.065 53.8423 129.575 53.3906 129.927C52.9389 130.277 52.392 130.451 51.75 130.451ZM51.75 129.514C52.3864 129.514 52.8807 129.207 53.233 128.593C53.5852 127.98 53.7614 127.105 53.7614 125.968C53.7614 125.213 53.6804 124.569 53.5185 124.038C53.3594 123.507 53.1293 123.102 52.8281 122.824C52.5298 122.545 52.1705 122.406 51.75 122.406C51.1193 122.406 50.6264 122.717 50.2713 123.339C49.9162 123.958 49.7386 124.835 49.7386 125.968C49.7386 126.724 49.8182 127.366 49.9773 127.895C50.1364 128.423 50.3651 128.825 50.6634 129.1C50.9645 129.376 51.3267 129.514 51.75 129.514ZM59.25 130.451C58.608 130.451 58.0611 130.277 57.6094 129.927C57.1577 129.575 56.8125 129.065 56.5739 128.397C56.3352 127.727 56.2159 126.917 56.2159 125.968C56.2159 125.025 56.3352 124.22 56.5739 123.552C56.8153 122.882 57.1619 122.37 57.6136 122.018C58.0682 121.663 58.6136 121.485 59.25 121.485C59.8864 121.485 60.4304 121.663 60.8821 122.018C61.3366 122.37 61.6832 122.882 61.9219 123.552C62.1634 124.22 62.2841 125.025 62.2841 125.968C62.2841 126.917 62.1648 127.727 61.9261 128.397C61.6875 129.065 61.3423 129.575 60.8906 129.927C60.4389 130.277 59.892 130.451 59.25 130.451ZM59.25 129.514C59.8864 129.514 60.3807 129.207 60.733 128.593C61.0852 127.98 61.2614 127.105 61.2614 125.968C61.2614 125.213 61.1804 124.569 61.0185 124.038C60.8594 123.507 60.6293 123.102 60.3281 122.824C60.0298 122.545 59.6705 122.406 59.25 122.406C58.6193 122.406 58.1264 122.717 57.7713 123.339C57.4162 123.958 57.2386 124.835 57.2386 125.968C57.2386 126.724 57.3182 127.366 57.4773 127.895C57.6364 128.423 57.8651 128.825 58.1634 129.1C58.4645 129.376 58.8267 129.514 59.25 129.514Z" fill="#72777B"/>
<path d="M71 125.832H476" stroke="#E7EAEE"/>
<path d="M44.3299 162.385C43.8299 162.385 43.3796 162.286 42.979 162.087C42.5785 161.888 42.2575 161.615 42.016 161.268C41.7745 160.922 41.6424 160.527 41.6197 160.084H42.6424C42.6822 160.479 42.8612 160.805 43.1793 161.064C43.5004 161.32 43.8839 161.447 44.3299 161.447C44.6879 161.447 45.006 161.364 45.2844 161.196C45.5657 161.028 45.7859 160.798 45.945 160.506C46.1069 160.21 46.1879 159.876 46.1879 159.504C46.1879 159.124 46.104 158.784 45.9364 158.486C45.7717 158.185 45.5444 157.947 45.2546 157.774C44.9648 157.601 44.6339 157.513 44.2617 157.51C43.9947 157.507 43.7205 157.548 43.4393 157.634C43.158 157.716 42.9265 157.822 42.7447 157.953L41.756 157.834L42.2844 153.538H46.8185V154.476H43.1708L42.864 157.05H42.9151C43.0941 156.908 43.3185 156.79 43.5884 156.696C43.8583 156.602 44.1396 156.555 44.4322 156.555C44.9663 156.555 45.4421 156.683 45.8597 156.939C46.2802 157.192 46.6097 157.538 46.8484 157.979C47.0898 158.419 47.2106 158.922 47.2106 159.487C47.2106 160.044 47.0856 160.541 46.8356 160.979C46.5884 161.413 46.2475 161.757 45.8129 162.01C45.3782 162.26 44.8839 162.385 44.3299 162.385ZM51.75 162.385C51.108 162.385 50.5611 162.21 50.1094 161.861C49.6577 161.509 49.3125 160.999 49.0739 160.331C48.8352 159.661 48.7159 158.851 48.7159 157.902C48.7159 156.959 48.8352 156.153 49.0739 155.486C49.3153 154.815 49.6619 154.304 50.1136 153.952C50.5682 153.597 51.1136 153.419 51.75 153.419C52.3864 153.419 52.9304 153.597 53.3821 153.952C53.8366 154.304 54.1832 154.815 54.4219 155.486C54.6634 156.153 54.7841 156.959 54.7841 157.902C54.7841 158.851 54.6648 159.661 54.4261 160.331C54.1875 160.999 53.8423 161.509 53.3906 161.861C52.9389 162.21 52.392 162.385 51.75 162.385ZM51.75 161.447C52.3864 161.447 52.8807 161.141 53.233 160.527C53.5852 159.913 53.7614 159.038 53.7614 157.902C53.7614 157.146 53.6804 156.503 53.5185 155.972C53.3594 155.44 53.1293 155.036 52.8281 154.757C52.5298 154.479 52.1705 154.339 51.75 154.339C51.1193 154.339 50.6264 154.651 50.2713 155.273C49.9162 155.892 49.7386 156.768 49.7386 157.902C49.7386 158.658 49.8182 159.3 49.9773 159.828C50.1364 160.357 50.3651 160.759 50.6634 161.034C50.9645 161.31 51.3267 161.447 51.75 161.447ZM59.25 162.385C58.608 162.385 58.0611 162.21 57.6094 161.861C57.1577 161.509 56.8125 160.999 56.5739 160.331C56.3352 159.661 56.2159 158.851 56.2159 157.902C56.2159 156.959 56.3352 156.153 56.5739 155.486C56.8153 154.815 57.1619 154.304 57.6136 153.952C58.0682 153.597 58.6136 153.419 59.25 153.419C59.8864 153.419 60.4304 153.597 60.8821 153.952C61.3366 154.304 61.6832 154.815 61.9219 155.486C62.1634 156.153 62.2841 156.959 62.2841 157.902C62.2841 158.851 62.1648 159.661 61.9261 160.331C61.6875 160.999 61.3423 161.509 60.8906 161.861C60.4389 162.21 59.892 162.385 59.25 162.385ZM59.25 161.447C59.8864 161.447 60.3807 161.141 60.733 160.527C61.0852 159.913 61.2614 159.038 61.2614 157.902C61.2614 157.146 61.1804 156.503 61.0185 155.972C60.8594 155.44 60.6293 155.036 60.3281 154.757C60.0298 154.479 59.6705 154.339 59.25 154.339C58.6193 154.339 58.1264 154.651 57.7713 155.273C57.4162 155.892 57.2386 156.768 57.2386 157.902C57.2386 158.658 57.3182 159.3 57.4773 159.828C57.6364 160.357 57.8651 160.759 58.1634 161.034C58.4645 161.31 58.8267 161.447 59.25 161.447Z" fill="#72777B"/>
<path d="M71 157.766H476" stroke="#E7EAEE"/>
<path d="M44.3299 194.319C43.8299 194.319 43.3796 194.219 42.979 194.02C42.5785 193.821 42.2575 193.549 42.016 193.202C41.7745 192.855 41.6424 192.461 41.6197 192.017H42.6424C42.6822 192.412 42.8612 192.739 43.1793 192.998C43.5004 193.253 43.8839 193.381 44.3299 193.381C44.6879 193.381 45.006 193.297 45.2844 193.13C45.5657 192.962 45.7859 192.732 45.945 192.439C46.1069 192.144 46.1879 191.81 46.1879 191.438C46.1879 191.057 46.104 190.718 45.9364 190.419C45.7717 190.118 45.5444 189.881 45.2546 189.708C44.9648 189.534 44.6339 189.446 44.2617 189.444C43.9947 189.441 43.7205 189.482 43.4393 189.567C43.158 189.65 42.9265 189.756 42.7447 189.887L41.756 189.767L42.2844 185.472H46.8185V186.409H43.1708L42.864 188.983H42.9151C43.0941 188.841 43.3185 188.723 43.5884 188.63C43.8583 188.536 44.1396 188.489 44.4322 188.489C44.9663 188.489 45.4421 188.617 45.8597 188.873C46.2802 189.125 46.6097 189.472 46.8484 189.912C47.0898 190.353 47.2106 190.855 47.2106 191.421C47.2106 191.978 47.0856 192.475 46.8356 192.912C46.5884 193.347 46.2475 193.691 45.8129 193.944C45.3782 194.194 44.8839 194.319 44.3299 194.319ZM51.75 194.319C51.108 194.319 50.5611 194.144 50.1094 193.794C49.6577 193.442 49.3125 192.932 49.0739 192.265C48.8352 191.594 48.7159 190.784 48.7159 189.836C48.7159 188.892 48.8352 188.087 49.0739 187.419C49.3153 186.749 49.6619 186.238 50.1136 185.885C50.5682 185.53 51.1136 185.353 51.75 185.353C52.3864 185.353 52.9304 185.53 53.3821 185.885C53.8366 186.238 54.1832 186.749 54.4219 187.419C54.6634 188.087 54.7841 188.892 54.7841 189.836C54.7841 190.784 54.6648 191.594 54.4261 192.265C54.1875 192.932 53.8423 193.442 53.3906 193.794C52.9389 194.144 52.392 194.319 51.75 194.319ZM51.75 193.381C52.3864 193.381 52.8807 193.074 53.233 192.461C53.5852 191.847 53.7614 190.972 53.7614 189.836C53.7614 189.08 53.6804 188.436 53.5185 187.905C53.3594 187.374 53.1293 186.969 52.8281 186.691C52.5298 186.412 52.1705 186.273 51.75 186.273C51.1193 186.273 50.6264 186.584 50.2713 187.206C49.9162 187.826 49.7386 188.702 49.7386 189.836C49.7386 190.591 49.8182 191.233 49.9773 191.762C50.1364 192.29 50.3651 192.692 50.6634 192.968C50.9645 193.243 51.3267 193.381 51.75 193.381ZM59.25 194.319C58.608 194.319 58.0611 194.144 57.6094 193.794C57.1577 193.442 56.8125 192.932 56.5739 192.265C56.3352 191.594 56.2159 190.784 56.2159 189.836C56.2159 188.892 56.3352 188.087 56.5739 187.419C56.8153 186.749 57.1619 186.238 57.6136 185.885C58.0682 185.53 58.6136 185.353 59.25 185.353C59.8864 185.353 60.4304 185.53 60.8821 185.885C61.3366 186.238 61.6832 186.749 61.9219 187.419C62.1634 188.087 62.2841 188.892 62.2841 189.836C62.2841 190.784 62.1648 191.594 61.9261 192.265C61.6875 192.932 61.3423 193.442 60.8906 193.794C60.4389 194.144 59.892 194.319 59.25 194.319ZM59.25 193.381C59.8864 193.381 60.3807 193.074 60.733 192.461C61.0852 191.847 61.2614 190.972 61.2614 189.836C61.2614 189.08 61.1804 188.436 61.0185 187.905C60.8594 187.374 60.6293 186.969 60.3281 186.691C60.0298 186.412 59.6705 186.273 59.25 186.273C58.6193 186.273 58.1264 186.584 57.7713 187.206C57.4162 187.826 57.2386 188.702 57.2386 189.836C57.2386 190.591 57.3182 191.233 57.4773 191.762C57.6364 192.29 57.8651 192.692 58.1634 192.968C58.4645 193.243 58.8267 193.381 59.25 193.381Z" fill="#72777B"/>
<path d="M71 189.699H476" stroke="#E7EAEE"/>
<path d="M41.837 226.133V225.366L44.7177 222.212C45.0558 221.843 45.3342 221.522 45.5529 221.249C45.7717 220.974 45.9336 220.715 46.0387 220.474C46.1467 220.229 46.2006 219.974 46.2006 219.707C46.2006 219.4 46.1268 219.134 45.979 218.91C45.8342 218.685 45.6353 218.512 45.3825 218.39C45.1296 218.268 44.8455 218.207 44.5302 218.207C44.195 218.207 43.9023 218.276 43.6523 218.415C43.4052 218.552 43.2134 218.744 43.0771 218.991C42.9435 219.238 42.8768 219.528 42.8768 219.86H41.8711C41.8711 219.349 41.989 218.9 42.2248 218.513C42.4606 218.127 42.7816 217.826 43.1879 217.61C43.5969 217.394 44.0558 217.286 44.5643 217.286C45.0756 217.286 45.5288 217.394 45.9237 217.61C46.3185 217.826 46.6282 218.117 46.8526 218.484C47.0771 218.85 47.1893 219.258 47.1893 219.707C47.1893 220.028 47.131 220.342 47.0146 220.648C46.9009 220.952 46.7021 221.292 46.418 221.667C46.1367 222.039 45.7461 222.494 45.2461 223.031L43.2859 225.127V225.195H47.3427V226.133H41.837ZM51.8299 226.252C51.3299 226.252 50.8796 226.153 50.479 225.954C50.0785 225.755 49.7575 225.482 49.516 225.136C49.2745 224.789 49.1424 224.394 49.1197 223.951H50.1424C50.1822 224.346 50.3612 224.673 50.6793 224.931C51.0004 225.187 51.3839 225.315 51.8299 225.315C52.1879 225.315 52.506 225.231 52.7844 225.063C53.0657 224.896 53.2859 224.665 53.445 224.373C53.6069 224.077 53.6879 223.744 53.6879 223.371C53.6879 222.991 53.604 222.651 53.4364 222.353C53.2717 222.052 53.0444 221.815 52.7546 221.641C52.4648 221.468 52.1339 221.38 51.7617 221.377C51.4947 221.374 51.2205 221.415 50.9393 221.501C50.658 221.583 50.4265 221.69 50.2447 221.82L49.256 221.701L49.7844 217.406H54.3185V218.343H50.6708L50.364 220.917H50.4151C50.5941 220.775 50.8185 220.657 51.0884 220.563C51.3583 220.469 51.6396 220.423 51.9322 220.423C52.4663 220.423 52.9421 220.55 53.3597 220.806C53.7802 221.059 54.1097 221.406 54.3484 221.846C54.5898 222.286 54.7106 222.789 54.7106 223.354C54.7106 223.911 54.5856 224.408 54.3356 224.846C54.0884 225.281 53.7475 225.624 53.3129 225.877C52.8782 226.127 52.3839 226.252 51.8299 226.252ZM59.25 226.252C58.608 226.252 58.0611 226.077 57.6094 225.728C57.1577 225.376 56.8125 224.866 56.5739 224.198C56.3352 223.528 56.2159 222.718 56.2159 221.769C56.2159 220.826 56.3352 220.021 56.5739 219.353C56.8153 218.683 57.1619 218.171 57.6136 217.819C58.0682 217.464 58.6136 217.286 59.25 217.286C59.8864 217.286 60.4304 217.464 60.8821 217.819C61.3366 218.171 61.6832 218.683 61.9219 219.353C62.1634 220.021 62.2841 220.826 62.2841 221.769C62.2841 222.718 62.1648 223.528 61.9261 224.198C61.6875 224.866 61.3423 225.376 60.8906 225.728C60.4389 226.077 59.892 226.252 59.25 226.252ZM59.25 225.315C59.8864 225.315 60.3807 225.008 60.733 224.394C61.0852 223.781 61.2614 222.906 61.2614 221.769C61.2614 221.013 61.1804 220.37 61.0185 219.839C60.8594 219.308 60.6293 218.903 60.3281 218.624C60.0298 218.346 59.6705 218.207 59.25 218.207C58.6193 218.207 58.1264 218.518 57.7713 219.14C57.4162 219.759 57.2386 220.636 57.2386 221.769C57.2386 222.525 57.3182 223.167 57.4773 223.695C57.6364 224.224 57.8651 224.626 58.1634 224.901C58.4645 225.177 58.8267 225.315 59.25 225.315Z" fill="#72777B"/>
<path d="M71 221.633H476" stroke="#E7EAEE"/>
<path d="M59.25 259.92C58.608 259.92 58.0611 259.745 57.6094 259.396C57.1577 259.044 56.8125 258.534 56.5739 257.866C56.3352 257.196 56.2159 256.386 56.2159 255.437C56.2159 254.494 56.3352 253.689 56.5739 253.021C56.8153 252.35 57.1619 251.839 57.6136 251.487C58.0682 251.132 58.6136 250.954 59.25 250.954C59.8864 250.954 60.4304 251.132 60.8821 251.487C61.3366 251.839 61.6832 252.35 61.9219 253.021C62.1634 253.689 62.2841 254.494 62.2841 255.437C62.2841 256.386 62.1648 257.196 61.9261 257.866C61.6875 258.534 61.3423 259.044 60.8906 259.396C60.4389 259.745 59.892 259.92 59.25 259.92ZM59.25 258.983C59.8864 258.983 60.3807 258.676 60.733 258.062C61.0852 257.449 61.2614 256.574 61.2614 255.437C61.2614 254.681 61.1804 254.038 61.0185 253.507C60.8594 252.975 60.6293 252.571 60.3281 252.292C60.0298 252.014 59.6705 251.875 59.25 251.875C58.6193 251.875 58.1264 252.186 57.7713 252.808C57.4162 253.427 57.2386 254.304 57.2386 255.437C57.2386 256.193 57.3182 256.835 57.4773 257.363C57.6364 257.892 57.8651 258.294 58.1634 258.569C58.4645 258.845 58.8267 258.983 59.25 258.983Z" fill="#72777B"/>
<rect x="71.5" y="61.5" width="404" height="195" stroke="#E7EAEE"/>
<rect x="71" y="228" width="10.2778" height="29" rx="1.5" fill="#0FCA7A"/>
<rect x="82.2773" y="210" width="10.2778" height="47" rx="1.5" fill="#0FCA7A"/>
<rect x="93.5547" y="199" width="10.2778" height="58" rx="1.5" fill="#0FCA7A"/>
<rect x="104.834" y="183" width="10.2778" height="74" rx="1.5" fill="#0FCA7A"/>
<rect x="116.111" y="165" width="10.2778" height="92" rx="1.5" fill="#0FCA7A"/>
<rect x="127.389" y="146" width="10.2778" height="111" rx="1.5" fill="#0FCA7A"/>
<rect x="138.666" y="128" width="10.2778" height="129" rx="1.5" fill="#0FCA7A"/>
<rect x="149.945" y="113" width="10.2778" height="144" rx="1.5" fill="#0FCA7A"/>
<rect x="161.223" y="86" width="10.2778" height="171" rx="1.5" fill="#0FCA7A"/>
<rect x="172.5" y="77" width="10.2778" height="180" rx="1.5" fill="#0FCA7A"/>
<rect x="183.777" y="101" width="10.2778" height="156" rx="1.5" fill="#0FCA7A"/>
<rect x="195.055" y="120" width="10.2778" height="137" rx="1.5" fill="#0FCA7A"/>
<rect x="206.334" y="131" width="10.2778" height="126" rx="1.5" fill="#0FCA7A"/>
<rect x="217.611" y="149" width="10.2778" height="108" rx="1.5" fill="#0FCA7A"/>
<rect x="228.889" y="165" width="10.2778" height="92" rx="1.5" fill="#0FCA7A"/>
<rect x="240.166" y="176" width="10.2778" height="81" rx="1.5" fill="#0FCA7A"/>
<rect x="251.445" y="188" width="10.2778" height="69" rx="1.5" fill="#0FCA7A"/>
<rect x="262.723" y="199" width="10.2778" height="58" rx="1.5" fill="#0FCA7A"/>
<rect x="274" y="206" width="10.2778" height="51" rx="1.5" fill="#0FCA7A"/>
<rect x="285.277" y="211" width="10.2778" height="46" rx="1.5" fill="#0FCA7A"/>
<rect x="296.555" y="226" width="10.2778" height="31" rx="1.5" fill="#0FCA7A"/>
<rect x="307.834" y="232" width="10.2778" height="25" rx="1.5" fill="#0FCA7A"/>
<rect x="319.111" y="224" width="10.2778" height="33" rx="1.5" fill="#0FCA7A"/>
<rect x="330.389" y="211" width="10.2778" height="46" rx="1.5" fill="#0FCA7A"/>
<rect x="341.666" y="199" width="10.2778" height="58" rx="1.5" fill="#0FCA7A"/>
<rect x="352.945" y="183" width="10.2778" height="74" rx="1.5" fill="#0FCA7A"/>
<rect x="364.223" y="176" width="10.2778" height="81" rx="1.5" fill="#0FCA7A"/>
<rect x="375.5" y="165" width="10.2778" height="92" rx="1.5" fill="#0FCA7A"/>
<rect x="386.777" y="161" width="10.2778" height="96" rx="1.5" fill="#0FCA7A"/>
<rect x="398.055" y="153" width="10.2778" height="104" rx="1.5" fill="#0FCA7A"/>
<rect x="409.334" y="140" width="10.2778" height="117" rx="1.5" fill="#0FCA7A"/>
<rect x="420.611" y="126" width="10.2778" height="131" rx="1.5" fill="#0FCA7A"/>
<rect x="431.889" y="118" width="10.2778" height="139" rx="1.5" fill="#0FCA7A"/>
<rect x="443.166" y="131" width="10.2778" height="126" rx="1.5" fill="#0FCA7A"/>
<rect x="454.445" y="161" width="10.2778" height="96" rx="1.5" fill="#0FCA7A"/>
<rect x="465.723" y="188" width="10.2778" height="69" rx="1.5" fill="#0FCA7A"/>
<path d="M74.75 272.119C74.108 272.119 73.5611 271.945 73.1094 271.595C72.6577 271.243 72.3125 270.733 72.0739 270.065C71.8352 269.395 71.7159 268.585 71.7159 267.636C71.7159 266.693 71.8352 265.888 72.0739 265.22C72.3153 264.55 72.6619 264.038 73.1136 263.686C73.5682 263.331 74.1136 263.153 74.75 263.153C75.3864 263.153 75.9304 263.331 76.3821 263.686C76.8366 264.038 77.1832 264.55 77.4219 265.22C77.6634 265.888 77.7841 266.693 77.7841 267.636C77.7841 268.585 77.6648 269.395 77.4261 270.065C77.1875 270.733 76.8423 271.243 76.3906 271.595C75.9389 271.945 75.392 272.119 74.75 272.119ZM74.75 271.182C75.3864 271.182 75.8807 270.875 76.233 270.261C76.5852 269.648 76.7614 268.773 76.7614 267.636C76.7614 266.881 76.6804 266.237 76.5185 265.706C76.3594 265.175 76.1293 264.77 75.8281 264.491C75.5298 264.213 75.1705 264.074 74.75 264.074C74.1193 264.074 73.6264 264.385 73.2713 265.007C72.9162 265.626 72.7386 266.503 72.7386 267.636C72.7386 268.392 72.8182 269.034 72.9773 269.562C73.1364 270.091 73.3651 270.493 73.6634 270.768C73.9645 271.044 74.3267 271.182 74.75 271.182Z" fill="#72777B"/>
<line x1="138" y1="257" x2="138" y2="61" stroke="#E7EAEE"/>
<path d="M142.472 263.273V272H141.415V264.381H141.364L139.233 265.795V264.722L141.415 263.273H142.472ZM147.828 272.119C147.186 272.119 146.639 271.945 146.188 271.595C145.736 271.243 145.391 270.733 145.152 270.065C144.913 269.395 144.794 268.585 144.794 267.636C144.794 266.693 144.913 265.888 145.152 265.22C145.393 264.55 145.74 264.038 146.192 263.686C146.646 263.331 147.192 263.153 147.828 263.153C148.464 263.153 149.009 263.331 149.46 263.686C149.915 264.038 150.261 264.55 150.5 265.22C150.741 265.888 150.862 266.693 150.862 267.636C150.862 268.585 150.743 269.395 150.504 270.065C150.266 270.733 149.92 271.243 149.469 271.595C149.017 271.945 148.47 272.119 147.828 272.119ZM147.828 271.182C148.464 271.182 148.959 270.875 149.311 270.261C149.663 269.648 149.839 268.773 149.839 267.636C149.839 266.881 149.759 266.237 149.597 265.706C149.438 265.175 149.207 264.77 148.906 264.491C148.608 264.213 148.249 264.074 147.828 264.074C147.197 264.074 146.705 264.385 146.349 265.007C145.994 265.626 145.817 266.503 145.817 267.636C145.817 268.392 145.896 269.034 146.055 269.562C146.214 270.091 146.443 270.493 146.741 270.768C147.043 271.044 147.405 271.182 147.828 271.182ZM155.328 272.119C154.686 272.119 154.139 271.945 153.688 271.595C153.236 271.243 152.891 270.733 152.652 270.065C152.413 269.395 152.294 268.585 152.294 267.636C152.294 266.693 152.413 265.888 152.652 265.22C152.893 264.55 153.24 264.038 153.692 263.686C154.146 263.331 154.692 263.153 155.328 263.153C155.964 263.153 156.509 263.331 156.96 263.686C157.415 264.038 157.761 264.55 158 265.22C158.241 265.888 158.362 266.693 158.362 267.636C158.362 268.585 158.243 269.395 158.004 270.065C157.766 270.733 157.42 271.243 156.969 271.595C156.517 271.945 155.97 272.119 155.328 272.119ZM155.328 271.182C155.964 271.182 156.459 270.875 156.811 270.261C157.163 269.648 157.339 268.773 157.339 267.636C157.339 266.881 157.259 266.237 157.097 265.706C156.938 265.175 156.707 264.77 156.406 264.491C156.108 264.213 155.749 264.074 155.328 264.074C154.697 264.074 154.205 264.385 153.849 265.007C153.494 265.626 153.317 266.503 153.317 267.636C153.317 268.392 153.396 269.034 153.555 269.562C153.714 270.091 153.943 270.493 154.241 270.768C154.543 271.044 154.905 271.182 155.328 271.182Z" fill="#72777B"/>
<line x1="205.5" y1="257" x2="205.5" y2="61" stroke="#E7EAEE"/>
<path d="M209.801 272.119C209.443 272.114 209.085 272.045 208.727 271.915C208.369 271.784 208.043 271.564 207.747 271.254C207.452 270.942 207.214 270.52 207.036 269.989C206.857 269.455 206.767 268.784 206.767 267.977C206.767 267.205 206.839 266.52 206.984 265.923C207.129 265.324 207.339 264.82 207.615 264.411C207.891 263.999 208.223 263.686 208.612 263.473C209.004 263.26 209.446 263.153 209.938 263.153C210.426 263.153 210.861 263.251 211.241 263.447C211.625 263.641 211.938 263.911 212.179 264.257C212.42 264.604 212.577 265.003 212.648 265.455H211.608C211.511 265.062 211.324 264.737 211.045 264.479C210.767 264.22 210.398 264.091 209.938 264.091C209.261 264.091 208.729 264.385 208.339 264.973C207.953 265.561 207.759 266.386 207.756 267.449H207.824C207.983 267.207 208.172 267.001 208.391 266.831C208.612 266.658 208.857 266.524 209.124 266.43C209.391 266.337 209.673 266.29 209.972 266.29C210.472 266.29 210.929 266.415 211.344 266.665C211.759 266.912 212.091 267.254 212.341 267.692C212.591 268.126 212.716 268.625 212.716 269.188C212.716 269.727 212.595 270.222 212.354 270.67C212.112 271.116 211.773 271.472 211.335 271.736C210.901 271.997 210.389 272.125 209.801 272.119ZM209.801 271.182C210.159 271.182 210.48 271.092 210.764 270.913C211.051 270.734 211.277 270.494 211.442 270.193C211.609 269.892 211.693 269.557 211.693 269.188C211.693 268.827 211.612 268.499 211.45 268.203C211.291 267.905 211.071 267.668 210.79 267.491C210.511 267.315 210.193 267.227 209.835 267.227C209.565 267.227 209.314 267.281 209.081 267.389C208.848 267.494 208.643 267.639 208.467 267.824C208.294 268.009 208.158 268.22 208.058 268.459C207.959 268.695 207.909 268.943 207.909 269.205C207.909 269.551 207.99 269.875 208.152 270.176C208.317 270.477 208.541 270.72 208.825 270.905C209.112 271.089 209.438 271.182 209.801 271.182ZM217.238 272.119C216.596 272.119 216.049 271.945 215.598 271.595C215.146 271.243 214.801 270.733 214.562 270.065C214.324 269.395 214.204 268.585 214.204 267.636C214.204 266.693 214.324 265.888 214.562 265.22C214.804 264.55 215.15 264.038 215.602 263.686C216.056 263.331 216.602 263.153 217.238 263.153C217.875 263.153 218.419 263.331 218.87 263.686C219.325 264.038 219.672 264.55 219.91 265.22C220.152 265.888 220.272 266.693 220.272 267.636C220.272 268.585 220.153 269.395 219.914 270.065C219.676 270.733 219.331 271.243 218.879 271.595C218.427 271.945 217.88 272.119 217.238 272.119ZM217.238 271.182C217.875 271.182 218.369 270.875 218.721 270.261C219.074 269.648 219.25 268.773 219.25 267.636C219.25 266.881 219.169 266.237 219.007 265.706C218.848 265.175 218.618 264.77 218.316 264.491C218.018 264.213 217.659 264.074 217.238 264.074C216.608 264.074 216.115 264.385 215.76 265.007C215.404 265.626 215.227 266.503 215.227 267.636C215.227 268.392 215.306 269.034 215.466 269.562C215.625 270.091 215.853 270.493 216.152 270.768C216.453 271.044 216.815 271.182 217.238 271.182ZM224.738 272.119C224.096 272.119 223.549 271.945 223.098 271.595C222.646 271.243 222.301 270.733 222.062 270.065C221.824 269.395 221.704 268.585 221.704 267.636C221.704 266.693 221.824 265.888 222.062 265.22C222.304 264.55 222.65 264.038 223.102 263.686C223.556 263.331 224.102 263.153 224.738 263.153C225.375 263.153 225.919 263.331 226.37 263.686C226.825 264.038 227.172 264.55 227.41 265.22C227.652 265.888 227.772 266.693 227.772 267.636C227.772 268.585 227.653 269.395 227.414 270.065C227.176 270.733 226.831 271.243 226.379 271.595C225.927 271.945 225.38 272.119 224.738 272.119ZM224.738 271.182C225.375 271.182 225.869 270.875 226.221 270.261C226.574 269.648 226.75 268.773 226.75 267.636C226.75 266.881 226.669 266.237 226.507 265.706C226.348 265.175 226.118 264.77 225.816 264.491C225.518 264.213 225.159 264.074 224.738 264.074C224.108 264.074 223.615 264.385 223.26 265.007C222.904 265.626 222.727 266.503 222.727 267.636C222.727 268.392 222.806 269.034 222.966 269.562C223.125 270.091 223.353 270.493 223.652 270.768C223.953 271.044 224.315 271.182 224.738 271.182Z" fill="#72777B"/>
<line x1="273" y1="257" x2="273" y2="61" stroke="#E7EAEE"/>
<path d="M274.676 272L278.58 264.278V264.21H274.08V263.273H279.67V264.261L275.784 272H274.676ZM283.918 272.119C283.276 272.119 282.729 271.945 282.277 271.595C281.826 271.243 281.48 270.733 281.242 270.065C281.003 269.395 280.884 268.585 280.884 267.636C280.884 266.693 281.003 265.888 281.242 265.22C281.483 264.55 281.83 264.038 282.282 263.686C282.736 263.331 283.282 263.153 283.918 263.153C284.554 263.153 285.098 263.331 285.55 263.686C286.005 264.038 286.351 264.55 286.59 265.22C286.831 265.888 286.952 266.693 286.952 267.636C286.952 268.585 286.833 269.395 286.594 270.065C286.355 270.733 286.01 271.243 285.559 271.595C285.107 271.945 284.56 272.119 283.918 272.119ZM283.918 271.182C284.554 271.182 285.049 270.875 285.401 270.261C285.753 269.648 285.929 268.773 285.929 267.636C285.929 266.881 285.848 266.237 285.686 265.706C285.527 265.175 285.297 264.77 284.996 264.491C284.698 264.213 284.338 264.074 283.918 264.074C283.287 264.074 282.794 264.385 282.439 265.007C282.084 265.626 281.907 266.503 281.907 267.636C281.907 268.392 281.986 269.034 282.145 269.562C282.304 270.091 282.533 270.493 282.831 270.768C283.132 271.044 283.495 271.182 283.918 271.182ZM291.418 272.119C290.776 272.119 290.229 271.945 289.777 271.595C289.326 271.243 288.98 270.733 288.742 270.065C288.503 269.395 288.384 268.585 288.384 267.636C288.384 266.693 288.503 265.888 288.742 265.22C288.983 264.55 289.33 264.038 289.782 263.686C290.236 263.331 290.782 263.153 291.418 263.153C292.054 263.153 292.598 263.331 293.05 263.686C293.505 264.038 293.851 264.55 294.09 265.22C294.331 265.888 294.452 266.693 294.452 267.636C294.452 268.585 294.333 269.395 294.094 270.065C293.855 270.733 293.51 271.243 293.059 271.595C292.607 271.945 292.06 272.119 291.418 272.119ZM291.418 271.182C292.054 271.182 292.549 270.875 292.901 270.261C293.253 269.648 293.429 268.773 293.429 267.636C293.429 266.881 293.348 266.237 293.186 265.706C293.027 265.175 292.797 264.77 292.496 264.491C292.198 264.213 291.838 264.074 291.418 264.074C290.787 264.074 290.294 264.385 289.939 265.007C289.584 265.626 289.407 266.503 289.407 267.636C289.407 268.392 289.486 269.034 289.645 269.562C289.804 270.091 290.033 270.493 290.331 270.768C290.632 271.044 290.995 271.182 291.418 271.182Z" fill="#72777B"/>
<line x1="340.5" y1="257" x2="340.5" y2="61" stroke="#E7EAEE"/>
<path d="M344.699 272.119C344.114 272.119 343.597 272.016 343.148 271.808C342.702 271.598 342.354 271.31 342.104 270.943C341.854 270.574 341.73 270.153 341.733 269.682C341.73 269.312 341.803 268.972 341.95 268.659C342.098 268.344 342.3 268.081 342.555 267.871C342.814 267.658 343.102 267.523 343.42 267.466V267.415C343.003 267.307 342.67 267.072 342.423 266.712C342.176 266.348 342.054 265.935 342.057 265.472C342.054 265.028 342.166 264.632 342.393 264.283C342.621 263.933 342.933 263.658 343.331 263.456C343.732 263.254 344.188 263.153 344.699 263.153C345.205 263.153 345.656 263.254 346.054 263.456C346.452 263.658 346.764 263.933 346.991 264.283C347.222 264.632 347.338 265.028 347.341 265.472C347.338 265.935 347.212 266.348 346.962 266.712C346.714 267.072 346.386 267.307 345.977 267.415V267.466C346.293 267.523 346.577 267.658 346.83 267.871C347.082 268.081 347.284 268.344 347.435 268.659C347.585 268.972 347.662 269.312 347.665 269.682C347.662 270.153 347.534 270.574 347.281 270.943C347.031 271.31 346.683 271.598 346.237 271.808C345.794 272.016 345.281 272.119 344.699 272.119ZM344.699 271.182C345.094 271.182 345.435 271.118 345.722 270.99C346.009 270.862 346.23 270.682 346.386 270.449C346.543 270.216 346.622 269.943 346.625 269.631C346.622 269.301 346.537 269.01 346.369 268.757C346.202 268.504 345.973 268.305 345.683 268.161C345.396 268.016 345.068 267.943 344.699 267.943C344.327 267.943 343.994 268.016 343.702 268.161C343.412 268.305 343.183 268.504 343.016 268.757C342.851 269.01 342.77 269.301 342.773 269.631C342.77 269.943 342.845 270.216 342.999 270.449C343.155 270.682 343.378 270.862 343.668 270.99C343.957 271.118 344.301 271.182 344.699 271.182ZM344.699 267.04C345.011 267.04 345.288 266.977 345.53 266.852C345.774 266.727 345.966 266.553 346.105 266.328C346.244 266.104 346.315 265.841 346.318 265.54C346.315 265.244 346.246 264.987 346.109 264.768C345.973 264.547 345.784 264.376 345.543 264.257C345.301 264.135 345.02 264.074 344.699 264.074C344.372 264.074 344.087 264.135 343.842 264.257C343.598 264.376 343.409 264.547 343.276 264.768C343.142 264.987 343.077 265.244 343.08 265.54C343.077 265.841 343.143 266.104 343.28 266.328C343.419 266.553 343.611 266.727 343.855 266.852C344.099 266.977 344.381 267.04 344.699 267.04ZM352.145 272.119C351.502 272.119 350.956 271.945 350.504 271.595C350.052 271.243 349.707 270.733 349.468 270.065C349.23 269.395 349.11 268.585 349.11 267.636C349.11 266.693 349.23 265.888 349.468 265.22C349.71 264.55 350.056 264.038 350.508 263.686C350.963 263.331 351.508 263.153 352.145 263.153C352.781 263.153 353.325 263.331 353.777 263.686C354.231 264.038 354.578 264.55 354.816 265.22C355.058 265.888 355.179 266.693 355.179 267.636C355.179 268.585 355.059 269.395 354.821 270.065C354.582 270.733 354.237 271.243 353.785 271.595C353.333 271.945 352.787 272.119 352.145 272.119ZM352.145 271.182C352.781 271.182 353.275 270.875 353.627 270.261C353.98 269.648 354.156 268.773 354.156 267.636C354.156 266.881 354.075 266.237 353.913 265.706C353.754 265.175 353.524 264.77 353.223 264.491C352.924 264.213 352.565 264.074 352.145 264.074C351.514 264.074 351.021 264.385 350.666 265.007C350.311 265.626 350.133 266.503 350.133 267.636C350.133 268.392 350.213 269.034 350.372 269.562C350.531 270.091 350.76 270.493 351.058 270.768C351.359 271.044 351.721 271.182 352.145 271.182ZM359.645 272.119C359.002 272.119 358.456 271.945 358.004 271.595C357.552 271.243 357.207 270.733 356.968 270.065C356.73 269.395 356.61 268.585 356.61 267.636C356.61 266.693 356.73 265.888 356.968 265.22C357.21 264.55 357.556 264.038 358.008 263.686C358.463 263.331 359.008 263.153 359.645 263.153C360.281 263.153 360.825 263.331 361.277 263.686C361.731 264.038 362.078 264.55 362.316 265.22C362.558 265.888 362.679 266.693 362.679 267.636C362.679 268.585 362.559 269.395 362.321 270.065C362.082 270.733 361.737 271.243 361.285 271.595C360.833 271.945 360.287 272.119 359.645 272.119ZM359.645 271.182C360.281 271.182 360.775 270.875 361.127 270.261C361.48 269.648 361.656 268.773 361.656 267.636C361.656 266.881 361.575 266.237 361.413 265.706C361.254 265.175 361.024 264.77 360.723 264.491C360.424 264.213 360.065 264.074 359.645 264.074C359.014 264.074 358.521 264.385 358.166 265.007C357.811 265.626 357.633 266.503 357.633 267.636C357.633 268.392 357.713 269.034 357.872 269.562C358.031 270.091 358.26 270.493 358.558 270.768C358.859 271.044 359.221 271.182 359.645 271.182Z" fill="#72777B"/>
<line x1="408" y1="257" x2="408" y2="61" stroke="#E7EAEE"/>
<path d="M412.182 263.153C412.54 263.156 412.898 263.224 413.256 263.358C413.614 263.491 413.94 263.713 414.236 264.023C414.531 264.33 414.768 264.749 414.947 265.28C415.126 265.811 415.216 266.477 415.216 267.278C415.216 268.054 415.142 268.743 414.994 269.345C414.849 269.945 414.639 270.45 414.364 270.862C414.091 271.274 413.759 271.587 413.366 271.8C412.977 272.013 412.537 272.119 412.045 272.119C411.557 272.119 411.121 272.023 410.737 271.83C410.357 271.634 410.044 271.362 409.8 271.016C409.558 270.666 409.403 270.261 409.335 269.801H410.375C410.469 270.202 410.655 270.533 410.933 270.794C411.214 271.053 411.585 271.182 412.045 271.182C412.719 271.182 413.25 270.888 413.639 270.3C414.031 269.712 414.227 268.881 414.227 267.807H414.159C414 268.045 413.811 268.251 413.592 268.425C413.374 268.598 413.131 268.732 412.864 268.825C412.597 268.919 412.313 268.966 412.011 268.966C411.511 268.966 411.053 268.842 410.635 268.595C410.22 268.345 409.888 268.003 409.638 267.568C409.391 267.131 409.267 266.631 409.267 266.068C409.267 265.534 409.386 265.045 409.625 264.602C409.866 264.156 410.205 263.801 410.639 263.537C411.077 263.273 411.591 263.145 412.182 263.153ZM412.182 264.091C411.824 264.091 411.501 264.18 411.214 264.359C410.93 264.536 410.705 264.774 410.537 265.075C410.372 265.374 410.29 265.705 410.29 266.068C410.29 266.432 410.369 266.763 410.528 267.061C410.69 267.357 410.911 267.592 411.189 267.768C411.47 267.942 411.79 268.028 412.148 268.028C412.418 268.028 412.669 267.976 412.902 267.871C413.135 267.763 413.338 267.616 413.511 267.432C413.688 267.244 413.825 267.033 413.925 266.797C414.024 266.558 414.074 266.31 414.074 266.051C414.074 265.71 413.991 265.391 413.827 265.092C413.665 264.794 413.44 264.553 413.153 264.368C412.869 264.183 412.545 264.091 412.182 264.091ZM419.738 272.119C419.096 272.119 418.549 271.945 418.098 271.595C417.646 271.243 417.301 270.733 417.062 270.065C416.824 269.395 416.704 268.585 416.704 267.636C416.704 266.693 416.824 265.888 417.062 265.22C417.304 264.55 417.65 264.038 418.102 263.686C418.556 263.331 419.102 263.153 419.738 263.153C420.375 263.153 420.919 263.331 421.37 263.686C421.825 264.038 422.172 264.55 422.41 265.22C422.652 265.888 422.772 266.693 422.772 267.636C422.772 268.585 422.653 269.395 422.414 270.065C422.176 270.733 421.831 271.243 421.379 271.595C420.927 271.945 420.38 272.119 419.738 272.119ZM419.738 271.182C420.375 271.182 420.869 270.875 421.221 270.261C421.574 269.648 421.75 268.773 421.75 267.636C421.75 266.881 421.669 266.237 421.507 265.706C421.348 265.175 421.118 264.77 420.816 264.491C420.518 264.213 420.159 264.074 419.738 264.074C419.108 264.074 418.615 264.385 418.26 265.007C417.904 265.626 417.727 266.503 417.727 267.636C417.727 268.392 417.806 269.034 417.966 269.562C418.125 270.091 418.353 270.493 418.652 270.768C418.953 271.044 419.315 271.182 419.738 271.182ZM427.238 272.119C426.596 272.119 426.049 271.945 425.598 271.595C425.146 271.243 424.801 270.733 424.562 270.065C424.324 269.395 424.204 268.585 424.204 267.636C424.204 266.693 424.324 265.888 424.562 265.22C424.804 264.55 425.15 264.038 425.602 263.686C426.056 263.331 426.602 263.153 427.238 263.153C427.875 263.153 428.419 263.331 428.87 263.686C429.325 264.038 429.672 264.55 429.91 265.22C430.152 265.888 430.272 266.693 430.272 267.636C430.272 268.585 430.153 269.395 429.914 270.065C429.676 270.733 429.331 271.243 428.879 271.595C428.427 271.945 427.88 272.119 427.238 272.119ZM427.238 271.182C427.875 271.182 428.369 270.875 428.721 270.261C429.074 269.648 429.25 268.773 429.25 267.636C429.25 266.881 429.169 266.237 429.007 265.706C428.848 265.175 428.618 264.77 428.316 264.491C428.018 264.213 427.659 264.074 427.238 264.074C426.608 264.074 426.115 264.385 425.76 265.007C425.404 265.626 425.227 266.503 425.227 267.636C425.227 268.392 425.306 269.034 425.466 269.562C425.625 270.091 425.853 270.493 426.152 270.768C426.453 271.044 426.815 271.182 427.238 271.182Z" fill="#72777B"/>
<path d="M27.022 167.534L28 167.534L28 172.412L19.402 172.412L19.402 171.254L27.022 171.254L27.022 167.534ZM25.264 162.706C25.28 163.198 25.32 163.618 25.384 163.966C25.444 164.31 25.524 164.592 25.624 164.812C25.724 165.028 25.842 165.186 25.978 165.286C26.114 165.382 26.266 165.43 26.434 165.43C26.594 165.43 26.732 165.404 26.848 165.352C26.964 165.3 27.06 165.23 27.136 165.142C27.208 165.05 27.262 164.944 27.298 164.824C27.33 164.7 27.346 164.568 27.346 164.428C27.346 164.24 27.328 164.068 27.292 163.912C27.252 163.756 27.196 163.61 27.124 163.474C27.052 163.334 26.966 163.202 26.866 163.078C26.766 162.95 26.652 162.826 26.524 162.706L25.264 162.706ZM22.78 166.156C22.456 165.82 22.214 165.458 22.054 165.07C21.894 164.682 21.814 164.252 21.814 163.78C21.814 163.44 21.87 163.138 21.982 162.874C22.094 162.61 22.25 162.388 22.45 162.208C22.65 162.028 22.892 161.892 23.176 161.8C23.46 161.708 23.772 161.662 24.112 161.662L28 161.662L28 162.136C28 162.24 27.984 162.32 27.952 162.376C27.916 162.432 27.848 162.476 27.748 162.508L27.172 162.628C27.32 162.788 27.452 162.944 27.568 163.096C27.68 163.248 27.776 163.408 27.856 163.576C27.932 163.744 27.99 163.924 28.03 164.116C28.074 164.304 28.096 164.514 28.096 164.746C28.096 164.982 28.064 165.204 28 165.412C27.932 165.62 27.832 165.802 27.7 165.958C27.568 166.11 27.402 166.232 27.202 166.324C26.998 166.412 26.758 166.456 26.482 166.456C26.242 166.456 26.012 166.39 25.792 166.258C25.568 166.126 25.37 165.912 25.198 165.616C25.026 165.32 24.886 164.934 24.778 164.458C24.666 163.982 24.602 163.398 24.586 162.706L24.112 162.706C23.64 162.706 23.284 162.808 23.044 163.012C22.8 163.216 22.678 163.514 22.678 163.906C22.678 164.17 22.712 164.392 22.78 164.572C22.844 164.748 22.918 164.902 23.002 165.034C23.082 165.162 23.156 165.274 23.224 165.37C23.288 165.462 23.32 165.554 23.32 165.646C23.32 165.718 23.302 165.78 23.266 165.832C23.226 165.884 23.178 165.928 23.122 165.964L22.78 166.156ZM26.536 158.461C26.8 158.265 26.986 158.051 27.094 157.819C27.202 157.583 27.256 157.325 27.256 157.045C27.256 156.473 27.054 156.035 26.65 155.731C26.246 155.427 25.644 155.275 24.844 155.275C24.1 155.275 23.554 155.411 23.206 155.683C22.854 155.951 22.678 156.335 22.678 156.835C22.678 157.183 22.758 157.487 22.918 157.747C23.078 158.003 23.304 158.241 23.596 158.461L26.536 158.461ZM22.798 158.461C22.502 158.205 22.266 157.917 22.09 157.597C21.914 157.273 21.826 156.901 21.826 156.481C21.826 156.125 21.894 155.805 22.03 155.521C22.166 155.233 22.364 154.989 22.624 154.789C22.88 154.589 23.192 154.437 23.56 154.333C23.928 154.225 24.342 154.171 24.802 154.171C25.294 154.171 25.742 154.231 26.146 154.351C26.55 154.471 26.896 154.645 27.184 154.873C27.468 155.097 27.69 155.371 27.85 155.695C28.006 156.019 28.084 156.383 28.084 156.787C28.084 157.187 28.01 157.525 27.862 157.801C27.71 158.073 27.496 158.311 27.22 158.515L27.772 158.569C27.924 158.601 28 158.693 28 158.845L28 159.535L19.162 159.535L19.162 158.461L22.798 158.461ZM24.298 148.252C24.05 148.252 23.824 148.288 23.62 148.36C23.412 148.428 23.234 148.53 23.086 148.666C22.934 148.798 22.818 148.96 22.738 149.152C22.654 149.344 22.612 149.562 22.612 149.806C22.612 150.318 22.762 150.724 23.062 151.024C23.358 151.32 23.77 151.504 24.298 151.576L24.298 148.252ZM27.148 147.388C27.308 147.52 27.448 147.678 27.568 147.862C27.684 148.046 27.78 148.244 27.856 148.456C27.932 148.664 27.988 148.88 28.024 149.104C28.064 149.328 28.084 149.55 28.084 149.77C28.084 150.19 28.014 150.578 27.874 150.934C27.73 151.286 27.522 151.592 27.25 151.852C26.974 152.108 26.634 152.308 26.23 152.452C25.826 152.596 25.362 152.668 24.838 152.668C24.414 152.668 24.018 152.604 23.65 152.476C23.282 152.344 22.964 152.156 22.696 151.912C22.424 151.668 22.212 151.37 22.06 151.018C21.904 150.666 21.826 150.27 21.826 149.83C21.826 149.466 21.888 149.13 22.012 148.822C22.132 148.51 22.308 148.242 22.54 148.018C22.768 147.79 23.052 147.612 23.392 147.484C23.728 147.356 24.112 147.292 24.544 147.292C24.712 147.292 24.824 147.31 24.88 147.346C24.936 147.382 24.964 147.45 24.964 147.55L24.964 151.612C25.348 151.6 25.682 151.548 25.966 151.456C26.25 151.36 26.488 151.228 26.68 151.06C26.868 150.892 27.01 150.692 27.106 150.46C27.198 150.228 27.244 149.968 27.244 149.68C27.244 149.412 27.214 149.182 27.154 148.99C27.09 148.794 27.022 148.626 26.95 148.486C26.878 148.346 26.812 148.23 26.752 148.138C26.688 148.042 26.656 147.96 26.656 147.892C26.656 147.804 26.69 147.736 26.758 147.688L27.148 147.388ZM19.162 144.376L28 144.376L28 145.444L19.162 145.444L19.162 144.376Z" fill="#2D2D2D"/>
<path d="M264.47 294.022V295H259.592V286.402H260.75V294.022H264.47ZM269.298 292.264C268.806 292.28 268.386 292.32 268.038 292.384C267.694 292.444 267.412 292.524 267.192 292.624C266.976 292.724 266.818 292.842 266.718 292.978C266.622 293.114 266.574 293.266 266.574 293.434C266.574 293.594 266.6 293.732 266.652 293.848C266.704 293.964 266.774 294.06 266.862 294.136C266.954 294.208 267.06 294.262 267.18 294.298C267.304 294.33 267.436 294.346 267.576 294.346C267.764 294.346 267.936 294.328 268.092 294.292C268.248 294.252 268.394 294.196 268.53 294.124C268.67 294.052 268.802 293.966 268.926 293.866C269.054 293.766 269.178 293.652 269.298 293.524V292.264ZM265.848 289.78C266.184 289.456 266.546 289.214 266.934 289.054C267.322 288.894 267.752 288.814 268.224 288.814C268.564 288.814 268.866 288.87 269.13 288.982C269.394 289.094 269.616 289.25 269.796 289.45C269.976 289.65 270.112 289.892 270.204 290.176C270.296 290.46 270.342 290.772 270.342 291.112V295H269.868C269.764 295 269.684 294.984 269.628 294.952C269.572 294.916 269.528 294.848 269.496 294.748L269.376 294.172C269.216 294.32 269.06 294.452 268.908 294.568C268.756 294.68 268.596 294.776 268.428 294.856C268.26 294.932 268.08 294.99 267.888 295.03C267.7 295.074 267.49 295.096 267.258 295.096C267.022 295.096 266.8 295.064 266.592 295C266.384 294.932 266.202 294.832 266.046 294.7C265.894 294.568 265.772 294.402 265.68 294.202C265.592 293.998 265.548 293.758 265.548 293.482C265.548 293.242 265.614 293.012 265.746 292.792C265.878 292.568 266.092 292.37 266.388 292.198C266.684 292.026 267.07 291.886 267.546 291.778C268.022 291.666 268.606 291.602 269.298 291.586V291.112C269.298 290.64 269.196 290.284 268.992 290.044C268.788 289.8 268.49 289.678 268.098 289.678C267.834 289.678 267.612 289.712 267.432 289.78C267.256 289.844 267.102 289.918 266.97 290.002C266.842 290.082 266.73 290.156 266.634 290.224C266.542 290.288 266.45 290.32 266.358 290.32C266.286 290.32 266.224 290.302 266.172 290.266C266.12 290.226 266.076 290.178 266.04 290.122L265.848 289.78ZM273.543 293.536C273.739 293.8 273.953 293.986 274.185 294.094C274.421 294.202 274.679 294.256 274.959 294.256C275.531 294.256 275.969 294.054 276.273 293.65C276.577 293.246 276.729 292.644 276.729 291.844C276.729 291.1 276.593 290.554 276.321 290.206C276.053 289.854 275.669 289.678 275.169 289.678C274.821 289.678 274.517 289.758 274.257 289.918C274.001 290.078 273.763 290.304 273.543 290.596V293.536ZM273.543 289.798C273.799 289.502 274.087 289.266 274.407 289.09C274.731 288.914 275.103 288.826 275.523 288.826C275.879 288.826 276.199 288.894 276.483 289.03C276.771 289.166 277.015 289.364 277.215 289.624C277.415 289.88 277.567 290.192 277.671 290.56C277.779 290.928 277.833 291.342 277.833 291.802C277.833 292.294 277.773 292.742 277.653 293.146C277.533 293.55 277.359 293.896 277.131 294.184C276.907 294.468 276.633 294.69 276.309 294.85C275.985 295.006 275.621 295.084 275.217 295.084C274.817 295.084 274.479 295.01 274.203 294.862C273.931 294.71 273.693 294.496 273.489 294.22L273.435 294.772C273.403 294.924 273.311 295 273.159 295H272.469V286.162H273.543V289.798ZM283.752 291.298C283.752 291.05 283.716 290.824 283.644 290.62C283.576 290.412 283.474 290.234 283.338 290.086C283.206 289.934 283.044 289.818 282.852 289.738C282.66 289.654 282.442 289.612 282.198 289.612C281.686 289.612 281.28 289.762 280.98 290.062C280.684 290.358 280.5 290.77 280.428 291.298H283.752ZM284.616 294.148C284.484 294.308 284.326 294.448 284.142 294.568C283.958 294.684 283.76 294.78 283.548 294.856C283.34 294.932 283.124 294.988 282.9 295.024C282.676 295.064 282.454 295.084 282.234 295.084C281.814 295.084 281.426 295.014 281.07 294.874C280.718 294.73 280.412 294.522 280.152 294.25C279.896 293.974 279.696 293.634 279.552 293.23C279.408 292.826 279.336 292.362 279.336 291.838C279.336 291.414 279.4 291.018 279.528 290.65C279.66 290.282 279.848 289.964 280.092 289.696C280.336 289.424 280.634 289.212 280.986 289.06C281.338 288.904 281.734 288.826 282.174 288.826C282.538 288.826 282.874 288.888 283.182 289.012C283.494 289.132 283.762 289.308 283.986 289.54C284.214 289.768 284.392 290.052 284.52 290.392C284.648 290.728 284.712 291.112 284.712 291.544C284.712 291.712 284.694 291.824 284.658 291.88C284.622 291.936 284.554 291.964 284.454 291.964H280.392C280.404 292.348 280.456 292.682 280.548 292.966C280.644 293.25 280.776 293.488 280.944 293.68C281.112 293.868 281.312 294.01 281.544 294.106C281.776 294.198 282.036 294.244 282.324 294.244C282.592 294.244 282.822 294.214 283.014 294.154C283.21 294.09 283.378 294.022 283.518 293.95C283.658 293.878 283.774 293.812 283.866 293.752C283.962 293.688 284.044 293.656 284.112 293.656C284.2 293.656 284.268 293.69 284.316 293.758L284.616 294.148ZM287.628 286.162V295H286.56V286.162H287.628Z" fill="#2D2D2D"/>
</svg>
