<svg width="406" height="359" viewBox="0 0 406 359" fill="none" xmlns="http://www.w3.org/2000/svg">
<g filter="url(#filter0_dd_989_11848)">
<rect x="3" y="2.03125" width="400" height="352.518" rx="5.7554" fill="white"/>
<path d="M3 7.78665C3 4.60803 5.57678 2.03125 8.7554 2.03125H397.245C400.423 2.03125 403 4.60803 403 7.78665V42.319H3V7.78665Z" fill="white"/>
<path d="M20.5505 18.7164V17.4538H27.744V18.7164H24.9145V26.8164H23.516V18.7164H20.5505ZM30.7007 26.9459C30.0748 26.9459 29.5266 26.8121 29.0561 26.5445C28.5899 26.2725 28.2273 25.8797 27.9683 25.366C27.7137 24.8524 27.5863 24.2308 27.5863 23.5013C27.5863 22.7977 27.7072 22.1826 27.9489 21.656C28.195 21.1294 28.5511 20.7214 29.0173 20.4322C29.4834 20.1387 30.0468 19.9919 30.7072 19.9919C31.3374 19.9919 31.8834 20.1301 32.3453 20.4063C32.8072 20.6783 33.1655 21.0776 33.4201 21.6042C33.6748 22.1265 33.8021 22.7589 33.8021 23.5013C33.8021 24.179 33.6813 24.7768 33.4396 25.2948C33.2021 25.8128 32.8525 26.2186 32.3906 26.5121C31.9331 26.8013 31.3698 26.9459 30.7007 26.9459ZM30.7072 25.8776C31.087 25.8776 31.4043 25.7783 31.659 25.5797C31.918 25.3768 32.1122 25.0941 32.2417 24.7315C32.3712 24.3646 32.436 23.9416 32.436 23.4624C32.436 23.0178 32.3777 22.6142 32.2611 22.2517C32.1489 21.8848 31.9655 21.5934 31.7108 21.3776C31.4561 21.1617 31.1216 21.0538 30.7072 21.0538C30.3187 21.0538 29.995 21.1531 29.736 21.3517C29.477 21.5459 29.2806 21.8243 29.1468 22.1869C29.0173 22.5452 28.9525 22.9704 28.9525 23.4624C28.9525 23.8984 29.0108 24.2999 29.1273 24.6668C29.2439 25.0337 29.4316 25.3272 29.6906 25.5473C29.9496 25.7675 30.2885 25.8776 30.7072 25.8776ZM38.5996 21.1186H37.0974L37.1039 25.1135C37.1039 25.3337 37.1255 25.4955 37.1686 25.5991C37.2161 25.6984 37.2938 25.7632 37.4017 25.7934C37.514 25.8193 37.6651 25.8322 37.855 25.8322H38.6384V26.7322C38.5521 26.7668 38.4226 26.797 38.2499 26.8229C38.0816 26.8488 37.8636 26.8617 37.596 26.8617C37.0996 26.8617 36.7133 26.7948 36.437 26.661C36.1651 26.5272 35.9751 26.3351 35.8672 26.0848C35.7636 25.8301 35.7118 25.5236 35.7118 25.1653V21.1186H34.624V20.1214H35.7507L36.0938 18.1531H37.0974V20.115H38.5996V21.1186ZM42.0089 26.9459C41.5772 26.9459 41.1931 26.8682 40.8564 26.7128C40.524 26.5574 40.2628 26.333 40.0729 26.0394C39.883 25.7459 39.788 25.3919 39.788 24.9776C39.788 24.2351 40.0513 23.6804 40.5779 23.3135C41.1046 22.9466 41.9441 22.7524 43.0967 22.7308L44.1974 22.6984V22.2128C44.1974 21.8286 44.083 21.5265 43.8542 21.3063C43.6254 21.0862 43.2736 20.9783 42.7988 20.9826C42.4405 20.9826 42.1211 21.0646 41.8405 21.2286C41.5643 21.3927 41.383 21.6624 41.2966 22.038H40.0923C40.1182 21.5934 40.2456 21.22 40.4743 20.9178C40.7074 20.6114 41.0269 20.3804 41.4326 20.225C41.8384 20.0696 42.3154 19.9919 42.8636 19.9919C43.4722 19.9919 43.9729 20.0761 44.3657 20.2445C44.7585 20.4085 45.0499 20.6502 45.2398 20.9696C45.4341 21.2891 45.5312 21.6776 45.5312 22.1351V26.8164H44.3592L44.2492 25.5862C43.9988 26.0999 43.6815 26.456 43.2974 26.6545C42.9175 26.8488 42.488 26.9459 42.0089 26.9459ZM42.4427 25.9812C42.6542 25.9812 42.8636 25.9445 43.0708 25.8711C43.2779 25.7934 43.4657 25.6898 43.6341 25.5603C43.8024 25.4265 43.9362 25.2776 44.0355 25.1135C44.1391 24.9495 44.1931 24.7812 44.1974 24.6085V23.5013L43.2909 23.5207C42.829 23.525 42.4362 23.5725 42.1125 23.6632C41.7931 23.7538 41.547 23.8941 41.3743 24.084C41.206 24.274 41.1218 24.5265 41.1218 24.8416C41.1218 25.1999 41.247 25.4804 41.4974 25.6833C41.7477 25.8819 42.0628 25.9812 42.4427 25.9812ZM49.2268 26.9071C48.8297 26.9071 48.5102 26.8553 48.2685 26.7517C48.0311 26.6481 47.8498 26.5099 47.7246 26.3373C47.5994 26.1603 47.5153 25.9617 47.4721 25.7416C47.4333 25.5171 47.4138 25.2862 47.4138 25.0488V17.1948H48.78V24.9063C48.78 25.2171 48.8405 25.4545 48.9613 25.6186C49.0865 25.7826 49.2764 25.8754 49.5311 25.897L49.8807 25.9099V26.7905C49.7728 26.825 49.6606 26.8531 49.5441 26.8747C49.4318 26.8963 49.3261 26.9071 49.2268 26.9071ZM54.1512 28.9013V20.1214H55.5368L55.5498 21.2351C55.6318 21.0883 55.7375 20.9437 55.867 20.8013C55.9965 20.6545 56.1498 20.5207 56.3267 20.3999C56.508 20.2747 56.7131 20.1754 56.9418 20.102C57.1749 20.0286 57.4318 19.9919 57.7123 19.9919C58.239 19.9919 58.703 20.115 59.1044 20.361C59.5102 20.6027 59.8253 20.9761 60.0498 21.4812C60.2785 21.9819 60.3929 22.6186 60.3929 23.3912C60.3929 24.1682 60.2785 24.82 60.0498 25.3466C59.8253 25.8732 59.5037 26.2725 59.085 26.5445C58.6663 26.8121 58.1699 26.9459 57.5958 26.9459C57.3195 26.9459 57.0713 26.9071 56.8512 26.8294C56.631 26.7517 56.4368 26.6502 56.2685 26.525C56.1001 26.3955 55.9555 26.2574 55.8346 26.1107C55.7181 25.9596 55.621 25.8107 55.5433 25.6639V28.9013H54.1512ZM57.3044 25.8905C57.8181 25.8905 58.239 25.6919 58.567 25.2948C58.8994 24.8934 59.0656 24.2675 59.0656 23.4171C59.0656 22.6876 58.9123 22.1114 58.6059 21.6883C58.3037 21.261 57.8699 21.0473 57.3044 21.0473C56.7217 21.0473 56.2814 21.2696 55.9836 21.7142C55.6857 22.1545 55.5368 22.7222 55.5368 23.4171C55.5368 23.8704 55.6016 24.2848 55.731 24.6603C55.8649 25.0315 56.0634 25.3294 56.3267 25.5538C56.59 25.7783 56.9159 25.8905 57.3044 25.8905ZM61.8132 26.8164V20.1214H63.1406V21.4941C63.2528 21.166 63.4082 20.8919 63.6068 20.6718C63.8096 20.4473 64.0449 20.279 64.3125 20.1668C64.5801 20.0502 64.8629 19.9919 65.1607 19.9919C65.2514 19.9919 65.3377 19.9984 65.4197 20.0114C65.5017 20.02 65.5665 20.0373 65.614 20.0632V21.397C65.5578 21.3711 65.4845 21.3538 65.3938 21.3452C65.3075 21.3365 65.2319 21.3301 65.1672 21.3258C64.8737 21.3042 64.606 21.3193 64.3643 21.3711C64.1226 21.4229 63.9132 21.5092 63.7363 21.6301C63.5636 21.7509 63.4298 21.9085 63.3348 22.1027C63.2442 22.297 63.1988 22.5258 63.1988 22.7891V26.8164H61.8132ZM69.4378 26.9459C68.8119 26.9459 68.2637 26.8121 67.7932 26.5445C67.327 26.2725 66.9645 25.8797 66.7055 25.366C66.4508 24.8524 66.3234 24.2308 66.3234 23.5013C66.3234 22.7977 66.4443 22.1826 66.686 21.656C66.9321 21.1294 67.2882 20.7214 67.7544 20.4322C68.2206 20.1387 68.7839 19.9919 69.4443 19.9919C70.0745 19.9919 70.6206 20.1301 71.0824 20.4063C71.5443 20.6783 71.9026 21.0776 72.1573 21.6042C72.4119 22.1265 72.5393 22.7589 72.5393 23.5013C72.5393 24.179 72.4184 24.7768 72.1767 25.2948C71.9393 25.8128 71.5896 26.2186 71.1278 26.5121C70.6702 26.8013 70.1069 26.9459 69.4378 26.9459ZM69.4443 25.8776C69.8242 25.8776 70.1414 25.7783 70.3961 25.5797C70.6551 25.3768 70.8493 25.0941 70.9788 24.7315C71.1083 24.3646 71.1731 23.9416 71.1731 23.4624C71.1731 23.0178 71.1148 22.6142 70.9983 22.2517C70.886 21.8848 70.7026 21.5934 70.4479 21.3776C70.1932 21.1617 69.8587 21.0538 69.4443 21.0538C69.0558 21.0538 68.7321 21.1531 68.4731 21.3517C68.2141 21.5459 68.0177 21.8243 67.8839 22.1869C67.7544 22.5452 67.6896 22.9704 67.6896 23.4624C67.6896 23.8984 67.7479 24.2999 67.8645 24.6668C67.981 25.0337 68.1688 25.3272 68.4278 25.5473C68.6868 25.7675 69.0256 25.8776 69.4443 25.8776ZM77.5504 20.1214V21.1186H75.9835V26.8164H74.5914V21.1186H73.2252V20.1214H74.5914V19.1049C74.5914 18.5696 74.7338 18.1617 75.0187 17.8812C75.3036 17.5963 75.7223 17.4538 76.2748 17.4538H77.6087L77.6151 18.4121H76.6504C76.3828 18.4121 76.1993 18.4833 76.1 18.6258C76.0051 18.7639 75.9576 18.9776 75.9576 19.2668V20.1214H77.5504ZM80.3864 20.1214V26.8164H79.0525V20.1214H80.3864ZM80.4123 17.4603V18.8265H79.0202V17.4603H80.4123ZM85.9725 21.1186H84.4703L84.4768 25.1135C84.4768 25.3337 84.4984 25.4955 84.5416 25.5991C84.589 25.6984 84.6667 25.7632 84.7747 25.7934C84.8869 25.8193 85.038 25.8322 85.2279 25.8322H86.0114V26.7322C85.925 26.7668 85.7955 26.797 85.6229 26.8229C85.4545 26.8488 85.2365 26.8617 84.9689 26.8617C84.4725 26.8617 84.0862 26.7948 83.8099 26.661C83.538 26.5272 83.348 26.3351 83.2401 26.0848C83.1365 25.8301 83.0847 25.5236 83.0847 25.1653V21.1186H81.997V20.1214H83.1236L83.4667 18.1531H84.4703V20.115H85.9725V21.1186Z" fill="#172733"/>
<rect width="400" height="0.719424" transform="translate(3 41.5977)" fill="#DDE3E7"/>
<path d="M25.3265 63.2231H29.7078V63.9138C29.4862 64.2159 29.266 64.5598 29.0473 64.9454C28.8315 65.3282 28.6257 65.7296 28.4301 66.1497C28.2344 66.567 28.0588 66.98 27.9034 67.3886C27.748 67.7943 27.6185 68.1771 27.515 68.5368C27.4142 68.8936 27.3495 69.203 27.3207 69.4648H26.4531C26.4991 69.18 26.5811 68.8274 26.6991 68.4073C26.82 67.9871 26.9783 67.5282 27.1739 67.0303C27.3696 66.5296 27.6056 66.013 27.8819 65.4807C28.1581 64.9483 28.4747 64.426 28.8315 63.9138H25.3265V63.2231ZM31.12 63.2231H34.8452L34.8236 63.9138H31.802L31.6423 65.9296C31.8495 65.7368 32.0754 65.6001 32.32 65.5195C32.5675 65.4361 32.8351 65.3943 33.1229 65.3943C33.4999 65.3943 33.8466 65.472 34.1632 65.6274C34.4826 65.78 34.7387 66.0073 34.9315 66.3094C35.1243 66.6087 35.2207 66.98 35.2207 67.4231C35.2207 67.8548 35.1272 68.2303 34.9402 68.5497C34.7531 68.8692 34.4898 69.1181 34.1502 69.2965C33.8107 69.472 33.4121 69.5598 32.9545 69.5598C32.5689 69.5598 32.2121 69.4922 31.884 69.3569C31.556 69.2217 31.274 69.0332 31.038 68.7915C30.8049 68.5497 30.6337 68.272 30.5243 67.9584L31.215 67.6692C31.3186 67.9051 31.4481 68.1152 31.6035 68.2994C31.7617 68.4835 31.9488 68.6274 32.1646 68.731C32.3804 68.8346 32.625 68.8864 32.8984 68.8864C33.3416 68.8864 33.697 68.7584 33.9646 68.5023C34.2351 68.2433 34.3704 67.8922 34.3704 67.449C34.3704 67.1728 34.3071 66.9325 34.1804 66.7282C34.0538 66.521 33.8826 66.3598 33.6668 66.2447C33.4538 66.1296 33.2179 66.072 32.9589 66.072C32.7891 66.072 32.6308 66.0879 32.484 66.1195C32.3373 66.1483 32.192 66.2059 32.0481 66.2922C31.9042 66.3785 31.7531 66.5094 31.5948 66.685C31.5776 66.6936 31.5646 66.6979 31.556 66.6979C31.5473 66.6951 31.533 66.6893 31.5128 66.6807L30.8394 66.4692L31.12 63.2231ZM36.465 69.4648V63.2231H37.57L39.452 68.3771L41.3599 63.2231H42.4607V69.4648H41.6362V64.4188L39.8276 69.4648H39.0808L37.2851 64.4663V69.4648H36.465Z" fill="#6E7880"/>
<rect x="54.7988" y="66.6055" width="330.935" height="0.719424" fill="#DDE3E7"/>
<path d="M25.8339 134.622H29.5591L29.5375 135.312H26.5159L26.3562 137.328C26.5634 137.135 26.7893 136.999 27.0339 136.918C27.2814 136.835 27.549 136.793 27.8368 136.793C28.2138 136.793 28.5605 136.87 28.8771 137.026C29.1965 137.178 29.4526 137.406 29.6454 137.708C29.8382 138.007 29.9346 138.378 29.9346 138.822C29.9346 139.253 29.8411 139.629 29.6541 139.948C29.467 140.268 29.2037 140.517 28.8641 140.695C28.5246 140.87 28.126 140.958 27.6685 140.958C27.2828 140.958 26.926 140.891 26.598 140.755C26.2699 140.62 25.9879 140.432 25.7519 140.19C25.5188 139.948 25.3476 139.67 25.2382 139.357L25.9289 139.068C26.0325 139.304 26.162 139.514 26.3174 139.698C26.4757 139.882 26.6627 140.026 26.8785 140.129C27.0944 140.233 27.339 140.285 27.6123 140.285C28.0555 140.285 28.4109 140.157 28.6785 139.901C28.949 139.642 29.0843 139.291 29.0843 138.847C29.0843 138.571 29.021 138.331 28.8944 138.127C28.7677 137.919 28.5965 137.758 28.3807 137.643C28.1677 137.528 27.9318 137.47 27.6728 137.47C27.503 137.47 27.3447 137.486 27.198 137.518C27.0512 137.547 26.9059 137.604 26.762 137.691C26.6181 137.777 26.467 137.908 26.3087 138.083C26.2915 138.092 26.2785 138.096 26.2699 138.096C26.2613 138.093 26.2469 138.088 26.2267 138.079L25.5533 137.868L25.8339 134.622ZM33.0005 134.535C33.6767 134.535 34.2149 134.807 34.6149 135.351C35.0177 135.892 35.2192 136.693 35.2192 137.755C35.2192 138.811 35.0192 139.61 34.6192 140.151C34.2192 140.689 33.6767 140.958 32.9918 140.958C32.3098 140.958 31.7688 140.691 31.3688 140.155C30.9688 139.617 30.7688 138.822 30.7688 137.768C30.7688 137.058 30.8609 136.462 31.0451 135.981C31.2292 135.501 31.4882 135.14 31.8221 134.898C32.1559 134.656 32.5487 134.535 33.0005 134.535ZM33.0005 140.268C33.4465 140.268 33.7832 140.072 34.0105 139.681C34.2408 139.286 34.3559 138.646 34.3559 137.76C34.3559 136.856 34.2393 136.206 34.0062 135.809C33.776 135.409 33.4393 135.209 32.9962 135.209C32.5559 135.209 32.2163 135.41 31.9775 135.813C31.7415 136.213 31.6235 136.862 31.6235 137.76C31.6235 138.643 31.7415 139.282 31.9775 139.676C32.2134 140.07 32.5544 140.268 33.0005 140.268ZM36.465 140.863V134.622H37.57L39.452 139.776L41.3599 134.622H42.4607V140.863H41.6362V135.817L39.8276 140.863H39.0808L37.2851 135.865V140.863H36.465Z" fill="#6E7880"/>
<rect x="54.7988" y="138.004" width="330.935" height="0.719424" fill="#DDE3E7"/>
<path d="M25.5024 212.262V211.774V211.519C25.5024 211.2 25.5614 210.924 25.6794 210.69C25.8003 210.457 25.9585 210.255 26.1542 210.082C26.3528 209.906 26.5686 209.749 26.8017 209.611C27.0377 209.473 27.2722 209.341 27.5053 209.214C27.7413 209.085 27.9571 208.951 28.1528 208.813C28.3485 208.672 28.5053 208.514 28.6233 208.338C28.7442 208.16 28.8046 207.949 28.8046 207.708C28.8046 207.391 28.6924 207.134 28.4679 206.935C28.2463 206.737 27.9456 206.637 27.5657 206.637C27.1571 206.637 26.829 206.752 26.5816 206.983C26.3341 207.213 26.1945 207.519 26.1629 207.902H25.3686C25.3772 207.542 25.4665 207.214 25.6362 206.918C25.806 206.619 26.0549 206.38 26.383 206.201C26.7111 206.023 27.1154 205.934 27.596 205.934C28.0132 205.934 28.3758 206.008 28.6837 206.158C28.9916 206.305 29.229 206.512 29.396 206.78C29.5657 207.044 29.6506 207.354 29.6506 207.708C29.6506 208.03 29.5916 208.306 29.4737 208.537C29.3557 208.767 29.1988 208.967 29.0031 209.137C28.8103 209.303 28.5988 209.453 28.3686 209.585C28.1384 209.718 27.9067 209.846 27.6737 209.97C27.4406 210.09 27.2276 210.219 27.0348 210.354C26.842 210.486 26.6866 210.639 26.5686 210.811C26.4506 210.984 26.3916 211.19 26.3916 211.429V211.554H29.6852V212.262H25.5024ZM31.12 206.02H34.8452L34.8236 206.711H31.802L31.6423 208.726C31.8495 208.534 32.0754 208.397 32.32 208.316C32.5675 208.233 32.8351 208.191 33.1229 208.191C33.4999 208.191 33.8466 208.269 34.1632 208.424C34.4826 208.577 34.7387 208.804 34.9315 209.106C35.1243 209.406 35.2207 209.777 35.2207 210.22C35.2207 210.652 35.1272 211.027 34.9402 211.347C34.7531 211.666 34.4898 211.915 34.1502 212.093C33.8107 212.269 33.4121 212.357 32.9545 212.357C32.5689 212.357 32.2121 212.289 31.884 212.154C31.556 212.019 31.274 211.83 31.038 211.588C30.8049 211.347 30.6337 211.069 30.5243 210.755L31.215 210.466C31.3186 210.702 31.4481 210.912 31.6035 211.096C31.7617 211.28 31.9488 211.424 32.1646 211.528C32.3804 211.632 32.625 211.683 32.8984 211.683C33.3416 211.683 33.697 211.555 33.9646 211.299C34.2351 211.04 34.3704 210.689 34.3704 210.246C34.3704 209.97 34.3071 209.729 34.1804 209.525C34.0538 209.318 33.8826 209.157 33.6668 209.042C33.4538 208.926 33.2179 208.869 32.9589 208.869C32.7891 208.869 32.6308 208.885 32.484 208.916C32.3373 208.945 32.192 209.003 32.0481 209.089C31.9042 209.175 31.7531 209.306 31.5948 209.482C31.5776 209.49 31.5646 209.495 31.556 209.495C31.5473 209.492 31.533 209.486 31.5128 209.478L30.8394 209.266L31.12 206.02ZM36.465 212.262V206.02H37.57L39.452 211.174L41.3599 206.02H42.4607V212.262H41.6362V207.216L39.8276 212.262H39.0808L37.2851 207.263V212.262H36.465Z" fill="#6E7880"/>
<rect x="54.7988" y="209.402" width="330.935" height="0.719424" fill="#DDE3E7"/>
<path d="M40.6472 277.332C41.3234 277.332 41.8616 277.604 42.2616 278.148C42.6644 278.689 42.8659 279.49 42.8659 280.552C42.8659 281.608 42.6659 282.407 42.2659 282.948C41.8659 283.486 41.3234 283.755 40.6385 283.755C39.9565 283.755 39.4155 283.487 39.0155 282.952C38.6155 282.414 38.4155 281.618 38.4155 280.565C38.4155 279.854 38.5076 279.259 38.6918 278.778C38.8759 278.298 39.1349 277.936 39.4688 277.695C39.8026 277.453 40.1954 277.332 40.6472 277.332ZM40.6472 283.064C41.0932 283.064 41.4299 282.869 41.6572 282.477C41.8875 282.083 42.0026 281.443 42.0026 280.557C42.0026 279.653 41.886 279.003 41.6529 278.605C41.4227 278.205 41.086 278.005 40.6429 278.005C40.2026 278.005 39.863 278.207 39.6241 278.61C39.3882 279.01 39.2702 279.659 39.2702 280.557C39.2702 281.44 39.3882 282.079 39.6241 282.473C39.8601 282.867 40.2011 283.064 40.6472 283.064Z" fill="#6E7880"/>
<rect x="54.7988" y="284.941" width="330.935" height="0.719424" fill="#C7CFD5"/>
<path d="M56.4877 304.355V303.868V303.613C56.4877 303.294 56.5467 303.017 56.6647 302.784C56.7855 302.551 56.9438 302.348 57.1395 302.176C57.338 302 57.5539 301.843 57.787 301.705C58.0229 301.567 58.2575 301.435 58.4906 301.308C58.7265 301.178 58.9424 301.045 59.138 300.907C59.3337 300.766 59.4906 300.607 59.6086 300.432C59.7294 300.253 59.7898 300.043 59.7898 299.802C59.7898 299.485 59.6776 299.227 59.4532 299.029C59.2316 298.83 58.9309 298.731 58.551 298.731C58.1424 298.731 57.8143 298.846 57.5668 299.076C57.3193 299.307 57.1798 299.613 57.1481 299.996H56.3539C56.3625 299.636 56.4517 299.308 56.6215 299.012C56.7913 298.712 57.0402 298.473 57.3683 298.295C57.6963 298.117 58.1006 298.027 58.5812 298.027C58.9985 298.027 59.3611 298.102 59.669 298.252C59.9769 298.399 60.2143 298.606 60.3812 298.873C60.551 299.138 60.6359 299.448 60.6359 299.802C60.6359 300.124 60.5769 300.4 60.4589 300.63C60.3409 300.861 60.1841 301.061 59.9884 301.23C59.7956 301.397 59.5841 301.547 59.3539 301.679C59.1237 301.812 58.892 301.94 58.6589 302.063C58.4258 302.184 58.2129 302.312 58.0201 302.448C57.8273 302.58 57.6719 302.732 57.5539 302.905C57.4359 303.078 57.3769 303.284 57.3769 303.522V303.648H60.6704V304.355H56.4877ZM63.7412 298.027C64.4175 298.027 64.9556 298.299 65.3556 298.843C65.7585 299.384 65.9599 300.186 65.9599 301.248C65.9599 302.304 65.7599 303.102 65.3599 303.643C64.9599 304.181 64.4175 304.45 63.7326 304.45C63.0506 304.45 62.5096 304.183 62.1096 303.648C61.7096 303.109 61.5096 302.314 61.5096 301.261C61.5096 300.55 61.6017 299.954 61.7858 299.473C61.97 298.993 62.229 298.632 62.5628 298.39C62.8966 298.148 63.2894 298.027 63.7412 298.027ZM63.7412 303.76C64.1873 303.76 64.524 303.564 64.7513 303.173C64.9815 302.778 65.0966 302.138 65.0966 301.252C65.0966 300.348 64.9801 299.698 64.747 299.301C64.5168 298.901 64.1801 298.701 63.7369 298.701C63.2966 298.701 62.9571 298.902 62.7182 299.305C62.4822 299.705 62.3643 300.354 62.3643 301.252C62.3643 302.135 62.4822 302.774 62.7182 303.168C62.9542 303.563 63.2952 303.76 63.7412 303.76ZM66.9165 304.355V303.868V303.613C66.9165 303.294 66.9755 303.017 67.0935 302.784C67.2144 302.551 67.3726 302.348 67.5683 302.176C67.7669 302 67.9827 301.843 68.2158 301.705C68.4518 301.567 68.6863 301.435 68.9194 301.308C69.1554 301.178 69.3712 301.045 69.5669 300.907C69.7626 300.766 69.9194 300.607 70.0374 300.432C70.1583 300.253 70.2187 300.043 70.2187 299.802C70.2187 299.485 70.1065 299.227 69.882 299.029C69.6604 298.83 69.3597 298.731 68.9798 298.731C68.5712 298.731 68.2432 298.846 67.9957 299.076C67.7482 299.307 67.6086 299.613 67.577 299.996H66.7827C66.7914 299.636 66.8806 299.308 67.0503 299.012C67.2201 298.712 67.4691 298.473 67.7971 298.295C68.1252 298.117 68.5295 298.027 69.0101 298.027C69.4273 298.027 69.7899 298.102 70.0978 298.252C70.4057 298.399 70.6432 298.606 70.8101 298.873C70.9798 299.138 71.0647 299.448 71.0647 299.802C71.0647 300.124 71.0057 300.4 70.8878 300.63C70.7698 300.861 70.6129 301.061 70.4173 301.23C70.2244 301.397 70.0129 301.547 69.7827 301.679C69.5525 301.812 69.3208 301.94 69.0878 302.063C68.8547 302.184 68.6417 302.312 68.4489 302.448C68.2561 302.58 68.1007 302.732 67.9827 302.905C67.8647 303.078 67.8057 303.284 67.8057 303.522V303.648H71.0993V304.355H66.9165ZM72.0593 304.355V303.868V303.613C72.0593 303.294 72.1183 303.017 72.2363 302.784C72.3571 302.551 72.5154 302.348 72.7111 302.176C72.9097 302 73.1255 301.843 73.3586 301.705C73.5945 301.567 73.8291 301.435 74.0622 301.308C74.2981 301.178 74.514 301.045 74.7097 300.907C74.9053 300.766 75.0622 300.607 75.1802 300.432C75.301 300.253 75.3615 300.043 75.3615 299.802C75.3615 299.485 75.2492 299.227 75.0248 299.029C74.8032 298.83 74.5025 298.731 74.1226 298.731C73.714 298.731 73.3859 298.846 73.1384 299.076C72.8909 299.307 72.7514 299.613 72.7197 299.996H71.9255C71.9341 299.636 72.0233 299.308 72.1931 299.012C72.3629 298.712 72.6118 298.473 72.9399 298.295C73.2679 298.117 73.6722 298.027 74.1528 298.027C74.5701 298.027 74.9327 298.102 75.2406 298.252C75.5485 298.399 75.7859 298.606 75.9528 298.873C76.1226 299.138 76.2075 299.448 76.2075 299.802C76.2075 300.124 76.1485 300.4 76.0305 300.63C75.9125 300.861 75.7557 301.061 75.56 301.23C75.3672 301.397 75.1557 301.547 74.9255 301.679C74.6953 301.812 74.4636 301.94 74.2305 302.063C73.9974 302.184 73.7845 302.312 73.5917 302.448C73.3989 302.58 73.2435 302.732 73.1255 302.905C73.0075 303.078 72.9485 303.284 72.9485 303.522V303.648H76.242V304.355H72.0593Z" fill="#6E7880"/>
<path d="M92.1906 302.884C92.1906 303.214 92.1532 303.496 92.0784 303.73C92.0036 303.963 91.8698 304.14 91.6769 304.261C91.487 304.381 91.2165 304.442 90.8654 304.442C90.6439 304.442 90.4352 304.416 90.2395 304.364C90.0467 304.312 89.9187 304.273 89.8554 304.248L89.9115 303.484C90.0007 303.515 90.1028 303.555 90.218 303.604C90.3359 303.65 90.4813 303.673 90.6539 303.673C90.9359 303.673 91.1287 303.596 91.2323 303.44C91.3388 303.285 91.3921 303.023 91.3921 302.655V298.114H92.1906V302.884ZM94.7475 304.442C94.4597 304.442 94.2051 304.391 93.9835 304.291C93.7619 304.187 93.5878 304.039 93.4612 303.846C93.3374 303.653 93.2756 303.42 93.2756 303.147C93.2756 302.652 93.4482 302.284 93.7935 302.042C94.1389 301.8 94.6928 301.671 95.4554 301.653L96.254 301.632V301.282C96.254 301.009 96.172 300.793 96.0079 300.635C95.8439 300.473 95.5892 300.393 95.2439 300.393C94.9878 300.396 94.7619 300.456 94.5662 300.574C94.3734 300.692 94.2482 300.885 94.1907 301.153H93.4871C93.5043 300.862 93.5863 300.617 93.7331 300.419C93.8799 300.217 94.0842 300.065 94.3461 299.961C94.6108 299.858 94.923 299.806 95.2827 299.806C95.6712 299.806 95.9935 299.861 96.2497 299.97C96.5086 300.079 96.7015 300.24 96.8281 300.453C96.9576 300.666 97.0223 300.928 97.0223 301.239V304.355H96.3403L96.2842 303.518C96.1115 303.866 95.8914 304.108 95.6238 304.243C95.359 304.376 95.0669 304.442 94.7475 304.442ZM94.9892 303.868C95.1389 303.868 95.2871 303.84 95.4338 303.786C95.5835 303.731 95.7202 303.658 95.8439 303.566C95.9676 303.471 96.0655 303.366 96.1374 303.25C96.2122 303.132 96.2511 303.012 96.254 302.888V302.124L95.5892 302.137C95.2497 302.143 94.9648 302.177 94.7345 302.24C94.5072 302.304 94.336 302.403 94.2209 302.538C94.1086 302.673 94.0525 302.85 94.0525 303.069C94.0525 303.319 94.1389 303.515 94.3115 303.656C94.4871 303.797 94.713 303.868 94.9892 303.868ZM98.3859 304.355V299.892H99.1586V300.54C99.2305 300.416 99.3298 300.299 99.4564 300.19C99.5859 300.081 99.7413 299.993 99.9226 299.927C100.107 299.861 100.318 299.827 100.557 299.827C100.839 299.827 101.098 299.884 101.334 299.996C101.573 300.108 101.763 300.284 101.904 300.522C102.048 300.758 102.12 301.063 102.12 301.437V304.355H101.321V301.515C101.321 301.167 101.229 300.909 101.045 300.743C100.864 300.573 100.628 300.488 100.337 300.488C100.136 300.488 99.9471 300.521 99.7716 300.587C99.596 300.65 99.4536 300.748 99.3442 300.881C99.2349 301.01 99.1802 301.174 99.1802 301.373V304.355H98.3859Z" fill="#6E7880"/>
<path d="M119.221 298.114H123.11L123.106 298.813H120.041V300.876H122.795V301.567H120.041V304.355H119.221V298.114ZM124.626 302.309C124.626 302.591 124.672 302.848 124.764 303.078C124.859 303.305 125.002 303.486 125.192 303.622C125.384 303.757 125.625 303.825 125.912 303.825C126.197 303.825 126.442 303.758 126.646 303.626C126.853 303.494 126.986 303.302 127.043 303.052H127.799C127.744 303.354 127.623 303.609 127.436 303.816C127.249 304.023 127.023 304.18 126.758 304.286C126.494 304.39 126.217 304.442 125.93 304.442C125.512 304.442 125.145 304.351 124.829 304.17C124.512 303.989 124.265 303.728 124.086 303.389C123.908 303.049 123.819 302.642 123.819 302.167C123.819 301.698 123.899 301.286 124.061 300.932C124.222 300.578 124.455 300.302 124.76 300.104C125.068 299.905 125.438 299.806 125.869 299.806C126.289 299.806 126.645 299.896 126.935 300.078C127.226 300.259 127.446 300.515 127.596 300.846C127.748 301.174 127.825 301.564 127.825 302.016V302.309H124.626ZM124.63 301.77H127.056C127.056 301.514 127.013 301.284 126.927 301.079C126.84 300.872 126.708 300.709 126.53 300.591C126.354 300.471 126.133 300.41 125.865 300.41C125.586 300.41 125.354 300.478 125.17 300.613C124.989 300.745 124.852 300.917 124.76 301.127C124.671 301.334 124.627 301.548 124.63 301.77ZM131.127 304.442C130.865 304.442 130.643 304.407 130.462 304.338C130.283 304.269 130.137 304.181 130.022 304.075C129.906 303.966 129.817 303.855 129.754 303.743C129.691 303.627 129.645 303.527 129.616 303.44L129.529 304.355H128.921V297.941H129.724V300.6C129.761 300.525 129.817 300.443 129.892 300.354C129.97 300.265 130.069 300.178 130.19 300.095C130.311 300.012 130.453 299.943 130.617 299.888C130.784 299.833 130.974 299.806 131.187 299.806C131.745 299.806 132.188 300 132.517 300.389C132.847 300.777 133.013 301.35 133.013 302.107C133.013 302.576 132.942 302.986 132.801 303.337C132.66 303.685 132.45 303.957 132.171 304.153C131.892 304.345 131.544 304.442 131.127 304.442ZM130.984 303.829C131.347 303.829 131.642 303.689 131.869 303.41C132.096 303.128 132.21 302.681 132.21 302.068C132.21 301.547 132.104 301.144 131.891 300.859C131.681 300.571 131.373 300.427 130.967 300.427C130.67 300.427 130.432 300.492 130.25 300.622C130.072 300.748 129.94 300.934 129.853 301.178C129.77 301.423 129.727 301.719 129.724 302.068C129.724 302.692 129.82 303.143 130.013 303.419C130.209 303.692 130.532 303.829 130.984 303.829Z" fill="#6E7880"/>
<path d="M148.592 304.355V298.114H149.697L151.579 303.268L153.487 298.114H154.588V304.355H153.764V299.309L151.955 304.355H151.208L149.412 299.357V304.355H148.592ZM157.284 304.442C156.996 304.442 156.742 304.391 156.52 304.291C156.299 304.187 156.124 304.039 155.998 303.846C155.874 303.653 155.812 303.42 155.812 303.147C155.812 302.652 155.985 302.284 156.33 302.042C156.676 301.8 157.23 301.671 157.992 301.653L158.791 301.632V301.282C158.791 301.009 158.709 300.793 158.545 300.635C158.381 300.473 158.126 300.393 157.781 300.393C157.524 300.396 157.299 300.456 157.103 300.574C156.91 300.692 156.785 300.885 156.727 301.153H156.024C156.041 300.862 156.123 300.617 156.27 300.419C156.417 300.217 156.621 300.065 156.883 299.961C157.148 299.858 157.46 299.806 157.819 299.806C158.208 299.806 158.53 299.861 158.786 299.97C159.045 300.079 159.238 300.24 159.365 300.453C159.494 300.666 159.559 300.928 159.559 301.239V304.355H158.877L158.821 303.518C158.648 303.866 158.428 304.108 158.16 304.243C157.896 304.376 157.604 304.442 157.284 304.442ZM157.526 303.868C157.676 303.868 157.824 303.84 157.971 303.786C158.12 303.731 158.257 303.658 158.381 303.566C158.504 303.471 158.602 303.366 158.674 303.25C158.749 303.132 158.788 303.012 158.791 302.888V302.124L158.126 302.137C157.786 302.143 157.501 302.177 157.271 302.24C157.044 302.304 156.873 302.403 156.758 302.538C156.645 302.673 156.589 302.85 156.589 303.069C156.589 303.319 156.676 303.515 156.848 303.656C157.024 303.797 157.25 303.868 157.526 303.868ZM160.923 304.355V299.892H161.682V300.751C161.757 300.538 161.862 300.363 161.997 300.225C162.133 300.084 162.287 299.978 162.459 299.909C162.635 299.84 162.816 299.806 163.003 299.806C163.069 299.806 163.134 299.81 163.197 299.819C163.261 299.827 163.31 299.842 163.344 299.862V300.635C163.301 300.614 163.245 300.602 163.176 300.596C163.11 300.587 163.054 300.583 163.008 300.583C162.829 300.571 162.662 300.583 162.507 300.617C162.351 300.649 162.215 300.705 162.097 300.786C161.979 300.866 161.885 300.973 161.816 301.105C161.75 301.235 161.717 301.393 161.717 301.58V304.355H160.923Z" fill="#6E7880"/>
<path d="M178.541 304.355L180.798 298.114H181.7L183.958 304.355H183.142L182.529 302.646H179.978L179.352 304.355H178.541ZM180.181 301.912H182.318L181.256 298.904L180.181 301.912ZM184.972 305.745V299.892H185.766L185.775 300.669C185.827 300.577 185.893 300.481 185.973 300.38C186.057 300.279 186.158 300.186 186.276 300.099C186.396 300.013 186.536 299.943 186.694 299.888C186.855 299.833 187.038 299.806 187.243 299.806C187.599 299.806 187.913 299.888 188.184 300.052C188.457 300.213 188.67 300.461 188.822 300.794C188.975 301.128 189.051 301.551 189.051 302.063C189.051 302.576 188.976 303.009 188.827 303.363C188.68 303.714 188.467 303.981 188.188 304.166C187.909 304.35 187.572 304.442 187.178 304.442C186.979 304.442 186.802 304.413 186.647 304.355C186.494 304.301 186.36 304.229 186.245 304.14C186.133 304.048 186.038 303.95 185.96 303.846C185.886 303.743 185.824 303.643 185.775 303.548V305.745H184.972ZM187.027 303.82C187.395 303.82 187.696 303.681 187.929 303.402C188.162 303.119 188.278 302.682 188.278 302.089C188.278 301.58 188.172 301.176 187.959 300.876C187.746 300.577 187.435 300.427 187.027 300.427C186.612 300.427 186.299 300.581 186.086 300.889C185.873 301.194 185.766 301.594 185.766 302.089C185.766 302.409 185.814 302.699 185.909 302.961C186.004 303.223 186.145 303.432 186.332 303.587C186.519 303.743 186.75 303.82 187.027 303.82ZM190.098 304.355V299.892H190.858V300.751C190.932 300.538 191.037 300.363 191.173 300.225C191.308 300.084 191.462 299.978 191.635 299.909C191.81 299.84 191.991 299.806 192.178 299.806C192.245 299.806 192.309 299.81 192.373 299.819C192.436 299.827 192.485 299.842 192.519 299.862V300.635C192.476 300.614 192.42 300.602 192.351 300.596C192.285 300.587 192.229 300.583 192.183 300.583C192.004 300.571 191.837 300.583 191.682 300.617C191.527 300.649 191.39 300.705 191.272 300.786C191.154 300.866 191.06 300.973 190.991 301.105C190.925 301.235 190.892 301.393 190.892 301.58V304.355H190.098Z" fill="#6E7880"/>
<path d="M207.624 304.355V298.114H208.729L210.611 303.268L212.519 298.114H213.619V304.355H212.795V299.309L210.986 304.355H210.24L208.444 299.357V304.355H207.624ZM216.316 304.442C216.028 304.442 215.773 304.391 215.552 304.291C215.33 304.187 215.156 304.039 215.029 303.846C214.906 303.653 214.844 303.42 214.844 303.147C214.844 302.652 215.016 302.284 215.362 302.042C215.707 301.8 216.261 301.671 217.024 301.653L217.822 301.632V301.282C217.822 301.009 217.74 300.793 217.576 300.635C217.412 300.473 217.157 300.393 216.812 300.393C216.556 300.396 216.33 300.456 216.134 300.574C215.942 300.692 215.816 300.885 215.759 301.153H215.055C215.072 300.862 215.155 300.617 215.301 300.419C215.448 300.217 215.652 300.065 215.914 299.961C216.179 299.858 216.491 299.806 216.851 299.806C217.239 299.806 217.562 299.861 217.818 299.97C218.077 300.079 218.27 300.24 218.396 300.453C218.526 300.666 218.59 300.928 218.59 301.239V304.355H217.908L217.852 303.518C217.68 303.866 217.46 304.108 217.192 304.243C216.927 304.376 216.635 304.442 216.316 304.442ZM216.557 303.868C216.707 303.868 216.855 303.84 217.002 303.786C217.152 303.731 217.288 303.658 217.412 303.566C217.536 303.471 217.634 303.366 217.706 303.25C217.78 303.132 217.819 303.012 217.822 302.888V302.124L217.157 302.137C216.818 302.143 216.533 302.177 216.303 302.24C216.075 302.304 215.904 302.403 215.789 302.538C215.677 302.673 215.621 302.85 215.621 303.069C215.621 303.319 215.707 303.515 215.88 303.656C216.055 303.797 216.281 303.868 216.557 303.868ZM220.251 305.78C219.989 305.78 219.809 305.761 219.711 305.724C219.614 305.686 219.565 305.668 219.565 305.668V305.15L220.018 305.158C220.185 305.164 220.323 305.153 220.432 305.124C220.542 305.095 220.629 305.056 220.696 305.007C220.762 304.958 220.812 304.904 220.847 304.843C220.884 304.783 220.914 304.725 220.937 304.671L221.093 304.248L219.349 299.892H220.156L221.473 303.337L222.781 299.892H223.562L221.68 304.692C221.565 304.974 221.435 305.194 221.291 305.353C221.15 305.511 220.992 305.622 220.817 305.685C220.644 305.748 220.455 305.78 220.251 305.78Z" fill="#6E7880"/>
<path d="M241.098 302.884C241.098 303.214 241.061 303.496 240.986 303.73C240.911 303.963 240.778 304.14 240.585 304.261C240.395 304.381 240.124 304.442 239.773 304.442C239.552 304.442 239.343 304.416 239.147 304.364C238.955 304.312 238.826 304.273 238.763 304.248L238.819 303.484C238.908 303.515 239.011 303.555 239.126 303.604C239.244 303.65 239.389 303.673 239.562 303.673C239.844 303.673 240.037 303.596 240.14 303.44C240.247 303.285 240.3 303.023 240.3 302.655V298.114H241.098V302.884ZM244.061 304.442C243.828 304.439 243.608 304.406 243.401 304.343C243.196 304.276 243.015 304.18 242.857 304.053C242.698 303.927 242.573 303.77 242.481 303.583C242.392 303.393 242.347 303.173 242.347 302.922V299.892H243.146V302.84C243.146 303.131 243.235 303.367 243.414 303.548C243.595 303.73 243.867 303.82 244.229 303.82C244.557 303.82 244.821 303.735 245.019 303.566C245.221 303.393 245.321 303.137 245.321 302.797V299.892H246.116V304.355H245.481L245.399 303.501C245.344 303.725 245.251 303.907 245.119 304.045C244.989 304.183 244.832 304.285 244.648 304.351C244.467 304.414 244.271 304.445 244.061 304.442ZM247.412 304.355V299.892H248.184V300.54C248.256 300.416 248.356 300.299 248.482 300.19C248.612 300.081 248.767 299.993 248.948 299.927C249.133 299.861 249.344 299.827 249.583 299.827C249.865 299.827 250.124 299.884 250.36 299.996C250.599 300.108 250.789 300.284 250.93 300.522C251.074 300.758 251.146 301.063 251.146 301.437V304.355H250.347V301.515C250.347 301.167 250.255 300.909 250.071 300.743C249.889 300.573 249.653 300.488 249.363 300.488C249.161 300.488 248.973 300.521 248.797 300.587C248.622 300.65 248.479 300.748 248.37 300.881C248.261 301.01 248.206 301.174 248.206 301.373V304.355H247.412Z" fill="#6E7880"/>
<path d="M269.882 302.884C269.882 303.214 269.844 303.496 269.769 303.73C269.695 303.963 269.561 304.14 269.368 304.261C269.178 304.381 268.908 304.442 268.556 304.442C268.335 304.442 268.126 304.416 267.931 304.364C267.738 304.312 267.61 304.273 267.546 304.248L267.602 303.484C267.692 303.515 267.794 303.555 267.909 303.604C268.027 303.65 268.172 303.673 268.345 303.673C268.627 303.673 268.82 303.596 268.923 303.44C269.03 303.285 269.083 303.023 269.083 302.655V298.114H269.882V302.884ZM272.844 304.442C272.611 304.439 272.391 304.406 272.184 304.343C271.98 304.276 271.798 304.18 271.64 304.053C271.482 303.927 271.356 303.77 271.264 303.583C271.175 303.393 271.131 303.173 271.131 302.922V299.892H271.929V302.84C271.929 303.131 272.018 303.367 272.197 303.548C272.378 303.73 272.65 303.82 273.013 303.82C273.341 303.82 273.604 303.735 273.803 303.566C274.004 303.393 274.105 303.137 274.105 302.797V299.892H274.899V304.355H274.264L274.182 303.501C274.128 303.725 274.034 303.907 273.902 304.045C273.772 304.183 273.615 304.285 273.431 304.351C273.25 304.414 273.054 304.445 272.844 304.442ZM277.322 304.412C277.08 304.412 276.884 304.378 276.735 304.312C276.588 304.246 276.474 304.157 276.394 304.045C276.316 303.932 276.263 303.804 276.234 303.661C276.208 303.514 276.195 303.363 276.195 303.207V297.941H276.981V303.13C276.981 303.354 277.024 303.522 277.11 303.635C277.199 303.747 277.323 303.809 277.481 303.82L277.723 303.825V304.343C277.657 304.363 277.588 304.378 277.516 304.39C277.444 304.404 277.379 304.412 277.322 304.412ZM279.038 305.78C278.776 305.78 278.596 305.761 278.498 305.724C278.401 305.686 278.352 305.668 278.352 305.668V305.15L278.805 305.158C278.972 305.164 279.11 305.153 279.219 305.124C279.329 305.095 279.416 305.056 279.483 305.007C279.549 304.958 279.599 304.904 279.634 304.843C279.671 304.783 279.701 304.725 279.724 304.671L279.88 304.248L278.136 299.892H278.943L280.26 303.337L281.568 299.892H282.349L280.467 304.692C280.352 304.974 280.222 305.194 280.078 305.353C279.937 305.511 279.779 305.622 279.604 305.685C279.431 305.748 279.242 305.78 279.038 305.78Z" fill="#6E7880"/>
<path d="M296.846 304.355L299.104 298.114H300.006L302.263 304.355H301.448L300.835 302.646H298.284L297.658 304.355H296.846ZM298.486 301.912H300.623L299.561 298.904L298.486 301.912ZM304.842 304.442C304.609 304.439 304.389 304.406 304.181 304.343C303.977 304.276 303.796 304.18 303.638 304.053C303.479 303.927 303.354 303.77 303.262 303.583C303.173 303.393 303.128 303.173 303.128 302.922V299.892H303.927V302.84C303.927 303.131 304.016 303.367 304.194 303.548C304.376 303.73 304.648 303.82 305.01 303.82C305.338 303.82 305.602 303.735 305.8 303.566C306.002 303.393 306.102 303.137 306.102 302.797V299.892H306.897V304.355H306.262L306.18 303.501C306.125 303.725 306.032 303.907 305.899 304.045C305.77 304.183 305.613 304.285 305.429 304.351C305.248 304.414 305.052 304.445 304.842 304.442ZM310.007 305.832C309.305 305.832 308.758 305.73 308.367 305.525C307.978 305.324 307.784 305.035 307.784 304.658C307.784 304.496 307.822 304.36 307.896 304.248C307.971 304.132 308.06 304.037 308.164 303.963C308.268 303.888 308.364 303.829 308.453 303.786C308.542 303.74 308.6 303.707 308.626 303.686C308.577 303.658 308.515 303.622 308.44 303.578C308.368 303.535 308.305 303.478 308.25 303.406C308.196 303.334 308.168 303.24 308.168 303.125C308.168 302.984 308.235 302.855 308.367 302.737C308.499 302.619 308.695 302.531 308.954 302.473C308.692 302.341 308.488 302.166 308.341 301.947C308.194 301.728 308.121 301.491 308.121 301.235C308.121 300.947 308.199 300.696 308.354 300.484C308.512 300.271 308.737 300.108 309.027 299.996C309.318 299.881 309.663 299.823 310.063 299.823C310.354 299.823 310.599 299.858 310.797 299.927C310.996 299.993 311.18 300.088 311.35 300.212C311.396 300.191 311.468 300.161 311.565 300.121C311.666 300.078 311.777 300.032 311.898 299.983C312.019 299.934 312.131 299.888 312.235 299.845C312.341 299.799 312.426 299.764 312.489 299.741L312.485 300.479L311.704 300.626C311.747 300.718 311.781 300.819 311.807 300.928C311.836 301.037 311.85 301.14 311.85 301.235C311.85 301.496 311.781 301.734 311.643 301.947C311.508 302.16 311.302 302.33 311.026 302.456C310.75 302.583 310.404 302.646 309.99 302.646C309.955 302.646 309.911 302.646 309.856 302.646C309.804 302.643 309.76 302.64 309.722 302.637C309.417 302.646 309.207 302.681 309.092 302.741C308.977 302.799 308.919 302.863 308.919 302.935C308.919 303.019 308.984 303.076 309.114 303.108C309.243 303.14 309.463 303.167 309.774 303.19C309.886 303.196 310.024 303.203 310.188 303.212C310.355 303.22 310.54 303.232 310.741 303.246C311.21 303.275 311.571 303.394 311.824 303.604C312.078 303.814 312.204 304.098 312.204 304.455C312.204 304.861 312.023 305.191 311.66 305.448C311.298 305.704 310.747 305.832 310.007 305.832ZM310.15 305.318C310.561 305.318 310.876 305.256 311.095 305.132C311.314 305.009 311.423 304.822 311.423 304.571C311.423 304.393 311.355 304.248 311.22 304.135C311.088 304.02 310.885 303.954 310.611 303.937L309.36 303.855C309.247 303.849 309.131 303.878 309.01 303.941C308.889 304.002 308.786 304.086 308.699 304.196C308.616 304.305 308.574 304.429 308.574 304.567C308.574 304.803 308.702 304.987 308.958 305.119C309.217 305.252 309.614 305.318 310.15 305.318ZM310.011 302.132C310.334 302.132 310.593 302.058 310.788 301.908C310.987 301.758 311.086 301.537 311.086 301.243C311.086 300.941 310.987 300.711 310.788 300.553C310.593 300.394 310.334 300.315 310.011 300.315C309.686 300.315 309.423 300.396 309.222 300.557C309.023 300.715 308.924 300.944 308.924 301.243C308.924 301.525 309.019 301.744 309.209 301.899C309.399 302.055 309.666 302.132 310.011 302.132Z" fill="#6E7880"/>
<path d="M329.49 304.442C329.197 304.442 328.912 304.406 328.636 304.334C328.359 304.259 328.109 304.148 327.885 304.002C327.66 303.855 327.473 303.673 327.323 303.458C327.177 303.239 327.085 302.986 327.047 302.698H327.885C327.936 302.934 328.038 303.132 328.191 303.294C328.346 303.455 328.535 303.576 328.756 303.656C328.981 303.737 329.224 303.777 329.486 303.777C329.78 303.777 330.041 303.737 330.272 303.656C330.505 303.573 330.687 303.455 330.82 303.302C330.955 303.15 331.023 302.967 331.023 302.754C331.023 302.567 330.98 302.404 330.893 302.266C330.81 302.128 330.687 302.013 330.526 301.921C330.365 301.829 330.169 301.757 329.939 301.705L328.713 301.42C328.253 301.319 327.892 301.14 327.63 300.881C327.371 300.622 327.238 300.279 327.233 299.853C327.233 299.494 327.328 299.177 327.518 298.904C327.71 298.63 327.974 298.417 328.308 298.265C328.644 298.112 329.028 298.036 329.46 298.036C329.958 298.036 330.377 298.121 330.716 298.291C331.056 298.461 331.312 298.684 331.485 298.96C331.657 299.236 331.745 299.531 331.748 299.845H330.923C330.897 299.563 330.814 299.34 330.673 299.176C330.535 299.009 330.361 298.891 330.151 298.822C329.941 298.75 329.712 298.714 329.464 298.714C329.286 298.714 329.113 298.737 328.946 298.783C328.782 298.826 328.634 298.892 328.502 298.981C328.372 299.071 328.269 299.181 328.191 299.314C328.113 299.446 328.074 299.6 328.074 299.776C328.074 300 328.151 300.183 328.303 300.324C328.459 300.465 328.739 300.586 329.145 300.686L330.332 300.971C330.643 301.037 330.896 301.135 331.092 301.265C331.29 301.394 331.443 301.541 331.549 301.705C331.659 301.869 331.733 302.04 331.774 302.219C331.817 302.397 331.838 302.573 331.838 302.745C331.838 303.059 331.745 303.345 331.558 303.604C331.371 303.861 331.102 304.065 330.751 304.217C330.403 304.367 329.982 304.442 329.49 304.442ZM333.594 302.309C333.594 302.591 333.64 302.848 333.732 303.078C333.827 303.305 333.969 303.486 334.159 303.622C334.352 303.757 334.592 303.825 334.88 303.825C335.165 303.825 335.41 303.758 335.614 303.626C335.821 303.494 335.954 303.302 336.011 303.052H336.767C336.712 303.354 336.591 303.609 336.404 303.816C336.217 304.023 335.991 304.18 335.726 304.286C335.461 304.39 335.185 304.442 334.897 304.442C334.48 304.442 334.113 304.351 333.797 304.17C333.48 303.989 333.233 303.728 333.054 303.389C332.876 303.049 332.787 302.642 332.787 302.167C332.787 301.698 332.867 301.286 333.028 300.932C333.19 300.578 333.423 300.302 333.728 300.104C334.036 299.905 334.405 299.806 334.837 299.806C335.257 299.806 335.613 299.896 335.903 300.078C336.194 300.259 336.414 300.515 336.564 300.846C336.716 301.174 336.792 301.564 336.792 302.016V302.309H333.594ZM333.598 301.77H336.024C336.024 301.514 335.981 301.284 335.895 301.079C335.808 300.872 335.676 300.709 335.497 300.591C335.322 300.471 335.1 300.41 334.833 300.41C334.554 300.41 334.322 300.478 334.138 300.613C333.956 300.745 333.82 300.917 333.728 301.127C333.638 301.334 333.595 301.548 333.598 301.77ZM337.889 305.745V299.892H338.683L338.691 300.669C338.743 300.577 338.809 300.481 338.89 300.38C338.974 300.279 339.074 300.186 339.192 300.099C339.313 300.013 339.453 299.943 339.611 299.888C339.772 299.833 339.955 299.806 340.159 299.806C340.516 299.806 340.83 299.888 341.1 300.052C341.374 300.213 341.586 300.461 341.739 300.794C341.891 301.128 341.968 301.551 341.968 302.063C341.968 302.576 341.893 303.009 341.743 303.363C341.597 303.714 341.384 303.981 341.104 304.166C340.825 304.35 340.489 304.442 340.094 304.442C339.896 304.442 339.719 304.413 339.563 304.355C339.411 304.301 339.277 304.229 339.162 304.14C339.05 304.048 338.955 303.95 338.877 303.846C338.802 303.743 338.74 303.643 338.691 303.548V305.745H337.889ZM339.943 303.82C340.312 303.82 340.612 303.681 340.845 303.402C341.079 303.119 341.195 302.682 341.195 302.089C341.195 301.58 341.089 301.176 340.876 300.876C340.663 300.577 340.352 300.427 339.943 300.427C339.529 300.427 339.215 300.581 339.002 300.889C338.789 301.194 338.683 301.594 338.683 302.089C338.683 302.409 338.73 302.699 338.825 302.961C338.92 303.223 339.061 303.432 339.248 303.587C339.435 303.743 339.667 303.82 339.943 303.82Z" fill="#6E7880"/>
<path d="M353.773 304.172V297.93H355.78C356.54 297.93 357.114 298.07 357.502 298.349C357.894 298.628 358.089 299.031 358.089 299.557C358.089 299.888 358.003 300.172 357.83 300.408C357.661 300.644 357.361 300.838 356.933 300.991C357.177 301.042 357.383 301.117 357.55 301.215C357.72 301.313 357.855 301.428 357.956 301.56C358.059 301.69 358.133 301.834 358.176 301.992C358.222 302.15 358.245 302.317 358.245 302.493C358.245 303.057 358.043 303.478 357.641 303.757C357.241 304.034 356.642 304.172 355.845 304.172H353.773ZM354.571 303.507H355.836C356.357 303.507 356.753 303.422 357.023 303.252C357.297 303.08 357.433 302.815 357.433 302.458C357.433 302.196 357.366 301.985 357.23 301.824C357.098 301.66 356.918 301.54 356.691 301.465C356.464 301.391 356.21 301.353 355.931 301.353H354.571V303.507ZM354.571 300.675H355.931C356.095 300.675 356.258 300.66 356.419 300.628C356.58 300.596 356.728 300.542 356.864 300.464C356.999 300.386 357.108 300.283 357.192 300.153C357.275 300.021 357.317 299.855 357.317 299.657C357.317 299.294 357.177 299.027 356.898 298.854C356.622 298.678 356.262 298.591 355.819 298.591H354.571V300.675ZM360.635 304.258C360.348 304.258 360.093 304.208 359.871 304.107C359.65 304.004 359.476 303.855 359.349 303.663C359.225 303.47 359.163 303.237 359.163 302.963C359.163 302.468 359.336 302.1 359.681 301.858C360.027 301.616 360.581 301.487 361.343 301.47L362.142 301.448V301.098C362.142 300.825 362.06 300.609 361.896 300.451C361.732 300.29 361.477 300.209 361.132 300.209C360.876 300.212 360.65 300.273 360.454 300.391C360.261 300.509 360.136 300.701 360.078 300.969H359.375C359.392 300.678 359.474 300.434 359.621 300.235C359.768 300.034 359.972 299.881 360.234 299.778C360.499 299.674 360.811 299.622 361.171 299.622C361.559 299.622 361.881 299.677 362.137 299.786C362.396 299.896 362.589 300.057 362.716 300.27C362.845 300.483 362.91 300.745 362.91 301.055V304.172H362.228L362.172 303.334C361.999 303.683 361.779 303.924 361.512 304.06C361.247 304.192 360.955 304.258 360.635 304.258ZM360.877 303.684C361.027 303.684 361.175 303.657 361.322 303.602C361.471 303.547 361.608 303.474 361.732 303.382C361.855 303.287 361.953 303.182 362.025 303.067C362.1 302.949 362.139 302.828 362.142 302.704V301.94L361.477 301.953C361.137 301.959 360.853 301.993 360.622 302.057C360.395 302.12 360.224 302.219 360.109 302.355C359.996 302.49 359.94 302.667 359.94 302.886C359.94 303.136 360.027 303.332 360.199 303.473C360.375 303.614 360.601 303.684 360.877 303.684ZM365.4 304.228C365.159 304.228 364.963 304.195 364.813 304.129C364.667 304.063 364.553 303.973 364.472 303.861C364.395 303.749 364.341 303.621 364.313 303.477C364.287 303.33 364.274 303.179 364.274 303.024V297.757H365.059V302.946C365.059 303.17 365.103 303.339 365.189 303.451C365.278 303.563 365.402 303.625 365.56 303.637L365.802 303.641V304.159C365.736 304.179 365.667 304.195 365.595 304.206C365.523 304.221 365.458 304.228 365.4 304.228ZM368.038 304.258C367.75 304.258 367.495 304.208 367.273 304.107C367.052 304.004 366.878 303.855 366.751 303.663C366.627 303.47 366.566 303.237 366.566 302.963C366.566 302.468 366.738 302.1 367.084 301.858C367.429 301.616 367.983 301.487 368.745 301.47L369.544 301.448V301.098C369.544 300.825 369.462 300.609 369.298 300.451C369.134 300.29 368.879 300.209 368.534 300.209C368.278 300.212 368.052 300.273 367.856 300.391C367.663 300.509 367.538 300.701 367.481 300.969H366.777C366.794 300.678 366.876 300.434 367.023 300.235C367.17 300.034 367.374 299.881 367.636 299.778C367.901 299.674 368.213 299.622 368.573 299.622C368.961 299.622 369.284 299.677 369.54 299.786C369.799 299.896 369.991 300.057 370.118 300.27C370.248 300.483 370.312 300.745 370.312 301.055V304.172H369.63L369.574 303.334C369.402 303.683 369.181 303.924 368.914 304.06C368.649 304.192 368.357 304.258 368.038 304.258ZM368.279 303.684C368.429 303.684 368.577 303.657 368.724 303.602C368.873 303.547 369.01 303.474 369.134 303.382C369.258 303.287 369.356 303.182 369.427 303.067C369.502 302.949 369.541 302.828 369.544 302.704V301.94L368.879 301.953C368.54 301.959 368.255 301.993 368.025 302.057C367.797 302.12 367.626 302.219 367.511 302.355C367.399 302.49 367.343 302.667 367.343 302.886C367.343 303.136 367.429 303.332 367.602 303.473C367.777 303.614 368.003 303.684 368.279 303.684ZM371.676 304.172V299.709H372.449V300.356C372.521 300.232 372.62 300.116 372.746 300.006C372.876 299.897 373.031 299.809 373.213 299.743C373.397 299.677 373.608 299.644 373.847 299.644C374.129 299.644 374.388 299.7 374.624 299.812C374.863 299.924 375.053 300.1 375.194 300.339C375.338 300.575 375.41 300.88 375.41 301.254V304.172H374.611V301.332C374.611 300.983 374.519 300.726 374.335 300.559C374.154 300.389 373.918 300.304 373.627 300.304C373.426 300.304 373.237 300.337 373.062 300.404C372.886 300.467 372.744 300.565 372.634 300.697C372.525 300.827 372.47 300.991 372.47 301.189V304.172H371.676ZM378.437 299.622C378.756 299.622 379.044 299.684 379.3 299.808C379.556 299.929 379.765 300.101 379.926 300.326C380.09 300.55 380.192 300.815 380.233 301.12H379.525C379.499 300.965 379.438 300.822 379.343 300.693C379.251 300.563 379.129 300.46 378.977 300.382C378.824 300.304 378.646 300.265 378.441 300.265C378.059 300.265 377.748 300.404 377.509 300.68C377.27 300.956 377.151 301.379 377.151 301.949C377.151 302.464 377.26 302.877 377.479 303.188C377.7 303.496 378.025 303.65 378.454 303.65C378.659 303.65 378.836 303.611 378.985 303.533C379.138 303.452 379.26 303.347 379.352 303.218C379.444 303.086 379.503 302.945 379.529 302.795H380.224C380.187 303.094 380.086 303.353 379.922 303.572C379.758 303.791 379.548 303.96 379.292 304.081C379.038 304.199 378.753 304.258 378.437 304.258C378.037 304.258 377.682 304.17 377.371 303.995C377.063 303.819 376.821 303.56 376.646 303.218C376.47 302.875 376.382 302.455 376.382 301.957C376.382 301.491 376.461 301.084 376.62 300.736C376.781 300.385 377.014 300.111 377.319 299.916C377.627 299.72 378 299.622 378.437 299.622ZM381.882 302.126C381.882 302.408 381.928 302.664 382.02 302.894C382.115 303.122 382.258 303.303 382.448 303.438C382.64 303.573 382.881 303.641 383.168 303.641C383.453 303.641 383.698 303.575 383.902 303.442C384.109 303.31 384.242 303.119 384.299 302.868H385.055C385 303.17 384.879 303.425 384.692 303.632C384.505 303.84 384.279 303.996 384.014 304.103C383.75 304.206 383.473 304.258 383.186 304.258C382.768 304.258 382.402 304.168 382.085 303.986C381.768 303.805 381.521 303.545 381.343 303.205C381.164 302.865 381.075 302.458 381.075 301.983C381.075 301.514 381.155 301.103 381.317 300.749C381.478 300.395 381.711 300.119 382.016 299.92C382.324 299.722 382.694 299.622 383.125 299.622C383.545 299.622 383.901 299.713 384.191 299.894C384.482 300.075 384.702 300.332 384.852 300.663C385.004 300.991 385.081 301.381 385.081 301.832V302.126H381.882ZM381.886 301.586H384.312C384.312 301.33 384.269 301.1 384.183 300.896C384.096 300.688 383.964 300.526 383.786 300.408C383.61 300.287 383.389 300.227 383.121 300.227C382.842 300.227 382.61 300.294 382.426 300.429C382.245 300.562 382.108 300.733 382.016 300.943C381.927 301.15 381.884 301.365 381.886 301.586Z" fill="#6E7880"/>
<path d="M141.85 90.5234V68.2213L55.5187 68.2213V90.5234L141.85 90.5234Z" fill="#6B8BFF"/>
<path d="M161.994 281.887V259.585H55.5193V281.887H161.994Z" fill="#6B8BFF"/>
<path d="M152.641 225.773V203.471H149.763V225.773H152.641Z" fill="#6B8BFF"/>
<path d="M151.201 250.953V228.651H144.007V250.953H151.201Z" fill="#FF928A"/>
<path d="M161.275 199.875V177.573H152.642V199.875H161.275Z" fill="#53B997"/>
<path d="M152.641 171.094V148.792H144.008V171.094H152.641Z" fill="#6B8BFF"/>
<path d="M144.01 145.199V122.897H131.06V145.199H144.01Z" fill="#FF928A"/>
<path d="M131.059 117.859V95.5572H122.425V117.859H131.059Z" fill="#FF928A"/>
<g clip-path="url(#clip0_989_11848)">
<rect x="31.7773" y="325.027" width="8.63309" height="8.63309" rx="2.8777" fill="#6B8BFF"/>
<path d="M44.2509 332.844V325.562H46.5927C47.479 325.562 48.1488 325.725 48.602 326.05C49.0586 326.376 49.2869 326.846 49.2869 327.46C49.2869 327.846 49.1862 328.177 48.9847 328.452C48.7867 328.728 48.4375 328.954 47.9373 329.132C48.2226 329.193 48.4627 329.28 48.6574 329.394C48.8555 329.508 49.0133 329.643 49.1308 329.797C49.2517 329.948 49.3373 330.116 49.3876 330.301C49.4413 330.485 49.4682 330.68 49.4682 330.885C49.4682 331.543 49.2332 332.035 48.7632 332.36C48.2965 332.683 47.5982 332.844 46.6682 332.844H44.2509ZM45.1826 332.068H46.6581C47.2658 332.068 47.7274 331.969 48.043 331.771C48.362 331.57 48.5214 331.261 48.5214 330.844C48.5214 330.539 48.4425 330.292 48.2847 330.104C48.1303 329.913 47.9205 329.773 47.6553 329.686C47.39 329.599 47.0946 329.555 46.7689 329.555H45.1826V332.068ZM45.1826 328.765H46.7689C46.9603 328.765 47.15 328.746 47.338 328.709C47.526 328.672 47.6989 328.608 47.8567 328.518C48.0145 328.427 48.1421 328.306 48.2394 328.155C48.3368 328.001 48.3855 327.808 48.3855 327.576C48.3855 327.153 48.2226 326.841 47.897 326.639C47.5747 326.435 47.155 326.332 46.638 326.332H45.1826V328.765ZM52.2067 332.944C51.871 332.944 51.5739 332.886 51.3154 332.768C51.0569 332.647 50.8537 332.474 50.706 332.25C50.5617 332.025 50.4895 331.753 50.4895 331.434C50.4895 330.856 50.6909 330.426 51.0938 330.144C51.4967 329.862 52.143 329.711 53.0326 329.691L53.9643 329.666V329.258C53.9643 328.939 53.8686 328.687 53.6772 328.503C53.4859 328.315 53.1888 328.221 52.7859 328.221C52.4871 328.224 52.2235 328.295 51.9952 328.432C51.7703 328.57 51.6243 328.795 51.5571 329.107H50.7362C50.7564 328.768 50.8521 328.483 51.0233 328.251C51.1945 328.016 51.4329 327.838 51.7384 327.717C52.0473 327.596 52.4115 327.536 52.8312 327.536C53.2844 327.536 53.6605 327.6 53.9593 327.727C54.2614 327.855 54.4864 328.043 54.6341 328.291C54.7852 328.54 54.8607 328.845 54.8607 329.208V332.844H54.065L53.9996 331.867C53.7981 332.273 53.5413 332.555 53.229 332.713C52.9202 332.867 52.5794 332.944 52.2067 332.944ZM52.4888 332.275C52.6633 332.275 52.8362 332.243 53.0075 332.179C53.182 332.115 53.3415 332.03 53.4859 331.922C53.6302 331.811 53.7444 331.689 53.8283 331.555C53.9156 331.417 53.9609 331.276 53.9643 331.132V330.24L53.1888 330.255C52.7926 330.262 52.4602 330.302 52.1916 330.376C51.9264 330.45 51.7266 330.566 51.5924 330.724C51.4614 330.881 51.396 331.088 51.396 331.343C51.396 331.635 51.4967 331.863 51.6981 332.028C51.9029 332.192 52.1665 332.275 52.4888 332.275ZM57.7156 332.909C57.4336 332.909 57.2053 332.871 57.0307 332.793C56.8595 332.716 56.7269 332.612 56.6329 332.481C56.5422 332.35 56.4801 332.201 56.4466 332.033C56.4163 331.862 56.4012 331.685 56.4012 331.504V325.36H57.3178V331.414C57.3178 331.675 57.3681 331.872 57.4689 332.003C57.5729 332.134 57.7173 332.206 57.902 332.219L58.184 332.224V332.829C58.1068 332.852 58.0262 332.871 57.9422 332.884C57.8583 332.901 57.7828 332.909 57.7156 332.909ZM60.7419 332.944C60.4062 332.944 60.1091 332.886 59.8506 332.768C59.592 332.647 59.3889 332.474 59.2412 332.25C59.0968 332.025 59.0247 331.753 59.0247 331.434C59.0247 330.856 59.2261 330.426 59.629 330.144C60.0319 329.862 60.6781 329.711 61.5678 329.691L62.4995 329.666V329.258C62.4995 328.939 62.4038 328.687 62.2124 328.503C62.0211 328.315 61.7239 328.221 61.3211 328.221C61.0223 328.224 60.7587 328.295 60.5304 328.432C60.3055 328.57 60.1594 328.795 60.0923 329.107H59.2714C59.2916 328.768 59.3873 328.483 59.5585 328.251C59.7297 328.016 59.9681 327.838 60.2736 327.717C60.5825 327.596 60.9467 327.536 61.3664 327.536C61.8196 327.536 62.1956 327.6 62.4944 327.727C62.7966 327.855 63.0215 328.043 63.1693 328.291C63.3203 328.54 63.3959 328.845 63.3959 329.208V332.844H62.6002L62.5347 331.867C62.3333 332.273 62.0765 332.555 61.7642 332.713C61.4554 332.867 61.1146 332.944 60.7419 332.944ZM61.0239 332.275C61.1985 332.275 61.3714 332.243 61.5426 332.179C61.7172 332.115 61.8767 332.03 62.0211 331.922C62.1654 331.811 62.2796 331.689 62.3635 331.555C62.4508 331.417 62.4961 331.276 62.4995 331.132V330.24L61.7239 330.255C61.3278 330.262 60.9954 330.302 60.7268 330.376C60.4616 330.45 60.2618 330.566 60.1275 330.724C59.9966 330.881 59.9311 331.088 59.9311 331.343C59.9311 331.635 60.0319 331.863 60.2333 332.028C60.4381 332.192 60.7016 332.275 61.0239 332.275ZM64.9364 332.844V327.637H65.8379V328.392C65.9218 328.248 66.0376 328.112 66.1853 327.984C66.3364 327.856 66.5177 327.754 66.7292 327.677C66.9441 327.6 67.1909 327.561 67.4695 327.561C67.7985 327.561 68.1007 327.626 68.376 327.757C68.6546 327.888 68.8762 328.093 69.0407 328.372C69.2086 328.647 69.2925 329.003 69.2925 329.439V332.844H68.3609V329.53C68.3609 329.124 68.2534 328.823 68.0386 328.629C67.8271 328.431 67.5518 328.332 67.2127 328.332C66.9777 328.332 66.7578 328.37 66.553 328.447C66.3482 328.521 66.182 328.635 66.0544 328.79C65.9268 328.941 65.863 329.132 65.863 329.364V332.844H64.9364ZM72.7739 327.536C73.1466 327.536 73.4823 327.608 73.7811 327.752C74.0799 327.893 74.3233 328.095 74.5113 328.357C74.7027 328.619 74.8219 328.927 74.8689 329.283H74.043C74.0127 329.102 73.9422 328.936 73.8314 328.785C73.724 328.634 73.5813 328.513 73.4034 328.422C73.2254 328.332 73.0173 328.286 72.7789 328.286C72.3324 328.286 71.9698 328.447 71.6912 328.77C71.4125 329.092 71.2732 329.585 71.2732 330.25C71.2732 330.851 71.4007 331.333 71.6559 331.696C71.9144 332.055 72.2938 332.234 72.794 332.234C73.0324 332.234 73.2389 332.189 73.4135 332.098C73.5914 332.004 73.7341 331.882 73.8415 331.731C73.949 331.576 74.0178 331.412 74.048 331.237H74.8588C74.8151 331.586 74.6976 331.889 74.5063 332.144C74.3149 332.399 74.0698 332.597 73.771 332.738C73.4756 332.876 73.1432 332.944 72.7739 332.944C72.3072 332.944 71.8926 332.842 71.53 332.637C71.1708 332.432 70.8888 332.13 70.684 331.731C70.4792 331.331 70.3768 330.841 70.3768 330.26C70.3768 329.716 70.4691 329.241 70.6537 328.835C70.8418 328.426 71.1137 328.107 71.4696 327.878C71.8288 327.65 72.2636 327.536 72.7739 327.536ZM76.7429 330.457C76.7429 330.786 76.7966 331.085 76.904 331.353C77.0148 331.618 77.181 331.83 77.4026 331.988C77.6275 332.145 77.9079 332.224 78.2436 332.224C78.576 332.224 78.8613 332.147 79.0997 331.993C79.3414 331.838 79.4959 331.615 79.563 331.323H80.4443C80.3805 331.675 80.2395 331.973 80.0213 332.214C79.8031 332.456 79.5395 332.639 79.2306 332.763C78.9218 332.884 78.5995 332.944 78.2637 332.944C77.7769 332.944 77.3489 332.839 76.9796 332.627C76.6103 332.416 76.3215 332.112 76.1134 331.716C75.9052 331.32 75.8011 330.844 75.8011 330.291C75.8011 329.743 75.8951 329.263 76.0832 328.85C76.2712 328.437 76.5431 328.115 76.899 327.883C77.2582 327.652 77.6896 327.536 78.1932 327.536C78.6834 327.536 79.098 327.642 79.4371 327.853C79.7762 328.065 80.033 328.363 80.2076 328.75C80.3856 329.132 80.4745 329.587 80.4745 330.114V330.457H76.7429ZM76.7479 329.827H79.5781C79.5781 329.528 79.5278 329.26 79.427 329.021C79.3263 328.78 79.1719 328.59 78.9637 328.452C78.7589 328.311 78.5004 328.241 78.1882 328.241C77.8625 328.241 77.5923 328.32 77.3774 328.478C77.1659 328.632 77.0064 328.832 76.899 329.077C76.7949 329.319 76.7445 329.569 76.7479 329.827Z" fill="#172733"/>
<rect x="92.7988" y="325.027" width="8.63309" height="8.63309" rx="2.8777" fill="#5ED1B1"/>
<path d="M105.272 325.562H106.204V332.844H105.272V325.562ZM107.883 332.844V327.637H108.785V328.392C108.868 328.248 108.984 328.112 109.132 327.984C109.283 327.856 109.464 327.754 109.676 327.677C109.891 327.6 110.138 327.561 110.416 327.561C110.745 327.561 111.047 327.626 111.323 327.757C111.601 327.888 111.823 328.093 111.987 328.372C112.155 328.647 112.239 329.003 112.239 329.439V332.844H111.308V329.53C111.308 329.124 111.2 328.823 110.985 328.629C110.774 328.431 110.498 328.332 110.159 328.332C109.924 328.332 109.704 328.37 109.5 328.447C109.295 328.521 109.129 328.635 109.001 328.79C108.874 328.941 108.81 329.132 108.81 329.364V332.844H107.883ZM115.721 327.536C116.093 327.536 116.429 327.608 116.728 327.752C117.027 327.893 117.27 328.095 117.458 328.357C117.649 328.619 117.769 328.927 117.816 329.283H116.99C116.959 329.102 116.889 328.936 116.778 328.785C116.671 328.634 116.528 328.513 116.35 328.422C116.172 328.332 115.964 328.286 115.726 328.286C115.279 328.286 114.916 328.447 114.638 328.77C114.359 329.092 114.22 329.585 114.22 330.25C114.22 330.851 114.347 331.333 114.603 331.696C114.861 332.055 115.24 332.234 115.741 332.234C115.979 332.234 116.186 332.189 116.36 332.098C116.538 332.004 116.681 331.882 116.788 331.731C116.896 331.576 116.964 331.412 116.995 331.237H117.805C117.762 331.586 117.644 331.889 117.453 332.144C117.262 332.399 117.016 332.597 116.718 332.738C116.422 332.876 116.09 332.944 115.721 332.944C115.254 332.944 114.839 332.842 114.477 332.637C114.117 332.432 113.835 332.13 113.631 331.731C113.426 331.331 113.323 330.841 113.323 330.26C113.323 329.716 113.416 329.241 113.6 328.835C113.788 328.426 114.06 328.107 114.416 327.878C114.775 327.65 115.21 327.536 115.721 327.536ZM119.025 332.844V327.637H119.911V328.639C119.998 328.39 120.121 328.185 120.279 328.024C120.437 327.86 120.616 327.737 120.818 327.657C121.022 327.576 121.234 327.536 121.452 327.536C121.529 327.536 121.605 327.541 121.679 327.551C121.753 327.561 121.81 327.578 121.85 327.601V328.503C121.8 328.479 121.734 328.464 121.654 328.457C121.576 328.447 121.511 328.442 121.457 328.442C121.249 328.429 121.054 328.442 120.873 328.483C120.692 328.52 120.532 328.585 120.395 328.679C120.257 328.773 120.148 328.897 120.067 329.052C119.99 329.203 119.951 329.387 119.951 329.606V332.844H119.025ZM123.436 330.457C123.436 330.786 123.49 331.085 123.597 331.353C123.708 331.618 123.874 331.83 124.096 331.988C124.32 332.145 124.601 332.224 124.937 332.224C125.269 332.224 125.554 332.147 125.793 331.993C126.034 331.838 126.189 331.615 126.256 331.323H127.137C127.073 331.675 126.932 331.973 126.714 332.214C126.496 332.456 126.232 332.639 125.924 332.763C125.615 332.884 125.292 332.944 124.957 332.944C124.47 332.944 124.042 332.839 123.673 332.627C123.303 332.416 123.014 332.112 122.806 331.716C122.598 331.32 122.494 330.844 122.494 330.291C122.494 329.743 122.588 329.263 122.776 328.85C122.964 328.437 123.236 328.115 123.592 327.883C123.951 327.652 124.383 327.536 124.886 327.536C125.376 327.536 125.791 327.642 126.13 327.853C126.469 328.065 126.726 328.363 126.901 328.75C127.079 329.132 127.167 329.587 127.167 330.114V330.457H123.436ZM123.441 329.827H126.271C126.271 329.528 126.221 329.26 126.12 329.021C126.019 328.78 125.865 328.59 125.657 328.452C125.452 328.311 125.193 328.241 124.881 328.241C124.555 328.241 124.285 328.32 124.07 328.478C123.859 328.632 123.699 328.832 123.592 329.077C123.488 329.319 123.438 329.569 123.441 329.827ZM129.777 332.944C129.442 332.944 129.144 332.886 128.886 332.768C128.627 332.647 128.424 332.474 128.277 332.25C128.132 332.025 128.06 331.753 128.06 331.434C128.06 330.856 128.261 330.426 128.664 330.144C129.067 329.862 129.714 329.711 130.603 329.691L131.535 329.666V329.258C131.535 328.939 131.439 328.687 131.248 328.503C131.056 328.315 130.759 328.221 130.356 328.221C130.058 328.224 129.794 328.295 129.566 328.432C129.341 328.57 129.195 328.795 129.128 329.107H128.307C128.327 328.768 128.423 328.483 128.594 328.251C128.765 328.016 129.003 327.838 129.309 327.717C129.618 327.596 129.982 327.536 130.402 327.536C130.855 327.536 131.231 327.6 131.53 327.727C131.832 327.855 132.057 328.043 132.205 328.291C132.356 328.54 132.431 328.845 132.431 329.208V332.844H131.636L131.57 331.867C131.369 332.273 131.112 332.555 130.8 332.713C130.491 332.867 130.15 332.944 129.777 332.944ZM130.059 332.275C130.234 332.275 130.407 332.243 130.578 332.179C130.753 332.115 130.912 332.03 131.056 331.922C131.201 331.811 131.315 331.689 131.399 331.555C131.486 331.417 131.531 331.276 131.535 331.132V330.24L130.759 330.255C130.363 330.262 130.031 330.302 129.762 330.376C129.497 330.45 129.297 330.566 129.163 330.724C129.032 330.881 128.967 331.088 128.967 331.343C128.967 331.635 129.067 331.863 129.269 332.028C129.473 332.192 129.737 332.275 130.059 332.275ZM135.741 332.944C135.379 332.944 135.041 332.889 134.729 332.778C134.42 332.664 134.163 332.488 133.959 332.25C133.754 332.008 133.625 331.701 133.571 331.328H134.417C134.464 331.533 134.548 331.704 134.669 331.842C134.793 331.976 134.947 332.078 135.132 332.149C135.317 332.216 135.518 332.25 135.736 332.25C136.085 332.25 136.367 332.184 136.582 332.053C136.797 331.922 136.905 331.721 136.905 331.449C136.905 331.257 136.848 331.105 136.733 330.991C136.623 330.873 136.45 330.787 136.215 330.734L135.137 330.467C134.717 330.366 134.382 330.208 134.13 329.993C133.878 329.779 133.752 329.478 133.752 329.092C133.749 328.786 133.821 328.518 133.969 328.286C134.116 328.055 134.338 327.872 134.633 327.737C134.929 327.603 135.296 327.536 135.736 327.536C136.3 327.536 136.755 327.663 137.101 327.919C137.45 328.17 137.631 328.541 137.645 329.032H136.824C136.79 328.783 136.678 328.587 136.487 328.442C136.299 328.295 136.045 328.221 135.726 328.221C135.394 328.221 135.124 328.288 134.915 328.422C134.707 328.553 134.603 328.758 134.603 329.037C134.603 329.221 134.677 329.367 134.825 329.475C134.972 329.579 135.191 329.666 135.479 329.737L136.522 329.998C136.764 330.062 136.962 330.146 137.116 330.25C137.274 330.354 137.398 330.47 137.489 330.598C137.583 330.725 137.648 330.86 137.685 331.001C137.725 331.138 137.746 331.271 137.746 331.398C137.746 331.717 137.665 331.993 137.504 332.224C137.346 332.453 137.118 332.631 136.819 332.758C136.524 332.882 136.164 332.944 135.741 332.944ZM139.661 330.457C139.661 330.786 139.715 331.085 139.823 331.353C139.933 331.618 140.1 331.83 140.321 331.988C140.546 332.145 140.826 332.224 141.162 332.224C141.495 332.224 141.78 332.147 142.018 331.993C142.26 331.838 142.414 331.615 142.482 331.323H143.363C143.299 331.675 143.158 331.973 142.94 332.214C142.722 332.456 142.458 332.639 142.149 332.763C141.84 332.884 141.518 332.944 141.182 332.944C140.696 332.944 140.267 332.839 139.898 332.627C139.529 332.416 139.24 332.112 139.032 331.716C138.824 331.32 138.72 330.844 138.72 330.291C138.72 329.743 138.814 329.263 139.002 328.85C139.19 328.437 139.462 328.115 139.818 327.883C140.177 327.652 140.608 327.536 141.112 327.536C141.602 327.536 142.017 327.642 142.356 327.853C142.695 328.065 142.952 328.363 143.126 328.75C143.304 329.132 143.393 329.587 143.393 330.114V330.457H139.661ZM139.667 329.827H142.497C142.497 329.528 142.446 329.26 142.346 329.021C142.245 328.78 142.091 328.59 141.882 328.452C141.678 328.311 141.419 328.241 141.107 328.241C140.781 328.241 140.511 328.32 140.296 328.478C140.085 328.632 139.925 328.832 139.818 329.077C139.714 329.319 139.663 329.569 139.667 329.827Z" fill="#172733"/>
<rect x="155.82" y="325.027" width="8.63309" height="8.63309" rx="2.8777" fill="#FF7A7A"/>
<path d="M168.294 325.562C168.317 325.562 168.388 325.563 168.505 325.567C168.626 325.567 168.772 325.567 168.944 325.567C169.115 325.563 169.293 325.563 169.477 325.567C169.662 325.567 169.832 325.568 169.986 325.572C170.879 325.585 171.603 325.731 172.156 326.01C172.714 326.285 173.122 326.686 173.38 327.214C173.642 327.741 173.773 328.389 173.773 329.157C173.773 329.963 173.632 330.64 173.35 331.187C173.071 331.734 172.645 332.147 172.071 332.426C171.5 332.704 170.773 332.844 169.89 332.844H168.294V325.562ZM169.251 326.362V332.043H169.89C170.491 332.043 171.008 331.951 171.441 331.766C171.874 331.578 172.207 331.274 172.439 330.855C172.674 330.435 172.791 329.874 172.791 329.173C172.791 328.471 172.677 327.915 172.449 327.506C172.224 327.096 171.898 326.804 171.472 326.629C171.045 326.451 170.532 326.362 169.931 326.362H169.251ZM175.7 330.457C175.7 330.786 175.754 331.085 175.862 331.353C175.972 331.618 176.139 331.83 176.36 331.988C176.585 332.145 176.865 332.224 177.201 332.224C177.533 332.224 177.819 332.147 178.057 331.993C178.299 331.838 178.453 331.615 178.521 331.323H179.402C179.338 331.675 179.197 331.973 178.979 332.214C178.761 332.456 178.497 332.639 178.188 332.763C177.879 332.884 177.557 332.944 177.221 332.944C176.734 332.944 176.306 332.839 175.937 332.627C175.568 332.416 175.279 332.112 175.071 331.716C174.863 331.32 174.759 330.844 174.759 330.291C174.759 329.743 174.853 329.263 175.041 328.85C175.229 328.437 175.501 328.115 175.857 327.883C176.216 327.652 176.647 327.536 177.151 327.536C177.641 327.536 178.056 327.642 178.395 327.853C178.734 328.065 178.991 328.363 179.165 328.75C179.343 329.132 179.432 329.587 179.432 330.114V330.457H175.7ZM175.705 329.827H178.536C178.536 329.528 178.485 329.26 178.385 329.021C178.284 328.78 178.129 328.59 177.921 328.452C177.716 328.311 177.458 328.241 177.146 328.241C176.82 328.241 176.55 328.32 176.335 328.478C176.123 328.632 175.964 328.832 175.857 329.077C175.752 329.319 175.702 329.569 175.705 329.827ZM182.735 327.536C183.108 327.536 183.444 327.608 183.743 327.752C184.041 327.893 184.285 328.095 184.473 328.357C184.664 328.619 184.783 328.927 184.83 329.283H184.004C183.974 329.102 183.904 328.936 183.793 328.785C183.686 328.634 183.543 328.513 183.365 328.422C183.187 328.332 182.979 328.286 182.74 328.286C182.294 328.286 181.931 328.447 181.653 328.77C181.374 329.092 181.235 329.585 181.235 330.25C181.235 330.851 181.362 331.333 181.617 331.696C181.876 332.055 182.255 332.234 182.756 332.234C182.994 332.234 183.2 332.189 183.375 332.098C183.553 332.004 183.696 331.882 183.803 331.731C183.91 331.576 183.979 331.412 184.01 331.237H184.82C184.777 331.586 184.659 331.889 184.468 332.144C184.276 332.399 184.031 332.597 183.733 332.738C183.437 332.876 183.105 332.944 182.735 332.944C182.269 332.944 181.854 332.842 181.492 332.637C181.132 332.432 180.85 332.13 180.645 331.731C180.441 331.331 180.338 330.841 180.338 330.26C180.338 329.716 180.431 329.241 180.615 328.835C180.803 328.426 181.075 328.107 181.431 327.878C181.79 327.65 182.225 327.536 182.735 327.536ZM186.04 332.844V327.637H186.926V328.639C187.013 328.39 187.136 328.185 187.294 328.024C187.451 327.86 187.631 327.737 187.832 327.657C188.037 327.576 188.249 327.536 188.467 327.536C188.544 327.536 188.62 327.541 188.694 327.551C188.767 327.561 188.825 327.578 188.865 327.601V328.503C188.814 328.479 188.749 328.464 188.668 328.457C188.591 328.447 188.526 328.442 188.472 328.442C188.264 328.429 188.069 328.442 187.888 328.483C187.707 328.52 187.547 328.585 187.409 328.679C187.272 328.773 187.163 328.897 187.082 329.052C187.005 329.203 186.966 329.387 186.966 329.606V332.844H186.04ZM190.451 330.457C190.451 330.786 190.504 331.085 190.612 331.353C190.723 331.618 190.889 331.83 191.11 331.988C191.335 332.145 191.616 332.224 191.951 332.224C192.284 332.224 192.569 332.147 192.808 331.993C193.049 331.838 193.204 331.615 193.271 331.323H194.152C194.088 331.675 193.947 331.973 193.729 332.214C193.511 332.456 193.247 332.639 192.938 332.763C192.63 332.884 192.307 332.944 191.972 332.944C191.485 332.944 191.057 332.839 190.687 332.627C190.318 332.416 190.029 332.112 189.821 331.716C189.613 331.32 189.509 330.844 189.509 330.291C189.509 329.743 189.603 329.263 189.791 328.85C189.979 328.437 190.251 328.115 190.607 327.883C190.966 327.652 191.397 327.536 191.901 327.536C192.391 327.536 192.806 327.642 193.145 327.853C193.484 328.065 193.741 328.363 193.915 328.75C194.093 329.132 194.182 329.587 194.182 330.114V330.457H190.451ZM190.456 329.827H193.286C193.286 329.528 193.236 329.26 193.135 329.021C193.034 328.78 192.88 328.59 192.672 328.452C192.467 328.311 192.208 328.241 191.896 328.241C191.57 328.241 191.3 328.32 191.085 328.478C190.874 328.632 190.714 328.832 190.607 329.077C190.503 329.319 190.452 329.569 190.456 329.827ZM196.792 332.944C196.456 332.944 196.159 332.886 195.901 332.768C195.642 332.647 195.439 332.474 195.291 332.25C195.147 332.025 195.075 331.753 195.075 331.434C195.075 330.856 195.276 330.426 195.679 330.144C196.082 329.862 196.728 329.711 197.618 329.691L198.55 329.666V329.258C198.55 328.939 198.454 328.687 198.263 328.503C198.071 328.315 197.774 328.221 197.371 328.221C197.072 328.224 196.809 328.295 196.581 328.432C196.356 328.57 196.21 328.795 196.143 329.107H195.322C195.342 328.768 195.437 328.483 195.609 328.251C195.78 328.016 196.018 327.838 196.324 327.717C196.633 327.596 196.997 327.536 197.417 327.536C197.87 327.536 198.246 327.6 198.545 327.727C198.847 327.855 199.072 328.043 199.219 328.291C199.371 328.54 199.446 328.845 199.446 329.208V332.844H198.65L198.585 331.867C198.384 332.273 198.127 332.555 197.814 332.713C197.506 332.867 197.165 332.944 196.792 332.944ZM197.074 332.275C197.249 332.275 197.422 332.243 197.593 332.179C197.767 332.115 197.927 332.03 198.071 331.922C198.216 331.811 198.33 331.689 198.414 331.555C198.501 331.417 198.546 331.276 198.55 331.132V330.24L197.774 330.255C197.378 330.262 197.046 330.302 196.777 330.376C196.512 330.45 196.312 330.566 196.178 330.724C196.047 330.881 195.981 331.088 195.981 331.343C195.981 331.635 196.082 331.863 196.284 332.028C196.488 332.192 196.752 332.275 197.074 332.275ZM202.756 332.944C202.394 332.944 202.056 332.889 201.744 332.778C201.435 332.664 201.178 332.488 200.973 332.25C200.769 332.008 200.639 331.701 200.586 331.328H201.432C201.479 331.533 201.563 331.704 201.683 331.842C201.808 331.976 201.962 332.078 202.147 332.149C202.331 332.216 202.533 332.25 202.751 332.25C203.1 332.25 203.382 332.184 203.597 332.053C203.812 331.922 203.919 331.721 203.919 331.449C203.919 331.257 203.862 331.105 203.748 330.991C203.637 330.873 203.465 330.787 203.23 330.734L202.152 330.467C201.732 330.366 201.396 330.208 201.145 329.993C200.893 329.779 200.767 329.478 200.767 329.092C200.764 328.786 200.836 328.518 200.983 328.286C201.131 328.055 201.353 327.872 201.648 327.737C201.944 327.603 202.311 327.536 202.751 327.536C203.315 327.536 203.77 327.663 204.116 327.919C204.465 328.17 204.646 328.541 204.66 329.032H203.839C203.805 328.783 203.693 328.587 203.501 328.442C203.313 328.295 203.06 328.221 202.741 328.221C202.409 328.221 202.138 328.288 201.93 328.422C201.722 328.553 201.618 328.758 201.618 329.037C201.618 329.221 201.692 329.367 201.84 329.475C201.987 329.579 202.206 329.666 202.494 329.737L203.537 329.998C203.778 330.062 203.977 330.146 204.131 330.25C204.289 330.354 204.413 330.47 204.504 330.598C204.598 330.725 204.663 330.86 204.7 331.001C204.74 331.138 204.76 331.271 204.76 331.398C204.76 331.717 204.68 331.993 204.519 332.224C204.361 332.453 204.133 332.631 203.834 332.758C203.538 332.882 203.179 332.944 202.756 332.944ZM206.676 330.457C206.676 330.786 206.73 331.085 206.837 331.353C206.948 331.618 207.114 331.83 207.336 331.988C207.561 332.145 207.841 332.224 208.177 332.224C208.509 332.224 208.795 332.147 209.033 331.993C209.275 331.838 209.429 331.615 209.496 331.323H210.378C210.314 331.675 210.173 331.973 209.955 332.214C209.737 332.456 209.473 332.639 209.164 332.763C208.855 332.884 208.533 332.944 208.197 332.944C207.71 332.944 207.282 332.839 206.913 332.627C206.544 332.416 206.255 332.112 206.047 331.716C205.839 331.32 205.735 330.844 205.735 330.291C205.735 329.743 205.829 329.263 206.017 328.85C206.205 328.437 206.477 328.115 206.832 327.883C207.192 327.652 207.623 327.536 208.127 327.536C208.617 327.536 209.032 327.642 209.371 327.853C209.71 328.065 209.967 328.363 210.141 328.75C210.319 329.132 210.408 329.587 210.408 330.114V330.457H206.676ZM206.681 329.827H209.512C209.512 329.528 209.461 329.26 209.361 329.021C209.26 328.78 209.105 328.59 208.897 328.452C208.692 328.311 208.434 328.241 208.122 328.241C207.796 328.241 207.526 328.32 207.311 328.478C207.099 328.632 206.94 328.832 206.832 329.077C206.728 329.319 206.678 329.569 206.681 329.827Z" fill="#172733"/>
</g>
</g>
<defs>
<filter id="filter0_dd_989_11848" x="0.122302" y="0.592401" width="405.755" height="358.275" filterUnits="userSpaceOnUse" color-interpolation-filters="sRGB">
<feFlood flood-opacity="0" result="BackgroundImageFix"/>
<feColorMatrix in="SourceAlpha" type="matrix" values="0 0 0 0 0 0 0 0 0 0 0 0 0 0 0 0 0 0 127 0" result="hardAlpha"/>
<feOffset/>
<feGaussianBlur stdDeviation="0.359712"/>
<feColorMatrix type="matrix" values="0 0 0 0 0 0 0 0 0 0 0 0 0 0 0 0 0 0 0.25 0"/>
<feBlend mode="normal" in2="BackgroundImageFix" result="effect1_dropShadow_989_11848"/>
<feColorMatrix in="SourceAlpha" type="matrix" values="0 0 0 0 0 0 0 0 0 0 0 0 0 0 0 0 0 0 127 0" result="hardAlpha"/>
<feOffset dy="1.43885"/>
<feGaussianBlur stdDeviation="1.43885"/>
<feColorMatrix type="matrix" values="0 0 0 0 0 0 0 0 0 0 0 0 0 0 0 0 0 0 0.05 0"/>
<feBlend mode="normal" in2="effect1_dropShadow_989_11848" result="effect2_dropShadow_989_11848"/>
<feBlend mode="normal" in="SourceGraphic" in2="effect2_dropShadow_989_11848" result="shape"/>
</filter>
<clipPath id="clip0_989_11848">
<rect width="191.065" height="15.8777" fill="white" transform="translate(20.2656 321.406)"/>
</clipPath>
</defs>
</svg>
