<svg width="564" height="328" viewBox="0 0 564 328" fill="none" xmlns="http://www.w3.org/2000/svg">
<g filter="url(#filter0_dd_989_7582)">
<rect x="4" y="2" width="556" height="320" rx="8" fill="white"/>
<path d="M4 10C4 5.58172 7.58172 2 12 2H552C556.418 2 560 5.58172 560 10V58H4V10Z" fill="white"/>
<path d="M28.396 25.241V23.486H38.395V25.241H34.462V36.5H32.518V25.241H28.396ZM42.5048 36.68C41.6348 36.68 40.8728 36.494 40.2188 36.122C39.5708 35.744 39.0668 35.198 38.7068 34.484C38.3528 33.77 38.1758 32.906 38.1758 31.892C38.1758 30.914 38.3438 30.059 38.6798 29.327C39.0218 28.595 39.5168 28.028 40.1648 27.626C40.8128 27.218 41.5958 27.014 42.5138 27.014C43.3898 27.014 44.1488 27.206 44.7908 27.59C45.4328 27.968 45.9308 28.523 46.2848 29.255C46.6388 29.981 46.8158 30.86 46.8158 31.892C46.8158 32.834 46.6478 33.665 46.3118 34.385C45.9818 35.105 45.4958 35.669 44.8538 36.077C44.2178 36.479 43.4348 36.68 42.5048 36.68ZM42.5138 35.195C43.0418 35.195 43.4828 35.057 43.8368 34.781C44.1968 34.499 44.4668 34.106 44.6468 33.602C44.8268 33.092 44.9168 32.504 44.9168 31.838C44.9168 31.22 44.8358 30.659 44.6738 30.155C44.5178 29.645 44.2628 29.24 43.9088 28.94C43.5548 28.64 43.0898 28.49 42.5138 28.49C41.9738 28.49 41.5238 28.628 41.1638 28.904C40.8038 29.174 40.5308 29.561 40.3448 30.065C40.1648 30.563 40.0748 31.154 40.0748 31.838C40.0748 32.444 40.1558 33.002 40.3178 33.512C40.4798 34.022 40.7408 34.43 41.1008 34.736C41.4608 35.042 41.9318 35.195 42.5138 35.195ZM53.4842 28.58H51.3962L51.4052 34.133C51.4052 34.439 51.4352 34.664 51.4952 34.808C51.5612 34.946 51.6692 35.036 51.8192 35.078C51.9752 35.114 52.1852 35.132 52.4492 35.132H53.5382V36.383C53.4182 36.431 53.2382 36.473 52.9982 36.509C52.7642 36.545 52.4612 36.563 52.0892 36.563C51.3992 36.563 50.8622 36.47 50.4782 36.284C50.1002 36.098 49.8362 35.831 49.6862 35.483C49.5422 35.129 49.4702 34.703 49.4702 34.205V28.58H47.9582V27.194H49.5242L50.0012 24.458H51.3962V27.185H53.4842V28.58ZM58.2231 36.68C57.6231 36.68 57.0891 36.572 56.6211 36.356C56.1591 36.14 55.7961 35.828 55.5321 35.42C55.2681 35.012 55.1361 34.52 55.1361 33.944C55.1361 32.912 55.5021 32.141 56.2341 31.631C56.9661 31.121 58.1331 30.851 59.7351 30.821L61.2651 30.776V30.101C61.2651 29.567 61.1061 29.147 60.7881 28.841C60.4701 28.535 59.9811 28.385 59.3211 28.391C58.8231 28.391 58.3791 28.505 57.9891 28.733C57.6051 28.961 57.3531 29.336 57.2331 29.858H55.5591C55.5951 29.24 55.7721 28.721 56.0901 28.301C56.4141 27.875 56.8581 27.554 57.4221 27.338C57.9861 27.122 58.6491 27.014 59.4111 27.014C60.2571 27.014 60.9531 27.131 61.4991 27.365C62.0451 27.593 62.4501 27.929 62.7141 28.373C62.9841 28.817 63.1191 29.357 63.1191 29.993V36.5H61.4901L61.3371 34.79C60.9891 35.504 60.5481 35.999 60.0141 36.275C59.4861 36.545 58.8891 36.68 58.2231 36.68ZM58.8261 35.339C59.1201 35.339 59.4111 35.288 59.6991 35.186C59.9871 35.078 60.2481 34.934 60.4821 34.754C60.7161 34.568 60.9021 34.361 61.0401 34.133C61.1841 33.905 61.2591 33.671 61.2651 33.431V31.892L60.0051 31.919C59.3631 31.925 58.8171 31.991 58.3671 32.117C57.9231 32.243 57.5811 32.438 57.3411 32.702C57.1071 32.966 56.9901 33.317 56.9901 33.755C56.9901 34.253 57.1641 34.643 57.5121 34.925C57.8601 35.201 58.2981 35.339 58.8261 35.339ZM68.256 36.626C67.704 36.626 67.26 36.554 66.924 36.41C66.594 36.266 66.342 36.074 66.168 35.834C65.994 35.588 65.877 35.312 65.817 35.006C65.763 34.694 65.736 34.373 65.736 34.043V23.126H67.635V33.845C67.635 34.277 67.719 34.607 67.887 34.835C68.061 35.063 68.325 35.192 68.679 35.222L69.165 35.24V36.464C69.015 36.512 68.859 36.551 68.697 36.581C68.541 36.611 68.394 36.626 68.256 36.626ZM75.1009 39.398V27.194H77.0269L77.0449 28.742C77.1589 28.538 77.3059 28.337 77.4859 28.139C77.6659 27.935 77.8789 27.749 78.1249 27.581C78.3769 27.407 78.6619 27.269 78.9799 27.167C79.3039 27.065 79.6609 27.014 80.0509 27.014C80.7829 27.014 81.4279 27.185 81.9859 27.527C82.5499 27.863 82.9879 28.382 83.2999 29.084C83.6179 29.78 83.7769 30.665 83.7769 31.739C83.7769 32.819 83.6179 33.725 83.2999 34.457C82.9879 35.189 82.5409 35.744 81.9589 36.122C81.3769 36.494 80.6869 36.68 79.8889 36.68C79.5049 36.68 79.1599 36.626 78.8539 36.518C78.5479 36.41 78.2779 36.269 78.0439 36.095C77.8099 35.915 77.6089 35.723 77.4409 35.519C77.2789 35.309 77.1439 35.102 77.0359 34.898V39.398H75.1009ZM79.4839 35.213C80.1979 35.213 80.7829 34.937 81.2389 34.385C81.7009 33.827 81.9319 32.957 81.9319 31.775C81.9319 30.761 81.7189 29.96 81.2929 29.372C80.8729 28.778 80.2699 28.481 79.4839 28.481C78.6739 28.481 78.0619 28.79 77.6479 29.408C77.2339 30.02 77.0269 30.809 77.0269 31.775C77.0269 32.405 77.1169 32.981 77.2969 33.503C77.4829 34.019 77.7589 34.433 78.1249 34.745C78.4909 35.057 78.9439 35.213 79.4839 35.213ZM85.7512 36.5V27.194H87.5962V29.102C87.7522 28.646 87.9682 28.265 88.2442 27.959C88.5262 27.647 88.8532 27.413 89.2252 27.257C89.5972 27.095 89.9902 27.014 90.4042 27.014C90.5302 27.014 90.6502 27.023 90.7642 27.041C90.8782 27.053 90.9682 27.077 91.0342 27.113V28.967C90.9562 28.931 90.8542 28.907 90.7282 28.895C90.6082 28.883 90.5032 28.874 90.4132 28.868C90.0052 28.838 89.6332 28.859 89.2972 28.931C88.9612 29.003 88.6702 29.123 88.4242 29.291C88.1842 29.459 87.9982 29.678 87.8662 29.948C87.7402 30.218 87.6772 30.536 87.6772 30.902V36.5H85.7512ZM96.3494 36.68C95.4794 36.68 94.7174 36.494 94.0634 36.122C93.4154 35.744 92.9114 35.198 92.5514 34.484C92.1974 33.77 92.0204 32.906 92.0204 31.892C92.0204 30.914 92.1884 30.059 92.5244 29.327C92.8664 28.595 93.3614 28.028 94.0094 27.626C94.6574 27.218 95.4404 27.014 96.3584 27.014C97.2344 27.014 97.9934 27.206 98.6354 27.59C99.2774 27.968 99.7754 28.523 100.129 29.255C100.483 29.981 100.66 30.86 100.66 31.892C100.66 32.834 100.492 33.665 100.156 34.385C99.8264 35.105 99.3404 35.669 98.6984 36.077C98.0624 36.479 97.2794 36.68 96.3494 36.68ZM96.3584 35.195C96.8864 35.195 97.3274 35.057 97.6814 34.781C98.0414 34.499 98.3114 34.106 98.4914 33.602C98.6714 33.092 98.7614 32.504 98.7614 31.838C98.7614 31.22 98.6804 30.659 98.5184 30.155C98.3624 29.645 98.1074 29.24 97.7534 28.94C97.3994 28.64 96.9344 28.49 96.3584 28.49C95.8184 28.49 95.3684 28.628 95.0084 28.904C94.6484 29.174 94.3754 29.561 94.1894 30.065C94.0094 30.563 93.9194 31.154 93.9194 31.838C93.9194 32.444 94.0004 33.002 94.1624 33.512C94.3244 34.022 94.5854 34.43 94.9454 34.736C95.3054 35.042 95.7764 35.195 96.3584 35.195ZM107.626 27.194V28.58H105.448V36.5H103.513V28.58H101.614V27.194H103.513V25.781C103.513 25.037 103.711 24.47 104.107 24.08C104.503 23.684 105.085 23.486 105.853 23.486H107.707L107.716 24.818H106.375C106.003 24.818 105.748 24.917 105.61 25.115C105.478 25.307 105.412 25.604 105.412 26.006V27.194H107.626ZM111.568 27.194V36.5H109.714V27.194H111.568ZM111.604 23.495V25.394H109.669V23.495H111.604ZM119.333 28.58H117.245L117.254 34.133C117.254 34.439 117.284 34.664 117.344 34.808C117.41 34.946 117.518 35.036 117.668 35.078C117.824 35.114 118.034 35.132 118.298 35.132H119.387V36.383C119.267 36.431 119.087 36.473 118.847 36.509C118.613 36.545 118.31 36.563 117.938 36.563C117.248 36.563 116.711 36.47 116.327 36.284C115.949 36.098 115.685 35.831 115.535 35.483C115.391 35.129 115.319 34.703 115.319 34.205V28.58H113.807V27.194H115.373L115.85 24.458H117.245V27.185H119.333V28.58Z" fill="#172733"/>
<rect width="556" height="1" transform="translate(4 57)" fill="#DDE3E7"/>
<path d="M35.0346 87.324H41.1246V88.284C40.8166 88.704 40.5106 89.182 40.2066 89.718C39.9066 90.25 39.6206 90.808 39.3486 91.392C39.0766 91.972 38.8326 92.546 38.6166 93.114C38.4006 93.678 38.2206 94.21 38.0766 94.71C37.9366 95.206 37.8466 95.636 37.8066 96H36.6006C36.6646 95.604 36.7786 95.114 36.9426 94.53C37.1106 93.946 37.3306 93.308 37.6026 92.616C37.8746 91.92 38.2026 91.202 38.5866 90.462C38.9706 89.722 39.4106 88.996 39.9066 88.284H35.0346V87.324ZM43.0876 87.324H48.2656L48.2356 88.284H44.0356L43.8136 91.086C44.1016 90.818 44.4156 90.628 44.7556 90.516C45.0996 90.4 45.4716 90.342 45.8716 90.342C46.3956 90.342 46.8776 90.45 47.3176 90.666C47.7616 90.878 48.1176 91.194 48.3856 91.614C48.6536 92.03 48.7876 92.546 48.7876 93.162C48.7876 93.762 48.6576 94.284 48.3976 94.728C48.1376 95.172 47.7716 95.518 47.2996 95.766C46.8276 96.01 46.2736 96.132 45.6376 96.132C45.1016 96.132 44.6056 96.038 44.1496 95.85C43.6936 95.662 43.3016 95.4 42.9736 95.064C42.6496 94.728 42.4116 94.342 42.2596 93.906L43.2196 93.504C43.3636 93.832 43.5436 94.124 43.7596 94.38C43.9796 94.636 44.2396 94.836 44.5396 94.98C44.8396 95.124 45.1796 95.196 45.5596 95.196C46.1756 95.196 46.6696 95.018 47.0416 94.662C47.4176 94.302 47.6056 93.814 47.6056 93.198C47.6056 92.814 47.5176 92.48 47.3416 92.196C47.1656 91.908 46.9276 91.684 46.6276 91.524C46.3316 91.364 46.0036 91.284 45.6436 91.284C45.4076 91.284 45.1876 91.306 44.9836 91.35C44.7796 91.39 44.5776 91.47 44.3776 91.59C44.1776 91.71 43.9676 91.892 43.7476 92.136C43.7236 92.148 43.7056 92.154 43.6936 92.154C43.6816 92.15 43.6616 92.142 43.6336 92.13L42.6976 91.836L43.0876 87.324ZM50.5171 96V87.324H52.0531L54.6691 94.488L57.3211 87.324H58.8511V96H57.7051V88.986L55.1911 96H54.1531L51.6571 89.052V96H50.5171Z" fill="#6E7880"/>
<rect x="76" y="91.5" width="460" height="1" fill="#DDE3E7"/>
<path d="M35.7399 129.324H40.9179L40.8879 130.284H36.6879L36.4659 133.086C36.7539 132.818 37.0679 132.628 37.4079 132.516C37.7519 132.4 38.1239 132.342 38.5239 132.342C39.0479 132.342 39.5299 132.45 39.9699 132.666C40.4139 132.878 40.7699 133.194 41.0379 133.614C41.3059 134.03 41.4399 134.546 41.4399 135.162C41.4399 135.762 41.3099 136.284 41.0499 136.728C40.7899 137.172 40.4239 137.518 39.9519 137.766C39.4799 138.01 38.9259 138.132 38.2899 138.132C37.7539 138.132 37.2579 138.038 36.8019 137.85C36.3459 137.662 35.9539 137.4 35.6259 137.064C35.3019 136.728 35.0639 136.342 34.9119 135.906L35.8719 135.504C36.0159 135.832 36.1959 136.124 36.4119 136.38C36.6319 136.636 36.8919 136.836 37.1919 136.98C37.4919 137.124 37.8319 137.196 38.2119 137.196C38.8279 137.196 39.3219 137.018 39.6939 136.662C40.0699 136.302 40.2579 135.814 40.2579 135.198C40.2579 134.814 40.1699 134.48 39.9939 134.196C39.8179 133.908 39.5799 133.684 39.2799 133.524C38.9839 133.364 38.6559 133.284 38.2959 133.284C38.0599 133.284 37.8399 133.306 37.6359 133.35C37.4319 133.39 37.2299 133.47 37.0299 133.59C36.8299 133.71 36.6199 133.892 36.3999 134.136C36.3759 134.148 36.3579 134.154 36.3459 134.154C36.3339 134.15 36.3139 134.142 36.2859 134.13L35.3499 133.836L35.7399 129.324ZM45.7014 129.204C46.6414 129.204 47.3894 129.582 47.9454 130.338C48.5054 131.09 48.7854 132.204 48.7854 133.68C48.7854 135.148 48.5074 136.258 47.9514 137.01C47.3954 137.758 46.6414 138.132 45.6894 138.132C44.7414 138.132 43.9894 137.76 43.4334 137.016C42.8774 136.268 42.5994 135.162 42.5994 133.698C42.5994 132.71 42.7274 131.882 42.9834 131.214C43.2394 130.546 43.5994 130.044 44.0634 129.708C44.5274 129.372 45.0734 129.204 45.7014 129.204ZM45.7014 137.172C46.3214 137.172 46.7894 136.9 47.1054 136.356C47.4254 135.808 47.5854 134.918 47.5854 133.686C47.5854 132.43 47.4234 131.526 47.0994 130.974C46.7794 130.418 46.3114 130.14 45.6954 130.14C45.0834 130.14 44.6114 130.42 44.2794 130.98C43.9514 131.536 43.7874 132.438 43.7874 133.686C43.7874 134.914 43.9514 135.802 44.2794 136.35C44.6074 136.898 45.0814 137.172 45.7014 137.172ZM50.5171 138V129.324H52.0531L54.6691 136.488L57.3211 129.324H58.8511V138H57.7051V130.986L55.1911 138H54.1531L51.6571 131.052V138H50.5171Z" fill="#6E7880"/>
<rect x="76" y="133.5" width="460" height="1" fill="#DDE3E7"/>
<path d="M35.2792 180V179.322V178.968C35.2792 178.524 35.3612 178.14 35.5252 177.816C35.6932 177.492 35.9132 177.21 36.1852 176.97C36.4612 176.726 36.7612 176.508 37.0852 176.316C37.4132 176.124 37.7392 175.94 38.0632 175.764C38.3912 175.584 38.6912 175.398 38.9632 175.206C39.2352 175.01 39.4532 174.79 39.6172 174.546C39.7852 174.298 39.8692 174.006 39.8692 173.67C39.8692 173.23 39.7132 172.872 39.4012 172.596C39.0932 172.32 38.6752 172.182 38.1472 172.182C37.5792 172.182 37.1232 172.342 36.7792 172.662C36.4352 172.982 36.2412 173.408 36.1972 173.94H35.0932C35.1052 173.44 35.2292 172.984 35.4652 172.572C35.7012 172.156 36.0472 171.824 36.5032 171.576C36.9592 171.328 37.5212 171.204 38.1892 171.204C38.7692 171.204 39.2732 171.308 39.7012 171.516C40.1292 171.72 40.4592 172.008 40.6912 172.38C40.9272 172.748 41.0452 173.178 41.0452 173.67C41.0452 174.118 40.9632 174.502 40.7992 174.822C40.6352 175.142 40.4172 175.42 40.1452 175.656C39.8772 175.888 39.5832 176.096 39.2632 176.28C38.9432 176.464 38.6212 176.642 38.2972 176.814C37.9732 176.982 37.6772 177.16 37.4092 177.348C37.1412 177.532 36.9252 177.744 36.7612 177.984C36.5972 178.224 36.5152 178.51 36.5152 178.842V179.016H41.0932V180H35.2792ZM43.0876 171.324H48.2656L48.2356 172.284H44.0356L43.8136 175.086C44.1016 174.818 44.4156 174.628 44.7556 174.516C45.0996 174.4 45.4716 174.342 45.8716 174.342C46.3956 174.342 46.8776 174.45 47.3176 174.666C47.7616 174.878 48.1176 175.194 48.3856 175.614C48.6536 176.03 48.7876 176.546 48.7876 177.162C48.7876 177.762 48.6576 178.284 48.3976 178.728C48.1376 179.172 47.7716 179.518 47.2996 179.766C46.8276 180.01 46.2736 180.132 45.6376 180.132C45.1016 180.132 44.6056 180.038 44.1496 179.85C43.6936 179.662 43.3016 179.4 42.9736 179.064C42.6496 178.728 42.4116 178.342 42.2596 177.906L43.2196 177.504C43.3636 177.832 43.5436 178.124 43.7596 178.38C43.9796 178.636 44.2396 178.836 44.5396 178.98C44.8396 179.124 45.1796 179.196 45.5596 179.196C46.1756 179.196 46.6696 179.018 47.0416 178.662C47.4176 178.302 47.6056 177.814 47.6056 177.198C47.6056 176.814 47.5176 176.48 47.3416 176.196C47.1656 175.908 46.9276 175.684 46.6276 175.524C46.3316 175.364 46.0036 175.284 45.6436 175.284C45.4076 175.284 45.1876 175.306 44.9836 175.35C44.7796 175.39 44.5776 175.47 44.3776 175.59C44.1776 175.71 43.9676 175.892 43.7476 176.136C43.7236 176.148 43.7056 176.154 43.6936 176.154C43.6816 176.15 43.6616 176.142 43.6336 176.13L42.6976 175.836L43.0876 171.324ZM50.5171 180V171.324H52.0531L54.6691 178.488L57.3211 171.324H58.8511V180H57.7051V172.986L55.1911 180H54.1531L51.6571 173.052V180H50.5171Z" fill="#6E7880"/>
<rect x="76" y="175.5" width="460" height="1" fill="#DDE3E7"/>
<path d="M56.3303 213.204C57.2703 213.204 58.0183 213.582 58.5743 214.338C59.1343 215.09 59.4143 216.204 59.4143 217.68C59.4143 219.148 59.1363 220.258 58.5803 221.01C58.0243 221.758 57.2703 222.132 56.3183 222.132C55.3703 222.132 54.6183 221.76 54.0623 221.016C53.5063 220.268 53.2283 219.162 53.2283 217.698C53.2283 216.71 53.3563 215.882 53.6123 215.214C53.8683 214.546 54.2283 214.044 54.6923 213.708C55.1563 213.372 55.7023 213.204 56.3303 213.204ZM56.3303 221.172C56.9503 221.172 57.4183 220.9 57.7343 220.356C58.0543 219.808 58.2143 218.918 58.2143 217.686C58.2143 216.43 58.0523 215.526 57.7283 214.974C57.4083 214.418 56.9403 214.14 56.3243 214.14C55.7123 214.14 55.2403 214.42 54.9083 214.98C54.5803 215.536 54.4163 216.438 54.4163 217.686C54.4163 218.914 54.5803 219.802 54.9083 220.35C55.2363 220.898 55.7103 221.172 56.3303 221.172Z" fill="#6E7880"/>
<rect x="76" y="223" width="460" height="1" fill="#C7CFD5"/>
<path d="M78.3475 250V249.322V248.968C78.3475 248.524 78.4295 248.14 78.5935 247.816C78.7615 247.492 78.9815 247.21 79.2535 246.97C79.5295 246.726 79.8295 246.508 80.1535 246.316C80.4815 246.124 80.8075 245.94 81.1315 245.764C81.4595 245.584 81.7595 245.398 82.0315 245.206C82.3035 245.01 82.5215 244.79 82.6855 244.546C82.8535 244.298 82.9375 244.006 82.9375 243.67C82.9375 243.23 82.7815 242.872 82.4695 242.596C82.1615 242.32 81.7435 242.182 81.2155 242.182C80.6475 242.182 80.1915 242.342 79.8475 242.662C79.5035 242.982 79.3095 243.408 79.2655 243.94H78.1615C78.1735 243.44 78.2975 242.984 78.5335 242.572C78.7695 242.156 79.1155 241.824 79.5715 241.576C80.0275 241.328 80.5895 241.204 81.2575 241.204C81.8375 241.204 82.3415 241.308 82.7695 241.516C83.1975 241.72 83.5275 242.008 83.7595 242.38C83.9955 242.748 84.1135 243.178 84.1135 243.67C84.1135 244.118 84.0315 244.502 83.8675 244.822C83.7035 245.142 83.4855 245.42 83.2135 245.656C82.9455 245.888 82.6515 246.096 82.3315 246.28C82.0115 246.464 81.6895 246.642 81.3655 246.814C81.0415 246.982 80.7455 247.16 80.4775 247.348C80.2095 247.532 79.9935 247.744 79.8295 247.984C79.6655 248.224 79.5835 248.51 79.5835 248.842V249.016H84.1615V250H78.3475ZM88.43 241.204C89.37 241.204 90.118 241.582 90.674 242.338C91.234 243.09 91.514 244.204 91.514 245.68C91.514 247.148 91.236 248.258 90.68 249.01C90.124 249.758 89.37 250.132 88.418 250.132C87.47 250.132 86.718 249.76 86.162 249.016C85.606 248.268 85.328 247.162 85.328 245.698C85.328 244.71 85.456 243.882 85.712 243.214C85.968 242.546 86.328 242.044 86.792 241.708C87.256 241.372 87.802 241.204 88.43 241.204ZM88.43 249.172C89.05 249.172 89.518 248.9 89.834 248.356C90.154 247.808 90.314 246.918 90.314 245.686C90.314 244.43 90.152 243.526 89.828 242.974C89.508 242.418 89.04 242.14 88.424 242.14C87.812 242.14 87.34 242.42 87.008 242.98C86.68 243.536 86.516 244.438 86.516 245.686C86.516 246.914 86.68 247.802 87.008 248.35C87.336 248.898 87.81 249.172 88.43 249.172ZM92.8436 250V249.322V248.968C92.8436 248.524 92.9256 248.14 93.0896 247.816C93.2576 247.492 93.4776 247.21 93.7496 246.97C94.0256 246.726 94.3256 246.508 94.6496 246.316C94.9776 246.124 95.3036 245.94 95.6276 245.764C95.9556 245.584 96.2556 245.398 96.5276 245.206C96.7996 245.01 97.0176 244.79 97.1816 244.546C97.3496 244.298 97.4336 244.006 97.4336 243.67C97.4336 243.23 97.2776 242.872 96.9656 242.596C96.6576 242.32 96.2396 242.182 95.7116 242.182C95.1436 242.182 94.6876 242.342 94.3436 242.662C93.9996 242.982 93.8056 243.408 93.7616 243.94H92.6576C92.6696 243.44 92.7936 242.984 93.0296 242.572C93.2656 242.156 93.6116 241.824 94.0676 241.576C94.5236 241.328 95.0856 241.204 95.7536 241.204C96.3336 241.204 96.8376 241.308 97.2656 241.516C97.6936 241.72 98.0236 242.008 98.2556 242.38C98.4916 242.748 98.6096 243.178 98.6096 243.67C98.6096 244.118 98.5276 244.502 98.3636 244.822C98.1996 245.142 97.9816 245.42 97.7096 245.656C97.4416 245.888 97.1476 246.096 96.8276 246.28C96.5076 246.464 96.1856 246.642 95.8616 246.814C95.5376 246.982 95.2416 247.16 94.9736 247.348C94.7056 247.532 94.4896 247.744 94.3256 247.984C94.1616 248.224 94.0796 248.51 94.0796 248.842V249.016H98.6576V250H92.8436ZM99.992 250V249.322V248.968C99.992 248.524 100.074 248.14 100.238 247.816C100.406 247.492 100.626 247.21 100.898 246.97C101.174 246.726 101.474 246.508 101.798 246.316C102.126 246.124 102.452 245.94 102.776 245.764C103.104 245.584 103.404 245.398 103.676 245.206C103.948 245.01 104.166 244.79 104.33 244.546C104.498 244.298 104.582 244.006 104.582 243.67C104.582 243.23 104.426 242.872 104.114 242.596C103.806 242.32 103.388 242.182 102.86 242.182C102.292 242.182 101.836 242.342 101.492 242.662C101.148 242.982 100.954 243.408 100.91 243.94H99.806C99.818 243.44 99.942 242.984 100.178 242.572C100.414 242.156 100.76 241.824 101.216 241.576C101.672 241.328 102.234 241.204 102.902 241.204C103.482 241.204 103.986 241.308 104.414 241.516C104.842 241.72 105.172 242.008 105.404 242.38C105.64 242.748 105.758 243.178 105.758 243.67C105.758 244.118 105.676 244.502 105.512 244.822C105.348 245.142 105.13 245.42 104.858 245.656C104.59 245.888 104.296 246.096 103.976 246.28C103.656 246.464 103.334 246.642 103.01 246.814C102.686 246.982 102.39 247.16 102.122 247.348C101.854 247.532 101.638 247.744 101.474 247.984C101.31 248.224 101.228 248.51 101.228 248.842V249.016H105.806V250H99.992Z" fill="#6E7880"/>
<path d="M127.963 247.954C127.963 248.414 127.911 248.806 127.807 249.13C127.703 249.454 127.517 249.7 127.249 249.868C126.985 250.036 126.609 250.12 126.121 250.12C125.813 250.12 125.523 250.084 125.251 250.012C124.983 249.94 124.805 249.886 124.717 249.85L124.795 248.788C124.919 248.832 125.061 248.888 125.221 248.956C125.385 249.02 125.587 249.052 125.827 249.052C126.219 249.052 126.487 248.944 126.631 248.728C126.779 248.512 126.853 248.148 126.853 247.636V241.324H127.963V247.954ZM131.517 250.12C131.117 250.12 130.763 250.05 130.455 249.91C130.147 249.766 129.905 249.56 129.729 249.292C129.557 249.024 129.471 248.7 129.471 248.32C129.471 247.632 129.711 247.12 130.191 246.784C130.671 246.448 131.441 246.268 132.501 246.244L133.611 246.214V245.728C133.611 245.348 133.497 245.048 133.269 244.828C133.041 244.604 132.687 244.492 132.207 244.492C131.851 244.496 131.537 244.58 131.265 244.744C130.997 244.908 130.823 245.176 130.743 245.548H129.765C129.789 245.144 129.903 244.804 130.107 244.528C130.311 244.248 130.595 244.036 130.959 243.892C131.327 243.748 131.761 243.676 132.261 243.676C132.801 243.676 133.249 243.752 133.605 243.904C133.965 244.056 134.233 244.28 134.409 244.576C134.589 244.872 134.679 245.236 134.679 245.668V250H133.731L133.653 248.836C133.413 249.32 133.107 249.656 132.735 249.844C132.367 250.028 131.961 250.12 131.517 250.12ZM131.853 249.322C132.061 249.322 132.267 249.284 132.471 249.208C132.679 249.132 132.869 249.03 133.041 248.902C133.213 248.77 133.349 248.624 133.449 248.464C133.553 248.3 133.607 248.132 133.611 247.96V246.898L132.687 246.916C132.215 246.924 131.819 246.972 131.499 247.06C131.183 247.148 130.945 247.286 130.785 247.474C130.629 247.662 130.551 247.908 130.551 248.212C130.551 248.56 130.671 248.832 130.911 249.028C131.155 249.224 131.469 249.322 131.853 249.322ZM136.574 250V243.796H137.648V244.696C137.748 244.524 137.886 244.362 138.062 244.21C138.242 244.058 138.458 243.936 138.71 243.844C138.966 243.752 139.26 243.706 139.592 243.706C139.984 243.706 140.344 243.784 140.672 243.94C141.004 244.096 141.268 244.34 141.464 244.672C141.664 245 141.764 245.424 141.764 245.944V250H140.654V246.052C140.654 245.568 140.526 245.21 140.27 244.978C140.018 244.742 139.69 244.624 139.286 244.624C139.006 244.624 138.744 244.67 138.5 244.762C138.256 244.85 138.058 244.986 137.906 245.17C137.754 245.35 137.678 245.578 137.678 245.854V250H136.574Z" fill="#6E7880"/>
<path d="M165.523 241.324H170.929L170.923 242.296H166.663V245.164H170.491V246.124H166.663V250H165.523V241.324ZM173.036 247.156C173.036 247.548 173.1 247.904 173.228 248.224C173.36 248.54 173.558 248.792 173.822 248.98C174.09 249.168 174.424 249.262 174.824 249.262C175.22 249.262 175.56 249.17 175.844 248.986C176.132 248.802 176.316 248.536 176.396 248.188H177.446C177.37 248.608 177.202 248.962 176.942 249.25C176.682 249.538 176.368 249.756 176 249.904C175.632 250.048 175.248 250.12 174.848 250.12C174.268 250.12 173.758 249.994 173.318 249.742C172.878 249.49 172.534 249.128 172.286 248.656C172.038 248.184 171.914 247.618 171.914 246.958C171.914 246.306 172.026 245.734 172.25 245.242C172.474 244.75 172.798 244.366 173.222 244.09C173.65 243.814 174.164 243.676 174.764 243.676C175.348 243.676 175.842 243.802 176.246 244.054C176.65 244.306 176.956 244.662 177.164 245.122C177.376 245.578 177.482 246.12 177.482 246.748V247.156H173.036ZM173.042 246.406H176.414C176.414 246.05 176.354 245.73 176.234 245.446C176.114 245.158 175.93 244.932 175.682 244.768C175.438 244.6 175.13 244.516 174.758 244.516C174.37 244.516 174.048 244.61 173.792 244.798C173.54 244.982 173.35 245.22 173.222 245.512C173.098 245.8 173.038 246.098 173.042 246.406ZM182.072 250.12C181.708 250.12 181.4 250.072 181.148 249.976C180.9 249.88 180.696 249.758 180.536 249.61C180.376 249.458 180.252 249.304 180.164 249.148C180.076 248.988 180.012 248.848 179.972 248.728L179.852 250H179.006V241.084H180.122V244.78C180.174 244.676 180.252 244.562 180.356 244.438C180.464 244.314 180.602 244.194 180.77 244.078C180.938 243.962 181.136 243.866 181.364 243.79C181.596 243.714 181.86 243.676 182.156 243.676C182.932 243.676 183.548 243.946 184.004 244.486C184.464 245.026 184.694 245.822 184.694 246.874C184.694 247.526 184.596 248.096 184.4 248.584C184.204 249.068 183.912 249.446 183.524 249.718C183.136 249.986 182.652 250.12 182.072 250.12ZM181.874 249.268C182.378 249.268 182.788 249.074 183.104 248.686C183.42 248.294 183.578 247.672 183.578 246.82C183.578 246.096 183.43 245.536 183.134 245.14C182.842 244.74 182.414 244.54 181.85 244.54C181.438 244.54 181.106 244.63 180.854 244.81C180.606 244.986 180.422 245.244 180.302 245.584C180.186 245.924 180.126 246.336 180.122 246.82C180.122 247.688 180.256 248.314 180.524 248.698C180.796 249.078 181.246 249.268 181.874 249.268Z" fill="#6E7880"/>
<path d="M206.335 250V241.324H207.871L210.487 248.488L213.139 241.324H214.669V250H213.523V242.986L211.009 250H209.971L207.475 243.052V250H206.335ZM218.417 250.12C218.017 250.12 217.663 250.05 217.355 249.91C217.047 249.766 216.805 249.56 216.629 249.292C216.457 249.024 216.371 248.7 216.371 248.32C216.371 247.632 216.611 247.12 217.091 246.784C217.571 246.448 218.341 246.268 219.401 246.244L220.511 246.214V245.728C220.511 245.348 220.397 245.048 220.169 244.828C219.941 244.604 219.587 244.492 219.107 244.492C218.751 244.496 218.437 244.58 218.165 244.744C217.897 244.908 217.723 245.176 217.643 245.548H216.665C216.689 245.144 216.803 244.804 217.007 244.528C217.211 244.248 217.495 244.036 217.859 243.892C218.227 243.748 218.661 243.676 219.161 243.676C219.701 243.676 220.149 243.752 220.505 243.904C220.865 244.056 221.133 244.28 221.309 244.576C221.489 244.872 221.579 245.236 221.579 245.668V250H220.631L220.553 248.836C220.313 249.32 220.007 249.656 219.635 249.844C219.267 250.028 218.861 250.12 218.417 250.12ZM218.753 249.322C218.961 249.322 219.167 249.284 219.371 249.208C219.579 249.132 219.769 249.03 219.941 248.902C220.113 248.77 220.249 248.624 220.349 248.464C220.453 248.3 220.507 248.132 220.511 247.96V246.898L219.587 246.916C219.115 246.924 218.719 246.972 218.399 247.06C218.083 247.148 217.845 247.286 217.685 247.474C217.529 247.662 217.451 247.908 217.451 248.212C217.451 248.56 217.571 248.832 217.811 249.028C218.055 249.224 218.369 249.322 218.753 249.322ZM223.475 250V243.796H224.531V244.99C224.635 244.694 224.781 244.45 224.969 244.258C225.157 244.062 225.371 243.916 225.611 243.82C225.855 243.724 226.107 243.676 226.367 243.676C226.459 243.676 226.549 243.682 226.637 243.694C226.725 243.706 226.793 243.726 226.841 243.754V244.828C226.781 244.8 226.703 244.782 226.607 244.774C226.515 244.762 226.437 244.756 226.373 244.756C226.125 244.74 225.893 244.756 225.677 244.804C225.461 244.848 225.271 244.926 225.107 245.038C224.943 245.15 224.813 245.298 224.717 245.482C224.625 245.662 224.579 245.882 224.579 246.142V250H223.475Z" fill="#6E7880"/>
<path d="M247.949 250L251.087 241.324H252.341L255.479 250H254.345L253.493 247.624H249.947L249.077 250H247.949ZM250.229 246.604H253.199L251.723 242.422L250.229 246.604ZM256.889 251.932V243.796H257.993L258.005 244.876C258.077 244.748 258.169 244.614 258.281 244.474C258.397 244.334 258.537 244.204 258.701 244.084C258.869 243.964 259.063 243.866 259.283 243.79C259.507 243.714 259.761 243.676 260.045 243.676C260.541 243.676 260.977 243.79 261.353 244.018C261.733 244.242 262.029 244.586 262.241 245.05C262.453 245.514 262.559 246.102 262.559 246.814C262.559 247.526 262.455 248.128 262.247 248.62C262.043 249.108 261.747 249.48 261.359 249.736C260.971 249.992 260.503 250.12 259.955 250.12C259.679 250.12 259.433 250.08 259.217 250C259.005 249.924 258.819 249.824 258.659 249.7C258.503 249.572 258.371 249.436 258.263 249.292C258.159 249.148 258.073 249.01 258.005 248.878V251.932H256.889ZM259.745 249.256C260.257 249.256 260.675 249.062 260.999 248.674C261.323 248.282 261.485 247.674 261.485 246.85C261.485 246.142 261.337 245.58 261.041 245.164C260.745 244.748 260.313 244.54 259.745 244.54C259.169 244.54 258.733 244.754 258.437 245.182C258.141 245.606 257.993 246.162 257.993 246.85C257.993 247.294 258.059 247.698 258.191 248.062C258.323 248.426 258.519 248.716 258.779 248.932C259.039 249.148 259.361 249.256 259.745 249.256ZM264.014 250V243.796H265.07V244.99C265.174 244.694 265.32 244.45 265.508 244.258C265.696 244.062 265.91 243.916 266.15 243.82C266.394 243.724 266.646 243.676 266.906 243.676C266.998 243.676 267.088 243.682 267.176 243.694C267.264 243.706 267.332 243.726 267.38 243.754V244.828C267.32 244.8 267.242 244.782 267.146 244.774C267.054 244.762 266.976 244.756 266.912 244.756C266.664 244.74 266.432 244.756 266.216 244.804C266 244.848 265.81 244.926 265.646 245.038C265.482 245.15 265.352 245.298 265.256 245.482C265.164 245.662 265.118 245.882 265.118 246.142V250H264.014Z" fill="#6E7880"/>
<path d="M288.363 250V241.324H289.899L292.515 248.488L295.167 241.324H296.697V250H295.551V242.986L293.037 250H291.999L289.503 243.052V250H288.363ZM300.445 250.12C300.045 250.12 299.691 250.05 299.383 249.91C299.075 249.766 298.833 249.56 298.657 249.292C298.485 249.024 298.399 248.7 298.399 248.32C298.399 247.632 298.639 247.12 299.119 246.784C299.599 246.448 300.369 246.268 301.429 246.244L302.539 246.214V245.728C302.539 245.348 302.425 245.048 302.197 244.828C301.969 244.604 301.615 244.492 301.135 244.492C300.779 244.496 300.465 244.58 300.193 244.744C299.925 244.908 299.751 245.176 299.671 245.548H298.693C298.717 245.144 298.831 244.804 299.035 244.528C299.239 244.248 299.523 244.036 299.887 243.892C300.255 243.748 300.689 243.676 301.189 243.676C301.729 243.676 302.177 243.752 302.533 243.904C302.893 244.056 303.161 244.28 303.337 244.576C303.517 244.872 303.607 245.236 303.607 245.668V250H302.659L302.581 248.836C302.341 249.32 302.035 249.656 301.663 249.844C301.295 250.028 300.889 250.12 300.445 250.12ZM300.781 249.322C300.989 249.322 301.195 249.284 301.399 249.208C301.607 249.132 301.797 249.03 301.969 248.902C302.141 248.77 302.277 248.624 302.377 248.464C302.481 248.3 302.535 248.132 302.539 247.96V246.898L301.615 246.916C301.143 246.924 300.747 246.972 300.427 247.06C300.111 247.148 299.873 247.286 299.713 247.474C299.557 247.662 299.479 247.908 299.479 248.212C299.479 248.56 299.599 248.832 299.839 249.028C300.083 249.224 300.397 249.322 300.781 249.322ZM305.915 251.98C305.551 251.98 305.301 251.954 305.165 251.902C305.029 251.85 304.961 251.824 304.961 251.824V251.104L305.591 251.116C305.823 251.124 306.015 251.108 306.167 251.068C306.319 251.028 306.441 250.974 306.533 250.906C306.625 250.838 306.695 250.762 306.743 250.678C306.795 250.594 306.837 250.514 306.869 250.438L307.085 249.85L304.661 243.796H305.783L307.613 248.584L309.431 243.796H310.517L307.901 250.468C307.741 250.86 307.561 251.166 307.361 251.386C307.165 251.606 306.945 251.76 306.701 251.848C306.461 251.936 306.199 251.98 305.915 251.98Z" fill="#6E7880"/>
<path d="M334.881 247.954C334.881 248.414 334.829 248.806 334.725 249.13C334.621 249.454 334.435 249.7 334.167 249.868C333.903 250.036 333.527 250.12 333.039 250.12C332.731 250.12 332.441 250.084 332.169 250.012C331.901 249.94 331.723 249.886 331.635 249.85L331.713 248.788C331.837 248.832 331.979 248.888 332.139 248.956C332.303 249.02 332.505 249.052 332.745 249.052C333.137 249.052 333.405 248.944 333.549 248.728C333.697 248.512 333.771 248.148 333.771 247.636V241.324H334.881V247.954ZM338.999 250.12C338.675 250.116 338.369 250.07 338.081 249.982C337.797 249.89 337.545 249.756 337.325 249.58C337.105 249.404 336.931 249.186 336.803 248.926C336.679 248.662 336.617 248.356 336.617 248.008V243.796H337.727V247.894C337.727 248.298 337.851 248.626 338.099 248.878C338.351 249.13 338.729 249.256 339.233 249.256C339.689 249.256 340.055 249.138 340.331 248.902C340.611 248.662 340.751 248.306 340.751 247.834V243.796H341.855V250H340.973L340.859 248.812C340.783 249.124 340.653 249.376 340.469 249.568C340.289 249.76 340.071 249.902 339.815 249.994C339.563 250.082 339.291 250.124 338.999 250.12ZM343.656 250V243.796H344.73V244.696C344.83 244.524 344.968 244.362 345.144 244.21C345.324 244.058 345.54 243.936 345.792 243.844C346.048 243.752 346.342 243.706 346.674 243.706C347.066 243.706 347.426 243.784 347.754 243.94C348.086 244.096 348.35 244.34 348.546 244.672C348.746 245 348.846 245.424 348.846 245.944V250H347.736V246.052C347.736 245.568 347.608 245.21 347.352 244.978C347.1 244.742 346.772 244.624 346.368 244.624C346.088 244.624 345.826 244.67 345.582 244.762C345.338 244.85 345.14 244.986 344.988 245.17C344.836 245.35 344.76 245.578 344.76 245.854V250H343.656Z" fill="#6E7880"/>
<path d="M374.875 247.954C374.875 248.414 374.823 248.806 374.719 249.13C374.615 249.454 374.429 249.7 374.161 249.868C373.897 250.036 373.521 250.12 373.033 250.12C372.725 250.12 372.435 250.084 372.163 250.012C371.895 249.94 371.717 249.886 371.629 249.85L371.707 248.788C371.831 248.832 371.973 248.888 372.133 248.956C372.297 249.02 372.499 249.052 372.739 249.052C373.131 249.052 373.399 248.944 373.543 248.728C373.691 248.512 373.765 248.148 373.765 247.636V241.324H374.875V247.954ZM378.993 250.12C378.669 250.116 378.363 250.07 378.075 249.982C377.791 249.89 377.539 249.756 377.319 249.58C377.099 249.404 376.925 249.186 376.797 248.926C376.673 248.662 376.611 248.356 376.611 248.008V243.796H377.721V247.894C377.721 248.298 377.845 248.626 378.093 248.878C378.345 249.13 378.723 249.256 379.227 249.256C379.683 249.256 380.049 249.138 380.325 248.902C380.605 248.662 380.745 248.306 380.745 247.834V243.796H381.849V250H380.967L380.853 248.812C380.777 249.124 380.647 249.376 380.463 249.568C380.283 249.76 380.065 249.902 379.809 249.994C379.557 250.082 379.285 250.124 378.993 250.12ZM385.216 250.078C384.88 250.078 384.608 250.032 384.4 249.94C384.196 249.848 384.038 249.724 383.926 249.568C383.818 249.412 383.744 249.234 383.704 249.034C383.668 248.83 383.65 248.62 383.65 248.404V241.084H384.742V248.296C384.742 248.608 384.802 248.842 384.922 248.998C385.046 249.154 385.218 249.24 385.438 249.256L385.774 249.262V249.982C385.682 250.01 385.586 250.032 385.486 250.048C385.386 250.068 385.296 250.078 385.216 250.078ZM387.602 251.98C387.238 251.98 386.988 251.954 386.852 251.902C386.716 251.85 386.648 251.824 386.648 251.824V251.104L387.278 251.116C387.51 251.124 387.702 251.108 387.854 251.068C388.006 251.028 388.128 250.974 388.22 250.906C388.312 250.838 388.382 250.762 388.43 250.678C388.482 250.594 388.524 250.514 388.556 250.438L388.772 249.85L386.348 243.796H387.47L389.3 248.584L391.118 243.796H392.204L389.588 250.468C389.428 250.86 389.248 251.166 389.048 251.386C388.852 251.606 388.632 251.76 388.388 251.848C388.148 251.936 387.886 251.98 387.602 251.98Z" fill="#6E7880"/>
<path d="M412.342 250L415.48 241.324H416.734L419.872 250H418.738L417.886 247.624H414.34L413.47 250H412.342ZM414.622 246.604H417.592L416.116 242.422L414.622 246.604ZM423.456 250.12C423.132 250.116 422.826 250.07 422.538 249.982C422.254 249.89 422.002 249.756 421.782 249.58C421.562 249.404 421.388 249.186 421.26 248.926C421.136 248.662 421.074 248.356 421.074 248.008V243.796H422.184V247.894C422.184 248.298 422.308 248.626 422.556 248.878C422.808 249.13 423.186 249.256 423.69 249.256C424.146 249.256 424.512 249.138 424.788 248.902C425.068 248.662 425.208 248.306 425.208 247.834V243.796H426.312V250H425.43L425.316 248.812C425.24 249.124 425.11 249.376 424.926 249.568C424.746 249.76 424.528 249.902 424.272 249.994C424.02 250.082 423.748 250.124 423.456 250.12ZM430.636 252.052C429.66 252.052 428.9 251.91 428.356 251.626C427.816 251.346 427.546 250.944 427.546 250.42C427.546 250.196 427.598 250.006 427.702 249.85C427.806 249.69 427.93 249.558 428.074 249.454C428.218 249.35 428.352 249.268 428.476 249.208C428.6 249.144 428.68 249.098 428.716 249.07C428.648 249.03 428.562 248.98 428.458 248.92C428.358 248.86 428.27 248.78 428.194 248.68C428.118 248.58 428.08 248.45 428.08 248.29C428.08 248.094 428.172 247.914 428.356 247.75C428.54 247.586 428.812 247.464 429.172 247.384C428.808 247.2 428.524 246.956 428.32 246.652C428.116 246.348 428.014 246.018 428.014 245.662C428.014 245.262 428.122 244.914 428.338 244.618C428.558 244.322 428.87 244.096 429.274 243.94C429.678 243.78 430.158 243.7 430.714 243.7C431.118 243.7 431.458 243.748 431.734 243.844C432.01 243.936 432.266 244.068 432.502 244.24C432.566 244.212 432.666 244.17 432.802 244.114C432.942 244.054 433.096 243.99 433.264 243.922C433.432 243.854 433.588 243.79 433.732 243.73C433.88 243.666 433.998 243.618 434.086 243.586L434.08 244.612L432.994 244.816C433.054 244.944 433.102 245.084 433.138 245.236C433.178 245.388 433.198 245.53 433.198 245.662C433.198 246.026 433.102 246.356 432.91 246.652C432.722 246.948 432.436 247.184 432.052 247.36C431.668 247.536 431.188 247.624 430.612 247.624C430.564 247.624 430.502 247.624 430.426 247.624C430.354 247.62 430.292 247.616 430.24 247.612C429.816 247.624 429.524 247.672 429.364 247.756C429.204 247.836 429.124 247.926 429.124 248.026C429.124 248.142 429.214 248.222 429.394 248.266C429.574 248.31 429.88 248.348 430.312 248.38C430.468 248.388 430.66 248.398 430.888 248.41C431.12 248.422 431.376 248.438 431.656 248.458C432.308 248.498 432.81 248.664 433.162 248.956C433.514 249.248 433.69 249.642 433.69 250.138C433.69 250.702 433.438 251.162 432.934 251.518C432.43 251.874 431.664 252.052 430.636 252.052ZM430.834 251.338C431.406 251.338 431.844 251.252 432.148 251.08C432.452 250.908 432.604 250.648 432.604 250.3C432.604 250.052 432.51 249.85 432.322 249.694C432.138 249.534 431.856 249.442 431.476 249.418L429.736 249.304C429.58 249.296 429.418 249.336 429.25 249.424C429.082 249.508 428.938 249.626 428.818 249.778C428.702 249.93 428.644 250.102 428.644 250.294C428.644 250.622 428.822 250.878 429.178 251.062C429.538 251.246 430.09 251.338 430.834 251.338ZM430.642 246.91C431.09 246.91 431.45 246.806 431.722 246.598C431.998 246.39 432.136 246.082 432.136 245.674C432.136 245.254 431.998 244.934 431.722 244.714C431.45 244.494 431.09 244.384 430.642 244.384C430.19 244.384 429.824 244.496 429.544 244.72C429.268 244.94 429.13 245.258 429.13 245.674C429.13 246.066 429.262 246.37 429.526 246.586C429.79 246.802 430.162 246.91 430.642 246.91Z" fill="#6E7880"/>
<path d="M457.705 250.12C457.297 250.12 456.901 250.07 456.517 249.97C456.133 249.866 455.785 249.712 455.473 249.508C455.161 249.304 454.901 249.052 454.693 248.752C454.489 248.448 454.361 248.096 454.309 247.696H455.473C455.545 248.024 455.687 248.3 455.899 248.524C456.115 248.748 456.377 248.916 456.685 249.028C456.997 249.14 457.335 249.196 457.699 249.196C458.107 249.196 458.471 249.14 458.791 249.028C459.115 248.912 459.369 248.748 459.553 248.536C459.741 248.324 459.835 248.07 459.835 247.774C459.835 247.514 459.775 247.288 459.655 247.096C459.539 246.904 459.369 246.744 459.145 246.616C458.921 246.488 458.649 246.388 458.329 246.316L456.625 245.92C455.985 245.78 455.483 245.53 455.119 245.17C454.759 244.81 454.575 244.334 454.567 243.742C454.567 243.242 454.699 242.802 454.963 242.422C455.231 242.042 455.597 241.746 456.061 241.534C456.529 241.322 457.063 241.216 457.663 241.216C458.355 241.216 458.937 241.334 459.409 241.57C459.881 241.806 460.237 242.116 460.477 242.5C460.717 242.884 460.839 243.294 460.843 243.73H459.697C459.661 243.338 459.545 243.028 459.349 242.8C459.157 242.568 458.915 242.404 458.623 242.308C458.331 242.208 458.013 242.158 457.669 242.158C457.421 242.158 457.181 242.19 456.949 242.254C456.721 242.314 456.515 242.406 456.331 242.53C456.151 242.654 456.007 242.808 455.899 242.992C455.791 243.176 455.737 243.39 455.737 243.634C455.737 243.946 455.843 244.2 456.055 244.396C456.271 244.592 456.661 244.76 457.225 244.9L458.875 245.296C459.307 245.388 459.659 245.524 459.931 245.704C460.207 245.884 460.419 246.088 460.567 246.316C460.719 246.544 460.823 246.782 460.879 247.03C460.939 247.278 460.969 247.522 460.969 247.762C460.969 248.198 460.839 248.596 460.579 248.956C460.319 249.312 459.945 249.596 459.457 249.808C458.973 250.016 458.389 250.12 457.705 250.12ZM463.409 247.156C463.409 247.548 463.473 247.904 463.601 248.224C463.733 248.54 463.931 248.792 464.195 248.98C464.463 249.168 464.797 249.262 465.197 249.262C465.593 249.262 465.933 249.17 466.217 248.986C466.505 248.802 466.689 248.536 466.769 248.188H467.819C467.743 248.608 467.575 248.962 467.315 249.25C467.055 249.538 466.741 249.756 466.373 249.904C466.005 250.048 465.621 250.12 465.221 250.12C464.641 250.12 464.131 249.994 463.691 249.742C463.251 249.49 462.907 249.128 462.659 248.656C462.411 248.184 462.287 247.618 462.287 246.958C462.287 246.306 462.399 245.734 462.623 245.242C462.847 244.75 463.171 244.366 463.595 244.09C464.023 243.814 464.537 243.676 465.137 243.676C465.721 243.676 466.215 243.802 466.619 244.054C467.023 244.306 467.329 244.662 467.537 245.122C467.749 245.578 467.855 246.12 467.855 246.748V247.156H463.409ZM463.415 246.406H466.787C466.787 246.05 466.727 245.73 466.607 245.446C466.487 245.158 466.303 244.932 466.055 244.768C465.811 244.6 465.503 244.516 465.131 244.516C464.743 244.516 464.421 244.61 464.165 244.798C463.913 244.982 463.723 245.22 463.595 245.512C463.471 245.8 463.411 246.098 463.415 246.406ZM469.379 251.932V243.796H470.483L470.495 244.876C470.567 244.748 470.659 244.614 470.771 244.474C470.887 244.334 471.027 244.204 471.191 244.084C471.359 243.964 471.553 243.866 471.773 243.79C471.997 243.714 472.251 243.676 472.535 243.676C473.031 243.676 473.467 243.79 473.843 244.018C474.223 244.242 474.519 244.586 474.731 245.05C474.943 245.514 475.049 246.102 475.049 246.814C475.049 247.526 474.945 248.128 474.737 248.62C474.533 249.108 474.237 249.48 473.849 249.736C473.461 249.992 472.993 250.12 472.445 250.12C472.169 250.12 471.923 250.08 471.707 250C471.495 249.924 471.309 249.824 471.149 249.7C470.993 249.572 470.861 249.436 470.753 249.292C470.649 249.148 470.563 249.01 470.495 248.878V251.932H469.379ZM472.235 249.256C472.747 249.256 473.165 249.062 473.489 248.674C473.813 248.282 473.975 247.674 473.975 246.85C473.975 246.142 473.827 245.58 473.531 245.164C473.235 244.748 472.803 244.54 472.235 244.54C471.659 244.54 471.223 244.754 470.927 245.182C470.631 245.606 470.483 246.162 470.483 246.85C470.483 247.294 470.549 247.698 470.681 248.062C470.813 248.426 471.009 248.716 471.269 248.932C471.529 249.148 471.851 249.256 472.235 249.256Z" fill="#6E7880"/>
<path d="M491.511 250V241.324H494.301C495.357 241.324 496.155 241.518 496.695 241.906C497.239 242.294 497.511 242.854 497.511 243.586C497.511 244.046 497.391 244.44 497.151 244.768C496.915 245.096 496.499 245.366 495.903 245.578C496.243 245.65 496.529 245.754 496.761 245.89C496.997 246.026 497.185 246.186 497.325 246.37C497.469 246.55 497.571 246.75 497.631 246.97C497.695 247.19 497.727 247.422 497.727 247.666C497.727 248.45 497.447 249.036 496.887 249.424C496.331 249.808 495.499 250 494.391 250H491.511ZM492.621 249.076H494.379C495.103 249.076 495.653 248.958 496.029 248.722C496.409 248.482 496.599 248.114 496.599 247.618C496.599 247.254 496.505 246.96 496.317 246.736C496.133 246.508 495.883 246.342 495.567 246.238C495.251 246.134 494.899 246.082 494.511 246.082H492.621V249.076ZM492.621 245.14H494.511C494.739 245.14 494.965 245.118 495.189 245.074C495.413 245.03 495.619 244.954 495.807 244.846C495.995 244.738 496.147 244.594 496.263 244.414C496.379 244.23 496.437 244 496.437 243.724C496.437 243.22 496.243 242.848 495.855 242.608C495.471 242.364 494.971 242.242 494.355 242.242H492.621V245.14ZM501.05 250.12C500.65 250.12 500.296 250.05 499.988 249.91C499.68 249.766 499.438 249.56 499.262 249.292C499.09 249.024 499.004 248.7 499.004 248.32C499.004 247.632 499.244 247.12 499.724 246.784C500.204 246.448 500.974 246.268 502.034 246.244L503.144 246.214V245.728C503.144 245.348 503.03 245.048 502.802 244.828C502.574 244.604 502.22 244.492 501.74 244.492C501.384 244.496 501.07 244.58 500.798 244.744C500.53 244.908 500.356 245.176 500.276 245.548H499.298C499.322 245.144 499.436 244.804 499.64 244.528C499.844 244.248 500.128 244.036 500.492 243.892C500.86 243.748 501.294 243.676 501.794 243.676C502.334 243.676 502.782 243.752 503.138 243.904C503.498 244.056 503.766 244.28 503.942 244.576C504.122 244.872 504.212 245.236 504.212 245.668V250H503.264L503.186 248.836C502.946 249.32 502.64 249.656 502.268 249.844C501.9 250.028 501.494 250.12 501.05 250.12ZM501.386 249.322C501.594 249.322 501.8 249.284 502.004 249.208C502.212 249.132 502.402 249.03 502.574 248.902C502.746 248.77 502.882 248.624 502.982 248.464C503.086 248.3 503.14 248.132 503.144 247.96V246.898L502.22 246.916C501.748 246.924 501.352 246.972 501.032 247.06C500.716 247.148 500.478 247.286 500.318 247.474C500.162 247.662 500.084 247.908 500.084 248.212C500.084 248.56 500.204 248.832 500.444 249.028C500.688 249.224 501.002 249.322 501.386 249.322ZM507.673 250.078C507.337 250.078 507.065 250.032 506.857 249.94C506.653 249.848 506.495 249.724 506.383 249.568C506.275 249.412 506.201 249.234 506.161 249.034C506.125 248.83 506.107 248.62 506.107 248.404V241.084H507.199V248.296C507.199 248.608 507.259 248.842 507.379 248.998C507.503 249.154 507.675 249.24 507.895 249.256L508.231 249.262V249.982C508.139 250.01 508.043 250.032 507.943 250.048C507.843 250.068 507.753 250.078 507.673 250.078ZM511.339 250.12C510.939 250.12 510.585 250.05 510.277 249.91C509.969 249.766 509.727 249.56 509.551 249.292C509.379 249.024 509.293 248.7 509.293 248.32C509.293 247.632 509.533 247.12 510.013 246.784C510.493 246.448 511.263 246.268 512.323 246.244L513.433 246.214V245.728C513.433 245.348 513.319 245.048 513.091 244.828C512.863 244.604 512.509 244.492 512.029 244.492C511.673 244.496 511.359 244.58 511.087 244.744C510.819 244.908 510.645 245.176 510.565 245.548H509.587C509.611 245.144 509.725 244.804 509.929 244.528C510.133 244.248 510.417 244.036 510.781 243.892C511.149 243.748 511.583 243.676 512.083 243.676C512.623 243.676 513.071 243.752 513.427 243.904C513.787 244.056 514.055 244.28 514.231 244.576C514.411 244.872 514.501 245.236 514.501 245.668V250H513.553L513.475 248.836C513.235 249.32 512.929 249.656 512.557 249.844C512.189 250.028 511.783 250.12 511.339 250.12ZM511.675 249.322C511.883 249.322 512.089 249.284 512.293 249.208C512.501 249.132 512.691 249.03 512.863 248.902C513.035 248.77 513.171 248.624 513.271 248.464C513.375 248.3 513.429 248.132 513.433 247.96V246.898L512.509 246.916C512.037 246.924 511.641 246.972 511.321 247.06C511.005 247.148 510.767 247.286 510.607 247.474C510.451 247.662 510.373 247.908 510.373 248.212C510.373 248.56 510.493 248.832 510.733 249.028C510.977 249.224 511.291 249.322 511.675 249.322ZM516.397 250V243.796H517.471V244.696C517.571 244.524 517.709 244.362 517.885 244.21C518.065 244.058 518.281 243.936 518.533 243.844C518.789 243.752 519.083 243.706 519.415 243.706C519.807 243.706 520.167 243.784 520.495 243.94C520.827 244.096 521.091 244.34 521.287 244.672C521.487 245 521.587 245.424 521.587 245.944V250H520.477V246.052C520.477 245.568 520.349 245.21 520.093 244.978C519.841 244.742 519.513 244.624 519.109 244.624C518.829 244.624 518.567 244.67 518.323 244.762C518.079 244.85 517.881 244.986 517.729 245.17C517.577 245.35 517.501 245.578 517.501 245.854V250H516.397ZM525.794 243.676C526.238 243.676 526.638 243.762 526.994 243.934C527.35 244.102 527.64 244.342 527.864 244.654C528.092 244.966 528.234 245.334 528.29 245.758H527.306C527.27 245.542 527.186 245.344 527.054 245.164C526.926 244.984 526.756 244.84 526.544 244.732C526.332 244.624 526.084 244.57 525.8 244.57C525.268 244.57 524.836 244.762 524.504 245.146C524.172 245.53 524.006 246.118 524.006 246.91C524.006 247.626 524.158 248.2 524.462 248.632C524.77 249.06 525.222 249.274 525.818 249.274C526.102 249.274 526.348 249.22 526.556 249.112C526.768 249 526.938 248.854 527.066 248.674C527.194 248.49 527.276 248.294 527.312 248.086H528.278C528.226 248.502 528.086 248.862 527.858 249.166C527.63 249.47 527.338 249.706 526.982 249.874C526.63 250.038 526.234 250.12 525.794 250.12C525.238 250.12 524.744 249.998 524.312 249.754C523.884 249.51 523.548 249.15 523.304 248.674C523.06 248.198 522.938 247.614 522.938 246.922C522.938 246.274 523.048 245.708 523.268 245.224C523.492 244.736 523.816 244.356 524.24 244.084C524.668 243.812 525.186 243.676 525.794 243.676ZM530.583 247.156C530.583 247.548 530.647 247.904 530.775 248.224C530.907 248.54 531.105 248.792 531.369 248.98C531.637 249.168 531.971 249.262 532.371 249.262C532.767 249.262 533.107 249.17 533.391 248.986C533.679 248.802 533.863 248.536 533.943 248.188H534.993C534.917 248.608 534.749 248.962 534.489 249.25C534.229 249.538 533.915 249.756 533.547 249.904C533.179 250.048 532.795 250.12 532.395 250.12C531.815 250.12 531.305 249.994 530.865 249.742C530.425 249.49 530.081 249.128 529.833 248.656C529.585 248.184 529.461 247.618 529.461 246.958C529.461 246.306 529.573 245.734 529.797 245.242C530.021 244.75 530.345 244.366 530.769 244.09C531.197 243.814 531.711 243.676 532.311 243.676C532.895 243.676 533.389 243.802 533.793 244.054C534.197 244.306 534.503 244.662 534.711 245.122C534.923 245.578 535.029 246.12 535.029 246.748V247.156H530.583ZM530.589 246.406H533.961C533.961 246.05 533.901 245.73 533.781 245.446C533.661 245.158 533.477 244.932 533.229 244.768C532.985 244.6 532.677 244.516 532.305 244.516C531.917 244.516 531.595 244.61 531.339 244.798C531.087 244.982 530.897 245.22 530.769 245.512C530.645 245.8 530.585 246.098 530.589 246.406Z" fill="#6E7880"/>
<path d="M80 135H111.304V223H80V135Z" fill="#6B8BFF"/>
<path d="M121.27 103H152.574V135H121.27V103Z" fill="#5ED1B1"/>
<path d="M162.539 103H193.843V122H162.539V103Z" fill="#FF7A7A"/>
<path d="M203.809 122H235.113V129H203.809V122Z" fill="#FF7A7A"/>
<path d="M245.078 129H276.382V139H245.078V129Z" fill="#FF7A7A"/>
<path d="M286.348 139H317.652V141H286.348V139Z" fill="#FF7A7A"/>
<path d="M327.617 141H358.922V147H327.617V141Z" fill="#FF7A7A"/>
<path d="M368.887 147H400.191V167H368.887V147Z" fill="#FF7A7A"/>
<path d="M410.156 162H441.461V167H410.156V162Z" fill="#5ED1B1"/>
<path d="M451.426 153H482.73V162H451.426V153Z" fill="#5ED1B1"/>
<path d="M492.695 153H524V223H492.695V153Z" fill="#6B8BFF"/>
<rect x="44" y="281" width="12" height="12" rx="4" fill="#6B8BFF"/>
<path d="M61.337 292V281.878H64.592C65.824 281.878 66.755 282.104 67.385 282.557C68.0197 283.01 68.337 283.663 68.337 284.517C68.337 285.054 68.197 285.513 67.917 285.896C67.6417 286.279 67.1563 286.594 66.461 286.841C66.8577 286.925 67.1913 287.046 67.462 287.205C67.7373 287.364 67.9567 287.55 68.12 287.765C68.288 287.975 68.407 288.208 68.477 288.465C68.5517 288.722 68.589 288.992 68.589 289.277C68.589 290.192 68.2623 290.875 67.609 291.328C66.9603 291.776 65.9897 292 64.697 292H61.337ZM62.632 290.922H64.683C65.5277 290.922 66.1693 290.784 66.608 290.509C67.0513 290.229 67.273 289.8 67.273 289.221C67.273 288.796 67.1633 288.453 66.944 288.192C66.7293 287.926 66.4377 287.732 66.069 287.611C65.7003 287.49 65.2897 287.429 64.837 287.429H62.632V290.922ZM62.632 286.33H64.837C65.103 286.33 65.3667 286.304 65.628 286.253C65.8893 286.202 66.1297 286.113 66.349 285.987C66.5683 285.861 66.7457 285.693 66.881 285.483C67.0163 285.268 67.084 285 67.084 284.678C67.084 284.09 66.8577 283.656 66.405 283.376C65.957 283.091 65.3737 282.949 64.655 282.949H62.632V286.33ZM72.3956 292.14C71.9289 292.14 71.5159 292.058 71.1566 291.895C70.7972 291.727 70.5149 291.487 70.3096 291.174C70.1089 290.861 70.0086 290.483 70.0086 290.04C70.0086 289.237 70.2886 288.64 70.8486 288.248C71.4086 287.856 72.3069 287.646 73.5436 287.618L74.8386 287.583V287.016C74.8386 286.573 74.7056 286.223 74.4396 285.966C74.1736 285.705 73.7606 285.574 73.2006 285.574C72.7852 285.579 72.4189 285.677 72.1016 285.868C71.7889 286.059 71.5859 286.372 71.4926 286.806H70.3516C70.3796 286.335 70.5126 285.938 70.7506 285.616C70.9886 285.289 71.3199 285.042 71.7446 284.874C72.1739 284.706 72.6802 284.622 73.2636 284.622C73.8936 284.622 74.4162 284.711 74.8316 284.888C75.2516 285.065 75.5642 285.327 75.7696 285.672C75.9796 286.017 76.0846 286.442 76.0846 286.946V292H74.9786L74.8876 290.642C74.6076 291.207 74.2506 291.599 73.8166 291.818C73.3872 292.033 72.9136 292.14 72.3956 292.14ZM72.7876 291.209C73.0302 291.209 73.2706 291.165 73.5086 291.076C73.7512 290.987 73.9729 290.868 74.1736 290.719C74.3742 290.565 74.5329 290.395 74.6496 290.208C74.7709 290.017 74.8339 289.821 74.8386 289.62V288.381L73.7606 288.402C73.2099 288.411 72.7479 288.467 72.3746 288.57C72.0059 288.673 71.7282 288.834 71.5416 289.053C71.3596 289.272 71.2686 289.559 71.2686 289.914C71.2686 290.32 71.4086 290.637 71.6886 290.866C71.9732 291.095 72.3396 291.209 72.7876 291.209ZM80.0529 292.091C79.6609 292.091 79.3436 292.037 79.1009 291.93C78.8629 291.823 78.6786 291.678 78.5479 291.496C78.4219 291.314 78.3356 291.106 78.2889 290.873C78.2469 290.635 78.2259 290.39 78.2259 290.138V281.598H79.4999V290.012C79.4999 290.376 79.5699 290.649 79.7099 290.831C79.8546 291.013 80.0553 291.113 80.3119 291.132L80.7039 291.139V291.979C80.5966 292.012 80.4846 292.037 80.3679 292.056C80.2513 292.079 80.1463 292.091 80.0529 292.091ZM84.2595 292.14C83.7928 292.14 83.3798 292.058 83.0205 291.895C82.6612 291.727 82.3788 291.487 82.1735 291.174C81.9728 290.861 81.8725 290.483 81.8725 290.04C81.8725 289.237 82.1525 288.64 82.7125 288.248C83.2725 287.856 84.1708 287.646 85.4075 287.618L86.7025 287.583V287.016C86.7025 286.573 86.5695 286.223 86.3035 285.966C86.0375 285.705 85.6245 285.574 85.0645 285.574C84.6492 285.579 84.2828 285.677 83.9655 285.868C83.6528 286.059 83.4498 286.372 83.3565 286.806H82.2155C82.2435 286.335 82.3765 285.938 82.6145 285.616C82.8525 285.289 83.1838 285.042 83.6085 284.874C84.0378 284.706 84.5442 284.622 85.1275 284.622C85.7575 284.622 86.2802 284.711 86.6955 284.888C87.1155 285.065 87.4282 285.327 87.6335 285.672C87.8435 286.017 87.9485 286.442 87.9485 286.946V292H86.8425L86.7515 290.642C86.4715 291.207 86.1145 291.599 85.6805 291.818C85.2512 292.033 84.7775 292.14 84.2595 292.14ZM84.6515 291.209C84.8942 291.209 85.1345 291.165 85.3725 291.076C85.6152 290.987 85.8368 290.868 86.0375 290.719C86.2382 290.565 86.3968 290.395 86.5135 290.208C86.6348 290.017 86.6978 289.821 86.7025 289.62V288.381L85.6245 288.402C85.0738 288.411 84.6118 288.467 84.2385 288.57C83.8698 288.673 83.5922 288.834 83.4055 289.053C83.2235 289.272 83.1325 289.559 83.1325 289.914C83.1325 290.32 83.2725 290.637 83.5525 290.866C83.8372 291.095 84.2035 291.209 84.6515 291.209ZM90.0898 292V284.762H91.3428V285.812C91.4595 285.611 91.6205 285.422 91.8258 285.245C92.0358 285.068 92.2878 284.925 92.5818 284.818C92.8805 284.711 93.2235 284.657 93.6108 284.657C94.0682 284.657 94.4882 284.748 94.8708 284.93C95.2582 285.112 95.5662 285.397 95.7948 285.784C96.0282 286.167 96.1448 286.661 96.1448 287.268V292H94.8498V287.394C94.8498 286.829 94.7005 286.412 94.4018 286.141C94.1078 285.866 93.7252 285.728 93.2538 285.728C92.9272 285.728 92.6215 285.782 92.3368 285.889C92.0522 285.992 91.8212 286.15 91.6438 286.365C91.4665 286.575 91.3778 286.841 91.3778 287.163V292H90.0898ZM100.984 284.622C101.502 284.622 101.969 284.722 102.384 284.923C102.799 285.119 103.138 285.399 103.399 285.763C103.665 286.127 103.831 286.556 103.896 287.051H102.748C102.706 286.799 102.608 286.568 102.454 286.358C102.305 286.148 102.106 285.98 101.859 285.854C101.612 285.728 101.322 285.665 100.991 285.665C100.37 285.665 99.8662 285.889 99.4789 286.337C99.0916 286.785 98.8979 287.471 98.8979 288.395C98.8979 289.23 99.0752 289.9 99.4299 290.404C99.7892 290.903 100.317 291.153 101.012 291.153C101.343 291.153 101.63 291.09 101.873 290.964C102.12 290.833 102.319 290.663 102.468 290.453C102.617 290.238 102.713 290.01 102.755 289.767H103.882C103.821 290.252 103.658 290.672 103.392 291.027C103.126 291.382 102.785 291.657 102.37 291.853C101.959 292.044 101.497 292.14 100.984 292.14C100.335 292.14 99.7589 291.998 99.2549 291.713C98.7556 291.428 98.3636 291.008 98.0789 290.453C97.7942 289.898 97.6519 289.216 97.6519 288.409C97.6519 287.653 97.7802 286.993 98.0369 286.428C98.2982 285.859 98.6762 285.415 99.1709 285.098C99.6702 284.781 100.275 284.622 100.984 284.622ZM106.501 288.682C106.501 289.139 106.575 289.555 106.725 289.928C106.879 290.297 107.11 290.591 107.418 290.81C107.73 291.029 108.12 291.139 108.587 291.139C109.049 291.139 109.445 291.032 109.777 290.817C110.113 290.602 110.327 290.292 110.421 289.886H111.646C111.557 290.376 111.361 290.789 111.058 291.125C110.754 291.461 110.388 291.715 109.959 291.888C109.529 292.056 109.081 292.14 108.615 292.14C107.938 292.14 107.343 291.993 106.83 291.699C106.316 291.405 105.915 290.983 105.626 290.432C105.336 289.881 105.192 289.221 105.192 288.451C105.192 287.69 105.322 287.023 105.584 286.449C105.845 285.875 106.223 285.427 106.718 285.105C107.217 284.783 107.817 284.622 108.517 284.622C109.198 284.622 109.774 284.769 110.246 285.063C110.717 285.357 111.074 285.772 111.317 286.309C111.564 286.841 111.688 287.473 111.688 288.206V288.682H106.501ZM106.508 287.807H110.442C110.442 287.392 110.372 287.018 110.232 286.687C110.092 286.351 109.877 286.087 109.588 285.896C109.303 285.7 108.944 285.602 108.51 285.602C108.057 285.602 107.681 285.712 107.383 285.931C107.089 286.146 106.867 286.423 106.718 286.764C106.573 287.1 106.503 287.448 106.508 287.807Z" fill="#172733"/>
<rect x="129" y="281" width="12" height="12" rx="4" fill="#5ED1B1"/>
<path d="M146.337 281.878H147.632V292H146.337V281.878ZM149.966 292V284.762H151.219V285.812C151.336 285.611 151.497 285.422 151.702 285.245C151.912 285.068 152.164 284.925 152.458 284.818C152.757 284.711 153.1 284.657 153.487 284.657C153.944 284.657 154.364 284.748 154.747 284.93C155.134 285.112 155.442 285.397 155.671 285.784C155.904 286.167 156.021 286.661 156.021 287.268V292H154.726V287.394C154.726 286.829 154.577 286.412 154.278 286.141C153.984 285.866 153.601 285.728 153.13 285.728C152.803 285.728 152.498 285.782 152.213 285.889C151.928 285.992 151.697 286.15 151.52 286.365C151.343 286.575 151.254 286.841 151.254 287.163V292H149.966ZM160.86 284.622C161.378 284.622 161.845 284.722 162.26 284.923C162.675 285.119 163.014 285.399 163.275 285.763C163.541 286.127 163.707 286.556 163.772 287.051H162.624C162.582 286.799 162.484 286.568 162.33 286.358C162.181 286.148 161.982 285.98 161.735 285.854C161.488 285.728 161.198 285.665 160.867 285.665C160.246 285.665 159.742 285.889 159.355 286.337C158.968 286.785 158.774 287.471 158.774 288.395C158.774 289.23 158.951 289.9 159.306 290.404C159.665 290.903 160.193 291.153 160.888 291.153C161.219 291.153 161.506 291.09 161.749 290.964C161.996 290.833 162.195 290.663 162.344 290.453C162.493 290.238 162.589 290.01 162.631 289.767H163.758C163.697 290.252 163.534 290.672 163.268 291.027C163.002 291.382 162.661 291.657 162.246 291.853C161.835 292.044 161.373 292.14 160.86 292.14C160.211 292.14 159.635 291.998 159.131 291.713C158.632 291.428 158.24 291.008 157.955 290.453C157.67 289.898 157.528 289.216 157.528 288.409C157.528 287.653 157.656 286.993 157.913 286.428C158.174 285.859 158.552 285.415 159.047 285.098C159.546 284.781 160.151 284.622 160.86 284.622ZM165.453 292V284.762H166.685V286.155C166.806 285.81 166.976 285.525 167.196 285.301C167.415 285.072 167.665 284.902 167.945 284.79C168.229 284.678 168.523 284.622 168.827 284.622C168.934 284.622 169.039 284.629 169.142 284.643C169.244 284.657 169.324 284.68 169.38 284.713V285.966C169.31 285.933 169.219 285.912 169.107 285.903C168.999 285.889 168.908 285.882 168.834 285.882C168.544 285.863 168.274 285.882 168.022 285.938C167.77 285.989 167.548 286.08 167.357 286.211C167.165 286.342 167.014 286.514 166.902 286.729C166.794 286.939 166.741 287.196 166.741 287.499V292H165.453ZM171.584 288.682C171.584 289.139 171.659 289.555 171.808 289.928C171.962 290.297 172.193 290.591 172.501 290.81C172.814 291.029 173.203 291.139 173.67 291.139C174.132 291.139 174.529 291.032 174.86 290.817C175.196 290.602 175.411 290.292 175.504 289.886H176.729C176.64 290.376 176.444 290.789 176.141 291.125C175.838 291.461 175.471 291.715 175.042 291.888C174.613 292.056 174.165 292.14 173.698 292.14C173.021 292.14 172.426 291.993 171.913 291.699C171.4 291.405 170.998 290.983 170.709 290.432C170.42 289.881 170.275 289.221 170.275 288.451C170.275 287.69 170.406 287.023 170.667 286.449C170.928 285.875 171.306 285.427 171.801 285.105C172.3 284.783 172.9 284.622 173.6 284.622C174.281 284.622 174.858 284.769 175.329 285.063C175.8 285.357 176.157 285.772 176.4 286.309C176.647 286.841 176.771 287.473 176.771 288.206V288.682H171.584ZM171.591 287.807H175.525C175.525 287.392 175.455 287.018 175.315 286.687C175.175 286.351 174.96 286.087 174.671 285.896C174.386 285.7 174.027 285.602 173.593 285.602C173.14 285.602 172.765 285.712 172.466 285.931C172.172 286.146 171.95 286.423 171.801 286.764C171.656 287.1 171.586 287.448 171.591 287.807ZM180.399 292.14C179.932 292.14 179.519 292.058 179.16 291.895C178.8 291.727 178.518 291.487 178.313 291.174C178.112 290.861 178.012 290.483 178.012 290.04C178.012 289.237 178.292 288.64 178.852 288.248C179.412 287.856 180.31 287.646 181.547 287.618L182.842 287.583V287.016C182.842 286.573 182.709 286.223 182.443 285.966C182.177 285.705 181.764 285.574 181.204 285.574C180.788 285.579 180.422 285.677 180.105 285.868C179.792 286.059 179.589 286.372 179.496 286.806H178.355C178.383 286.335 178.516 285.938 178.754 285.616C178.992 285.289 179.323 285.042 179.748 284.874C180.177 284.706 180.683 284.622 181.267 284.622C181.897 284.622 182.419 284.711 182.835 284.888C183.255 285.065 183.567 285.327 183.773 285.672C183.983 286.017 184.088 286.442 184.088 286.946V292H182.982L182.891 290.642C182.611 291.207 182.254 291.599 181.82 291.818C181.39 292.033 180.917 292.14 180.399 292.14ZM180.791 291.209C181.033 291.209 181.274 291.165 181.512 291.076C181.754 290.987 181.976 290.868 182.177 290.719C182.377 290.565 182.536 290.395 182.653 290.208C182.774 290.017 182.837 289.821 182.842 289.62V288.381L181.764 288.402C181.213 288.411 180.751 288.467 180.378 288.57C180.009 288.673 179.731 288.834 179.545 289.053C179.363 289.272 179.272 289.559 179.272 289.914C179.272 290.32 179.412 290.637 179.692 290.866C179.976 291.095 180.343 291.209 180.791 291.209ZM188.689 292.14C188.185 292.14 187.716 292.063 187.282 291.909C186.852 291.75 186.495 291.505 186.211 291.174C185.926 290.838 185.746 290.411 185.672 289.893H186.848C186.913 290.178 187.03 290.416 187.198 290.607C187.37 290.794 187.585 290.936 187.842 291.034C188.098 291.127 188.378 291.174 188.682 291.174C189.167 291.174 189.559 291.083 189.858 290.901C190.156 290.719 190.306 290.439 190.306 290.061C190.306 289.795 190.226 289.583 190.068 289.424C189.914 289.261 189.673 289.142 189.347 289.067L187.849 288.696C187.265 288.556 186.799 288.337 186.449 288.038C186.099 287.739 185.924 287.322 185.924 286.785C185.919 286.36 186.019 285.987 186.225 285.665C186.43 285.343 186.738 285.089 187.149 284.902C187.559 284.715 188.07 284.622 188.682 284.622C189.466 284.622 190.098 284.799 190.579 285.154C191.064 285.504 191.316 286.02 191.335 286.701H190.194C190.147 286.356 189.991 286.083 189.725 285.882C189.463 285.677 189.111 285.574 188.668 285.574C188.206 285.574 187.83 285.667 187.541 285.854C187.251 286.036 187.107 286.321 187.107 286.708C187.107 286.965 187.209 287.168 187.415 287.317C187.62 287.462 187.923 287.583 188.325 287.681L189.774 288.045C190.11 288.134 190.385 288.25 190.6 288.395C190.819 288.54 190.992 288.701 191.118 288.878C191.248 289.055 191.339 289.242 191.391 289.438C191.447 289.629 191.475 289.814 191.475 289.991C191.475 290.434 191.363 290.817 191.139 291.139C190.919 291.456 190.602 291.704 190.187 291.881C189.776 292.054 189.277 292.14 188.689 292.14ZM194.138 288.682C194.138 289.139 194.212 289.555 194.362 289.928C194.516 290.297 194.747 290.591 195.055 290.81C195.367 291.029 195.757 291.139 196.224 291.139C196.686 291.139 197.082 291.032 197.414 290.817C197.75 290.602 197.964 290.292 198.058 289.886H199.283C199.194 290.376 198.998 290.789 198.695 291.125C198.391 291.461 198.025 291.715 197.596 291.888C197.166 292.056 196.718 292.14 196.252 292.14C195.575 292.14 194.98 291.993 194.467 291.699C193.953 291.405 193.552 290.983 193.263 290.432C192.973 289.881 192.829 289.221 192.829 288.451C192.829 287.69 192.959 287.023 193.221 286.449C193.482 285.875 193.86 285.427 194.355 285.105C194.854 284.783 195.454 284.622 196.154 284.622C196.835 284.622 197.411 284.769 197.883 285.063C198.354 285.357 198.711 285.772 198.954 286.309C199.201 286.841 199.325 287.473 199.325 288.206V288.682H194.138ZM194.145 287.807H198.079C198.079 287.392 198.009 287.018 197.869 286.687C197.729 286.351 197.514 286.087 197.225 285.896C196.94 285.7 196.581 285.602 196.147 285.602C195.694 285.602 195.318 285.712 195.02 285.931C194.726 286.146 194.504 286.423 194.355 286.764C194.21 287.1 194.14 287.448 194.145 287.807Z" fill="#172733"/>
<rect x="217" y="281" width="12" height="12" rx="4" fill="#FF7A7A"/>
<path d="M234.337 281.878C234.37 281.878 234.468 281.88 234.631 281.885C234.799 281.885 235.002 281.885 235.24 281.885C235.478 281.88 235.725 281.88 235.982 281.885C236.239 281.885 236.474 281.887 236.689 281.892C237.93 281.911 238.936 282.114 239.706 282.501C240.481 282.884 241.048 283.441 241.407 284.174C241.771 284.907 241.953 285.807 241.953 286.876C241.953 287.996 241.757 288.936 241.365 289.697C240.978 290.458 240.385 291.032 239.587 291.419C238.794 291.806 237.783 292 236.556 292H234.337V281.878ZM235.667 282.991V290.887H236.556C237.391 290.887 238.11 290.759 238.712 290.502C239.314 290.241 239.776 289.818 240.098 289.235C240.425 288.652 240.588 287.872 240.588 286.897C240.588 285.922 240.429 285.149 240.112 284.58C239.799 284.011 239.347 283.605 238.754 283.362C238.161 283.115 237.447 282.991 236.612 282.991H235.667ZM244.632 288.682C244.632 289.139 244.707 289.555 244.856 289.928C245.01 290.297 245.241 290.591 245.549 290.81C245.862 291.029 246.251 291.139 246.718 291.139C247.18 291.139 247.577 291.032 247.908 290.817C248.244 290.602 248.459 290.292 248.552 289.886H249.777C249.688 290.376 249.492 290.789 249.189 291.125C248.886 291.461 248.519 291.715 248.09 291.888C247.661 292.056 247.213 292.14 246.746 292.14C246.069 292.14 245.474 291.993 244.961 291.699C244.448 291.405 244.046 290.983 243.757 290.432C243.468 289.881 243.323 289.221 243.323 288.451C243.323 287.69 243.454 287.023 243.715 286.449C243.976 285.875 244.354 285.427 244.849 285.105C245.348 284.783 245.948 284.622 246.648 284.622C247.329 284.622 247.906 284.769 248.377 285.063C248.848 285.357 249.205 285.772 249.448 286.309C249.695 286.841 249.819 287.473 249.819 288.206V288.682H244.632ZM244.639 287.807H248.573C248.573 287.392 248.503 287.018 248.363 286.687C248.223 286.351 248.008 286.087 247.719 285.896C247.434 285.7 247.075 285.602 246.641 285.602C246.188 285.602 245.813 285.712 245.514 285.931C245.22 286.146 244.998 286.423 244.849 286.764C244.704 287.1 244.634 287.448 244.639 287.807ZM254.411 284.622C254.929 284.622 255.395 284.722 255.811 284.923C256.226 285.119 256.564 285.399 256.826 285.763C257.092 286.127 257.257 286.556 257.323 287.051H256.175C256.133 286.799 256.035 286.568 255.881 286.358C255.731 286.148 255.533 285.98 255.286 285.854C255.038 285.728 254.749 285.665 254.418 285.665C253.797 285.665 253.293 285.889 252.906 286.337C252.518 286.785 252.325 287.471 252.325 288.395C252.325 289.23 252.502 289.9 252.857 290.404C253.216 290.903 253.743 291.153 254.439 291.153C254.77 291.153 255.057 291.09 255.3 290.964C255.547 290.833 255.745 290.663 255.895 290.453C256.044 290.238 256.14 290.01 256.182 289.767H257.309C257.248 290.252 257.085 290.672 256.819 291.027C256.553 291.382 256.212 291.657 255.797 291.853C255.386 292.044 254.924 292.14 254.411 292.14C253.762 292.14 253.186 291.998 252.682 291.713C252.182 291.428 251.79 291.008 251.506 290.453C251.221 289.898 251.079 289.216 251.079 288.409C251.079 287.653 251.207 286.993 251.464 286.428C251.725 285.859 252.103 285.415 252.598 285.098C253.097 284.781 253.701 284.622 254.411 284.622ZM259.004 292V284.762H260.236V286.155C260.357 285.81 260.527 285.525 260.747 285.301C260.966 285.072 261.216 284.902 261.496 284.79C261.78 284.678 262.074 284.622 262.378 284.622C262.485 284.622 262.59 284.629 262.693 284.643C262.795 284.657 262.875 284.68 262.931 284.713V285.966C262.861 285.933 262.77 285.912 262.658 285.903C262.55 285.889 262.459 285.882 262.385 285.882C262.095 285.863 261.825 285.882 261.573 285.938C261.321 285.989 261.099 286.08 260.908 286.211C260.716 286.342 260.565 286.514 260.453 286.729C260.345 286.939 260.292 287.196 260.292 287.499V292H259.004ZM265.135 288.682C265.135 289.139 265.21 289.555 265.359 289.928C265.513 290.297 265.744 290.591 266.052 290.81C266.365 291.029 266.754 291.139 267.221 291.139C267.683 291.139 268.08 291.032 268.411 290.817C268.747 290.602 268.962 290.292 269.055 289.886H270.28C270.191 290.376 269.995 290.789 269.692 291.125C269.389 291.461 269.022 291.715 268.593 291.888C268.164 292.056 267.716 292.14 267.249 292.14C266.572 292.14 265.977 291.993 265.464 291.699C264.951 291.405 264.549 290.983 264.26 290.432C263.971 289.881 263.826 289.221 263.826 288.451C263.826 287.69 263.957 287.023 264.218 286.449C264.479 285.875 264.857 285.427 265.352 285.105C265.851 284.783 266.451 284.622 267.151 284.622C267.832 284.622 268.409 284.769 268.88 285.063C269.351 285.357 269.708 285.772 269.951 286.309C270.198 286.841 270.322 287.473 270.322 288.206V288.682H265.135ZM265.142 287.807H269.076C269.076 287.392 269.006 287.018 268.866 286.687C268.726 286.351 268.511 286.087 268.222 285.896C267.937 285.7 267.578 285.602 267.144 285.602C266.691 285.602 266.316 285.712 266.017 285.931C265.723 286.146 265.501 286.423 265.352 286.764C265.207 287.1 265.137 287.448 265.142 287.807ZM273.95 292.14C273.483 292.14 273.07 292.058 272.711 291.895C272.351 291.727 272.069 291.487 271.864 291.174C271.663 290.861 271.563 290.483 271.563 290.04C271.563 289.237 271.843 288.64 272.403 288.248C272.963 287.856 273.861 287.646 275.098 287.618L276.393 287.583V287.016C276.393 286.573 276.26 286.223 275.994 285.966C275.728 285.705 275.315 285.574 274.755 285.574C274.339 285.579 273.973 285.677 273.656 285.868C273.343 286.059 273.14 286.372 273.047 286.806H271.906C271.934 286.335 272.067 285.938 272.305 285.616C272.543 285.289 272.874 285.042 273.299 284.874C273.728 284.706 274.234 284.622 274.818 284.622C275.448 284.622 275.97 284.711 276.386 284.888C276.806 285.065 277.118 285.327 277.324 285.672C277.534 286.017 277.639 286.442 277.639 286.946V292H276.533L276.442 290.642C276.162 291.207 275.805 291.599 275.371 291.818C274.941 292.033 274.468 292.14 273.95 292.14ZM274.342 291.209C274.584 291.209 274.825 291.165 275.063 291.076C275.305 290.987 275.527 290.868 275.728 290.719C275.928 290.565 276.087 290.395 276.204 290.208C276.325 290.017 276.388 289.821 276.393 289.62V288.381L275.315 288.402C274.764 288.411 274.302 288.467 273.929 288.57C273.56 288.673 273.282 288.834 273.096 289.053C272.914 289.272 272.823 289.559 272.823 289.914C272.823 290.32 272.963 290.637 273.243 290.866C273.527 291.095 273.894 291.209 274.342 291.209ZM282.24 292.14C281.736 292.14 281.267 292.063 280.833 291.909C280.403 291.75 280.046 291.505 279.762 291.174C279.477 290.838 279.297 290.411 279.223 289.893H280.399C280.464 290.178 280.581 290.416 280.749 290.607C280.921 290.794 281.136 290.936 281.393 291.034C281.649 291.127 281.929 291.174 282.233 291.174C282.718 291.174 283.11 291.083 283.409 290.901C283.707 290.719 283.857 290.439 283.857 290.061C283.857 289.795 283.777 289.583 283.619 289.424C283.465 289.261 283.224 289.142 282.898 289.067L281.4 288.696C280.816 288.556 280.35 288.337 280 288.038C279.65 287.739 279.475 287.322 279.475 286.785C279.47 286.36 279.57 285.987 279.776 285.665C279.981 285.343 280.289 285.089 280.7 284.902C281.11 284.715 281.621 284.622 282.233 284.622C283.017 284.622 283.649 284.799 284.13 285.154C284.615 285.504 284.867 286.02 284.886 286.701H283.745C283.698 286.356 283.542 286.083 283.276 285.882C283.014 285.677 282.662 285.574 282.219 285.574C281.757 285.574 281.381 285.667 281.092 285.854C280.802 286.036 280.658 286.321 280.658 286.708C280.658 286.965 280.76 287.168 280.966 287.317C281.171 287.462 281.474 287.583 281.876 287.681L283.325 288.045C283.661 288.134 283.936 288.25 284.151 288.395C284.37 288.54 284.543 288.701 284.669 288.878C284.799 289.055 284.89 289.242 284.942 289.438C284.998 289.629 285.026 289.814 285.026 289.991C285.026 290.434 284.914 290.817 284.69 291.139C284.47 291.456 284.153 291.704 283.738 291.881C283.327 292.054 282.828 292.14 282.24 292.14ZM287.689 288.682C287.689 289.139 287.763 289.555 287.913 289.928C288.067 290.297 288.298 290.591 288.606 290.81C288.918 291.029 289.308 291.139 289.775 291.139C290.237 291.139 290.633 291.032 290.965 290.817C291.301 290.602 291.515 290.292 291.609 289.886H292.834C292.745 290.376 292.549 290.789 292.246 291.125C291.942 291.461 291.576 291.715 291.147 291.888C290.717 292.056 290.269 292.14 289.803 292.14C289.126 292.14 288.531 291.993 288.018 291.699C287.504 291.405 287.103 290.983 286.814 290.432C286.524 289.881 286.38 289.221 286.38 288.451C286.38 287.69 286.51 287.023 286.772 286.449C287.033 285.875 287.411 285.427 287.906 285.105C288.405 284.783 289.005 284.622 289.705 284.622C290.386 284.622 290.962 284.769 291.434 285.063C291.905 285.357 292.262 285.772 292.505 286.309C292.752 286.841 292.876 287.473 292.876 288.206V288.682H287.689ZM287.696 287.807H291.63C291.63 287.392 291.56 287.018 291.42 286.687C291.28 286.351 291.065 286.087 290.776 285.896C290.491 285.7 290.132 285.602 289.698 285.602C289.245 285.602 288.869 285.712 288.571 285.931C288.277 286.146 288.055 286.423 287.906 286.764C287.761 287.1 287.691 287.448 287.696 287.807Z" fill="#172733"/>
</g>
<defs>
<filter id="filter0_dd_989_7582" x="0" y="0" width="564" height="328" filterUnits="userSpaceOnUse" color-interpolation-filters="sRGB">
<feFlood flood-opacity="0" result="BackgroundImageFix"/>
<feColorMatrix in="SourceAlpha" type="matrix" values="0 0 0 0 0 0 0 0 0 0 0 0 0 0 0 0 0 0 127 0" result="hardAlpha"/>
<feOffset/>
<feGaussianBlur stdDeviation="0.5"/>
<feColorMatrix type="matrix" values="0 0 0 0 0 0 0 0 0 0 0 0 0 0 0 0 0 0 0.25 0"/>
<feBlend mode="normal" in2="BackgroundImageFix" result="effect1_dropShadow_989_7582"/>
<feColorMatrix in="SourceAlpha" type="matrix" values="0 0 0 0 0 0 0 0 0 0 0 0 0 0 0 0 0 0 127 0" result="hardAlpha"/>
<feOffset dy="2"/>
<feGaussianBlur stdDeviation="2"/>
<feColorMatrix type="matrix" values="0 0 0 0 0 0 0 0 0 0 0 0 0 0 0 0 0 0 0.05 0"/>
<feBlend mode="normal" in2="effect1_dropShadow_989_7582" result="effect2_dropShadow_989_7582"/>
<feBlend mode="normal" in="SourceGraphic" in2="effect2_dropShadow_989_7582" result="shape"/>
</filter>
</defs>
</svg>
